{
  "asset": {
    "version": "2.0",
    "generator": "prefab-to-gltf"
  },
  "scene": 0,
  "scenes": [
    {
      "name": "Feet_High_WKobold_Heavy",
      "nodes": [
        0
      ]
    }
  ],
  "nodes": [
    {
      "name": "Feet_R1S3_Fig_N",
      "translation": [
        0,
        0,
        0
      ],
      "rotation": [
        0,
        0,
        0,
        1
      ],
      "scale": [
        1,
        1,
        1
      ],
      "mesh": 0
    }
  ],
  "meshes": [
    {
      "name": "Feet_R1S3_Fig_N",
      "primitives": [
        {
          "attributes": {
            "POSITION": 0,
            "NORMAL": 1,
            "TEXCOORD_0": 2,
            "TEXCOORD_1": 3
          },
          "indices": 4,
          "material": 0,
          "mode": 4
        }
      ]
    }
  ],
  "materials": [
    {
      "name": "GradMat_Body",
      "pbrMetallicRoughness": {
        "baseColorFactor": [
          1,
          1,
          1,
          1
        ],
        "metallicFactor": 0,
        "roughnessFactor": 1
      },
      "doubleSided": true,
      "extras": {
        "diffuseTexture": "Character/Common/Texture/CustomGradient_BasicGuy.png",
        "specularTexture": null,
        "normalMap": null
      }
    }
  ],
  "buffers": [
    {
      "uri": "Feet_High_WKobold_Heavy.bin",
      "byteLength": 227876
    }
  ],
  "bufferViews": [
    {
      "buffer": 0,
      "byteOffset": 0,
      "byteLength": 61548,
      "target": 34962
    },
    {
      "buffer": 0,
      "byteOffset": 61548,
      "byteLength": 61548,
      "target": 34962
    },
    {
      "buffer": 0,
      "byteOffset": 123096,
      "byteLength": 41032,
      "target": 34962
    },
    {
      "buffer": 0,
      "byteOffset": 164128,
      "byteLength": 41032,
      "target": 34962
    },
    {
      "buffer": 0,
      "byteOffset": 205160,
      "byteLength": 22716,
      "target": 34963
    }
  ],
  "accessors": [
    {
      "bufferView": 0,
      "componentType": 5126,
      "count": 5129,
      "type": "VEC3",
      "min": [
        -0.416748046875,
        -0.00507354736328125,
        -0.1552734375
      ],
      "max": [
        0.416748046875,
        0.5283203125,
        0.34375
      ]
    },
    {
      "bufferView": 1,
      "componentType": 5126,
      "count": 5129,
      "type": "VEC3",
      "min": [
        -0.5019607843137255,
        -0.5019607843137255,
        -0.5019607843137255
      ],
      "max": [
        1,
        1,
        1
      ]
    },
    {
      "bufferView": 2,
      "componentType": 5126,
      "count": 5129,
      "type": "VEC2",
      "min": [
        0.1312255859375,
        0.31494140625
      ],
      "max": [
        0.6044921875,
        0.98193359375
      ]
    },
    {
      "bufferView": 3,
      "componentType": 5126,
      "count": 5129,
      "type": "VEC2",
      "min": [
        0,
        0.121337890625
      ],
      "max": [
        0.94970703125,
        1
      ]
    },
    {
      "bufferView": 4,
      "componentType": 5123,
      "count": 11358,
      "type": "SCALAR",
      "min": [
        0
      ],
      "max": [
        5128
      ]
    }
  ],
  "extras": {
    "manifest": "Feet_High_WKobold_Heavy.materials.json"
  }
}