{
  "asset": {
    "version": "2.0",
    "generator": "prefab-to-gltf"
  },
  "scene": 0,
  "scenes": [
    {
      "name": "Hands_Forearm_WKobold_Light",
      "nodes": [
        0
      ]
    }
  ],
  "nodes": [
    {
      "name": "Hands_R1Mountain_Wiz_N",
      "translation": [
        0,
        0,
        0
      ],
      "rotation": [
        0,
        0,
        0,
        1
      ],
      "scale": [
        1,
        1,
        1
      ],
      "mesh": 0
    }
  ],
  "meshes": [
    {
      "name": "Hands_R1Mountain_Wiz_N",
      "primitives": [
        {
          "attributes": {
            "POSITION": 0,
            "NORMAL": 1,
            "TEXCOORD_0": 2,
            "TEXCOORD_1": 3
          },
          "indices": 4,
          "material": 0,
          "mode": 4
        }
      ]
    }
  ],
  "materials": [
    {
      "name": "GradMat_Body",
      "pbrMetallicRoughness": {
        "baseColorFactor": [
          1,
          1,
          1,
          1
        ],
        "metallicFactor": 0,
        "roughnessFactor": 1
      },
      "doubleSided": true,
      "extras": {
        "diffuseTexture": "Character/Common/Texture/CustomGradient_BasicGuy.png",
        "specularTexture": null,
        "normalMap": null
      }
    }
  ],
  "buffers": [
    {
      "uri": "Hands_Forearm_WKobold_Light.bin",
      "byteLength": 260268
    }
  ],
  "bufferViews": [
    {
      "buffer": 0,
      "byteOffset": 0,
      "byteLength": 68868,
      "target": 34962
    },
    {
      "buffer": 0,
      "byteOffset": 68868,
      "byteLength": 68868,
      "target": 34962
    },
    {
      "buffer": 0,
      "byteOffset": 137736,
      "byteLength": 45912,
      "target": 34962
    },
    {
      "buffer": 0,
      "byteOffset": 183648,
      "byteLength": 45912,
      "target": 34962
    },
    {
      "buffer": 0,
      "byteOffset": 229560,
      "byteLength": 30708,
      "target": 34963
    }
  ],
  "accessors": [
    {
      "bufferView": 0,
      "componentType": 5126,
      "count": 5739,
      "type": "VEC3",
      "min": [
        -0.81201171875,
        0.9814453125,
        -0.006053924560546875
      ],
      "max": [
        0.81201171875,
        1.3896484375,
        0.337646484375
      ]
    },
    {
      "bufferView": 1,
      "componentType": 5126,
      "count": 5739,
      "type": "VEC3",
      "min": [
        -0.5019607843137255,
        -0.5019607843137255,
        -0.5019607843137255
      ],
      "max": [
        1,
        1,
        1
      ]
    },
    {
      "bufferView": 2,
      "componentType": 5126,
      "count": 5739,
      "type": "VEC2",
      "min": [
        0.020599365234375,
        0.158447265625
      ],
      "max": [
        0.68603515625,
        0.9609375
      ]
    },
    {
      "bufferView": 3,
      "componentType": 5126,
      "count": 5739,
      "type": "VEC2",
      "min": [
        0,
        0.1192626953125
      ],
      "max": [
        0.943359375,
        1.0009765625
      ]
    },
    {
      "bufferView": 4,
      "componentType": 5123,
      "count": 15354,
      "type": "SCALAR",
      "min": [
        0
      ],
      "max": [
        5738
      ]
    }
  ],
  "extras": {
    "manifest": "Hands_Forearm_WKobold_Light.materials.json"
  }
}