{
  "asset": {
    "version": "2.0",
    "generator": "prefab-to-gltf"
  },
  "scene": 0,
  "scenes": [
    {
      "name": "Waist_Thick_WKobold_Medium",
      "nodes": [
        0
      ]
    }
  ],
  "nodes": [
    {
      "name": "Waist_R1S3_AssWiz_N",
      "translation": [
        0,
        0,
        0
      ],
      "rotation": [
        0,
        0,
        0,
        1
      ],
      "scale": [
        1,
        1,
        1
      ],
      "mesh": 0
    }
  ],
  "meshes": [
    {
      "name": "Waist_R1S3_AssWiz_N",
      "primitives": [
        {
          "attributes": {
            "POSITION": 0,
            "NORMAL": 1,
            "TEXCOORD_0": 2,
            "TEXCOORD_1": 3
          },
          "indices": 4,
          "material": 0,
          "mode": 4
        }
      ]
    }
  ],
  "materials": [
    {
      "name": "GradMat_Body",
      "pbrMetallicRoughness": {
        "baseColorFactor": [
          1,
          1,
          1,
          1
        ],
        "metallicFactor": 0,
        "roughnessFactor": 1
      },
      "doubleSided": true,
      "extras": {
        "diffuseTexture": "Character/Common/Texture/CustomGradient_BasicGuy.png",
        "specularTexture": null,
        "normalMap": null
      }
    }
  ],
  "buffers": [
    {
      "uri": "Waist_Thick_WKobold_Medium.bin",
      "byteLength": 147680
    }
  ],
  "bufferViews": [
    {
      "buffer": 0,
      "byteOffset": 0,
      "byteLength": 39228,
      "target": 34962
    },
    {
      "buffer": 0,
      "byteOffset": 39228,
      "byteLength": 39228,
      "target": 34962
    },
    {
      "buffer": 0,
      "byteOffset": 78456,
      "byteLength": 26152,
      "target": 34962
    },
    {
      "buffer": 0,
      "byteOffset": 104608,
      "byteLength": 26152,
      "target": 34962
    },
    {
      "buffer": 0,
      "byteOffset": 130760,
      "byteLength": 16920,
      "target": 34963
    }
  ],
  "accessors": [
    {
      "bufferView": 0,
      "componentType": 5126,
      "count": 3269,
      "type": "VEC3",
      "min": [
        -0.260009765625,
        1.1416015625,
        -0.1207275390625
      ],
      "max": [
        0.26123046875,
        1.33984375,
        0.30419921875
      ]
    },
    {
      "bufferView": 1,
      "componentType": 5126,
      "count": 3269,
      "type": "VEC3",
      "min": [
        -0.5019607843137255,
        -0.5019607843137255,
        -0.5019607843137255
      ],
      "max": [
        1,
        1,
        1
      ]
    },
    {
      "bufferView": 2,
      "componentType": 5126,
      "count": 3269,
      "type": "VEC2",
      "min": [
        0.15283203125,
        0.1949462890625
      ],
      "max": [
        0.474609375,
        0.97998046875
      ]
    },
    {
      "bufferView": 3,
      "componentType": 5126,
      "count": 3269,
      "type": "VEC2",
      "min": [
        0,
        0.11688232421875
      ],
      "max": [
        0.9384765625,
        1
      ]
    },
    {
      "bufferView": 4,
      "componentType": 5123,
      "count": 8460,
      "type": "SCALAR",
      "min": [
        0
      ],
      "max": [
        3268
      ]
    }
  ],
  "extras": {
    "manifest": "Waist_Thick_WKobold_Medium.materials.json"
  }
}