{
  "asset": {
    "version": "2.0",
    "generator": "prefab-to-gltf"
  },
  "scene": 0,
  "scenes": [
    {
      "name": "Waist_Medium_WKobold_Light",
      "nodes": [
        0
      ]
    }
  ],
  "nodes": [
    {
      "name": "Waist_R1Mountain_Cle_N",
      "translation": [
        0,
        0,
        0
      ],
      "rotation": [
        0,
        0,
        0,
        1
      ],
      "scale": [
        1,
        1,
        1
      ],
      "mesh": 0
    }
  ],
  "meshes": [
    {
      "name": "Waist_R1Mountain_Cle_N",
      "primitives": [
        {
          "attributes": {
            "POSITION": 0,
            "NORMAL": 1,
            "TEXCOORD_0": 2,
            "TEXCOORD_1": 3
          },
          "indices": 4,
          "material": 0,
          "mode": 4
        }
      ]
    }
  ],
  "materials": [
    {
      "name": "GradMat_Body",
      "pbrMetallicRoughness": {
        "baseColorFactor": [
          1,
          1,
          1,
          1
        ],
        "metallicFactor": 0,
        "roughnessFactor": 1
      },
      "doubleSided": true,
      "extras": {
        "diffuseTexture": "Character/Common/Texture/CustomGradient_BasicGuy.png",
        "specularTexture": null,
        "normalMap": null
      }
    }
  ],
  "buffers": [
    {
      "uri": "Waist_Medium_WKobold_Light.bin",
      "byteLength": 75404
    }
  ],
  "bufferViews": [
    {
      "buffer": 0,
      "byteOffset": 0,
      "byteLength": 20616,
      "target": 34962
    },
    {
      "buffer": 0,
      "byteOffset": 20616,
      "byteLength": 20616,
      "target": 34962
    },
    {
      "buffer": 0,
      "byteOffset": 41232,
      "byteLength": 13744,
      "target": 34962
    },
    {
      "buffer": 0,
      "byteOffset": 54976,
      "byteLength": 13744,
      "target": 34962
    },
    {
      "buffer": 0,
      "byteOffset": 68720,
      "byteLength": 6684,
      "target": 34963
    }
  ],
  "accessors": [
    {
      "bufferView": 0,
      "componentType": 5126,
      "count": 1718,
      "type": "VEC3",
      "min": [
        -0.2244873046875,
        1.1611328125,
        -0.0946044921875
      ],
      "max": [
        0.2225341796875,
        1.2998046875,
        0.270751953125
      ]
    },
    {
      "bufferView": 1,
      "componentType": 5126,
      "count": 1718,
      "type": "VEC3",
      "min": [
        -0.5019607843137255,
        -0.5019607843137255,
        -0.5019607843137255
      ],
      "max": [
        1,
        1,
        1
      ]
    },
    {
      "bufferView": 2,
      "componentType": 5126,
      "count": 1718,
      "type": "VEC2",
      "min": [
        0.1343994140625,
        0.156982421875
      ],
      "max": [
        0.34716796875,
        0.89892578125
      ]
    },
    {
      "bufferView": 3,
      "componentType": 5126,
      "count": 1718,
      "type": "VEC2",
      "min": [
        0,
        0.12274169921875
      ],
      "max": [
        0.9404296875,
        1
      ]
    },
    {
      "bufferView": 4,
      "componentType": 5123,
      "count": 3342,
      "type": "SCALAR",
      "min": [
        0
      ],
      "max": [
        1717
      ]
    }
  ],
  "extras": {
    "manifest": "Waist_Medium_WKobold_Light.materials.json"
  }
}