{
  "asset": {
    "version": "2.0",
    "generator": "prefab-to-gltf"
  },
  "scene": 0,
  "scenes": [
    {
      "name": "Back_Long_RBee_Heavy",
      "nodes": [
        0
      ]
    }
  ],
  "nodes": [
    {
      "name": "Back_Long_Z1RBee_Heavy_N",
      "translation": [
        0,
        0,
        0
      ],
      "rotation": [
        0,
        0,
        0,
        1
      ],
      "scale": [
        1,
        1,
        1
      ],
      "mesh": 0,
      "children": [
        1
      ]
    },
    {
      "name": "Z1RBeeA_Heavy",
      "translation": [
        0,
        0,
        0
      ],
      "rotation": [
        0.7071067690849304,
        0,
        0,
        0.7071067932881644
      ],
      "scale": [
        1,
        1,
        1
      ]
    }
  ],
  "meshes": [
    {
      "name": "Back_Long_Z1RBee_Heavy_N",
      "primitives": [
        {
          "attributes": {
            "POSITION": 0,
            "NORMAL": 1,
            "TEXCOORD_0": 2,
            "TEXCOORD_1": 3
          },
          "indices": 4,
          "material": 0,
          "mode": 4
        }
      ]
    }
  ],
  "materials": [
    {
      "name": "GradMat_Body",
      "pbrMetallicRoughness": {
        "baseColorFactor": [
          1,
          1,
          1,
          1
        ],
        "metallicFactor": 0,
        "roughnessFactor": 1
      },
      "doubleSided": true,
      "extras": {
        "diffuseTexture": "Character/Common/Texture/CustomGradient_RobinHoof.png",
        "specularTexture": null,
        "normalMap": null
      }
    }
  ],
  "buffers": [
    {
      "uri": "Back_Long_RBee_Heavy.bin",
      "byteLength": 120244
    }
  ],
  "bufferViews": [
    {
      "buffer": 0,
      "byteOffset": 0,
      "byteLength": 32124,
      "target": 34962
    },
    {
      "buffer": 0,
      "byteOffset": 32124,
      "byteLength": 32124,
      "target": 34962
    },
    {
      "buffer": 0,
      "byteOffset": 64248,
      "byteLength": 21416,
      "target": 34962
    },
    {
      "buffer": 0,
      "byteOffset": 85664,
      "byteLength": 21416,
      "target": 34962
    },
    {
      "buffer": 0,
      "byteOffset": 107080,
      "byteLength": 13164,
      "target": 34963
    }
  ],
  "accessors": [
    {
      "bufferView": 0,
      "componentType": 5126,
      "count": 2677,
      "type": "VEC3",
      "min": [
        -0.339111328125,
        0.5546875,
        -0.30810546875
      ],
      "max": [
        0.347412109375,
        1.736328125,
        -0.0328369140625
      ]
    },
    {
      "bufferView": 1,
      "componentType": 5126,
      "count": 2677,
      "type": "VEC3",
      "min": [
        -0.5019607843137255,
        -0.4117647058823529,
        -0.5019607843137255
      ],
      "max": [
        1,
        1,
        1
      ]
    },
    {
      "bufferView": 2,
      "componentType": 5126,
      "count": 2677,
      "type": "VEC2",
      "min": [
        0.09466552734375,
        0.27734375
      ],
      "max": [
        0.88232421875,
        0.91455078125
      ]
    },
    {
      "bufferView": 3,
      "componentType": 5126,
      "count": 2677,
      "type": "VEC2",
      "min": [
        0,
        0.03265380859375
      ],
      "max": [
        0.94091796875,
        1
      ]
    },
    {
      "bufferView": 4,
      "componentType": 5123,
      "count": 6582,
      "type": "SCALAR",
      "min": [
        0
      ],
      "max": [
        2676
      ]
    }
  ],
  "extras": {
    "manifest": "Back_Long_RBee_Heavy.materials.json"
  }
}