{
  "asset": {
    "version": "2.0",
    "generator": "prefab-to-gltf"
  },
  "scene": 0,
  "scenes": [
    {
      "name": "Chest_NoSleeves_RBee_Medium",
      "nodes": [
        0
      ]
    }
  ],
  "nodes": [
    {
      "name": "Chest_NoSleeves_Z1RBeeA_Medium_N",
      "translation": [
        0,
        0,
        0
      ],
      "rotation": [
        0,
        0,
        0,
        1
      ],
      "scale": [
        1,
        1,
        1
      ],
      "mesh": 0,
      "children": [
        1
      ]
    },
    {
      "name": "Z1RBeeA_Medium",
      "translation": [
        0,
        0,
        0
      ],
      "rotation": [
        0.7071067690849304,
        0,
        0,
        0.7071067932881644
      ],
      "scale": [
        1,
        1,
        1
      ]
    }
  ],
  "meshes": [
    {
      "name": "Chest_NoSleeves_Z1RBeeA_Medium_N",
      "primitives": [
        {
          "attributes": {
            "POSITION": 0,
            "NORMAL": 1,
            "TEXCOORD_0": 2,
            "TEXCOORD_1": 3,
            "COLOR_0": 4
          },
          "indices": 5,
          "material": 0,
          "mode": 4
        }
      ]
    }
  ],
  "materials": [
    {
      "name": "GradMat_Body",
      "pbrMetallicRoughness": {
        "baseColorFactor": [
          1,
          1,
          1,
          1
        ],
        "metallicFactor": 0,
        "roughnessFactor": 1
      },
      "doubleSided": true,
      "extras": {
        "diffuseTexture": "Character/Common/Texture/CustomGradient_BasicGuy.png",
        "specularTexture": null,
        "normalMap": null
      }
    }
  ],
  "buffers": [
    {
      "uri": "Chest_NoSleeves_RBee_Medium.bin",
      "byteLength": 218868
    }
  ],
  "bufferViews": [
    {
      "buffer": 0,
      "byteOffset": 0,
      "byteLength": 45936,
      "target": 34962
    },
    {
      "buffer": 0,
      "byteOffset": 45936,
      "byteLength": 45936,
      "target": 34962
    },
    {
      "buffer": 0,
      "byteOffset": 91872,
      "byteLength": 30624,
      "target": 34962
    },
    {
      "buffer": 0,
      "byteOffset": 122496,
      "byteLength": 30624,
      "target": 34962
    },
    {
      "buffer": 0,
      "byteOffset": 153120,
      "byteLength": 45936,
      "target": 34962
    },
    {
      "buffer": 0,
      "byteOffset": 199056,
      "byteLength": 19812,
      "target": 34963
    }
  ],
  "accessors": [
    {
      "bufferView": 0,
      "componentType": 5126,
      "count": 3828,
      "type": "VEC3",
      "min": [
        -0.66650390625,
        1.173828125,
        -0.10662841796875
      ],
      "max": [
        0.66650390625,
        1.9326171875,
        0.2384033203125
      ]
    },
    {
      "bufferView": 1,
      "componentType": 5126,
      "count": 3828,
      "type": "VEC3",
      "min": [
        -0.5019607843137255,
        -0.5019607843137255,
        -0.5019607843137255
      ],
      "max": [
        1,
        1,
        1
      ]
    },
    {
      "bufferView": 2,
      "componentType": 5126,
      "count": 3828,
      "type": "VEC2",
      "min": [
        0.00803375244140625,
        0.09130859375
      ],
      "max": [
        0.7890625,
        0.97705078125
      ]
    },
    {
      "bufferView": 3,
      "componentType": 5126,
      "count": 3828,
      "type": "VEC2",
      "min": [
        0,
        0.03265380859375
      ],
      "max": [
        0.943359375,
        1
      ]
    },
    {
      "bufferView": 4,
      "componentType": 5126,
      "count": 2871,
      "type": "VEC4",
      "min": [
        0.3607843220233917,
        0.3607843220233917,
        0.3607843220233917,
        0.3607843220233917
      ],
      "max": [
        1,
        1,
        1,
        1
      ]
    },
    {
      "bufferView": 5,
      "componentType": 5123,
      "count": 9906,
      "type": "SCALAR",
      "min": [
        0
      ],
      "max": [
        3827
      ]
    }
  ],
  "extras": {
    "manifest": "Chest_NoSleeves_RBee_Medium.materials.json"
  }
}