{
  "asset": {
    "version": "2.0",
    "generator": "prefab-to-gltf"
  },
  "scene": 0,
  "scenes": [
    {
      "name": "Hands_Forearm_RBee_Heavy",
      "nodes": [
        0
      ]
    }
  ],
  "nodes": [
    {
      "name": "Hands_Forearm_Z1RBeeA_Heavy_N",
      "translation": [
        0,
        0,
        0
      ],
      "rotation": [
        0,
        0,
        0,
        1
      ],
      "scale": [
        1,
        1,
        1
      ],
      "mesh": 0,
      "children": [
        1
      ]
    },
    {
      "name": "Z1RBeeA_Heavy",
      "translation": [
        0,
        0,
        0
      ],
      "rotation": [
        0.7071067690849304,
        0,
        0,
        0.7071067932881644
      ],
      "scale": [
        1,
        1,
        1
      ]
    }
  ],
  "meshes": [
    {
      "name": "Hands_Forearm_Z1RBeeA_Heavy_N",
      "primitives": [
        {
          "attributes": {
            "POSITION": 0,
            "NORMAL": 1,
            "TEXCOORD_0": 2,
            "TEXCOORD_1": 3
          },
          "indices": 4,
          "material": 0,
          "mode": 4
        }
      ]
    }
  ],
  "materials": [
    {
      "name": "GradMat_Body",
      "pbrMetallicRoughness": {
        "baseColorFactor": [
          1,
          1,
          1,
          1
        ],
        "metallicFactor": 0,
        "roughnessFactor": 1
      },
      "doubleSided": true,
      "extras": {
        "diffuseTexture": "Character/Common/Texture/CustomGradient_BasicGuy.png",
        "specularTexture": null,
        "normalMap": null
      }
    }
  ],
  "buffers": [
    {
      "uri": "Hands_Forearm_RBee_Heavy.bin",
      "byteLength": 255676
    }
  ],
  "bufferViews": [
    {
      "buffer": 0,
      "byteOffset": 0,
      "byteLength": 68376,
      "target": 34962
    },
    {
      "buffer": 0,
      "byteOffset": 68376,
      "byteLength": 68376,
      "target": 34962
    },
    {
      "buffer": 0,
      "byteOffset": 136752,
      "byteLength": 45584,
      "target": 34962
    },
    {
      "buffer": 0,
      "byteOffset": 182336,
      "byteLength": 45584,
      "target": 34962
    },
    {
      "buffer": 0,
      "byteOffset": 227920,
      "byteLength": 27756,
      "target": 34963
    }
  ],
  "accessors": [
    {
      "bufferView": 0,
      "componentType": 5126,
      "count": 5698,
      "type": "VEC3",
      "min": [
        -0.81298828125,
        0.978515625,
        -0.039154052734375
      ],
      "max": [
        0.81298828125,
        1.4765625,
        0.34033203125
      ]
    },
    {
      "bufferView": 1,
      "componentType": 5126,
      "count": 5698,
      "type": "VEC3",
      "min": [
        -0.5019607843137255,
        -0.5019607843137255,
        -0.5019607843137255
      ],
      "max": [
        1,
        1,
        1
      ]
    },
    {
      "bufferView": 2,
      "componentType": 5126,
      "count": 5698,
      "type": "VEC2",
      "min": [
        0.1102294921875,
        0.276611328125
      ],
      "max": [
        0.4697265625,
        0.91357421875
      ]
    },
    {
      "bufferView": 3,
      "componentType": 5126,
      "count": 5698,
      "type": "VEC2",
      "min": [
        0,
        0.1129150390625
      ],
      "max": [
        0.943359375,
        1
      ]
    },
    {
      "bufferView": 4,
      "componentType": 5123,
      "count": 13878,
      "type": "SCALAR",
      "min": [
        0
      ],
      "max": [
        5697
      ]
    }
  ],
  "extras": {
    "manifest": "Hands_Forearm_RBee_Heavy.materials.json"
  }
}