{
  "asset": {
    "version": "2.0",
    "generator": "prefab-to-gltf"
  },
  "scene": 0,
  "scenes": [
    {
      "name": "Legs_Shin_RBee_Heavy",
      "nodes": [
        0
      ]
    }
  ],
  "nodes": [
    {
      "name": "Legs_Shin_Z1RBeeA_Heavy_N",
      "translation": [
        0,
        0,
        0
      ],
      "rotation": [
        0,
        0,
        0,
        1
      ],
      "scale": [
        1,
        1,
        1
      ],
      "mesh": 0,
      "children": [
        1
      ]
    },
    {
      "name": "Z1RBeeA_Heavy",
      "translation": [
        0,
        0,
        0
      ],
      "rotation": [
        0.7071067690849304,
        0,
        0,
        0.7071067932881644
      ],
      "scale": [
        1,
        1,
        1
      ]
    }
  ],
  "meshes": [
    {
      "name": "Legs_Shin_Z1RBeeA_Heavy_N",
      "primitives": [
        {
          "attributes": {
            "POSITION": 0,
            "NORMAL": 1,
            "TEXCOORD_0": 2,
            "TEXCOORD_1": 3
          },
          "indices": 4,
          "material": 0,
          "mode": 4
        }
      ]
    }
  ],
  "materials": [
    {
      "name": "GradMat_Body",
      "pbrMetallicRoughness": {
        "baseColorFactor": [
          1,
          1,
          1,
          1
        ],
        "metallicFactor": 0,
        "roughnessFactor": 1
      },
      "doubleSided": true,
      "extras": {
        "diffuseTexture": "Character/Common/Texture/CustomGradient_BasicGuy.png",
        "specularTexture": null,
        "normalMap": null
      }
    }
  ],
  "buffers": [
    {
      "uri": "Legs_Shin_RBee_Heavy.bin",
      "byteLength": 133892
    }
  ],
  "bufferViews": [
    {
      "buffer": 0,
      "byteOffset": 0,
      "byteLength": 36312,
      "target": 34962
    },
    {
      "buffer": 0,
      "byteOffset": 36312,
      "byteLength": 36312,
      "target": 34962
    },
    {
      "buffer": 0,
      "byteOffset": 72624,
      "byteLength": 24208,
      "target": 34962
    },
    {
      "buffer": 0,
      "byteOffset": 96832,
      "byteLength": 24208,
      "target": 34962
    },
    {
      "buffer": 0,
      "byteOffset": 121040,
      "byteLength": 12852,
      "target": 34963
    }
  ],
  "accessors": [
    {
      "bufferView": 0,
      "componentType": 5126,
      "count": 3026,
      "type": "VEC3",
      "min": [
        -0.384521484375,
        0.08514404296875,
        -0.1170654296875
      ],
      "max": [
        0.384521484375,
        1.2763671875,
        0.24853515625
      ]
    },
    {
      "bufferView": 1,
      "componentType": 5126,
      "count": 3026,
      "type": "VEC3",
      "min": [
        -0.5019607843137255,
        -0.5019607843137255,
        -0.5019607843137255
      ],
      "max": [
        1,
        1,
        1
      ]
    },
    {
      "bufferView": 2,
      "componentType": 5126,
      "count": 3026,
      "type": "VEC2",
      "min": [
        0.0242919921875,
        0.2254638671875
      ],
      "max": [
        0.45361328125,
        0.962890625
      ]
    },
    {
      "bufferView": 3,
      "componentType": 5126,
      "count": 3026,
      "type": "VEC2",
      "min": [
        0.0347900390625,
        0.1180419921875
      ],
      "max": [
        0.94384765625,
        0.96630859375
      ]
    },
    {
      "bufferView": 4,
      "componentType": 5123,
      "count": 6426,
      "type": "SCALAR",
      "min": [
        0
      ],
      "max": [
        3025
      ]
    }
  ],
  "extras": {
    "manifest": "Legs_Shin_RBee_Heavy.materials.json"
  }
}