{
  "asset": {
    "version": "2.0",
    "generator": "prefab-to-gltf"
  },
  "scene": 0,
  "scenes": [
    {
      "name": "Feet_High_WManfish_Medium",
      "nodes": [
        0
      ]
    }
  ],
  "nodes": [
    {
      "name": "Feet_R1S3_Ass_N",
      "translation": [
        0,
        0,
        0
      ],
      "rotation": [
        0,
        0,
        0,
        1
      ],
      "scale": [
        1,
        1,
        1
      ],
      "mesh": 0
    }
  ],
  "meshes": [
    {
      "name": "Feet_R1S3_Ass_N",
      "primitives": [
        {
          "attributes": {
            "POSITION": 0,
            "NORMAL": 1,
            "TEXCOORD_0": 2,
            "TEXCOORD_1": 3
          },
          "indices": 4,
          "material": 0,
          "mode": 4
        }
      ]
    }
  ],
  "materials": [
    {
      "name": "GradMat_Body",
      "pbrMetallicRoughness": {
        "baseColorFactor": [
          1,
          1,
          1,
          1
        ],
        "metallicFactor": 0,
        "roughnessFactor": 1
      },
      "doubleSided": true,
      "extras": {
        "diffuseTexture": "Character/Common/Texture/CustomGradient_BasicGuy.png",
        "specularTexture": null,
        "normalMap": null
      }
    }
  ],
  "buffers": [
    {
      "uri": "Feet_High_WManfish_Medium.bin",
      "byteLength": 204256
    }
  ],
  "bufferViews": [
    {
      "buffer": 0,
      "byteOffset": 0,
      "byteLength": 55092,
      "target": 34962
    },
    {
      "buffer": 0,
      "byteOffset": 55092,
      "byteLength": 55092,
      "target": 34962
    },
    {
      "buffer": 0,
      "byteOffset": 110184,
      "byteLength": 36728,
      "target": 34962
    },
    {
      "buffer": 0,
      "byteOffset": 146912,
      "byteLength": 36728,
      "target": 34962
    },
    {
      "buffer": 0,
      "byteOffset": 183640,
      "byteLength": 20616,
      "target": 34963
    }
  ],
  "accessors": [
    {
      "bufferView": 0,
      "componentType": 5126,
      "count": 4591,
      "type": "VEC3",
      "min": [
        -0.416015625,
        0.01255035400390625,
        -0.11981201171875
      ],
      "max": [
        0.416015625,
        0.461181640625,
        0.297607421875
      ]
    },
    {
      "bufferView": 1,
      "componentType": 5126,
      "count": 4591,
      "type": "VEC3",
      "min": [
        -0.5019607843137255,
        -0.5019607843137255,
        -0.5019607843137255
      ],
      "max": [
        1,
        1,
        1
      ]
    },
    {
      "bufferView": 2,
      "componentType": 5126,
      "count": 4591,
      "type": "VEC2",
      "min": [
        0.00566864013671875,
        0.011444091796875
      ],
      "max": [
        0.70751953125,
        0.919921875
      ]
    },
    {
      "bufferView": 3,
      "componentType": 5126,
      "count": 4591,
      "type": "VEC2",
      "min": [
        0,
        0.25341796875
      ],
      "max": [
        0.982421875,
        1
      ]
    },
    {
      "bufferView": 4,
      "componentType": 5123,
      "count": 10308,
      "type": "SCALAR",
      "min": [
        0
      ],
      "max": [
        4590
      ]
    }
  ],
  "extras": {
    "manifest": "Feet_High_WManfish_Medium.materials.json"
  }
}