{
  "asset": {
    "version": "2.0",
    "generator": "prefab-to-gltf"
  },
  "scene": 0,
  "scenes": [
    {
      "name": "Hands_Forearm_WManfish_Heavy",
      "nodes": [
        0
      ]
    }
  ],
  "nodes": [
    {
      "name": "Hands_R1S3_FigAss_N",
      "translation": [
        0,
        0,
        0
      ],
      "rotation": [
        0,
        0,
        0,
        1
      ],
      "scale": [
        1,
        1,
        1
      ],
      "mesh": 0
    }
  ],
  "meshes": [
    {
      "name": "Hands_R1S3_FigAss_N",
      "primitives": [
        {
          "attributes": {
            "POSITION": 0,
            "NORMAL": 1,
            "TEXCOORD_0": 2,
            "TEXCOORD_1": 3
          },
          "indices": 4,
          "material": 0,
          "mode": 4
        }
      ]
    }
  ],
  "materials": [
    {
      "name": "GradMat_Body",
      "pbrMetallicRoughness": {
        "baseColorFactor": [
          1,
          1,
          1,
          1
        ],
        "metallicFactor": 0,
        "roughnessFactor": 1
      },
      "doubleSided": true,
      "extras": {
        "diffuseTexture": "Character/Common/Texture/CustomGradient_BasicGuy.png",
        "specularTexture": null,
        "normalMap": null
      }
    }
  ],
  "buffers": [
    {
      "uri": "Hands_Forearm_WManfish_Heavy.bin",
      "byteLength": 315728
    }
  ],
  "bufferViews": [
    {
      "buffer": 0,
      "byteOffset": 0,
      "byteLength": 83580,
      "target": 34962
    },
    {
      "buffer": 0,
      "byteOffset": 83580,
      "byteLength": 83580,
      "target": 34962
    },
    {
      "buffer": 0,
      "byteOffset": 167160,
      "byteLength": 55720,
      "target": 34962
    },
    {
      "buffer": 0,
      "byteOffset": 222880,
      "byteLength": 55720,
      "target": 34962
    },
    {
      "buffer": 0,
      "byteOffset": 278600,
      "byteLength": 37128,
      "target": 34963
    }
  ],
  "accessors": [
    {
      "bufferView": 0,
      "componentType": 5126,
      "count": 6965,
      "type": "VEC3",
      "min": [
        -0.81201171875,
        0.9814453125,
        -0.0282745361328125
      ],
      "max": [
        0.81201171875,
        1.494140625,
        0.337646484375
      ]
    },
    {
      "bufferView": 1,
      "componentType": 5126,
      "count": 6965,
      "type": "VEC3",
      "min": [
        -0.5019607843137255,
        -0.5019607843137255,
        -0.5019607843137255
      ],
      "max": [
        1,
        1,
        1
      ]
    },
    {
      "bufferView": 2,
      "componentType": 5126,
      "count": 6965,
      "type": "VEC2",
      "min": [
        0.020599365234375,
        0.005962371826171875
      ],
      "max": [
        0.73974609375,
        0.908203125
      ]
    },
    {
      "bufferView": 3,
      "componentType": 5126,
      "count": 6965,
      "type": "VEC2",
      "min": [
        0,
        0.10284423828125
      ],
      "max": [
        0.94970703125,
        1.0009765625
      ]
    },
    {
      "bufferView": 4,
      "componentType": 5123,
      "count": 18564,
      "type": "SCALAR",
      "min": [
        0
      ],
      "max": [
        6964
      ]
    }
  ],
  "extras": {
    "manifest": "Hands_Forearm_WManfish_Heavy.materials.json"
  }
}