{
  "asset": {
    "version": "2.0",
    "generator": "prefab-to-gltf"
  },
  "scene": 0,
  "scenes": [
    {
      "name": "Human_WanderingMerchant",
      "nodes": [
        0
      ]
    }
  ],
  "nodes": [
    {
      "name": "Human_WanderingMerchant",
      "translation": [
        0,
        0,
        0
      ],
      "rotation": [
        0,
        0,
        0,
        1
      ],
      "scale": [
        1,
        1,
        1
      ],
      "mesh": 0
    }
  ],
  "meshes": [
    {
      "name": "Human_WanderingMerchant",
      "primitives": [
        {
          "attributes": {
            "POSITION": 0,
            "NORMAL": 1,
            "TEXCOORD_0": 2,
            "TEXCOORD_1": 3,
            "COLOR_0": 4
          },
          "indices": 5,
          "material": 0,
          "mode": 4
        },
        {
          "attributes": {
            "POSITION": 6,
            "NORMAL": 7,
            "TEXCOORD_0": 8,
            "TEXCOORD_1": 9,
            "COLOR_0": 10
          },
          "indices": 11,
          "material": 1,
          "mode": 4
        },
        {
          "attributes": {
            "POSITION": 12,
            "NORMAL": 13,
            "TEXCOORD_0": 14,
            "TEXCOORD_1": 15,
            "COLOR_0": 16
          },
          "indices": 17,
          "material": 2,
          "mode": 4
        },
        {
          "attributes": {
            "POSITION": 18,
            "NORMAL": 19,
            "TEXCOORD_0": 20,
            "TEXCOORD_1": 21,
            "COLOR_0": 22
          },
          "indices": 23,
          "material": 3,
          "mode": 4
        }
      ]
    }
  ],
  "materials": [
    {
      "name": "Mat_GlassInner",
      "pbrMetallicRoughness": {
        "baseColorFactor": [
          1,
          1,
          1,
          1
        ],
        "metallicFactor": 0,
        "roughnessFactor": 1
      },
      "doubleSided": true,
      "extras": {
        "diffuseTexture": null,
        "specularTexture": null,
        "normalMap": null
      }
    },
    {
      "name": "Mat_GlassOuter",
      "pbrMetallicRoughness": {
        "baseColorFactor": [
          1,
          1,
          1,
          1
        ],
        "metallicFactor": 0,
        "roughnessFactor": 1
      },
      "doubleSided": true,
      "extras": {
        "diffuseTexture": null,
        "specularTexture": null,
        "normalMap": null
      }
    },
    {
      "name": "Mat_Bag",
      "pbrMetallicRoughness": {
        "baseColorFactor": [
          1,
          1,
          1,
          1
        ],
        "metallicFactor": 0,
        "roughnessFactor": 1
      },
      "doubleSided": true,
      "extras": {
        "diffuseTexture": null,
        "specularTexture": null,
        "normalMap": null
      }
    },
    {
      "name": "GradMat_Body",
      "pbrMetallicRoughness": {
        "baseColorFactor": [
          1,
          1,
          1,
          1
        ],
        "metallicFactor": 0,
        "roughnessFactor": 1
      },
      "doubleSided": true,
      "extras": {
        "diffuseTexture": "Character/Common/Texture/CustomGradient_BasicGuy.png",
        "specularTexture": null,
        "normalMap": null
      }
    }
  ],
  "buffers": [
    {
      "uri": "Human_WanderingMerchant.bin",
      "byteLength": 6368754
    }
  ],
  "bufferViews": [
    {
      "buffer": 0,
      "byteOffset": 0,
      "byteLength": 355860,
      "target": 34962
    },
    {
      "buffer": 0,
      "byteOffset": 355860,
      "byteLength": 355860,
      "target": 34962
    },
    {
      "buffer": 0,
      "byteOffset": 711720,
      "byteLength": 237240,
      "target": 34962
    },
    {
      "buffer": 0,
      "byteOffset": 948960,
      "byteLength": 237240,
      "target": 34962
    },
    {
      "buffer": 0,
      "byteOffset": 1186200,
      "byteLength": 355860,
      "target": 34962
    },
    {
      "buffer": 0,
      "byteOffset": 1542060,
      "byteLength": 3144,
      "target": 34963
    },
    {
      "buffer": 0,
      "byteOffset": 1545204,
      "byteLength": 355860,
      "target": 34962
    },
    {
      "buffer": 0,
      "byteOffset": 1901064,
      "byteLength": 355860,
      "target": 34962
    },
    {
      "buffer": 0,
      "byteOffset": 2256924,
      "byteLength": 237240,
      "target": 34962
    },
    {
      "buffer": 0,
      "byteOffset": 2494164,
      "byteLength": 237240,
      "target": 34962
    },
    {
      "buffer": 0,
      "byteOffset": 2731404,
      "byteLength": 355860,
      "target": 34962
    },
    {
      "buffer": 0,
      "byteOffset": 3087264,
      "byteLength": 3144,
      "target": 34963
    },
    {
      "buffer": 0,
      "byteOffset": 3090408,
      "byteLength": 355860,
      "target": 34962
    },
    {
      "buffer": 0,
      "byteOffset": 3446268,
      "byteLength": 355860,
      "target": 34962
    },
    {
      "buffer": 0,
      "byteOffset": 3802128,
      "byteLength": 237240,
      "target": 34962
    },
    {
      "buffer": 0,
      "byteOffset": 4039368,
      "byteLength": 237240,
      "target": 34962
    },
    {
      "buffer": 0,
      "byteOffset": 4276608,
      "byteLength": 355860,
      "target": 34962
    },
    {
      "buffer": 0,
      "byteOffset": 4632468,
      "byteLength": 75696,
      "target": 34963
    },
    {
      "buffer": 0,
      "byteOffset": 4708164,
      "byteLength": 355860,
      "target": 34962
    },
    {
      "buffer": 0,
      "byteOffset": 5064024,
      "byteLength": 355860,
      "target": 34962
    },
    {
      "buffer": 0,
      "byteOffset": 5419884,
      "byteLength": 237240,
      "target": 34962
    },
    {
      "buffer": 0,
      "byteOffset": 5657124,
      "byteLength": 237240,
      "target": 34962
    },
    {
      "buffer": 0,
      "byteOffset": 5894364,
      "byteLength": 355860,
      "target": 34962
    },
    {
      "buffer": 0,
      "byteOffset": 6250224,
      "byteLength": 118530,
      "target": 34963
    }
  ],
  "accessors": [
    {
      "bufferView": 0,
      "componentType": 5126,
      "count": 29655,
      "type": "VEC3",
      "min": [
        -0.8336832523345947,
        -0.0035373582504689693,
        -1.0752736330032349
      ],
      "max": [
        0.9046328067779541,
        2.782564163208008,
        0.3720603585243225
      ]
    },
    {
      "bufferView": 1,
      "componentType": 5126,
      "count": 29655,
      "type": "VEC3",
      "min": [
        -0.9999616742134094,
        -0.9999950528144836,
        -0.9999983310699463
      ],
      "max": [
        0.9999935030937195,
        1,
        0.9999989867210388
      ]
    },
    {
      "bufferView": 2,
      "componentType": 5126,
      "count": 29655,
      "type": "VEC2",
      "min": [
        0.014902176335453987,
        0.0073732733726501465
      ],
      "max": [
        0.9781097173690796,
        0.9903318285942078
      ]
    },
    {
      "bufferView": 3,
      "componentType": 5126,
      "count": 29655,
      "type": "VEC2",
      "min": [
        0,
        0.003427267074584961
      ],
      "max": [
        0.9915549755096436,
        1.00118887424469
      ]
    },
    {
      "bufferView": 4,
      "componentType": 5126,
      "count": 22241.25,
      "type": "VEC4",
      "min": [
        0,
        0,
        0,
        0
      ],
      "max": [
        1,
        1,
        1,
        1
      ]
    },
    {
      "bufferView": 5,
      "componentType": 5123,
      "count": 1572,
      "type": "SCALAR",
      "min": [
        0
      ],
      "max": [
        403
      ]
    },
    {
      "bufferView": 6,
      "componentType": 5126,
      "count": 29655,
      "type": "VEC3",
      "min": [
        -0.8336832523345947,
        -0.0035373582504689693,
        -1.0752736330032349
      ],
      "max": [
        0.9046328067779541,
        2.782564163208008,
        0.3720603585243225
      ]
    },
    {
      "bufferView": 7,
      "componentType": 5126,
      "count": 29655,
      "type": "VEC3",
      "min": [
        -0.9999616742134094,
        -0.9999950528144836,
        -0.9999983310699463
      ],
      "max": [
        0.9999935030937195,
        1,
        0.9999989867210388
      ]
    },
    {
      "bufferView": 8,
      "componentType": 5126,
      "count": 29655,
      "type": "VEC2",
      "min": [
        0.014902176335453987,
        0.0073732733726501465
      ],
      "max": [
        0.9781097173690796,
        0.9903318285942078
      ]
    },
    {
      "bufferView": 9,
      "componentType": 5126,
      "count": 29655,
      "type": "VEC2",
      "min": [
        0,
        0.003427267074584961
      ],
      "max": [
        0.9915549755096436,
        1.00118887424469
      ]
    },
    {
      "bufferView": 10,
      "componentType": 5126,
      "count": 22241.25,
      "type": "VEC4",
      "min": [
        0,
        0,
        0,
        0
      ],
      "max": [
        1,
        1,
        1,
        1
      ]
    },
    {
      "bufferView": 11,
      "componentType": 5123,
      "count": 1572,
      "type": "SCALAR",
      "min": [
        0
      ],
      "max": [
        807
      ]
    },
    {
      "bufferView": 12,
      "componentType": 5126,
      "count": 29655,
      "type": "VEC3",
      "min": [
        -0.8336832523345947,
        -0.0035373582504689693,
        -1.0752736330032349
      ],
      "max": [
        0.9046328067779541,
        2.782564163208008,
        0.3720603585243225
      ]
    },
    {
      "bufferView": 13,
      "componentType": 5126,
      "count": 29655,
      "type": "VEC3",
      "min": [
        -0.9999616742134094,
        -0.9999950528144836,
        -0.9999983310699463
      ],
      "max": [
        0.9999935030937195,
        1,
        0.9999989867210388
      ]
    },
    {
      "bufferView": 14,
      "componentType": 5126,
      "count": 29655,
      "type": "VEC2",
      "min": [
        0.014902176335453987,
        0.0073732733726501465
      ],
      "max": [
        0.9781097173690796,
        0.9903318285942078
      ]
    },
    {
      "bufferView": 15,
      "componentType": 5126,
      "count": 29655,
      "type": "VEC2",
      "min": [
        0,
        0.003427267074584961
      ],
      "max": [
        0.9915549755096436,
        1.00118887424469
      ]
    },
    {
      "bufferView": 16,
      "componentType": 5126,
      "count": 22241.25,
      "type": "VEC4",
      "min": [
        0,
        0,
        0,
        0
      ],
      "max": [
        1,
        1,
        1,
        1
      ]
    },
    {
      "bufferView": 17,
      "componentType": 5123,
      "count": 37848,
      "type": "SCALAR",
      "min": [
        0
      ],
      "max": [
        12355
      ]
    },
    {
      "bufferView": 18,
      "componentType": 5126,
      "count": 29655,
      "type": "VEC3",
      "min": [
        -0.8336832523345947,
        -0.0035373582504689693,
        -1.0752736330032349
      ],
      "max": [
        0.9046328067779541,
        2.782564163208008,
        0.3720603585243225
      ]
    },
    {
      "bufferView": 19,
      "componentType": 5126,
      "count": 29655,
      "type": "VEC3",
      "min": [
        -0.9999616742134094,
        -0.9999950528144836,
        -0.9999983310699463
      ],
      "max": [
        0.9999935030937195,
        1,
        0.9999989867210388
      ]
    },
    {
      "bufferView": 20,
      "componentType": 5126,
      "count": 29655,
      "type": "VEC2",
      "min": [
        0.014902176335453987,
        0.0073732733726501465
      ],
      "max": [
        0.9781097173690796,
        0.9903318285942078
      ]
    },
    {
      "bufferView": 21,
      "componentType": 5126,
      "count": 29655,
      "type": "VEC2",
      "min": [
        0,
        0.003427267074584961
      ],
      "max": [
        0.9915549755096436,
        1.00118887424469
      ]
    },
    {
      "bufferView": 22,
      "componentType": 5126,
      "count": 22241.25,
      "type": "VEC4",
      "min": [
        0,
        0,
        0,
        0
      ],
      "max": [
        1,
        1,
        1,
        1
      ]
    },
    {
      "bufferView": 23,
      "componentType": 5123,
      "count": 59265,
      "type": "SCALAR",
      "min": [
        0
      ],
      "max": [
        29654
      ]
    }
  ],
  "extras": {
    "manifest": "Human_WanderingMerchant.materials.json"
  }
}