{
  "asset": {
    "version": "2.0",
    "generator": "prefab-to-gltf"
  },
  "scene": 0,
  "scenes": [
    {
      "name": "Chest_LongSleeves_BaseClothes_Com_05",
      "nodes": [
        0
      ]
    }
  ],
  "nodes": [
    {
      "name": "Chest_BaseClothes_Com_05_N",
      "translation": [
        0,
        0,
        0
      ],
      "rotation": [
        0,
        0,
        0,
        1
      ],
      "scale": [
        1,
        1,
        1
      ],
      "mesh": 0
    }
  ],
  "meshes": [
    {
      "name": "Chest_BaseClothes_Com_05_N",
      "primitives": [
        {
          "attributes": {
            "POSITION": 0,
            "NORMAL": 1,
            "TEXCOORD_0": 2,
            "TEXCOORD_1": 3,
            "COLOR_0": 4
          },
          "indices": 5,
          "material": 0,
          "mode": 4
        }
      ]
    }
  ],
  "materials": [
    {
      "name": "GradMat_Body",
      "pbrMetallicRoughness": {
        "baseColorFactor": [
          1,
          1,
          1,
          1
        ],
        "metallicFactor": 0,
        "roughnessFactor": 1
      },
      "doubleSided": true,
      "extras": {
        "diffuseTexture": "Character/Common/Texture/CustomGradient_RobinHoof.png",
        "specularTexture": null,
        "normalMap": null
      }
    }
  ],
  "buffers": [
    {
      "uri": "Chest_LongSleeves_BaseClothes_Com_05.bin",
      "byteLength": 73856
    }
  ],
  "bufferViews": [
    {
      "buffer": 0,
      "byteOffset": 0,
      "byteLength": 14532,
      "target": 34962
    },
    {
      "buffer": 0,
      "byteOffset": 14532,
      "byteLength": 14532,
      "target": 34962
    },
    {
      "buffer": 0,
      "byteOffset": 29064,
      "byteLength": 9688,
      "target": 34962
    },
    {
      "buffer": 0,
      "byteOffset": 38752,
      "byteLength": 9688,
      "target": 34962
    },
    {
      "buffer": 0,
      "byteOffset": 48440,
      "byteLength": 14532,
      "target": 34962
    },
    {
      "buffer": 0,
      "byteOffset": 62972,
      "byteLength": 10884,
      "target": 34963
    }
  ],
  "accessors": [
    {
      "bufferView": 0,
      "componentType": 5126,
      "count": 1211,
      "type": "VEC3",
      "min": [
        -0.6669848561286926,
        1.1743311882019043,
        -0.09134802967309952
      ],
      "max": [
        0.6669848561286926,
        1.9331179857254028,
        0.22881700098514557
      ]
    },
    {
      "bufferView": 1,
      "componentType": 5126,
      "count": 1211,
      "type": "VEC3",
      "min": [
        -0.9969916939735413,
        -0.8598137497901917,
        -0.9999445676803589
      ],
      "max": [
        0.9969933032989502,
        0.9765867590904236,
        0.9999843239784241
      ]
    },
    {
      "bufferView": 2,
      "componentType": 5126,
      "count": 1211,
      "type": "VEC2",
      "min": [
        0.025325030088424683,
        0.2080511450767517
      ],
      "max": [
        0.32434678077697754,
        0.6559966206550598
      ]
    },
    {
      "bufferView": 3,
      "componentType": 5126,
      "count": 1211,
      "type": "VEC2",
      "min": [
        0.02961866557598114,
        0.12075632810592651
      ],
      "max": [
        0.3957585096359253,
        0.969745397567749
      ]
    },
    {
      "bufferView": 4,
      "componentType": 5126,
      "count": 908.25,
      "type": "VEC4",
      "min": [
        0.3607843220233917,
        0.3607843220233917,
        0.3607843220233917,
        0.38823530077934265
      ],
      "max": [
        1,
        1,
        1,
        1
      ]
    },
    {
      "bufferView": 5,
      "componentType": 5123,
      "count": 5442,
      "type": "SCALAR",
      "min": [
        0
      ],
      "max": [
        1210
      ]
    }
  ],
  "extras": {
    "manifest": "Chest_LongSleeves_BaseClothes_Com_05.materials.json"
  }
}