{
  "asset": {
    "version": "2.0",
    "generator": "prefab-to-gltf"
  },
  "scene": 0,
  "scenes": [
    {
      "name": "Chest_ShortSleeves_BaseClothes_Com_02",
      "nodes": [
        0
      ]
    }
  ],
  "nodes": [
    {
      "name": "Chest_BaseClothes_Com_02_N",
      "translation": [
        0,
        0,
        0
      ],
      "rotation": [
        0,
        0,
        0,
        1
      ],
      "scale": [
        1,
        1,
        1
      ],
      "mesh": 0
    }
  ],
  "meshes": [
    {
      "name": "Chest_BaseClothes_Com_02_N",
      "primitives": [
        {
          "attributes": {
            "POSITION": 0,
            "NORMAL": 1,
            "TEXCOORD_0": 2,
            "TEXCOORD_1": 3,
            "COLOR_0": 4
          },
          "indices": 5,
          "material": 0,
          "mode": 4
        }
      ]
    }
  ],
  "materials": [
    {
      "name": "GradMat_Body",
      "pbrMetallicRoughness": {
        "baseColorFactor": [
          1,
          1,
          1,
          1
        ],
        "metallicFactor": 0,
        "roughnessFactor": 1
      },
      "doubleSided": true,
      "extras": {
        "diffuseTexture": "Character/Common/Texture/CustomGradient_RobinHoof.png",
        "specularTexture": null,
        "normalMap": null
      }
    }
  ],
  "buffers": [
    {
      "uri": "Chest_ShortSleeves_BaseClothes_Com_02.bin",
      "byteLength": 78704
    }
  ],
  "bufferViews": [
    {
      "buffer": 0,
      "byteOffset": 0,
      "byteLength": 15612,
      "target": 34962
    },
    {
      "buffer": 0,
      "byteOffset": 15612,
      "byteLength": 15612,
      "target": 34962
    },
    {
      "buffer": 0,
      "byteOffset": 31224,
      "byteLength": 10408,
      "target": 34962
    },
    {
      "buffer": 0,
      "byteOffset": 41632,
      "byteLength": 10408,
      "target": 34962
    },
    {
      "buffer": 0,
      "byteOffset": 52040,
      "byteLength": 15612,
      "target": 34962
    },
    {
      "buffer": 0,
      "byteOffset": 67652,
      "byteLength": 11052,
      "target": 34963
    }
  ],
  "accessors": [
    {
      "bufferView": 0,
      "componentType": 5126,
      "count": 1301,
      "type": "VEC3",
      "min": [
        -0.6669848561286926,
        1.1743311882019043,
        -0.09134802967309952
      ],
      "max": [
        0.6669848561286926,
        1.9331179857254028,
        0.22881700098514557
      ]
    },
    {
      "bufferView": 1,
      "componentType": 5126,
      "count": 1301,
      "type": "VEC3",
      "min": [
        -0.9969916939735413,
        -0.8540405035018921,
        -0.9999445676803589
      ],
      "max": [
        0.9969933032989502,
        0.9892290234565735,
        0.9999843239784241
      ]
    },
    {
      "bufferView": 2,
      "componentType": 5126,
      "count": 1301,
      "type": "VEC2",
      "min": [
        0.018141616135835648,
        0.17260557413101196
      ],
      "max": [
        0.29755282402038574,
        0.6911799907684326
      ]
    },
    {
      "bufferView": 3,
      "componentType": 5126,
      "count": 1301,
      "type": "VEC2",
      "min": [
        0.02961866557598114,
        0.11236357688903809
      ],
      "max": [
        0.29955554008483887,
        0.9609375
      ]
    },
    {
      "bufferView": 4,
      "componentType": 5126,
      "count": 975.75,
      "type": "VEC4",
      "min": [
        0.3607843220233917,
        0.3607843220233917,
        0.38823530077934265,
        0.3607843220233917
      ],
      "max": [
        1,
        1,
        1,
        1
      ]
    },
    {
      "bufferView": 5,
      "componentType": 5123,
      "count": 5526,
      "type": "SCALAR",
      "min": [
        0
      ],
      "max": [
        1300
      ]
    }
  ],
  "extras": {
    "manifest": "Chest_ShortSleeves_BaseClothes_Com_02.materials.json"
  }
}