{
  "asset": {
    "version": "2.0",
    "generator": "prefab-to-gltf"
  },
  "scene": 0,
  "scenes": [
    {
      "name": "Legs_Thigh_BaseClothes_Com_02",
      "nodes": [
        0
      ]
    }
  ],
  "nodes": [
    {
      "name": "Legs_BaseClothes_Com_02_N",
      "translation": [
        0,
        0,
        0
      ],
      "rotation": [
        0,
        0,
        0,
        1
      ],
      "scale": [
        1,
        1,
        1
      ],
      "mesh": 0
    }
  ],
  "meshes": [
    {
      "name": "Legs_BaseClothes_Com_02_N",
      "primitives": [
        {
          "attributes": {
            "POSITION": 0,
            "NORMAL": 1,
            "TEXCOORD_0": 2,
            "TEXCOORD_1": 3
          },
          "indices": 4,
          "material": 0,
          "mode": 4
        }
      ]
    }
  ],
  "materials": [
    {
      "name": "GradMat_Body",
      "pbrMetallicRoughness": {
        "baseColorFactor": [
          1,
          1,
          1,
          1
        ],
        "metallicFactor": 0,
        "roughnessFactor": 1
      },
      "doubleSided": true,
      "extras": {
        "diffuseTexture": "Character/Common/Texture/CustomGradient_RobinHoof.png",
        "specularTexture": null,
        "normalMap": null
      }
    }
  ],
  "buffers": [
    {
      "uri": "Legs_Thigh_BaseClothes_Com_02.bin",
      "byteLength": 55880
    }
  ],
  "bufferViews": [
    {
      "buffer": 0,
      "byteOffset": 0,
      "byteLength": 14604,
      "target": 34962
    },
    {
      "buffer": 0,
      "byteOffset": 14604,
      "byteLength": 14604,
      "target": 34962
    },
    {
      "buffer": 0,
      "byteOffset": 29208,
      "byteLength": 9736,
      "target": 34962
    },
    {
      "buffer": 0,
      "byteOffset": 38944,
      "byteLength": 9736,
      "target": 34962
    },
    {
      "buffer": 0,
      "byteOffset": 48680,
      "byteLength": 7200,
      "target": 34963
    }
  ],
  "accessors": [
    {
      "bufferView": 0,
      "componentType": 5126,
      "count": 1217,
      "type": "VEC3",
      "min": [
        -0.3711501955986023,
        0.0851835310459137,
        -0.09081146866083145
      ],
      "max": [
        0.3711501955986023,
        1.277111291885376,
        0.22593659162521362
      ]
    },
    {
      "bufferView": 1,
      "componentType": 5126,
      "count": 1217,
      "type": "VEC3",
      "min": [
        -0.9998149871826172,
        -0.9999964237213135,
        -0.9998624920845032
      ],
      "max": [
        0.9998149275779724,
        0.9297636151313782,
        0.9999036192893982
      ]
    },
    {
      "bufferView": 2,
      "componentType": 5126,
      "count": 1217,
      "type": "VEC2",
      "min": [
        0.03508778288960457,
        0.1925176978111267
      ],
      "max": [
        0.3161737322807312,
        0.6584815979003906
      ]
    },
    {
      "bufferView": 3,
      "componentType": 5126,
      "count": 1217,
      "type": "VEC2",
      "min": [
        0.03480285033583641,
        0.11900126934051514
      ],
      "max": [
        0.3800041079521179,
        0.969745397567749
      ]
    },
    {
      "bufferView": 4,
      "componentType": 5123,
      "count": 3600,
      "type": "SCALAR",
      "min": [
        0
      ],
      "max": [
        1216
      ]
    }
  ],
  "extras": {
    "manifest": "Legs_Thigh_BaseClothes_Com_02.materials.json"
  }
}