{
  "asset": {
    "version": "2.0",
    "generator": "prefab-to-gltf"
  },
  "scene": 0,
  "scenes": [
    {
      "name": "Legs_Shin_BaseClothes_Com_01",
      "nodes": [
        0
      ]
    }
  ],
  "nodes": [
    {
      "name": "Legs_BaseClothes_Com_01_N",
      "translation": [
        0,
        0,
        0
      ],
      "rotation": [
        0,
        0,
        0,
        1
      ],
      "scale": [
        1,
        1,
        1
      ],
      "mesh": 0
    }
  ],
  "meshes": [
    {
      "name": "Legs_BaseClothes_Com_01_N",
      "primitives": [
        {
          "attributes": {
            "POSITION": 0,
            "NORMAL": 1,
            "TEXCOORD_0": 2,
            "TEXCOORD_1": 3
          },
          "indices": 4,
          "material": 0,
          "mode": 4
        }
      ]
    }
  ],
  "materials": [
    {
      "name": "GradMat_Body",
      "pbrMetallicRoughness": {
        "baseColorFactor": [
          1,
          1,
          1,
          1
        ],
        "metallicFactor": 0,
        "roughnessFactor": 1
      },
      "doubleSided": true,
      "extras": {
        "diffuseTexture": "Character/Common/Texture/CustomGradient_RobinHoof.png",
        "specularTexture": null,
        "normalMap": null
      }
    }
  ],
  "buffers": [
    {
      "uri": "Legs_Shin_BaseClothes_Com_01.bin",
      "byteLength": 65400
    }
  ],
  "bufferViews": [
    {
      "buffer": 0,
      "byteOffset": 0,
      "byteLength": 17208,
      "target": 34962
    },
    {
      "buffer": 0,
      "byteOffset": 17208,
      "byteLength": 17208,
      "target": 34962
    },
    {
      "buffer": 0,
      "byteOffset": 34416,
      "byteLength": 11472,
      "target": 34962
    },
    {
      "buffer": 0,
      "byteOffset": 45888,
      "byteLength": 11472,
      "target": 34962
    },
    {
      "buffer": 0,
      "byteOffset": 57360,
      "byteLength": 8040,
      "target": 34963
    }
  ],
  "accessors": [
    {
      "bufferView": 0,
      "componentType": 5126,
      "count": 1434,
      "type": "VEC3",
      "min": [
        -0.3711501955986023,
        0.0851835310459137,
        -0.09081146866083145
      ],
      "max": [
        0.3711501955986023,
        1.277111291885376,
        0.23113098740577698
      ]
    },
    {
      "bufferView": 1,
      "componentType": 5126,
      "count": 1434,
      "type": "VEC3",
      "min": [
        -0.9998695850372314,
        -0.9988918900489807,
        -0.9989342093467712
      ],
      "max": [
        0.9998696446418762,
        0.9229239225387573,
        0.9999427199363708
      ]
    },
    {
      "bufferView": 2,
      "componentType": 5126,
      "count": 1434,
      "type": "VEC2",
      "min": [
        0.039900582283735275,
        0.21469849348068237
      ],
      "max": [
        0.3422267436981201,
        0.688444197177887
      ]
    },
    {
      "bufferView": 3,
      "componentType": 5126,
      "count": 1434,
      "type": "VEC2",
      "min": [
        0.03480283170938492,
        0.11412107944488525
      ],
      "max": [
        0.457166463136673,
        0.969745397567749
      ]
    },
    {
      "bufferView": 4,
      "componentType": 5123,
      "count": 4020,
      "type": "SCALAR",
      "min": [
        0
      ],
      "max": [
        1433
      ]
    }
  ],
  "extras": {
    "manifest": "Legs_Shin_BaseClothes_Com_01.materials.json"
  }
}