{
  "asset": {
    "version": "2.0",
    "generator": "prefab-to-gltf"
  },
  "scene": 0,
  "scenes": [
    {
      "name": "Legs_Thigh_BaseClothes_Com_03",
      "nodes": [
        0
      ]
    }
  ],
  "nodes": [
    {
      "name": "Legs_BaseClothes_Com_03_N",
      "translation": [
        0,
        0,
        0
      ],
      "rotation": [
        0,
        0,
        0,
        1
      ],
      "scale": [
        1,
        1,
        1
      ],
      "mesh": 0
    }
  ],
  "meshes": [
    {
      "name": "Legs_BaseClothes_Com_03_N",
      "primitives": [
        {
          "attributes": {
            "POSITION": 0,
            "NORMAL": 1,
            "TEXCOORD_0": 2,
            "TEXCOORD_1": 3
          },
          "indices": 4,
          "material": 0,
          "mode": 4
        }
      ]
    }
  ],
  "materials": [
    {
      "name": "GradMat_Body",
      "pbrMetallicRoughness": {
        "baseColorFactor": [
          1,
          1,
          1,
          1
        ],
        "metallicFactor": 0,
        "roughnessFactor": 1
      },
      "doubleSided": true,
      "extras": {
        "diffuseTexture": "Character/Common/Texture/CustomGradient_RobinHoof.png",
        "specularTexture": null,
        "normalMap": null
      }
    }
  ],
  "buffers": [
    {
      "uri": "Legs_Thigh_BaseClothes_Com_03.bin",
      "byteLength": 78616
    }
  ],
  "bufferViews": [
    {
      "buffer": 0,
      "byteOffset": 0,
      "byteLength": 20316,
      "target": 34962
    },
    {
      "buffer": 0,
      "byteOffset": 20316,
      "byteLength": 20316,
      "target": 34962
    },
    {
      "buffer": 0,
      "byteOffset": 40632,
      "byteLength": 13544,
      "target": 34962
    },
    {
      "buffer": 0,
      "byteOffset": 54176,
      "byteLength": 13544,
      "target": 34962
    },
    {
      "buffer": 0,
      "byteOffset": 67720,
      "byteLength": 10896,
      "target": 34963
    }
  ],
  "accessors": [
    {
      "bufferView": 0,
      "componentType": 5126,
      "count": 1693,
      "type": "VEC3",
      "min": [
        -0.3711501955986023,
        0.0851835086941719,
        -0.09081149101257324
      ],
      "max": [
        0.3711501955986023,
        1.277111291885376,
        0.24377793073654175
      ]
    },
    {
      "bufferView": 1,
      "componentType": 5126,
      "count": 1693,
      "type": "VEC3",
      "min": [
        -0.9998149871826172,
        -0.9994851350784302,
        -0.9989161491394043
      ],
      "max": [
        0.9998149275779724,
        0.9985159039497375,
        0.9995877742767334
      ]
    },
    {
      "bufferView": 2,
      "componentType": 5126,
      "count": 1693,
      "type": "VEC2",
      "min": [
        0.03508778288960457,
        0.1925176978111267
      ],
      "max": [
        0.47058969736099243,
        0.658388614654541
      ]
    },
    {
      "bufferView": 3,
      "componentType": 5126,
      "count": 1693,
      "type": "VEC2",
      "min": [
        0.03480285033583641,
        0.11567562818527222
      ],
      "max": [
        0.5097989439964294,
        0.9724847674369812
      ]
    },
    {
      "bufferView": 4,
      "componentType": 5123,
      "count": 5448,
      "type": "SCALAR",
      "min": [
        0
      ],
      "max": [
        1692
      ]
    }
  ],
  "extras": {
    "manifest": "Legs_Thigh_BaseClothes_Com_03.materials.json"
  }
}