{
  "asset": {
    "version": "2.0",
    "generator": "prefab-to-gltf"
  },
  "scene": 0,
  "scenes": [
    {
      "name": "Back_Long_XCrimson_01_Light",
      "nodes": [
        0
      ]
    }
  ],
  "nodes": [
    {
      "name": "Back_Long_Z1R4_Light_N",
      "translation": [
        0,
        0,
        0
      ],
      "rotation": [
        0,
        0,
        0,
        1
      ],
      "scale": [
        1,
        1,
        1
      ],
      "mesh": 0
    }
  ],
  "meshes": [
    {
      "name": "Back_Long_Z1R4_Light_N",
      "primitives": [
        {
          "attributes": {
            "POSITION": 0,
            "NORMAL": 1,
            "TEXCOORD_0": 2,
            "TEXCOORD_1": 3
          },
          "indices": 4,
          "material": 0,
          "mode": 4
        }
      ]
    }
  ],
  "materials": [
    {
      "name": "GradMat_Body",
      "pbrMetallicRoughness": {
        "baseColorFactor": [
          1,
          1,
          1,
          1
        ],
        "metallicFactor": 0,
        "roughnessFactor": 1
      },
      "doubleSided": true,
      "extras": {
        "diffuseTexture": "Character/Common/Texture/CustomGradient_RobinHoof.png",
        "specularTexture": null,
        "normalMap": null
      }
    }
  ],
  "buffers": [
    {
      "uri": "Back_Long_XCrimson_01_Light.bin",
      "byteLength": 79520
    }
  ],
  "bufferViews": [
    {
      "buffer": 0,
      "byteOffset": 0,
      "byteLength": 21552,
      "target": 34962
    },
    {
      "buffer": 0,
      "byteOffset": 21552,
      "byteLength": 21552,
      "target": 34962
    },
    {
      "buffer": 0,
      "byteOffset": 43104,
      "byteLength": 14368,
      "target": 34962
    },
    {
      "buffer": 0,
      "byteOffset": 57472,
      "byteLength": 14368,
      "target": 34962
    },
    {
      "buffer": 0,
      "byteOffset": 71840,
      "byteLength": 7680,
      "target": 34963
    }
  ],
  "accessors": [
    {
      "bufferView": 0,
      "componentType": 5126,
      "count": 1796,
      "type": "VEC3",
      "min": [
        -0.367919921875,
        0.6552734375,
        -0.36962890625
      ],
      "max": [
        0.367919921875,
        1.7587890625,
        -0.0618896484375
      ]
    },
    {
      "bufferView": 1,
      "componentType": 5126,
      "count": 1796,
      "type": "VEC3",
      "min": [
        -0.5019607843137255,
        -0.43137254901960786,
        -0.5019607843137255
      ],
      "max": [
        1,
        1,
        0.43137254901960786
      ]
    },
    {
      "bufferView": 2,
      "componentType": 5126,
      "count": 1796,
      "type": "VEC2",
      "min": [
        0.1290283203125,
        0.337158203125
      ],
      "max": [
        0.65966796875,
        0.93310546875
      ]
    },
    {
      "bufferView": 3,
      "componentType": 5126,
      "count": 1796,
      "type": "VEC2",
      "min": [
        0,
        0.19384765625
      ],
      "max": [
        0.94140625,
        1
      ]
    },
    {
      "bufferView": 4,
      "componentType": 5123,
      "count": 3840,
      "type": "SCALAR",
      "min": [
        0
      ],
      "max": [
        1795
      ]
    }
  ],
  "extras": {
    "manifest": "Back_Long_XCrimson_01_Light.materials.json"
  }
}