{
  "asset": {
    "version": "2.0",
    "generator": "prefab-to-gltf"
  },
  "scene": 0,
  "scenes": [
    {
      "name": "Hands_Wrist_XCrimson_01_Light",
      "nodes": [
        0
      ]
    }
  ],
  "nodes": [
    {
      "name": "Hands_Wrist_Z1R4A_Light_N",
      "translation": [
        0,
        0,
        0
      ],
      "rotation": [
        0,
        0,
        0,
        1
      ],
      "scale": [
        1,
        1,
        1
      ],
      "mesh": 0,
      "children": [
        1
      ]
    },
    {
      "name": "Z1R4A_Light",
      "translation": [
        0,
        0,
        0
      ],
      "rotation": [
        0.7071067690849304,
        0,
        0,
        0.7071067932881644
      ],
      "scale": [
        1,
        1,
        1
      ]
    }
  ],
  "meshes": [
    {
      "name": "Hands_Wrist_Z1R4A_Light_N",
      "primitives": [
        {
          "attributes": {
            "POSITION": 0,
            "NORMAL": 1,
            "TEXCOORD_0": 2,
            "TEXCOORD_1": 3
          },
          "indices": 4,
          "material": 0,
          "mode": 4
        }
      ]
    }
  ],
  "materials": [
    {
      "name": "GradMat_Body",
      "pbrMetallicRoughness": {
        "baseColorFactor": [
          1,
          1,
          1,
          1
        ],
        "metallicFactor": 0,
        "roughnessFactor": 1
      },
      "doubleSided": true,
      "extras": {
        "diffuseTexture": "Character/Common/Texture/CustomGradient_BasicGuy.png",
        "specularTexture": null,
        "normalMap": null
      }
    }
  ],
  "buffers": [
    {
      "uri": "Hands_Wrist_XCrimson_01_Light.bin",
      "byteLength": 166856
    }
  ],
  "bufferViews": [
    {
      "buffer": 0,
      "byteOffset": 0,
      "byteLength": 43656,
      "target": 34962
    },
    {
      "buffer": 0,
      "byteOffset": 43656,
      "byteLength": 43656,
      "target": 34962
    },
    {
      "buffer": 0,
      "byteOffset": 87312,
      "byteLength": 29104,
      "target": 34962
    },
    {
      "buffer": 0,
      "byteOffset": 116416,
      "byteLength": 29104,
      "target": 34962
    },
    {
      "buffer": 0,
      "byteOffset": 145520,
      "byteLength": 21336,
      "target": 34963
    }
  ],
  "accessors": [
    {
      "bufferView": 0,
      "componentType": 5126,
      "count": 3638,
      "type": "VEC3",
      "min": [
        -0.81201171875,
        0.9814453125,
        0.041259765625
      ],
      "max": [
        0.81201171875,
        1.3037109375,
        0.337646484375
      ]
    },
    {
      "bufferView": 1,
      "componentType": 5126,
      "count": 3638,
      "type": "VEC3",
      "min": [
        -0.5019607843137255,
        -0.5019607843137255,
        -0.5019607843137255
      ],
      "max": [
        1,
        1,
        1
      ]
    },
    {
      "bufferView": 2,
      "componentType": 5126,
      "count": 3638,
      "type": "VEC2",
      "min": [
        0.162109375,
        0.3740234375
      ],
      "max": [
        0.472412109375,
        0.7802734375
      ]
    },
    {
      "bufferView": 3,
      "componentType": 5126,
      "count": 3638,
      "type": "VEC2",
      "min": [
        0.0290679931640625,
        0.11102294921875
      ],
      "max": [
        0.94970703125,
        1.0009765625
      ]
    },
    {
      "bufferView": 4,
      "componentType": 5123,
      "count": 10668,
      "type": "SCALAR",
      "min": [
        0
      ],
      "max": [
        3637
      ]
    }
  ],
  "extras": {
    "manifest": "Hands_Wrist_XCrimson_01_Light.materials.json"
  }
}