{
  "asset": {
    "version": "2.0",
    "generator": "prefab-to-gltf"
  },
  "scene": 0,
  "scenes": [
    {
      "name": "Weapon_1H_Bow",
      "nodes": [
        0
      ]
    }
  ],
  "nodes": [
    {
      "name": "N_Body_Full",
      "translation": [
        0,
        0,
        0
      ],
      "rotation": [
        0,
        0,
        0,
        1
      ],
      "scale": [
        1,
        1,
        1
      ],
      "mesh": 0
    }
  ],
  "meshes": [
    {
      "name": "N_Body_Full",
      "primitives": [
        {
          "attributes": {
            "POSITION": 0,
            "NORMAL": 1,
            "TEXCOORD_0": 2,
            "TEXCOORD_1": 3,
            "COLOR_0": 4
          },
          "indices": 5,
          "material": 0,
          "mode": 4
        }
      ]
    }
  ],
  "materials": [
    {
      "name": "GradMat_Body",
      "pbrMetallicRoughness": {
        "baseColorFactor": [
          1,
          1,
          1,
          1
        ],
        "metallicFactor": 0,
        "roughnessFactor": 1
      },
      "doubleSided": true,
      "extras": {
        "diffuseTexture": "Character/Common/Texture/CustomGradient_BasicGuy.png",
        "specularTexture": null,
        "normalMap": null
      }
    }
  ],
  "buffers": [
    {
      "uri": "Weapon_1H_Bow.bin",
      "byteLength": 430396
    }
  ],
  "bufferViews": [
    {
      "buffer": 0,
      "byteOffset": 0,
      "byteLength": 85872,
      "target": 34962
    },
    {
      "buffer": 0,
      "byteOffset": 85872,
      "byteLength": 85872,
      "target": 34962
    },
    {
      "buffer": 0,
      "byteOffset": 171744,
      "byteLength": 57248,
      "target": 34962
    },
    {
      "buffer": 0,
      "byteOffset": 228992,
      "byteLength": 57248,
      "target": 34962
    },
    {
      "buffer": 0,
      "byteOffset": 286240,
      "byteLength": 85872,
      "target": 34962
    },
    {
      "buffer": 0,
      "byteOffset": 372112,
      "byteLength": 58284,
      "target": 34963
    }
  ],
  "accessors": [
    {
      "bufferView": 0,
      "componentType": 5126,
      "count": 7156,
      "type": "VEC3",
      "min": [
        -0.8123599886894226,
        0.01365528255701065,
        -0.09181077033281326
      ],
      "max": [
        0.8123600482940674,
        2.174583911895752,
        0.33785462379455566
      ]
    },
    {
      "bufferView": 1,
      "componentType": 5126,
      "count": 7156,
      "type": "VEC3",
      "min": [
        -0.9998795390129089,
        -0.9999998807907104,
        -0.9993783235549927
      ],
      "max": [
        0.9998795390129089,
        0.9998742341995239,
        0.9999997019767761
      ]
    },
    {
      "bufferView": 2,
      "componentType": 5126,
      "count": 7156,
      "type": "VEC2",
      "min": [
        0.004020640626549721,
        0.11490827798843384
      ],
      "max": [
        0.4386332929134369,
        0.9599752426147461
      ]
    },
    {
      "bufferView": 3,
      "componentType": 5126,
      "count": 7156,
      "type": "VEC2",
      "min": [
        0,
        0.02668595314025879
      ],
      "max": [
        0.9915549755096436,
        1.00118887424469
      ]
    },
    {
      "bufferView": 4,
      "componentType": 5126,
      "count": 5367,
      "type": "VEC4",
      "min": [
        0,
        0,
        0,
        0
      ],
      "max": [
        1,
        1,
        1,
        1
      ]
    },
    {
      "bufferView": 5,
      "componentType": 5123,
      "count": 29142,
      "type": "SCALAR",
      "min": [
        0
      ],
      "max": [
        7155
      ]
    }
  ],
  "extras": {
    "manifest": "Weapon_1H_Bow.materials.json"
  }
}