{
  "asset": {
    "version": "2.0",
    "generator": "prefab-to-gltf"
  },
  "scene": 0,
  "scenes": [
    {
      "name": "Spirit_Hollow_Turquoise_01",
      "nodes": [
        0
      ]
    }
  ],
  "nodes": [
    {
      "name": "Spirit_Hollow_01",
      "translation": [
        0,
        0,
        0
      ],
      "rotation": [
        0,
        0,
        0,
        1
      ],
      "scale": [
        1,
        1,
        1
      ],
      "mesh": 0
    }
  ],
  "meshes": [
    {
      "name": "Spirit_Hollow_01",
      "primitives": [
        {
          "attributes": {
            "POSITION": 0,
            "NORMAL": 1,
            "TEXCOORD_0": 2,
            "TEXCOORD_1": 3,
            "COLOR_0": 4
          },
          "indices": 5,
          "material": 0,
          "mode": 4
        },
        {
          "attributes": {
            "POSITION": 6,
            "NORMAL": 7,
            "TEXCOORD_0": 8,
            "TEXCOORD_1": 9,
            "COLOR_0": 10
          },
          "indices": 11,
          "material": 1,
          "mode": 4
        }
      ]
    }
  ],
  "materials": [
    {
      "name": "Gradmat_Inner",
      "pbrMetallicRoughness": {
        "baseColorFactor": [
          1,
          1,
          1,
          1
        ],
        "metallicFactor": 0,
        "roughnessFactor": 1
      },
      "doubleSided": true,
      "extras": {
        "diffuseTexture": "Character/Common/Texture/CustomGradient_Guard.png",
        "specularTexture": null,
        "normalMap": null
      }
    },
    {
      "name": "Gradmat",
      "pbrMetallicRoughness": {
        "baseColorFactor": [
          1,
          1,
          1,
          1
        ],
        "metallicFactor": 0,
        "roughnessFactor": 1
      },
      "doubleSided": true,
      "extras": {
        "diffuseTexture": "Character/Common/Texture/CustomGradient_WeaponALL.png",
        "specularTexture": null,
        "normalMap": null
      }
    }
  ],
  "buffers": [
    {
      "uri": "Spirit_Hollow_Turquoise_01.bin",
      "byteLength": 489966
    }
  ],
  "bufferViews": [
    {
      "buffer": 0,
      "byteOffset": 0,
      "byteLength": 53484,
      "target": 34962
    },
    {
      "buffer": 0,
      "byteOffset": 53484,
      "byteLength": 53484,
      "target": 34962
    },
    {
      "buffer": 0,
      "byteOffset": 106968,
      "byteLength": 35656,
      "target": 34962
    },
    {
      "buffer": 0,
      "byteOffset": 142624,
      "byteLength": 35656,
      "target": 34962
    },
    {
      "buffer": 0,
      "byteOffset": 178280,
      "byteLength": 53484,
      "target": 34962
    },
    {
      "buffer": 0,
      "byteOffset": 231764,
      "byteLength": 10362,
      "target": 34963
    },
    {
      "buffer": 0,
      "byteOffset": 242128,
      "byteLength": 53484,
      "target": 34962
    },
    {
      "buffer": 0,
      "byteOffset": 295612,
      "byteLength": 53484,
      "target": 34962
    },
    {
      "buffer": 0,
      "byteOffset": 349096,
      "byteLength": 35656,
      "target": 34962
    },
    {
      "buffer": 0,
      "byteOffset": 384752,
      "byteLength": 35656,
      "target": 34962
    },
    {
      "buffer": 0,
      "byteOffset": 420408,
      "byteLength": 53484,
      "target": 34962
    },
    {
      "buffer": 0,
      "byteOffset": 473892,
      "byteLength": 16074,
      "target": 34963
    }
  ],
  "accessors": [
    {
      "bufferView": 0,
      "componentType": 5126,
      "count": 4457,
      "type": "VEC3",
      "min": [
        -0.6826171875,
        -0.07000732421875,
        -0.416748046875
      ],
      "max": [
        0.69775390625,
        3.0859375,
        0.35791015625
      ]
    },
    {
      "bufferView": 1,
      "componentType": 5126,
      "count": 4457,
      "type": "VEC3",
      "min": [
        -0.5019607843137255,
        -0.5019607843137255,
        -0.5019607843137255
      ],
      "max": [
        1,
        1,
        1
      ]
    },
    {
      "bufferView": 2,
      "componentType": 5126,
      "count": 4457,
      "type": "VEC2",
      "min": [
        0.0179901123046875,
        0.0164337158203125
      ],
      "max": [
        0.348388671875,
        0.99365234375
      ]
    },
    {
      "bufferView": 3,
      "componentType": 5126,
      "count": 4457,
      "type": "VEC2",
      "min": [
        0.0248870849609375,
        0.109375
      ],
      "max": [
        0.953125,
        0.97314453125
      ]
    },
    {
      "bufferView": 4,
      "componentType": 5126,
      "count": 3342.75,
      "type": "VEC4",
      "min": [
        0,
        0,
        0,
        0
      ],
      "max": [
        1,
        1,
        1,
        1
      ]
    },
    {
      "bufferView": 5,
      "componentType": 5123,
      "count": 5181,
      "type": "SCALAR",
      "min": [
        0
      ],
      "max": [
        1739
      ]
    },
    {
      "bufferView": 6,
      "componentType": 5126,
      "count": 4457,
      "type": "VEC3",
      "min": [
        -0.6826171875,
        -0.07000732421875,
        -0.416748046875
      ],
      "max": [
        0.69775390625,
        3.0859375,
        0.35791015625
      ]
    },
    {
      "bufferView": 7,
      "componentType": 5126,
      "count": 4457,
      "type": "VEC3",
      "min": [
        -0.5019607843137255,
        -0.5019607843137255,
        -0.5019607843137255
      ],
      "max": [
        1,
        1,
        1
      ]
    },
    {
      "bufferView": 8,
      "componentType": 5126,
      "count": 4457,
      "type": "VEC2",
      "min": [
        0.0179901123046875,
        0.0164337158203125
      ],
      "max": [
        0.348388671875,
        0.99365234375
      ]
    },
    {
      "bufferView": 9,
      "componentType": 5126,
      "count": 4457,
      "type": "VEC2",
      "min": [
        0.0248870849609375,
        0.109375
      ],
      "max": [
        0.953125,
        0.97314453125
      ]
    },
    {
      "bufferView": 10,
      "componentType": 5126,
      "count": 3342.75,
      "type": "VEC4",
      "min": [
        0,
        0,
        0,
        0
      ],
      "max": [
        1,
        1,
        1,
        1
      ]
    },
    {
      "bufferView": 11,
      "componentType": 5123,
      "count": 8037,
      "type": "SCALAR",
      "min": [
        0
      ],
      "max": [
        4456
      ]
    }
  ],
  "extras": {
    "manifest": "Spirit_Hollow_Turquoise_01.materials.json"
  }
}