{
  "asset": {
    "version": "2.0",
    "generator": "prefab-to-gltf"
  },
  "scene": 0,
  "scenes": [
    {
      "name": "Spirit_Elite_Orange_01",
      "nodes": [
        0
      ]
    }
  ],
  "nodes": [
    {
      "name": "Spirit_Elite_01",
      "translation": [
        0,
        0,
        0
      ],
      "rotation": [
        0,
        0,
        0,
        1
      ],
      "scale": [
        1,
        1,
        1
      ],
      "mesh": 0
    }
  ],
  "meshes": [
    {
      "name": "Spirit_Elite_01",
      "primitives": [
        {
          "attributes": {
            "POSITION": 0,
            "NORMAL": 1,
            "TEXCOORD_0": 2,
            "TEXCOORD_1": 3,
            "COLOR_0": 4
          },
          "indices": 5,
          "material": 0,
          "mode": 4
        },
        {
          "attributes": {
            "POSITION": 6,
            "NORMAL": 7,
            "TEXCOORD_0": 8,
            "TEXCOORD_1": 9,
            "COLOR_0": 10
          },
          "indices": 11,
          "material": 1,
          "mode": 4
        }
      ]
    }
  ],
  "materials": [
    {
      "name": "Gradmat",
      "pbrMetallicRoughness": {
        "baseColorFactor": [
          1,
          1,
          1,
          1
        ],
        "metallicFactor": 0,
        "roughnessFactor": 1
      },
      "doubleSided": true,
      "extras": {
        "diffuseTexture": "Character/Common/Texture/CustomGradient_WeaponALL.png",
        "specularTexture": null,
        "normalMap": null
      }
    },
    {
      "name": "Mat_Inner",
      "pbrMetallicRoughness": {
        "baseColorFactor": [
          1,
          1,
          1,
          1
        ],
        "metallicFactor": 0,
        "roughnessFactor": 1
      },
      "doubleSided": true,
      "extras": {
        "diffuseTexture": "Character/Common/Texture/Amber_Full.png",
        "specularTexture": null,
        "normalMap": null
      }
    }
  ],
  "buffers": [
    {
      "uri": "Spirit_Elite_Orange_01.bin",
      "byteLength": 719218
    }
  ],
  "bufferViews": [
    {
      "buffer": 0,
      "byteOffset": 0,
      "byteLength": 78468,
      "target": 34962
    },
    {
      "buffer": 0,
      "byteOffset": 78468,
      "byteLength": 78468,
      "target": 34962
    },
    {
      "buffer": 0,
      "byteOffset": 156936,
      "byteLength": 52312,
      "target": 34962
    },
    {
      "buffer": 0,
      "byteOffset": 209248,
      "byteLength": 52312,
      "target": 34962
    },
    {
      "buffer": 0,
      "byteOffset": 261560,
      "byteLength": 78468,
      "target": 34962
    },
    {
      "buffer": 0,
      "byteOffset": 340028,
      "byteLength": 30396,
      "target": 34963
    },
    {
      "buffer": 0,
      "byteOffset": 370424,
      "byteLength": 78468,
      "target": 34962
    },
    {
      "buffer": 0,
      "byteOffset": 448892,
      "byteLength": 78468,
      "target": 34962
    },
    {
      "buffer": 0,
      "byteOffset": 527360,
      "byteLength": 52312,
      "target": 34962
    },
    {
      "buffer": 0,
      "byteOffset": 579672,
      "byteLength": 52312,
      "target": 34962
    },
    {
      "buffer": 0,
      "byteOffset": 631984,
      "byteLength": 78468,
      "target": 34962
    },
    {
      "buffer": 0,
      "byteOffset": 710452,
      "byteLength": 8766,
      "target": 34963
    }
  ],
  "accessors": [
    {
      "bufferView": 0,
      "componentType": 5126,
      "count": 6539,
      "type": "VEC3",
      "min": [
        -0.619140625,
        -0.84765625,
        -0.275146484375
      ],
      "max": [
        0.619140625,
        3.60546875,
        0.35693359375
      ]
    },
    {
      "bufferView": 1,
      "componentType": 5126,
      "count": 6539,
      "type": "VEC3",
      "min": [
        -0.5019607843137255,
        -0.5019607843137255,
        -0.5019607843137255
      ],
      "max": [
        1,
        1,
        1
      ]
    },
    {
      "bufferView": 2,
      "componentType": 5126,
      "count": 6539,
      "type": "VEC2",
      "min": [
        0.0089263916015625,
        0.00711822509765625
      ],
      "max": [
        0.479248046875,
        0.9609375
      ]
    },
    {
      "bufferView": 3,
      "componentType": 5126,
      "count": 6539,
      "type": "VEC2",
      "min": [
        0,
        0.1346435546875
      ],
      "max": [
        0.94775390625,
        1
      ]
    },
    {
      "bufferView": 4,
      "componentType": 5126,
      "count": 4904.25,
      "type": "VEC4",
      "min": [
        0,
        0,
        0,
        0
      ],
      "max": [
        1,
        1,
        1,
        1
      ]
    },
    {
      "bufferView": 5,
      "componentType": 5123,
      "count": 15198,
      "type": "SCALAR",
      "min": [
        0
      ],
      "max": [
        4961
      ]
    },
    {
      "bufferView": 6,
      "componentType": 5126,
      "count": 6539,
      "type": "VEC3",
      "min": [
        -0.619140625,
        -0.84765625,
        -0.275146484375
      ],
      "max": [
        0.619140625,
        3.60546875,
        0.35693359375
      ]
    },
    {
      "bufferView": 7,
      "componentType": 5126,
      "count": 6539,
      "type": "VEC3",
      "min": [
        -0.5019607843137255,
        -0.5019607843137255,
        -0.5019607843137255
      ],
      "max": [
        1,
        1,
        1
      ]
    },
    {
      "bufferView": 8,
      "componentType": 5126,
      "count": 6539,
      "type": "VEC2",
      "min": [
        0.0089263916015625,
        0.00711822509765625
      ],
      "max": [
        0.479248046875,
        0.9609375
      ]
    },
    {
      "bufferView": 9,
      "componentType": 5126,
      "count": 6539,
      "type": "VEC2",
      "min": [
        0,
        0.1346435546875
      ],
      "max": [
        0.94775390625,
        1
      ]
    },
    {
      "bufferView": 10,
      "componentType": 5126,
      "count": 4904.25,
      "type": "VEC4",
      "min": [
        0,
        0,
        0,
        0
      ],
      "max": [
        1,
        1,
        1,
        1
      ]
    },
    {
      "bufferView": 11,
      "componentType": 5123,
      "count": 4383,
      "type": "SCALAR",
      "min": [
        0
      ],
      "max": [
        6538
      ]
    }
  ],
  "extras": {
    "manifest": "Spirit_Elite_Orange_01.materials.json"
  }
}