{
  "asset": {
    "version": "2.0",
    "generator": "prefab-to-gltf"
  },
  "scene": 0,
  "scenes": [
    {
      "name": "Human_RobinHoof",
      "nodes": [
        0
      ]
    }
  ],
  "nodes": [
    {
      "name": "RobinHoof",
      "translation": [
        0,
        0,
        0
      ],
      "rotation": [
        0,
        0,
        0,
        1
      ],
      "scale": [
        1,
        1,
        1
      ],
      "mesh": 0
    }
  ],
  "meshes": [
    {
      "name": "RobinHoof",
      "primitives": [
        {
          "attributes": {
            "POSITION": 0,
            "NORMAL": 1,
            "TEXCOORD_0": 2,
            "TEXCOORD_1": 3,
            "COLOR_0": 4
          },
          "indices": 5,
          "material": 0,
          "mode": 4
        }
      ]
    }
  ],
  "materials": [
    {
      "name": "lambert1",
      "pbrMetallicRoughness": {
        "baseColorFactor": [
          1,
          1,
          1,
          1
        ],
        "metallicFactor": 0,
        "roughnessFactor": 1
      },
      "doubleSided": true,
      "extras": {
        "diffuseTexture": "Character/Common/Texture/SlotPlacement_12.png",
        "specularTexture": null,
        "normalMap": null
      }
    }
  ],
  "buffers": [
    {
      "uri": "Human_RobinHoof.bin",
      "byteLength": 951786
    }
  ],
  "bufferViews": [
    {
      "buffer": 0,
      "byteOffset": 0,
      "byteLength": 195444,
      "target": 34962
    },
    {
      "buffer": 0,
      "byteOffset": 195444,
      "byteLength": 195444,
      "target": 34962
    },
    {
      "buffer": 0,
      "byteOffset": 390888,
      "byteLength": 130296,
      "target": 34962
    },
    {
      "buffer": 0,
      "byteOffset": 521184,
      "byteLength": 130296,
      "target": 34962
    },
    {
      "buffer": 0,
      "byteOffset": 651480,
      "byteLength": 195444,
      "target": 34962
    },
    {
      "buffer": 0,
      "byteOffset": 846924,
      "byteLength": 104862,
      "target": 34963
    }
  ],
  "accessors": [
    {
      "bufferView": 0,
      "componentType": 5126,
      "count": 16287,
      "type": "VEC3",
      "min": [
        -0.8130246996879578,
        -0.002075199270620942,
        -0.32180896401405334
      ],
      "max": [
        0.8123697638511658,
        2.2413527965545654,
        0.36664244532585144
      ]
    },
    {
      "bufferView": 1,
      "componentType": 5126,
      "count": 16287,
      "type": "VEC3",
      "min": [
        -0.9999745488166809,
        -1,
        -0.999976634979248
      ],
      "max": [
        0.9997636079788208,
        0.9999985098838806,
        0.9999995827674866
      ]
    },
    {
      "bufferView": 2,
      "componentType": 5126,
      "count": 16287,
      "type": "VEC2",
      "min": [
        0.02253018133342266,
        0.06959378719329834
      ],
      "max": [
        0.9706785678863525,
        0.9829489588737488
      ]
    },
    {
      "bufferView": 3,
      "componentType": 5126,
      "count": 16287,
      "type": "VEC2",
      "min": [
        0,
        0.004188895225524902
      ],
      "max": [
        0.9915549755096436,
        1.00118887424469
      ]
    },
    {
      "bufferView": 4,
      "componentType": 5126,
      "count": 12215.25,
      "type": "VEC4",
      "min": [
        0,
        0,
        0,
        0
      ],
      "max": [
        1,
        1,
        1,
        1
      ]
    },
    {
      "bufferView": 5,
      "componentType": 5123,
      "count": 52431,
      "type": "SCALAR",
      "min": [
        0
      ],
      "max": [
        16286
      ]
    }
  ],
  "extras": {
    "manifest": "Human_RobinHoof.materials.json"
  }
}