{
  "asset": {
    "version": "2.0",
    "generator": "prefab-to-gltf"
  },
  "scene": 0,
  "scenes": [
    {
      "name": "Human_GuardRange",
      "nodes": [
        0
      ]
    }
  ],
  "nodes": [
    {
      "name": "Guard_Body",
      "translation": [
        0,
        0,
        0
      ],
      "rotation": [
        0,
        0,
        0,
        1
      ],
      "scale": [
        1,
        1,
        1
      ],
      "mesh": 0
    }
  ],
  "meshes": [
    {
      "name": "Guard_Body",
      "primitives": [
        {
          "attributes": {
            "POSITION": 0,
            "NORMAL": 1,
            "TEXCOORD_0": 2,
            "TEXCOORD_1": 3,
            "COLOR_0": 4
          },
          "indices": 5,
          "material": 0,
          "mode": 4
        },
        {
          "attributes": {
            "POSITION": 6,
            "NORMAL": 7,
            "TEXCOORD_0": 8,
            "TEXCOORD_1": 9,
            "COLOR_0": 10
          },
          "indices": 11,
          "material": 1,
          "mode": 4
        }
      ]
    }
  ],
  "materials": [
    {
      "name": "GradMat_Body",
      "pbrMetallicRoughness": {
        "baseColorFactor": [
          1,
          1,
          1,
          1
        ],
        "metallicFactor": 0,
        "roughnessFactor": 1
      },
      "doubleSided": true,
      "extras": {
        "diffuseTexture": "Character/Common/Texture/CustomGradient_RobinHoof.png",
        "specularTexture": null,
        "normalMap": null
      }
    },
    {
      "name": "MatSlots_GUARD",
      "pbrMetallicRoughness": {
        "baseColorFactor": [
          1,
          1,
          1,
          1
        ],
        "metallicFactor": 0,
        "roughnessFactor": 1
      },
      "doubleSided": true,
      "extras": {
        "diffuseTexture": "Character/Common/Texture/CustomGradient_Hero_Clothes.png",
        "specularTexture": null,
        "normalMap": null
      }
    }
  ],
  "buffers": [
    {
      "uri": "Human_GuardRange.bin",
      "byteLength": 1452840
    }
  ],
  "bufferViews": [
    {
      "buffer": 0,
      "byteOffset": 0,
      "byteLength": 157644,
      "target": 34962
    },
    {
      "buffer": 0,
      "byteOffset": 157644,
      "byteLength": 157644,
      "target": 34962
    },
    {
      "buffer": 0,
      "byteOffset": 315288,
      "byteLength": 105096,
      "target": 34962
    },
    {
      "buffer": 0,
      "byteOffset": 420384,
      "byteLength": 105096,
      "target": 34962
    },
    {
      "buffer": 0,
      "byteOffset": 525480,
      "byteLength": 157644,
      "target": 34962
    },
    {
      "buffer": 0,
      "byteOffset": 683124,
      "byteLength": 5664,
      "target": 34963
    },
    {
      "buffer": 0,
      "byteOffset": 688788,
      "byteLength": 157644,
      "target": 34962
    },
    {
      "buffer": 0,
      "byteOffset": 846432,
      "byteLength": 157644,
      "target": 34962
    },
    {
      "buffer": 0,
      "byteOffset": 1004076,
      "byteLength": 105096,
      "target": 34962
    },
    {
      "buffer": 0,
      "byteOffset": 1109172,
      "byteLength": 105096,
      "target": 34962
    },
    {
      "buffer": 0,
      "byteOffset": 1214268,
      "byteLength": 157644,
      "target": 34962
    },
    {
      "buffer": 0,
      "byteOffset": 1371912,
      "byteLength": 80928,
      "target": 34963
    }
  ],
  "accessors": [
    {
      "bufferView": 0,
      "componentType": 5126,
      "count": 13137,
      "type": "VEC3",
      "min": [
        -0.8123599290847778,
        -0.0016783238388597965,
        -0.21808665990829468
      ],
      "max": [
        0.812359631061554,
        2.2168989181518555,
        0.35825303196907043
      ]
    },
    {
      "bufferView": 1,
      "componentType": 5126,
      "count": 13137,
      "type": "VEC3",
      "min": [
        -0.9999663233757019,
        -1,
        -0.9999979138374329
      ],
      "max": [
        0.9999663233757019,
        0.9999940991401672,
        1
      ]
    },
    {
      "bufferView": 2,
      "componentType": 5126,
      "count": 13137,
      "type": "VEC2",
      "min": [
        0.020481444895267487,
        0.13895803689956665
      ],
      "max": [
        0.8536321520805359,
        0.9829489588737488
      ]
    },
    {
      "bufferView": 3,
      "componentType": 5126,
      "count": 13137,
      "type": "VEC2",
      "min": [
        0,
        0.02668595314025879
      ],
      "max": [
        0.9490399360656738,
        1.00118887424469
      ]
    },
    {
      "bufferView": 4,
      "componentType": 5126,
      "count": 9852.75,
      "type": "VEC4",
      "min": [
        0,
        0,
        0,
        0
      ],
      "max": [
        1,
        1,
        1,
        1
      ]
    },
    {
      "bufferView": 5,
      "componentType": 5123,
      "count": 2832,
      "type": "SCALAR",
      "min": [
        0
      ],
      "max": [
        1061
      ]
    },
    {
      "bufferView": 6,
      "componentType": 5126,
      "count": 13137,
      "type": "VEC3",
      "min": [
        -0.8123599290847778,
        -0.0016783238388597965,
        -0.21808665990829468
      ],
      "max": [
        0.812359631061554,
        2.2168989181518555,
        0.35825303196907043
      ]
    },
    {
      "bufferView": 7,
      "componentType": 5126,
      "count": 13137,
      "type": "VEC3",
      "min": [
        -0.9999663233757019,
        -1,
        -0.9999979138374329
      ],
      "max": [
        0.9999663233757019,
        0.9999940991401672,
        1
      ]
    },
    {
      "bufferView": 8,
      "componentType": 5126,
      "count": 13137,
      "type": "VEC2",
      "min": [
        0.020481444895267487,
        0.13895803689956665
      ],
      "max": [
        0.8536321520805359,
        0.9829489588737488
      ]
    },
    {
      "bufferView": 9,
      "componentType": 5126,
      "count": 13137,
      "type": "VEC2",
      "min": [
        0,
        0.02668595314025879
      ],
      "max": [
        0.9490399360656738,
        1.00118887424469
      ]
    },
    {
      "bufferView": 10,
      "componentType": 5126,
      "count": 9852.75,
      "type": "VEC4",
      "min": [
        0,
        0,
        0,
        0
      ],
      "max": [
        1,
        1,
        1,
        1
      ]
    },
    {
      "bufferView": 11,
      "componentType": 5123,
      "count": 40464,
      "type": "SCALAR",
      "min": [
        0
      ],
      "max": [
        13136
      ]
    }
  ],
  "extras": {
    "manifest": "Human_GuardRange.materials.json"
  }
}