{
  "asset": {
    "version": "2.0",
    "generator": "prefab-to-gltf"
  },
  "scene": 0,
  "scenes": [
    {
      "name": "Fly_Harvester_Black",
      "nodes": [
        0
      ]
    }
  ],
  "nodes": [
    {
      "name": "Fly_Bee_01",
      "translation": [
        0,
        0,
        0
      ],
      "rotation": [
        0,
        0,
        0,
        1
      ],
      "scale": [
        1,
        1,
        1
      ],
      "mesh": 0
    }
  ],
  "meshes": [
    {
      "name": "Fly_Bee_01",
      "primitives": [
        {
          "attributes": {
            "POSITION": 0,
            "NORMAL": 1,
            "TEXCOORD_0": 2,
            "TEXCOORD_1": 3,
            "COLOR_0": 4
          },
          "indices": 5,
          "material": 0,
          "mode": 4
        }
      ]
    }
  ],
  "materials": [
    {
      "name": "GradMat",
      "pbrMetallicRoughness": {
        "baseColorFactor": [
          1,
          1,
          1,
          1
        ],
        "metallicFactor": 0,
        "roughnessFactor": 1
      },
      "doubleSided": true,
      "extras": {
        "diffuseTexture": "Character/Common/Texture/CustomGradient_WeaponALL.png",
        "specularTexture": null,
        "normalMap": null
      }
    }
  ],
  "buffers": [
    {
      "uri": "Fly_Harvester_Black.bin",
      "byteLength": 302572
    }
  ],
  "bufferViews": [
    {
      "buffer": 0,
      "byteOffset": 0,
      "byteLength": 61104,
      "target": 34962
    },
    {
      "buffer": 0,
      "byteOffset": 61104,
      "byteLength": 61104,
      "target": 34962
    },
    {
      "buffer": 0,
      "byteOffset": 122208,
      "byteLength": 40736,
      "target": 34962
    },
    {
      "buffer": 0,
      "byteOffset": 162944,
      "byteLength": 40736,
      "target": 34962
    },
    {
      "buffer": 0,
      "byteOffset": 203680,
      "byteLength": 61104,
      "target": 34962
    },
    {
      "buffer": 0,
      "byteOffset": 264784,
      "byteLength": 37788,
      "target": 34963
    }
  ],
  "accessors": [
    {
      "bufferView": 0,
      "componentType": 5126,
      "count": 5092,
      "type": "VEC3",
      "min": [
        -1.0673246383666992,
        -0.7939272522926331,
        -1.172947883605957
      ],
      "max": [
        1.1378774642944336,
        1.729213833808899,
        1.5124232769012451
      ]
    },
    {
      "bufferView": 1,
      "componentType": 5126,
      "count": 5092,
      "type": "VEC3",
      "min": [
        -0.9999973773956299,
        -0.9994396567344666,
        -0.9982200264930725
      ],
      "max": [
        0.9999973773956299,
        0.9983026385307312,
        0.9998083710670471
      ]
    },
    {
      "bufferView": 2,
      "componentType": 5126,
      "count": 5092,
      "type": "VEC2",
      "min": [
        0.00869918055832386,
        0.07897704839706421
      ],
      "max": [
        0.5890965461730957,
        0.9368563890457153
      ]
    },
    {
      "bufferView": 3,
      "componentType": 5126,
      "count": 5092,
      "type": "VEC2",
      "min": [
        0,
        0.10155880451202393
      ],
      "max": [
        0.9277467727661133,
        1
      ]
    },
    {
      "bufferView": 4,
      "componentType": 5126,
      "count": 3819,
      "type": "VEC4",
      "min": [
        0,
        0,
        0,
        0
      ],
      "max": [
        1,
        1,
        1,
        1
      ]
    },
    {
      "bufferView": 5,
      "componentType": 5123,
      "count": 18894,
      "type": "SCALAR",
      "min": [
        0
      ],
      "max": [
        5091
      ]
    }
  ],
  "extras": {
    "manifest": "Fly_Harvester_Black.materials.json"
  }
}