{
  "asset": {
    "version": "2.0",
    "generator": "prefab-to-gltf"
  },
  "scene": 0,
  "scenes": [
    {
      "name": "Fly_Harvester_Elite",
      "nodes": [
        0
      ]
    }
  ],
  "nodes": [
    {
      "name": "Fly_Bee_Elite",
      "translation": [
        0,
        0,
        0
      ],
      "rotation": [
        0,
        0,
        0,
        1
      ],
      "scale": [
        1,
        1,
        1
      ],
      "mesh": 0
    }
  ],
  "meshes": [
    {
      "name": "Fly_Bee_Elite",
      "primitives": [
        {
          "attributes": {
            "POSITION": 0,
            "NORMAL": 1,
            "TEXCOORD_0": 2,
            "TEXCOORD_1": 3,
            "COLOR_0": 4
          },
          "indices": 5,
          "material": 0,
          "mode": 4
        }
      ]
    }
  ],
  "materials": [
    {
      "name": "lambert1",
      "pbrMetallicRoughness": {
        "baseColorFactor": [
          1,
          1,
          1,
          1
        ],
        "metallicFactor": 0,
        "roughnessFactor": 1
      },
      "doubleSided": true,
      "extras": {
        "diffuseTexture": null,
        "specularTexture": null,
        "normalMap": null
      }
    }
  ],
  "buffers": [
    {
      "uri": "Fly_Harvester_Elite.bin",
      "byteLength": 304848
    }
  ],
  "bufferViews": [
    {
      "buffer": 0,
      "byteOffset": 0,
      "byteLength": 61524,
      "target": 34962
    },
    {
      "buffer": 0,
      "byteOffset": 61524,
      "byteLength": 61524,
      "target": 34962
    },
    {
      "buffer": 0,
      "byteOffset": 123048,
      "byteLength": 41016,
      "target": 34962
    },
    {
      "buffer": 0,
      "byteOffset": 164064,
      "byteLength": 41016,
      "target": 34962
    },
    {
      "buffer": 0,
      "byteOffset": 205080,
      "byteLength": 61524,
      "target": 34962
    },
    {
      "buffer": 0,
      "byteOffset": 266604,
      "byteLength": 38244,
      "target": 34963
    }
  ],
  "accessors": [
    {
      "bufferView": 0,
      "componentType": 5126,
      "count": 5127,
      "type": "VEC3",
      "min": [
        -1.0641955137252808,
        -0.7939272522926331,
        -1.172947883605957
      ],
      "max": [
        1.141006588935852,
        1.729213833808899,
        1.5124232769012451
      ]
    },
    {
      "bufferView": 1,
      "componentType": 5126,
      "count": 5127,
      "type": "VEC3",
      "min": [
        -0.9999973773956299,
        -0.999441921710968,
        -0.9982200264930725
      ],
      "max": [
        0.9999973773956299,
        0.9982794523239136,
        0.997993528842926
      ]
    },
    {
      "bufferView": 2,
      "componentType": 5126,
      "count": 5127,
      "type": "VEC2",
      "min": [
        0.00869918055832386,
        0.12048453092575073
      ],
      "max": [
        0.6678010821342468,
        0.9535526037216187
      ]
    },
    {
      "bufferView": 3,
      "componentType": 5126,
      "count": 5127,
      "type": "VEC2",
      "min": [
        0,
        0.10155880451202393
      ],
      "max": [
        0.9277467727661133,
        1
      ]
    },
    {
      "bufferView": 4,
      "componentType": 5126,
      "count": 3845.25,
      "type": "VEC4",
      "min": [
        0,
        0,
        0,
        0
      ],
      "max": [
        1,
        1,
        1,
        1
      ]
    },
    {
      "bufferView": 5,
      "componentType": 5123,
      "count": 19122,
      "type": "SCALAR",
      "min": [
        0
      ],
      "max": [
        5126
      ]
    }
  ],
  "extras": {
    "manifest": "Fly_Harvester_Elite.materials.json"
  }
}