{
  "asset": {
    "version": "2.0",
    "generator": "prefab-to-gltf"
  },
  "scene": 0,
  "scenes": [
    {
      "name": "MiniBee",
      "nodes": [
        0
      ]
    }
  ],
  "nodes": [
    {
      "name": "MiniBee",
      "translation": [
        0,
        0,
        0
      ],
      "rotation": [
        0,
        0,
        0,
        1
      ],
      "scale": [
        1,
        1,
        1
      ],
      "mesh": 0
    }
  ],
  "meshes": [
    {
      "name": "MiniBee",
      "primitives": [
        {
          "attributes": {
            "POSITION": 0,
            "NORMAL": 1,
            "TEXCOORD_0": 2,
            "TEXCOORD_1": 3,
            "COLOR_0": 4
          },
          "indices": 5,
          "material": 0,
          "mode": 4
        }
      ]
    }
  ],
  "materials": [
    {
      "name": "GradMat",
      "pbrMetallicRoughness": {
        "baseColorFactor": [
          1,
          1,
          1,
          1
        ],
        "metallicFactor": 0,
        "roughnessFactor": 1
      },
      "doubleSided": true,
      "extras": {
        "diffuseTexture": "Character/Common/Texture/CustomGradient_WeaponALL.png",
        "specularTexture": null,
        "normalMap": null
      }
    }
  ],
  "buffers": [
    {
      "uri": "MiniBee.bin",
      "byteLength": 36664
    }
  ],
  "bufferViews": [
    {
      "buffer": 0,
      "byteOffset": 0,
      "byteLength": 7356,
      "target": 34962
    },
    {
      "buffer": 0,
      "byteOffset": 7356,
      "byteLength": 7356,
      "target": 34962
    },
    {
      "buffer": 0,
      "byteOffset": 14712,
      "byteLength": 4904,
      "target": 34962
    },
    {
      "buffer": 0,
      "byteOffset": 19616,
      "byteLength": 4904,
      "target": 34962
    },
    {
      "buffer": 0,
      "byteOffset": 24520,
      "byteLength": 7356,
      "target": 34962
    },
    {
      "buffer": 0,
      "byteOffset": 31876,
      "byteLength": 4788,
      "target": 34963
    }
  ],
  "accessors": [
    {
      "bufferView": 0,
      "componentType": 5126,
      "count": 613,
      "type": "VEC3",
      "min": [
        -0.22413881123065948,
        -0.1896112859249115,
        -0.3364897072315216
      ],
      "max": [
        0.22413881123065948,
        0.4142487347126007,
        0.23132698237895966
      ]
    },
    {
      "bufferView": 1,
      "componentType": 5126,
      "count": 613,
      "type": "VEC3",
      "min": [
        -0.9996688961982727,
        -0.9999973177909851,
        -0.9987189173698425
      ],
      "max": [
        0.9996688961982727,
        0.9996895790100098,
        0.9999415278434753
      ]
    },
    {
      "bufferView": 2,
      "componentType": 5126,
      "count": 613,
      "type": "VEC2",
      "min": [
        0.008938875049352646,
        0.08544212579727173
      ],
      "max": [
        0.6145445108413696,
        0.9379353523254395
      ]
    },
    {
      "bufferView": 3,
      "componentType": 5126,
      "count": 613,
      "type": "VEC2",
      "min": [
        0,
        0.069882333278656
      ],
      "max": [
        0.4204690456390381,
        1
      ]
    },
    {
      "bufferView": 4,
      "componentType": 5126,
      "count": 459.75,
      "type": "VEC4",
      "min": [
        0,
        0,
        0,
        0
      ],
      "max": [
        1,
        1,
        1,
        1
      ]
    },
    {
      "bufferView": 5,
      "componentType": 5123,
      "count": 2394,
      "type": "SCALAR",
      "min": [
        0
      ],
      "max": [
        612
      ]
    }
  ],
  "extras": {
    "manifest": "MiniBee.materials.json"
  }
}