{
  "asset": {
    "version": "2.0",
    "generator": "prefab-to-gltf"
  },
  "scene": 0,
  "scenes": [
    {
      "name": "Eyebrows_01_A",
      "nodes": [
        0
      ]
    }
  ],
  "nodes": [
    {
      "name": "Eyebrows_01_Regular",
      "translation": [
        0,
        0,
        0
      ],
      "rotation": [
        0,
        0,
        0,
        1
      ],
      "scale": [
        1,
        1,
        1
      ],
      "mesh": 0
    }
  ],
  "meshes": [
    {
      "name": "Eyebrows_01_Regular",
      "primitives": [
        {
          "attributes": {
            "POSITION": 0,
            "NORMAL": 1,
            "TEXCOORD_0": 2,
            "TEXCOORD_1": 3
          },
          "indices": 4,
          "material": 0,
          "mode": 4
        }
      ]
    }
  ],
  "materials": [
    {
      "name": "Gradmat_Weapon",
      "pbrMetallicRoughness": {
        "baseColorFactor": [
          1,
          1,
          1,
          1
        ],
        "metallicFactor": 0,
        "roughnessFactor": 1
      },
      "doubleSided": true,
      "extras": {
        "diffuseTexture": "Character/Common/Texture/CustomGradient_WeaponALL.png",
        "specularTexture": null,
        "normalMap": null
      }
    }
  ],
  "buffers": [
    {
      "uri": "Eyebrows_01_A.bin",
      "byteLength": 4424
    }
  ],
  "bufferViews": [
    {
      "buffer": 0,
      "byteOffset": 0,
      "byteLength": 1032,
      "target": 34962
    },
    {
      "buffer": 0,
      "byteOffset": 1032,
      "byteLength": 1032,
      "target": 34962
    },
    {
      "buffer": 0,
      "byteOffset": 2064,
      "byteLength": 688,
      "target": 34962
    },
    {
      "buffer": 0,
      "byteOffset": 2752,
      "byteLength": 688,
      "target": 34962
    },
    {
      "buffer": 0,
      "byteOffset": 3440,
      "byteLength": 984,
      "target": 34963
    }
  ],
  "accessors": [
    {
      "bufferView": 0,
      "componentType": 5126,
      "count": 86,
      "type": "VEC3",
      "min": [
        -0.11201804876327515,
        2.0068154335021973,
        0.17049087584018707
      ],
      "max": [
        0.11201804876327515,
        2.0408577919006348,
        0.23257581889629364
      ]
    },
    {
      "bufferView": 1,
      "componentType": 5126,
      "count": 86,
      "type": "VEC3",
      "min": [
        -0.9781991839408875,
        -0.9507043957710266,
        -0.8554551005363464
      ],
      "max": [
        0.9781996607780457,
        0.9253310561180115,
        0.9942217469215393
      ]
    },
    {
      "bufferView": 2,
      "componentType": 5126,
      "count": 86,
      "type": "VEC2",
      "min": [
        0.17978796362876892,
        0.7643231153488159
      ],
      "max": [
        0.22840313613414764,
        0.784064769744873
      ]
    },
    {
      "bufferView": 3,
      "componentType": 5126,
      "count": 86,
      "type": "VEC2",
      "min": [
        0.031514570116996765,
        0.9678888916969299
      ],
      "max": [
        0.031514622271060944,
        0.9678889513015747
      ]
    },
    {
      "bufferView": 4,
      "componentType": 5123,
      "count": 492,
      "type": "SCALAR",
      "min": [
        0
      ],
      "max": [
        85
      ]
    }
  ],
  "extras": {
    "manifest": "Eyebrows_01_A.materials.json"
  }
}