{
  "asset": {
    "version": "2.0",
    "generator": "prefab-to-gltf"
  },
  "scene": 0,
  "scenes": [
    {
      "name": "Eyebrows_05_A",
      "nodes": [
        0
      ]
    }
  ],
  "nodes": [
    {
      "name": "Eyebrows_05_Bushy",
      "translation": [
        0,
        0,
        0
      ],
      "rotation": [
        0,
        0,
        0,
        1
      ],
      "scale": [
        1,
        1,
        1
      ],
      "mesh": 0
    }
  ],
  "meshes": [
    {
      "name": "Eyebrows_05_Bushy",
      "primitives": [
        {
          "attributes": {
            "POSITION": 0,
            "NORMAL": 1,
            "TEXCOORD_0": 2,
            "TEXCOORD_1": 3
          },
          "indices": 4,
          "material": 0,
          "mode": 4
        }
      ]
    }
  ],
  "materials": [
    {
      "name": "Gradmat_Weapon",
      "pbrMetallicRoughness": {
        "baseColorFactor": [
          1,
          1,
          1,
          1
        ],
        "metallicFactor": 0,
        "roughnessFactor": 1
      },
      "doubleSided": true,
      "extras": {
        "diffuseTexture": "Character/Common/Texture/CustomGradient_WeaponALL.png",
        "specularTexture": null,
        "normalMap": null
      }
    }
  ],
  "buffers": [
    {
      "uri": "Eyebrows_05_A.bin",
      "byteLength": 6976
    }
  ],
  "bufferViews": [
    {
      "buffer": 0,
      "byteOffset": 0,
      "byteLength": 1848,
      "target": 34962
    },
    {
      "buffer": 0,
      "byteOffset": 1848,
      "byteLength": 1848,
      "target": 34962
    },
    {
      "buffer": 0,
      "byteOffset": 3696,
      "byteLength": 1232,
      "target": 34962
    },
    {
      "buffer": 0,
      "byteOffset": 4928,
      "byteLength": 1232,
      "target": 34962
    },
    {
      "buffer": 0,
      "byteOffset": 6160,
      "byteLength": 816,
      "target": 34963
    }
  ],
  "accessors": [
    {
      "bufferView": 0,
      "componentType": 5126,
      "count": 154,
      "type": "VEC3",
      "min": [
        -0.11549806594848633,
        2.0034890174865723,
        0.18508464097976685
      ],
      "max": [
        0.11549806594848633,
        2.05234694480896,
        0.23510640859603882
      ]
    },
    {
      "bufferView": 1,
      "componentType": 5126,
      "count": 154,
      "type": "VEC3",
      "min": [
        -0.8601182103157043,
        -0.8427554965019226,
        -0.992499828338623
      ],
      "max": [
        0.8601183891296387,
        0.7863089442253113,
        0.9737210869789124
      ]
    },
    {
      "bufferView": 2,
      "componentType": 5126,
      "count": 154,
      "type": "VEC2",
      "min": [
        0.17218561470508575,
        0.7479150295257568
      ],
      "max": [
        0.19807608425617218,
        0.7961388230323792
      ]
    },
    {
      "bufferView": 3,
      "componentType": 5126,
      "count": 154,
      "type": "VEC2",
      "min": [
        0.031514570116996765,
        0.9678888916969299
      ],
      "max": [
        0.03151461109519005,
        0.9678889513015747
      ]
    },
    {
      "bufferView": 4,
      "componentType": 5123,
      "count": 408,
      "type": "SCALAR",
      "min": [
        0
      ],
      "max": [
        153
      ]
    }
  ],
  "extras": {
    "manifest": "Eyebrows_05_A.materials.json"
  }
}