{
  "asset": {
    "version": "2.0",
    "generator": "prefab-to-gltf"
  },
  "scene": 0,
  "scenes": [
    {
      "name": "Eyebrows_04_A",
      "nodes": [
        0
      ]
    }
  ],
  "nodes": [
    {
      "name": "Eyebrows_04",
      "translation": [
        0,
        0,
        0
      ],
      "rotation": [
        0,
        0,
        0,
        1
      ],
      "scale": [
        1,
        1,
        1
      ],
      "mesh": 0
    }
  ],
  "meshes": [
    {
      "name": "Eyebrows_04",
      "primitives": [
        {
          "attributes": {
            "POSITION": 0,
            "NORMAL": 1,
            "TEXCOORD_0": 2,
            "TEXCOORD_1": 3
          },
          "indices": 4,
          "material": 0,
          "mode": 4
        }
      ]
    }
  ],
  "materials": [
    {
      "name": "Gradmat_Weapon",
      "pbrMetallicRoughness": {
        "baseColorFactor": [
          1,
          1,
          1,
          1
        ],
        "metallicFactor": 0,
        "roughnessFactor": 1
      },
      "doubleSided": true,
      "extras": {
        "diffuseTexture": "Character/Common/Texture/CustomGradient_WeaponALL.png",
        "specularTexture": null,
        "normalMap": null
      }
    }
  ],
  "buffers": [
    {
      "uri": "Eyebrows_04_A.bin",
      "byteLength": 4796
    }
  ],
  "bufferViews": [
    {
      "buffer": 0,
      "byteOffset": 0,
      "byteLength": 1176,
      "target": 34962
    },
    {
      "buffer": 0,
      "byteOffset": 1176,
      "byteLength": 1176,
      "target": 34962
    },
    {
      "buffer": 0,
      "byteOffset": 2352,
      "byteLength": 784,
      "target": 34962
    },
    {
      "buffer": 0,
      "byteOffset": 3136,
      "byteLength": 784,
      "target": 34962
    },
    {
      "buffer": 0,
      "byteOffset": 3920,
      "byteLength": 876,
      "target": 34963
    }
  ],
  "accessors": [
    {
      "bufferView": 0,
      "componentType": 5126,
      "count": 98,
      "type": "VEC3",
      "min": [
        -0.10602804273366928,
        2.0048999786376953,
        0.17612247169017792
      ],
      "max": [
        0.10602804273366928,
        2.0346899032592773,
        0.23360489308834076
      ]
    },
    {
      "bufferView": 1,
      "componentType": 5126,
      "count": 98,
      "type": "VEC3",
      "min": [
        -0.9270907640457153,
        -0.999272882938385,
        -0.16688714921474457
      ],
      "max": [
        0.9270852208137512,
        0.9878377318382263,
        0.9887577891349792
      ]
    },
    {
      "bufferView": 2,
      "componentType": 5126,
      "count": 98,
      "type": "VEC2",
      "min": [
        0.19137531518936157,
        0.7440240979194641
      ],
      "max": [
        0.19157251715660095,
        0.7717553973197937
      ]
    },
    {
      "bufferView": 3,
      "componentType": 5126,
      "count": 98,
      "type": "VEC2",
      "min": [
        0.031514570116996765,
        0.9678888916969299
      ],
      "max": [
        0.031514622271060944,
        0.9678889513015747
      ]
    },
    {
      "bufferView": 4,
      "componentType": 5123,
      "count": 438,
      "type": "SCALAR",
      "min": [
        0
      ],
      "max": [
        97
      ]
    }
  ],
  "extras": {
    "manifest": "Eyebrows_04_A.materials.json"
  }
}