{
  "asset": {
    "version": "2.0",
    "generator": "prefab-to-gltf"
  },
  "scene": 0,
  "scenes": [
    {
      "name": "Eyebrows_07_A",
      "nodes": [
        0
      ]
    }
  ],
  "nodes": [
    {
      "name": "Eyebrows_07_Bushy_01",
      "translation": [
        0,
        0,
        0
      ],
      "rotation": [
        0,
        0,
        0,
        1
      ],
      "scale": [
        1,
        1,
        1
      ],
      "mesh": 0
    }
  ],
  "meshes": [
    {
      "name": "Eyebrows_07_Bushy_01",
      "primitives": [
        {
          "attributes": {
            "POSITION": 0,
            "NORMAL": 1,
            "TEXCOORD_0": 2,
            "TEXCOORD_1": 3
          },
          "indices": 4,
          "material": 0,
          "mode": 4
        }
      ]
    }
  ],
  "materials": [
    {
      "name": "GradMat_Body",
      "pbrMetallicRoughness": {
        "baseColorFactor": [
          1,
          1,
          1,
          1
        ],
        "metallicFactor": 0,
        "roughnessFactor": 1
      },
      "doubleSided": true,
      "extras": {
        "diffuseTexture": "Character/Common/Texture/CustomGradient_BasicGuy.png",
        "specularTexture": null,
        "normalMap": null
      }
    }
  ],
  "buffers": [
    {
      "uri": "Eyebrows_07_A.bin",
      "byteLength": 14696
    }
  ],
  "bufferViews": [
    {
      "buffer": 0,
      "byteOffset": 0,
      "byteLength": 3840,
      "target": 34962
    },
    {
      "buffer": 0,
      "byteOffset": 3840,
      "byteLength": 3840,
      "target": 34962
    },
    {
      "buffer": 0,
      "byteOffset": 7680,
      "byteLength": 2560,
      "target": 34962
    },
    {
      "buffer": 0,
      "byteOffset": 10240,
      "byteLength": 2560,
      "target": 34962
    },
    {
      "buffer": 0,
      "byteOffset": 12800,
      "byteLength": 1896,
      "target": 34963
    }
  ],
  "accessors": [
    {
      "bufferView": 0,
      "componentType": 5126,
      "count": 320,
      "type": "VEC3",
      "min": [
        -0.11449538171291351,
        2.001779079437256,
        0.1854081004858017
      ],
      "max": [
        0.11445364356040955,
        2.051935911178589,
        0.24100220203399658
      ]
    },
    {
      "bufferView": 1,
      "componentType": 5126,
      "count": 320,
      "type": "VEC3",
      "min": [
        -0.931982159614563,
        -0.992972195148468,
        -0.9576841592788696
      ],
      "max": [
        0.931982159614563,
        0.9401203989982605,
        0.9954417943954468
      ]
    },
    {
      "bufferView": 2,
      "componentType": 5126,
      "count": 320,
      "type": "VEC2",
      "min": [
        0.1655183881521225,
        0.5995533466339111
      ],
      "max": [
        0.22035379707813263,
        0.8104550838470459
      ]
    },
    {
      "bufferView": 3,
      "componentType": 5126,
      "count": 320,
      "type": "VEC2",
      "min": [
        0.03104996681213379,
        0.01694965362548828
      ],
      "max": [
        0.665726900100708,
        0.9641090631484985
      ]
    },
    {
      "bufferView": 4,
      "componentType": 5123,
      "count": 948,
      "type": "SCALAR",
      "min": [
        0
      ],
      "max": [
        319
      ]
    }
  ],
  "extras": {
    "manifest": "Eyebrows_07_A.materials.json"
  }
}