{
  "asset": {
    "version": "2.0",
    "generator": "prefab-to-gltf"
  },
  "scene": 0,
  "scenes": [
    {
      "name": "Eyebrows_06_A",
      "nodes": [
        0
      ]
    }
  ],
  "nodes": [
    {
      "name": "Eyebrows_06",
      "translation": [
        0,
        0,
        0
      ],
      "rotation": [
        0,
        0,
        0,
        1
      ],
      "scale": [
        1,
        1,
        1
      ],
      "mesh": 0
    }
  ],
  "meshes": [
    {
      "name": "Eyebrows_06",
      "primitives": [
        {
          "attributes": {
            "POSITION": 0,
            "NORMAL": 1,
            "TEXCOORD_0": 2,
            "TEXCOORD_1": 3
          },
          "indices": 4,
          "material": 0,
          "mode": 4
        }
      ]
    }
  ],
  "materials": [
    {
      "name": "Gradmat_Weapon",
      "pbrMetallicRoughness": {
        "baseColorFactor": [
          1,
          1,
          1,
          1
        ],
        "metallicFactor": 0,
        "roughnessFactor": 1
      },
      "doubleSided": true,
      "extras": {
        "diffuseTexture": "Character/Common/Texture/CustomGradient_WeaponALL.png",
        "specularTexture": null,
        "normalMap": null
      }
    }
  ],
  "buffers": [
    {
      "uri": "Eyebrows_06_A.bin",
      "byteLength": 5996
    }
  ],
  "bufferViews": [
    {
      "buffer": 0,
      "byteOffset": 0,
      "byteLength": 1464,
      "target": 34962
    },
    {
      "buffer": 0,
      "byteOffset": 1464,
      "byteLength": 1464,
      "target": 34962
    },
    {
      "buffer": 0,
      "byteOffset": 2928,
      "byteLength": 976,
      "target": 34962
    },
    {
      "buffer": 0,
      "byteOffset": 3904,
      "byteLength": 976,
      "target": 34962
    },
    {
      "buffer": 0,
      "byteOffset": 4880,
      "byteLength": 1116,
      "target": 34963
    }
  ],
  "accessors": [
    {
      "bufferView": 0,
      "componentType": 5126,
      "count": 122,
      "type": "VEC3",
      "min": [
        -0.10540611296892166,
        2.0112993717193604,
        0.17558318376541138
      ],
      "max": [
        0.10540611296892166,
        2.0418074131011963,
        0.23482228815555573
      ]
    },
    {
      "bufferView": 1,
      "componentType": 5126,
      "count": 122,
      "type": "VEC3",
      "min": [
        -0.9240701198577881,
        -0.9985654354095459,
        -0.16471517086029053
      ],
      "max": [
        0.9240760207176208,
        0.9775623679161072,
        0.9967168569564819
      ]
    },
    {
      "bufferView": 2,
      "componentType": 5126,
      "count": 122,
      "type": "VEC2",
      "min": [
        0.1900576502084732,
        0.7179591059684753
      ],
      "max": [
        0.19050152599811554,
        0.7803369760513306
      ]
    },
    {
      "bufferView": 3,
      "componentType": 5126,
      "count": 122,
      "type": "VEC2",
      "min": [
        0.03151455521583557,
        0.9678888916969299
      ],
      "max": [
        0.03151461482048035,
        0.9678889513015747
      ]
    },
    {
      "bufferView": 4,
      "componentType": 5123,
      "count": 558,
      "type": "SCALAR",
      "min": [
        0
      ],
      "max": [
        121
      ]
    }
  ],
  "extras": {
    "manifest": "Eyebrows_06_A.materials.json"
  }
}