{
  "asset": {
    "version": "2.0",
    "generator": "prefab-to-gltf"
  },
  "scene": 0,
  "scenes": [
    {
      "name": "Eyebrows_02_A",
      "nodes": [
        0
      ]
    }
  ],
  "nodes": [
    {
      "name": "Eyebrows_02",
      "translation": [
        0,
        0,
        0
      ],
      "rotation": [
        0,
        0,
        0,
        1
      ],
      "scale": [
        1,
        1,
        1
      ],
      "mesh": 0
    }
  ],
  "meshes": [
    {
      "name": "Eyebrows_02",
      "primitives": [
        {
          "attributes": {
            "POSITION": 0,
            "NORMAL": 1,
            "TEXCOORD_0": 2,
            "TEXCOORD_1": 3
          },
          "indices": 4,
          "material": 0,
          "mode": 4
        }
      ]
    }
  ],
  "materials": [
    {
      "name": "Gradmat_Weapon",
      "pbrMetallicRoughness": {
        "baseColorFactor": [
          1,
          1,
          1,
          1
        ],
        "metallicFactor": 0,
        "roughnessFactor": 1
      },
      "doubleSided": true,
      "extras": {
        "diffuseTexture": "Character/Common/Texture/CustomGradient_WeaponALL.png",
        "specularTexture": null,
        "normalMap": null
      }
    }
  ],
  "buffers": [
    {
      "uri": "Eyebrows_02_A.bin",
      "byteLength": 4196
    }
  ],
  "bufferViews": [
    {
      "buffer": 0,
      "byteOffset": 0,
      "byteLength": 1032,
      "target": 34962
    },
    {
      "buffer": 0,
      "byteOffset": 1032,
      "byteLength": 1032,
      "target": 34962
    },
    {
      "buffer": 0,
      "byteOffset": 2064,
      "byteLength": 688,
      "target": 34962
    },
    {
      "buffer": 0,
      "byteOffset": 2752,
      "byteLength": 688,
      "target": 34962
    },
    {
      "buffer": 0,
      "byteOffset": 3440,
      "byteLength": 756,
      "target": 34963
    }
  ],
  "accessors": [
    {
      "bufferView": 0,
      "componentType": 5126,
      "count": 86,
      "type": "VEC3",
      "min": [
        -0.10924055427312851,
        2.0069103240966797,
        0.17350269854068756
      ],
      "max": [
        0.10924055427312851,
        2.0375843048095703,
        0.23683243989944458
      ]
    },
    {
      "bufferView": 1,
      "componentType": 5126,
      "count": 86,
      "type": "VEC3",
      "min": [
        -0.9043339490890503,
        -0.9899027347564697,
        -0.3917055130004883
      ],
      "max": [
        0.9043339490890503,
        0.9725530743598938,
        0.9926300644874573
      ]
    },
    {
      "bufferView": 2,
      "componentType": 5126,
      "count": 86,
      "type": "VEC2",
      "min": [
        0.18088212609291077,
        0.7404268980026245
      ],
      "max": [
        0.18132340908050537,
        0.802804708480835
      ]
    },
    {
      "bufferView": 3,
      "componentType": 5126,
      "count": 86,
      "type": "VEC2",
      "min": [
        0.03151456639170647,
        0.9678888916969299
      ],
      "max": [
        0.03151461482048035,
        0.9678889513015747
      ]
    },
    {
      "bufferView": 4,
      "componentType": 5123,
      "count": 378,
      "type": "SCALAR",
      "min": [
        0
      ],
      "max": [
        85
      ]
    }
  ],
  "extras": {
    "manifest": "Eyebrows_02_A.materials.json"
  }
}