{
  "asset": {
    "version": "2.0",
    "generator": "prefab-to-gltf"
  },
  "scene": 0,
  "scenes": [
    {
      "name": "Crossbow_Guard_Basic_01",
      "nodes": [
        0
      ]
    }
  ],
  "nodes": [
    {
      "name": "Crossbow",
      "translation": [
        0,
        0,
        0
      ],
      "rotation": [
        0.7071056365966797,
        0,
        0,
        0.7071079257745626
      ],
      "scale": [
        1,
        1,
        1
      ],
      "mesh": 0
    }
  ],
  "meshes": [
    {
      "name": "Crossbow",
      "primitives": [
        {
          "attributes": {
            "POSITION": 0,
            "NORMAL": 1,
            "TEXCOORD_0": 2,
            "TEXCOORD_1": 3
          },
          "indices": 4,
          "material": 0,
          "mode": 4
        }
      ]
    }
  ],
  "materials": [
    {
      "name": "MatSlots_Weapons",
      "pbrMetallicRoughness": {
        "baseColorFactor": [
          1,
          1,
          1,
          1
        ],
        "metallicFactor": 0,
        "roughnessFactor": 1
      },
      "doubleSided": true,
      "extras": {
        "diffuseTexture": "Character/Common/Texture/CustomGradient_WeaponALL.png",
        "specularTexture": null,
        "normalMap": null
      }
    }
  ],
  "buffers": [
    {
      "uri": "Crossbow_Guard_Basic_01.bin",
      "byteLength": 53164
    }
  ],
  "bufferViews": [
    {
      "buffer": 0,
      "byteOffset": 0,
      "byteLength": 14124,
      "target": 34962
    },
    {
      "buffer": 0,
      "byteOffset": 14124,
      "byteLength": 14124,
      "target": 34962
    },
    {
      "buffer": 0,
      "byteOffset": 28248,
      "byteLength": 9416,
      "target": 34962
    },
    {
      "buffer": 0,
      "byteOffset": 37664,
      "byteLength": 9416,
      "target": 34962
    },
    {
      "buffer": 0,
      "byteOffset": 47080,
      "byteLength": 6084,
      "target": 34963
    }
  ],
  "accessors": [
    {
      "bufferView": 0,
      "componentType": 5126,
      "count": 1177,
      "type": "VEC3",
      "min": [
        -0.8644046187400818,
        -0.16583594679832458,
        -0.5322530269622803
      ],
      "max": [
        0.8644046187400818,
        0.12396799027919769,
        1.0078489780426025
      ]
    },
    {
      "bufferView": 1,
      "componentType": 5126,
      "count": 1177,
      "type": "VEC3",
      "min": [
        -0.9999834895133972,
        -0.9999983310699463,
        -1
      ],
      "max": [
        0.9999836087226868,
        0.9999997019767761,
        1
      ]
    },
    {
      "bufferView": 2,
      "componentType": 5126,
      "count": 1177,
      "type": "VEC2",
      "min": [
        0.0385516881942749,
        0.08832114934921265
      ],
      "max": [
        0.579828679561615,
        0.792898416519165
      ]
    },
    {
      "bufferView": 3,
      "componentType": 5126,
      "count": 1177,
      "type": "VEC2",
      "min": [
        0.04330470412969589,
        0.055248796939849854
      ],
      "max": [
        0.9578489065170288,
        0.9630475044250488
      ]
    },
    {
      "bufferView": 4,
      "componentType": 5123,
      "count": 3042,
      "type": "SCALAR",
      "min": [
        0
      ],
      "max": [
        1176
      ]
    }
  ],
  "extras": {
    "manifest": "Crossbow_Guard_Basic_01.materials.json"
  }
}