{
  "asset": {
    "version": "2.0",
    "generator": "prefab-to-gltf"
  },
  "scene": 0,
  "scenes": [
    {
      "name": "Back_Long_XSwarowls_02_Light",
      "nodes": [
        0
      ]
    }
  ],
  "nodes": [
    {
      "name": "Back_Z3RSwarowls_Light_N",
      "translation": [
        0,
        0,
        0
      ],
      "rotation": [
        0,
        0,
        0,
        1
      ],
      "scale": [
        1,
        1,
        1
      ],
      "mesh": 0,
      "children": [
        1
      ]
    },
    {
      "name": "LIGHT",
      "translation": [
        0,
        0,
        0
      ],
      "rotation": [
        0.7071056365966797,
        0,
        0,
        0.7071079257745626
      ],
      "scale": [
        1,
        1,
        1
      ]
    }
  ],
  "meshes": [
    {
      "name": "Back_Z3RSwarowls_Light_N",
      "primitives": [
        {
          "attributes": {
            "POSITION": 0,
            "NORMAL": 1,
            "TEXCOORD_0": 2,
            "TEXCOORD_1": 3
          },
          "indices": 4,
          "material": 0,
          "mode": 4
        }
      ]
    }
  ],
  "materials": [
    {
      "name": "GradMat_Body",
      "pbrMetallicRoughness": {
        "baseColorFactor": [
          1,
          1,
          1,
          1
        ],
        "metallicFactor": 0,
        "roughnessFactor": 1
      },
      "doubleSided": true,
      "extras": {
        "diffuseTexture": "Character/Common/Texture/CustomGradient_RobinHoof.png",
        "specularTexture": null,
        "normalMap": null
      }
    }
  ],
  "buffers": [
    {
      "uri": "Back_Long_XSwarowls_02_Light.bin",
      "byteLength": 66006
    }
  ],
  "bufferViews": [
    {
      "buffer": 0,
      "byteOffset": 0,
      "byteLength": 17244,
      "target": 34962
    },
    {
      "buffer": 0,
      "byteOffset": 17244,
      "byteLength": 17244,
      "target": 34962
    },
    {
      "buffer": 0,
      "byteOffset": 34488,
      "byteLength": 11496,
      "target": 34962
    },
    {
      "buffer": 0,
      "byteOffset": 45984,
      "byteLength": 11496,
      "target": 34962
    },
    {
      "buffer": 0,
      "byteOffset": 57480,
      "byteLength": 8526,
      "target": 34963
    }
  ],
  "accessors": [
    {
      "bufferView": 0,
      "componentType": 5126,
      "count": 1437,
      "type": "VEC3",
      "min": [
        -0.3946819305419922,
        0.42575401067733765,
        -0.3894164264202118
      ],
      "max": [
        0.40714526176452637,
        1.696290135383606,
        -0.0965508446097374
      ]
    },
    {
      "bufferView": 1,
      "componentType": 5126,
      "count": 1437,
      "type": "VEC3",
      "min": [
        -0.9951134920120239,
        -0.9747143387794495,
        -0.999826192855835
      ],
      "max": [
        0.9939836263656616,
        0.9782825112342834,
        0.9988048076629639
      ]
    },
    {
      "bufferView": 2,
      "componentType": 5126,
      "count": 1437,
      "type": "VEC2",
      "min": [
        0.12907785177230835,
        0.2588605284690857
      ],
      "max": [
        0.640217661857605,
        0.9210536479949951
      ]
    },
    {
      "bufferView": 3,
      "componentType": 5126,
      "count": 1437,
      "type": "VEC2",
      "min": [
        0.07162800431251526,
        0.25464993715286255
      ],
      "max": [
        0.9416452646255493,
        0.9728789329528809
      ]
    },
    {
      "bufferView": 4,
      "componentType": 5123,
      "count": 4263,
      "type": "SCALAR",
      "min": [
        0
      ],
      "max": [
        1436
      ]
    }
  ],
  "extras": {
    "manifest": "Back_Long_XSwarowls_02_Light.materials.json"
  }
}