{
  "asset": {
    "version": "2.0",
    "generator": "prefab-to-gltf"
  },
  "scene": 0,
  "scenes": [
    {
      "name": "Chest_LongSleeves_XSwarowls_02_Light",
      "nodes": [
        0
      ]
    }
  ],
  "nodes": [
    {
      "name": "Chest_Z3RSwarowls_Light_N",
      "translation": [
        0,
        0,
        0
      ],
      "rotation": [
        0,
        0,
        0,
        1
      ],
      "scale": [
        1,
        1,
        1
      ],
      "mesh": 0,
      "children": [
        1
      ]
    },
    {
      "name": "LIGHT",
      "translation": [
        0,
        0,
        0
      ],
      "rotation": [
        0.7071056365966797,
        0,
        0,
        0.7071079257745626
      ],
      "scale": [
        1,
        1,
        1
      ]
    }
  ],
  "meshes": [
    {
      "name": "Chest_Z3RSwarowls_Light_N",
      "primitives": [
        {
          "attributes": {
            "POSITION": 0,
            "NORMAL": 1,
            "TEXCOORD_0": 2,
            "TEXCOORD_1": 3,
            "COLOR_0": 4
          },
          "indices": 5,
          "material": 0,
          "mode": 4
        }
      ]
    }
  ],
  "materials": [
    {
      "name": "GradMat_Body",
      "pbrMetallicRoughness": {
        "baseColorFactor": [
          1,
          1,
          1,
          1
        ],
        "metallicFactor": 0,
        "roughnessFactor": 1
      },
      "doubleSided": true,
      "extras": {
        "diffuseTexture": "Character/Common/Texture/CustomGradient_RobinHoof.png",
        "specularTexture": null,
        "normalMap": null
      }
    }
  ],
  "buffers": [
    {
      "uri": "Chest_LongSleeves_XSwarowls_02_Light.bin",
      "byteLength": 388252
    }
  ],
  "bufferViews": [
    {
      "buffer": 0,
      "byteOffset": 0,
      "byteLength": 79716,
      "target": 34962
    },
    {
      "buffer": 0,
      "byteOffset": 79716,
      "byteLength": 79716,
      "target": 34962
    },
    {
      "buffer": 0,
      "byteOffset": 159432,
      "byteLength": 53144,
      "target": 34962
    },
    {
      "buffer": 0,
      "byteOffset": 212576,
      "byteLength": 53144,
      "target": 34962
    },
    {
      "buffer": 0,
      "byteOffset": 265720,
      "byteLength": 79716,
      "target": 34962
    },
    {
      "buffer": 0,
      "byteOffset": 345436,
      "byteLength": 42816,
      "target": 34963
    }
  ],
  "accessors": [
    {
      "bufferView": 0,
      "componentType": 5126,
      "count": 6643,
      "type": "VEC3",
      "min": [
        -0.6695147752761841,
        0.45023787021636963,
        -0.31800615787506104
      ],
      "max": [
        0.6695147752761841,
        1.9330371618270874,
        0.30976060032844543
      ]
    },
    {
      "bufferView": 1,
      "componentType": 5126,
      "count": 6643,
      "type": "VEC3",
      "min": [
        -0.9996100664138794,
        -0.9978513121604919,
        -0.9999994039535522
      ],
      "max": [
        0.9996101260185242,
        0.9998964071273804,
        0.9999991059303284
      ]
    },
    {
      "bufferView": 2,
      "componentType": 5126,
      "count": 6643,
      "type": "VEC2",
      "min": [
        0.04311086982488632,
        0.20128852128982544
      ],
      "max": [
        0.9760476350784302,
        0.918269157409668
      ]
    },
    {
      "bufferView": 3,
      "componentType": 5126,
      "count": 6643,
      "type": "VEC2",
      "min": [
        0.05139777809381485,
        0.1857706904411316
      ],
      "max": [
        0.9426499605178833,
        0.9456797242164612
      ]
    },
    {
      "bufferView": 4,
      "componentType": 5126,
      "count": 4982.25,
      "type": "VEC4",
      "min": [
        0,
        0,
        0,
        0
      ],
      "max": [
        1,
        1,
        1,
        1
      ]
    },
    {
      "bufferView": 5,
      "componentType": 5123,
      "count": 21408,
      "type": "SCALAR",
      "min": [
        0
      ],
      "max": [
        6642
      ]
    }
  ],
  "extras": {
    "manifest": "Chest_LongSleeves_XSwarowls_02_Light.materials.json"
  }
}