{
  "asset": {
    "version": "2.0",
    "generator": "prefab-to-gltf"
  },
  "scene": 0,
  "scenes": [
    {
      "name": "Chest_LongSleeves_XSwarowls_02_Medium",
      "nodes": [
        0
      ]
    }
  ],
  "nodes": [
    {
      "name": "Chest_Z3RSwarowls_Medium_N",
      "translation": [
        0,
        0,
        0
      ],
      "rotation": [
        0,
        0,
        0,
        1
      ],
      "scale": [
        1,
        1,
        1
      ],
      "mesh": 0
    }
  ],
  "meshes": [
    {
      "name": "Chest_Z3RSwarowls_Medium_N",
      "primitives": [
        {
          "attributes": {
            "POSITION": 0,
            "NORMAL": 1,
            "TEXCOORD_0": 2,
            "TEXCOORD_1": 3
          },
          "indices": 4,
          "material": 0,
          "mode": 4
        }
      ]
    }
  ],
  "materials": [
    {
      "name": "Gradmat_Weapon",
      "pbrMetallicRoughness": {
        "baseColorFactor": [
          1,
          1,
          1,
          1
        ],
        "metallicFactor": 0,
        "roughnessFactor": 1
      },
      "doubleSided": true,
      "extras": {
        "diffuseTexture": "Character/Common/Texture/CustomGradient_Hero_Clothes.png",
        "specularTexture": null,
        "normalMap": null
      }
    }
  ],
  "buffers": [
    {
      "uri": "Chest_LongSleeves_XSwarowls_02_Medium.bin",
      "byteLength": 229650
    }
  ],
  "bufferViews": [
    {
      "buffer": 0,
      "byteOffset": 0,
      "byteLength": 59796,
      "target": 34962
    },
    {
      "buffer": 0,
      "byteOffset": 59796,
      "byteLength": 59796,
      "target": 34962
    },
    {
      "buffer": 0,
      "byteOffset": 119592,
      "byteLength": 39864,
      "target": 34962
    },
    {
      "buffer": 0,
      "byteOffset": 159456,
      "byteLength": 39864,
      "target": 34962
    },
    {
      "buffer": 0,
      "byteOffset": 199320,
      "byteLength": 30330,
      "target": 34963
    }
  ],
  "accessors": [
    {
      "bufferView": 0,
      "componentType": 5126,
      "count": 4983,
      "type": "VEC3",
      "min": [
        -0.6695147752761841,
        0.7793576717376709,
        -0.20488134026527405
      ],
      "max": [
        0.6695147752761841,
        1.9331179857254028,
        0.26068228483200073
      ]
    },
    {
      "bufferView": 1,
      "componentType": 5126,
      "count": 4983,
      "type": "VEC3",
      "min": [
        -0.9994488954544067,
        -0.9989371299743652,
        -0.9999004006385803
      ],
      "max": [
        0.9994475245475769,
        0.9985429048538208,
        0.9990467429161072
      ]
    },
    {
      "bufferView": 2,
      "componentType": 5126,
      "count": 4983,
      "type": "VEC2",
      "min": [
        0.012076439335942268,
        0.20805108547210693
      ],
      "max": [
        0.888092577457428,
        0.9945371150970459
      ]
    },
    {
      "bufferView": 3,
      "componentType": 5126,
      "count": 4983,
      "type": "VEC2",
      "min": [
        0.07759284973144531,
        0.023422837257385254
      ],
      "max": [
        0.9411903023719788,
        0.9857231378555298
      ]
    },
    {
      "bufferView": 4,
      "componentType": 5123,
      "count": 15165,
      "type": "SCALAR",
      "min": [
        0
      ],
      "max": [
        4982
      ]
    }
  ],
  "extras": {
    "manifest": "Chest_LongSleeves_XSwarowls_02_Medium.materials.json"
  }
}