{
  "asset": {
    "version": "2.0",
    "generator": "prefab-to-gltf"
  },
  "scene": 0,
  "scenes": [
    {
      "name": "Feet_High_XSwarowls_02_Light",
      "nodes": [
        0
      ]
    }
  ],
  "nodes": [
    {
      "name": "Feet_Z3RSwarowls_Light_N",
      "translation": [
        0,
        0,
        0
      ],
      "rotation": [
        0,
        0,
        0,
        1
      ],
      "scale": [
        1,
        1,
        1
      ],
      "mesh": 0
    }
  ],
  "meshes": [
    {
      "name": "Feet_Z3RSwarowls_Light_N",
      "primitives": [
        {
          "attributes": {
            "POSITION": 0,
            "NORMAL": 1,
            "TEXCOORD_0": 2,
            "TEXCOORD_1": 3,
            "COLOR_0": 4
          },
          "indices": 5,
          "material": 0,
          "mode": 4
        }
      ]
    }
  ],
  "materials": [
    {
      "name": "GradMat_Body",
      "pbrMetallicRoughness": {
        "baseColorFactor": [
          1,
          1,
          1,
          1
        ],
        "metallicFactor": 0,
        "roughnessFactor": 1
      },
      "doubleSided": true,
      "extras": {
        "diffuseTexture": "Character/Common/Texture/CustomGradient_RobinHoof.png",
        "specularTexture": null,
        "normalMap": null
      }
    }
  ],
  "buffers": [
    {
      "uri": "Feet_High_XSwarowls_02_Light.bin",
      "byteLength": 155256
    }
  ],
  "bufferViews": [
    {
      "buffer": 0,
      "byteOffset": 0,
      "byteLength": 32040,
      "target": 34962
    },
    {
      "buffer": 0,
      "byteOffset": 32040,
      "byteLength": 32040,
      "target": 34962
    },
    {
      "buffer": 0,
      "byteOffset": 64080,
      "byteLength": 21360,
      "target": 34962
    },
    {
      "buffer": 0,
      "byteOffset": 85440,
      "byteLength": 21360,
      "target": 34962
    },
    {
      "buffer": 0,
      "byteOffset": 106800,
      "byteLength": 32040,
      "target": 34962
    },
    {
      "buffer": 0,
      "byteOffset": 138840,
      "byteLength": 16416,
      "target": 34963
    }
  ],
  "accessors": [
    {
      "bufferView": 0,
      "componentType": 5126,
      "count": 2670,
      "type": "VEC3",
      "min": [
        -0.42814648151397705,
        0.010442537255585194,
        -0.148037850856781
      ],
      "max": [
        0.42814648151397705,
        0.47925159335136414,
        0.30547335743904114
      ]
    },
    {
      "bufferView": 1,
      "componentType": 5126,
      "count": 2670,
      "type": "VEC3",
      "min": [
        -0.9996387958526611,
        -0.9999744892120361,
        -0.9988703727722168
      ],
      "max": [
        0.9996387958526611,
        0.9997694492340088,
        0.9993591904640198
      ]
    },
    {
      "bufferView": 2,
      "componentType": 5126,
      "count": 2670,
      "type": "VEC2",
      "min": [
        0.10908839106559753,
        0.31368643045425415
      ],
      "max": [
        0.7267760634422302,
        0.9350544214248657
      ]
    },
    {
      "bufferView": 3,
      "componentType": 5126,
      "count": 2670,
      "type": "VEC2",
      "min": [
        0.05860568955540657,
        0.31663626432418823
      ],
      "max": [
        0.9695004224777222,
        0.9864370822906494
      ]
    },
    {
      "bufferView": 4,
      "componentType": 5126,
      "count": 2002.5,
      "type": "VEC4",
      "min": [
        0,
        0,
        0,
        0
      ],
      "max": [
        1,
        1,
        1,
        1
      ]
    },
    {
      "bufferView": 5,
      "componentType": 5123,
      "count": 8208,
      "type": "SCALAR",
      "min": [
        0
      ],
      "max": [
        2669
      ]
    }
  ],
  "extras": {
    "manifest": "Feet_High_XSwarowls_02_Light.materials.json"
  }
}