{
  "asset": {
    "version": "2.0",
    "generator": "prefab-to-gltf"
  },
  "scene": 0,
  "scenes": [
    {
      "name": "Hands_Wrist_XSwarowls_02_Medium",
      "nodes": [
        0
      ]
    }
  ],
  "nodes": [
    {
      "name": "Hands_Z3RSwarowls_Medium_N",
      "translation": [
        0,
        0,
        0
      ],
      "rotation": [
        0,
        0,
        0,
        1
      ],
      "scale": [
        1,
        1,
        1
      ],
      "mesh": 0
    }
  ],
  "meshes": [
    {
      "name": "Hands_Z3RSwarowls_Medium_N",
      "primitives": [
        {
          "attributes": {
            "POSITION": 0,
            "NORMAL": 1,
            "TEXCOORD_0": 2,
            "TEXCOORD_1": 3,
            "COLOR_0": 4
          },
          "indices": 5,
          "material": 0,
          "mode": 4
        }
      ]
    }
  ],
  "materials": [
    {
      "name": "Gradmat_Weapon",
      "pbrMetallicRoughness": {
        "baseColorFactor": [
          1,
          1,
          1,
          1
        ],
        "metallicFactor": 0,
        "roughnessFactor": 1
      },
      "doubleSided": true,
      "extras": {
        "diffuseTexture": "Character/Common/Texture/CustomGradient_Hero_Clothes.png",
        "specularTexture": null,
        "normalMap": null
      }
    }
  ],
  "buffers": [
    {
      "uri": "Hands_Wrist_XSwarowls_02_Medium.bin",
      "byteLength": 260056
    }
  ],
  "bufferViews": [
    {
      "buffer": 0,
      "byteOffset": 0,
      "byteLength": 53256,
      "target": 34962
    },
    {
      "buffer": 0,
      "byteOffset": 53256,
      "byteLength": 53256,
      "target": 34962
    },
    {
      "buffer": 0,
      "byteOffset": 106512,
      "byteLength": 35504,
      "target": 34962
    },
    {
      "buffer": 0,
      "byteOffset": 142016,
      "byteLength": 35504,
      "target": 34962
    },
    {
      "buffer": 0,
      "byteOffset": 177520,
      "byteLength": 53256,
      "target": 34962
    },
    {
      "buffer": 0,
      "byteOffset": 230776,
      "byteLength": 29280,
      "target": 34963
    }
  ],
  "accessors": [
    {
      "bufferView": 0,
      "componentType": 5126,
      "count": 4438,
      "type": "VEC3",
      "min": [
        -0.8129532337188721,
        0.976512610912323,
        0.01689484715461731
      ],
      "max": [
        0.8129532337188721,
        1.4498323202133179,
        0.34190264344215393
      ]
    },
    {
      "bufferView": 1,
      "componentType": 5126,
      "count": 4438,
      "type": "VEC3",
      "min": [
        -0.9994490146636963,
        -0.9991934299468994,
        -0.9977830648422241
      ],
      "max": [
        0.9994490146636963,
        0.9863242506980896,
        0.9983006715774536
      ]
    },
    {
      "bufferView": 2,
      "componentType": 5126,
      "count": 4438,
      "type": "VEC2",
      "min": [
        0.10712844133377075,
        0.3855840563774109
      ],
      "max": [
        0.5536214113235474,
        0.8053111433982849
      ]
    },
    {
      "bufferView": 3,
      "componentType": 5126,
      "count": 4438,
      "type": "VEC2",
      "min": [
        0.14695975184440613,
        0.1187891960144043
      ],
      "max": [
        0.9392995834350586,
        0.3755318522453308
      ]
    },
    {
      "bufferView": 4,
      "componentType": 5126,
      "count": 3328.5,
      "type": "VEC4",
      "min": [
        0,
        0,
        0,
        0
      ],
      "max": [
        1,
        1,
        1,
        1
      ]
    },
    {
      "bufferView": 5,
      "componentType": 5123,
      "count": 14640,
      "type": "SCALAR",
      "min": [
        0
      ],
      "max": [
        4437
      ]
    }
  ],
  "extras": {
    "manifest": "Hands_Wrist_XSwarowls_02_Medium.materials.json"
  }
}