{
  "asset": {
    "version": "2.0",
    "generator": "prefab-to-gltf"
  },
  "scene": 0,
  "scenes": [
    {
      "name": "Hands_Forearm_XSwarowls_02_Heavy",
      "nodes": [
        0
      ]
    }
  ],
  "nodes": [
    {
      "name": "Hands_RSwarowls_Heavy_N",
      "translation": [
        0,
        0,
        0
      ],
      "rotation": [
        0,
        0,
        0,
        1
      ],
      "scale": [
        1,
        1,
        1
      ],
      "mesh": 0
    }
  ],
  "meshes": [
    {
      "name": "Hands_RSwarowls_Heavy_N",
      "primitives": [
        {
          "attributes": {
            "POSITION": 0,
            "NORMAL": 1,
            "TEXCOORD_0": 2,
            "TEXCOORD_1": 3,
            "COLOR_0": 4
          },
          "indices": 5,
          "material": 0,
          "mode": 4
        }
      ]
    }
  ],
  "materials": [
    {
      "name": "standardSurface1",
      "pbrMetallicRoughness": {
        "baseColorFactor": [
          1,
          1,
          1,
          1
        ],
        "metallicFactor": 0,
        "roughnessFactor": 1
      },
      "doubleSided": true,
      "extras": {
        "diffuseTexture": null,
        "specularTexture": null,
        "normalMap": null
      }
    }
  ],
  "buffers": [
    {
      "uri": "Hands_Forearm_XSwarowls_02_Heavy.bin",
      "byteLength": 251688
    }
  ],
  "bufferViews": [
    {
      "buffer": 0,
      "byteOffset": 0,
      "byteLength": 51552,
      "target": 34962
    },
    {
      "buffer": 0,
      "byteOffset": 51552,
      "byteLength": 51552,
      "target": 34962
    },
    {
      "buffer": 0,
      "byteOffset": 103104,
      "byteLength": 34368,
      "target": 34962
    },
    {
      "buffer": 0,
      "byteOffset": 137472,
      "byteLength": 34368,
      "target": 34962
    },
    {
      "buffer": 0,
      "byteOffset": 171840,
      "byteLength": 51552,
      "target": 34962
    },
    {
      "buffer": 0,
      "byteOffset": 223392,
      "byteLength": 28296,
      "target": 34963
    }
  ],
  "accessors": [
    {
      "bufferView": 0,
      "componentType": 5126,
      "count": 4296,
      "type": "VEC3",
      "min": [
        -0.8123599886894226,
        0.9814912676811218,
        -0.03442629799246788
      ],
      "max": [
        0.8123599886894226,
        1.525708794593811,
        0.3378543555736542
      ]
    },
    {
      "bufferView": 1,
      "componentType": 5126,
      "count": 4296,
      "type": "VEC3",
      "min": [
        -0.9995994567871094,
        -0.9997869729995728,
        -0.9997432231903076
      ],
      "max": [
        0.9995994567871094,
        0.999527633190155,
        0.999523401260376
      ]
    },
    {
      "bufferView": 2,
      "componentType": 5126,
      "count": 4296,
      "type": "VEC2",
      "min": [
        0.038542136549949646,
        0.1408560872077942
      ],
      "max": [
        0.6491893529891968,
        0.9328572750091553
      ]
    },
    {
      "bufferView": 3,
      "componentType": 5126,
      "count": 4296,
      "type": "VEC2",
      "min": [
        0.029076194390654564,
        0.09843814373016357
      ],
      "max": [
        0.9472377896308899,
        1.00118887424469
      ]
    },
    {
      "bufferView": 4,
      "componentType": 5126,
      "count": 3222,
      "type": "VEC4",
      "min": [
        0,
        0,
        0,
        0
      ],
      "max": [
        0.9999715685844421,
        0.9999715685844421,
        0.9999715685844421,
        0.9999715685844421
      ]
    },
    {
      "bufferView": 5,
      "componentType": 5123,
      "count": 14148,
      "type": "SCALAR",
      "min": [
        0
      ],
      "max": [
        4295
      ]
    }
  ],
  "extras": {
    "manifest": "Hands_Forearm_XSwarowls_02_Heavy.materials.json"
  }
}