{
  "asset": {
    "version": "2.0",
    "generator": "prefab-to-gltf"
  },
  "scene": 0,
  "scenes": [
    {
      "name": "Chest_ShortSleeves_Starter_Fig",
      "nodes": [
        0
      ]
    }
  ],
  "nodes": [
    {
      "name": "Chest_Starter_Fig_01_N",
      "translation": [
        0,
        0,
        0
      ],
      "rotation": [
        0,
        0,
        0,
        1
      ],
      "scale": [
        1,
        1,
        1
      ],
      "mesh": 0
    }
  ],
  "meshes": [
    {
      "name": "Chest_Starter_Fig_01_N",
      "primitives": [
        {
          "attributes": {
            "POSITION": 0,
            "NORMAL": 1,
            "TEXCOORD_0": 2,
            "TEXCOORD_1": 3,
            "COLOR_0": 4
          },
          "indices": 5,
          "material": 0,
          "mode": 4
        }
      ]
    }
  ],
  "materials": [
    {
      "name": "Gradmat_Weapon",
      "pbrMetallicRoughness": {
        "baseColorFactor": [
          1,
          1,
          1,
          1
        ],
        "metallicFactor": 0,
        "roughnessFactor": 1
      },
      "doubleSided": true,
      "extras": {
        "diffuseTexture": "Character/Common/Texture/CustomGradient_Hero_Clothes.png",
        "specularTexture": null,
        "normalMap": null
      }
    }
  ],
  "buffers": [
    {
      "uri": "Chest_ShortSleeves_Starter_Fig.bin",
      "byteLength": 97630
    }
  ],
  "bufferViews": [
    {
      "buffer": 0,
      "byteOffset": 0,
      "byteLength": 19488,
      "target": 34962
    },
    {
      "buffer": 0,
      "byteOffset": 19488,
      "byteLength": 19488,
      "target": 34962
    },
    {
      "buffer": 0,
      "byteOffset": 38976,
      "byteLength": 12992,
      "target": 34962
    },
    {
      "buffer": 0,
      "byteOffset": 51968,
      "byteLength": 12992,
      "target": 34962
    },
    {
      "buffer": 0,
      "byteOffset": 64960,
      "byteLength": 19488,
      "target": 34962
    },
    {
      "buffer": 0,
      "byteOffset": 84448,
      "byteLength": 13182,
      "target": 34963
    }
  ],
  "accessors": [
    {
      "bufferView": 0,
      "componentType": 5126,
      "count": 1624,
      "type": "VEC3",
      "min": [
        -0.6669848561286926,
        1.1743311882019043,
        -0.09134802222251892
      ],
      "max": [
        0.6669848561286926,
        1.9331179857254028,
        0.22881700098514557
      ]
    },
    {
      "bufferView": 1,
      "componentType": 5126,
      "count": 1624,
      "type": "VEC3",
      "min": [
        -0.9969916939735413,
        -0.9999925494194031,
        -0.9999446272850037
      ],
      "max": [
        1,
        1,
        0.9999843239784241
      ]
    },
    {
      "bufferView": 2,
      "componentType": 5126,
      "count": 1624,
      "type": "VEC2",
      "min": [
        0.018141616135835648,
        0.17260557413101196
      ],
      "max": [
        0.32716819643974304,
        0.7564445734024048
      ]
    },
    {
      "bufferView": 3,
      "componentType": 5126,
      "count": 1624,
      "type": "VEC2",
      "min": [
        0.02961866557598114,
        0.12156856060028076
      ],
      "max": [
        0.2975339889526367,
        0.969745397567749
      ]
    },
    {
      "bufferView": 4,
      "componentType": 5126,
      "count": 1218,
      "type": "VEC4",
      "min": [
        0.3607843220233917,
        0.3607843220233917,
        0.38823530077934265,
        0.3607843220233917
      ],
      "max": [
        1,
        1,
        1,
        1
      ]
    },
    {
      "bufferView": 5,
      "componentType": 5123,
      "count": 6591,
      "type": "SCALAR",
      "min": [
        0
      ],
      "max": [
        1623
      ]
    }
  ],
  "extras": {
    "manifest": "Chest_ShortSleeves_Starter_Fig.materials.json"
  }
}