{
  "asset": {
    "version": "2.0",
    "generator": "prefab-to-gltf"
  },
  "scene": 0,
  "scenes": [
    {
      "name": "Feet_Low_Starter_Fig",
      "nodes": [
        0
      ]
    }
  ],
  "nodes": [
    {
      "name": "Feet_Starter_Fig_01_N",
      "translation": [
        0,
        0,
        0
      ],
      "rotation": [
        0,
        0,
        0,
        1
      ],
      "scale": [
        1,
        1,
        1
      ],
      "mesh": 0
    }
  ],
  "meshes": [
    {
      "name": "Feet_Starter_Fig_01_N",
      "primitives": [
        {
          "attributes": {
            "POSITION": 0,
            "NORMAL": 1,
            "TEXCOORD_0": 2,
            "TEXCOORD_1": 3,
            "COLOR_0": 4
          },
          "indices": 5,
          "material": 0,
          "mode": 4
        }
      ]
    }
  ],
  "materials": [
    {
      "name": "Gradmat_Weapon",
      "pbrMetallicRoughness": {
        "baseColorFactor": [
          1,
          1,
          1,
          1
        ],
        "metallicFactor": 0,
        "roughnessFactor": 1
      },
      "doubleSided": true,
      "extras": {
        "diffuseTexture": "Character/Common/Texture/CustomGradient_Hero_Clothes.png",
        "specularTexture": null,
        "normalMap": null
      }
    }
  ],
  "buffers": [
    {
      "uri": "Feet_Low_Starter_Fig.bin",
      "byteLength": 59192
    }
  ],
  "bufferViews": [
    {
      "buffer": 0,
      "byteOffset": 0,
      "byteLength": 12192,
      "target": 34962
    },
    {
      "buffer": 0,
      "byteOffset": 12192,
      "byteLength": 12192,
      "target": 34962
    },
    {
      "buffer": 0,
      "byteOffset": 24384,
      "byteLength": 8128,
      "target": 34962
    },
    {
      "buffer": 0,
      "byteOffset": 32512,
      "byteLength": 8128,
      "target": 34962
    },
    {
      "buffer": 0,
      "byteOffset": 40640,
      "byteLength": 12192,
      "target": 34962
    },
    {
      "buffer": 0,
      "byteOffset": 52832,
      "byteLength": 6360,
      "target": 34963
    }
  ],
  "accessors": [
    {
      "bufferView": 0,
      "componentType": 5126,
      "count": 1016,
      "type": "VEC3",
      "min": [
        -0.4149801731109619,
        -0.007517318241298199,
        -0.09744897484779358
      ],
      "max": [
        0.4149801731109619,
        0.24714675545692444,
        0.31385934352874756
      ]
    },
    {
      "bufferView": 1,
      "componentType": 5126,
      "count": 1016,
      "type": "VEC3",
      "min": [
        -0.9997454285621643,
        -1,
        -0.9996287822723389
      ],
      "max": [
        0.9997454285621643,
        0.9989684224128723,
        0.9974683523178101
      ]
    },
    {
      "bufferView": 2,
      "componentType": 5126,
      "count": 1016,
      "type": "VEC2",
      "min": [
        0.14523613452911377,
        0.41645532846450806
      ],
      "max": [
        0.43819987773895264,
        0.8154281377792358
      ]
    },
    {
      "bufferView": 3,
      "componentType": 5126,
      "count": 1016,
      "type": "VEC2",
      "min": [
        0.04323607310652733,
        0.11752068996429443
      ],
      "max": [
        0.9466296434402466,
        0.9551624059677124
      ]
    },
    {
      "bufferView": 4,
      "componentType": 5126,
      "count": 762,
      "type": "VEC4",
      "min": [
        0,
        0,
        0,
        0
      ],
      "max": [
        1,
        1,
        1,
        1
      ]
    },
    {
      "bufferView": 5,
      "componentType": 5123,
      "count": 3180,
      "type": "SCALAR",
      "min": [
        0
      ],
      "max": [
        1015
      ]
    }
  ],
  "extras": {
    "manifest": "Feet_Low_Starter_Fig.materials.json"
  }
}