{
  "asset": {
    "version": "2.0",
    "generator": "prefab-to-gltf"
  },
  "scene": 0,
  "scenes": [
    {
      "name": "Legs_Shin_Starter_Fig",
      "nodes": [
        0
      ]
    }
  ],
  "nodes": [
    {
      "name": "Legs_Starter_Fig_01_N",
      "translation": [
        0,
        0,
        0
      ],
      "rotation": [
        0,
        0,
        0,
        1
      ],
      "scale": [
        1,
        1,
        1
      ],
      "mesh": 0
    }
  ],
  "meshes": [
    {
      "name": "Legs_Starter_Fig_01_N",
      "primitives": [
        {
          "attributes": {
            "POSITION": 0,
            "NORMAL": 1,
            "TEXCOORD_0": 2,
            "TEXCOORD_1": 3
          },
          "indices": 4,
          "material": 0,
          "mode": 4
        }
      ]
    }
  ],
  "materials": [
    {
      "name": "Gradmat_Weapon",
      "pbrMetallicRoughness": {
        "baseColorFactor": [
          1,
          1,
          1,
          1
        ],
        "metallicFactor": 0,
        "roughnessFactor": 1
      },
      "doubleSided": true,
      "extras": {
        "diffuseTexture": "Character/Common/Texture/CustomGradient_WeaponALL.png",
        "specularTexture": null,
        "normalMap": null
      }
    }
  ],
  "buffers": [
    {
      "uri": "Legs_Shin_Starter_Fig.bin",
      "byteLength": 63760
    }
  ],
  "bufferViews": [
    {
      "buffer": 0,
      "byteOffset": 0,
      "byteLength": 16788,
      "target": 34962
    },
    {
      "buffer": 0,
      "byteOffset": 16788,
      "byteLength": 16788,
      "target": 34962
    },
    {
      "buffer": 0,
      "byteOffset": 33576,
      "byteLength": 11192,
      "target": 34962
    },
    {
      "buffer": 0,
      "byteOffset": 44768,
      "byteLength": 11192,
      "target": 34962
    },
    {
      "buffer": 0,
      "byteOffset": 55960,
      "byteLength": 7800,
      "target": 34963
    }
  ],
  "accessors": [
    {
      "bufferView": 0,
      "componentType": 5126,
      "count": 1399,
      "type": "VEC3",
      "min": [
        -0.3711501955986023,
        0.0851835310459137,
        -0.09081146866083145
      ],
      "max": [
        0.3711501955986023,
        1.277111291885376,
        0.23113098740577698
      ]
    },
    {
      "bufferView": 1,
      "componentType": 5126,
      "count": 1399,
      "type": "VEC3",
      "min": [
        -0.9998695850372314,
        -0.9988210201263428,
        -0.9989344477653503
      ],
      "max": [
        0.9998696446418762,
        0.8854933977127075,
        0.9999879598617554
      ]
    },
    {
      "bufferView": 2,
      "componentType": 5126,
      "count": 1399,
      "type": "VEC2",
      "min": [
        0.039900586009025574,
        0.21469855308532715
      ],
      "max": [
        0.2396521270275116,
        0.758359968662262
      ]
    },
    {
      "bufferView": 3,
      "componentType": 5126,
      "count": 1399,
      "type": "VEC2",
      "min": [
        0.03480283170938492,
        0.11603045463562012
      ],
      "max": [
        0.457166463136673,
        0.969745397567749
      ]
    },
    {
      "bufferView": 4,
      "componentType": 5123,
      "count": 3900,
      "type": "SCALAR",
      "min": [
        0
      ],
      "max": [
        1398
      ]
    }
  ],
  "extras": {
    "manifest": "Legs_Shin_Starter_Fig.materials.json"
  }
}