{
  "asset": {
    "version": "2.0",
    "generator": "prefab-to-gltf"
  },
  "scene": 0,
  "scenes": [
    {
      "name": "CrimsonCaster01_F",
      "nodes": [
        0
      ]
    }
  ],
  "nodes": [
    {
      "name": "CrimsonCaster_F",
      "translation": [
        0,
        0,
        0
      ],
      "rotation": [
        0,
        0,
        0,
        1
      ],
      "scale": [
        1,
        1,
        1
      ],
      "mesh": 0
    }
  ],
  "meshes": [
    {
      "name": "CrimsonCaster_F",
      "primitives": [
        {
          "attributes": {
            "POSITION": 0,
            "NORMAL": 1,
            "TEXCOORD_0": 2,
            "TEXCOORD_1": 3,
            "COLOR_0": 4
          },
          "indices": 5,
          "material": 0,
          "mode": 4
        }
      ]
    }
  ],
  "materials": [
    {
      "name": "GradMat_Body1",
      "pbrMetallicRoughness": {
        "baseColorFactor": [
          1,
          1,
          1,
          1
        ],
        "metallicFactor": 0,
        "roughnessFactor": 1
      },
      "doubleSided": true,
      "extras": {
        "diffuseTexture": "Character/Common/Texture/CustomGradient_RobinHoof.png",
        "specularTexture": null,
        "normalMap": null
      }
    }
  ],
  "buffers": [
    {
      "uri": "CrimsonCaster01_F.bin",
      "byteLength": 853604
    }
  ],
  "bufferViews": [
    {
      "buffer": 0,
      "byteOffset": 0,
      "byteLength": 174372,
      "target": 34962
    },
    {
      "buffer": 0,
      "byteOffset": 174372,
      "byteLength": 174372,
      "target": 34962
    },
    {
      "buffer": 0,
      "byteOffset": 348744,
      "byteLength": 116248,
      "target": 34962
    },
    {
      "buffer": 0,
      "byteOffset": 464992,
      "byteLength": 116248,
      "target": 34962
    },
    {
      "buffer": 0,
      "byteOffset": 581240,
      "byteLength": 174372,
      "target": 34962
    },
    {
      "buffer": 0,
      "byteOffset": 755612,
      "byteLength": 97992,
      "target": 34963
    }
  ],
  "accessors": [
    {
      "bufferView": 0,
      "componentType": 5126,
      "count": 14531,
      "type": "VEC3",
      "min": [
        -0.8111740350723267,
        -0.0062953270971775055,
        -0.29671579599380493
      ],
      "max": [
        0.8111741542816162,
        2.198969841003418,
        0.37906333804130554
      ]
    },
    {
      "bufferView": 1,
      "componentType": 5126,
      "count": 14531,
      "type": "VEC3",
      "min": [
        -0.9999030232429504,
        -0.9999907612800598,
        -0.9995542764663696
      ],
      "max": [
        0.99990314245224,
        0.9999890923500061,
        1
      ]
    },
    {
      "bufferView": 2,
      "componentType": 5126,
      "count": 14531,
      "type": "VEC2",
      "min": [
        0.013928890228271484,
        0.1237151026725769
      ],
      "max": [
        0.977541446685791,
        0.9630193710327148
      ]
    },
    {
      "bufferView": 3,
      "componentType": 5126,
      "count": 14531,
      "type": "VEC2",
      "min": [
        0,
        0.02668595314025879
      ],
      "max": [
        0.9488562345504761,
        1
      ]
    },
    {
      "bufferView": 4,
      "componentType": 5126,
      "count": 10898.25,
      "type": "VEC4",
      "min": [
        0,
        0,
        0,
        0
      ],
      "max": [
        1,
        1,
        1,
        1
      ]
    },
    {
      "bufferView": 5,
      "componentType": 5123,
      "count": 48996,
      "type": "SCALAR",
      "min": [
        0
      ],
      "max": [
        14530
      ]
    }
  ],
  "extras": {
    "manifest": "CrimsonCaster01_F.materials.json"
  }
}