{
  "asset": {
    "version": "2.0",
    "generator": "prefab-to-gltf"
  },
  "scene": 0,
  "scenes": [
    {
      "name": "CrimsonRogue_N",
      "nodes": [
        0
      ]
    }
  ],
  "nodes": [
    {
      "name": "CrimsonRogue_N",
      "translation": [
        0,
        0,
        0
      ],
      "rotation": [
        0,
        0,
        0,
        1
      ],
      "scale": [
        1,
        1,
        1
      ],
      "mesh": 0
    }
  ],
  "meshes": [
    {
      "name": "CrimsonRogue_N",
      "primitives": [
        {
          "attributes": {
            "POSITION": 0,
            "NORMAL": 1,
            "TEXCOORD_0": 2,
            "TEXCOORD_1": 3
          },
          "indices": 4,
          "material": 0,
          "mode": 4
        }
      ]
    }
  ],
  "materials": [
    {
      "name": "GradMat_Body",
      "pbrMetallicRoughness": {
        "baseColorFactor": [
          1,
          1,
          1,
          1
        ],
        "metallicFactor": 0,
        "roughnessFactor": 1
      },
      "doubleSided": true,
      "extras": {
        "diffuseTexture": "Character/Common/Texture/CustomGradient_RobinHoof.png",
        "specularTexture": null,
        "normalMap": null
      }
    }
  ],
  "buffers": [
    {
      "uri": "CrimsonRogue_N.bin",
      "byteLength": 533222
    }
  ],
  "bufferViews": [
    {
      "buffer": 0,
      "byteOffset": 0,
      "byteLength": 135456,
      "target": 34962
    },
    {
      "buffer": 0,
      "byteOffset": 135456,
      "byteLength": 135456,
      "target": 34962
    },
    {
      "buffer": 0,
      "byteOffset": 270912,
      "byteLength": 90304,
      "target": 34962
    },
    {
      "buffer": 0,
      "byteOffset": 361216,
      "byteLength": 90304,
      "target": 34962
    },
    {
      "buffer": 0,
      "byteOffset": 451520,
      "byteLength": 81702,
      "target": 34963
    }
  ],
  "accessors": [
    {
      "bufferView": 0,
      "componentType": 5126,
      "count": 11288,
      "type": "VEC3",
      "min": [
        -0.8123599886894226,
        -0.007538835518062115,
        -0.18543216586112976
      ],
      "max": [
        0.8123600482940674,
        2.305943012237549,
        0.36667659878730774
      ]
    },
    {
      "bufferView": 1,
      "componentType": 5126,
      "count": 11288,
      "type": "VEC3",
      "min": [
        -0.9999768137931824,
        -1,
        -0.9999123215675354
      ],
      "max": [
        0.9999768137931824,
        0.9998944401741028,
        0.999924898147583
      ]
    },
    {
      "bufferView": 2,
      "componentType": 5126,
      "count": 11288,
      "type": "VEC2",
      "min": [
        0.019752137362957,
        0.1708052158355713
      ],
      "max": [
        0.4536284804344177,
        0.9702844619750977
      ]
    },
    {
      "bufferView": 3,
      "componentType": 5126,
      "count": 11288,
      "type": "VEC2",
      "min": [
        0.02313564345240593,
        0.02668595314025879
      ],
      "max": [
        0.9497080445289612,
        0.9846357703208923
      ]
    },
    {
      "bufferView": 4,
      "componentType": 5123,
      "count": 40851,
      "type": "SCALAR",
      "min": [
        0
      ],
      "max": [
        11287
      ]
    }
  ],
  "extras": {
    "manifest": "CrimsonRogue_N.materials.json"
  }
}