{
  "asset": {
    "version": "2.0",
    "generator": "prefab-to-gltf"
  },
  "scene": 0,
  "scenes": [
    {
      "name": "CrimsonRogue_F",
      "nodes": [
        0
      ]
    }
  ],
  "nodes": [
    {
      "name": "CrimsonRogue_F",
      "translation": [
        0,
        0,
        0
      ],
      "rotation": [
        0,
        0,
        0,
        1
      ],
      "scale": [
        1,
        1,
        1
      ],
      "mesh": 0
    }
  ],
  "meshes": [
    {
      "name": "CrimsonRogue_F",
      "primitives": [
        {
          "attributes": {
            "POSITION": 0,
            "NORMAL": 1,
            "TEXCOORD_0": 2,
            "TEXCOORD_1": 3,
            "COLOR_0": 4
          },
          "indices": 5,
          "material": 0,
          "mode": 4
        }
      ]
    }
  ],
  "materials": [
    {
      "name": "GradMat_Body",
      "pbrMetallicRoughness": {
        "baseColorFactor": [
          1,
          1,
          1,
          1
        ],
        "metallicFactor": 0,
        "roughnessFactor": 1
      },
      "doubleSided": true,
      "extras": {
        "diffuseTexture": "Character/Common/Texture/CustomGradient_RobinHoof.png",
        "specularTexture": null,
        "normalMap": null
      }
    }
  ],
  "buffers": [
    {
      "uri": "CrimsonRogue_F.bin",
      "byteLength": 798292
    }
  ],
  "bufferViews": [
    {
      "buffer": 0,
      "byteOffset": 0,
      "byteLength": 162372,
      "target": 34962
    },
    {
      "buffer": 0,
      "byteOffset": 162372,
      "byteLength": 162372,
      "target": 34962
    },
    {
      "buffer": 0,
      "byteOffset": 324744,
      "byteLength": 108248,
      "target": 34962
    },
    {
      "buffer": 0,
      "byteOffset": 432992,
      "byteLength": 108248,
      "target": 34962
    },
    {
      "buffer": 0,
      "byteOffset": 541240,
      "byteLength": 162372,
      "target": 34962
    },
    {
      "buffer": 0,
      "byteOffset": 703612,
      "byteLength": 94680,
      "target": 34963
    }
  ],
  "accessors": [
    {
      "bufferView": 0,
      "componentType": 5126,
      "count": 13531,
      "type": "VEC3",
      "min": [
        -0.008123599924147129,
        -0.0036667659878730774,
        -0.00006272095924941823
      ],
      "max": [
        0.008123599924147129,
        0.0018543216865509748,
        0.023059429600834846
      ]
    },
    {
      "bufferView": 1,
      "componentType": 5126,
      "count": 13531,
      "type": "VEC3",
      "min": [
        -0.999857485294342,
        -1,
        -0.9999897480010986
      ],
      "max": [
        0.999857485294342,
        0.9999477863311768,
        0.9999772310256958
      ]
    },
    {
      "bufferView": 2,
      "componentType": 5126,
      "count": 13531,
      "type": "VEC2",
      "min": [
        0.018757671117782593,
        0.13675230741500854
      ],
      "max": [
        0.8031580448150635,
        0.9902083873748779
      ]
    },
    {
      "bufferView": 3,
      "componentType": 5126,
      "count": 13531,
      "type": "VEC2",
      "min": [
        0.04465862363576889,
        0.02668595314025879
      ],
      "max": [
        0.9497080445289612,
        0.983092188835144
      ]
    },
    {
      "bufferView": 4,
      "componentType": 5126,
      "count": 10148.25,
      "type": "VEC4",
      "min": [
        0.3607843220233917,
        0.3607843220233917,
        0.3607843220233917,
        0.38823530077934265
      ],
      "max": [
        1,
        1,
        1,
        1
      ]
    },
    {
      "bufferView": 5,
      "componentType": 5123,
      "count": 47340,
      "type": "SCALAR",
      "min": [
        0
      ],
      "max": [
        13530
      ]
    }
  ],
  "extras": {
    "manifest": "CrimsonRogue_F.materials.json"
  }
}