{
  "asset": {
    "version": "2.0",
    "generator": "prefab-to-gltf"
  },
  "scene": 0,
  "scenes": [
    {
      "name": "CrimsonCaster02_N",
      "nodes": [
        0
      ]
    }
  ],
  "nodes": [
    {
      "name": "CrimsonCaster_N",
      "translation": [
        0,
        0,
        0
      ],
      "rotation": [
        0,
        0,
        0,
        1
      ],
      "scale": [
        1,
        1,
        1
      ],
      "mesh": 0
    }
  ],
  "meshes": [
    {
      "name": "CrimsonCaster_N",
      "primitives": [
        {
          "attributes": {
            "POSITION": 0,
            "NORMAL": 1,
            "TEXCOORD_0": 2,
            "TEXCOORD_1": 3
          },
          "indices": 4,
          "material": 0,
          "mode": 4
        }
      ]
    }
  ],
  "materials": [
    {
      "name": "GradMat_Body",
      "pbrMetallicRoughness": {
        "baseColorFactor": [
          1,
          1,
          1,
          1
        ],
        "metallicFactor": 0,
        "roughnessFactor": 1
      },
      "doubleSided": true,
      "extras": {
        "diffuseTexture": "Character/Common/Texture/CustomGradient_RobinHoof.png",
        "specularTexture": null,
        "normalMap": null
      }
    }
  ],
  "buffers": [
    {
      "uri": "CrimsonCaster02_N.bin",
      "byteLength": 581140
    }
  ],
  "bufferViews": [
    {
      "buffer": 0,
      "byteOffset": 0,
      "byteLength": 149880,
      "target": 34962
    },
    {
      "buffer": 0,
      "byteOffset": 149880,
      "byteLength": 149880,
      "target": 34962
    },
    {
      "buffer": 0,
      "byteOffset": 299760,
      "byteLength": 99920,
      "target": 34962
    },
    {
      "buffer": 0,
      "byteOffset": 399680,
      "byteLength": 99920,
      "target": 34962
    },
    {
      "buffer": 0,
      "byteOffset": 499600,
      "byteLength": 81540,
      "target": 34963
    }
  ],
  "accessors": [
    {
      "bufferView": 0,
      "componentType": 5126,
      "count": 12490,
      "type": "VEC3",
      "min": [
        -0.8111740350723267,
        -0.007517307996749878,
        -0.2752951383590698
      ],
      "max": [
        0.8111740946769714,
        2.198969841003418,
        0.37906333804130554
      ]
    },
    {
      "bufferView": 1,
      "componentType": 5126,
      "count": 12490,
      "type": "VEC3",
      "min": [
        -0.9997619986534119,
        -1,
        -0.9999114274978638
      ],
      "max": [
        0.9997619986534119,
        0.9999669790267944,
        0.9999249577522278
      ]
    },
    {
      "bufferView": 2,
      "componentType": 5126,
      "count": 12490,
      "type": "VEC2",
      "min": [
        0.017670437693595886,
        0.12857449054718018
      ],
      "max": [
        0.9702849388122559,
        0.948118269443512
      ]
    },
    {
      "bufferView": 3,
      "componentType": 5126,
      "count": 12490,
      "type": "VEC2",
      "min": [
        0,
        0.02668595314025879
      ],
      "max": [
        0.9488562345504761,
        1
      ]
    },
    {
      "bufferView": 4,
      "componentType": 5123,
      "count": 40770,
      "type": "SCALAR",
      "min": [
        0
      ],
      "max": [
        12489
      ]
    }
  ],
  "extras": {
    "manifest": "CrimsonCaster02_N.materials.json"
  }
}