{
  "asset": {
    "version": "2.0",
    "generator": "prefab-to-gltf"
  },
  "scene": 0,
  "scenes": [
    {
      "name": "CrimsonCaster01_M",
      "nodes": [
        0
      ]
    }
  ],
  "nodes": [
    {
      "name": "CrimsonCaster_M",
      "translation": [
        0,
        0,
        0
      ],
      "rotation": [
        0,
        0,
        0,
        1
      ],
      "scale": [
        1,
        1,
        1
      ],
      "mesh": 0
    }
  ],
  "meshes": [
    {
      "name": "CrimsonCaster_M",
      "primitives": [
        {
          "attributes": {
            "POSITION": 0,
            "NORMAL": 1,
            "TEXCOORD_0": 2,
            "TEXCOORD_1": 3,
            "COLOR_0": 4
          },
          "indices": 5,
          "material": 0,
          "mode": 4
        }
      ]
    }
  ],
  "materials": [
    {
      "name": "GradMat_Body1",
      "pbrMetallicRoughness": {
        "baseColorFactor": [
          1,
          1,
          1,
          1
        ],
        "metallicFactor": 0,
        "roughnessFactor": 1
      },
      "doubleSided": true,
      "extras": {
        "diffuseTexture": "Character/Common/Texture/CustomGradient_RobinHoof.png",
        "specularTexture": null,
        "normalMap": null
      }
    }
  ],
  "buffers": [
    {
      "uri": "CrimsonCaster01_M.bin",
      "byteLength": 826348
    }
  ],
  "bufferViews": [
    {
      "buffer": 0,
      "byteOffset": 0,
      "byteLength": 169608,
      "target": 34962
    },
    {
      "buffer": 0,
      "byteOffset": 169608,
      "byteLength": 169608,
      "target": 34962
    },
    {
      "buffer": 0,
      "byteOffset": 339216,
      "byteLength": 113072,
      "target": 34962
    },
    {
      "buffer": 0,
      "byteOffset": 452288,
      "byteLength": 113072,
      "target": 34962
    },
    {
      "buffer": 0,
      "byteOffset": 565360,
      "byteLength": 169608,
      "target": 34962
    },
    {
      "buffer": 0,
      "byteOffset": 734968,
      "byteLength": 91380,
      "target": 34963
    }
  ],
  "accessors": [
    {
      "bufferView": 0,
      "componentType": 5126,
      "count": 14134,
      "type": "VEC3",
      "min": [
        -0.00811174139380455,
        -0.0037906330544501543,
        -0.00009223513188771904
      ],
      "max": [
        0.00811174139380455,
        0.0027529513463377953,
        0.021989697590470314
      ]
    },
    {
      "bufferView": 1,
      "componentType": 5126,
      "count": 14134,
      "type": "VEC3",
      "min": [
        -0.9999009370803833,
        -1,
        -0.9999921321868896
      ],
      "max": [
        0.9999009966850281,
        0.999683141708374,
        0.9999778270721436
      ]
    },
    {
      "bufferView": 2,
      "componentType": 5126,
      "count": 14134,
      "type": "VEC2",
      "min": [
        0.012854199856519699,
        0.12185114622116089
      ],
      "max": [
        0.977541446685791,
        0.9598420262336731
      ]
    },
    {
      "bufferView": 3,
      "componentType": 5126,
      "count": 14134,
      "type": "VEC2",
      "min": [
        0,
        0.02668595314025879
      ],
      "max": [
        0.9488562345504761,
        1
      ]
    },
    {
      "bufferView": 4,
      "componentType": 5126,
      "count": 10600.5,
      "type": "VEC4",
      "min": [
        0,
        0,
        0,
        0
      ],
      "max": [
        0.9999715685844421,
        0.9999715685844421,
        0.9999715685844421,
        0.9999715685844421
      ]
    },
    {
      "bufferView": 5,
      "componentType": 5123,
      "count": 45690,
      "type": "SCALAR",
      "min": [
        0
      ],
      "max": [
        14133
      ]
    }
  ],
  "extras": {
    "manifest": "CrimsonCaster01_M.materials.json"
  }
}