{
  "asset": {
    "version": "2.0",
    "generator": "prefab-to-gltf"
  },
  "scene": 0,
  "scenes": [
    {
      "name": "CrimsonRogue_M",
      "nodes": [
        0
      ]
    }
  ],
  "nodes": [
    {
      "name": "CrimsonRogue_M",
      "translation": [
        0,
        0,
        0
      ],
      "rotation": [
        0,
        0,
        0,
        1
      ],
      "scale": [
        1,
        1,
        1
      ],
      "mesh": 0
    }
  ],
  "meshes": [
    {
      "name": "CrimsonRogue_M",
      "primitives": [
        {
          "attributes": {
            "POSITION": 0,
            "NORMAL": 1,
            "TEXCOORD_0": 2,
            "TEXCOORD_1": 3,
            "COLOR_0": 4
          },
          "indices": 5,
          "material": 0,
          "mode": 4
        }
      ]
    }
  ],
  "materials": [
    {
      "name": "GradMat_Body",
      "pbrMetallicRoughness": {
        "baseColorFactor": [
          1,
          1,
          1,
          1
        ],
        "metallicFactor": 0,
        "roughnessFactor": 1
      },
      "doubleSided": true,
      "extras": {
        "diffuseTexture": "Character/Common/Texture/CustomGradient_RobinHoof.png",
        "specularTexture": null,
        "normalMap": null
      }
    }
  ],
  "buffers": [
    {
      "uri": "CrimsonRogue_M.bin",
      "byteLength": 821750
    }
  ],
  "bufferViews": [
    {
      "buffer": 0,
      "byteOffset": 0,
      "byteLength": 167496,
      "target": 34962
    },
    {
      "buffer": 0,
      "byteOffset": 167496,
      "byteLength": 167496,
      "target": 34962
    },
    {
      "buffer": 0,
      "byteOffset": 334992,
      "byteLength": 111664,
      "target": 34962
    },
    {
      "buffer": 0,
      "byteOffset": 446656,
      "byteLength": 111664,
      "target": 34962
    },
    {
      "buffer": 0,
      "byteOffset": 558320,
      "byteLength": 167496,
      "target": 34962
    },
    {
      "buffer": 0,
      "byteOffset": 725816,
      "byteLength": 95934,
      "target": 34963
    }
  ],
  "accessors": [
    {
      "bufferView": 0,
      "componentType": 5126,
      "count": 13958,
      "type": "VEC3",
      "min": [
        -0.008128992281854153,
        -0.0036667659878730774,
        -0.00009219532512361184
      ],
      "max": [
        0.008128992281854153,
        0.0018543216865509748,
        0.023059429600834846
      ]
    },
    {
      "bufferView": 1,
      "componentType": 5126,
      "count": 13958,
      "type": "VEC3",
      "min": [
        -0.9998736381530762,
        -1,
        -0.999976634979248
      ],
      "max": [
        0.9998737573623657,
        0.9998750686645508,
        0.9999862313270569
      ]
    },
    {
      "bufferView": 2,
      "componentType": 5126,
      "count": 13958,
      "type": "VEC2",
      "min": [
        0.02335084229707718,
        0.1053159236907959
      ],
      "max": [
        0.7088053822517395,
        1.0060627460479736
      ]
    },
    {
      "bufferView": 3,
      "componentType": 5126,
      "count": 13958,
      "type": "VEC2",
      "min": [
        0.04339953139424324,
        0.018954575061798096
      ],
      "max": [
        0.9497080445289612,
        0.964173436164856
      ]
    },
    {
      "bufferView": 4,
      "componentType": 5126,
      "count": 10468.5,
      "type": "VEC4",
      "min": [
        0,
        0,
        0,
        0
      ],
      "max": [
        0.9999715685844421,
        0.9999715685844421,
        0.9999715685844421,
        0.9999715685844421
      ]
    },
    {
      "bufferView": 5,
      "componentType": 5123,
      "count": 47967,
      "type": "SCALAR",
      "min": [
        0
      ],
      "max": [
        13957
      ]
    }
  ],
  "extras": {
    "manifest": "CrimsonRogue_M.materials.json"
  }
}