{
  "asset": {
    "version": "2.0",
    "generator": "prefab-to-gltf"
  },
  "scene": 0,
  "scenes": [
    {
      "name": "Crawler_Ladybug_Red",
      "nodes": [
        0
      ]
    }
  ],
  "nodes": [
    {
      "name": "Ladybug",
      "translation": [
        0,
        0,
        0
      ],
      "rotation": [
        0,
        0,
        0,
        1
      ],
      "scale": [
        1,
        1,
        1
      ],
      "mesh": 0
    }
  ],
  "meshes": [
    {
      "name": "Ladybug",
      "primitives": [
        {
          "attributes": {
            "POSITION": 0,
            "NORMAL": 1,
            "TEXCOORD_0": 2,
            "TEXCOORD_1": 3
          },
          "indices": 4,
          "material": 0,
          "mode": 4
        },
        {
          "attributes": {
            "POSITION": 5,
            "NORMAL": 6,
            "TEXCOORD_0": 7,
            "TEXCOORD_1": 8
          },
          "indices": 9,
          "material": 1,
          "mode": 4
        },
        {
          "attributes": {
            "POSITION": 10,
            "NORMAL": 11,
            "TEXCOORD_0": 12,
            "TEXCOORD_1": 13
          },
          "indices": 14,
          "material": 2,
          "mode": 4
        }
      ]
    }
  ],
  "materials": [
    {
      "name": "MatSlots",
      "pbrMetallicRoughness": {
        "baseColorFactor": [
          1,
          1,
          1,
          1
        ],
        "metallicFactor": 0,
        "roughnessFactor": 1
      },
      "doubleSided": true,
      "extras": {
        "diffuseTexture": "Character/Common/Texture/CustomGradient_WeaponALL.png",
        "specularTexture": null,
        "normalMap": null
      }
    },
    {
      "name": "Eyes_Fresnel1",
      "pbrMetallicRoughness": {
        "baseColorFactor": [
          1,
          1,
          1,
          1
        ],
        "metallicFactor": 0,
        "roughnessFactor": 1
      },
      "doubleSided": true,
      "extras": {
        "diffuseTexture": null,
        "specularTexture": null,
        "normalMap": null
      }
    },
    {
      "name": "Eyes1",
      "pbrMetallicRoughness": {
        "baseColorFactor": [
          1,
          1,
          1,
          1
        ],
        "metallicFactor": 0,
        "roughnessFactor": 1
      },
      "doubleSided": true,
      "extras": {
        "diffuseTexture": null,
        "specularTexture": null,
        "normalMap": null
      }
    }
  ],
  "buffers": [
    {
      "uri": "Crawler_Ladybug_Red.bin",
      "byteLength": 1598772
    }
  ],
  "bufferViews": [
    {
      "buffer": 0,
      "byteOffset": 0,
      "byteLength": 150384,
      "target": 34962
    },
    {
      "buffer": 0,
      "byteOffset": 150384,
      "byteLength": 150384,
      "target": 34962
    },
    {
      "buffer": 0,
      "byteOffset": 300768,
      "byteLength": 100256,
      "target": 34962
    },
    {
      "buffer": 0,
      "byteOffset": 401024,
      "byteLength": 100256,
      "target": 34962
    },
    {
      "buffer": 0,
      "byteOffset": 501280,
      "byteLength": 92820,
      "target": 34963
    },
    {
      "buffer": 0,
      "byteOffset": 594100,
      "byteLength": 150384,
      "target": 34962
    },
    {
      "buffer": 0,
      "byteOffset": 744484,
      "byteLength": 150384,
      "target": 34962
    },
    {
      "buffer": 0,
      "byteOffset": 894868,
      "byteLength": 100256,
      "target": 34962
    },
    {
      "buffer": 0,
      "byteOffset": 995124,
      "byteLength": 100256,
      "target": 34962
    },
    {
      "buffer": 0,
      "byteOffset": 1095380,
      "byteLength": 1056,
      "target": 34963
    },
    {
      "buffer": 0,
      "byteOffset": 1096436,
      "byteLength": 150384,
      "target": 34962
    },
    {
      "buffer": 0,
      "byteOffset": 1246820,
      "byteLength": 150384,
      "target": 34962
    },
    {
      "buffer": 0,
      "byteOffset": 1397204,
      "byteLength": 100256,
      "target": 34962
    },
    {
      "buffer": 0,
      "byteOffset": 1497460,
      "byteLength": 100256,
      "target": 34962
    },
    {
      "buffer": 0,
      "byteOffset": 1597716,
      "byteLength": 1056,
      "target": 34963
    }
  ],
  "accessors": [
    {
      "bufferView": 0,
      "componentType": 5126,
      "count": 12532,
      "type": "VEC3",
      "min": [
        -0.011160735040903091,
        -0.010738725773990154,
        -0.0000026976549634127878
      ],
      "max": [
        0.011160735040903091,
        0.014788998290896416,
        0.020445406436920166
      ]
    },
    {
      "bufferView": 1,
      "componentType": 5126,
      "count": 12532,
      "type": "VEC3",
      "min": [
        -1,
        -0.999991238117218,
        -0.999998927116394
      ],
      "max": [
        1,
        0.9999996423721313,
        0.9999839067459106
      ]
    },
    {
      "bufferView": 2,
      "componentType": 5126,
      "count": 12532,
      "type": "VEC2",
      "min": [
        0.021826226264238358,
        0.070595383644104
      ],
      "max": [
        0.9563004970550537,
        1.0041873455047607
      ]
    },
    {
      "bufferView": 3,
      "componentType": 5126,
      "count": 12532,
      "type": "VEC2",
      "min": [
        0,
        0.070595383644104
      ],
      "max": [
        0.9411094188690186,
        1
      ]
    },
    {
      "bufferView": 4,
      "componentType": 5123,
      "count": 46410,
      "type": "SCALAR",
      "min": [
        0
      ],
      "max": [
        12319
      ]
    },
    {
      "bufferView": 5,
      "componentType": 5126,
      "count": 12532,
      "type": "VEC3",
      "min": [
        -0.011160735040903091,
        -0.010738725773990154,
        -0.0000026976549634127878
      ],
      "max": [
        0.011160735040903091,
        0.014788998290896416,
        0.020445406436920166
      ]
    },
    {
      "bufferView": 6,
      "componentType": 5126,
      "count": 12532,
      "type": "VEC3",
      "min": [
        -1,
        -0.999991238117218,
        -0.999998927116394
      ],
      "max": [
        1,
        0.9999996423721313,
        0.9999839067459106
      ]
    },
    {
      "bufferView": 7,
      "componentType": 5126,
      "count": 12532,
      "type": "VEC2",
      "min": [
        0.021826226264238358,
        0.070595383644104
      ],
      "max": [
        0.9563004970550537,
        1.0041873455047607
      ]
    },
    {
      "bufferView": 8,
      "componentType": 5126,
      "count": 12532,
      "type": "VEC2",
      "min": [
        0,
        0.070595383644104
      ],
      "max": [
        0.9411094188690186,
        1
      ]
    },
    {
      "bufferView": 9,
      "componentType": 5123,
      "count": 528,
      "type": "SCALAR",
      "min": [
        0
      ],
      "max": [
        12425
      ]
    },
    {
      "bufferView": 10,
      "componentType": 5126,
      "count": 12532,
      "type": "VEC3",
      "min": [
        -0.011160735040903091,
        -0.010738725773990154,
        -0.0000026976549634127878
      ],
      "max": [
        0.011160735040903091,
        0.014788998290896416,
        0.020445406436920166
      ]
    },
    {
      "bufferView": 11,
      "componentType": 5126,
      "count": 12532,
      "type": "VEC3",
      "min": [
        -1,
        -0.999991238117218,
        -0.999998927116394
      ],
      "max": [
        1,
        0.9999996423721313,
        0.9999839067459106
      ]
    },
    {
      "bufferView": 12,
      "componentType": 5126,
      "count": 12532,
      "type": "VEC2",
      "min": [
        0.021826226264238358,
        0.070595383644104
      ],
      "max": [
        0.9563004970550537,
        1.0041873455047607
      ]
    },
    {
      "bufferView": 13,
      "componentType": 5126,
      "count": 12532,
      "type": "VEC2",
      "min": [
        0,
        0.070595383644104
      ],
      "max": [
        0.9411094188690186,
        1
      ]
    },
    {
      "bufferView": 14,
      "componentType": 5123,
      "count": 528,
      "type": "SCALAR",
      "min": [
        0
      ],
      "max": [
        12531
      ]
    }
  ],
  "extras": {
    "manifest": "Crawler_Ladybug_Red.materials.json"
  }
}