{
  "asset": {
    "version": "2.0",
    "generator": "prefab-to-gltf"
  },
  "scene": 0,
  "scenes": [
    {
      "name": "Back_Long_XKobold_01_Light",
      "nodes": [
        0
      ]
    }
  ],
  "nodes": [
    {
      "name": "Back_Z1RKobold_Light_N",
      "translation": [
        0,
        0,
        0
      ],
      "rotation": [
        0,
        0,
        0,
        1
      ],
      "scale": [
        1,
        1,
        1
      ],
      "mesh": 0
    }
  ],
  "meshes": [
    {
      "name": "Back_Z1RKobold_Light_N",
      "primitives": [
        {
          "attributes": {
            "POSITION": 0,
            "NORMAL": 1,
            "TEXCOORD_0": 2,
            "TEXCOORD_1": 3,
            "COLOR_0": 4
          },
          "indices": 5,
          "material": 0,
          "mode": 4
        }
      ]
    }
  ],
  "materials": [
    {
      "name": "GradMat_Body",
      "pbrMetallicRoughness": {
        "baseColorFactor": [
          1,
          1,
          1,
          1
        ],
        "metallicFactor": 0,
        "roughnessFactor": 1
      },
      "doubleSided": true,
      "extras": {
        "diffuseTexture": "Character/Common/Texture/CustomGradient_Hero_Clothes.png",
        "specularTexture": null,
        "normalMap": null
      }
    }
  ],
  "buffers": [
    {
      "uri": "Back_Long_XKobold_01_Light.bin",
      "byteLength": 135584
    }
  ],
  "bufferViews": [
    {
      "buffer": 0,
      "byteOffset": 0,
      "byteLength": 28500,
      "target": 34962
    },
    {
      "buffer": 0,
      "byteOffset": 28500,
      "byteLength": 28500,
      "target": 34962
    },
    {
      "buffer": 0,
      "byteOffset": 57000,
      "byteLength": 19000,
      "target": 34962
    },
    {
      "buffer": 0,
      "byteOffset": 76000,
      "byteLength": 19000,
      "target": 34962
    },
    {
      "buffer": 0,
      "byteOffset": 95000,
      "byteLength": 28500,
      "target": 34962
    },
    {
      "buffer": 0,
      "byteOffset": 123500,
      "byteLength": 12084,
      "target": 34963
    }
  ],
  "accessors": [
    {
      "bufferView": 0,
      "componentType": 5126,
      "count": 2375,
      "type": "VEC3",
      "min": [
        -0.477783203125,
        0.546875,
        -0.250244140625
      ],
      "max": [
        0.477783203125,
        1.8115234375,
        0.1142578125
      ]
    },
    {
      "bufferView": 1,
      "componentType": 5126,
      "count": 2375,
      "type": "VEC3",
      "min": [
        -0.49411764705882355,
        -0.5019607843137255,
        -0.5019607843137255
      ],
      "max": [
        1,
        1,
        1
      ]
    },
    {
      "bufferView": 2,
      "componentType": 5126,
      "count": 2375,
      "type": "VEC2",
      "min": [
        0.152587890625,
        0.1746826171875
      ],
      "max": [
        0.57958984375,
        0.90625
      ]
    },
    {
      "bufferView": 3,
      "componentType": 5126,
      "count": 2375,
      "type": "VEC2",
      "min": [
        0.046295166015625,
        0.11859130859375
      ],
      "max": [
        0.94775390625,
        0.958984375
      ]
    },
    {
      "bufferView": 4,
      "componentType": 5126,
      "count": 1781.25,
      "type": "VEC4",
      "min": [
        0,
        0,
        0,
        0
      ],
      "max": [
        0.9999715685844421,
        0.9999715685844421,
        0.9999715685844421,
        0.9999715685844421
      ]
    },
    {
      "bufferView": 5,
      "componentType": 5123,
      "count": 6042,
      "type": "SCALAR",
      "min": [
        0
      ],
      "max": [
        2374
      ]
    }
  ],
  "extras": {
    "manifest": "Back_Long_XKobold_01_Light.materials.json"
  }
}