{
  "asset": {
    "version": "2.0",
    "generator": "prefab-to-gltf"
  },
  "scene": 0,
  "scenes": [
    {
      "name": "Chest_ShortSleeves_XKobold_01_Light",
      "nodes": [
        0
      ]
    }
  ],
  "nodes": [
    {
      "name": "Chest_Z1RKobold_Light_N",
      "translation": [
        0,
        0,
        0
      ],
      "rotation": [
        0,
        0,
        0,
        1
      ],
      "scale": [
        1,
        1,
        1
      ],
      "mesh": 0
    }
  ],
  "meshes": [
    {
      "name": "Chest_Z1RKobold_Light_N",
      "primitives": [
        {
          "attributes": {
            "POSITION": 0,
            "NORMAL": 1,
            "TEXCOORD_0": 2,
            "TEXCOORD_1": 3,
            "COLOR_0": 4
          },
          "indices": 5,
          "material": 0,
          "mode": 4
        }
      ]
    }
  ],
  "materials": [
    {
      "name": "GradMat_Body",
      "pbrMetallicRoughness": {
        "baseColorFactor": [
          1,
          1,
          1,
          1
        ],
        "metallicFactor": 0,
        "roughnessFactor": 1
      },
      "doubleSided": true,
      "extras": {
        "diffuseTexture": "Character/Common/Texture/CustomGradient_RobinHoof.png",
        "specularTexture": null,
        "normalMap": null
      }
    }
  ],
  "buffers": [
    {
      "uri": "Chest_ShortSleeves_XKobold_01_Light.bin",
      "byteLength": 308676
    }
  ],
  "bufferViews": [
    {
      "buffer": 0,
      "byteOffset": 0,
      "byteLength": 65304,
      "target": 34962
    },
    {
      "buffer": 0,
      "byteOffset": 65304,
      "byteLength": 65304,
      "target": 34962
    },
    {
      "buffer": 0,
      "byteOffset": 130608,
      "byteLength": 43536,
      "target": 34962
    },
    {
      "buffer": 0,
      "byteOffset": 174144,
      "byteLength": 43536,
      "target": 34962
    },
    {
      "buffer": 0,
      "byteOffset": 217680,
      "byteLength": 65304,
      "target": 34962
    },
    {
      "buffer": 0,
      "byteOffset": 282984,
      "byteLength": 25692,
      "target": 34963
    }
  ],
  "accessors": [
    {
      "bufferView": 0,
      "componentType": 5126,
      "count": 5442,
      "type": "VEC3",
      "min": [
        -0.66650390625,
        0.7197265625,
        -0.2054443359375
      ],
      "max": [
        0.66650390625,
        1.9326171875,
        0.296142578125
      ]
    },
    {
      "bufferView": 1,
      "componentType": 5126,
      "count": 5442,
      "type": "VEC3",
      "min": [
        -0.5019607843137255,
        -0.5019607843137255,
        -0.5019607843137255
      ],
      "max": [
        1,
        1,
        1
      ]
    },
    {
      "bufferView": 2,
      "componentType": 5126,
      "count": 5442,
      "type": "VEC2",
      "min": [
        0.01812744140625,
        0.09881591796875
      ],
      "max": [
        0.98876953125,
        0.9580078125
      ]
    },
    {
      "bufferView": 3,
      "componentType": 5126,
      "count": 5442,
      "type": "VEC2",
      "min": [
        0.0296173095703125,
        0.11126708984375
      ],
      "max": [
        0.9462890625,
        0.9775390625
      ]
    },
    {
      "bufferView": 4,
      "componentType": 5126,
      "count": 4081.5,
      "type": "VEC4",
      "min": [
        0,
        0,
        0,
        0
      ],
      "max": [
        1,
        1,
        1,
        1
      ]
    },
    {
      "bufferView": 5,
      "componentType": 5123,
      "count": 12846,
      "type": "SCALAR",
      "min": [
        0
      ],
      "max": [
        5441
      ]
    }
  ],
  "extras": {
    "manifest": "Chest_ShortSleeves_XKobold_01_Light.materials.json"
  }
}