{
  "asset": {
    "version": "2.0",
    "generator": "prefab-to-gltf"
  },
  "scene": 0,
  "scenes": [
    {
      "name": "Chest_ShortSleeves_XKobold_01_Heavy",
      "nodes": [
        0
      ]
    }
  ],
  "nodes": [
    {
      "name": "Chest_Z1R2_Heavy_N",
      "translation": [
        0,
        0,
        0
      ],
      "rotation": [
        0,
        0,
        0,
        1
      ],
      "scale": [
        1,
        1,
        1
      ],
      "mesh": 0
    }
  ],
  "meshes": [
    {
      "name": "Chest_Z1R2_Heavy_N",
      "primitives": [
        {
          "attributes": {
            "POSITION": 0,
            "NORMAL": 1,
            "TEXCOORD_0": 2,
            "TEXCOORD_1": 3,
            "COLOR_0": 4
          },
          "indices": 5,
          "material": 0,
          "mode": 4
        }
      ]
    }
  ],
  "materials": [
    {
      "name": "GradMat_Body",
      "pbrMetallicRoughness": {
        "baseColorFactor": [
          1,
          1,
          1,
          1
        ],
        "metallicFactor": 0,
        "roughnessFactor": 1
      },
      "doubleSided": true,
      "extras": {
        "diffuseTexture": "Character/Common/Texture/CustomGradient_BasicGuy.png",
        "specularTexture": null,
        "normalMap": null
      }
    }
  ],
  "buffers": [
    {
      "uri": "Chest_ShortSleeves_XKobold_01_Heavy.bin",
      "byteLength": 290172
    }
  ],
  "bufferViews": [
    {
      "buffer": 0,
      "byteOffset": 0,
      "byteLength": 61236,
      "target": 34962
    },
    {
      "buffer": 0,
      "byteOffset": 61236,
      "byteLength": 61236,
      "target": 34962
    },
    {
      "buffer": 0,
      "byteOffset": 122472,
      "byteLength": 40824,
      "target": 34962
    },
    {
      "buffer": 0,
      "byteOffset": 163296,
      "byteLength": 40824,
      "target": 34962
    },
    {
      "buffer": 0,
      "byteOffset": 204120,
      "byteLength": 61236,
      "target": 34962
    },
    {
      "buffer": 0,
      "byteOffset": 265356,
      "byteLength": 24816,
      "target": 34963
    }
  ],
  "accessors": [
    {
      "bufferView": 0,
      "componentType": 5126,
      "count": 5103,
      "type": "VEC3",
      "min": [
        -0.66650390625,
        1.025390625,
        -0.125
      ],
      "max": [
        0.66650390625,
        1.9326171875,
        0.27001953125
      ]
    },
    {
      "bufferView": 1,
      "componentType": 5126,
      "count": 5103,
      "type": "VEC3",
      "min": [
        -0.5019607843137255,
        -0.5019607843137255,
        -0.5019607843137255
      ],
      "max": [
        1,
        1,
        1
      ]
    },
    {
      "bufferView": 2,
      "componentType": 5126,
      "count": 5103,
      "type": "VEC2",
      "min": [
        0.01812744140625,
        0.1976318359375
      ],
      "max": [
        0.72412109375,
        0.90673828125
      ]
    },
    {
      "bufferView": 3,
      "componentType": 5126,
      "count": 5103,
      "type": "VEC2",
      "min": [
        0,
        0.0179290771484375
      ],
      "max": [
        0.94482421875,
        1
      ]
    },
    {
      "bufferView": 4,
      "componentType": 5126,
      "count": 3827.25,
      "type": "VEC4",
      "min": [
        0.3607843220233917,
        0.3607843220233917,
        0.3607843220233917,
        0.3607843220233917
      ],
      "max": [
        1,
        1,
        1,
        1
      ]
    },
    {
      "bufferView": 5,
      "componentType": 5123,
      "count": 12408,
      "type": "SCALAR",
      "min": [
        0
      ],
      "max": [
        5102
      ]
    }
  ],
  "extras": {
    "manifest": "Chest_ShortSleeves_XKobold_01_Heavy.materials.json"
  }
}