{
  "asset": {
    "version": "2.0",
    "generator": "prefab-to-gltf"
  },
  "scene": 0,
  "scenes": [
    {
      "name": "Feet_Low_XKobold_01_Light",
      "nodes": [
        0
      ]
    }
  ],
  "nodes": [
    {
      "name": "Feet_Z1RKobold_Light_N",
      "translation": [
        0,
        0,
        0
      ],
      "rotation": [
        0,
        0,
        0,
        1
      ],
      "scale": [
        1,
        1,
        1
      ],
      "mesh": 0
    }
  ],
  "meshes": [
    {
      "name": "Feet_Z1RKobold_Light_N",
      "primitives": [
        {
          "attributes": {
            "POSITION": 0,
            "NORMAL": 1,
            "TEXCOORD_0": 2,
            "TEXCOORD_1": 3
          },
          "indices": 4,
          "material": 0,
          "mode": 4
        }
      ]
    }
  ],
  "materials": [
    {
      "name": "GradMat_Body",
      "pbrMetallicRoughness": {
        "baseColorFactor": [
          1,
          1,
          1,
          1
        ],
        "metallicFactor": 0,
        "roughnessFactor": 1
      },
      "doubleSided": true,
      "extras": {
        "diffuseTexture": "Character/Common/Texture/CustomGradient_BasicGuy.png",
        "specularTexture": null,
        "normalMap": null
      }
    }
  ],
  "buffers": [
    {
      "uri": "Feet_Low_XKobold_01_Light.bin",
      "byteLength": 111256
    }
  ],
  "bufferViews": [
    {
      "buffer": 0,
      "byteOffset": 0,
      "byteLength": 30072,
      "target": 34962
    },
    {
      "buffer": 0,
      "byteOffset": 30072,
      "byteLength": 30072,
      "target": 34962
    },
    {
      "buffer": 0,
      "byteOffset": 60144,
      "byteLength": 20048,
      "target": 34962
    },
    {
      "buffer": 0,
      "byteOffset": 80192,
      "byteLength": 20048,
      "target": 34962
    },
    {
      "buffer": 0,
      "byteOffset": 100240,
      "byteLength": 11016,
      "target": 34963
    }
  ],
  "accessors": [
    {
      "bufferView": 0,
      "componentType": 5126,
      "count": 2506,
      "type": "VEC3",
      "min": [
        -0.427734375,
        -0.00787353515625,
        -0.08270263671875
      ],
      "max": [
        0.427734375,
        0.2369384765625,
        0.326904296875
      ]
    },
    {
      "bufferView": 1,
      "componentType": 5126,
      "count": 2506,
      "type": "VEC3",
      "min": [
        -0.5019607843137255,
        -0.5019607843137255,
        -0.5019607843137255
      ],
      "max": [
        1,
        1,
        1
      ]
    },
    {
      "bufferView": 2,
      "componentType": 5126,
      "count": 2506,
      "type": "VEC2",
      "min": [
        0.1556396484375,
        0.2135009765625
      ],
      "max": [
        0.47998046875,
        0.8974609375
      ]
    },
    {
      "bufferView": 3,
      "componentType": 5126,
      "count": 2506,
      "type": "VEC2",
      "min": [
        0,
        0.1109619140625
      ],
      "max": [
        0.9423828125,
        1
      ]
    },
    {
      "bufferView": 4,
      "componentType": 5123,
      "count": 5508,
      "type": "SCALAR",
      "min": [
        0
      ],
      "max": [
        2505
      ]
    }
  ],
  "extras": {
    "manifest": "Feet_Low_XKobold_01_Light.materials.json"
  }
}