{
  "asset": {
    "version": "2.0",
    "generator": "prefab-to-gltf"
  },
  "scene": 0,
  "scenes": [
    {
      "name": "Feet_High_XKobold_01_Heavy",
      "nodes": [
        0
      ]
    }
  ],
  "nodes": [
    {
      "name": "Feet_Z1R2_Heavy_N",
      "translation": [
        0,
        0,
        0
      ],
      "rotation": [
        0,
        0,
        0,
        1
      ],
      "scale": [
        1,
        1,
        1
      ],
      "mesh": 0
    }
  ],
  "meshes": [
    {
      "name": "Feet_Z1R2_Heavy_N",
      "primitives": [
        {
          "attributes": {
            "POSITION": 0,
            "NORMAL": 1,
            "TEXCOORD_0": 2,
            "TEXCOORD_1": 3
          },
          "indices": 4,
          "material": 0,
          "mode": 4
        }
      ]
    }
  ],
  "materials": [
    {
      "name": "GradMat_Body",
      "pbrMetallicRoughness": {
        "baseColorFactor": [
          1,
          1,
          1,
          1
        ],
        "metallicFactor": 0,
        "roughnessFactor": 1
      },
      "doubleSided": true,
      "extras": {
        "diffuseTexture": "Character/Common/Texture/CustomGradient_BasicGuy.png",
        "specularTexture": null,
        "normalMap": null
      }
    }
  ],
  "buffers": [
    {
      "uri": "Feet_High_XKobold_01_Heavy.bin",
      "byteLength": 149568
    }
  ],
  "bufferViews": [
    {
      "buffer": 0,
      "byteOffset": 0,
      "byteLength": 40248,
      "target": 34962
    },
    {
      "buffer": 0,
      "byteOffset": 40248,
      "byteLength": 40248,
      "target": 34962
    },
    {
      "buffer": 0,
      "byteOffset": 80496,
      "byteLength": 26832,
      "target": 34962
    },
    {
      "buffer": 0,
      "byteOffset": 107328,
      "byteLength": 26832,
      "target": 34962
    },
    {
      "buffer": 0,
      "byteOffset": 134160,
      "byteLength": 15408,
      "target": 34963
    }
  ],
  "accessors": [
    {
      "bufferView": 0,
      "componentType": 5126,
      "count": 3354,
      "type": "VEC3",
      "min": [
        -0.4150390625,
        -0.007537841796875,
        -0.11724853515625
      ],
      "max": [
        0.4150390625,
        0.487548828125,
        0.32373046875
      ]
    },
    {
      "bufferView": 1,
      "componentType": 5126,
      "count": 3354,
      "type": "VEC3",
      "min": [
        -0.5019607843137255,
        -0.5019607843137255,
        -0.5019607843137255
      ],
      "max": [
        1,
        1,
        1
      ]
    },
    {
      "bufferView": 2,
      "componentType": 5126,
      "count": 3354,
      "type": "VEC2",
      "min": [
        0.1397705078125,
        0.4375
      ],
      "max": [
        0.62158203125,
        0.9365234375
      ]
    },
    {
      "bufferView": 3,
      "componentType": 5126,
      "count": 3354,
      "type": "VEC2",
      "min": [
        0.035858154296875,
        0.09674072265625
      ],
      "max": [
        0.94677734375,
        0.96728515625
      ]
    },
    {
      "bufferView": 4,
      "componentType": 5123,
      "count": 7704,
      "type": "SCALAR",
      "min": [
        0
      ],
      "max": [
        3353
      ]
    }
  ],
  "extras": {
    "manifest": "Feet_High_XKobold_01_Heavy.materials.json"
  }
}