{
  "asset": {
    "version": "2.0",
    "generator": "prefab-to-gltf"
  },
  "scene": 0,
  "scenes": [
    {
      "name": "Hands_Forearm_XKobold_01_Heavy",
      "nodes": [
        0
      ]
    }
  ],
  "nodes": [
    {
      "name": "Hands_Z1R2_Heavy_N",
      "translation": [
        0,
        0,
        0
      ],
      "rotation": [
        0,
        0,
        0,
        1
      ],
      "scale": [
        1,
        1,
        1
      ],
      "mesh": 0
    }
  ],
  "meshes": [
    {
      "name": "Hands_Z1R2_Heavy_N",
      "primitives": [
        {
          "attributes": {
            "POSITION": 0,
            "NORMAL": 1,
            "TEXCOORD_0": 2,
            "TEXCOORD_1": 3
          },
          "indices": 4,
          "material": 0,
          "mode": 4
        }
      ]
    }
  ],
  "materials": [
    {
      "name": "GradMat_Body",
      "pbrMetallicRoughness": {
        "baseColorFactor": [
          1,
          1,
          1,
          1
        ],
        "metallicFactor": 0,
        "roughnessFactor": 1
      },
      "doubleSided": true,
      "extras": {
        "diffuseTexture": "Character/Common/Texture/CustomGradient_BasicGuy.png",
        "specularTexture": null,
        "normalMap": null
      }
    }
  ],
  "buffers": [
    {
      "uri": "Hands_Forearm_XKobold_01_Heavy.bin",
      "byteLength": 222232
    }
  ],
  "bufferViews": [
    {
      "buffer": 0,
      "byteOffset": 0,
      "byteLength": 58656,
      "target": 34962
    },
    {
      "buffer": 0,
      "byteOffset": 58656,
      "byteLength": 58656,
      "target": 34962
    },
    {
      "buffer": 0,
      "byteOffset": 117312,
      "byteLength": 39104,
      "target": 34962
    },
    {
      "buffer": 0,
      "byteOffset": 156416,
      "byteLength": 39104,
      "target": 34962
    },
    {
      "buffer": 0,
      "byteOffset": 195520,
      "byteLength": 26712,
      "target": 34963
    }
  ],
  "accessors": [
    {
      "bufferView": 0,
      "componentType": 5126,
      "count": 4888,
      "type": "VEC3",
      "min": [
        -0.81298828125,
        0.978515625,
        -0.044342041015625
      ],
      "max": [
        0.81298828125,
        1.505859375,
        0.34033203125
      ]
    },
    {
      "bufferView": 1,
      "componentType": 5126,
      "count": 4888,
      "type": "VEC3",
      "min": [
        -0.5019607843137255,
        -0.5019607843137255,
        -0.5019607843137255
      ],
      "max": [
        1,
        1,
        1
      ]
    },
    {
      "bufferView": 2,
      "componentType": 5126,
      "count": 4888,
      "type": "VEC2",
      "min": [
        0.13671875,
        0.361083984375
      ],
      "max": [
        0.85546875,
        0.8857421875
      ]
    },
    {
      "bufferView": 3,
      "componentType": 5126,
      "count": 4888,
      "type": "VEC2",
      "min": [
        0.04632568359375,
        0.09674072265625
      ],
      "max": [
        0.923828125,
        0.96044921875
      ]
    },
    {
      "bufferView": 4,
      "componentType": 5123,
      "count": 13356,
      "type": "SCALAR",
      "min": [
        0
      ],
      "max": [
        4887
      ]
    }
  ],
  "extras": {
    "manifest": "Hands_Forearm_XKobold_01_Heavy.materials.json"
  }
}