{
  "asset": {
    "version": "2.0",
    "generator": "prefab-to-gltf"
  },
  "scene": 0,
  "scenes": [
    {
      "name": "Hands_Wrist_XKobold_01_Light",
      "nodes": [
        0
      ]
    }
  ],
  "nodes": [
    {
      "name": "Hands_Z1RKobold_Light_N",
      "translation": [
        0,
        0,
        0
      ],
      "rotation": [
        0,
        0,
        0,
        1
      ],
      "scale": [
        1,
        1,
        1
      ],
      "mesh": 0
    }
  ],
  "meshes": [
    {
      "name": "Hands_Z1RKobold_Light_N",
      "primitives": [
        {
          "attributes": {
            "POSITION": 0,
            "NORMAL": 1,
            "TEXCOORD_0": 2,
            "TEXCOORD_1": 3
          },
          "indices": 4,
          "material": 0,
          "mode": 4
        }
      ]
    }
  ],
  "materials": [
    {
      "name": "GradMat_Body",
      "pbrMetallicRoughness": {
        "baseColorFactor": [
          1,
          1,
          1,
          1
        ],
        "metallicFactor": 0,
        "roughnessFactor": 1
      },
      "doubleSided": true,
      "extras": {
        "diffuseTexture": "Character/Common/Texture/CustomGradient_BasicGuy.png",
        "specularTexture": null,
        "normalMap": null
      }
    }
  ],
  "buffers": [
    {
      "uri": "Hands_Wrist_XKobold_01_Light.bin",
      "byteLength": 188324
    }
  ],
  "bufferViews": [
    {
      "buffer": 0,
      "byteOffset": 0,
      "byteLength": 50064,
      "target": 34962
    },
    {
      "buffer": 0,
      "byteOffset": 50064,
      "byteLength": 50064,
      "target": 34962
    },
    {
      "buffer": 0,
      "byteOffset": 100128,
      "byteLength": 33376,
      "target": 34962
    },
    {
      "buffer": 0,
      "byteOffset": 133504,
      "byteLength": 33376,
      "target": 34962
    },
    {
      "buffer": 0,
      "byteOffset": 166880,
      "byteLength": 21444,
      "target": 34963
    }
  ],
  "accessors": [
    {
      "bufferView": 0,
      "componentType": 5126,
      "count": 4172,
      "type": "VEC3",
      "min": [
        -0.81201171875,
        0.9814453125,
        0.0280914306640625
      ],
      "max": [
        0.81201171875,
        1.328125,
        0.337646484375
      ]
    },
    {
      "bufferView": 1,
      "componentType": 5126,
      "count": 4172,
      "type": "VEC3",
      "min": [
        -0.5019607843137255,
        -0.5019607843137255,
        -0.5019607843137255
      ],
      "max": [
        1,
        1,
        1
      ]
    },
    {
      "bufferView": 2,
      "componentType": 5126,
      "count": 4172,
      "type": "VEC2",
      "min": [
        0.0190582275390625,
        0.1739501953125
      ],
      "max": [
        0.476318359375,
        0.921875
      ]
    },
    {
      "bufferView": 3,
      "componentType": 5126,
      "count": 4172,
      "type": "VEC2",
      "min": [
        0,
        0.11456298828125
      ],
      "max": [
        0.9482421875,
        1
      ]
    },
    {
      "bufferView": 4,
      "componentType": 5123,
      "count": 10722,
      "type": "SCALAR",
      "min": [
        0
      ],
      "max": [
        4171
      ]
    }
  ],
  "extras": {
    "manifest": "Hands_Wrist_XKobold_01_Light.materials.json"
  }
}