{
  "asset": {
    "version": "2.0",
    "generator": "prefab-to-gltf"
  },
  "scene": 0,
  "scenes": [
    {
      "name": "Legs_Shin_XKobold_01_Heavy",
      "nodes": [
        0
      ]
    }
  ],
  "nodes": [
    {
      "name": "Legs_Z1R2_Heavy_N",
      "translation": [
        0,
        0,
        0
      ],
      "rotation": [
        0,
        0,
        0,
        1
      ],
      "scale": [
        1,
        1,
        1
      ],
      "mesh": 0
    }
  ],
  "meshes": [
    {
      "name": "Legs_Z1R2_Heavy_N",
      "primitives": [
        {
          "attributes": {
            "POSITION": 0,
            "NORMAL": 1,
            "TEXCOORD_0": 2,
            "TEXCOORD_1": 3
          },
          "indices": 4,
          "material": 0,
          "mode": 4
        }
      ]
    }
  ],
  "materials": [
    {
      "name": "GradMat_Body",
      "pbrMetallicRoughness": {
        "baseColorFactor": [
          1,
          1,
          1,
          1
        ],
        "metallicFactor": 0,
        "roughnessFactor": 1
      },
      "doubleSided": true,
      "extras": {
        "diffuseTexture": "Character/Common/Texture/CustomGradient_BasicGuy.png",
        "specularTexture": null,
        "normalMap": null
      }
    }
  ],
  "buffers": [
    {
      "uri": "Legs_Shin_XKobold_01_Heavy.bin",
      "byteLength": 100816
    }
  ],
  "bufferViews": [
    {
      "buffer": 0,
      "byteOffset": 0,
      "byteLength": 27336,
      "target": 34962
    },
    {
      "buffer": 0,
      "byteOffset": 27336,
      "byteLength": 27336,
      "target": 34962
    },
    {
      "buffer": 0,
      "byteOffset": 54672,
      "byteLength": 18224,
      "target": 34962
    },
    {
      "buffer": 0,
      "byteOffset": 72896,
      "byteLength": 18224,
      "target": 34962
    },
    {
      "buffer": 0,
      "byteOffset": 91120,
      "byteLength": 9696,
      "target": 34963
    }
  ],
  "accessors": [
    {
      "bufferView": 0,
      "componentType": 5126,
      "count": 2278,
      "type": "VEC3",
      "min": [
        -0.37255859375,
        0.08514404296875,
        -0.11895751953125
      ],
      "max": [
        0.37255859375,
        1.2763671875,
        0.2308349609375
      ]
    },
    {
      "bufferView": 1,
      "componentType": 5126,
      "count": 2278,
      "type": "VEC3",
      "min": [
        -0.5019607843137255,
        -0.5019607843137255,
        -0.5019607843137255
      ],
      "max": [
        1,
        1,
        1
      ]
    },
    {
      "bufferView": 2,
      "componentType": 5126,
      "count": 2278,
      "type": "VEC2",
      "min": [
        0.05267333984375,
        0.27587890625
      ],
      "max": [
        0.7197265625,
        0.8056640625
      ]
    },
    {
      "bufferView": 3,
      "componentType": 5126,
      "count": 2278,
      "type": "VEC2",
      "min": [
        0.0347900390625,
        0.10711669921875
      ],
      "max": [
        0.947265625,
        0.96630859375
      ]
    },
    {
      "bufferView": 4,
      "componentType": 5123,
      "count": 4848,
      "type": "SCALAR",
      "min": [
        0
      ],
      "max": [
        2277
      ]
    }
  ],
  "extras": {
    "manifest": "Legs_Shin_XKobold_01_Heavy.materials.json"
  }
}