{
  "asset": {
    "version": "2.0",
    "generator": "prefab-to-gltf"
  },
  "scene": 0,
  "scenes": [
    {
      "name": "Legs_Thigh_XKobold_01_Medium",
      "nodes": [
        0
      ]
    }
  ],
  "nodes": [
    {
      "name": "Legs_Z1RKobold_Medium_N",
      "translation": [
        0,
        0,
        0
      ],
      "rotation": [
        0,
        0,
        0,
        1
      ],
      "scale": [
        1,
        1,
        1
      ],
      "mesh": 0
    }
  ],
  "meshes": [
    {
      "name": "Legs_Z1RKobold_Medium_N",
      "primitives": [
        {
          "attributes": {
            "POSITION": 0,
            "NORMAL": 1,
            "TEXCOORD_0": 2,
            "TEXCOORD_1": 3
          },
          "indices": 4,
          "material": 0,
          "mode": 4
        }
      ]
    }
  ],
  "materials": [
    {
      "name": "GradMat_Body",
      "pbrMetallicRoughness": {
        "baseColorFactor": [
          1,
          1,
          1,
          1
        ],
        "metallicFactor": 0,
        "roughnessFactor": 1
      },
      "doubleSided": true,
      "extras": {
        "diffuseTexture": "Character/Common/Texture/CustomGradient_BasicGuy.png",
        "specularTexture": null,
        "normalMap": null
      }
    }
  ],
  "buffers": [
    {
      "uri": "Legs_Thigh_XKobold_01_Medium.bin",
      "byteLength": 183964
    }
  ],
  "bufferViews": [
    {
      "buffer": 0,
      "byteOffset": 0,
      "byteLength": 49008,
      "target": 34962
    },
    {
      "buffer": 0,
      "byteOffset": 49008,
      "byteLength": 49008,
      "target": 34962
    },
    {
      "buffer": 0,
      "byteOffset": 98016,
      "byteLength": 32672,
      "target": 34962
    },
    {
      "buffer": 0,
      "byteOffset": 130688,
      "byteLength": 32672,
      "target": 34962
    },
    {
      "buffer": 0,
      "byteOffset": 163360,
      "byteLength": 20604,
      "target": 34963
    }
  ],
  "accessors": [
    {
      "bufferView": 0,
      "componentType": 5126,
      "count": 4084,
      "type": "VEC3",
      "min": [
        -0.37109375,
        0.08514404296875,
        -0.09075927734375
      ],
      "max": [
        0.37109375,
        1.2763671875,
        0.259033203125
      ]
    },
    {
      "bufferView": 1,
      "componentType": 5126,
      "count": 4084,
      "type": "VEC3",
      "min": [
        -0.5019607843137255,
        -0.5019607843137255,
        -0.5019607843137255
      ],
      "max": [
        1,
        1,
        1
      ]
    },
    {
      "bufferView": 2,
      "componentType": 5126,
      "count": 4084,
      "type": "VEC2",
      "min": [
        0.032684326171875,
        0.09326171875
      ],
      "max": [
        0.95263671875,
        0.95947265625
      ]
    },
    {
      "bufferView": 3,
      "componentType": 5126,
      "count": 4084,
      "type": "VEC2",
      "min": [
        0.0286865234375,
        0.0278472900390625
      ],
      "max": [
        0.94482421875,
        0.96630859375
      ]
    },
    {
      "bufferView": 4,
      "componentType": 5123,
      "count": 10302,
      "type": "SCALAR",
      "min": [
        0
      ],
      "max": [
        4083
      ]
    }
  ],
  "extras": {
    "manifest": "Legs_Thigh_XKobold_01_Medium.materials.json"
  }
}