{
  "asset": {
    "version": "2.0",
    "generator": "prefab-to-gltf"
  },
  "scene": 0,
  "scenes": [
    {
      "name": "Waist_Medium_XKobold_01_Light",
      "nodes": [
        0
      ]
    }
  ],
  "nodes": [
    {
      "name": "Waist_Z1RKobold_Light_N",
      "translation": [
        0,
        0,
        0
      ],
      "rotation": [
        0,
        0,
        0,
        1
      ],
      "scale": [
        1,
        1,
        1
      ],
      "mesh": 0
    }
  ],
  "meshes": [
    {
      "name": "Waist_Z1RKobold_Light_N",
      "primitives": [
        {
          "attributes": {
            "POSITION": 0,
            "NORMAL": 1,
            "TEXCOORD_0": 2,
            "TEXCOORD_1": 3
          },
          "indices": 4,
          "material": 0,
          "mode": 4
        }
      ]
    }
  ],
  "materials": [
    {
      "name": "GradMat_Body",
      "pbrMetallicRoughness": {
        "baseColorFactor": [
          1,
          1,
          1,
          1
        ],
        "metallicFactor": 0,
        "roughnessFactor": 1
      },
      "doubleSided": true,
      "extras": {
        "diffuseTexture": "Character/Common/Texture/CustomGradient_BasicGuy.png",
        "specularTexture": null,
        "normalMap": null
      }
    }
  ],
  "buffers": [
    {
      "uri": "Waist_Medium_XKobold_01_Light.bin",
      "byteLength": 80212
    }
  ],
  "bufferViews": [
    {
      "buffer": 0,
      "byteOffset": 0,
      "byteLength": 21720,
      "target": 34962
    },
    {
      "buffer": 0,
      "byteOffset": 21720,
      "byteLength": 21720,
      "target": 34962
    },
    {
      "buffer": 0,
      "byteOffset": 43440,
      "byteLength": 14480,
      "target": 34962
    },
    {
      "buffer": 0,
      "byteOffset": 57920,
      "byteLength": 14480,
      "target": 34962
    },
    {
      "buffer": 0,
      "byteOffset": 72400,
      "byteLength": 7812,
      "target": 34963
    }
  ],
  "accessors": [
    {
      "bufferView": 0,
      "componentType": 5126,
      "count": 1810,
      "type": "VEC3",
      "min": [
        -0.2213134765625,
        1.1201171875,
        -0.0732421875
      ],
      "max": [
        0.2213134765625,
        1.287109375,
        0.339599609375
      ]
    },
    {
      "bufferView": 1,
      "componentType": 5126,
      "count": 1810,
      "type": "VEC3",
      "min": [
        -0.5019607843137255,
        -0.5019607843137255,
        -0.5019607843137255
      ],
      "max": [
        1,
        1,
        0.4980392156862745
      ]
    },
    {
      "bufferView": 2,
      "componentType": 5126,
      "count": 1810,
      "type": "VEC2",
      "min": [
        0.269775390625,
        0.2135009765625
      ],
      "max": [
        0.492431640625,
        0.955078125
      ]
    },
    {
      "bufferView": 3,
      "componentType": 5126,
      "count": 1810,
      "type": "VEC2",
      "min": [
        0.0357666015625,
        0.2578125
      ],
      "max": [
        0.94921875,
        0.96142578125
      ]
    },
    {
      "bufferView": 4,
      "componentType": 5123,
      "count": 3906,
      "type": "SCALAR",
      "min": [
        0
      ],
      "max": [
        1809
      ]
    }
  ],
  "extras": {
    "manifest": "Waist_Medium_XKobold_01_Light.materials.json"
  }
}