{
  "asset": {
    "version": "2.0",
    "generator": "prefab-to-gltf"
  },
  "scene": 0,
  "scenes": [
    {
      "name": "Waist_Medium_XKobold_01_Heavy",
      "nodes": [
        0
      ]
    }
  ],
  "nodes": [
    {
      "name": "Waist_Z1R2_Heavy_N",
      "translation": [
        0,
        0,
        0
      ],
      "rotation": [
        0,
        0,
        0,
        1
      ],
      "scale": [
        1,
        1,
        1
      ],
      "mesh": 0
    }
  ],
  "meshes": [
    {
      "name": "Waist_Z1R2_Heavy_N",
      "primitives": [
        {
          "attributes": {
            "POSITION": 0,
            "NORMAL": 1,
            "TEXCOORD_0": 2,
            "TEXCOORD_1": 3
          },
          "indices": 4,
          "material": 0,
          "mode": 4
        }
      ]
    }
  ],
  "materials": [
    {
      "name": "GradMat_Body",
      "pbrMetallicRoughness": {
        "baseColorFactor": [
          1,
          1,
          1,
          1
        ],
        "metallicFactor": 0,
        "roughnessFactor": 1
      },
      "doubleSided": true,
      "extras": {
        "diffuseTexture": "Character/Common/Texture/CustomGradient_BasicGuy.png",
        "specularTexture": null,
        "normalMap": null
      }
    }
  ],
  "buffers": [
    {
      "uri": "Waist_Medium_XKobold_01_Heavy.bin",
      "byteLength": 36912
    }
  ],
  "bufferViews": [
    {
      "buffer": 0,
      "byteOffset": 0,
      "byteLength": 9864,
      "target": 34962
    },
    {
      "buffer": 0,
      "byteOffset": 9864,
      "byteLength": 9864,
      "target": 34962
    },
    {
      "buffer": 0,
      "byteOffset": 19728,
      "byteLength": 6576,
      "target": 34962
    },
    {
      "buffer": 0,
      "byteOffset": 26304,
      "byteLength": 6576,
      "target": 34962
    },
    {
      "buffer": 0,
      "byteOffset": 32880,
      "byteLength": 4032,
      "target": 34963
    }
  ],
  "accessors": [
    {
      "bufferView": 0,
      "componentType": 5126,
      "count": 822,
      "type": "VEC3",
      "min": [
        -0.218994140625,
        1.1259765625,
        -0.0693359375
      ],
      "max": [
        0.218994140625,
        1.30859375,
        0.27001953125
      ]
    },
    {
      "bufferView": 1,
      "componentType": 5126,
      "count": 822,
      "type": "VEC3",
      "min": [
        -0.4980392156862745,
        -0.4980392156862745,
        -0.5019607843137255
      ],
      "max": [
        1,
        1,
        0.4980392156862745
      ]
    },
    {
      "bufferView": 2,
      "componentType": 5126,
      "count": 822,
      "type": "VEC2",
      "min": [
        0.1451416015625,
        0.47509765625
      ],
      "max": [
        0.364501953125,
        0.89794921875
      ]
    },
    {
      "bufferView": 3,
      "componentType": 5126,
      "count": 822,
      "type": "VEC2",
      "min": [
        0,
        0.101806640625
      ],
      "max": [
        0.9541015625,
        1
      ]
    },
    {
      "bufferView": 4,
      "componentType": 5123,
      "count": 2016,
      "type": "SCALAR",
      "min": [
        0
      ],
      "max": [
        821
      ]
    }
  ],
  "extras": {
    "manifest": "Waist_Medium_XKobold_01_Heavy.materials.json"
  }
}