{
  "asset": {
    "version": "2.0",
    "generator": "prefab-to-gltf"
  },
  "scene": 0,
  "scenes": [
    {
      "name": "Chest_ShortSleeves_RSwarowls_Heavy",
      "nodes": [
        0
      ]
    }
  ],
  "nodes": [
    {
      "name": "Chest_RSwarowls_Heavy_N",
      "translation": [
        0,
        0,
        0
      ],
      "rotation": [
        0,
        0,
        0,
        1
      ],
      "scale": [
        1,
        1,
        1
      ],
      "mesh": 0
    }
  ],
  "meshes": [
    {
      "name": "Chest_RSwarowls_Heavy_N",
      "primitives": [
        {
          "attributes": {
            "POSITION": 0,
            "NORMAL": 1,
            "TEXCOORD_0": 2,
            "TEXCOORD_1": 3,
            "COLOR_0": 4
          },
          "indices": 5,
          "material": 0,
          "mode": 4
        }
      ]
    }
  ],
  "materials": [
    {
      "name": "standardSurface1",
      "pbrMetallicRoughness": {
        "baseColorFactor": [
          1,
          1,
          1,
          1
        ],
        "metallicFactor": 0,
        "roughnessFactor": 1
      },
      "doubleSided": true,
      "extras": {
        "diffuseTexture": null,
        "specularTexture": null,
        "normalMap": null
      }
    }
  ],
  "buffers": [
    {
      "uri": "Chest_ShortSleeves_RSwarowls_Heavy.bin",
      "byteLength": 341104
    }
  ],
  "bufferViews": [
    {
      "buffer": 0,
      "byteOffset": 0,
      "byteLength": 71436,
      "target": 34962
    },
    {
      "buffer": 0,
      "byteOffset": 71436,
      "byteLength": 71436,
      "target": 34962
    },
    {
      "buffer": 0,
      "byteOffset": 142872,
      "byteLength": 47624,
      "target": 34962
    },
    {
      "buffer": 0,
      "byteOffset": 190496,
      "byteLength": 47624,
      "target": 34962
    },
    {
      "buffer": 0,
      "byteOffset": 238120,
      "byteLength": 71436,
      "target": 34962
    },
    {
      "buffer": 0,
      "byteOffset": 309556,
      "byteLength": 31548,
      "target": 34963
    }
  ],
  "accessors": [
    {
      "bufferView": 0,
      "componentType": 5126,
      "count": 5953,
      "type": "VEC3",
      "min": [
        -0.6669847965240479,
        0.9784159064292908,
        -0.1587686985731125
      ],
      "max": [
        0.6669847965240479,
        1.9331178665161133,
        0.31774434447288513
      ]
    },
    {
      "bufferView": 1,
      "componentType": 5126,
      "count": 5953,
      "type": "VEC3",
      "min": [
        -0.9979940056800842,
        -0.996537446975708,
        -0.9999943375587463
      ],
      "max": [
        0.997994065284729,
        0.9998904466629028,
        0.9997835159301758
      ]
    },
    {
      "bufferView": 2,
      "componentType": 5126,
      "count": 5953,
      "type": "VEC2",
      "min": [
        0.029902756214141846,
        0.16975438594818115
      ],
      "max": [
        0.730249285697937,
        0.9578450322151184
      ]
    },
    {
      "bufferView": 3,
      "componentType": 5126,
      "count": 5953,
      "type": "VEC2",
      "min": [
        0.03729694336652756,
        0.11239588260650635
      ],
      "max": [
        0.9526077508926392,
        0.9675461053848267
      ]
    },
    {
      "bufferView": 4,
      "componentType": 5126,
      "count": 4464.75,
      "type": "VEC4",
      "min": [
        0,
        0,
        0,
        0
      ],
      "max": [
        0.9999715685844421,
        0.9999715685844421,
        0.9999715685844421,
        0.9999715685844421
      ]
    },
    {
      "bufferView": 5,
      "componentType": 5123,
      "count": 15774,
      "type": "SCALAR",
      "min": [
        0
      ],
      "max": [
        5952
      ]
    }
  ],
  "extras": {
    "manifest": "Chest_ShortSleeves_RSwarowls_Heavy.materials.json"
  }
}