{
  "asset": {
    "version": "2.0",
    "generator": "prefab-to-gltf"
  },
  "scene": 0,
  "scenes": [
    {
      "name": "Head_Open_RSwarowls_Light",
      "nodes": [
        0
      ]
    }
  ],
  "nodes": [
    {
      "name": "Head_Z3RSwarowls_Light_N",
      "translation": [
        0,
        0,
        0
      ],
      "rotation": [
        0,
        0,
        0,
        1
      ],
      "scale": [
        1,
        1,
        1
      ],
      "mesh": 0
    }
  ],
  "meshes": [
    {
      "name": "Head_Z3RSwarowls_Light_N",
      "primitives": [
        {
          "attributes": {
            "POSITION": 0,
            "NORMAL": 1,
            "TEXCOORD_0": 2,
            "TEXCOORD_1": 3,
            "COLOR_0": 4
          },
          "indices": 5,
          "material": 0,
          "mode": 4
        }
      ]
    }
  ],
  "materials": [
    {
      "name": "GradMat_Body",
      "pbrMetallicRoughness": {
        "baseColorFactor": [
          1,
          1,
          1,
          1
        ],
        "metallicFactor": 0,
        "roughnessFactor": 1
      },
      "doubleSided": true,
      "extras": {
        "diffuseTexture": "Character/Common/Texture/CustomGradient_RobinHoof.png",
        "specularTexture": null,
        "normalMap": null
      }
    }
  ],
  "buffers": [
    {
      "uri": "Head_Open_RSwarowls_Light.bin",
      "byteLength": 65540
    }
  ],
  "bufferViews": [
    {
      "buffer": 0,
      "byteOffset": 0,
      "byteLength": 13632,
      "target": 34962
    },
    {
      "buffer": 0,
      "byteOffset": 13632,
      "byteLength": 13632,
      "target": 34962
    },
    {
      "buffer": 0,
      "byteOffset": 27264,
      "byteLength": 9088,
      "target": 34962
    },
    {
      "buffer": 0,
      "byteOffset": 36352,
      "byteLength": 9088,
      "target": 34962
    },
    {
      "buffer": 0,
      "byteOffset": 45440,
      "byteLength": 13632,
      "target": 34962
    },
    {
      "buffer": 0,
      "byteOffset": 59072,
      "byteLength": 6468,
      "target": 34963
    }
  ],
  "accessors": [
    {
      "bufferView": 0,
      "componentType": 5126,
      "count": 1136,
      "type": "VEC3",
      "min": [
        -0.20205271244049072,
        1.7560293674468994,
        -0.11937496066093445
      ],
      "max": [
        0.20205271244049072,
        2.3169736862182617,
        0.3331602215766907
      ]
    },
    {
      "bufferView": 1,
      "componentType": 5126,
      "count": 1136,
      "type": "VEC3",
      "min": [
        -0.9900809526443481,
        -0.9990320801734924,
        -0.9999776482582092
      ],
      "max": [
        0.9900809526443481,
        0.9999048709869385,
        0.9986516237258911
      ]
    },
    {
      "bufferView": 2,
      "componentType": 5126,
      "count": 1136,
      "type": "VEC2",
      "min": [
        0.11057603359222412,
        0.3364832401275635
      ],
      "max": [
        0.475345253944397,
        0.8261021971702576
      ]
    },
    {
      "bufferView": 3,
      "componentType": 5126,
      "count": 1136,
      "type": "VEC2",
      "min": [
        0.05882006883621216,
        0.31628090143203735
      ],
      "max": [
        0.9412506222724915,
        0.9617566466331482
      ]
    },
    {
      "bufferView": 4,
      "componentType": 5126,
      "count": 852,
      "type": "VEC4",
      "min": [
        0,
        0,
        0,
        0
      ],
      "max": [
        1,
        1,
        1,
        1
      ]
    },
    {
      "bufferView": 5,
      "componentType": 5123,
      "count": 3234,
      "type": "SCALAR",
      "min": [
        0
      ],
      "max": [
        1135
      ]
    }
  ],
  "extras": {
    "manifest": "Head_Open_RSwarowls_Light.materials.json"
  }
}