{
  "asset": {
    "version": "2.0",
    "generator": "prefab-to-gltf"
  },
  "scene": 0,
  "scenes": [
    {
      "name": "Legs_Thigh_RSwarowls_Heavy",
      "nodes": [
        0
      ]
    }
  ],
  "nodes": [
    {
      "name": "Legs_RSwarowls_Heavy_N",
      "translation": [
        0,
        0,
        0
      ],
      "rotation": [
        0,
        0,
        0,
        1
      ],
      "scale": [
        1,
        1,
        1
      ],
      "mesh": 0
    }
  ],
  "meshes": [
    {
      "name": "Legs_RSwarowls_Heavy_N",
      "primitives": [
        {
          "attributes": {
            "POSITION": 0,
            "NORMAL": 1,
            "TEXCOORD_0": 2,
            "TEXCOORD_1": 3,
            "COLOR_0": 4
          },
          "indices": 5,
          "material": 0,
          "mode": 4
        }
      ]
    }
  ],
  "materials": [
    {
      "name": "standardSurface1",
      "pbrMetallicRoughness": {
        "baseColorFactor": [
          1,
          1,
          1,
          1
        ],
        "metallicFactor": 0,
        "roughnessFactor": 1
      },
      "doubleSided": true,
      "extras": {
        "diffuseTexture": null,
        "specularTexture": null,
        "normalMap": null
      }
    }
  ],
  "buffers": [
    {
      "uri": "Legs_Thigh_RSwarowls_Heavy.bin",
      "byteLength": 233264
    }
  ],
  "bufferViews": [
    {
      "buffer": 0,
      "byteOffset": 0,
      "byteLength": 48912,
      "target": 34962
    },
    {
      "buffer": 0,
      "byteOffset": 48912,
      "byteLength": 48912,
      "target": 34962
    },
    {
      "buffer": 0,
      "byteOffset": 97824,
      "byteLength": 32608,
      "target": 34962
    },
    {
      "buffer": 0,
      "byteOffset": 130432,
      "byteLength": 32608,
      "target": 34962
    },
    {
      "buffer": 0,
      "byteOffset": 163040,
      "byteLength": 48912,
      "target": 34962
    },
    {
      "buffer": 0,
      "byteOffset": 211952,
      "byteLength": 21312,
      "target": 34963
    }
  ],
  "accessors": [
    {
      "bufferView": 0,
      "componentType": 5126,
      "count": 4076,
      "type": "VEC3",
      "min": [
        -0.39378437399864197,
        0.0851835310459137,
        -0.13799236714839935
      ],
      "max": [
        0.39378437399864197,
        1.2774349451065063,
        0.30516207218170166
      ]
    },
    {
      "bufferView": 1,
      "componentType": 5126,
      "count": 4076,
      "type": "VEC3",
      "min": [
        -0.9997690916061401,
        -0.9981779456138611,
        -0.9998539686203003
      ],
      "max": [
        0.9997690916061401,
        0.9997878074645996,
        0.9994281530380249
      ]
    },
    {
      "bufferView": 2,
      "componentType": 5126,
      "count": 4076,
      "type": "VEC2",
      "min": [
        0.03698774799704552,
        0.2740510106086731
      ],
      "max": [
        0.7384998202323914,
        0.8185083866119385
      ]
    },
    {
      "bufferView": 3,
      "componentType": 5126,
      "count": 4076,
      "type": "VEC2",
      "min": [
        0.03742267191410065,
        0.09843814373016357
      ],
      "max": [
        0.948514461517334,
        0.9661250114440918
      ]
    },
    {
      "bufferView": 4,
      "componentType": 5126,
      "count": 3057,
      "type": "VEC4",
      "min": [
        0,
        0,
        0,
        0
      ],
      "max": [
        0.9999715685844421,
        0.9999715685844421,
        0.9999715685844421,
        0.9999715685844421
      ]
    },
    {
      "bufferView": 5,
      "componentType": 5123,
      "count": 10656,
      "type": "SCALAR",
      "min": [
        0
      ],
      "max": [
        4075
      ]
    }
  ],
  "extras": {
    "manifest": "Legs_Thigh_RSwarowls_Heavy.materials.json"
  }
}