{
  "asset": {
    "version": "2.0",
    "generator": "prefab-to-gltf"
  },
  "scene": 0,
  "scenes": [
    {
      "name": "Waist_Fancy_RSwarowls_Medium",
      "nodes": [
        0
      ]
    }
  ],
  "nodes": [
    {
      "name": "Waist_Z3RSwarowls_Medium_N",
      "translation": [
        0,
        0,
        0
      ],
      "rotation": [
        0,
        0,
        0,
        1
      ],
      "scale": [
        1,
        1,
        1
      ],
      "mesh": 0
    }
  ],
  "meshes": [
    {
      "name": "Waist_Z3RSwarowls_Medium_N",
      "primitives": [
        {
          "attributes": {
            "POSITION": 0,
            "NORMAL": 1,
            "TEXCOORD_0": 2,
            "TEXCOORD_1": 3,
            "COLOR_0": 4
          },
          "indices": 5,
          "material": 0,
          "mode": 4
        }
      ]
    }
  ],
  "materials": [
    {
      "name": "Gradmat_Weapon",
      "pbrMetallicRoughness": {
        "baseColorFactor": [
          1,
          1,
          1,
          1
        ],
        "metallicFactor": 0,
        "roughnessFactor": 1
      },
      "doubleSided": true,
      "extras": {
        "diffuseTexture": "Character/Common/Texture/CustomGradient_Hero_Clothes.png",
        "specularTexture": null,
        "normalMap": null
      }
    }
  ],
  "buffers": [
    {
      "uri": "Waist_Fancy_RSwarowls_Medium.bin",
      "byteLength": 122792
    }
  ],
  "bufferViews": [
    {
      "buffer": 0,
      "byteOffset": 0,
      "byteLength": 25620,
      "target": 34962
    },
    {
      "buffer": 0,
      "byteOffset": 25620,
      "byteLength": 25620,
      "target": 34962
    },
    {
      "buffer": 0,
      "byteOffset": 51240,
      "byteLength": 17080,
      "target": 34962
    },
    {
      "buffer": 0,
      "byteOffset": 68320,
      "byteLength": 17080,
      "target": 34962
    },
    {
      "buffer": 0,
      "byteOffset": 85400,
      "byteLength": 25620,
      "target": 34962
    },
    {
      "buffer": 0,
      "byteOffset": 111020,
      "byteLength": 11772,
      "target": 34963
    }
  ],
  "accessors": [
    {
      "bufferView": 0,
      "componentType": 5126,
      "count": 2135,
      "type": "VEC3",
      "min": [
        -0.33469870686531067,
        0.9473903775215149,
        -0.18803934752941132
      ],
      "max": [
        0.2974824011325836,
        1.3351560831069946,
        0.35924869775772095
      ]
    },
    {
      "bufferView": 1,
      "componentType": 5126,
      "count": 2135,
      "type": "VEC3",
      "min": [
        -0.9994150400161743,
        -0.9998257160186768,
        -0.9999804496765137
      ],
      "max": [
        0.9994149208068848,
        0.9997549653053284,
        0.9999293684959412
      ]
    },
    {
      "bufferView": 2,
      "componentType": 5126,
      "count": 2135,
      "type": "VEC2",
      "min": [
        0.1362711489200592,
        0.32815873622894287
      ],
      "max": [
        0.4889083504676819,
        0.8241809606552124
      ]
    },
    {
      "bufferView": 3,
      "componentType": 5126,
      "count": 2135,
      "type": "VEC2",
      "min": [
        0.06867685914039612,
        0.26082974672317505
      ],
      "max": [
        0.9385023713111877,
        0.9506973028182983
      ]
    },
    {
      "bufferView": 4,
      "componentType": 5126,
      "count": 1601.25,
      "type": "VEC4",
      "min": [
        0,
        0,
        0,
        0
      ],
      "max": [
        1,
        1,
        1,
        1
      ]
    },
    {
      "bufferView": 5,
      "componentType": 5123,
      "count": 5886,
      "type": "SCALAR",
      "min": [
        0
      ],
      "max": [
        2134
      ]
    }
  ],
  "extras": {
    "manifest": "Waist_Fancy_RSwarowls_Medium.materials.json"
  }
}