{
  "asset": {
    "version": "2.0",
    "generator": "prefab-to-gltf"
  },
  "scene": 0,
  "scenes": [
    {
      "name": "Abdomen_Cleodora",
      "nodes": [
        0
      ]
    }
  ],
  "nodes": [
    {
      "name": "Abdomen",
      "translation": [
        0,
        0,
        0
      ],
      "rotation": [
        0,
        0,
        0,
        1
      ],
      "scale": [
        1,
        1,
        1
      ],
      "mesh": 0
    }
  ],
  "meshes": [
    {
      "name": "Abdomen",
      "primitives": [
        {
          "attributes": {
            "POSITION": 0,
            "NORMAL": 1,
            "TEXCOORD_0": 2,
            "TEXCOORD_1": 3
          },
          "indices": 4,
          "material": 0,
          "mode": 4
        }
      ]
    }
  ],
  "materials": [
    {
      "name": "Gradmat1",
      "pbrMetallicRoughness": {
        "baseColorFactor": [
          1,
          1,
          1,
          1
        ],
        "metallicFactor": 0,
        "roughnessFactor": 1
      },
      "doubleSided": true,
      "extras": {
        "diffuseTexture": "Character/Common/Texture/CustomGradient_WeaponALL.png",
        "specularTexture": null,
        "normalMap": null
      }
    }
  ],
  "buffers": [
    {
      "uri": "Abdomen_Cleodora.bin",
      "byteLength": 623434
    }
  ],
  "bufferViews": [
    {
      "buffer": 0,
      "byteOffset": 0,
      "byteLength": 158340,
      "target": 34962
    },
    {
      "buffer": 0,
      "byteOffset": 158340,
      "byteLength": 158340,
      "target": 34962
    },
    {
      "buffer": 0,
      "byteOffset": 316680,
      "byteLength": 105560,
      "target": 34962
    },
    {
      "buffer": 0,
      "byteOffset": 422240,
      "byteLength": 105560,
      "target": 34962
    },
    {
      "buffer": 0,
      "byteOffset": 527800,
      "byteLength": 95634,
      "target": 34963
    }
  ],
  "accessors": [
    {
      "bufferView": 0,
      "componentType": 5126,
      "count": 13195,
      "type": "VEC3",
      "min": [
        -5.284560680389404,
        -0.025761760771274567,
        -14.093649864196777
      ],
      "max": [
        5.284560680389404,
        10.087950706481934,
        -0.47981032729148865
      ]
    },
    {
      "bufferView": 1,
      "componentType": 5126,
      "count": 13195,
      "type": "VEC3",
      "min": [
        -0.9999464154243469,
        -0.9999876022338867,
        -0.9997690916061401
      ],
      "max": [
        0.9999464154243469,
        0.9999850988388062,
        0.99947190284729
      ]
    },
    {
      "bufferView": 2,
      "componentType": 5126,
      "count": 13195,
      "type": "VEC2",
      "min": [
        0.003937640227377415,
        0.18037718534469604
      ],
      "max": [
        0.47464969754219055,
        0.993212103843689
      ]
    },
    {
      "bufferView": 3,
      "componentType": 5126,
      "count": 13195,
      "type": "VEC2",
      "min": [
        0,
        0.02789139747619629
      ],
      "max": [
        0.9826029539108276,
        1
      ]
    },
    {
      "bufferView": 4,
      "componentType": 5123,
      "count": 47817,
      "type": "SCALAR",
      "min": [
        0
      ],
      "max": [
        13194
      ]
    }
  ],
  "extras": {
    "manifest": "Abdomen_Cleodora.materials.json"
  }
}