{
  "asset": {
    "version": "2.0",
    "generator": "prefab-to-gltf"
  },
  "scene": 0,
  "scenes": [
    {
      "name": "Ursid_Bear_Beige",
      "nodes": [
        0
      ]
    }
  ],
  "nodes": [
    {
      "name": "model_0",
      "translation": [
        0,
        0,
        0
      ],
      "rotation": [
        0,
        0,
        0,
        1
      ],
      "scale": [
        1,
        1,
        1
      ],
      "children": [
        1,
        2,
        3,
        4
      ]
    },
    {
      "name": "eyes",
      "translation": [
        0,
        0,
        0
      ],
      "rotation": [
        0,
        0,
        0.7071056365966797,
        0.7071079257745626
      ],
      "scale": [
        1,
        1,
        1
      ],
      "mesh": 0
    },
    {
      "name": "Bear_Low",
      "translation": [
        0,
        0,
        0
      ],
      "rotation": [
        0,
        0,
        0.7071056365966797,
        0.7071079257745626
      ],
      "scale": [
        1,
        1,
        1
      ],
      "mesh": 1
    },
    {
      "name": "Teeths_Down",
      "translation": [
        0,
        0,
        0
      ],
      "rotation": [
        0,
        0,
        0.7071056365966797,
        0.7071079257745626
      ],
      "scale": [
        1,
        1,
        1
      ],
      "mesh": 2
    },
    {
      "name": "Teeth_Up",
      "translation": [
        0,
        0,
        0
      ],
      "rotation": [
        0,
        0,
        0.7071056365966797,
        0.7071079257745626
      ],
      "scale": [
        1,
        1,
        1
      ],
      "mesh": 3
    }
  ],
  "meshes": [
    {
      "name": "eyes",
      "primitives": [
        {
          "attributes": {
            "POSITION": 0,
            "NORMAL": 1,
            "TEXCOORD_0": 2,
            "TEXCOORD_1": 3,
            "COLOR_0": 4
          },
          "indices": 5,
          "material": 0,
          "mode": 4
        }
      ]
    },
    {
      "name": "Bear_Low",
      "primitives": [
        {
          "attributes": {
            "POSITION": 6,
            "NORMAL": 7,
            "TEXCOORD_0": 8,
            "TEXCOORD_1": 9,
            "COLOR_0": 10
          },
          "indices": 11,
          "material": 0,
          "mode": 4
        },
        {
          "attributes": {
            "POSITION": 12,
            "NORMAL": 13,
            "TEXCOORD_0": 14,
            "TEXCOORD_1": 15,
            "COLOR_0": 16
          },
          "indices": 17,
          "material": 1,
          "mode": 4
        }
      ]
    },
    {
      "name": "Teeths_Down",
      "primitives": [
        {
          "attributes": {
            "POSITION": 18,
            "NORMAL": 19,
            "TEXCOORD_0": 20,
            "TEXCOORD_1": 21,
            "COLOR_0": 22
          },
          "indices": 23,
          "material": 0,
          "mode": 4
        }
      ]
    },
    {
      "name": "Teeth_Up",
      "primitives": [
        {
          "attributes": {
            "POSITION": 24,
            "NORMAL": 25,
            "TEXCOORD_0": 26,
            "TEXCOORD_1": 27,
            "COLOR_0": 28
          },
          "indices": 29,
          "material": 0,
          "mode": 4
        }
      ]
    }
  ],
  "materials": [
    {
      "name": "MatSlots",
      "pbrMetallicRoughness": {
        "baseColorFactor": [
          1,
          1,
          1,
          1
        ],
        "metallicFactor": 0,
        "roughnessFactor": 1
      },
      "doubleSided": true,
      "extras": {
        "diffuseTexture": null,
        "specularTexture": null,
        "normalMap": null
      }
    },
    {
      "name": "Outline",
      "pbrMetallicRoughness": {
        "baseColorFactor": [
          1,
          1,
          1,
          1
        ],
        "metallicFactor": 0,
        "roughnessFactor": 1
      },
      "doubleSided": true,
      "extras": {
        "diffuseTexture": null,
        "specularTexture": null,
        "normalMap": null
      }
    }
  ],
  "buffers": [
    {
      "uri": "Ursid_Bear_Beige.bin",
      "byteLength": 2311608
    }
  ],
  "bufferViews": [
    {
      "buffer": 0,
      "byteOffset": 0,
      "byteLength": 1944,
      "target": 34962
    },
    {
      "buffer": 0,
      "byteOffset": 1944,
      "byteLength": 1944,
      "target": 34962
    },
    {
      "buffer": 0,
      "byteOffset": 3888,
      "byteLength": 1296,
      "target": 34962
    },
    {
      "buffer": 0,
      "byteOffset": 5184,
      "byteLength": 1296,
      "target": 34962
    },
    {
      "buffer": 0,
      "byteOffset": 6480,
      "byteLength": 1944,
      "target": 34962
    },
    {
      "buffer": 0,
      "byteOffset": 8424,
      "byteLength": 1728,
      "target": 34963
    },
    {
      "buffer": 0,
      "byteOffset": 10152,
      "byteLength": 241752,
      "target": 34962
    },
    {
      "buffer": 0,
      "byteOffset": 251904,
      "byteLength": 241752,
      "target": 34962
    },
    {
      "buffer": 0,
      "byteOffset": 493656,
      "byteLength": 161168,
      "target": 34962
    },
    {
      "buffer": 0,
      "byteOffset": 654824,
      "byteLength": 161168,
      "target": 34962
    },
    {
      "buffer": 0,
      "byteOffset": 815992,
      "byteLength": 241752,
      "target": 34962
    },
    {
      "buffer": 0,
      "byteOffset": 1057744,
      "byteLength": 75846,
      "target": 34963
    },
    {
      "buffer": 0,
      "byteOffset": 1133592,
      "byteLength": 241752,
      "target": 34962
    },
    {
      "buffer": 0,
      "byteOffset": 1375344,
      "byteLength": 241752,
      "target": 34962
    },
    {
      "buffer": 0,
      "byteOffset": 1617096,
      "byteLength": 161168,
      "target": 34962
    },
    {
      "buffer": 0,
      "byteOffset": 1778264,
      "byteLength": 161168,
      "target": 34962
    },
    {
      "buffer": 0,
      "byteOffset": 1939432,
      "byteLength": 241752,
      "target": 34962
    },
    {
      "buffer": 0,
      "byteOffset": 2181184,
      "byteLength": 75846,
      "target": 34963
    },
    {
      "buffer": 0,
      "byteOffset": 2257032,
      "byteLength": 5136,
      "target": 34962
    },
    {
      "buffer": 0,
      "byteOffset": 2262168,
      "byteLength": 5136,
      "target": 34962
    },
    {
      "buffer": 0,
      "byteOffset": 2267304,
      "byteLength": 3424,
      "target": 34962
    },
    {
      "buffer": 0,
      "byteOffset": 2270728,
      "byteLength": 3424,
      "target": 34962
    },
    {
      "buffer": 0,
      "byteOffset": 2274152,
      "byteLength": 5136,
      "target": 34962
    },
    {
      "buffer": 0,
      "byteOffset": 2279288,
      "byteLength": 3120,
      "target": 34963
    },
    {
      "buffer": 0,
      "byteOffset": 2282408,
      "byteLength": 5880,
      "target": 34962
    },
    {
      "buffer": 0,
      "byteOffset": 2288288,
      "byteLength": 5880,
      "target": 34962
    },
    {
      "buffer": 0,
      "byteOffset": 2294168,
      "byteLength": 3920,
      "target": 34962
    },
    {
      "buffer": 0,
      "byteOffset": 2298088,
      "byteLength": 3920,
      "target": 34962
    },
    {
      "buffer": 0,
      "byteOffset": 2302008,
      "byteLength": 5880,
      "target": 34962
    },
    {
      "buffer": 0,
      "byteOffset": 2307888,
      "byteLength": 3720,
      "target": 34963
    }
  ],
  "accessors": [
    {
      "bufferView": 0,
      "componentType": 5126,
      "count": 162,
      "type": "VEC3",
      "min": [
        -0.31433185935020447,
        -2.2261006832122803,
        1.3993600606918335
      ],
      "max": [
        0.31433185935020447,
        -2.0998198986053467,
        1.6077814102172852
      ]
    },
    {
      "bufferView": 1,
      "componentType": 5126,
      "count": 162,
      "type": "VEC3",
      "min": [
        -0.9848169684410095,
        -0.9900992512702942,
        -0.9872629642486572
      ],
      "max": [
        0.9848169684410095,
        0.008997369557619095,
        0.7958543300628662
      ]
    },
    {
      "bufferView": 2,
      "componentType": 5126,
      "count": 162,
      "type": "VEC2",
      "min": [
        0.15522274374961853,
        0.6445695161819458
      ],
      "max": [
        0.2382127344608307,
        0.7024505734443665
      ]
    },
    {
      "bufferView": 3,
      "componentType": 5126,
      "count": 162,
      "type": "VEC2",
      "min": [
        0.04401157796382904,
        0.9822448492050171
      ],
      "max": [
        0.04734058678150177,
        0.9845666885375977
      ]
    },
    {
      "bufferView": 4,
      "componentType": 5126,
      "count": 121.5,
      "type": "VEC4",
      "min": [
        0,
        0,
        0,
        0
      ],
      "max": [
        0,
        0,
        0,
        0
      ]
    },
    {
      "bufferView": 5,
      "componentType": 5123,
      "count": 864,
      "type": "SCALAR",
      "min": [
        0
      ],
      "max": [
        161
      ]
    },
    {
      "bufferView": 6,
      "componentType": 5126,
      "count": 20146,
      "type": "VEC3",
      "min": [
        -1.2620705366134644,
        -2.638092041015625,
        -0.13752871751785278
      ],
      "max": [
        1.2620705366134644,
        2.423253297805786,
        3.2030727863311768
      ]
    },
    {
      "bufferView": 7,
      "componentType": 5126,
      "count": 20146,
      "type": "VEC3",
      "min": [
        -0.999597430229187,
        -0.999911367893219,
        -0.9999998807907104
      ],
      "max": [
        0.9995628595352173,
        0.9999490976333618,
        0.9999991655349731
      ]
    },
    {
      "bufferView": 8,
      "componentType": 5126,
      "count": 20146,
      "type": "VEC2",
      "min": [
        0.008734304457902908,
        0.10617142915725708
      ],
      "max": [
        0.6910310983657837,
        0.9814692735671997
      ]
    },
    {
      "bufferView": 9,
      "componentType": 5126,
      "count": 20146,
      "type": "VEC2",
      "min": [
        0.029896460473537445,
        0.9587435722351074
      ],
      "max": [
        0.029896466061472893,
        0.9587435722351074
      ]
    },
    {
      "bufferView": 10,
      "componentType": 5126,
      "count": 15109.5,
      "type": "VEC4",
      "min": [
        0,
        0,
        0,
        0
      ],
      "max": [
        1.0000461339950562,
        1.0000461339950562,
        1.0000461339950562,
        1.0000461339950562
      ]
    },
    {
      "bufferView": 11,
      "componentType": 5123,
      "count": 37923,
      "type": "SCALAR",
      "min": [
        0
      ],
      "max": [
        10072
      ]
    },
    {
      "bufferView": 12,
      "componentType": 5126,
      "count": 20146,
      "type": "VEC3",
      "min": [
        -1.2620705366134644,
        -2.638092041015625,
        -0.13752871751785278
      ],
      "max": [
        1.2620705366134644,
        2.423253297805786,
        3.2030727863311768
      ]
    },
    {
      "bufferView": 13,
      "componentType": 5126,
      "count": 20146,
      "type": "VEC3",
      "min": [
        -0.999597430229187,
        -0.999911367893219,
        -0.9999998807907104
      ],
      "max": [
        0.9995628595352173,
        0.9999490976333618,
        0.9999991655349731
      ]
    },
    {
      "bufferView": 14,
      "componentType": 5126,
      "count": 20146,
      "type": "VEC2",
      "min": [
        0.008734304457902908,
        0.10617142915725708
      ],
      "max": [
        0.6910310983657837,
        0.9814692735671997
      ]
    },
    {
      "bufferView": 15,
      "componentType": 5126,
      "count": 20146,
      "type": "VEC2",
      "min": [
        0.029896460473537445,
        0.9587435722351074
      ],
      "max": [
        0.029896466061472893,
        0.9587435722351074
      ]
    },
    {
      "bufferView": 16,
      "componentType": 5126,
      "count": 15109.5,
      "type": "VEC4",
      "min": [
        0,
        0,
        0,
        0
      ],
      "max": [
        1.0000461339950562,
        1.0000461339950562,
        1.0000461339950562,
        1.0000461339950562
      ]
    },
    {
      "bufferView": 17,
      "componentType": 5123,
      "count": 37923,
      "type": "SCALAR",
      "min": [
        0
      ],
      "max": [
        20145
      ]
    },
    {
      "bufferView": 18,
      "componentType": 5126,
      "count": 428,
      "type": "VEC3",
      "min": [
        -0.31747016310691833,
        -2.3793134689331055,
        0.9516602158546448
      ],
      "max": [
        0.31747016310691833,
        -1.8661222457885742,
        1.2089674472808838
      ]
    },
    {
      "bufferView": 19,
      "componentType": 5126,
      "count": 428,
      "type": "VEC3",
      "min": [
        -0.9959138035774231,
        -0.9871633648872375,
        -0.8603571653366089
      ],
      "max": [
        0.9959138035774231,
        0.8524227142333984,
        0.9943499565124512
      ]
    },
    {
      "bufferView": 20,
      "componentType": 5126,
      "count": 428,
      "type": "VEC2",
      "min": [
        0.2778454124927521,
        0.26501548290252686
      ],
      "max": [
        0.3438052535057068,
        0.9805465340614319
      ]
    },
    {
      "bufferView": 21,
      "componentType": 5126,
      "count": 428,
      "type": "VEC2",
      "min": [
        0,
        1
      ],
      "max": [
        0,
        1
      ]
    },
    {
      "bufferView": 22,
      "componentType": 5126,
      "count": 321,
      "type": "VEC4",
      "min": [
        0,
        0,
        0,
        0
      ],
      "max": [
        0.5000187754631042,
        0.500018835067749,
        0.5000187754631042,
        0.5000187754631042
      ]
    },
    {
      "bufferView": 23,
      "componentType": 5123,
      "count": 1560,
      "type": "SCALAR",
      "min": [
        0
      ],
      "max": [
        427
      ]
    },
    {
      "bufferView": 24,
      "componentType": 5126,
      "count": 490,
      "type": "VEC3",
      "min": [
        -0.22148340940475464,
        -2.461160659790039,
        0.998418390750885
      ],
      "max": [
        0.22148340940475464,
        -1.907835841178894,
        1.3258509635925293
      ]
    },
    {
      "bufferView": 25,
      "componentType": 5126,
      "count": 490,
      "type": "VEC3",
      "min": [
        -0.9973240494728088,
        -0.9793940186500549,
        -0.9988080859184265
      ],
      "max": [
        0.9973236918449402,
        0.9966180324554443,
        0.6601072549819946
      ]
    },
    {
      "bufferView": 26,
      "componentType": 5126,
      "count": 490,
      "type": "VEC2",
      "min": [
        0.26076948642730713,
        0.3347792625427246
      ],
      "max": [
        0.3489609956741333,
        0.979928731918335
      ]
    },
    {
      "bufferView": 27,
      "componentType": 5126,
      "count": 490,
      "type": "VEC2",
      "min": [
        0,
        1
      ],
      "max": [
        0,
        1
      ]
    },
    {
      "bufferView": 28,
      "componentType": 5126,
      "count": 367.5,
      "type": "VEC4",
      "min": [
        0,
        0,
        0,
        0
      ],
      "max": [
        0.5000187754631042,
        0.5000187754631042,
        0.5000187754631042,
        0.5000187754631042
      ]
    },
    {
      "bufferView": 29,
      "componentType": 5123,
      "count": 1860,
      "type": "SCALAR",
      "min": [
        0
      ],
      "max": [
        489
      ]
    }
  ],
  "extras": {
    "manifest": "Ursid_Bear_Beige.materials.json"
  }
}