{
  "asset": {
    "version": "2.0",
    "generator": "prefab-to-gltf"
  },
  "scene": 0,
  "scenes": [
    {
      "name": "Sword_GuardCaptain_01",
      "nodes": [
        0
      ]
    }
  ],
  "nodes": [
    {
      "name": "GuardCaptain_Sword",
      "translation": [
        0,
        0,
        0
      ],
      "rotation": [
        0,
        0,
        0,
        1
      ],
      "scale": [
        1,
        1,
        1
      ],
      "mesh": 0
    }
  ],
  "meshes": [
    {
      "name": "GuardCaptain_Sword",
      "primitives": [
        {
          "attributes": {
            "POSITION": 0,
            "NORMAL": 1,
            "TEXCOORD_0": 2,
            "TEXCOORD_1": 3
          },
          "indices": 4,
          "material": 0,
          "mode": 4
        }
      ]
    }
  ],
  "materials": [
    {
      "name": "lambert7",
      "pbrMetallicRoughness": {
        "baseColorFactor": [
          1,
          1,
          1,
          1
        ],
        "metallicFactor": 0,
        "roughnessFactor": 1
      },
      "doubleSided": true,
      "extras": {
        "diffuseTexture": "Character/Common/Texture/CustomGradient_Guard.png",
        "specularTexture": null,
        "normalMap": null
      }
    }
  ],
  "buffers": [
    {
      "uri": "Sword_GuardCaptain_01.bin",
      "byteLength": 64740
    }
  ],
  "bufferViews": [
    {
      "buffer": 0,
      "byteOffset": 0,
      "byteLength": 17388,
      "target": 34962
    },
    {
      "buffer": 0,
      "byteOffset": 17388,
      "byteLength": 17388,
      "target": 34962
    },
    {
      "buffer": 0,
      "byteOffset": 34776,
      "byteLength": 11592,
      "target": 34962
    },
    {
      "buffer": 0,
      "byteOffset": 46368,
      "byteLength": 11592,
      "target": 34962
    },
    {
      "buffer": 0,
      "byteOffset": 57960,
      "byteLength": 6780,
      "target": 34963
    }
  ],
  "accessors": [
    {
      "bufferView": 0,
      "componentType": 5126,
      "count": 1449,
      "type": "VEC3",
      "min": [
        -0.09381662309169769,
        -0.39163708686828613,
        -0.1815747618675232
      ],
      "max": [
        0.09381663054227829,
        1.1900358200073242,
        0.1815747320652008
      ]
    },
    {
      "bufferView": 1,
      "componentType": 5126,
      "count": 1449,
      "type": "VEC3",
      "min": [
        -1,
        -1,
        -0.9998189210891724
      ],
      "max": [
        1,
        0.9946908354759216,
        0.9998189210891724
      ]
    },
    {
      "bufferView": 2,
      "componentType": 5126,
      "count": 1449,
      "type": "VEC2",
      "min": [
        0.14596951007843018,
        0.295488178730011
      ],
      "max": [
        0.8127099275588989,
        0.8966303467750549
      ]
    },
    {
      "bufferView": 3,
      "componentType": 5126,
      "count": 1449,
      "type": "VEC2",
      "min": [
        0,
        0.10180151462554932
      ],
      "max": [
        0.9523227214813232,
        1
      ]
    },
    {
      "bufferView": 4,
      "componentType": 5123,
      "count": 3390,
      "type": "SCALAR",
      "min": [
        0
      ],
      "max": [
        1448
      ]
    }
  ],
  "extras": {
    "manifest": "Sword_GuardCaptain_01.materials.json"
  }
}