{
  "asset": {
    "version": "2.0",
    "generator": "prefab-to-gltf"
  },
  "scene": 0,
  "scenes": [
    {
      "name": "Sword_Human_Bee",
      "nodes": [
        0
      ]
    }
  ],
  "nodes": [
    {
      "name": "model_0",
      "translation": [
        0,
        0,
        0
      ],
      "rotation": [
        0,
        0,
        0,
        1
      ],
      "scale": [
        1,
        1,
        1
      ],
      "children": [
        1,
        2,
        3
      ]
    },
    {
      "name": "Plane",
      "translation": [
        0,
        0,
        0
      ],
      "rotation": [
        0.5,
        -0.49999842047691345,
        -0.5,
        0.5000015795180968
      ],
      "scale": [
        1,
        1,
        1
      ],
      "mesh": 0
    },
    {
      "name": "Handle",
      "translation": [
        0,
        0,
        0
      ],
      "rotation": [
        0.5,
        -0.49999842047691345,
        -0.5,
        0.5000015795180968
      ],
      "scale": [
        1,
        1,
        1
      ],
      "mesh": 1
    },
    {
      "name": "Plane_003",
      "translation": [
        0,
        0,
        0
      ],
      "rotation": [
        0,
        0,
        -0.7071056365966797,
        0.7071079257745626
      ],
      "scale": [
        1,
        1,
        1
      ],
      "mesh": 2
    }
  ],
  "meshes": [
    {
      "name": "Plane",
      "primitives": [
        {
          "attributes": {
            "POSITION": 0,
            "NORMAL": 1,
            "TEXCOORD_0": 2,
            "TEXCOORD_1": 3,
            "COLOR_0": 4
          },
          "indices": 5,
          "material": 0,
          "mode": 4
        }
      ]
    },
    {
      "name": "Handle",
      "primitives": [
        {
          "attributes": {
            "POSITION": 6,
            "NORMAL": 7,
            "TEXCOORD_0": 8,
            "TEXCOORD_1": 9,
            "COLOR_0": 10
          },
          "indices": 11,
          "material": 0,
          "mode": 4
        }
      ]
    },
    {
      "name": "Plane_003",
      "primitives": [
        {
          "attributes": {
            "POSITION": 12,
            "NORMAL": 13,
            "TEXCOORD_0": 14,
            "TEXCOORD_1": 15,
            "COLOR_0": 16
          },
          "indices": 17,
          "material": 0,
          "mode": 4
        }
      ]
    }
  ],
  "materials": [
    {
      "name": "MatSlots_WEAPONS_001",
      "pbrMetallicRoughness": {
        "baseColorFactor": [
          1,
          1,
          1,
          1
        ],
        "metallicFactor": 0,
        "roughnessFactor": 1
      },
      "doubleSided": true,
      "extras": {
        "diffuseTexture": null,
        "specularTexture": null,
        "normalMap": null
      }
    },
    {
      "name": "Outline",
      "pbrMetallicRoughness": {
        "baseColorFactor": [
          1,
          1,
          1,
          1
        ],
        "metallicFactor": 0,
        "roughnessFactor": 1
      },
      "doubleSided": true,
      "extras": {
        "diffuseTexture": null,
        "specularTexture": null,
        "normalMap": null
      }
    },
    {
      "name": "Outline_001",
      "pbrMetallicRoughness": {
        "baseColorFactor": [
          1,
          1,
          1,
          1
        ],
        "metallicFactor": 0,
        "roughnessFactor": 1
      },
      "doubleSided": true,
      "extras": {
        "diffuseTexture": null,
        "specularTexture": null,
        "normalMap": null
      }
    }
  ],
  "buffers": [
    {
      "uri": "Sword_Human_Bee.bin",
      "byteLength": 281300
    }
  ],
  "bufferViews": [
    {
      "buffer": 0,
      "byteOffset": 0,
      "byteLength": 41268,
      "target": 34962
    },
    {
      "buffer": 0,
      "byteOffset": 41268,
      "byteLength": 41268,
      "target": 34962
    },
    {
      "buffer": 0,
      "byteOffset": 82536,
      "byteLength": 27512,
      "target": 34962
    },
    {
      "buffer": 0,
      "byteOffset": 110048,
      "byteLength": 27512,
      "target": 34962
    },
    {
      "buffer": 0,
      "byteOffset": 137560,
      "byteLength": 41268,
      "target": 34962
    },
    {
      "buffer": 0,
      "byteOffset": 178828,
      "byteLength": 20892,
      "target": 34963
    },
    {
      "buffer": 0,
      "byteOffset": 199720,
      "byteLength": 9756,
      "target": 34962
    },
    {
      "buffer": 0,
      "byteOffset": 209476,
      "byteLength": 9756,
      "target": 34962
    },
    {
      "buffer": 0,
      "byteOffset": 219232,
      "byteLength": 6504,
      "target": 34962
    },
    {
      "buffer": 0,
      "byteOffset": 225736,
      "byteLength": 6504,
      "target": 34962
    },
    {
      "buffer": 0,
      "byteOffset": 232240,
      "byteLength": 9756,
      "target": 34962
    },
    {
      "buffer": 0,
      "byteOffset": 241996,
      "byteLength": 4608,
      "target": 34963
    },
    {
      "buffer": 0,
      "byteOffset": 246604,
      "byteLength": 7392,
      "target": 34962
    },
    {
      "buffer": 0,
      "byteOffset": 253996,
      "byteLength": 7392,
      "target": 34962
    },
    {
      "buffer": 0,
      "byteOffset": 261388,
      "byteLength": 4928,
      "target": 34962
    },
    {
      "buffer": 0,
      "byteOffset": 266316,
      "byteLength": 4928,
      "target": 34962
    },
    {
      "buffer": 0,
      "byteOffset": 271244,
      "byteLength": 7392,
      "target": 34962
    },
    {
      "buffer": 0,
      "byteOffset": 278636,
      "byteLength": 2664,
      "target": 34963
    }
  ],
  "accessors": [
    {
      "bufferView": 0,
      "componentType": 5126,
      "count": 3439,
      "type": "VEC3",
      "min": [
        -0.2744012176990509,
        -0.021147698163986206,
        -0.08402520418167114
      ],
      "max": [
        0.2744012176990509,
        1.3077092170715332,
        0.08402520418167114
      ]
    },
    {
      "bufferView": 1,
      "componentType": 5126,
      "count": 3439,
      "type": "VEC3",
      "min": [
        -1,
        -1,
        -1
      ],
      "max": [
        0.9999996423721313,
        0.9212480783462524,
        1
      ]
    },
    {
      "bufferView": 2,
      "componentType": 5126,
      "count": 3439,
      "type": "VEC2",
      "min": [
        0.07552647590637207,
        0.1548416018486023
      ],
      "max": [
        0.7256271839141846,
        0.9684616327285767
      ]
    },
    {
      "bufferView": 3,
      "componentType": 5126,
      "count": 3439,
      "type": "VEC2",
      "min": [
        0.08595211803913116,
        0.31423240900039673
      ],
      "max": [
        0.9459438323974609,
        0.9350795149803162
      ]
    },
    {
      "bufferView": 4,
      "componentType": 5126,
      "count": 2579.25,
      "type": "VEC4",
      "min": [
        0,
        0,
        0,
        0
      ],
      "max": [
        1,
        1,
        1,
        1
      ]
    },
    {
      "bufferView": 5,
      "componentType": 5123,
      "count": 10446,
      "type": "SCALAR",
      "min": [
        0
      ],
      "max": [
        3438
      ]
    },
    {
      "bufferView": 6,
      "componentType": 5126,
      "count": 813,
      "type": "VEC3",
      "min": [
        -0.054754242300987244,
        -0.4254022538661957,
        -0.05287126079201698
      ],
      "max": [
        0.05625731498003006,
        -0.021147698163986206,
        0.05287126079201698
      ]
    },
    {
      "bufferView": 7,
      "componentType": 5126,
      "count": 813,
      "type": "VEC3",
      "min": [
        -0.9999191761016846,
        -0.999983549118042,
        -0.9997145533561707
      ],
      "max": [
        0.9998839497566223,
        0.9629485607147217,
        0.9997145533561707
      ]
    },
    {
      "bufferView": 8,
      "componentType": 5126,
      "count": 813,
      "type": "VEC2",
      "min": [
        0.17571097612380981,
        0.5876044034957886
      ],
      "max": [
        0.7301758527755737,
        0.9145723581314087
      ]
    },
    {
      "bufferView": 9,
      "componentType": 5126,
      "count": 813,
      "type": "VEC2",
      "min": [
        0.04669344425201416,
        0.9232196807861328
      ],
      "max": [
        0.26584842801094055,
        0.9509141445159912
      ]
    },
    {
      "bufferView": 10,
      "componentType": 5126,
      "count": 609.75,
      "type": "VEC4",
      "min": [
        0,
        0,
        0,
        0
      ],
      "max": [
        1,
        1,
        1,
        1
      ]
    },
    {
      "bufferView": 11,
      "componentType": 5123,
      "count": 2304,
      "type": "SCALAR",
      "min": [
        0
      ],
      "max": [
        812
      ]
    },
    {
      "bufferView": 12,
      "componentType": 5126,
      "count": 616,
      "type": "VEC3",
      "min": [
        -0.3695979714393616,
        -0.08484123647212982,
        -0.12176013737916946
      ],
      "max": [
        0.3695979714393616,
        0.08484123647212982,
        0.09169463813304901
      ]
    },
    {
      "bufferView": 13,
      "componentType": 5126,
      "count": 616,
      "type": "VEC3",
      "min": [
        -0.46102374792099,
        -0.9051821231842041,
        0.18144668638706207
      ],
      "max": [
        0.46102374792099,
        0.9051821231842041,
        0.523345410823822
      ]
    },
    {
      "bufferView": 14,
      "componentType": 5126,
      "count": 616,
      "type": "VEC2",
      "min": [
        0.2840079367160797,
        0.23316657543182373
      ],
      "max": [
        0.31584569811820984,
        0.8579576015472412
      ]
    },
    {
      "bufferView": 15,
      "componentType": 5126,
      "count": 616,
      "type": "VEC2",
      "min": [
        0.30199599266052246,
        0.31386369466781616
      ],
      "max": [
        0.9502745270729065,
        0.9049370288848877
      ]
    },
    {
      "bufferView": 16,
      "componentType": 5126,
      "count": 462,
      "type": "VEC4",
      "min": [
        0,
        0,
        0,
        0
      ],
      "max": [
        1,
        1,
        1,
        1
      ]
    },
    {
      "bufferView": 17,
      "componentType": 5123,
      "count": 1332,
      "type": "SCALAR",
      "min": [
        0
      ],
      "max": [
        615
      ]
    }
  ],
  "extras": {
    "manifest": "Sword_Human_Bee.materials.json"
  }
}