{
  "asset": {
    "version": "2.0",
    "generator": "prefab-to-gltf"
  },
  "scene": 0,
  "scenes": [
    {
      "name": "Sword_Starter",
      "nodes": [
        0
      ]
    }
  ],
  "nodes": [
    {
      "name": "Sword_Starter",
      "translation": [
        0,
        0,
        0
      ],
      "rotation": [
        0,
        0,
        0,
        1
      ],
      "scale": [
        1,
        1,
        1
      ],
      "mesh": 0
    }
  ],
  "meshes": [
    {
      "name": "Sword_Starter",
      "primitives": [
        {
          "attributes": {
            "POSITION": 0,
            "NORMAL": 1,
            "TEXCOORD_0": 2,
            "TEXCOORD_1": 3,
            "COLOR_0": 4
          },
          "indices": 5,
          "material": 0,
          "mode": 4
        }
      ]
    }
  ],
  "materials": [
    {
      "name": "MatSlots_WEAPONS",
      "pbrMetallicRoughness": {
        "baseColorFactor": [
          1,
          1,
          1,
          1
        ],
        "metallicFactor": 0,
        "roughnessFactor": 1
      },
      "doubleSided": true,
      "extras": {
        "diffuseTexture": null,
        "specularTexture": null,
        "normalMap": null
      }
    },
    {
      "name": "Outline",
      "pbrMetallicRoughness": {
        "baseColorFactor": [
          1,
          1,
          1,
          1
        ],
        "metallicFactor": 0,
        "roughnessFactor": 1
      },
      "doubleSided": true,
      "extras": {
        "diffuseTexture": null,
        "specularTexture": null,
        "normalMap": null
      }
    }
  ],
  "buffers": [
    {
      "uri": "Sword_Starter.bin",
      "byteLength": 35412
    }
  ],
  "bufferViews": [
    {
      "buffer": 0,
      "byteOffset": 0,
      "byteLength": 7380,
      "target": 34962
    },
    {
      "buffer": 0,
      "byteOffset": 7380,
      "byteLength": 7380,
      "target": 34962
    },
    {
      "buffer": 0,
      "byteOffset": 14760,
      "byteLength": 4920,
      "target": 34962
    },
    {
      "buffer": 0,
      "byteOffset": 19680,
      "byteLength": 4920,
      "target": 34962
    },
    {
      "buffer": 0,
      "byteOffset": 24600,
      "byteLength": 7380,
      "target": 34962
    },
    {
      "buffer": 0,
      "byteOffset": 31980,
      "byteLength": 3432,
      "target": 34963
    }
  ],
  "accessors": [
    {
      "bufferView": 0,
      "componentType": 5126,
      "count": 615,
      "type": "VEC3",
      "min": [
        -0.04263679310679436,
        -0.1808529794216156,
        -0.3547743856906891
      ],
      "max": [
        0.04263679310679436,
        0.18086110055446625,
        1.3106874227523804
      ]
    },
    {
      "bufferView": 1,
      "componentType": 5126,
      "count": 615,
      "type": "VEC3",
      "min": [
        -1,
        -0.9999999403953552,
        -1
      ],
      "max": [
        1,
        0.9999999403953552,
        0.9115005135536194
      ]
    },
    {
      "bufferView": 2,
      "componentType": 5126,
      "count": 615,
      "type": "VEC2",
      "min": [
        0.023878108710050583,
        0.21385258436203003
      ],
      "max": [
        0.339802086353302,
        0.7334136962890625
      ]
    },
    {
      "bufferView": 3,
      "componentType": 5126,
      "count": 615,
      "type": "VEC2",
      "min": [
        0.02750067412853241,
        0.11355507373809814
      ],
      "max": [
        0.9437229037284851,
        0.9648158550262451
      ]
    },
    {
      "bufferView": 4,
      "componentType": 5126,
      "count": 461.25,
      "type": "VEC4",
      "min": [
        0,
        0,
        0,
        0
      ],
      "max": [
        0.9999715685844421,
        0.9999715685844421,
        0.9999715685844421,
        0.9999715685844421
      ]
    },
    {
      "bufferView": 5,
      "componentType": 5123,
      "count": 1716,
      "type": "SCALAR",
      "min": [
        0
      ],
      "max": [
        614
      ]
    }
  ],
  "extras": {
    "manifest": "Sword_Starter.materials.json"
  }
}