{
  "asset": {
    "version": "2.0",
    "generator": "prefab-to-gltf"
  },
  "scene": 0,
  "scenes": [
    {
      "name": "Sword_R8_R1Craft_Fig",
      "nodes": [
        0
      ]
    }
  ],
  "nodes": [
    {
      "name": "Sword_R8_R1Craft_Fig",
      "translation": [
        0,
        0,
        0
      ],
      "rotation": [
        0,
        0,
        0.7071056365966797,
        0.7071079257745626
      ],
      "scale": [
        1,
        1,
        1
      ],
      "mesh": 0
    }
  ],
  "meshes": [
    {
      "name": "Sword_R8_R1Craft_Fig",
      "primitives": [
        {
          "attributes": {
            "POSITION": 0,
            "NORMAL": 1,
            "TEXCOORD_0": 2,
            "TEXCOORD_1": 3
          },
          "indices": 4,
          "material": 0,
          "mode": 4
        }
      ]
    }
  ],
  "materials": [
    {
      "name": "MatSlots_WEAPONS_001",
      "pbrMetallicRoughness": {
        "baseColorFactor": [
          1,
          1,
          1,
          1
        ],
        "metallicFactor": 0,
        "roughnessFactor": 1
      },
      "doubleSided": true,
      "extras": {
        "diffuseTexture": null,
        "specularTexture": null,
        "normalMap": null
      }
    },
    {
      "name": "Outline_001",
      "pbrMetallicRoughness": {
        "baseColorFactor": [
          1,
          1,
          1,
          1
        ],
        "metallicFactor": 0,
        "roughnessFactor": 1
      },
      "doubleSided": true,
      "extras": {
        "diffuseTexture": null,
        "specularTexture": null,
        "normalMap": null
      }
    },
    {
      "name": "Outline",
      "pbrMetallicRoughness": {
        "baseColorFactor": [
          1,
          1,
          1,
          1
        ],
        "metallicFactor": 0,
        "roughnessFactor": 1
      },
      "doubleSided": true,
      "extras": {
        "diffuseTexture": null,
        "specularTexture": null,
        "normalMap": null
      }
    }
  ],
  "buffers": [
    {
      "uri": "Sword_R8_R1Craft_Fig.bin",
      "byteLength": 64096
    }
  ],
  "bufferViews": [
    {
      "buffer": 0,
      "byteOffset": 0,
      "byteLength": 16932,
      "target": 34962
    },
    {
      "buffer": 0,
      "byteOffset": 16932,
      "byteLength": 16932,
      "target": 34962
    },
    {
      "buffer": 0,
      "byteOffset": 33864,
      "byteLength": 11288,
      "target": 34962
    },
    {
      "buffer": 0,
      "byteOffset": 45152,
      "byteLength": 11288,
      "target": 34962
    },
    {
      "buffer": 0,
      "byteOffset": 56440,
      "byteLength": 7656,
      "target": 34963
    }
  ],
  "accessors": [
    {
      "bufferView": 0,
      "componentType": 5126,
      "count": 1411,
      "type": "VEC3",
      "min": [
        -0.20838364958763123,
        -0.09404461085796356,
        -0.508858859539032
      ],
      "max": [
        0.18610134720802307,
        0.10053935647010803,
        1.2978817224502563
      ]
    },
    {
      "bufferView": 1,
      "componentType": 5126,
      "count": 1411,
      "type": "VEC3",
      "min": [
        -0.9999869465827942,
        -1,
        -0.9993311762809753
      ],
      "max": [
        0.999998927116394,
        0.9999862313270569,
        0.9999178051948547
      ]
    },
    {
      "bufferView": 2,
      "componentType": 5126,
      "count": 1411,
      "type": "VEC2",
      "min": [
        0.042975544929504395,
        0.21313166618347168
      ],
      "max": [
        0.3470773696899414,
        0.9579523801803589
      ]
    },
    {
      "bufferView": 3,
      "componentType": 5126,
      "count": 1411,
      "type": "VEC2",
      "min": [
        0,
        0.17176616191864014
      ],
      "max": [
        0.9604971408843994,
        1
      ]
    },
    {
      "bufferView": 4,
      "componentType": 5123,
      "count": 3828,
      "type": "SCALAR",
      "min": [
        0
      ],
      "max": [
        1410
      ]
    }
  ],
  "extras": {
    "manifest": "Sword_R8_R1Craft_Fig.materials.json"
  }
}