{
  "asset": {
    "version": "2.0",
    "generator": "prefab-to-gltf"
  },
  "scene": 0,
  "scenes": [
    {
      "name": "Back_Short_Z4U1_Fig",
      "nodes": [
        0
      ]
    }
  ],
  "nodes": [
    {
      "name": "Back_R1S1_FigWiz_N",
      "translation": [
        0,
        0,
        0
      ],
      "rotation": [
        0,
        0,
        0,
        1
      ],
      "scale": [
        1,
        1,
        1
      ],
      "mesh": 0
    }
  ],
  "meshes": [
    {
      "name": "Back_R1S1_FigWiz_N",
      "primitives": [
        {
          "attributes": {
            "POSITION": 0,
            "NORMAL": 1,
            "TEXCOORD_0": 2,
            "TEXCOORD_1": 3
          },
          "indices": 4,
          "material": 0,
          "mode": 4
        }
      ]
    }
  ],
  "materials": [
    {
      "name": "GradMat_Body",
      "pbrMetallicRoughness": {
        "baseColorFactor": [
          1,
          1,
          1,
          1
        ],
        "metallicFactor": 0,
        "roughnessFactor": 1
      },
      "doubleSided": true,
      "extras": {
        "diffuseTexture": "Character/Common/Texture/CustomGradient_BasicGuy.png",
        "specularTexture": null,
        "normalMap": null
      }
    }
  ],
  "buffers": [
    {
      "uri": "Back_Short_Z4U1_Fig.bin",
      "byteLength": 49732
    }
  ],
  "bufferViews": [
    {
      "buffer": 0,
      "byteOffset": 0,
      "byteLength": 13080,
      "target": 34962
    },
    {
      "buffer": 0,
      "byteOffset": 13080,
      "byteLength": 13080,
      "target": 34962
    },
    {
      "buffer": 0,
      "byteOffset": 26160,
      "byteLength": 8720,
      "target": 34962
    },
    {
      "buffer": 0,
      "byteOffset": 34880,
      "byteLength": 8720,
      "target": 34962
    },
    {
      "buffer": 0,
      "byteOffset": 43600,
      "byteLength": 6132,
      "target": 34963
    }
  ],
  "accessors": [
    {
      "bufferView": 0,
      "componentType": 5126,
      "count": 1090,
      "type": "VEC3",
      "min": [
        -0.21998029947280884,
        1.5157885551452637,
        -0.15758493542671204
      ],
      "max": [
        0.21971261501312256,
        1.8405483961105347,
        0.24190425872802734
      ]
    },
    {
      "bufferView": 1,
      "componentType": 5126,
      "count": 1090,
      "type": "VEC3",
      "min": [
        -0.9989230632781982,
        -0.9925410151481628,
        -0.9996609091758728
      ],
      "max": [
        0.9997904300689697,
        0.9931594133377075,
        0.9997474551200867
      ]
    },
    {
      "bufferView": 2,
      "componentType": 5126,
      "count": 1090,
      "type": "VEC2",
      "min": [
        0.17100107669830322,
        0.11059606075286865
      ],
      "max": [
        0.6070008277893066,
        0.8293727040290833
      ]
    },
    {
      "bufferView": 3,
      "componentType": 5126,
      "count": 1090,
      "type": "VEC2",
      "min": [
        0,
        0.11274826526641846
      ],
      "max": [
        0.45404601097106934,
        1
      ]
    },
    {
      "bufferView": 4,
      "componentType": 5123,
      "count": 3066,
      "type": "SCALAR",
      "min": [
        0
      ],
      "max": [
        1089
      ]
    }
  ],
  "extras": {
    "manifest": "Back_Short_Z4U1_Fig.materials.json"
  }
}