{
  "asset": {
    "version": "2.0",
    "generator": "prefab-to-gltf"
  },
  "scene": 0,
  "scenes": [
    {
      "name": "Chest_ShortSleeves_Z4U2_Fig",
      "nodes": [
        0
      ]
    }
  ],
  "nodes": [
    {
      "name": "Chest_Z4U_Heavy_N",
      "translation": [
        0,
        0,
        0
      ],
      "rotation": [
        0,
        0,
        0,
        1
      ],
      "scale": [
        1,
        1,
        1
      ],
      "mesh": 0
    }
  ],
  "meshes": [
    {
      "name": "Chest_Z4U_Heavy_N",
      "primitives": [
        {
          "attributes": {
            "POSITION": 0,
            "NORMAL": 1,
            "TEXCOORD_0": 2,
            "TEXCOORD_1": 3,
            "COLOR_0": 4
          },
          "indices": 5,
          "material": 0,
          "mode": 4
        }
      ]
    }
  ],
  "materials": [
    {
      "name": "GradMat_Body",
      "pbrMetallicRoughness": {
        "baseColorFactor": [
          1,
          1,
          1,
          1
        ],
        "metallicFactor": 0,
        "roughnessFactor": 1
      },
      "doubleSided": true,
      "extras": {
        "diffuseTexture": "Character/Common/Texture/CustomGradient_RobinHoof.png",
        "specularTexture": null,
        "normalMap": null
      }
    }
  ],
  "buffers": [
    {
      "uri": "Chest_ShortSleeves_Z4U2_Fig.bin",
      "byteLength": 309212
    }
  ],
  "bufferViews": [
    {
      "buffer": 0,
      "byteOffset": 0,
      "byteLength": 63240,
      "target": 34962
    },
    {
      "buffer": 0,
      "byteOffset": 63240,
      "byteLength": 63240,
      "target": 34962
    },
    {
      "buffer": 0,
      "byteOffset": 126480,
      "byteLength": 42160,
      "target": 34962
    },
    {
      "buffer": 0,
      "byteOffset": 168640,
      "byteLength": 42160,
      "target": 34962
    },
    {
      "buffer": 0,
      "byteOffset": 210800,
      "byteLength": 63240,
      "target": 34962
    },
    {
      "buffer": 0,
      "byteOffset": 274040,
      "byteLength": 35172,
      "target": 34963
    }
  ],
  "accessors": [
    {
      "bufferView": 0,
      "componentType": 5126,
      "count": 5270,
      "type": "VEC3",
      "min": [
        -0.6669848561286926,
        0.47732535004615784,
        -0.3272112309932709
      ],
      "max": [
        0.6669848561286926,
        1.9331179857254028,
        0.4138994514942169
      ]
    },
    {
      "bufferView": 1,
      "componentType": 5126,
      "count": 5270,
      "type": "VEC3",
      "min": [
        -0.9969948530197144,
        -0.999808132648468,
        -0.9999990463256836
      ],
      "max": [
        0.9969948530197144,
        0.9995594024658203,
        0.9999831318855286
      ]
    },
    {
      "bufferView": 2,
      "componentType": 5126,
      "count": 5270,
      "type": "VEC2",
      "min": [
        0.03703261539340019,
        0.17080527544021606
      ],
      "max": [
        0.60237717628479,
        0.936901867389679
      ]
    },
    {
      "bufferView": 3,
      "componentType": 5126,
      "count": 5270,
      "type": "VEC2",
      "min": [
        0,
        0.10912615060806274
      ],
      "max": [
        0.9578284621238708,
        1
      ]
    },
    {
      "bufferView": 4,
      "componentType": 5126,
      "count": 3952.5,
      "type": "VEC4",
      "min": [
        0,
        0,
        0,
        0
      ],
      "max": [
        1,
        1,
        1,
        1
      ]
    },
    {
      "bufferView": 5,
      "componentType": 5123,
      "count": 17586,
      "type": "SCALAR",
      "min": [
        0
      ],
      "max": [
        5269
      ]
    }
  ],
  "extras": {
    "manifest": "Chest_ShortSleeves_Z4U2_Fig.materials.json"
  }
}