{
  "asset": {
    "version": "2.0",
    "generator": "prefab-to-gltf"
  },
  "scene": 0,
  "scenes": [
    {
      "name": "Waist_Medium_Z4U1_Fig",
      "nodes": [
        0
      ]
    }
  ],
  "nodes": [
    {
      "name": "Waist_R1S1_FigWiz_N",
      "translation": [
        0,
        0,
        0
      ],
      "rotation": [
        0,
        0,
        0,
        1
      ],
      "scale": [
        1,
        1,
        1
      ],
      "mesh": 0
    }
  ],
  "meshes": [
    {
      "name": "Waist_R1S1_FigWiz_N",
      "primitives": [
        {
          "attributes": {
            "POSITION": 0,
            "NORMAL": 1,
            "TEXCOORD_0": 2,
            "TEXCOORD_1": 3
          },
          "indices": 4,
          "material": 0,
          "mode": 4
        }
      ]
    }
  ],
  "materials": [
    {
      "name": "GradMat_Body",
      "pbrMetallicRoughness": {
        "baseColorFactor": [
          1,
          1,
          1,
          1
        ],
        "metallicFactor": 0,
        "roughnessFactor": 1
      },
      "doubleSided": true,
      "extras": {
        "diffuseTexture": "Character/Common/Texture/CustomGradient_BasicGuy.png",
        "specularTexture": null,
        "normalMap": null
      }
    }
  ],
  "buffers": [
    {
      "uri": "Waist_Medium_Z4U1_Fig.bin",
      "byteLength": 32364
    }
  ],
  "bufferViews": [
    {
      "buffer": 0,
      "byteOffset": 0,
      "byteLength": 8460,
      "target": 34962
    },
    {
      "buffer": 0,
      "byteOffset": 8460,
      "byteLength": 8460,
      "target": 34962
    },
    {
      "buffer": 0,
      "byteOffset": 16920,
      "byteLength": 5640,
      "target": 34962
    },
    {
      "buffer": 0,
      "byteOffset": 22560,
      "byteLength": 5640,
      "target": 34962
    },
    {
      "buffer": 0,
      "byteOffset": 28200,
      "byteLength": 4164,
      "target": 34963
    }
  ],
  "accessors": [
    {
      "bufferView": 0,
      "componentType": 5126,
      "count": 705,
      "type": "VEC3",
      "min": [
        -0.22166669368743896,
        1.178296685218811,
        -0.07200890779495239
      ],
      "max": [
        0.22166669368743896,
        1.303164005279541,
        0.266491174697876
      ]
    },
    {
      "bufferView": 1,
      "componentType": 5126,
      "count": 705,
      "type": "VEC3",
      "min": [
        -0.9958412647247314,
        -0.9923244714736938,
        -0.9999940991401672
      ],
      "max": [
        0.9989796280860901,
        0.9997673034667969,
        0.9999995231628418
      ]
    },
    {
      "bufferView": 2,
      "componentType": 5126,
      "count": 705,
      "type": "VEC2",
      "min": [
        0.1723344475030899,
        0.3240671157836914
      ],
      "max": [
        0.3604784309864044,
        0.8469389081001282
      ]
    },
    {
      "bufferView": 3,
      "componentType": 5126,
      "count": 705,
      "type": "VEC2",
      "min": [
        0.032849133014678955,
        0.08330094814300537
      ],
      "max": [
        0.43956053256988525,
        0.9660869836807251
      ]
    },
    {
      "bufferView": 4,
      "componentType": 5123,
      "count": 2082,
      "type": "SCALAR",
      "min": [
        0
      ],
      "max": [
        704
      ]
    }
  ],
  "extras": {
    "manifest": "Waist_Medium_Z4U1_Fig.materials.json"
  }
}