{
  "asset": {
    "version": "2.0",
    "generator": "prefab-to-gltf"
  },
  "scene": 0,
  "scenes": [
    {
      "name": "Chest_ShortSleeves_XCrimson_03_Medium",
      "nodes": [
        0
      ]
    }
  ],
  "nodes": [
    {
      "name": "Chest_ShortSleeves_Z1RCrimsonA_Medium_N",
      "translation": [
        0,
        0,
        0
      ],
      "rotation": [
        0,
        0,
        0,
        1
      ],
      "scale": [
        1,
        1,
        1
      ],
      "mesh": 0,
      "children": [
        1
      ]
    },
    {
      "name": "Z1R4A_Medium",
      "translation": [
        0,
        0,
        0
      ],
      "rotation": [
        0.7071067690849304,
        0,
        0,
        0.7071067932881644
      ],
      "scale": [
        1,
        1,
        1
      ]
    }
  ],
  "meshes": [
    {
      "name": "Chest_ShortSleeves_Z1RCrimsonA_Medium_N",
      "primitives": [
        {
          "attributes": {
            "POSITION": 0,
            "NORMAL": 1,
            "TEXCOORD_0": 2,
            "TEXCOORD_1": 3,
            "COLOR_0": 4
          },
          "indices": 5,
          "material": 0,
          "mode": 4
        }
      ]
    }
  ],
  "materials": [
    {
      "name": "GradMat_Body",
      "pbrMetallicRoughness": {
        "baseColorFactor": [
          1,
          1,
          1,
          1
        ],
        "metallicFactor": 0,
        "roughnessFactor": 1
      },
      "doubleSided": true,
      "extras": {
        "diffuseTexture": "Character/Common/Texture/CustomGradient_BasicGuy.png",
        "specularTexture": null,
        "normalMap": null
      }
    }
  ],
  "buffers": [
    {
      "uri": "Chest_ShortSleeves_XCrimson_03_Medium.bin",
      "byteLength": 334114
    }
  ],
  "bufferViews": [
    {
      "buffer": 0,
      "byteOffset": 0,
      "byteLength": 71040,
      "target": 34962
    },
    {
      "buffer": 0,
      "byteOffset": 71040,
      "byteLength": 71040,
      "target": 34962
    },
    {
      "buffer": 0,
      "byteOffset": 142080,
      "byteLength": 47360,
      "target": 34962
    },
    {
      "buffer": 0,
      "byteOffset": 189440,
      "byteLength": 47360,
      "target": 34962
    },
    {
      "buffer": 0,
      "byteOffset": 236800,
      "byteLength": 71040,
      "target": 34962
    },
    {
      "buffer": 0,
      "byteOffset": 307840,
      "byteLength": 26274,
      "target": 34963
    }
  ],
  "accessors": [
    {
      "bufferView": 0,
      "componentType": 5126,
      "count": 5920,
      "type": "VEC3",
      "min": [
        -0.66650390625,
        1.03515625,
        -0.1319580078125
      ],
      "max": [
        0.66650390625,
        1.9423828125,
        0.270263671875
      ]
    },
    {
      "bufferView": 1,
      "componentType": 5126,
      "count": 5920,
      "type": "VEC3",
      "min": [
        -0.5019607843137255,
        -0.5019607843137255,
        -0.5019607843137255
      ],
      "max": [
        1,
        1,
        1
      ]
    },
    {
      "bufferView": 2,
      "componentType": 5126,
      "count": 5920,
      "type": "VEC2",
      "min": [
        0.01812744140625,
        0.172607421875
      ],
      "max": [
        0.587890625,
        0.98388671875
      ]
    },
    {
      "bufferView": 3,
      "componentType": 5126,
      "count": 5920,
      "type": "VEC2",
      "min": [
        0.01424407958984375,
        0.03485107421875
      ],
      "max": [
        0.94287109375,
        0.99169921875
      ]
    },
    {
      "bufferView": 4,
      "componentType": 5126,
      "count": 4440,
      "type": "VEC4",
      "min": [
        0.3607843220233917,
        0.3607843220233917,
        0.3607843220233917,
        0.3607843220233917
      ],
      "max": [
        1,
        1,
        1,
        1
      ]
    },
    {
      "bufferView": 5,
      "componentType": 5123,
      "count": 13137,
      "type": "SCALAR",
      "min": [
        0
      ],
      "max": [
        5919
      ]
    }
  ],
  "extras": {
    "manifest": "Chest_ShortSleeves_XCrimson_03_Medium.materials.json"
  }
}