{
  "asset": {
    "version": "2.0",
    "generator": "prefab-to-gltf"
  },
  "scene": 0,
  "scenes": [
    {
      "name": "Feet_High_XCrimson_03_Heavy",
      "nodes": [
        0
      ]
    }
  ],
  "nodes": [
    {
      "name": "Feet_High_Z1R4A_Heavy_N",
      "translation": [
        0,
        0,
        0
      ],
      "rotation": [
        0,
        0,
        0,
        1
      ],
      "scale": [
        1,
        1,
        1
      ],
      "mesh": 0,
      "children": [
        1
      ]
    },
    {
      "name": "Z1R4A_Heavy",
      "translation": [
        0,
        0,
        0
      ],
      "rotation": [
        0.7071067690849304,
        0,
        0,
        0.7071067932881644
      ],
      "scale": [
        1,
        1,
        1
      ]
    }
  ],
  "meshes": [
    {
      "name": "Feet_High_Z1R4A_Heavy_N",
      "primitives": [
        {
          "attributes": {
            "POSITION": 0,
            "NORMAL": 1,
            "TEXCOORD_0": 2,
            "TEXCOORD_1": 3
          },
          "indices": 4,
          "material": 0,
          "mode": 4
        }
      ]
    }
  ],
  "materials": [
    {
      "name": "GradMat_Body",
      "pbrMetallicRoughness": {
        "baseColorFactor": [
          1,
          1,
          1,
          1
        ],
        "metallicFactor": 0,
        "roughnessFactor": 1
      },
      "doubleSided": true,
      "extras": {
        "diffuseTexture": "Character/Common/Texture/CustomGradient_BasicGuy.png",
        "specularTexture": null,
        "normalMap": null
      }
    }
  ],
  "buffers": [
    {
      "uri": "Feet_High_XCrimson_03_Heavy.bin",
      "byteLength": 163512
    }
  ],
  "bufferViews": [
    {
      "buffer": 0,
      "byteOffset": 0,
      "byteLength": 44352,
      "target": 34962
    },
    {
      "buffer": 0,
      "byteOffset": 44352,
      "byteLength": 44352,
      "target": 34962
    },
    {
      "buffer": 0,
      "byteOffset": 88704,
      "byteLength": 29568,
      "target": 34962
    },
    {
      "buffer": 0,
      "byteOffset": 118272,
      "byteLength": 29568,
      "target": 34962
    },
    {
      "buffer": 0,
      "byteOffset": 147840,
      "byteLength": 15672,
      "target": 34963
    }
  ],
  "accessors": [
    {
      "bufferView": 0,
      "componentType": 5126,
      "count": 3696,
      "type": "VEC3",
      "min": [
        -0.414794921875,
        -0.007537841796875,
        -0.12139892578125
      ],
      "max": [
        0.414794921875,
        0.4951171875,
        0.32373046875
      ]
    },
    {
      "bufferView": 1,
      "componentType": 5126,
      "count": 3696,
      "type": "VEC3",
      "min": [
        -0.5019607843137255,
        -0.5019607843137255,
        -0.5019607843137255
      ],
      "max": [
        1,
        1,
        1
      ]
    },
    {
      "bufferView": 2,
      "componentType": 5126,
      "count": 3696,
      "type": "VEC2",
      "min": [
        0.1397705078125,
        0.161376953125
      ],
      "max": [
        0.62158203125,
        0.935546875
      ]
    },
    {
      "bufferView": 3,
      "componentType": 5126,
      "count": 3696,
      "type": "VEC2",
      "min": [
        0.062408447265625,
        0.1129150390625
      ],
      "max": [
        0.94677734375,
        0.912109375
      ]
    },
    {
      "bufferView": 4,
      "componentType": 5123,
      "count": 7836,
      "type": "SCALAR",
      "min": [
        0
      ],
      "max": [
        3695
      ]
    }
  ],
  "extras": {
    "manifest": "Feet_High_XCrimson_03_Heavy.materials.json"
  }
}