{
  "asset": {
    "version": "2.0",
    "generator": "prefab-to-gltf"
  },
  "scene": 0,
  "scenes": [
    {
      "name": "Hands_Forearm_XCrimson_03_Medium",
      "nodes": [
        0
      ]
    }
  ],
  "nodes": [
    {
      "name": "Hands_Forearm_Z1R4A_Medium_N",
      "translation": [
        0,
        0,
        0
      ],
      "rotation": [
        0,
        0,
        0,
        1
      ],
      "scale": [
        1,
        1,
        1
      ],
      "mesh": 0,
      "children": [
        1
      ]
    },
    {
      "name": "Z1R4A_Medium",
      "translation": [
        0,
        0,
        0
      ],
      "rotation": [
        0.7071067690849304,
        0,
        0,
        0.7071067932881644
      ],
      "scale": [
        1,
        1,
        1
      ]
    }
  ],
  "meshes": [
    {
      "name": "Hands_Forearm_Z1R4A_Medium_N",
      "primitives": [
        {
          "attributes": {
            "POSITION": 0,
            "NORMAL": 1,
            "TEXCOORD_0": 2,
            "TEXCOORD_1": 3
          },
          "indices": 4,
          "material": 0,
          "mode": 4
        }
      ]
    }
  ],
  "materials": [
    {
      "name": "GradMat_Body",
      "pbrMetallicRoughness": {
        "baseColorFactor": [
          1,
          1,
          1,
          1
        ],
        "metallicFactor": 0,
        "roughnessFactor": 1
      },
      "doubleSided": true,
      "extras": {
        "diffuseTexture": "Character/Common/Texture/CustomGradient_BasicGuy.png",
        "specularTexture": null,
        "normalMap": null
      }
    }
  ],
  "buffers": [
    {
      "uri": "Hands_Forearm_XCrimson_03_Medium.bin",
      "byteLength": 195192
    }
  ],
  "bufferViews": [
    {
      "buffer": 0,
      "byteOffset": 0,
      "byteLength": 51336,
      "target": 34962
    },
    {
      "buffer": 0,
      "byteOffset": 51336,
      "byteLength": 51336,
      "target": 34962
    },
    {
      "buffer": 0,
      "byteOffset": 102672,
      "byteLength": 34224,
      "target": 34962
    },
    {
      "buffer": 0,
      "byteOffset": 136896,
      "byteLength": 34224,
      "target": 34962
    },
    {
      "buffer": 0,
      "byteOffset": 171120,
      "byteLength": 24072,
      "target": 34963
    }
  ],
  "accessors": [
    {
      "bufferView": 0,
      "componentType": 5126,
      "count": 4278,
      "type": "VEC3",
      "min": [
        -0.81201171875,
        0.9814453125,
        -0.03814697265625
      ],
      "max": [
        0.81201171875,
        1.4755859375,
        0.337646484375
      ]
    },
    {
      "bufferView": 1,
      "componentType": 5126,
      "count": 4278,
      "type": "VEC3",
      "min": [
        -0.5019607843137255,
        -0.5019607843137255,
        -0.5019607843137255
      ],
      "max": [
        1,
        1,
        1
      ]
    },
    {
      "bufferView": 2,
      "componentType": 5126,
      "count": 4278,
      "type": "VEC2",
      "min": [
        0.020599365234375,
        0.1739501953125
      ],
      "max": [
        0.74169921875,
        0.99609375
      ]
    },
    {
      "bufferView": 3,
      "componentType": 5126,
      "count": 4278,
      "type": "VEC2",
      "min": [
        0.0290679931640625,
        0.11163330078125
      ],
      "max": [
        0.94970703125,
        1.0009765625
      ]
    },
    {
      "bufferView": 4,
      "componentType": 5123,
      "count": 12036,
      "type": "SCALAR",
      "min": [
        0
      ],
      "max": [
        4277
      ]
    }
  ],
  "extras": {
    "manifest": "Hands_Forearm_XCrimson_03_Medium.materials.json"
  }
}