{
  "asset": {
    "version": "2.0",
    "generator": "prefab-to-gltf"
  },
  "scene": 0,
  "scenes": [
    {
      "name": "Waist_Medium_XCrimson_03_Heavy",
      "nodes": [
        0
      ]
    }
  ],
  "nodes": [
    {
      "name": "Waist_Medium_Z1R4A_Heavy_N",
      "translation": [
        0,
        0,
        0
      ],
      "rotation": [
        0,
        0,
        0,
        1
      ],
      "scale": [
        1,
        1,
        1
      ],
      "mesh": 0,
      "children": [
        1
      ]
    },
    {
      "name": "Z1R4A_Heavy",
      "translation": [
        0,
        0,
        0
      ],
      "rotation": [
        0.7071067690849304,
        0,
        0,
        0.7071067932881644
      ],
      "scale": [
        1,
        1,
        1
      ]
    }
  ],
  "meshes": [
    {
      "name": "Waist_Medium_Z1R4A_Heavy_N",
      "primitives": [
        {
          "attributes": {
            "POSITION": 0,
            "NORMAL": 1,
            "TEXCOORD_0": 2,
            "TEXCOORD_1": 3
          },
          "indices": 4,
          "material": 0,
          "mode": 4
        }
      ]
    }
  ],
  "materials": [
    {
      "name": "GradMat_Body",
      "pbrMetallicRoughness": {
        "baseColorFactor": [
          1,
          1,
          1,
          1
        ],
        "metallicFactor": 0,
        "roughnessFactor": 1
      },
      "doubleSided": true,
      "extras": {
        "diffuseTexture": "Character/Common/Texture/CustomGradient_BasicGuy.png",
        "specularTexture": null,
        "normalMap": null
      }
    }
  ],
  "buffers": [
    {
      "uri": "Waist_Medium_XCrimson_03_Heavy.bin",
      "byteLength": 34308
    }
  ],
  "bufferViews": [
    {
      "buffer": 0,
      "byteOffset": 0,
      "byteLength": 9180,
      "target": 34962
    },
    {
      "buffer": 0,
      "byteOffset": 9180,
      "byteLength": 9180,
      "target": 34962
    },
    {
      "buffer": 0,
      "byteOffset": 18360,
      "byteLength": 6120,
      "target": 34962
    },
    {
      "buffer": 0,
      "byteOffset": 24480,
      "byteLength": 6120,
      "target": 34962
    },
    {
      "buffer": 0,
      "byteOffset": 30600,
      "byteLength": 3708,
      "target": 34963
    }
  ],
  "accessors": [
    {
      "bufferView": 0,
      "componentType": 5126,
      "count": 765,
      "type": "VEC3",
      "min": [
        -0.2215576171875,
        1.1572265625,
        -0.07196044921875
      ],
      "max": [
        0.2215576171875,
        1.302734375,
        0.2744140625
      ]
    },
    {
      "bufferView": 1,
      "componentType": 5126,
      "count": 765,
      "type": "VEC3",
      "min": [
        -0.4980392156862745,
        -0.5019607843137255,
        -0.5019607843137255
      ],
      "max": [
        1,
        1,
        0.4980392156862745
      ]
    },
    {
      "bufferView": 2,
      "componentType": 5126,
      "count": 765,
      "type": "VEC2",
      "min": [
        0.177734375,
        0.201416015625
      ],
      "max": [
        0.372314453125,
        0.94384765625
      ]
    },
    {
      "bufferView": 3,
      "componentType": 5126,
      "count": 765,
      "type": "VEC2",
      "min": [
        0.051300048828125,
        0.12274169921875
      ],
      "max": [
        0.94287109375,
        0.990234375
      ]
    },
    {
      "bufferView": 4,
      "componentType": 5123,
      "count": 1854,
      "type": "SCALAR",
      "min": [
        0
      ],
      "max": [
        764
      ]
    }
  ],
  "extras": {
    "manifest": "Waist_Medium_XCrimson_03_Heavy.materials.json"
  }
}