{
  "asset": {
    "version": "2.0",
    "generator": "prefab-to-gltf"
  },
  "scene": 0,
  "scenes": [
    {
      "name": "Waist_Medium_XCrimson_03_Medium",
      "nodes": [
        0
      ]
    }
  ],
  "nodes": [
    {
      "name": "Waist_Medium_Z1R4A_Medium_N",
      "translation": [
        0,
        0,
        0
      ],
      "rotation": [
        0,
        0,
        0,
        1
      ],
      "scale": [
        1,
        1,
        1
      ],
      "mesh": 0,
      "children": [
        1
      ]
    },
    {
      "name": "Z1R4A_Medium",
      "translation": [
        0,
        0,
        0
      ],
      "rotation": [
        0.7071067690849304,
        0,
        0,
        0.7071067932881644
      ],
      "scale": [
        1,
        1,
        1
      ]
    }
  ],
  "meshes": [
    {
      "name": "Waist_Medium_Z1R4A_Medium_N",
      "primitives": [
        {
          "attributes": {
            "POSITION": 0,
            "NORMAL": 1,
            "TEXCOORD_0": 2,
            "TEXCOORD_1": 3
          },
          "indices": 4,
          "material": 0,
          "mode": 4
        }
      ]
    }
  ],
  "materials": [
    {
      "name": "GradMat_Body",
      "pbrMetallicRoughness": {
        "baseColorFactor": [
          1,
          1,
          1,
          1
        ],
        "metallicFactor": 0,
        "roughnessFactor": 1
      },
      "doubleSided": true,
      "extras": {
        "diffuseTexture": "Character/Common/Texture/CustomGradient_BasicGuy.png",
        "specularTexture": null,
        "normalMap": null
      }
    }
  ],
  "buffers": [
    {
      "uri": "Waist_Medium_XCrimson_03_Medium.bin",
      "byteLength": 32288
    }
  ],
  "bufferViews": [
    {
      "buffer": 0,
      "byteOffset": 0,
      "byteLength": 8664,
      "target": 34962
    },
    {
      "buffer": 0,
      "byteOffset": 8664,
      "byteLength": 8664,
      "target": 34962
    },
    {
      "buffer": 0,
      "byteOffset": 17328,
      "byteLength": 5776,
      "target": 34962
    },
    {
      "buffer": 0,
      "byteOffset": 23104,
      "byteLength": 5776,
      "target": 34962
    },
    {
      "buffer": 0,
      "byteOffset": 28880,
      "byteLength": 3408,
      "target": 34963
    }
  ],
  "accessors": [
    {
      "bufferView": 0,
      "componentType": 5126,
      "count": 722,
      "type": "VEC3",
      "min": [
        -0.2215576171875,
        1.1630859375,
        -0.07196044921875
      ],
      "max": [
        0.2215576171875,
        1.302734375,
        0.260498046875
      ]
    },
    {
      "bufferView": 1,
      "componentType": 5126,
      "count": 722,
      "type": "VEC3",
      "min": [
        -0.5019607843137255,
        -0.5019607843137255,
        -0.5019607843137255
      ],
      "max": [
        1,
        1,
        0.4980392156862745
      ]
    },
    {
      "bufferView": 2,
      "componentType": 5126,
      "count": 722,
      "type": "VEC2",
      "min": [
        0.270751953125,
        0.404296875
      ],
      "max": [
        0.71142578125,
        0.86279296875
      ]
    },
    {
      "bufferView": 3,
      "componentType": 5126,
      "count": 722,
      "type": "VEC2",
      "min": [
        0,
        0.104248046875
      ],
      "max": [
        0.439453125,
        1
      ]
    },
    {
      "bufferView": 4,
      "componentType": 5123,
      "count": 1704,
      "type": "SCALAR",
      "min": [
        0
      ],
      "max": [
        721
      ]
    }
  ],
  "extras": {
    "manifest": "Waist_Medium_XCrimson_03_Medium.materials.json"
  }
}