{
  "asset": {
    "version": "2.0",
    "generator": "prefab-to-gltf"
  },
  "scene": 0,
  "scenes": [
    {
      "name": "MunsterChuck_CheeseBomb",
      "nodes": [
        0
      ]
    }
  ],
  "nodes": [
    {
      "name": "CheeseBomb",
      "translation": [
        0,
        0,
        0
      ],
      "rotation": [
        0,
        0,
        0,
        1
      ],
      "scale": [
        1,
        1,
        1
      ],
      "mesh": 0
    }
  ],
  "meshes": [
    {
      "name": "CheeseBomb",
      "primitives": [
        {
          "attributes": {
            "POSITION": 0,
            "NORMAL": 1,
            "TEXCOORD_0": 2,
            "TEXCOORD_1": 3
          },
          "indices": 4,
          "material": 0,
          "mode": 4
        },
        {
          "attributes": {
            "POSITION": 5,
            "NORMAL": 6,
            "TEXCOORD_0": 7,
            "TEXCOORD_1": 8
          },
          "indices": 9,
          "material": 1,
          "mode": 4
        }
      ]
    }
  ],
  "materials": [
    {
      "name": "GradmatCheeseBomb",
      "pbrMetallicRoughness": {
        "baseColorFactor": [
          1,
          1,
          1,
          1
        ],
        "metallicFactor": 0,
        "roughnessFactor": 1
      },
      "doubleSided": true,
      "extras": {
        "diffuseTexture": null,
        "specularTexture": null,
        "normalMap": null
      }
    },
    {
      "name": "Outline",
      "pbrMetallicRoughness": {
        "baseColorFactor": [
          1,
          1,
          1,
          1
        ],
        "metallicFactor": 0,
        "roughnessFactor": 1
      },
      "doubleSided": true,
      "extras": {
        "diffuseTexture": null,
        "specularTexture": null,
        "normalMap": null
      }
    }
  ],
  "buffers": [
    {
      "uri": "MunsterChuck_CheeseBomb.bin",
      "byteLength": 186680
    }
  ],
  "bufferViews": [
    {
      "buffer": 0,
      "byteOffset": 0,
      "byteLength": 25752,
      "target": 34962
    },
    {
      "buffer": 0,
      "byteOffset": 25752,
      "byteLength": 25752,
      "target": 34962
    },
    {
      "buffer": 0,
      "byteOffset": 51504,
      "byteLength": 17168,
      "target": 34962
    },
    {
      "buffer": 0,
      "byteOffset": 68672,
      "byteLength": 17168,
      "target": 34962
    },
    {
      "buffer": 0,
      "byteOffset": 85840,
      "byteLength": 7500,
      "target": 34963
    },
    {
      "buffer": 0,
      "byteOffset": 93340,
      "byteLength": 25752,
      "target": 34962
    },
    {
      "buffer": 0,
      "byteOffset": 119092,
      "byteLength": 25752,
      "target": 34962
    },
    {
      "buffer": 0,
      "byteOffset": 144844,
      "byteLength": 17168,
      "target": 34962
    },
    {
      "buffer": 0,
      "byteOffset": 162012,
      "byteLength": 17168,
      "target": 34962
    },
    {
      "buffer": 0,
      "byteOffset": 179180,
      "byteLength": 7500,
      "target": 34963
    }
  ],
  "accessors": [
    {
      "bufferView": 0,
      "componentType": 5126,
      "count": 2146,
      "type": "VEC3",
      "min": [
        -0.48029404878616333,
        -0.4673592746257782,
        -0.06874408572912216
      ],
      "max": [
        0.48500922322273254,
        0.4675504267215729,
        1.1464791297912598
      ]
    },
    {
      "bufferView": 1,
      "componentType": 5126,
      "count": 2146,
      "type": "VEC3",
      "min": [
        -0.99949711561203,
        -0.9998918175697327,
        -0.9994397163391113
      ],
      "max": [
        0.9993624687194824,
        0.9998384714126587,
        0.9998895525932312
      ]
    },
    {
      "bufferView": 2,
      "componentType": 5126,
      "count": 2146,
      "type": "VEC2",
      "min": [
        0.041207343339920044,
        0.19144874811172485
      ],
      "max": [
        0.3529207110404968,
        0.8607605695724487
      ]
    },
    {
      "bufferView": 3,
      "componentType": 5126,
      "count": 2146,
      "type": "VEC2",
      "min": [
        0,
        0.09606784582138062
      ],
      "max": [
        0.8973633050918579,
        1
      ]
    },
    {
      "bufferView": 4,
      "componentType": 5123,
      "count": 3750,
      "type": "SCALAR",
      "min": [
        0
      ],
      "max": [
        1072
      ]
    },
    {
      "bufferView": 5,
      "componentType": 5126,
      "count": 2146,
      "type": "VEC3",
      "min": [
        -0.48029404878616333,
        -0.4673592746257782,
        -0.06874408572912216
      ],
      "max": [
        0.48500922322273254,
        0.4675504267215729,
        1.1464791297912598
      ]
    },
    {
      "bufferView": 6,
      "componentType": 5126,
      "count": 2146,
      "type": "VEC3",
      "min": [
        -0.99949711561203,
        -0.9998918175697327,
        -0.9994397163391113
      ],
      "max": [
        0.9993624687194824,
        0.9998384714126587,
        0.9998895525932312
      ]
    },
    {
      "bufferView": 7,
      "componentType": 5126,
      "count": 2146,
      "type": "VEC2",
      "min": [
        0.041207343339920044,
        0.19144874811172485
      ],
      "max": [
        0.3529207110404968,
        0.8607605695724487
      ]
    },
    {
      "bufferView": 8,
      "componentType": 5126,
      "count": 2146,
      "type": "VEC2",
      "min": [
        0,
        0.09606784582138062
      ],
      "max": [
        0.8973633050918579,
        1
      ]
    },
    {
      "bufferView": 9,
      "componentType": 5123,
      "count": 3750,
      "type": "SCALAR",
      "min": [
        0
      ],
      "max": [
        2145
      ]
    }
  ],
  "extras": {
    "manifest": "MunsterChuck_CheeseBomb.materials.json"
  }
}