{
  "asset": {
    "version": "2.0",
    "generator": "prefab-to-gltf"
  },
  "scene": 0,
  "scenes": [
    {
      "name": "MunsterChuck_Balloon",
      "nodes": [
        0
      ]
    }
  ],
  "nodes": [
    {
      "name": "Balloon_MunsterChuck",
      "translation": [
        0,
        0,
        0
      ],
      "rotation": [
        0,
        0,
        0,
        1
      ],
      "scale": [
        1,
        1,
        1
      ],
      "mesh": 0
    }
  ],
  "meshes": [
    {
      "name": "Balloon_MunsterChuck",
      "primitives": [
        {
          "attributes": {
            "POSITION": 0,
            "NORMAL": 1,
            "TEXCOORD_0": 2,
            "TEXCOORD_1": 3
          },
          "indices": 4,
          "material": 0,
          "mode": 4
        }
      ]
    }
  ],
  "materials": [
    {
      "name": "Gradmat",
      "pbrMetallicRoughness": {
        "baseColorFactor": [
          1,
          1,
          1,
          1
        ],
        "metallicFactor": 0,
        "roughnessFactor": 1
      },
      "doubleSided": true,
      "extras": {
        "diffuseTexture": "Character/Common/Texture/CustomGradient_WeaponALL.png",
        "specularTexture": null,
        "normalMap": null
      }
    }
  ],
  "buffers": [
    {
      "uri": "MunsterChuck_Balloon.bin",
      "byteLength": 676034
    }
  ],
  "bufferViews": [
    {
      "buffer": 0,
      "byteOffset": 0,
      "byteLength": 174372,
      "target": 34962
    },
    {
      "buffer": 0,
      "byteOffset": 174372,
      "byteLength": 174372,
      "target": 34962
    },
    {
      "buffer": 0,
      "byteOffset": 348744,
      "byteLength": 116248,
      "target": 34962
    },
    {
      "buffer": 0,
      "byteOffset": 464992,
      "byteLength": 116248,
      "target": 34962
    },
    {
      "buffer": 0,
      "byteOffset": 581240,
      "byteLength": 94794,
      "target": 34963
    }
  ],
  "accessors": [
    {
      "bufferView": 0,
      "componentType": 5126,
      "count": 14531,
      "type": "VEC3",
      "min": [
        -0.9898765087127686,
        -0.38923490047454834,
        -1.2510017156600952
      ],
      "max": [
        0.8948590755462646,
        2.23415470123291,
        0.8201985955238342
      ]
    },
    {
      "bufferView": 1,
      "componentType": 5126,
      "count": 14531,
      "type": "VEC3",
      "min": [
        -0.9999909996986389,
        -1,
        -0.9999769926071167
      ],
      "max": [
        0.9999998807907104,
        0.999992847442627,
        0.9998817443847656
      ]
    },
    {
      "bufferView": 2,
      "componentType": 5126,
      "count": 14531,
      "type": "VEC2",
      "min": [
        0,
        0.026544153690338135
      ],
      "max": [
        0.7397282123565674,
        1
      ]
    },
    {
      "bufferView": 3,
      "componentType": 5126,
      "count": 14531,
      "type": "VEC2",
      "min": [
        0,
        0.10251027345657349
      ],
      "max": [
        0.9821436405181885,
        1
      ]
    },
    {
      "bufferView": 4,
      "componentType": 5123,
      "count": 47397,
      "type": "SCALAR",
      "min": [
        0
      ],
      "max": [
        14530
      ]
    }
  ],
  "extras": {
    "manifest": "MunsterChuck_Balloon.materials.json"
  }
}