{
  "asset": {
    "version": "2.0",
    "generator": "prefab-to-gltf"
  },
  "scene": 0,
  "scenes": [
    {
      "name": "Sword_Manfish",
      "nodes": [
        0
      ]
    }
  ],
  "nodes": [
    {
      "name": "Sword_Manfish_001",
      "translation": [
        0,
        0,
        0
      ],
      "rotation": [
        0,
        0,
        0,
        1
      ],
      "scale": [
        1,
        1,
        1
      ],
      "mesh": 0
    }
  ],
  "meshes": [
    {
      "name": "Sword_Manfish_001",
      "primitives": [
        {
          "attributes": {
            "POSITION": 0,
            "NORMAL": 1,
            "TEXCOORD_0": 2,
            "TEXCOORD_1": 3
          },
          "indices": 4,
          "material": 0,
          "mode": 4
        }
      ]
    }
  ],
  "materials": [
    {
      "name": "MatSlots_WEAPONS",
      "pbrMetallicRoughness": {
        "baseColorFactor": [
          1,
          1,
          1,
          1
        ],
        "metallicFactor": 0,
        "roughnessFactor": 1
      },
      "doubleSided": true,
      "extras": {
        "diffuseTexture": null,
        "specularTexture": null,
        "normalMap": null
      }
    },
    {
      "name": "Outline_001",
      "pbrMetallicRoughness": {
        "baseColorFactor": [
          1,
          1,
          1,
          1
        ],
        "metallicFactor": 0,
        "roughnessFactor": 1
      },
      "doubleSided": true,
      "extras": {
        "diffuseTexture": null,
        "specularTexture": null,
        "normalMap": null
      }
    }
  ],
  "buffers": [
    {
      "uri": "Sword_Manfish.bin",
      "byteLength": 56736
    }
  ],
  "bufferViews": [
    {
      "buffer": 0,
      "byteOffset": 0,
      "byteLength": 14904,
      "target": 34962
    },
    {
      "buffer": 0,
      "byteOffset": 14904,
      "byteLength": 14904,
      "target": 34962
    },
    {
      "buffer": 0,
      "byteOffset": 29808,
      "byteLength": 9936,
      "target": 34962
    },
    {
      "buffer": 0,
      "byteOffset": 39744,
      "byteLength": 9936,
      "target": 34962
    },
    {
      "buffer": 0,
      "byteOffset": 49680,
      "byteLength": 7056,
      "target": 34963
    }
  ],
  "accessors": [
    {
      "bufferView": 0,
      "componentType": 5126,
      "count": 1242,
      "type": "VEC3",
      "min": [
        -0.1087171882390976,
        -0.23476360738277435,
        -0.3418869376182556
      ],
      "max": [
        0.10627232491970062,
        0.1682290881872177,
        1.1296863555908203
      ]
    },
    {
      "bufferView": 1,
      "componentType": 5126,
      "count": 1242,
      "type": "VEC3",
      "min": [
        -0.9998518824577332,
        -0.9541996121406555,
        -0.9994139671325684
      ],
      "max": [
        0.9997326135635376,
        0.9846845269203186,
        0.955489456653595
      ]
    },
    {
      "bufferView": 2,
      "componentType": 5126,
      "count": 1242,
      "type": "VEC2",
      "min": [
        0.03665813058614731,
        0.12019467353820801
      ],
      "max": [
        0.3149450123310089,
        0.7491848468780518
      ]
    },
    {
      "bufferView": 3,
      "componentType": 5126,
      "count": 1242,
      "type": "VEC2",
      "min": [
        0.0433124378323555,
        0.12805896997451782
      ],
      "max": [
        0.9675530195236206,
        0.9576218724250793
      ]
    },
    {
      "bufferView": 4,
      "componentType": 5123,
      "count": 3528,
      "type": "SCALAR",
      "min": [
        0
      ],
      "max": [
        1241
      ]
    }
  ],
  "extras": {
    "manifest": "Sword_Manfish.materials.json"
  }
}