{
  "asset": {
    "version": "2.0",
    "generator": "prefab-to-gltf"
  },
  "scene": 0,
  "scenes": [
    {
      "name": "Scepter_CrimsonRam",
      "nodes": [
        0
      ]
    }
  ],
  "nodes": [
    {
      "name": "Scepter_CrimsonRam",
      "translation": [
        0,
        0,
        0
      ],
      "rotation": [
        0,
        0,
        0,
        1
      ],
      "scale": [
        1,
        1,
        1
      ],
      "mesh": 0
    }
  ],
  "meshes": [
    {
      "name": "Scepter_CrimsonRam",
      "primitives": [
        {
          "attributes": {
            "POSITION": 0,
            "NORMAL": 1,
            "TEXCOORD_0": 2,
            "TEXCOORD_1": 3
          },
          "indices": 4,
          "material": 0,
          "mode": 4
        }
      ]
    }
  ],
  "materials": [
    {
      "name": "MatSlots_WEAPONS_001",
      "pbrMetallicRoughness": {
        "baseColorFactor": [
          1,
          1,
          1,
          1
        ],
        "metallicFactor": 0,
        "roughnessFactor": 1
      },
      "doubleSided": true,
      "extras": {
        "diffuseTexture": null,
        "specularTexture": null,
        "normalMap": null
      }
    },
    {
      "name": "Outline",
      "pbrMetallicRoughness": {
        "baseColorFactor": [
          1,
          1,
          1,
          1
        ],
        "metallicFactor": 0,
        "roughnessFactor": 1
      },
      "doubleSided": true,
      "extras": {
        "diffuseTexture": null,
        "specularTexture": null,
        "normalMap": null
      }
    },
    {
      "name": "Outline_001",
      "pbrMetallicRoughness": {
        "baseColorFactor": [
          1,
          1,
          1,
          1
        ],
        "metallicFactor": 0,
        "roughnessFactor": 1
      },
      "doubleSided": true,
      "extras": {
        "diffuseTexture": null,
        "specularTexture": null,
        "normalMap": null
      }
    }
  ],
  "buffers": [
    {
      "uri": "Scepter_CrimsonRam.bin",
      "byteLength": 87912
    }
  ],
  "bufferViews": [
    {
      "buffer": 0,
      "byteOffset": 0,
      "byteLength": 22716,
      "target": 34962
    },
    {
      "buffer": 0,
      "byteOffset": 22716,
      "byteLength": 22716,
      "target": 34962
    },
    {
      "buffer": 0,
      "byteOffset": 45432,
      "byteLength": 15144,
      "target": 34962
    },
    {
      "buffer": 0,
      "byteOffset": 60576,
      "byteLength": 15144,
      "target": 34962
    },
    {
      "buffer": 0,
      "byteOffset": 75720,
      "byteLength": 12192,
      "target": 34963
    }
  ],
  "accessors": [
    {
      "bufferView": 0,
      "componentType": 5126,
      "count": 1893,
      "type": "VEC3",
      "min": [
        -0.07880416512489319,
        -0.3608517646789551,
        -0.4155978262424469
      ],
      "max": [
        0.07880416512489319,
        0.3608517646789551,
        1.0349818468093872
      ]
    },
    {
      "bufferView": 1,
      "componentType": 5126,
      "count": 1893,
      "type": "VEC3",
      "min": [
        -1,
        -0.9999030828475952,
        -1
      ],
      "max": [
        1,
        0.9999030828475952,
        1
      ]
    },
    {
      "bufferView": 2,
      "componentType": 5126,
      "count": 1893,
      "type": "VEC2",
      "min": [
        0.04348039627075195,
        0.3772686719894409
      ],
      "max": [
        0.42931675910949707,
        0.8215282559394836
      ]
    },
    {
      "bufferView": 3,
      "componentType": 5126,
      "count": 1893,
      "type": "VEC2",
      "min": [
        0.04361280798912048,
        0.37983888387680054
      ],
      "max": [
        0.9387012124061584,
        0.983230710029602
      ]
    },
    {
      "bufferView": 4,
      "componentType": 5123,
      "count": 6096,
      "type": "SCALAR",
      "min": [
        0
      ],
      "max": [
        1892
      ]
    }
  ],
  "extras": {
    "manifest": "Scepter_CrimsonRam.materials.json"
  }
}