{
  "asset": {
    "version": "2.0",
    "generator": "prefab-to-gltf"
  },
  "scene": 0,
  "scenes": [
    {
      "name": "Scepter_R8_R1Tomb_Cle",
      "nodes": [
        0
      ]
    }
  ],
  "nodes": [
    {
      "name": "Scepter_R8_R1Tomb_Cle",
      "translation": [
        0,
        0,
        0
      ],
      "rotation": [
        0,
        0,
        0.7071056365966797,
        0.7071079257745626
      ],
      "scale": [
        1,
        1,
        1
      ],
      "mesh": 0
    }
  ],
  "meshes": [
    {
      "name": "Scepter_R8_R1Tomb_Cle",
      "primitives": [
        {
          "attributes": {
            "POSITION": 0,
            "NORMAL": 1,
            "TEXCOORD_0": 2,
            "TEXCOORD_1": 3
          },
          "indices": 4,
          "material": 0,
          "mode": 4
        },
        {
          "attributes": {
            "POSITION": 5,
            "NORMAL": 6,
            "TEXCOORD_0": 7,
            "TEXCOORD_1": 8
          },
          "indices": 9,
          "material": 1,
          "mode": 4
        }
      ]
    }
  ],
  "materials": [
    {
      "name": "Gradmat",
      "pbrMetallicRoughness": {
        "baseColorFactor": [
          1,
          1,
          1,
          1
        ],
        "metallicFactor": 0,
        "roughnessFactor": 1
      },
      "doubleSided": true,
      "extras": {
        "diffuseTexture": null,
        "specularTexture": null,
        "normalMap": null
      }
    },
    {
      "name": "Outline",
      "pbrMetallicRoughness": {
        "baseColorFactor": [
          1,
          1,
          1,
          1
        ],
        "metallicFactor": 0,
        "roughnessFactor": 1
      },
      "doubleSided": true,
      "extras": {
        "diffuseTexture": null,
        "specularTexture": null,
        "normalMap": null
      }
    }
  ],
  "buffers": [
    {
      "uri": "Scepter_R8_R1Tomb_Cle.bin",
      "byteLength": 392712
    }
  ],
  "bufferViews": [
    {
      "buffer": 0,
      "byteOffset": 0,
      "byteLength": 55512,
      "target": 34962
    },
    {
      "buffer": 0,
      "byteOffset": 55512,
      "byteLength": 55512,
      "target": 34962
    },
    {
      "buffer": 0,
      "byteOffset": 111024,
      "byteLength": 37008,
      "target": 34962
    },
    {
      "buffer": 0,
      "byteOffset": 148032,
      "byteLength": 37008,
      "target": 34962
    },
    {
      "buffer": 0,
      "byteOffset": 185040,
      "byteLength": 11316,
      "target": 34963
    },
    {
      "buffer": 0,
      "byteOffset": 196356,
      "byteLength": 55512,
      "target": 34962
    },
    {
      "buffer": 0,
      "byteOffset": 251868,
      "byteLength": 55512,
      "target": 34962
    },
    {
      "buffer": 0,
      "byteOffset": 307380,
      "byteLength": 37008,
      "target": 34962
    },
    {
      "buffer": 0,
      "byteOffset": 344388,
      "byteLength": 37008,
      "target": 34962
    },
    {
      "buffer": 0,
      "byteOffset": 381396,
      "byteLength": 11316,
      "target": 34963
    }
  ],
  "accessors": [
    {
      "bufferView": 0,
      "componentType": 5126,
      "count": 4626,
      "type": "VEC3",
      "min": [
        -0.15809813141822815,
        -0.16496136784553528,
        -0.41444870829582214
      ],
      "max": [
        0.19029110670089722,
        0.12937960028648376,
        0.985203742980957
      ]
    },
    {
      "bufferView": 1,
      "componentType": 5126,
      "count": 4626,
      "type": "VEC3",
      "min": [
        -1,
        -1,
        -1
      ],
      "max": [
        1,
        1,
        1
      ]
    },
    {
      "bufferView": 2,
      "componentType": 5126,
      "count": 4626,
      "type": "VEC2",
      "min": [
        0.05094054341316223,
        0.08725398778915405
      ],
      "max": [
        0.482022762298584,
        0.9215458631515503
      ]
    },
    {
      "bufferView": 3,
      "componentType": 5126,
      "count": 4626,
      "type": "VEC2",
      "min": [
        0,
        0.13416093587875366
      ],
      "max": [
        0.9597223997116089,
        1
      ]
    },
    {
      "bufferView": 4,
      "componentType": 5123,
      "count": 5658,
      "type": "SCALAR",
      "min": [
        0
      ],
      "max": [
        2312
      ]
    },
    {
      "bufferView": 5,
      "componentType": 5126,
      "count": 4626,
      "type": "VEC3",
      "min": [
        -0.15809813141822815,
        -0.16496136784553528,
        -0.41444870829582214
      ],
      "max": [
        0.19029110670089722,
        0.12937960028648376,
        0.985203742980957
      ]
    },
    {
      "bufferView": 6,
      "componentType": 5126,
      "count": 4626,
      "type": "VEC3",
      "min": [
        -1,
        -1,
        -1
      ],
      "max": [
        1,
        1,
        1
      ]
    },
    {
      "bufferView": 7,
      "componentType": 5126,
      "count": 4626,
      "type": "VEC2",
      "min": [
        0.05094054341316223,
        0.08725398778915405
      ],
      "max": [
        0.482022762298584,
        0.9215458631515503
      ]
    },
    {
      "bufferView": 8,
      "componentType": 5126,
      "count": 4626,
      "type": "VEC2",
      "min": [
        0,
        0.13416093587875366
      ],
      "max": [
        0.9597223997116089,
        1
      ]
    },
    {
      "bufferView": 9,
      "componentType": 5123,
      "count": 5658,
      "type": "SCALAR",
      "min": [
        0
      ],
      "max": [
        4625
      ]
    }
  ],
  "extras": {
    "manifest": "Scepter_R8_R1Tomb_Cle.materials.json"
  }
}