{
  "asset": {
    "version": "2.0",
    "generator": "prefab-to-gltf"
  },
  "scene": 0,
  "scenes": [
    {
      "name": "Scepter_Starter",
      "nodes": [
        0
      ]
    }
  ],
  "nodes": [
    {
      "name": "Weapon_1H_Scepter",
      "translation": [
        0,
        0,
        0
      ],
      "rotation": [
        0,
        0,
        0.7071056365966797,
        0.7071079257745626
      ],
      "scale": [
        1,
        1,
        1
      ],
      "mesh": 0
    }
  ],
  "meshes": [
    {
      "name": "Weapon_1H_Scepter",
      "primitives": [
        {
          "attributes": {
            "POSITION": 0,
            "NORMAL": 1,
            "TEXCOORD_0": 2,
            "TEXCOORD_1": 3
          },
          "indices": 4,
          "material": 0,
          "mode": 4
        }
      ]
    }
  ],
  "materials": [
    {
      "name": "MatSlots_WEAPONS",
      "pbrMetallicRoughness": {
        "baseColorFactor": [
          1,
          1,
          1,
          1
        ],
        "metallicFactor": 0,
        "roughnessFactor": 1
      },
      "doubleSided": true,
      "extras": {
        "diffuseTexture": null,
        "specularTexture": null,
        "normalMap": null
      }
    },
    {
      "name": "Outline",
      "pbrMetallicRoughness": {
        "baseColorFactor": [
          1,
          1,
          1,
          1
        ],
        "metallicFactor": 0,
        "roughnessFactor": 1
      },
      "doubleSided": true,
      "extras": {
        "diffuseTexture": null,
        "specularTexture": null,
        "normalMap": null
      }
    }
  ],
  "buffers": [
    {
      "uri": "Scepter_Starter.bin",
      "byteLength": 54256
    }
  ],
  "bufferViews": [
    {
      "buffer": 0,
      "byteOffset": 0,
      "byteLength": 14196,
      "target": 34962
    },
    {
      "buffer": 0,
      "byteOffset": 14196,
      "byteLength": 14196,
      "target": 34962
    },
    {
      "buffer": 0,
      "byteOffset": 28392,
      "byteLength": 9464,
      "target": 34962
    },
    {
      "buffer": 0,
      "byteOffset": 37856,
      "byteLength": 9464,
      "target": 34962
    },
    {
      "buffer": 0,
      "byteOffset": 47320,
      "byteLength": 6936,
      "target": 34963
    }
  ],
  "accessors": [
    {
      "bufferView": 0,
      "componentType": 5126,
      "count": 1183,
      "type": "VEC3",
      "min": [
        -0.2909878194332123,
        -0.06826558709144592,
        -0.41734954714775085
      ],
      "max": [
        0.2909878194332123,
        0.06826558709144592,
        0.9495890140533447
      ]
    },
    {
      "bufferView": 1,
      "componentType": 5126,
      "count": 1183,
      "type": "VEC3",
      "min": [
        -1,
        -0.9999843835830688,
        -1
      ],
      "max": [
        0.9999999403953552,
        0.9999843835830688,
        1
      ]
    },
    {
      "bufferView": 2,
      "componentType": 5126,
      "count": 1183,
      "type": "VEC2",
      "min": [
        0.0366547666490078,
        0.1724691390991211
      ],
      "max": [
        0.4648175835609436,
        0.8340674042701721
      ]
    },
    {
      "bufferView": 3,
      "componentType": 5126,
      "count": 1183,
      "type": "VEC2",
      "min": [
        0.06507354229688644,
        0.1165047287940979
      ],
      "max": [
        0.9729738235473633,
        0.9470707178115845
      ]
    },
    {
      "bufferView": 4,
      "componentType": 5123,
      "count": 3468,
      "type": "SCALAR",
      "min": [
        0
      ],
      "max": [
        1182
      ]
    }
  ],
  "extras": {
    "manifest": "Scepter_Starter.materials.json"
  }
}