{
  "asset": {
    "version": "2.0",
    "generator": "prefab-to-gltf"
  },
  "scene": 0,
  "scenes": [
    {
      "name": "DA_Human_ManfishShell_R",
      "nodes": [
        0
      ]
    }
  ],
  "nodes": [
    {
      "name": "DA_Manfish_R",
      "translation": [
        0,
        0,
        0
      ],
      "rotation": [
        0,
        0,
        0.7071056365966797,
        0.7071079257745626
      ],
      "scale": [
        1,
        1,
        1
      ],
      "mesh": 0
    }
  ],
  "meshes": [
    {
      "name": "DA_Manfish_R",
      "primitives": [
        {
          "attributes": {
            "POSITION": 0,
            "NORMAL": 1,
            "TEXCOORD_0": 2,
            "TEXCOORD_1": 3,
            "COLOR_0": 4
          },
          "indices": 5,
          "material": 0,
          "mode": 4
        },
        {
          "attributes": {
            "POSITION": 6,
            "NORMAL": 7,
            "TEXCOORD_0": 8,
            "TEXCOORD_1": 9,
            "COLOR_0": 10
          },
          "indices": 11,
          "material": 2,
          "mode": 4
        }
      ]
    }
  ],
  "materials": [
    {
      "name": "MatSlots_WEAPONS_001",
      "pbrMetallicRoughness": {
        "baseColorFactor": [
          1,
          1,
          1,
          1
        ],
        "metallicFactor": 0,
        "roughnessFactor": 1
      },
      "doubleSided": true,
      "extras": {
        "diffuseTexture": null,
        "specularTexture": null,
        "normalMap": null
      }
    },
    {
      "name": "Outline",
      "pbrMetallicRoughness": {
        "baseColorFactor": [
          1,
          1,
          1,
          1
        ],
        "metallicFactor": 0,
        "roughnessFactor": 1
      },
      "doubleSided": true,
      "extras": {
        "diffuseTexture": null,
        "specularTexture": null,
        "normalMap": null
      }
    },
    {
      "name": "MatSlots",
      "pbrMetallicRoughness": {
        "baseColorFactor": [
          1,
          1,
          1,
          1
        ],
        "metallicFactor": 0,
        "roughnessFactor": 1
      },
      "doubleSided": true,
      "extras": {
        "diffuseTexture": null,
        "specularTexture": null,
        "normalMap": null
      }
    }
  ],
  "buffers": [
    {
      "uri": "DA_Human_ManfishShell_R.bin",
      "byteLength": 291122
    }
  ],
  "bufferViews": [
    {
      "buffer": 0,
      "byteOffset": 0,
      "byteLength": 31860,
      "target": 34962
    },
    {
      "buffer": 0,
      "byteOffset": 31860,
      "byteLength": 31860,
      "target": 34962
    },
    {
      "buffer": 0,
      "byteOffset": 63720,
      "byteLength": 21240,
      "target": 34962
    },
    {
      "buffer": 0,
      "byteOffset": 84960,
      "byteLength": 21240,
      "target": 34962
    },
    {
      "buffer": 0,
      "byteOffset": 106200,
      "byteLength": 31860,
      "target": 34962
    },
    {
      "buffer": 0,
      "byteOffset": 138060,
      "byteLength": 14766,
      "target": 34963
    },
    {
      "buffer": 0,
      "byteOffset": 152828,
      "byteLength": 31860,
      "target": 34962
    },
    {
      "buffer": 0,
      "byteOffset": 184688,
      "byteLength": 31860,
      "target": 34962
    },
    {
      "buffer": 0,
      "byteOffset": 216548,
      "byteLength": 21240,
      "target": 34962
    },
    {
      "buffer": 0,
      "byteOffset": 237788,
      "byteLength": 21240,
      "target": 34962
    },
    {
      "buffer": 0,
      "byteOffset": 259028,
      "byteLength": 31860,
      "target": 34962
    },
    {
      "buffer": 0,
      "byteOffset": 290888,
      "byteLength": 234,
      "target": 34963
    }
  ],
  "accessors": [
    {
      "bufferView": 0,
      "componentType": 5126,
      "count": 2655,
      "type": "VEC3",
      "min": [
        -0.3993031680583954,
        -0.16333827376365662,
        -0.35041892528533936
      ],
      "max": [
        0.20952478051185608,
        0.16333827376365662,
        0.7195556163787842
      ]
    },
    {
      "bufferView": 1,
      "componentType": 5126,
      "count": 2655,
      "type": "VEC3",
      "min": [
        -0.9999833106994629,
        -0.9999752044677734,
        -0.9953292012214661
      ],
      "max": [
        0.9997595548629761,
        0.9999751448631287,
        0.9981592893600464
      ]
    },
    {
      "bufferView": 2,
      "componentType": 5126,
      "count": 2655,
      "type": "VEC2",
      "min": [
        0.0848463624715805,
        0.012630462646484375
      ],
      "max": [
        0.8336218595504761,
        0.9158539772033691
      ]
    },
    {
      "bufferView": 3,
      "componentType": 5126,
      "count": 2655,
      "type": "VEC2",
      "min": [
        0.14721114933490753,
        0.19742226600646973
      ],
      "max": [
        0.9512537121772766,
        0.9597998857498169
      ]
    },
    {
      "bufferView": 4,
      "componentType": 5126,
      "count": 1991.25,
      "type": "VEC4",
      "min": [
        0,
        0,
        0,
        0
      ],
      "max": [
        1,
        1,
        1,
        1
      ]
    },
    {
      "bufferView": 5,
      "componentType": 5123,
      "count": 7383,
      "type": "SCALAR",
      "min": [
        0
      ],
      "max": [
        2654
      ]
    },
    {
      "bufferView": 6,
      "componentType": 5126,
      "count": 2655,
      "type": "VEC3",
      "min": [
        -0.3993031680583954,
        -0.16333827376365662,
        -0.35041892528533936
      ],
      "max": [
        0.20952478051185608,
        0.16333827376365662,
        0.7195556163787842
      ]
    },
    {
      "bufferView": 7,
      "componentType": 5126,
      "count": 2655,
      "type": "VEC3",
      "min": [
        -0.9999833106994629,
        -0.9999752044677734,
        -0.9953292012214661
      ],
      "max": [
        0.9997595548629761,
        0.9999751448631287,
        0.9981592893600464
      ]
    },
    {
      "bufferView": 8,
      "componentType": 5126,
      "count": 2655,
      "type": "VEC2",
      "min": [
        0.0848463624715805,
        0.012630462646484375
      ],
      "max": [
        0.8336218595504761,
        0.9158539772033691
      ]
    },
    {
      "bufferView": 9,
      "componentType": 5126,
      "count": 2655,
      "type": "VEC2",
      "min": [
        0.14721114933490753,
        0.19742226600646973
      ],
      "max": [
        0.9512537121772766,
        0.9597998857498169
      ]
    },
    {
      "bufferView": 10,
      "componentType": 5126,
      "count": 1991.25,
      "type": "VEC4",
      "min": [
        0,
        0,
        0,
        0
      ],
      "max": [
        1,
        1,
        1,
        1
      ]
    },
    {
      "bufferView": 11,
      "componentType": 5123,
      "count": 117,
      "type": "SCALAR",
      "min": [
        0
      ],
      "max": [
        1758
      ]
    }
  ],
  "extras": {
    "manifest": "DA_Human_ManfishShell_R.materials.json"
  }
}