{
  "asset": {
    "version": "2.0",
    "generator": "prefab-to-gltf"
  },
  "scene": 0,
  "scenes": [
    {
      "name": "Spear_Manfish_Fishbone_01",
      "nodes": [
        0
      ]
    }
  ],
  "nodes": [
    {
      "name": "Spear_Manfish_Fishbone_01",
      "translation": [
        0,
        0,
        0
      ],
      "rotation": [
        0,
        0,
        0,
        1
      ],
      "scale": [
        1,
        1,
        1
      ],
      "mesh": 0
    }
  ],
  "meshes": [
    {
      "name": "Spear_Manfish_Fishbone_01",
      "primitives": [
        {
          "attributes": {
            "POSITION": 0,
            "NORMAL": 1,
            "TEXCOORD_0": 2,
            "TEXCOORD_1": 3,
            "COLOR_0": 4
          },
          "indices": 5,
          "material": 0,
          "mode": 4
        }
      ]
    }
  ],
  "materials": [
    {
      "name": "Gradmat",
      "pbrMetallicRoughness": {
        "baseColorFactor": [
          1,
          1,
          1,
          1
        ],
        "metallicFactor": 0,
        "roughnessFactor": 1
      },
      "doubleSided": true,
      "extras": {
        "diffuseTexture": null,
        "specularTexture": null,
        "normalMap": null
      }
    }
  ],
  "buffers": [
    {
      "uri": "Spear_Manfish_Fishbone_01.bin",
      "byteLength": 148852
    }
  ],
  "bufferViews": [
    {
      "buffer": 0,
      "byteOffset": 0,
      "byteLength": 31152,
      "target": 34962
    },
    {
      "buffer": 0,
      "byteOffset": 31152,
      "byteLength": 31152,
      "target": 34962
    },
    {
      "buffer": 0,
      "byteOffset": 62304,
      "byteLength": 20768,
      "target": 34962
    },
    {
      "buffer": 0,
      "byteOffset": 83072,
      "byteLength": 20768,
      "target": 34962
    },
    {
      "buffer": 0,
      "byteOffset": 103840,
      "byteLength": 31152,
      "target": 34962
    },
    {
      "buffer": 0,
      "byteOffset": 134992,
      "byteLength": 13860,
      "target": 34963
    }
  ],
  "accessors": [
    {
      "bufferView": 0,
      "componentType": 5126,
      "count": 2596,
      "type": "VEC3",
      "min": [
        -0.09649718552827835,
        -0.3227209150791168,
        -1.124343752861023
      ],
      "max": [
        0.09221504628658295,
        0.2600240111351013,
        2.2152092456817627
      ]
    },
    {
      "bufferView": 1,
      "componentType": 5126,
      "count": 2596,
      "type": "VEC3",
      "min": [
        -0.9999179840087891,
        -0.9999685883522034,
        -0.9999321699142456
      ],
      "max": [
        0.9997795820236206,
        0.9998636245727539,
        0.9970253705978394
      ]
    },
    {
      "bufferView": 2,
      "componentType": 5126,
      "count": 2596,
      "type": "VEC2",
      "min": [
        0.022303223609924316,
        0.052684783935546875
      ],
      "max": [
        0.4399700164794922,
        0.9234587550163269
      ]
    },
    {
      "bufferView": 3,
      "componentType": 5126,
      "count": 2596,
      "type": "VEC2",
      "min": [
        0,
        0.0822557806968689
      ],
      "max": [
        0.9874541759490967,
        1
      ]
    },
    {
      "bufferView": 4,
      "componentType": 5126,
      "count": 1947,
      "type": "VEC4",
      "min": [
        0,
        0,
        0,
        0
      ],
      "max": [
        1,
        1,
        1,
        1
      ]
    },
    {
      "bufferView": 5,
      "componentType": 5123,
      "count": 6930,
      "type": "SCALAR",
      "min": [
        0
      ],
      "max": [
        2595
      ]
    }
  ],
  "extras": {
    "manifest": "Spear_Manfish_Fishbone_01.materials.json"
  }
}