{
  "asset": {
    "version": "2.0",
    "generator": "prefab-to-gltf"
  },
  "scene": 0,
  "scenes": [
    {
      "name": "Spear_Manfish_Anchor_01",
      "nodes": [
        0
      ]
    }
  ],
  "nodes": [
    {
      "name": "Spear_Manfish_Anchor_01",
      "translation": [
        0,
        0,
        0
      ],
      "rotation": [
        0,
        0,
        0,
        1
      ],
      "scale": [
        1,
        1,
        1
      ],
      "mesh": 0
    }
  ],
  "meshes": [
    {
      "name": "Spear_Manfish_Anchor_01",
      "primitives": [
        {
          "attributes": {
            "POSITION": 0,
            "NORMAL": 1,
            "TEXCOORD_0": 2,
            "TEXCOORD_1": 3
          },
          "indices": 4,
          "material": 0,
          "mode": 4
        }
      ]
    }
  ],
  "materials": [
    {
      "name": "Gradmat",
      "pbrMetallicRoughness": {
        "baseColorFactor": [
          1,
          1,
          1,
          1
        ],
        "metallicFactor": 0,
        "roughnessFactor": 1
      },
      "doubleSided": true,
      "extras": {
        "diffuseTexture": null,
        "specularTexture": null,
        "normalMap": null
      }
    }
  ],
  "buffers": [
    {
      "uri": "Spear_Manfish_Anchor_01.bin",
      "byteLength": 154920
    }
  ],
  "bufferViews": [
    {
      "buffer": 0,
      "byteOffset": 0,
      "byteLength": 40968,
      "target": 34962
    },
    {
      "buffer": 0,
      "byteOffset": 40968,
      "byteLength": 40968,
      "target": 34962
    },
    {
      "buffer": 0,
      "byteOffset": 81936,
      "byteLength": 27312,
      "target": 34962
    },
    {
      "buffer": 0,
      "byteOffset": 109248,
      "byteLength": 27312,
      "target": 34962
    },
    {
      "buffer": 0,
      "byteOffset": 136560,
      "byteLength": 18360,
      "target": 34963
    }
  ],
  "accessors": [
    {
      "bufferView": 0,
      "componentType": 5126,
      "count": 3414,
      "type": "VEC3",
      "min": [
        -0.3051959276199341,
        -0.6179431080818176,
        -1.381198525428772
      ],
      "max": [
        0.22624154388904572,
        0.6371586322784424,
        2.1128365993499756
      ]
    },
    {
      "bufferView": 1,
      "componentType": 5126,
      "count": 3414,
      "type": "VEC3",
      "min": [
        -0.9999874830245972,
        -0.9999524354934692,
        -0.9953500032424927
      ],
      "max": [
        0.9999874830245972,
        1,
        0.9923192262649536
      ]
    },
    {
      "bufferView": 2,
      "componentType": 5126,
      "count": 3414,
      "type": "VEC2",
      "min": [
        0.01631900668144226,
        0.07542091608047485
      ],
      "max": [
        0.4836064875125885,
        0.9408595561981201
      ]
    },
    {
      "bufferView": 3,
      "componentType": 5126,
      "count": 3414,
      "type": "VEC2",
      "min": [
        0.03789132833480835,
        0.10284674167633057
      ],
      "max": [
        0.9479250311851501,
        0.971428394317627
      ]
    },
    {
      "bufferView": 4,
      "componentType": 5123,
      "count": 9180,
      "type": "SCALAR",
      "min": [
        0
      ],
      "max": [
        3413
      ]
    }
  ],
  "extras": {
    "manifest": "Spear_Manfish_Anchor_01.materials.json"
  }
}