{
  "asset": {
    "version": "2.0",
    "generator": "prefab-to-gltf"
  },
  "scene": 0,
  "scenes": [
    {
      "name": "Prefab_Shield",
      "nodes": [
        0
      ]
    }
  ],
  "nodes": [
    {
      "name": "Shield",
      "translation": [
        0,
        0,
        0
      ],
      "rotation": [
        0,
        0,
        0.7071056365966797,
        0.7071079257745626
      ],
      "scale": [
        1,
        1,
        1
      ],
      "mesh": 0
    }
  ],
  "meshes": [
    {
      "name": "Shield",
      "primitives": [
        {
          "attributes": {
            "POSITION": 0,
            "NORMAL": 1,
            "TEXCOORD_0": 2,
            "TEXCOORD_1": 3
          },
          "indices": 4,
          "material": 0,
          "mode": 4
        }
      ]
    }
  ],
  "materials": [
    {
      "name": "MatSlots_WEAPON",
      "pbrMetallicRoughness": {
        "baseColorFactor": [
          1,
          1,
          1,
          1
        ],
        "metallicFactor": 0,
        "roughnessFactor": 1
      },
      "doubleSided": true,
      "extras": {
        "diffuseTexture": null,
        "specularTexture": null,
        "normalMap": null
      }
    }
  ],
  "buffers": [
    {
      "uri": "Prefab_Shield.bin",
      "byteLength": 31256
    }
  ],
  "bufferViews": [
    {
      "buffer": 0,
      "byteOffset": 0,
      "byteLength": 8268,
      "target": 34962
    },
    {
      "buffer": 0,
      "byteOffset": 8268,
      "byteLength": 8268,
      "target": 34962
    },
    {
      "buffer": 0,
      "byteOffset": 16536,
      "byteLength": 5512,
      "target": 34962
    },
    {
      "buffer": 0,
      "byteOffset": 22048,
      "byteLength": 5512,
      "target": 34962
    },
    {
      "buffer": 0,
      "byteOffset": 27560,
      "byteLength": 3696,
      "target": 34963
    }
  ],
  "accessors": [
    {
      "bufferView": 0,
      "componentType": 5126,
      "count": 689,
      "type": "VEC3",
      "min": [
        -0.3200306296348572,
        -0.09107118844985962,
        -0.31763485074043274
      ],
      "max": [
        0.31897205114364624,
        0.0426514632999897,
        0.31882303953170776
      ]
    },
    {
      "bufferView": 1,
      "componentType": 5126,
      "count": 689,
      "type": "VEC3",
      "min": [
        -0.99958735704422,
        -1,
        -0.9999988079071045
      ],
      "max": [
        0.9992440938949585,
        1,
        0.9999988675117493
      ]
    },
    {
      "bufferView": 2,
      "componentType": 5126,
      "count": 689,
      "type": "VEC2",
      "min": [
        0.034370869398117065,
        0.09510743618011475
      ],
      "max": [
        0.33550697565078735,
        0.7682792544364929
      ]
    },
    {
      "bufferView": 3,
      "componentType": 5126,
      "count": 689,
      "type": "VEC2",
      "min": [
        0.059038013219833374,
        0.9563648700714111
      ],
      "max": [
        0.059038013219833374,
        0.9563649296760559
      ]
    },
    {
      "bufferView": 4,
      "componentType": 5123,
      "count": 1848,
      "type": "SCALAR",
      "min": [
        0
      ],
      "max": [
        688
      ]
    }
  ],
  "extras": {
    "manifest": "Prefab_Shield.materials.json"
  }
}