{
  "asset": {
    "version": "2.0",
    "generator": "prefab-to-gltf"
  },
  "scene": 0,
  "scenes": [
    {
      "name": "Weapons",
      "nodes": [
        0
      ]
    }
  ],
  "nodes": [
    {
      "name": "GreatSword_Common",
      "translation": [
        0,
        0,
        0
      ],
      "rotation": [
        0.7071056365966797,
        0,
        0,
        0.7071079257745626
      ],
      "scale": [
        1,
        1,
        1
      ],
      "mesh": 0
    }
  ],
  "meshes": [
    {
      "name": "GreatSword_Common",
      "primitives": [
        {
          "attributes": {
            "POSITION": 0,
            "NORMAL": 1,
            "TEXCOORD_0": 2,
            "TEXCOORD_1": 3
          },
          "indices": 4,
          "material": 0,
          "mode": 4
        }
      ]
    }
  ],
  "materials": [
    {
      "name": "lambert1",
      "pbrMetallicRoughness": {
        "baseColorFactor": [
          1,
          1,
          1,
          1
        ],
        "metallicFactor": 0,
        "roughnessFactor": 1
      },
      "doubleSided": true,
      "extras": {
        "diffuseTexture": null,
        "specularTexture": null,
        "normalMap": null
      }
    }
  ],
  "buffers": [
    {
      "uri": "Weapons.bin",
      "byteLength": 62264
    }
  ],
  "bufferViews": [
    {
      "buffer": 0,
      "byteOffset": 0,
      "byteLength": 16512,
      "target": 34962
    },
    {
      "buffer": 0,
      "byteOffset": 16512,
      "byteLength": 16512,
      "target": 34962
    },
    {
      "buffer": 0,
      "byteOffset": 33024,
      "byteLength": 11008,
      "target": 34962
    },
    {
      "buffer": 0,
      "byteOffset": 44032,
      "byteLength": 11008,
      "target": 34962
    },
    {
      "buffer": 0,
      "byteOffset": 55040,
      "byteLength": 7224,
      "target": 34963
    }
  ],
  "accessors": [
    {
      "bufferView": 0,
      "componentType": 5126,
      "count": 1376,
      "type": "VEC3",
      "min": [
        -0.060003481805324554,
        -0.4348759055137634,
        -0.16301222145557404
      ],
      "max": [
        0.060003481805324554,
        2.1479198932647705,
        0.16301222145557404
      ]
    },
    {
      "bufferView": 1,
      "componentType": 5126,
      "count": 1376,
      "type": "VEC3",
      "min": [
        -1,
        -0.9999999403953552,
        -0.9999986290931702
      ],
      "max": [
        1,
        1,
        0.9999819993972778
      ]
    },
    {
      "bufferView": 2,
      "componentType": 5126,
      "count": 1376,
      "type": "VEC2",
      "min": [
        0.044452011585235596,
        0.35269784927368164
      ],
      "max": [
        0.8229634165763855,
        0.8125274181365967
      ]
    },
    {
      "bufferView": 3,
      "componentType": 5126,
      "count": 1376,
      "type": "VEC2",
      "min": [
        0.027425356209278107,
        0.1170053482055664
      ],
      "max": [
        0.9170074462890625,
        0.976597785949707
      ]
    },
    {
      "bufferView": 4,
      "componentType": 5123,
      "count": 3612,
      "type": "SCALAR",
      "min": [
        0
      ],
      "max": [
        1375
      ]
    }
  ],
  "extras": {
    "manifest": "Weapons.materials.json"
  }
}