{
  "asset": {
    "version": "2.0",
    "generator": "prefab-to-gltf"
  },
  "scene": 0,
  "scenes": [
    {
      "name": "Back_Short_Z3U1_Wiz",
      "nodes": [
        0
      ]
    }
  ],
  "nodes": [
    {
      "name": "Back_R1S1_WizCle_N",
      "translation": [
        0,
        0,
        0
      ],
      "rotation": [
        0,
        0,
        0,
        1
      ],
      "scale": [
        1,
        1,
        1
      ],
      "mesh": 0
    }
  ],
  "meshes": [
    {
      "name": "Back_R1S1_WizCle_N",
      "primitives": [
        {
          "attributes": {
            "POSITION": 0,
            "NORMAL": 1,
            "TEXCOORD_0": 2,
            "TEXCOORD_1": 3
          },
          "indices": 4,
          "material": 0,
          "mode": 4
        }
      ]
    }
  ],
  "materials": [
    {
      "name": "GradMat_Body",
      "pbrMetallicRoughness": {
        "baseColorFactor": [
          1,
          1,
          1,
          1
        ],
        "metallicFactor": 0,
        "roughnessFactor": 1
      },
      "doubleSided": true,
      "extras": {
        "diffuseTexture": "Character/Common/Texture/CustomGradient_BasicGuy.png",
        "specularTexture": null,
        "normalMap": null
      }
    }
  ],
  "buffers": [
    {
      "uri": "Back_Short_Z3U1_Wiz.bin",
      "byteLength": 32518
    }
  ],
  "bufferViews": [
    {
      "buffer": 0,
      "byteOffset": 0,
      "byteLength": 8724,
      "target": 34962
    },
    {
      "buffer": 0,
      "byteOffset": 8724,
      "byteLength": 8724,
      "target": 34962
    },
    {
      "buffer": 0,
      "byteOffset": 17448,
      "byteLength": 5816,
      "target": 34962
    },
    {
      "buffer": 0,
      "byteOffset": 23264,
      "byteLength": 5816,
      "target": 34962
    },
    {
      "buffer": 0,
      "byteOffset": 29080,
      "byteLength": 3438,
      "target": 34963
    }
  ],
  "accessors": [
    {
      "bufferView": 0,
      "componentType": 5126,
      "count": 727,
      "type": "VEC3",
      "min": [
        -0.24072265625,
        1.484375,
        -0.14404296875
      ],
      "max": [
        0.2471923828125,
        1.904296875,
        0.270751953125
      ]
    },
    {
      "bufferView": 1,
      "componentType": 5126,
      "count": 727,
      "type": "VEC3",
      "min": [
        -0.5019607843137255,
        -0.48627450980392156,
        -0.5019607843137255
      ],
      "max": [
        1,
        1,
        1
      ]
    },
    {
      "bufferView": 2,
      "componentType": 5126,
      "count": 727,
      "type": "VEC2",
      "min": [
        0.4140625,
        0.317626953125
      ],
      "max": [
        0.47802734375,
        0.82861328125
      ]
    },
    {
      "bufferView": 3,
      "componentType": 5126,
      "count": 727,
      "type": "VEC2",
      "min": [
        0.0736083984375,
        0.96630859375
      ],
      "max": [
        0.0736083984375,
        0.96630859375
      ]
    },
    {
      "bufferView": 4,
      "componentType": 5123,
      "count": 1719,
      "type": "SCALAR",
      "min": [
        0
      ],
      "max": [
        726
      ]
    }
  ],
  "extras": {
    "manifest": "Back_Short_Z3U1_Wiz.materials.json"
  }
}