{
  "asset": {
    "version": "2.0",
    "generator": "prefab-to-gltf"
  },
  "scene": 0,
  "scenes": [
    {
      "name": "Feet_High_Z3U2_Wiz",
      "nodes": [
        0
      ]
    }
  ],
  "nodes": [
    {
      "name": "Feet_R1S1_WizCle_N",
      "translation": [
        0,
        0,
        0
      ],
      "rotation": [
        0,
        0,
        0,
        1
      ],
      "scale": [
        1,
        1,
        1
      ],
      "mesh": 0
    }
  ],
  "meshes": [
    {
      "name": "Feet_R1S1_WizCle_N",
      "primitives": [
        {
          "attributes": {
            "POSITION": 0,
            "NORMAL": 1,
            "TEXCOORD_0": 2,
            "TEXCOORD_1": 3
          },
          "indices": 4,
          "material": 0,
          "mode": 4
        }
      ]
    }
  ],
  "materials": [
    {
      "name": "GradMat_Body",
      "pbrMetallicRoughness": {
        "baseColorFactor": [
          1,
          1,
          1,
          1
        ],
        "metallicFactor": 0,
        "roughnessFactor": 1
      },
      "doubleSided": true,
      "extras": {
        "diffuseTexture": "Character/Common/Texture/CustomGradient_BasicGuy.png",
        "specularTexture": null,
        "normalMap": null
      }
    }
  ],
  "buffers": [
    {
      "uri": "Feet_High_Z3U2_Wiz.bin",
      "byteLength": 224304
    }
  ],
  "bufferViews": [
    {
      "buffer": 0,
      "byteOffset": 0,
      "byteLength": 60048,
      "target": 34962
    },
    {
      "buffer": 0,
      "byteOffset": 60048,
      "byteLength": 60048,
      "target": 34962
    },
    {
      "buffer": 0,
      "byteOffset": 120096,
      "byteLength": 40032,
      "target": 34962
    },
    {
      "buffer": 0,
      "byteOffset": 160128,
      "byteLength": 40032,
      "target": 34962
    },
    {
      "buffer": 0,
      "byteOffset": 200160,
      "byteLength": 24144,
      "target": 34963
    }
  ],
  "accessors": [
    {
      "bufferView": 0,
      "componentType": 5126,
      "count": 5004,
      "type": "VEC3",
      "min": [
        -0.462890625,
        0.01264190673828125,
        -0.117919921875
      ],
      "max": [
        0.462890625,
        0.53662109375,
        0.297607421875
      ]
    },
    {
      "bufferView": 1,
      "componentType": 5126,
      "count": 5004,
      "type": "VEC3",
      "min": [
        -0.5019607843137255,
        -0.5019607843137255,
        -0.5019607843137255
      ],
      "max": [
        1,
        1,
        1
      ]
    },
    {
      "bufferView": 2,
      "componentType": 5126,
      "count": 5004,
      "type": "VEC2",
      "min": [
        0.00566864013671875,
        0.2313232421875
      ],
      "max": [
        0.615234375,
        0.98095703125
      ]
    },
    {
      "bufferView": 3,
      "componentType": 5126,
      "count": 5004,
      "type": "VEC2",
      "min": [
        0,
        0.10760498046875
      ],
      "max": [
        0.9384765625,
        1
      ]
    },
    {
      "bufferView": 4,
      "componentType": 5123,
      "count": 12072,
      "type": "SCALAR",
      "min": [
        0
      ],
      "max": [
        5003
      ]
    }
  ],
  "extras": {
    "manifest": "Feet_High_Z3U2_Wiz.materials.json"
  }
}