{
  "asset": {
    "version": "2.0",
    "generator": "prefab-to-gltf"
  },
  "scene": 0,
  "scenes": [
    {
      "name": "Waist_Medium_Z3U1_Wiz",
      "nodes": [
        0
      ]
    }
  ],
  "nodes": [
    {
      "name": "Waist_R1S1_WizCle_N",
      "translation": [
        0,
        0,
        0
      ],
      "rotation": [
        0,
        0,
        0,
        1
      ],
      "scale": [
        1,
        1,
        1
      ],
      "mesh": 0
    }
  ],
  "meshes": [
    {
      "name": "Waist_R1S1_WizCle_N",
      "primitives": [
        {
          "attributes": {
            "POSITION": 0,
            "NORMAL": 1,
            "TEXCOORD_0": 2,
            "TEXCOORD_1": 3
          },
          "indices": 4,
          "material": 0,
          "mode": 4
        }
      ]
    }
  ],
  "materials": [
    {
      "name": "GradMat_Body",
      "pbrMetallicRoughness": {
        "baseColorFactor": [
          1,
          1,
          1,
          1
        ],
        "metallicFactor": 0,
        "roughnessFactor": 1
      },
      "doubleSided": true,
      "extras": {
        "diffuseTexture": "Character/Common/Texture/CustomGradient_BasicGuy.png",
        "specularTexture": null,
        "normalMap": null
      }
    }
  ],
  "buffers": [
    {
      "uri": "Waist_Medium_Z3U1_Wiz.bin",
      "byteLength": 63396
    }
  ],
  "bufferViews": [
    {
      "buffer": 0,
      "byteOffset": 0,
      "byteLength": 16812,
      "target": 34962
    },
    {
      "buffer": 0,
      "byteOffset": 16812,
      "byteLength": 16812,
      "target": 34962
    },
    {
      "buffer": 0,
      "byteOffset": 33624,
      "byteLength": 11208,
      "target": 34962
    },
    {
      "buffer": 0,
      "byteOffset": 44832,
      "byteLength": 11208,
      "target": 34962
    },
    {
      "buffer": 0,
      "byteOffset": 56040,
      "byteLength": 7356,
      "target": 34963
    }
  ],
  "accessors": [
    {
      "bufferView": 0,
      "componentType": 5126,
      "count": 1401,
      "type": "VEC3",
      "min": [
        -0.2215576171875,
        1.1552734375,
        -0.11810302734375
      ],
      "max": [
        0.2215576171875,
        1.3173828125,
        0.28369140625
      ]
    },
    {
      "bufferView": 1,
      "componentType": 5126,
      "count": 1401,
      "type": "VEC3",
      "min": [
        -0.5019607843137255,
        -0.5019607843137255,
        -0.5019607843137255
      ],
      "max": [
        1,
        1,
        1
      ]
    },
    {
      "bufferView": 2,
      "componentType": 5126,
      "count": 1401,
      "type": "VEC2",
      "min": [
        0.150146484375,
        0.343505859375
      ],
      "max": [
        0.60546875,
        0.8740234375
      ]
    },
    {
      "bufferView": 3,
      "componentType": 5126,
      "count": 1401,
      "type": "VEC2",
      "min": [
        0,
        0.12274169921875
      ],
      "max": [
        0.439453125,
        1
      ]
    },
    {
      "bufferView": 4,
      "componentType": 5123,
      "count": 3678,
      "type": "SCALAR",
      "min": [
        0
      ],
      "max": [
        1400
      ]
    }
  ],
  "extras": {
    "manifest": "Waist_Medium_Z3U1_Wiz.materials.json"
  }
}