{
  "asset": {
    "version": "2.0",
    "generator": "prefab-to-gltf"
  },
  "scene": 0,
  "scenes": [
    {
      "name": "Sparkling_Earth_Grey",
      "nodes": [
        0
      ]
    }
  ],
  "nodes": [
    {
      "name": "SparklingEarth01",
      "translation": [
        0,
        0,
        0
      ],
      "rotation": [
        0,
        0,
        0,
        1
      ],
      "scale": [
        1,
        1,
        1
      ],
      "mesh": 0
    }
  ],
  "meshes": [
    {
      "name": "SparklingEarth01",
      "primitives": [
        {
          "attributes": {
            "POSITION": 0,
            "NORMAL": 1,
            "TEXCOORD_0": 2,
            "TEXCOORD_1": 3
          },
          "indices": 4,
          "material": 0,
          "mode": 4
        }
      ]
    }
  ],
  "materials": [
    {
      "name": "GradMat",
      "pbrMetallicRoughness": {
        "baseColorFactor": [
          1,
          1,
          1,
          1
        ],
        "metallicFactor": 0,
        "roughnessFactor": 1
      },
      "doubleSided": true,
      "extras": {
        "diffuseTexture": "Character/Common/Texture/CustomGradient_WeaponALL.png",
        "specularTexture": null,
        "normalMap": null
      }
    }
  ],
  "buffers": [
    {
      "uri": "Sparkling_Earth_Grey.bin",
      "byteLength": 64150
    }
  ],
  "bufferViews": [
    {
      "buffer": 0,
      "byteOffset": 0,
      "byteLength": 17472,
      "target": 34962
    },
    {
      "buffer": 0,
      "byteOffset": 17472,
      "byteLength": 17472,
      "target": 34962
    },
    {
      "buffer": 0,
      "byteOffset": 34944,
      "byteLength": 11648,
      "target": 34962
    },
    {
      "buffer": 0,
      "byteOffset": 46592,
      "byteLength": 11648,
      "target": 34962
    },
    {
      "buffer": 0,
      "byteOffset": 58240,
      "byteLength": 5910,
      "target": 34963
    }
  ],
  "accessors": [
    {
      "bufferView": 0,
      "componentType": 5126,
      "count": 1456,
      "type": "VEC3",
      "min": [
        -0.9280441403388977,
        -0.6968334913253784,
        -0.954058051109314
      ],
      "max": [
        0.923380970954895,
        1.0096182823181152,
        0.547188401222229
      ]
    },
    {
      "bufferView": 1,
      "componentType": 5126,
      "count": 1456,
      "type": "VEC3",
      "min": [
        -0.9836328029632568,
        -0.9958968758583069,
        -0.9821594953536987
      ],
      "max": [
        0.9907525777816772,
        0.9964659810066223,
        0.9863128662109375
      ]
    },
    {
      "bufferView": 2,
      "componentType": 5126,
      "count": 1456,
      "type": "VEC2",
      "min": [
        0.010486185550689697,
        0.08013606071472168
      ],
      "max": [
        0.22530755400657654,
        1.0145065784454346
      ]
    },
    {
      "bufferView": 3,
      "componentType": 5126,
      "count": 1456,
      "type": "VEC2",
      "min": [
        0.03420233726501465,
        0.14434534311294556
      ],
      "max": [
        0.9399245977401733,
        0.9640349745750427
      ]
    },
    {
      "bufferView": 4,
      "componentType": 5123,
      "count": 2955,
      "type": "SCALAR",
      "min": [
        0
      ],
      "max": [
        1455
      ]
    }
  ],
  "extras": {
    "manifest": "Sparkling_Earth_Grey.materials.json"
  }
}