{
  "asset": {
    "version": "2.0",
    "generator": "prefab-to-gltf"
  },
  "scene": 0,
  "scenes": [
    {
      "name": "Tidal_Totem",
      "nodes": [
        0
      ]
    }
  ],
  "nodes": [
    {
      "name": "Tidal_Totem",
      "translation": [
        0,
        0,
        0
      ],
      "rotation": [
        0,
        0,
        0,
        1
      ],
      "scale": [
        1,
        1,
        1
      ],
      "mesh": 0
    }
  ],
  "meshes": [
    {
      "name": "Tidal_Totem",
      "primitives": [
        {
          "attributes": {
            "POSITION": 0,
            "NORMAL": 1,
            "TEXCOORD_0": 2,
            "TEXCOORD_1": 3
          },
          "indices": 4,
          "material": 0,
          "mode": 4
        }
      ]
    }
  ],
  "materials": [
    {
      "name": "MatSlots",
      "pbrMetallicRoughness": {
        "baseColorFactor": [
          1,
          1,
          1,
          1
        ],
        "metallicFactor": 0,
        "roughnessFactor": 1
      },
      "doubleSided": true,
      "extras": {
        "diffuseTexture": null,
        "specularTexture": null,
        "normalMap": null
      }
    },
    {
      "name": "Outline",
      "pbrMetallicRoughness": {
        "baseColorFactor": [
          1,
          1,
          1,
          1
        ],
        "metallicFactor": 0,
        "roughnessFactor": 1
      },
      "doubleSided": true,
      "extras": {
        "diffuseTexture": null,
        "specularTexture": null,
        "normalMap": null
      }
    }
  ],
  "buffers": [
    {
      "uri": "Tidal_Totem.bin",
      "byteLength": 137548
    }
  ],
  "bufferViews": [
    {
      "buffer": 0,
      "byteOffset": 0,
      "byteLength": 36192,
      "target": 34962
    },
    {
      "buffer": 0,
      "byteOffset": 36192,
      "byteLength": 36192,
      "target": 34962
    },
    {
      "buffer": 0,
      "byteOffset": 72384,
      "byteLength": 24128,
      "target": 34962
    },
    {
      "buffer": 0,
      "byteOffset": 96512,
      "byteLength": 24128,
      "target": 34962
    },
    {
      "buffer": 0,
      "byteOffset": 120640,
      "byteLength": 16908,
      "target": 34963
    }
  ],
  "accessors": [
    {
      "bufferView": 0,
      "componentType": 5126,
      "count": 3016,
      "type": "VEC3",
      "min": [
        -0.46805915236473083,
        -0.5046244859695435,
        -0.1566075086593628
      ],
      "max": [
        0.523306131362915,
        0.4864243268966675,
        1.7260527610778809
      ]
    },
    {
      "bufferView": 1,
      "componentType": 5126,
      "count": 3016,
      "type": "VEC3",
      "min": [
        -0.9987898468971252,
        -0.9988590478897095,
        -0.9890809059143066
      ],
      "max": [
        0.9986580014228821,
        0.9991704821586609,
        0.9995954036712646
      ]
    },
    {
      "bufferView": 2,
      "componentType": 5126,
      "count": 3016,
      "type": "VEC2",
      "min": [
        0.015586886554956436,
        0.21242690086364746
      ],
      "max": [
        0.5813621282577515,
        0.9421215057373047
      ]
    },
    {
      "bufferView": 3,
      "componentType": 5126,
      "count": 3016,
      "type": "VEC2",
      "min": [
        0,
        0.12133777141571045
      ],
      "max": [
        0.9611226320266724,
        1
      ]
    },
    {
      "bufferView": 4,
      "componentType": 5123,
      "count": 8454,
      "type": "SCALAR",
      "min": [
        0
      ],
      "max": [
        3015
      ]
    }
  ],
  "extras": {
    "manifest": "Tidal_Totem.materials.json"
  }
}