{
  "asset": {
    "version": "2.0",
    "generator": "prefab-to-gltf"
  },
  "scene": 0,
  "scenes": [
    {
      "name": "Feet_High_Endgame_Ass",
      "nodes": [
        0
      ]
    }
  ],
  "nodes": [
    {
      "name": "Feet_Endgame_Ass_N",
      "translation": [
        0,
        0,
        0
      ],
      "rotation": [
        0,
        0,
        0,
        1
      ],
      "scale": [
        1,
        1,
        1
      ],
      "mesh": 0
    }
  ],
  "meshes": [
    {
      "name": "Feet_Endgame_Ass_N",
      "primitives": [
        {
          "attributes": {
            "POSITION": 0,
            "NORMAL": 1,
            "TEXCOORD_0": 2,
            "TEXCOORD_1": 3
          },
          "indices": 4,
          "material": 0,
          "mode": 4
        }
      ]
    }
  ],
  "materials": [
    {
      "name": "MatSlots_FIGCLE1",
      "pbrMetallicRoughness": {
        "baseColorFactor": [
          1,
          1,
          1,
          1
        ],
        "metallicFactor": 0,
        "roughnessFactor": 1
      },
      "doubleSided": true,
      "extras": {
        "diffuseTexture": null,
        "specularTexture": null,
        "normalMap": null
      }
    }
  ],
  "buffers": [
    {
      "uri": "Feet_High_Endgame_Ass.bin",
      "byteLength": 153552
    }
  ],
  "bufferViews": [
    {
      "buffer": 0,
      "byteOffset": 0,
      "byteLength": 40752,
      "target": 34962
    },
    {
      "buffer": 0,
      "byteOffset": 40752,
      "byteLength": 40752,
      "target": 34962
    },
    {
      "buffer": 0,
      "byteOffset": 81504,
      "byteLength": 27168,
      "target": 34962
    },
    {
      "buffer": 0,
      "byteOffset": 108672,
      "byteLength": 27168,
      "target": 34962
    },
    {
      "buffer": 0,
      "byteOffset": 135840,
      "byteLength": 17712,
      "target": 34963
    }
  ],
  "accessors": [
    {
      "bufferView": 0,
      "componentType": 5126,
      "count": 3396,
      "type": "VEC3",
      "min": [
        -0.438720703125,
        -0.01097869873046875,
        -0.1480712890625
      ],
      "max": [
        0.438720703125,
        0.529296875,
        0.377197265625
      ]
    },
    {
      "bufferView": 1,
      "componentType": 5126,
      "count": 3396,
      "type": "VEC3",
      "min": [
        -0.5019607843137255,
        -0.5019607843137255,
        -0.5019607843137255
      ],
      "max": [
        1,
        1,
        1
      ]
    },
    {
      "bufferView": 2,
      "componentType": 5126,
      "count": 3396,
      "type": "VEC2",
      "min": [
        0.164794921875,
        0.49560546875
      ],
      "max": [
        0.5703125,
        0.99169921875
      ]
    },
    {
      "bufferView": 3,
      "componentType": 5126,
      "count": 3396,
      "type": "VEC2",
      "min": [
        0,
        0.116455078125
      ],
      "max": [
        0.84228515625,
        1
      ]
    },
    {
      "bufferView": 4,
      "componentType": 5123,
      "count": 8856,
      "type": "SCALAR",
      "min": [
        0
      ],
      "max": [
        3395
      ]
    }
  ],
  "extras": {
    "manifest": "Feet_High_Endgame_Ass.materials.json"
  }
}