{
  "asset": {
    "version": "2.0",
    "generator": "prefab-to-gltf"
  },
  "scene": 0,
  "scenes": [
    {
      "name": "Head_Close_Endgame_Ass",
      "nodes": [
        0
      ]
    }
  ],
  "nodes": [
    {
      "name": "Head_Endgame_Ass_N",
      "translation": [
        0,
        0,
        0
      ],
      "rotation": [
        0,
        0,
        0,
        1
      ],
      "scale": [
        1,
        1,
        1
      ],
      "mesh": 0
    }
  ],
  "meshes": [
    {
      "name": "Head_Endgame_Ass_N",
      "primitives": [
        {
          "attributes": {
            "POSITION": 0,
            "NORMAL": 1,
            "TEXCOORD_0": 2,
            "TEXCOORD_1": 3,
            "COLOR_0": 4
          },
          "indices": 5,
          "material": 0,
          "mode": 4
        }
      ]
    }
  ],
  "materials": [
    {
      "name": "GradMat_Body",
      "pbrMetallicRoughness": {
        "baseColorFactor": [
          1,
          1,
          1,
          1
        ],
        "metallicFactor": 0,
        "roughnessFactor": 1
      },
      "doubleSided": true,
      "extras": {
        "diffuseTexture": "Character/Common/Texture/CustomGradient_RobinHoof.png",
        "specularTexture": null,
        "normalMap": null
      }
    }
  ],
  "buffers": [
    {
      "uri": "Head_Close_Endgame_Ass.bin",
      "byteLength": 377486
    }
  ],
  "bufferViews": [
    {
      "buffer": 0,
      "byteOffset": 0,
      "byteLength": 79800,
      "target": 34962
    },
    {
      "buffer": 0,
      "byteOffset": 79800,
      "byteLength": 79800,
      "target": 34962
    },
    {
      "buffer": 0,
      "byteOffset": 159600,
      "byteLength": 53200,
      "target": 34962
    },
    {
      "buffer": 0,
      "byteOffset": 212800,
      "byteLength": 53200,
      "target": 34962
    },
    {
      "buffer": 0,
      "byteOffset": 266000,
      "byteLength": 79800,
      "target": 34962
    },
    {
      "buffer": 0,
      "byteOffset": 345800,
      "byteLength": 31686,
      "target": 34963
    }
  ],
  "accessors": [
    {
      "bufferView": 0,
      "componentType": 5126,
      "count": 6650,
      "type": "VEC3",
      "min": [
        -0.2158203125,
        1.732421875,
        -0.134765625
      ],
      "max": [
        0.2158203125,
        2.33203125,
        0.3251953125
      ]
    },
    {
      "bufferView": 1,
      "componentType": 5126,
      "count": 6650,
      "type": "VEC3",
      "min": [
        -0.5019607843137255,
        -0.5019607843137255,
        -0.5019607843137255
      ],
      "max": [
        1,
        1,
        0.4980392156862745
      ]
    },
    {
      "bufferView": 2,
      "componentType": 5126,
      "count": 6650,
      "type": "VEC2",
      "min": [
        0.04083251953125,
        0.1763916015625
      ],
      "max": [
        0.93701171875,
        0.9892578125
      ]
    },
    {
      "bufferView": 3,
      "componentType": 5126,
      "count": 6650,
      "type": "VEC2",
      "min": [
        0,
        0.02667236328125
      ],
      "max": [
        0.9912109375,
        1
      ]
    },
    {
      "bufferView": 4,
      "componentType": 5126,
      "count": 4987.5,
      "type": "VEC4",
      "min": [
        0,
        0,
        0,
        0
      ],
      "max": [
        1,
        1,
        1,
        1
      ]
    },
    {
      "bufferView": 5,
      "componentType": 5123,
      "count": 15843,
      "type": "SCALAR",
      "min": [
        0
      ],
      "max": [
        6649
      ]
    }
  ],
  "extras": {
    "manifest": "Head_Close_Endgame_Ass.materials.json"
  }
}