{
  "asset": {
    "version": "2.0",
    "generator": "prefab-to-gltf"
  },
  "scene": 0,
  "scenes": [
    {
      "name": "Chest_LongSleeves_Endgame_AssWiz",
      "nodes": [
        0
      ]
    }
  ],
  "nodes": [
    {
      "name": "Chest_Endgame_Ass_N",
      "translation": [
        0,
        0,
        0
      ],
      "rotation": [
        0,
        0,
        0,
        1
      ],
      "scale": [
        1,
        1,
        1
      ],
      "mesh": 0
    }
  ],
  "meshes": [
    {
      "name": "Chest_Endgame_Ass_N",
      "primitives": [
        {
          "attributes": {
            "POSITION": 0,
            "NORMAL": 1,
            "TEXCOORD_0": 2,
            "TEXCOORD_1": 3,
            "COLOR_0": 4
          },
          "indices": 5,
          "material": 0,
          "mode": 4
        }
      ]
    }
  ],
  "materials": [
    {
      "name": "GradMat_Body",
      "pbrMetallicRoughness": {
        "baseColorFactor": [
          1,
          1,
          1,
          1
        ],
        "metallicFactor": 0,
        "roughnessFactor": 1
      },
      "doubleSided": true,
      "extras": {
        "diffuseTexture": "Character/Common/Texture/CustomGradient_RobinHoof.png",
        "specularTexture": null,
        "normalMap": null
      }
    }
  ],
  "buffers": [
    {
      "uri": "Chest_LongSleeves_Endgame_AssWiz.bin",
      "byteLength": 460112
    }
  ],
  "bufferViews": [
    {
      "buffer": 0,
      "byteOffset": 0,
      "byteLength": 97188,
      "target": 34962
    },
    {
      "buffer": 0,
      "byteOffset": 97188,
      "byteLength": 97188,
      "target": 34962
    },
    {
      "buffer": 0,
      "byteOffset": 194376,
      "byteLength": 64792,
      "target": 34962
    },
    {
      "buffer": 0,
      "byteOffset": 259168,
      "byteLength": 64792,
      "target": 34962
    },
    {
      "buffer": 0,
      "byteOffset": 323960,
      "byteLength": 97188,
      "target": 34962
    },
    {
      "buffer": 0,
      "byteOffset": 421148,
      "byteLength": 38964,
      "target": 34963
    }
  ],
  "accessors": [
    {
      "bufferView": 0,
      "componentType": 5126,
      "count": 8099,
      "type": "VEC3",
      "min": [
        -0.66943359375,
        0.4267578125,
        -0.1783447265625
      ],
      "max": [
        0.66943359375,
        1.9326171875,
        0.253662109375
      ]
    },
    {
      "bufferView": 1,
      "componentType": 5126,
      "count": 8099,
      "type": "VEC3",
      "min": [
        -0.5019607843137255,
        -0.5019607843137255,
        -0.5019607843137255
      ],
      "max": [
        1,
        1,
        1
      ]
    },
    {
      "bufferView": 2,
      "componentType": 5126,
      "count": 8099,
      "type": "VEC2",
      "min": [
        0.160888671875,
        0.52099609375
      ],
      "max": [
        0.9423828125,
        0.99755859375
      ]
    },
    {
      "bufferView": 3,
      "componentType": 5126,
      "count": 8099,
      "type": "VEC2",
      "min": [
        0,
        0.1910400390625
      ],
      "max": [
        0.94140625,
        1
      ]
    },
    {
      "bufferView": 4,
      "componentType": 5126,
      "count": 6074.25,
      "type": "VEC4",
      "min": [
        0.3607843220233917,
        0.3607843220233917,
        0.3607843220233917,
        0.3607843220233917
      ],
      "max": [
        1,
        1,
        1,
        1
      ]
    },
    {
      "bufferView": 5,
      "componentType": 5123,
      "count": 19482,
      "type": "SCALAR",
      "min": [
        0
      ],
      "max": [
        8098
      ]
    }
  ],
  "extras": {
    "manifest": "Chest_LongSleeves_Endgame_AssWiz.materials.json"
  }
}