{
  "asset": {
    "version": "2.0",
    "generator": "prefab-to-gltf"
  },
  "scene": 0,
  "scenes": [
    {
      "name": "Back_Long_XManfish_02_Medium",
      "nodes": [
        0
      ]
    }
  ],
  "nodes": [
    {
      "name": "Back_Z1RManfish_Medium_N",
      "translation": [
        0,
        0,
        0
      ],
      "rotation": [
        0,
        0,
        0,
        1
      ],
      "scale": [
        1,
        1,
        1
      ],
      "mesh": 0,
      "children": [
        1
      ]
    },
    {
      "name": "Medium",
      "translation": [
        0,
        0,
        0
      ],
      "rotation": [
        0.7071067690849304,
        0,
        0,
        0.7071067932881644
      ],
      "scale": [
        1,
        1,
        1
      ]
    }
  ],
  "meshes": [
    {
      "name": "Back_Z1RManfish_Medium_N",
      "primitives": [
        {
          "attributes": {
            "POSITION": 0,
            "NORMAL": 1,
            "TEXCOORD_0": 2,
            "TEXCOORD_1": 3,
            "COLOR_0": 4
          },
          "indices": 5,
          "material": 0,
          "mode": 4
        }
      ]
    }
  ],
  "materials": [
    {
      "name": "GradMat_Body",
      "pbrMetallicRoughness": {
        "baseColorFactor": [
          1,
          1,
          1,
          1
        ],
        "metallicFactor": 0,
        "roughnessFactor": 1
      },
      "doubleSided": true,
      "extras": {
        "diffuseTexture": "Character/Common/Texture/CustomGradient_RobinHoof.png",
        "specularTexture": null,
        "normalMap": null
      }
    }
  ],
  "buffers": [
    {
      "uri": "Back_Long_XManfish_02_Medium.bin",
      "byteLength": 212216
    }
  ],
  "bufferViews": [
    {
      "buffer": 0,
      "byteOffset": 0,
      "byteLength": 45024,
      "target": 34962
    },
    {
      "buffer": 0,
      "byteOffset": 45024,
      "byteLength": 45024,
      "target": 34962
    },
    {
      "buffer": 0,
      "byteOffset": 90048,
      "byteLength": 30016,
      "target": 34962
    },
    {
      "buffer": 0,
      "byteOffset": 120064,
      "byteLength": 30016,
      "target": 34962
    },
    {
      "buffer": 0,
      "byteOffset": 150080,
      "byteLength": 45024,
      "target": 34962
    },
    {
      "buffer": 0,
      "byteOffset": 195104,
      "byteLength": 17112,
      "target": 34963
    }
  ],
  "accessors": [
    {
      "bufferView": 0,
      "componentType": 5126,
      "count": 3752,
      "type": "VEC3",
      "min": [
        -0.36669921875,
        0.724609375,
        -0.3134765625
      ],
      "max": [
        0.36669921875,
        1.796875,
        0.0304107666015625
      ]
    },
    {
      "bufferView": 1,
      "componentType": 5126,
      "count": 3752,
      "type": "VEC3",
      "min": [
        -0.5019607843137255,
        -0.5019607843137255,
        -0.5019607843137255
      ],
      "max": [
        1,
        1,
        1
      ]
    },
    {
      "bufferView": 2,
      "componentType": 5126,
      "count": 3752,
      "type": "VEC2",
      "min": [
        0.1422119140625,
        0.2509765625
      ],
      "max": [
        0.8720703125,
        0.880859375
      ]
    },
    {
      "bufferView": 3,
      "componentType": 5126,
      "count": 3752,
      "type": "VEC2",
      "min": [
        0,
        0.311767578125
      ],
      "max": [
        0.9423828125,
        1
      ]
    },
    {
      "bufferView": 4,
      "componentType": 5126,
      "count": 2814,
      "type": "VEC4",
      "min": [
        0,
        0,
        0,
        0
      ],
      "max": [
        1,
        1,
        1,
        1
      ]
    },
    {
      "bufferView": 5,
      "componentType": 5123,
      "count": 8556,
      "type": "SCALAR",
      "min": [
        0
      ],
      "max": [
        3751
      ]
    }
  ],
  "extras": {
    "manifest": "Back_Long_XManfish_02_Medium.materials.json"
  }
}