{
  "asset": {
    "version": "2.0",
    "generator": "prefab-to-gltf"
  },
  "scene": 0,
  "scenes": [
    {
      "name": "Back_Long_XManfish_02_Heavy",
      "nodes": [
        0
      ]
    }
  ],
  "nodes": [
    {
      "name": "Back_Z1RManfish_Heavy_N",
      "translation": [
        0,
        0,
        0
      ],
      "rotation": [
        0,
        0,
        0,
        1
      ],
      "scale": [
        1,
        1,
        1
      ],
      "mesh": 0,
      "children": [
        1
      ]
    },
    {
      "name": "Heavy",
      "translation": [
        0,
        0,
        0
      ],
      "rotation": [
        0.7071067690849304,
        0,
        0,
        0.7071067932881644
      ],
      "scale": [
        1,
        1,
        1
      ]
    }
  ],
  "meshes": [
    {
      "name": "Back_Z1RManfish_Heavy_N",
      "primitives": [
        {
          "attributes": {
            "POSITION": 0,
            "NORMAL": 1,
            "TEXCOORD_0": 2,
            "TEXCOORD_1": 3,
            "COLOR_0": 4
          },
          "indices": 5,
          "material": 0,
          "mode": 4
        }
      ]
    }
  ],
  "materials": [
    {
      "name": "GradMat_Body",
      "pbrMetallicRoughness": {
        "baseColorFactor": [
          1,
          1,
          1,
          1
        ],
        "metallicFactor": 0,
        "roughnessFactor": 1
      },
      "doubleSided": true,
      "extras": {
        "diffuseTexture": "Character/Common/Texture/CustomGradient_RobinHoof.png",
        "specularTexture": null,
        "normalMap": null
      }
    }
  ],
  "buffers": [
    {
      "uri": "Back_Long_XManfish_02_Heavy.bin",
      "byteLength": 260080
    }
  ],
  "bufferViews": [
    {
      "buffer": 0,
      "byteOffset": 0,
      "byteLength": 55704,
      "target": 34962
    },
    {
      "buffer": 0,
      "byteOffset": 55704,
      "byteLength": 55704,
      "target": 34962
    },
    {
      "buffer": 0,
      "byteOffset": 111408,
      "byteLength": 37136,
      "target": 34962
    },
    {
      "buffer": 0,
      "byteOffset": 148544,
      "byteLength": 37136,
      "target": 34962
    },
    {
      "buffer": 0,
      "byteOffset": 185680,
      "byteLength": 55704,
      "target": 34962
    },
    {
      "buffer": 0,
      "byteOffset": 241384,
      "byteLength": 18696,
      "target": 34963
    }
  ],
  "accessors": [
    {
      "bufferView": 0,
      "componentType": 5126,
      "count": 4642,
      "type": "VEC3",
      "min": [
        -0.363037109375,
        0.67333984375,
        -0.313232421875
      ],
      "max": [
        0.363037109375,
        1.7294921875,
        -0.07562255859375
      ]
    },
    {
      "bufferView": 1,
      "componentType": 5126,
      "count": 4642,
      "type": "VEC3",
      "min": [
        -0.5019607843137255,
        -0.5019607843137255,
        -0.5019607843137255
      ],
      "max": [
        1,
        1,
        1
      ]
    },
    {
      "bufferView": 2,
      "componentType": 5126,
      "count": 4642,
      "type": "VEC2",
      "min": [
        0.1285400390625,
        0.08660888671875
      ],
      "max": [
        0.9560546875,
        0.9326171875
      ]
    },
    {
      "bufferView": 3,
      "componentType": 5126,
      "count": 4642,
      "type": "VEC2",
      "min": [
        0.0599365234375,
        0.1055908203125
      ],
      "max": [
        0.958984375,
        0.9482421875
      ]
    },
    {
      "bufferView": 4,
      "componentType": 5126,
      "count": 3481.5,
      "type": "VEC4",
      "min": [
        0,
        0,
        0,
        0
      ],
      "max": [
        1,
        1,
        1,
        1
      ]
    },
    {
      "bufferView": 5,
      "componentType": 5123,
      "count": 9348,
      "type": "SCALAR",
      "min": [
        0
      ],
      "max": [
        4641
      ]
    }
  ],
  "extras": {
    "manifest": "Back_Long_XManfish_02_Heavy.materials.json"
  }
}