{
  "asset": {
    "version": "2.0",
    "generator": "prefab-to-gltf"
  },
  "scene": 0,
  "scenes": [
    {
      "name": "Back_Long_XManfish_02_Light",
      "nodes": [
        0
      ]
    }
  ],
  "nodes": [
    {
      "name": "Back_Z1RManfish_Light_N",
      "translation": [
        0,
        0,
        0
      ],
      "rotation": [
        0,
        0,
        0,
        1
      ],
      "scale": [
        1,
        1,
        1
      ],
      "mesh": 0,
      "children": [
        1
      ]
    },
    {
      "name": "Light",
      "translation": [
        0,
        0,
        0
      ],
      "rotation": [
        0.7071067690849304,
        0,
        0,
        0.7071067932881644
      ],
      "scale": [
        1,
        1,
        1
      ]
    }
  ],
  "meshes": [
    {
      "name": "Back_Z1RManfish_Light_N",
      "primitives": [
        {
          "attributes": {
            "POSITION": 0,
            "NORMAL": 1,
            "TEXCOORD_0": 2,
            "TEXCOORD_1": 3,
            "COLOR_0": 4
          },
          "indices": 5,
          "material": 0,
          "mode": 4
        }
      ]
    }
  ],
  "materials": [
    {
      "name": "Gradmat_Weapon",
      "pbrMetallicRoughness": {
        "baseColorFactor": [
          1,
          1,
          1,
          1
        ],
        "metallicFactor": 0,
        "roughnessFactor": 1
      },
      "doubleSided": true,
      "extras": {
        "diffuseTexture": "Character/Common/Texture/CustomGradient_Hero_Clothes.png",
        "specularTexture": null,
        "normalMap": null
      }
    }
  ],
  "buffers": [
    {
      "uri": "Back_Long_XManfish_02_Light.bin",
      "byteLength": 124902
    }
  ],
  "bufferViews": [
    {
      "buffer": 0,
      "byteOffset": 0,
      "byteLength": 26244,
      "target": 34962
    },
    {
      "buffer": 0,
      "byteOffset": 26244,
      "byteLength": 26244,
      "target": 34962
    },
    {
      "buffer": 0,
      "byteOffset": 52488,
      "byteLength": 17496,
      "target": 34962
    },
    {
      "buffer": 0,
      "byteOffset": 69984,
      "byteLength": 17496,
      "target": 34962
    },
    {
      "buffer": 0,
      "byteOffset": 87480,
      "byteLength": 26244,
      "target": 34962
    },
    {
      "buffer": 0,
      "byteOffset": 113724,
      "byteLength": 11178,
      "target": 34963
    }
  ],
  "accessors": [
    {
      "bufferView": 0,
      "componentType": 5126,
      "count": 2187,
      "type": "VEC3",
      "min": [
        -0.355712890625,
        0.724609375,
        -0.343994140625
      ],
      "max": [
        0.34375,
        1.751953125,
        -0.08514404296875
      ]
    },
    {
      "bufferView": 1,
      "componentType": 5126,
      "count": 2187,
      "type": "VEC3",
      "min": [
        -0.5019607843137255,
        -0.4745098039215686,
        -0.5019607843137255
      ],
      "max": [
        1,
        1,
        1
      ]
    },
    {
      "bufferView": 2,
      "componentType": 5126,
      "count": 2187,
      "type": "VEC2",
      "min": [
        0.181884765625,
        0.19384765625
      ],
      "max": [
        0.9873046875,
        0.84619140625
      ]
    },
    {
      "bufferView": 3,
      "componentType": 5126,
      "count": 2187,
      "type": "VEC2",
      "min": [
        0.0172271728515625,
        0.1363525390625
      ],
      "max": [
        0.9423828125,
        0.9697265625
      ]
    },
    {
      "bufferView": 4,
      "componentType": 5126,
      "count": 1640.25,
      "type": "VEC4",
      "min": [
        0,
        0,
        0,
        0
      ],
      "max": [
        1,
        1,
        1,
        1
      ]
    },
    {
      "bufferView": 5,
      "componentType": 5123,
      "count": 5589,
      "type": "SCALAR",
      "min": [
        0
      ],
      "max": [
        2186
      ]
    }
  ],
  "extras": {
    "manifest": "Back_Long_XManfish_02_Light.materials.json"
  }
}