{
  "asset": {
    "version": "2.0",
    "generator": "prefab-to-gltf"
  },
  "scene": 0,
  "scenes": [
    {
      "name": "Chest_Short_Sleeves_XManfish_02_Heavy",
      "nodes": [
        0
      ]
    }
  ],
  "nodes": [
    {
      "name": "Chest_Z1RManfish_Heavy_N",
      "translation": [
        0,
        0,
        0
      ],
      "rotation": [
        0,
        0,
        0,
        1
      ],
      "scale": [
        1,
        1,
        1
      ],
      "mesh": 0
    }
  ],
  "meshes": [
    {
      "name": "Chest_Z1RManfish_Heavy_N",
      "primitives": [
        {
          "attributes": {
            "POSITION": 0,
            "NORMAL": 1,
            "TEXCOORD_0": 2,
            "TEXCOORD_1": 3,
            "COLOR_0": 4
          },
          "indices": 5,
          "material": 0,
          "mode": 4
        }
      ]
    }
  ],
  "materials": [
    {
      "name": "GradMat_Body",
      "pbrMetallicRoughness": {
        "baseColorFactor": [
          1,
          1,
          1,
          1
        ],
        "metallicFactor": 0,
        "roughnessFactor": 1
      },
      "doubleSided": true,
      "extras": {
        "diffuseTexture": "Character/Common/Texture/CustomGradient_BasicGuy.png",
        "specularTexture": null,
        "normalMap": null
      }
    }
  ],
  "buffers": [
    {
      "uri": "Chest_Short_Sleeves_XManfish_02_Heavy.bin",
      "byteLength": 315008
    }
  ],
  "bufferViews": [
    {
      "buffer": 0,
      "byteOffset": 0,
      "byteLength": 66624,
      "target": 34962
    },
    {
      "buffer": 0,
      "byteOffset": 66624,
      "byteLength": 66624,
      "target": 34962
    },
    {
      "buffer": 0,
      "byteOffset": 133248,
      "byteLength": 44416,
      "target": 34962
    },
    {
      "buffer": 0,
      "byteOffset": 177664,
      "byteLength": 44416,
      "target": 34962
    },
    {
      "buffer": 0,
      "byteOffset": 222080,
      "byteLength": 66624,
      "target": 34962
    },
    {
      "buffer": 0,
      "byteOffset": 288704,
      "byteLength": 26304,
      "target": 34963
    }
  ],
  "accessors": [
    {
      "bufferView": 0,
      "componentType": 5126,
      "count": 5552,
      "type": "VEC3",
      "min": [
        -0.66650390625,
        1.1181640625,
        -0.0972900390625
      ],
      "max": [
        0.66650390625,
        1.9326171875,
        0.251953125
      ]
    },
    {
      "bufferView": 1,
      "componentType": 5126,
      "count": 5552,
      "type": "VEC3",
      "min": [
        -0.5019607843137255,
        -0.5019607843137255,
        -0.5019607843137255
      ],
      "max": [
        1,
        1,
        1
      ]
    },
    {
      "bufferView": 2,
      "componentType": 5126,
      "count": 5552,
      "type": "VEC2",
      "min": [
        0.01812744140625,
        0.1572265625
      ],
      "max": [
        0.85986328125,
        0.9326171875
      ]
    },
    {
      "bufferView": 3,
      "componentType": 5126,
      "count": 5552,
      "type": "VEC2",
      "min": [
        0,
        0.11151123046875
      ],
      "max": [
        0.958984375,
        1
      ]
    },
    {
      "bufferView": 4,
      "componentType": 5126,
      "count": 4164,
      "type": "VEC4",
      "min": [
        0.3607843220233917,
        0.3607843220233917,
        0.3607843220233917,
        0.3607843220233917
      ],
      "max": [
        1,
        1,
        1,
        1
      ]
    },
    {
      "bufferView": 5,
      "componentType": 5123,
      "count": 13152,
      "type": "SCALAR",
      "min": [
        0
      ],
      "max": [
        5551
      ]
    }
  ],
  "extras": {
    "manifest": "Chest_Short_Sleeves_XManfish_02_Heavy.materials.json"
  }
}