{
  "asset": {
    "version": "2.0",
    "generator": "prefab-to-gltf"
  },
  "scene": 0,
  "scenes": [
    {
      "name": "Feet_Fancy_XManfish_02_Light",
      "nodes": [
        0
      ]
    }
  ],
  "nodes": [
    {
      "name": "Feet_Z1RManfish_Light_N",
      "translation": [
        0,
        0,
        0
      ],
      "rotation": [
        0,
        0,
        0,
        1
      ],
      "scale": [
        1,
        1,
        1
      ],
      "mesh": 0
    }
  ],
  "meshes": [
    {
      "name": "Feet_Z1RManfish_Light_N",
      "primitives": [
        {
          "attributes": {
            "POSITION": 0,
            "NORMAL": 1,
            "TEXCOORD_0": 2,
            "TEXCOORD_1": 3
          },
          "indices": 4,
          "material": 0,
          "mode": 4
        }
      ]
    }
  ],
  "materials": [
    {
      "name": "GradMat_Body",
      "pbrMetallicRoughness": {
        "baseColorFactor": [
          1,
          1,
          1,
          1
        ],
        "metallicFactor": 0,
        "roughnessFactor": 1
      },
      "doubleSided": true,
      "extras": {
        "diffuseTexture": "Character/Common/Texture/CustomGradient_BasicGuy.png",
        "specularTexture": null,
        "normalMap": null
      }
    }
  ],
  "buffers": [
    {
      "uri": "Feet_Fancy_XManfish_02_Light.bin",
      "byteLength": 188252
    }
  ],
  "bufferViews": [
    {
      "buffer": 0,
      "byteOffset": 0,
      "byteLength": 50784,
      "target": 34962
    },
    {
      "buffer": 0,
      "byteOffset": 50784,
      "byteLength": 50784,
      "target": 34962
    },
    {
      "buffer": 0,
      "byteOffset": 101568,
      "byteLength": 33856,
      "target": 34962
    },
    {
      "buffer": 0,
      "byteOffset": 135424,
      "byteLength": 33856,
      "target": 34962
    },
    {
      "buffer": 0,
      "byteOffset": 169280,
      "byteLength": 18972,
      "target": 34963
    }
  ],
  "accessors": [
    {
      "bufferView": 0,
      "componentType": 5126,
      "count": 4232,
      "type": "VEC3",
      "min": [
        -0.436767578125,
        -0.0008258819580078125,
        -0.1600341796875
      ],
      "max": [
        0.436767578125,
        0.285888671875,
        0.2978515625
      ]
    },
    {
      "bufferView": 1,
      "componentType": 5126,
      "count": 4232,
      "type": "VEC3",
      "min": [
        -0.5019607843137255,
        -0.5019607843137255,
        -0.5019607843137255
      ],
      "max": [
        1,
        1,
        1
      ]
    },
    {
      "bufferView": 2,
      "componentType": 5126,
      "count": 4232,
      "type": "VEC2",
      "min": [
        0.0277557373046875,
        0.2313232421875
      ],
      "max": [
        0.97021484375,
        0.98779296875
      ]
    },
    {
      "bufferView": 3,
      "componentType": 5126,
      "count": 4232,
      "type": "VEC2",
      "min": [
        0.01800537109375,
        0.10626220703125
      ],
      "max": [
        0.95654296875,
        0.970703125
      ]
    },
    {
      "bufferView": 4,
      "componentType": 5123,
      "count": 9486,
      "type": "SCALAR",
      "min": [
        0
      ],
      "max": [
        4231
      ]
    }
  ],
  "extras": {
    "manifest": "Feet_Fancy_XManfish_02_Light.materials.json"
  }
}