{
  "asset": {
    "version": "2.0",
    "generator": "prefab-to-gltf"
  },
  "scene": 0,
  "scenes": [
    {
      "name": "Hands_Forearm_XManfish_02_Medium",
      "nodes": [
        0
      ]
    }
  ],
  "nodes": [
    {
      "name": "Hands_Z1RManfish_Medium_N",
      "translation": [
        0,
        0,
        0
      ],
      "rotation": [
        0,
        0,
        0,
        1
      ],
      "scale": [
        1,
        1,
        1
      ],
      "mesh": 0,
      "children": [
        1
      ]
    },
    {
      "name": "Medium",
      "translation": [
        0,
        0,
        0
      ],
      "rotation": [
        0.7071067690849304,
        0,
        0,
        0.7071067932881644
      ],
      "scale": [
        1,
        1,
        1
      ]
    }
  ],
  "meshes": [
    {
      "name": "Hands_Z1RManfish_Medium_N",
      "primitives": [
        {
          "attributes": {
            "POSITION": 0,
            "NORMAL": 1,
            "TEXCOORD_0": 2,
            "TEXCOORD_1": 3,
            "COLOR_0": 4
          },
          "indices": 5,
          "material": 0,
          "mode": 4
        }
      ]
    }
  ],
  "materials": [
    {
      "name": "GradMat_Body2",
      "pbrMetallicRoughness": {
        "baseColorFactor": [
          1,
          1,
          1,
          1
        ],
        "metallicFactor": 0,
        "roughnessFactor": 1
      },
      "doubleSided": true,
      "extras": {
        "diffuseTexture": "Character/Common/Texture/CustomGradient_BasicGuy.png",
        "specularTexture": null,
        "normalMap": null
      }
    }
  ],
  "buffers": [
    {
      "uri": "Hands_Forearm_XManfish_02_Medium.bin",
      "byteLength": 318024
    }
  ],
  "bufferViews": [
    {
      "buffer": 0,
      "byteOffset": 0,
      "byteLength": 66672,
      "target": 34962
    },
    {
      "buffer": 0,
      "byteOffset": 66672,
      "byteLength": 66672,
      "target": 34962
    },
    {
      "buffer": 0,
      "byteOffset": 133344,
      "byteLength": 44448,
      "target": 34962
    },
    {
      "buffer": 0,
      "byteOffset": 177792,
      "byteLength": 44448,
      "target": 34962
    },
    {
      "buffer": 0,
      "byteOffset": 222240,
      "byteLength": 66672,
      "target": 34962
    },
    {
      "buffer": 0,
      "byteOffset": 288912,
      "byteLength": 29112,
      "target": 34963
    }
  ],
  "accessors": [
    {
      "bufferView": 0,
      "componentType": 5126,
      "count": 5556,
      "type": "VEC3",
      "min": [
        -0.81201171875,
        0.9814453125,
        -0.044891357421875
      ],
      "max": [
        0.81201171875,
        1.5166015625,
        0.337646484375
      ]
    },
    {
      "bufferView": 1,
      "componentType": 5126,
      "count": 5556,
      "type": "VEC3",
      "min": [
        -0.5019607843137255,
        -0.5019607843137255,
        -0.5019607843137255
      ],
      "max": [
        1,
        1,
        1
      ]
    },
    {
      "bufferView": 2,
      "componentType": 5126,
      "count": 5556,
      "type": "VEC2",
      "min": [
        0.0190582275390625,
        0.1739501953125
      ],
      "max": [
        0.966796875,
        0.986328125
      ]
    },
    {
      "bufferView": 3,
      "componentType": 5126,
      "count": 5556,
      "type": "VEC2",
      "min": [
        0,
        0.08489990234375
      ],
      "max": [
        0.99267578125,
        1.0439453125
      ]
    },
    {
      "bufferView": 4,
      "componentType": 5126,
      "count": 4167,
      "type": "VEC4",
      "min": [
        0,
        0,
        0,
        0
      ],
      "max": [
        1,
        1,
        1,
        1
      ]
    },
    {
      "bufferView": 5,
      "componentType": 5123,
      "count": 14556,
      "type": "SCALAR",
      "min": [
        0
      ],
      "max": [
        5555
      ]
    }
  ],
  "extras": {
    "manifest": "Hands_Forearm_XManfish_02_Medium.materials.json"
  }
}