{
  "asset": {
    "version": "2.0",
    "generator": "prefab-to-gltf"
  },
  "scene": 0,
  "scenes": [
    {
      "name": "Feline_SnowPanther_DarkBrown",
      "nodes": [
        0
      ]
    }
  ],
  "nodes": [
    {
      "name": "Feline_SnowPanther",
      "translation": [
        0,
        0,
        0
      ],
      "rotation": [
        0,
        0,
        0,
        1
      ],
      "scale": [
        1,
        1,
        1
      ],
      "mesh": 0
    }
  ],
  "meshes": [
    {
      "name": "Feline_SnowPanther",
      "primitives": [
        {
          "attributes": {
            "POSITION": 0,
            "NORMAL": 1,
            "TEXCOORD_0": 2,
            "TEXCOORD_1": 3,
            "COLOR_0": 4
          },
          "indices": 5,
          "material": 0,
          "mode": 4
        }
      ]
    }
  ],
  "materials": [
    {
      "name": "MatSlots",
      "pbrMetallicRoughness": {
        "baseColorFactor": [
          1,
          1,
          1,
          1
        ],
        "metallicFactor": 0,
        "roughnessFactor": 1
      },
      "doubleSided": true,
      "extras": {
        "diffuseTexture": "Character/Common/Texture/CustomGradient_Guard.png",
        "specularTexture": null,
        "normalMap": null
      }
    }
  ],
  "buffers": [
    {
      "uri": "Feline_SnowPanther_DarkBrown.bin",
      "byteLength": 486812
    }
  ],
  "bufferViews": [
    {
      "buffer": 0,
      "byteOffset": 0,
      "byteLength": 97116,
      "target": 34962
    },
    {
      "buffer": 0,
      "byteOffset": 97116,
      "byteLength": 97116,
      "target": 34962
    },
    {
      "buffer": 0,
      "byteOffset": 194232,
      "byteLength": 64744,
      "target": 34962
    },
    {
      "buffer": 0,
      "byteOffset": 258976,
      "byteLength": 64744,
      "target": 34962
    },
    {
      "buffer": 0,
      "byteOffset": 323720,
      "byteLength": 97116,
      "target": 34962
    },
    {
      "buffer": 0,
      "byteOffset": 420836,
      "byteLength": 65976,
      "target": 34963
    }
  ],
  "accessors": [
    {
      "bufferView": 0,
      "componentType": 5126,
      "count": 8093,
      "type": "VEC3",
      "min": [
        -0.4537239074707031,
        -0.03342687711119652,
        -3.040377140045166
      ],
      "max": [
        0.4537239074707031,
        1.5475631952285767,
        1.3395053148269653
      ]
    },
    {
      "bufferView": 1,
      "componentType": 5126,
      "count": 8093,
      "type": "VEC3",
      "min": [
        -0.9999945163726807,
        -1,
        -0.9996671676635742
      ],
      "max": [
        0.9999945163726807,
        0.9999546408653259,
        0.9997744560241699
      ]
    },
    {
      "bufferView": 2,
      "componentType": 5126,
      "count": 8093,
      "type": "VEC2",
      "min": [
        0.00708672683686018,
        0.10199058055877686
      ],
      "max": [
        0.8527831435203552,
        0.9858267903327942
      ]
    },
    {
      "bufferView": 3,
      "componentType": 5126,
      "count": 8093,
      "type": "VEC2",
      "min": [
        0,
        0.11670416593551636
      ],
      "max": [
        0.4102451205253601,
        1
      ]
    },
    {
      "bufferView": 4,
      "componentType": 5126,
      "count": 6069.75,
      "type": "VEC4",
      "min": [
        0,
        0,
        0,
        0
      ],
      "max": [
        0.9999715685844421,
        0.9999715685844421,
        0.9999715685844421,
        0.9999715685844421
      ]
    },
    {
      "bufferView": 5,
      "componentType": 5123,
      "count": 32988,
      "type": "SCALAR",
      "min": [
        0
      ],
      "max": [
        8092
      ]
    }
  ],
  "extras": {
    "manifest": "Feline_SnowPanther_DarkBrown.materials.json"
  }
}