{
  "asset": {
    "version": "2.0",
    "generator": "prefab-to-gltf"
  },
  "scene": 0,
  "scenes": [
    {
      "name": "OLD_HeavyHuman_Ashram",
      "nodes": [
        0
      ]
    }
  ],
  "nodes": [
    {
      "name": "model_0",
      "translation": [
        0,
        0,
        0
      ],
      "rotation": [
        0,
        0,
        0,
        1
      ],
      "scale": [
        1,
        1,
        1
      ],
      "children": [
        1,
        2,
        3,
        4,
        5,
        6,
        7,
        8,
        9
      ]
    },
    {
      "name": "Ashram_Heavy_Helmet",
      "translation": [
        0,
        0,
        0
      ],
      "rotation": [
        0,
        0,
        0.7071056365966797,
        0.7071079257745626
      ],
      "scale": [
        1,
        1,
        1
      ],
      "mesh": 0
    },
    {
      "name": "Ashram_Heavy_Pant",
      "translation": [
        0,
        0,
        0
      ],
      "rotation": [
        0,
        0,
        0.7071056365966797,
        0.7071079257745626
      ],
      "scale": [
        1,
        1,
        1
      ],
      "mesh": 1
    },
    {
      "name": "Ashram_Heavy_Tunic",
      "translation": [
        0,
        0,
        0
      ],
      "rotation": [
        0,
        0,
        0.7071056365966797,
        0.7071079257745626
      ],
      "scale": [
        1,
        1,
        1
      ],
      "mesh": 2
    },
    {
      "name": "Ashram_Heavy_Gloves",
      "translation": [
        0,
        0,
        0
      ],
      "rotation": [
        0,
        0,
        0.7071056365966797,
        0.7071079257745626
      ],
      "scale": [
        1,
        1,
        1
      ],
      "mesh": 3
    },
    {
      "name": "Ashram_Heavy_Boots",
      "translation": [
        0,
        0,
        0
      ],
      "rotation": [
        0,
        0,
        0.7071056365966797,
        0.7071079257745626
      ],
      "scale": [
        1,
        1,
        1
      ],
      "mesh": 4
    },
    {
      "name": "Ashram_Heavy_Pauldron",
      "translation": [
        0,
        0,
        0
      ],
      "rotation": [
        0,
        0,
        0.7071056365966797,
        0.7071079257745626
      ],
      "scale": [
        1,
        1,
        1
      ],
      "mesh": 5
    },
    {
      "name": "Ashram_Heavy_Fur",
      "translation": [
        0,
        0,
        0
      ],
      "rotation": [
        0,
        0,
        0.7071056365966797,
        0.7071079257745626
      ],
      "scale": [
        1,
        1,
        1
      ],
      "mesh": 6
    },
    {
      "name": "Ashram_Heavy_Body",
      "translation": [
        0,
        0,
        0
      ],
      "rotation": [
        0,
        0,
        0.7071056365966797,
        0.7071079257745626
      ],
      "scale": [
        1,
        1,
        1
      ],
      "mesh": 7
    },
    {
      "name": "Ashram_Heavy_Belt",
      "translation": [
        0,
        0,
        0
      ],
      "rotation": [
        0,
        0,
        0.7071056365966797,
        0.7071079257745626
      ],
      "scale": [
        1,
        1,
        1
      ],
      "mesh": 8
    }
  ],
  "meshes": [
    {
      "name": "Ashram_Heavy_Helmet",
      "primitives": [
        {
          "attributes": {
            "POSITION": 0,
            "NORMAL": 1,
            "TEXCOORD_0": 2,
            "TEXCOORD_1": 3
          },
          "indices": 4,
          "material": 0,
          "mode": 4
        }
      ]
    },
    {
      "name": "Ashram_Heavy_Pant",
      "primitives": [
        {
          "attributes": {
            "POSITION": 5,
            "NORMAL": 6,
            "TEXCOORD_0": 7,
            "TEXCOORD_1": 8
          },
          "indices": 9,
          "material": 0,
          "mode": 4
        }
      ]
    },
    {
      "name": "Ashram_Heavy_Tunic",
      "primitives": [
        {
          "attributes": {
            "POSITION": 10,
            "NORMAL": 11,
            "TEXCOORD_0": 12,
            "TEXCOORD_1": 13
          },
          "indices": 14,
          "material": 0,
          "mode": 4
        }
      ]
    },
    {
      "name": "Ashram_Heavy_Gloves",
      "primitives": [
        {
          "attributes": {
            "POSITION": 15,
            "NORMAL": 16,
            "TEXCOORD_0": 17,
            "TEXCOORD_1": 18
          },
          "indices": 19,
          "material": 0,
          "mode": 4
        }
      ]
    },
    {
      "name": "Ashram_Heavy_Boots",
      "primitives": [
        {
          "attributes": {
            "POSITION": 20,
            "NORMAL": 21,
            "TEXCOORD_0": 22,
            "TEXCOORD_1": 23
          },
          "indices": 24,
          "material": 0,
          "mode": 4
        }
      ]
    },
    {
      "name": "Ashram_Heavy_Pauldron",
      "primitives": [
        {
          "attributes": {
            "POSITION": 25,
            "NORMAL": 26,
            "TEXCOORD_0": 27,
            "TEXCOORD_1": 28
          },
          "indices": 29,
          "material": 0,
          "mode": 4
        }
      ]
    },
    {
      "name": "Ashram_Heavy_Fur",
      "primitives": [
        {
          "attributes": {
            "POSITION": 30,
            "NORMAL": 31,
            "TEXCOORD_0": 32,
            "TEXCOORD_1": 33
          },
          "indices": 34,
          "material": 0,
          "mode": 4
        }
      ]
    },
    {
      "name": "Ashram_Heavy_Body",
      "primitives": [
        {
          "attributes": {
            "POSITION": 35,
            "NORMAL": 36,
            "TEXCOORD_0": 37,
            "TEXCOORD_1": 38
          },
          "indices": 39,
          "material": 0,
          "mode": 4
        }
      ]
    },
    {
      "name": "Ashram_Heavy_Belt",
      "primitives": [
        {
          "attributes": {
            "POSITION": 40,
            "NORMAL": 41,
            "TEXCOORD_0": 42,
            "TEXCOORD_1": 43
          },
          "indices": 44,
          "material": 0,
          "mode": 4
        }
      ]
    }
  ],
  "materials": [
    {
      "name": "MatSlots_ASHRAM",
      "pbrMetallicRoughness": {
        "baseColorFactor": [
          1,
          1,
          1,
          1
        ],
        "metallicFactor": 0,
        "roughnessFactor": 1
      },
      "doubleSided": true,
      "extras": {
        "diffuseTexture": null,
        "specularTexture": null,
        "normalMap": null
      }
    }
  ],
  "buffers": [
    {
      "uri": "OLD_HeavyHuman_Ashram.bin",
      "byteLength": 892516
    }
  ],
  "bufferViews": [
    {
      "buffer": 0,
      "byteOffset": 0,
      "byteLength": 12528,
      "target": 34962
    },
    {
      "buffer": 0,
      "byteOffset": 12528,
      "byteLength": 12528,
      "target": 34962
    },
    {
      "buffer": 0,
      "byteOffset": 25056,
      "byteLength": 8352,
      "target": 34962
    },
    {
      "buffer": 0,
      "byteOffset": 33408,
      "byteLength": 8352,
      "target": 34962
    },
    {
      "buffer": 0,
      "byteOffset": 41760,
      "byteLength": 3744,
      "target": 34963
    },
    {
      "buffer": 0,
      "byteOffset": 45504,
      "byteLength": 17724,
      "target": 34962
    },
    {
      "buffer": 0,
      "byteOffset": 63228,
      "byteLength": 17724,
      "target": 34962
    },
    {
      "buffer": 0,
      "byteOffset": 80952,
      "byteLength": 11816,
      "target": 34962
    },
    {
      "buffer": 0,
      "byteOffset": 92768,
      "byteLength": 11816,
      "target": 34962
    },
    {
      "buffer": 0,
      "byteOffset": 104584,
      "byteLength": 6252,
      "target": 34963
    },
    {
      "buffer": 0,
      "byteOffset": 110836,
      "byteLength": 32496,
      "target": 34962
    },
    {
      "buffer": 0,
      "byteOffset": 143332,
      "byteLength": 32496,
      "target": 34962
    },
    {
      "buffer": 0,
      "byteOffset": 175828,
      "byteLength": 21664,
      "target": 34962
    },
    {
      "buffer": 0,
      "byteOffset": 197492,
      "byteLength": 21664,
      "target": 34962
    },
    {
      "buffer": 0,
      "byteOffset": 219156,
      "byteLength": 13464,
      "target": 34963
    },
    {
      "buffer": 0,
      "byteOffset": 232620,
      "byteLength": 49464,
      "target": 34962
    },
    {
      "buffer": 0,
      "byteOffset": 282084,
      "byteLength": 49464,
      "target": 34962
    },
    {
      "buffer": 0,
      "byteOffset": 331548,
      "byteLength": 32976,
      "target": 34962
    },
    {
      "buffer": 0,
      "byteOffset": 364524,
      "byteLength": 32976,
      "target": 34962
    },
    {
      "buffer": 0,
      "byteOffset": 397500,
      "byteLength": 25416,
      "target": 34963
    },
    {
      "buffer": 0,
      "byteOffset": 422916,
      "byteLength": 34080,
      "target": 34962
    },
    {
      "buffer": 0,
      "byteOffset": 456996,
      "byteLength": 34080,
      "target": 34962
    },
    {
      "buffer": 0,
      "byteOffset": 491076,
      "byteLength": 22720,
      "target": 34962
    },
    {
      "buffer": 0,
      "byteOffset": 513796,
      "byteLength": 22720,
      "target": 34962
    },
    {
      "buffer": 0,
      "byteOffset": 536516,
      "byteLength": 14268,
      "target": 34963
    },
    {
      "buffer": 0,
      "byteOffset": 550784,
      "byteLength": 19440,
      "target": 34962
    },
    {
      "buffer": 0,
      "byteOffset": 570224,
      "byteLength": 19440,
      "target": 34962
    },
    {
      "buffer": 0,
      "byteOffset": 589664,
      "byteLength": 12960,
      "target": 34962
    },
    {
      "buffer": 0,
      "byteOffset": 602624,
      "byteLength": 12960,
      "target": 34962
    },
    {
      "buffer": 0,
      "byteOffset": 615584,
      "byteLength": 8136,
      "target": 34963
    },
    {
      "buffer": 0,
      "byteOffset": 623720,
      "byteLength": 34644,
      "target": 34962
    },
    {
      "buffer": 0,
      "byteOffset": 658364,
      "byteLength": 34644,
      "target": 34962
    },
    {
      "buffer": 0,
      "byteOffset": 693008,
      "byteLength": 23096,
      "target": 34962
    },
    {
      "buffer": 0,
      "byteOffset": 716104,
      "byteLength": 23096,
      "target": 34962
    },
    {
      "buffer": 0,
      "byteOffset": 739200,
      "byteLength": 18300,
      "target": 34963
    },
    {
      "buffer": 0,
      "byteOffset": 757500,
      "byteLength": 21564,
      "target": 34962
    },
    {
      "buffer": 0,
      "byteOffset": 779064,
      "byteLength": 21564,
      "target": 34962
    },
    {
      "buffer": 0,
      "byteOffset": 800628,
      "byteLength": 14376,
      "target": 34962
    },
    {
      "buffer": 0,
      "byteOffset": 815004,
      "byteLength": 14376,
      "target": 34962
    },
    {
      "buffer": 0,
      "byteOffset": 829380,
      "byteLength": 13764,
      "target": 34963
    },
    {
      "buffer": 0,
      "byteOffset": 843144,
      "byteLength": 13368,
      "target": 34962
    },
    {
      "buffer": 0,
      "byteOffset": 856512,
      "byteLength": 13368,
      "target": 34962
    },
    {
      "buffer": 0,
      "byteOffset": 869880,
      "byteLength": 8912,
      "target": 34962
    },
    {
      "buffer": 0,
      "byteOffset": 878792,
      "byteLength": 8912,
      "target": 34962
    },
    {
      "buffer": 0,
      "byteOffset": 887704,
      "byteLength": 4812,
      "target": 34963
    }
  ],
  "accessors": [
    {
      "bufferView": 0,
      "componentType": 5126,
      "count": 1044,
      "type": "VEC3",
      "min": [
        -0.6737511157989502,
        -0.6206200122833252,
        3.773056745529175
      ],
      "max": [
        0.6737511157989502,
        0.14340740442276,
        4.755370616912842
      ]
    },
    {
      "bufferView": 1,
      "componentType": 5126,
      "count": 1044,
      "type": "VEC3",
      "min": [
        -0.994657576084137,
        -0.9981065392494202,
        -0.9847951531410217
      ],
      "max": [
        0.994657576084137,
        0.9999949932098389,
        0.9874258041381836
      ]
    },
    {
      "bufferView": 2,
      "componentType": 5126,
      "count": 1044,
      "type": "VEC2",
      "min": [
        0.14932209253311157,
        0.28670424222946167
      ],
      "max": [
        0.32911601662635803,
        0.9816621541976929
      ]
    },
    {
      "bufferView": 3,
      "componentType": 5126,
      "count": 1044,
      "type": "VEC2",
      "min": [
        0.02055951952934265,
        0.11013126373291016
      ],
      "max": [
        0.9451209902763367,
        0.975701093673706
      ]
    },
    {
      "bufferView": 4,
      "componentType": 5123,
      "count": 1872,
      "type": "SCALAR",
      "min": [
        0
      ],
      "max": [
        1043
      ]
    },
    {
      "bufferView": 5,
      "componentType": 5126,
      "count": 1477,
      "type": "VEC3",
      "min": [
        -0.8125641345977783,
        -0.585105299949646,
        0.885904848575592
      ],
      "max": [
        0.8125658631324768,
        0.304190456867218,
        2.5909440517425537
      ]
    },
    {
      "bufferView": 6,
      "componentType": 5126,
      "count": 1477,
      "type": "VEC3",
      "min": [
        -0.9992690086364746,
        -0.9995895624160767,
        -0.9997585415840149
      ],
      "max": [
        0.9992309212684631,
        0.996995210647583,
        0.9989027380943298
      ]
    },
    {
      "bufferView": 7,
      "componentType": 5126,
      "count": 1477,
      "type": "VEC2",
      "min": [
        0.30861854553222656,
        0.1797303557395935
      ],
      "max": [
        0.5841148495674133,
        0.8697733879089355
      ]
    },
    {
      "bufferView": 8,
      "componentType": 5126,
      "count": 1477,
      "type": "VEC2",
      "min": [
        0.02523551881313324,
        0.09401184320449829
      ],
      "max": [
        0.8659029006958008,
        0.968100905418396
      ]
    },
    {
      "bufferView": 9,
      "componentType": 5123,
      "count": 3126,
      "type": "SCALAR",
      "min": [
        0
      ],
      "max": [
        1476
      ]
    },
    {
      "bufferView": 10,
      "componentType": 5126,
      "count": 2708,
      "type": "VEC3",
      "min": [
        -1.5323071479797363,
        -0.918764054775238,
        0.8625036478042603
      ],
      "max": [
        1.5323071479797363,
        0.6489681005477905,
        3.902892589569092
      ]
    },
    {
      "bufferView": 11,
      "componentType": 5126,
      "count": 2708,
      "type": "VEC3",
      "min": [
        -0.9826318621635437,
        -0.9998278021812439,
        -0.9944502115249634
      ],
      "max": [
        0.9826319813728333,
        0.9999852776527405,
        0.994705319404602
      ]
    },
    {
      "bufferView": 12,
      "componentType": 5126,
      "count": 2708,
      "type": "VEC2",
      "min": [
        0.21217836439609528,
        0.26373112201690674
      ],
      "max": [
        0.8532695174217224,
        0.7948541641235352
      ]
    },
    {
      "bufferView": 13,
      "componentType": 5126,
      "count": 2708,
      "type": "VEC2",
      "min": [
        0.012641612440347672,
        0.06694459915161133
      ],
      "max": [
        0.9704113602638245,
        0.9706041812896729
      ]
    },
    {
      "bufferView": 14,
      "componentType": 5123,
      "count": 6732,
      "type": "SCALAR",
      "min": [
        0
      ],
      "max": [
        2707
      ]
    },
    {
      "bufferView": 15,
      "componentType": 5126,
      "count": 4122,
      "type": "VEC3",
      "min": [
        -1.955495834350586,
        -0.745962381362915,
        1.5285354852676392
      ],
      "max": [
        1.955495834350586,
        0.6476815938949585,
        3.0553321838378906
      ]
    },
    {
      "bufferView": 16,
      "componentType": 5126,
      "count": 4122,
      "type": "VEC3",
      "min": [
        -0.9993370771408081,
        -0.9998475313186646,
        -0.9965894222259521
      ],
      "max": [
        0.9993370771408081,
        0.9971117973327637,
        0.9998291730880737
      ]
    },
    {
      "bufferView": 17,
      "componentType": 5126,
      "count": 4122,
      "type": "VEC2",
      "min": [
        0.13457168638706207,
        0.2696530818939209
      ],
      "max": [
        0.8351877331733704,
        0.8022547364234924
      ]
    },
    {
      "bufferView": 18,
      "componentType": 5126,
      "count": 4122,
      "type": "VEC2",
      "min": [
        0,
        0.10455566644668579
      ],
      "max": [
        0.9692493677139282,
        1
      ]
    },
    {
      "bufferView": 19,
      "componentType": 5123,
      "count": 12708,
      "type": "SCALAR",
      "min": [
        0
      ],
      "max": [
        4121
      ]
    },
    {
      "bufferView": 20,
      "componentType": 5126,
      "count": 2840,
      "type": "VEC3",
      "min": [
        -0.8912428617477417,
        -0.8285795450210571,
        -0.0074613094329833984
      ],
      "max": [
        0.8912428617477417,
        0.3005027174949646,
        1.3728135824203491
      ]
    },
    {
      "bufferView": 21,
      "componentType": 5126,
      "count": 2840,
      "type": "VEC3",
      "min": [
        -0.9996438026428223,
        -0.9896309971809387,
        -0.9999613165855408
      ],
      "max": [
        0.9996438026428223,
        0.9991583228111267,
        0.9976426362991333
      ]
    },
    {
      "bufferView": 22,
      "componentType": 5126,
      "count": 2840,
      "type": "VEC2",
      "min": [
        0.15149933099746704,
        0.43201911449432373
      ],
      "max": [
        0.9609833359718323,
        0.8732594847679138
      ]
    },
    {
      "bufferView": 23,
      "componentType": 5126,
      "count": 2840,
      "type": "VEC2",
      "min": [
        0,
        0.08197653293609619
      ],
      "max": [
        0.9718266725540161,
        1
      ]
    },
    {
      "bufferView": 24,
      "componentType": 5123,
      "count": 7134,
      "type": "SCALAR",
      "min": [
        0
      ],
      "max": [
        2839
      ]
    },
    {
      "bufferView": 25,
      "componentType": 5126,
      "count": 1620,
      "type": "VEC3",
      "min": [
        -1.679076910018921,
        -0.805134654045105,
        3.0646324157714844
      ],
      "max": [
        1.679076910018921,
        0.583132803440094,
        3.8593273162841797
      ]
    },
    {
      "bufferView": 26,
      "componentType": 5126,
      "count": 1620,
      "type": "VEC3",
      "min": [
        -0.9980735182762146,
        -0.9743599891662598,
        -0.999316394329071
      ],
      "max": [
        0.9980735182762146,
        0.9743599891662598,
        0.9986577033996582
      ]
    },
    {
      "bufferView": 27,
      "componentType": 5126,
      "count": 1620,
      "type": "VEC2",
      "min": [
        0.17587605118751526,
        0.1777910590171814
      ],
      "max": [
        0.8344120383262634,
        0.8434394001960754
      ]
    },
    {
      "bufferView": 28,
      "componentType": 5126,
      "count": 1620,
      "type": "VEC2",
      "min": [
        0.04469957947731018,
        0.08660382032394409
      ],
      "max": [
        0.9659559726715088,
        0.9515607357025146
      ]
    },
    {
      "bufferView": 29,
      "componentType": 5123,
      "count": 4068,
      "type": "SCALAR",
      "min": [
        0
      ],
      "max": [
        1619
      ]
    },
    {
      "bufferView": 30,
      "componentType": 5126,
      "count": 2887,
      "type": "VEC3",
      "min": [
        -1.652815580368042,
        -0.7229551076889038,
        1.3715124130249023
      ],
      "max": [
        1.4124618768692017,
        1.7592191696166992,
        4.7301225662231445
      ]
    },
    {
      "bufferView": 31,
      "componentType": 5126,
      "count": 2887,
      "type": "VEC3",
      "min": [
        -0.9999932050704956,
        -0.9998405575752258,
        -0.9998921155929565
      ],
      "max": [
        0.9998562932014465,
        0.999574601650238,
        0.9995757937431335
      ]
    },
    {
      "bufferView": 32,
      "componentType": 5126,
      "count": 2887,
      "type": "VEC2",
      "min": [
        0.943297803401947,
        0.23228830099105835
      ],
      "max": [
        0.9877769947052002,
        0.9606212973594666
      ]
    },
    {
      "bufferView": 33,
      "componentType": 5126,
      "count": 2887,
      "type": "VEC2",
      "min": [
        0.006551771890372038,
        0.10299205780029297
      ],
      "max": [
        1.0023860931396484,
        0.9978434443473816
      ]
    },
    {
      "bufferView": 34,
      "componentType": 5123,
      "count": 9150,
      "type": "SCALAR",
      "min": [
        0
      ],
      "max": [
        2886
      ]
    },
    {
      "bufferView": 35,
      "componentType": 5126,
      "count": 1797,
      "type": "VEC3",
      "min": [
        -0.7575162649154663,
        -0.5510603189468384,
        3.352144956588745
      ],
      "max": [
        0.7575162649154663,
        0.41623058915138245,
        4.445501327514648
      ]
    },
    {
      "bufferView": 36,
      "componentType": 5126,
      "count": 1797,
      "type": "VEC3",
      "min": [
        -0.9998231530189514,
        -0.9998238682746887,
        -0.9999604225158691
      ],
      "max": [
        0.9998231530189514,
        0.9999707937240601,
        0.9982007145881653
      ]
    },
    {
      "bufferView": 37,
      "componentType": 5126,
      "count": 1797,
      "type": "VEC2",
      "min": [
        0.04470758140087128,
        0.8691403269767761
      ],
      "max": [
        0.06379257887601852,
        0.9422470927238464
      ]
    },
    {
      "bufferView": 38,
      "componentType": 5126,
      "count": 1797,
      "type": "VEC2",
      "min": [
        0.027018219232559204,
        0.1121525764465332
      ],
      "max": [
        0.4632788896560669,
        0.9794461131095886
      ]
    },
    {
      "bufferView": 39,
      "componentType": 5123,
      "count": 6882,
      "type": "SCALAR",
      "min": [
        0
      ],
      "max": [
        1796
      ]
    },
    {
      "bufferView": 40,
      "componentType": 5126,
      "count": 1114,
      "type": "VEC3",
      "min": [
        -0.8271865248680115,
        -0.7591140866279602,
        1.3409277200698853
      ],
      "max": [
        0.8271865248680115,
        0.33757489919662476,
        2.650765895843506
      ]
    },
    {
      "bufferView": 41,
      "componentType": 5126,
      "count": 1114,
      "type": "VEC3",
      "min": [
        -0.9999991059303284,
        -0.9999371767044067,
        -0.9999235272407532
      ],
      "max": [
        0.9999990463256836,
        0.999998927116394,
        0.9999988079071045
      ]
    },
    {
      "bufferView": 42,
      "componentType": 5126,
      "count": 1114,
      "type": "VEC2",
      "min": [
        0.4260205328464508,
        0.3488729000091553
      ],
      "max": [
        0.8297103047370911,
        0.8424952030181885
      ]
    },
    {
      "bufferView": 43,
      "componentType": 5126,
      "count": 1114,
      "type": "VEC2",
      "min": [
        0.02592056803405285,
        0.10144931077957153
      ],
      "max": [
        0.9112271666526794,
        0.9777971506118774
      ]
    },
    {
      "bufferView": 44,
      "componentType": 5123,
      "count": 2406,
      "type": "SCALAR",
      "min": [
        0
      ],
      "max": [
        1113
      ]
    }
  ],
  "extras": {
    "manifest": "OLD_HeavyHuman_Ashram.materials.json"
  }
}