{
  "asset": {
    "version": "2.0",
    "generator": "prefab-to-gltf"
  },
  "scene": 0,
  "scenes": [
    {
      "name": "Golem_Poison_01",
      "nodes": [
        0
      ]
    }
  ],
  "nodes": [
    {
      "name": "Golem_Lava",
      "translation": [
        0,
        0,
        0
      ],
      "rotation": [
        0,
        0,
        0,
        1
      ],
      "scale": [
        1,
        1,
        1
      ],
      "mesh": 0
    }
  ],
  "meshes": [
    {
      "name": "Golem_Lava",
      "primitives": [
        {
          "attributes": {
            "POSITION": 0,
            "NORMAL": 1,
            "TEXCOORD_0": 2,
            "TEXCOORD_1": 3
          },
          "indices": 4,
          "material": 0,
          "mode": 4
        },
        {
          "attributes": {
            "POSITION": 5,
            "NORMAL": 6,
            "TEXCOORD_0": 7,
            "TEXCOORD_1": 8
          },
          "indices": 9,
          "material": 1,
          "mode": 4
        }
      ]
    }
  ],
  "materials": [
    {
      "name": "Golem_Eyes",
      "pbrMetallicRoughness": {
        "baseColorFactor": [
          1,
          1,
          1,
          1
        ],
        "metallicFactor": 0,
        "roughnessFactor": 1
      },
      "doubleSided": true,
      "extras": {
        "diffuseTexture": "Character/Mob/Golem/Stone01/Golem_Eyes.png",
        "specularTexture": null,
        "normalMap": null
      }
    },
    {
      "name": "Golem_Body",
      "pbrMetallicRoughness": {
        "baseColorFactor": [
          1,
          1,
          1,
          1
        ],
        "metallicFactor": 0,
        "roughnessFactor": 1
      },
      "doubleSided": true,
      "extras": {
        "diffuseTexture": "Character/Common/Texture/CustomGradient_WeaponALL.png",
        "specularTexture": null,
        "normalMap": null
      }
    }
  ],
  "buffers": [
    {
      "uri": "Golem_Poison_01.bin",
      "byteLength": 320150
    }
  ],
  "bufferViews": [
    {
      "buffer": 0,
      "byteOffset": 0,
      "byteLength": 44544,
      "target": 34962
    },
    {
      "buffer": 0,
      "byteOffset": 44544,
      "byteLength": 44544,
      "target": 34962
    },
    {
      "buffer": 0,
      "byteOffset": 89088,
      "byteLength": 29696,
      "target": 34962
    },
    {
      "buffer": 0,
      "byteOffset": 118784,
      "byteLength": 29696,
      "target": 34962
    },
    {
      "buffer": 0,
      "byteOffset": 148480,
      "byteLength": 3840,
      "target": 34963
    },
    {
      "buffer": 0,
      "byteOffset": 152320,
      "byteLength": 44544,
      "target": 34962
    },
    {
      "buffer": 0,
      "byteOffset": 196864,
      "byteLength": 44544,
      "target": 34962
    },
    {
      "buffer": 0,
      "byteOffset": 241408,
      "byteLength": 29696,
      "target": 34962
    },
    {
      "buffer": 0,
      "byteOffset": 271104,
      "byteLength": 29696,
      "target": 34962
    },
    {
      "buffer": 0,
      "byteOffset": 300800,
      "byteLength": 19350,
      "target": 34963
    }
  ],
  "accessors": [
    {
      "bufferView": 0,
      "componentType": 5126,
      "count": 3712,
      "type": "VEC3",
      "min": [
        -1.6712614297866821,
        0.003609688486903906,
        -1.1710381507873535
      ],
      "max": [
        1.7423148155212402,
        2.8537778854370117,
        1.1454068422317505
      ]
    },
    {
      "bufferView": 1,
      "componentType": 5126,
      "count": 3712,
      "type": "VEC3",
      "min": [
        -0.999971866607666,
        -0.999998927116394,
        -0.9997355341911316
      ],
      "max": [
        0.9959386587142944,
        0.9999215602874756,
        0.9988951086997986
      ]
    },
    {
      "bufferView": 2,
      "componentType": 5126,
      "count": 3712,
      "type": "VEC2",
      "min": [
        0.0026675278786569834,
        0.0014528632164001465
      ],
      "max": [
        1.0059374570846558,
        0.9975065588951111
      ]
    },
    {
      "bufferView": 3,
      "componentType": 5126,
      "count": 3712,
      "type": "VEC2",
      "min": [
        0,
        0.07953798770904541
      ],
      "max": [
        0.9671087265014648,
        1
      ]
    },
    {
      "bufferView": 4,
      "componentType": 5123,
      "count": 1920,
      "type": "SCALAR",
      "min": [
        0
      ],
      "max": [
        479
      ]
    },
    {
      "bufferView": 5,
      "componentType": 5126,
      "count": 3712,
      "type": "VEC3",
      "min": [
        -1.6712614297866821,
        0.003609688486903906,
        -1.1710381507873535
      ],
      "max": [
        1.7423148155212402,
        2.8537778854370117,
        1.1454068422317505
      ]
    },
    {
      "bufferView": 6,
      "componentType": 5126,
      "count": 3712,
      "type": "VEC3",
      "min": [
        -0.999971866607666,
        -0.999998927116394,
        -0.9997355341911316
      ],
      "max": [
        0.9959386587142944,
        0.9999215602874756,
        0.9988951086997986
      ]
    },
    {
      "bufferView": 7,
      "componentType": 5126,
      "count": 3712,
      "type": "VEC2",
      "min": [
        0.0026675278786569834,
        0.0014528632164001465
      ],
      "max": [
        1.0059374570846558,
        0.9975065588951111
      ]
    },
    {
      "bufferView": 8,
      "componentType": 5126,
      "count": 3712,
      "type": "VEC2",
      "min": [
        0,
        0.07953798770904541
      ],
      "max": [
        0.9671087265014648,
        1
      ]
    },
    {
      "bufferView": 9,
      "componentType": 5123,
      "count": 9675,
      "type": "SCALAR",
      "min": [
        0
      ],
      "max": [
        3711
      ]
    }
  ],
  "extras": {
    "manifest": "Golem_Poison_01.materials.json"
  }
}