{
  "asset": {
    "version": "2.0",
    "generator": "prefab-to-gltf"
  },
  "scene": 0,
  "scenes": [
    {
      "name": "Feet_Low_Z3U2_AssCle",
      "nodes": [
        0
      ]
    }
  ],
  "nodes": [
    {
      "name": "Feet_R1S1_AssWiz_N",
      "translation": [
        0,
        0,
        0
      ],
      "rotation": [
        0,
        0,
        0,
        1
      ],
      "scale": [
        1,
        1,
        1
      ],
      "mesh": 0
    }
  ],
  "meshes": [
    {
      "name": "Feet_R1S1_AssWiz_N",
      "primitives": [
        {
          "attributes": {
            "POSITION": 0,
            "NORMAL": 1,
            "TEXCOORD_0": 2,
            "TEXCOORD_1": 3
          },
          "indices": 4,
          "material": 0,
          "mode": 4
        }
      ]
    }
  ],
  "materials": [
    {
      "name": "GradMat_Body",
      "pbrMetallicRoughness": {
        "baseColorFactor": [
          1,
          1,
          1,
          1
        ],
        "metallicFactor": 0,
        "roughnessFactor": 1
      },
      "doubleSided": true,
      "extras": {
        "diffuseTexture": "Character/Common/Texture/CustomGradient_BasicGuy.png",
        "specularTexture": null,
        "normalMap": null
      }
    }
  ],
  "buffers": [
    {
      "uri": "Feet_Low_Z3U2_AssCle.bin",
      "byteLength": 107824
    }
  ],
  "bufferViews": [
    {
      "buffer": 0,
      "byteOffset": 0,
      "byteLength": 29388,
      "target": 34962
    },
    {
      "buffer": 0,
      "byteOffset": 29388,
      "byteLength": 29388,
      "target": 34962
    },
    {
      "buffer": 0,
      "byteOffset": 58776,
      "byteLength": 19592,
      "target": 34962
    },
    {
      "buffer": 0,
      "byteOffset": 78368,
      "byteLength": 19592,
      "target": 34962
    },
    {
      "buffer": 0,
      "byteOffset": 97960,
      "byteLength": 9864,
      "target": 34963
    }
  ],
  "accessors": [
    {
      "bufferView": 0,
      "componentType": 5126,
      "count": 2449,
      "type": "VEC3",
      "min": [
        -0.41015625,
        0.0008387565612792969,
        -0.09716796875
      ],
      "max": [
        0.41015625,
        0.355224609375,
        0.33984375
      ]
    },
    {
      "bufferView": 1,
      "componentType": 5126,
      "count": 2449,
      "type": "VEC3",
      "min": [
        -0.5019607843137255,
        -0.5019607843137255,
        -0.5019607843137255
      ],
      "max": [
        1,
        0.4980392156862745,
        1
      ]
    },
    {
      "bufferView": 2,
      "componentType": 5126,
      "count": 2449,
      "type": "VEC2",
      "min": [
        0.1514892578125,
        0.44140625
      ],
      "max": [
        0.58544921875,
        0.90966796875
      ]
    },
    {
      "bufferView": 3,
      "componentType": 5126,
      "count": 2449,
      "type": "VEC2",
      "min": [
        0.04620361328125,
        0.12322998046875
      ],
      "max": [
        0.943359375,
        0.9697265625
      ]
    },
    {
      "bufferView": 4,
      "componentType": 5123,
      "count": 4932,
      "type": "SCALAR",
      "min": [
        0
      ],
      "max": [
        2448
      ]
    }
  ],
  "extras": {
    "manifest": "Feet_Low_Z3U2_AssCle.materials.json"
  }
}