{
  "asset": {
    "version": "2.0",
    "generator": "prefab-to-gltf"
  },
  "scene": 0,
  "scenes": [
    {
      "name": "Hands_Tip_Z3U2_AssCle",
      "nodes": [
        0
      ]
    }
  ],
  "nodes": [
    {
      "name": "Hands_Z3U_Medium_N",
      "translation": [
        0,
        0,
        0
      ],
      "rotation": [
        0,
        0,
        0,
        1
      ],
      "scale": [
        1,
        1,
        1
      ],
      "mesh": 0
    }
  ],
  "meshes": [
    {
      "name": "Hands_Z3U_Medium_N",
      "primitives": [
        {
          "attributes": {
            "POSITION": 0,
            "NORMAL": 1,
            "TEXCOORD_0": 2,
            "TEXCOORD_1": 3
          },
          "indices": 4,
          "material": 0,
          "mode": 4
        }
      ]
    }
  ],
  "materials": [
    {
      "name": "MatSlots_ASSWIZ1",
      "pbrMetallicRoughness": {
        "baseColorFactor": [
          1,
          1,
          1,
          1
        ],
        "metallicFactor": 0,
        "roughnessFactor": 1
      },
      "doubleSided": true,
      "extras": {
        "diffuseTexture": null,
        "specularTexture": null,
        "normalMap": null
      }
    }
  ],
  "buffers": [
    {
      "uri": "Hands_Tip_Z3U2_AssCle.bin",
      "byteLength": 149668
    }
  ],
  "bufferViews": [
    {
      "buffer": 0,
      "byteOffset": 0,
      "byteLength": 38748,
      "target": 34962
    },
    {
      "buffer": 0,
      "byteOffset": 38748,
      "byteLength": 38748,
      "target": 34962
    },
    {
      "buffer": 0,
      "byteOffset": 77496,
      "byteLength": 25832,
      "target": 34962
    },
    {
      "buffer": 0,
      "byteOffset": 103328,
      "byteLength": 25832,
      "target": 34962
    },
    {
      "buffer": 0,
      "byteOffset": 129160,
      "byteLength": 20508,
      "target": 34963
    }
  ],
  "accessors": [
    {
      "bufferView": 0,
      "componentType": 5126,
      "count": 3229,
      "type": "VEC3",
      "min": [
        -0.81201171875,
        0.9814453125,
        0.08642578125
      ],
      "max": [
        0.81201171875,
        1.2451171875,
        0.337646484375
      ]
    },
    {
      "bufferView": 1,
      "componentType": 5126,
      "count": 3229,
      "type": "VEC3",
      "min": [
        -0.5019607843137255,
        -0.5019607843137255,
        -0.5019607843137255
      ],
      "max": [
        1,
        1,
        1
      ]
    },
    {
      "bufferView": 2,
      "componentType": 5126,
      "count": 3229,
      "type": "VEC2",
      "min": [
        0.0190582275390625,
        0.1739501953125
      ],
      "max": [
        0.45654296875,
        0.95947265625
      ]
    },
    {
      "bufferView": 3,
      "componentType": 5126,
      "count": 3229,
      "type": "VEC2",
      "min": [
        0.0290679931640625,
        0.177490234375
      ],
      "max": [
        0.328369140625,
        1.0009765625
      ]
    },
    {
      "bufferView": 4,
      "componentType": 5123,
      "count": 10254,
      "type": "SCALAR",
      "min": [
        0
      ],
      "max": [
        3228
      ]
    }
  ],
  "extras": {
    "manifest": "Hands_Tip_Z3U2_AssCle.materials.json"
  }
}