{
  "asset": {
    "version": "2.0",
    "generator": "prefab-to-gltf"
  },
  "scene": 0,
  "scenes": [
    {
      "name": "GreatMace_Faerie_HoneySpoonGatsbee",
      "nodes": [
        0
      ]
    }
  ],
  "nodes": [
    {
      "name": "Gatsbee_Hammer",
      "translation": [
        0,
        0,
        0
      ],
      "rotation": [
        0,
        0,
        0,
        1
      ],
      "scale": [
        1,
        1,
        1
      ],
      "mesh": 0
    }
  ],
  "meshes": [
    {
      "name": "Gatsbee_Hammer",
      "primitives": [
        {
          "attributes": {
            "POSITION": 0,
            "NORMAL": 1,
            "TEXCOORD_0": 2,
            "TEXCOORD_1": 3
          },
          "indices": 4,
          "material": 0,
          "mode": 4
        }
      ]
    }
  ],
  "materials": [
    {
      "name": "GradMat",
      "pbrMetallicRoughness": {
        "baseColorFactor": [
          1,
          1,
          1,
          1
        ],
        "metallicFactor": 0,
        "roughnessFactor": 1
      },
      "doubleSided": true,
      "extras": {
        "diffuseTexture": null,
        "specularTexture": null,
        "normalMap": null
      }
    },
    {
      "name": "Outline",
      "pbrMetallicRoughness": {
        "baseColorFactor": [
          1,
          1,
          1,
          1
        ],
        "metallicFactor": 0,
        "roughnessFactor": 1
      },
      "doubleSided": true,
      "extras": {
        "diffuseTexture": null,
        "specularTexture": null,
        "normalMap": null
      }
    }
  ],
  "buffers": [
    {
      "uri": "GreatMace_Faerie_HoneySpoonGatsbee.bin",
      "byteLength": 140468
    }
  ],
  "bufferViews": [
    {
      "buffer": 0,
      "byteOffset": 0,
      "byteLength": 36564,
      "target": 34962
    },
    {
      "buffer": 0,
      "byteOffset": 36564,
      "byteLength": 36564,
      "target": 34962
    },
    {
      "buffer": 0,
      "byteOffset": 73128,
      "byteLength": 24376,
      "target": 34962
    },
    {
      "buffer": 0,
      "byteOffset": 97504,
      "byteLength": 24376,
      "target": 34962
    },
    {
      "buffer": 0,
      "byteOffset": 121880,
      "byteLength": 18588,
      "target": 34963
    }
  ],
  "accessors": [
    {
      "bufferView": 0,
      "componentType": 5126,
      "count": 3047,
      "type": "VEC3",
      "min": [
        -0.23643460869789124,
        -0.23795568943023682,
        -0.8383225202560425
      ],
      "max": [
        0.23643460869789124,
        0.23795568943023682,
        1.9057034254074097
      ]
    },
    {
      "bufferView": 1,
      "componentType": 5126,
      "count": 3047,
      "type": "VEC3",
      "min": [
        -1,
        -1,
        -1
      ],
      "max": [
        1,
        1,
        1
      ]
    },
    {
      "bufferView": 2,
      "componentType": 5126,
      "count": 3047,
      "type": "VEC2",
      "min": [
        0.015667084604501724,
        0.3328803777694702
      ],
      "max": [
        0.46515804529190063,
        0.9804927706718445
      ]
    },
    {
      "bufferView": 3,
      "componentType": 5126,
      "count": 3047,
      "type": "VEC2",
      "min": [
        0.038300588726997375,
        0.08885705471038818
      ],
      "max": [
        0.9486054182052612,
        0.9629433155059814
      ]
    },
    {
      "bufferView": 4,
      "componentType": 5123,
      "count": 9294,
      "type": "SCALAR",
      "min": [
        0
      ],
      "max": [
        3046
      ]
    }
  ],
  "extras": {
    "manifest": "GreatMace_Faerie_HoneySpoonGatsbee.materials.json"
  }
}