{
  "asset": {
    "version": "2.0",
    "generator": "prefab-to-gltf"
  },
  "scene": 0,
  "scenes": [
    {
      "name": "Chest_LongSleeves_Z1U1_FigWiz",
      "nodes": [
        0
      ]
    }
  ],
  "nodes": [
    {
      "name": "Chest_Z1U_Heavy_N",
      "translation": [
        0,
        0,
        0
      ],
      "rotation": [
        0,
        0,
        0,
        1
      ],
      "scale": [
        1,
        1,
        1
      ],
      "mesh": 0
    }
  ],
  "meshes": [
    {
      "name": "Chest_Z1U_Heavy_N",
      "primitives": [
        {
          "attributes": {
            "POSITION": 0,
            "NORMAL": 1,
            "TEXCOORD_0": 2,
            "TEXCOORD_1": 3,
            "COLOR_0": 4
          },
          "indices": 5,
          "material": 0,
          "mode": 4
        }
      ]
    }
  ],
  "materials": [
    {
      "name": "GradMat_Body",
      "pbrMetallicRoughness": {
        "baseColorFactor": [
          1,
          1,
          1,
          1
        ],
        "metallicFactor": 0,
        "roughnessFactor": 1
      },
      "doubleSided": true,
      "extras": {
        "diffuseTexture": "Character/Common/Texture/CustomGradient_RobinHoof.png",
        "specularTexture": null,
        "normalMap": null
      }
    }
  ],
  "buffers": [
    {
      "uri": "Chest_LongSleeves_Z1U1_FigWiz.bin",
      "byteLength": 269802
    }
  ],
  "bufferViews": [
    {
      "buffer": 0,
      "byteOffset": 0,
      "byteLength": 57492,
      "target": 34962
    },
    {
      "buffer": 0,
      "byteOffset": 57492,
      "byteLength": 57492,
      "target": 34962
    },
    {
      "buffer": 0,
      "byteOffset": 114984,
      "byteLength": 38328,
      "target": 34962
    },
    {
      "buffer": 0,
      "byteOffset": 153312,
      "byteLength": 38328,
      "target": 34962
    },
    {
      "buffer": 0,
      "byteOffset": 191640,
      "byteLength": 57492,
      "target": 34962
    },
    {
      "buffer": 0,
      "byteOffset": 249132,
      "byteLength": 20670,
      "target": 34963
    }
  ],
  "accessors": [
    {
      "bufferView": 0,
      "componentType": 5126,
      "count": 4791,
      "type": "VEC3",
      "min": [
        -0.66943359375,
        0.9130859375,
        -0.1422119140625
      ],
      "max": [
        0.66943359375,
        1.9326171875,
        0.267578125
      ]
    },
    {
      "bufferView": 1,
      "componentType": 5126,
      "count": 4791,
      "type": "VEC3",
      "min": [
        -0.5019607843137255,
        -0.5019607843137255,
        -0.5019607843137255
      ],
      "max": [
        1,
        1,
        1
      ]
    },
    {
      "bufferView": 2,
      "componentType": 5126,
      "count": 4791,
      "type": "VEC2",
      "min": [
        0.0272979736328125,
        0.09320068359375
      ],
      "max": [
        0.94921875,
        0.8662109375
      ]
    },
    {
      "bufferView": 3,
      "componentType": 5126,
      "count": 4791,
      "type": "VEC2",
      "min": [
        0,
        0.052001953125
      ],
      "max": [
        0.962890625,
        1
      ]
    },
    {
      "bufferView": 4,
      "componentType": 5126,
      "count": 3593.25,
      "type": "VEC4",
      "min": [
        0,
        0,
        0,
        0
      ],
      "max": [
        1,
        1,
        1,
        1
      ]
    },
    {
      "bufferView": 5,
      "componentType": 5123,
      "count": 10335,
      "type": "SCALAR",
      "min": [
        0
      ],
      "max": [
        4790
      ]
    }
  ],
  "extras": {
    "manifest": "Chest_LongSleeves_Z1U1_FigWiz.materials.json"
  }
}