{
  "asset": {
    "version": "2.0",
    "generator": "prefab-to-gltf"
  },
  "scene": 0,
  "scenes": [
    {
      "name": "Legs_Shin_Z1U1_FigWiz",
      "nodes": [
        0
      ]
    }
  ],
  "nodes": [
    {
      "name": "Legs_R1Craft_Fig_01_N",
      "translation": [
        0,
        0,
        0
      ],
      "rotation": [
        0,
        0,
        0,
        1
      ],
      "scale": [
        1,
        1,
        1
      ],
      "mesh": 0
    }
  ],
  "meshes": [
    {
      "name": "Legs_R1Craft_Fig_01_N",
      "primitives": [
        {
          "attributes": {
            "POSITION": 0,
            "NORMAL": 1,
            "TEXCOORD_0": 2,
            "TEXCOORD_1": 3
          },
          "indices": 4,
          "material": 0,
          "mode": 4
        }
      ]
    }
  ],
  "materials": [
    {
      "name": "GradMat_Body",
      "pbrMetallicRoughness": {
        "baseColorFactor": [
          1,
          1,
          1,
          1
        ],
        "metallicFactor": 0,
        "roughnessFactor": 1
      },
      "doubleSided": true,
      "extras": {
        "diffuseTexture": "Character/Common/Texture/CustomGradient_BasicGuy.png",
        "specularTexture": null,
        "normalMap": null
      }
    }
  ],
  "buffers": [
    {
      "uri": "Legs_Shin_Z1U1_FigWiz.bin",
      "byteLength": 168604
    }
  ],
  "bufferViews": [
    {
      "buffer": 0,
      "byteOffset": 0,
      "byteLength": 46056,
      "target": 34962
    },
    {
      "buffer": 0,
      "byteOffset": 46056,
      "byteLength": 46056,
      "target": 34962
    },
    {
      "buffer": 0,
      "byteOffset": 92112,
      "byteLength": 30704,
      "target": 34962
    },
    {
      "buffer": 0,
      "byteOffset": 122816,
      "byteLength": 30704,
      "target": 34962
    },
    {
      "buffer": 0,
      "byteOffset": 153520,
      "byteLength": 15084,
      "target": 34963
    }
  ],
  "accessors": [
    {
      "bufferView": 0,
      "componentType": 5126,
      "count": 3838,
      "type": "VEC3",
      "min": [
        -0.391845703125,
        0.08514404296875,
        -0.1353759765625
      ],
      "max": [
        0.391845703125,
        1.2763671875,
        0.25
      ]
    },
    {
      "bufferView": 1,
      "componentType": 5126,
      "count": 3838,
      "type": "VEC3",
      "min": [
        -0.5019607843137255,
        -0.5019607843137255,
        -0.5019607843137255
      ],
      "max": [
        1,
        1,
        1
      ]
    },
    {
      "bufferView": 2,
      "componentType": 5126,
      "count": 3838,
      "type": "VEC2",
      "min": [
        0.05267333984375,
        0.253173828125
      ],
      "max": [
        0.8359375,
        0.88623046875
      ]
    },
    {
      "bufferView": 3,
      "componentType": 5126,
      "count": 3838,
      "type": "VEC2",
      "min": [
        0,
        0.11285400390625
      ],
      "max": [
        0.94970703125,
        1
      ]
    },
    {
      "bufferView": 4,
      "componentType": 5123,
      "count": 7542,
      "type": "SCALAR",
      "min": [
        0
      ],
      "max": [
        3837
      ]
    }
  ],
  "extras": {
    "manifest": "Legs_Shin_Z1U1_FigWiz.materials.json"
  }
}