{
  "asset": {
    "version": "2.0",
    "generator": "prefab-to-gltf"
  },
  "scene": 0,
  "scenes": [
    {
      "name": "Canine_Hound_Elite_01",
      "nodes": [
        0
      ]
    }
  ],
  "nodes": [
    {
      "name": "Canine_DemonicDog",
      "translation": [
        0,
        0,
        0
      ],
      "rotation": [
        0,
        0,
        0,
        1
      ],
      "scale": [
        1,
        1,
        1
      ],
      "mesh": 0
    }
  ],
  "meshes": [
    {
      "name": "Canine_DemonicDog",
      "primitives": [
        {
          "attributes": {
            "POSITION": 0,
            "NORMAL": 1,
            "TEXCOORD_0": 2,
            "TEXCOORD_1": 3
          },
          "indices": 4,
          "material": 0,
          "mode": 4
        }
      ]
    }
  ],
  "materials": [
    {
      "name": "MatSlots",
      "pbrMetallicRoughness": {
        "baseColorFactor": [
          1,
          1,
          1,
          1
        ],
        "metallicFactor": 0,
        "roughnessFactor": 1
      },
      "doubleSided": true,
      "extras": {
        "diffuseTexture": "Character/Common/Texture/CustomGradient_Guard.png",
        "specularTexture": null,
        "normalMap": null
      }
    }
  ],
  "buffers": [
    {
      "uri": "Canine_Hound_Elite_01.bin",
      "byteLength": 493030
    }
  ],
  "bufferViews": [
    {
      "buffer": 0,
      "byteOffset": 0,
      "byteLength": 126876,
      "target": 34962
    },
    {
      "buffer": 0,
      "byteOffset": 126876,
      "byteLength": 126876,
      "target": 34962
    },
    {
      "buffer": 0,
      "byteOffset": 253752,
      "byteLength": 84584,
      "target": 34962
    },
    {
      "buffer": 0,
      "byteOffset": 338336,
      "byteLength": 84584,
      "target": 34962
    },
    {
      "buffer": 0,
      "byteOffset": 422920,
      "byteLength": 70110,
      "target": 34963
    }
  ],
  "accessors": [
    {
      "bufferView": 0,
      "componentType": 5126,
      "count": 10573,
      "type": "VEC3",
      "min": [
        -0.5520583391189575,
        -0.009761784225702286,
        -1.0834968090057373
      ],
      "max": [
        0.6337530612945557,
        2.050969362258911,
        1.4119731187820435
      ]
    },
    {
      "bufferView": 1,
      "componentType": 5126,
      "count": 10573,
      "type": "VEC3",
      "min": [
        -0.999866247177124,
        -0.9999985098838806,
        -0.9994568228721619
      ],
      "max": [
        0.9998663067817688,
        0.9999904632568359,
        0.9999635815620422
      ]
    },
    {
      "bufferView": 2,
      "componentType": 5126,
      "count": 10573,
      "type": "VEC2",
      "min": [
        0.014982881024479866,
        0.019577622413635254
      ],
      "max": [
        0.7255582213401794,
        0.9947435259819031
      ]
    },
    {
      "bufferView": 3,
      "componentType": 5126,
      "count": 10573,
      "type": "VEC2",
      "min": [
        0,
        0.0917278528213501
      ],
      "max": [
        0.9608768820762634,
        1
      ]
    },
    {
      "bufferView": 4,
      "componentType": 5123,
      "count": 35055,
      "type": "SCALAR",
      "min": [
        0
      ],
      "max": [
        10572
      ]
    }
  ],
  "extras": {
    "manifest": "Canine_Hound_Elite_01.materials.json"
  }
}