{
  "asset": {
    "version": "2.0",
    "generator": "prefab-to-gltf"
  },
  "scene": 0,
  "scenes": [
    {
      "name": "Canine_Hound_White",
      "nodes": [
        0
      ]
    }
  ],
  "nodes": [
    {
      "name": "Canine_Dog_01",
      "translation": [
        0,
        0,
        0
      ],
      "rotation": [
        0,
        0,
        0,
        1
      ],
      "scale": [
        1,
        1,
        1
      ],
      "mesh": 0
    }
  ],
  "meshes": [
    {
      "name": "Canine_Dog_01",
      "primitives": [
        {
          "attributes": {
            "POSITION": 0,
            "NORMAL": 1,
            "TEXCOORD_0": 2,
            "TEXCOORD_1": 3,
            "COLOR_0": 4
          },
          "indices": 5,
          "material": 0,
          "mode": 4
        }
      ]
    }
  ],
  "materials": [
    {
      "name": "Gradmat",
      "pbrMetallicRoughness": {
        "baseColorFactor": [
          1,
          1,
          1,
          1
        ],
        "metallicFactor": 0,
        "roughnessFactor": 1
      },
      "doubleSided": true,
      "extras": {
        "diffuseTexture": "Character/Common/Texture/CustomGradient_Guard.png",
        "specularTexture": null,
        "normalMap": null
      }
    }
  ],
  "buffers": [
    {
      "uri": "Canine_Hound_White.bin",
      "byteLength": 498350
    }
  ],
  "bufferViews": [
    {
      "buffer": 0,
      "byteOffset": 0,
      "byteLength": 101436,
      "target": 34962
    },
    {
      "buffer": 0,
      "byteOffset": 101436,
      "byteLength": 101436,
      "target": 34962
    },
    {
      "buffer": 0,
      "byteOffset": 202872,
      "byteLength": 67624,
      "target": 34962
    },
    {
      "buffer": 0,
      "byteOffset": 270496,
      "byteLength": 67624,
      "target": 34962
    },
    {
      "buffer": 0,
      "byteOffset": 338120,
      "byteLength": 101436,
      "target": 34962
    },
    {
      "buffer": 0,
      "byteOffset": 439556,
      "byteLength": 58794,
      "target": 34963
    }
  ],
  "accessors": [
    {
      "bufferView": 0,
      "componentType": 5126,
      "count": 8453,
      "type": "VEC3",
      "min": [
        -0.5520583391189575,
        -0.009761768393218517,
        -1.0834966897964478
      ],
      "max": [
        0.6337530016899109,
        2.050969123840332,
        1.411973237991333
      ]
    },
    {
      "bufferView": 1,
      "componentType": 5126,
      "count": 8453,
      "type": "VEC3",
      "min": [
        -0.9998663067817688,
        -0.999981164932251,
        -0.999891459941864
      ],
      "max": [
        0.9998663067817688,
        0.9999904036521912,
        0.999963641166687
      ]
    },
    {
      "bufferView": 2,
      "componentType": 5126,
      "count": 8453,
      "type": "VEC2",
      "min": [
        0.016013087704777718,
        0.15190744400024414
      ],
      "max": [
        0.97772616147995,
        0.9917886257171631
      ]
    },
    {
      "bufferView": 3,
      "componentType": 5126,
      "count": 8453,
      "type": "VEC2",
      "min": [
        0,
        0.0917278528213501
      ],
      "max": [
        0.9608768820762634,
        1
      ]
    },
    {
      "bufferView": 4,
      "componentType": 5126,
      "count": 6339.75,
      "type": "VEC4",
      "min": [
        0,
        0,
        0,
        0
      ],
      "max": [
        1,
        1,
        1,
        1
      ]
    },
    {
      "bufferView": 5,
      "componentType": 5123,
      "count": 29397,
      "type": "SCALAR",
      "min": [
        0
      ],
      "max": [
        8452
      ]
    }
  ],
  "extras": {
    "manifest": "Canine_Hound_White.materials.json"
  }
}