{
  "asset": {
    "version": "2.0",
    "generator": "prefab-to-gltf"
  },
  "scene": 0,
  "scenes": [
    {
      "name": "Imp_KingRatoo",
      "nodes": [
        0
      ]
    }
  ],
  "nodes": [
    {
      "name": "Kobold_KingRatoo",
      "translation": [
        0,
        0,
        0
      ],
      "rotation": [
        0,
        0,
        0,
        1
      ],
      "scale": [
        1,
        1,
        1
      ],
      "mesh": 0
    }
  ],
  "meshes": [
    {
      "name": "Kobold_KingRatoo",
      "primitives": [
        {
          "attributes": {
            "POSITION": 0,
            "NORMAL": 1,
            "TEXCOORD_0": 2,
            "TEXCOORD_1": 3,
            "COLOR_0": 4
          },
          "indices": 5,
          "material": 0,
          "mode": 4
        }
      ]
    }
  ],
  "materials": [
    {
      "name": "Gradmat",
      "pbrMetallicRoughness": {
        "baseColorFactor": [
          1,
          1,
          1,
          1
        ],
        "metallicFactor": 0,
        "roughnessFactor": 1
      },
      "doubleSided": true,
      "extras": {
        "diffuseTexture": "Character/Common/Texture/CustomGradient_WeaponALL.png",
        "specularTexture": null,
        "normalMap": null
      }
    }
  ],
  "buffers": [
    {
      "uri": "Imp_KingRatoo.bin",
      "byteLength": 881408
    }
  ],
  "bufferViews": [
    {
      "buffer": 0,
      "byteOffset": 0,
      "byteLength": 180636,
      "target": 34962
    },
    {
      "buffer": 0,
      "byteOffset": 180636,
      "byteLength": 180636,
      "target": 34962
    },
    {
      "buffer": 0,
      "byteOffset": 361272,
      "byteLength": 120424,
      "target": 34962
    },
    {
      "buffer": 0,
      "byteOffset": 481696,
      "byteLength": 120424,
      "target": 34962
    },
    {
      "buffer": 0,
      "byteOffset": 602120,
      "byteLength": 180636,
      "target": 34962
    },
    {
      "buffer": 0,
      "byteOffset": 782756,
      "byteLength": 98652,
      "target": 34963
    }
  ],
  "accessors": [
    {
      "bufferView": 0,
      "componentType": 5126,
      "count": 15053,
      "type": "VEC3",
      "min": [
        -0.7927431464195251,
        -0.004016966093331575,
        -1.1880091428756714
      ],
      "max": [
        0.7892298102378845,
        2.0327632427215576,
        0.6796970367431641
      ]
    },
    {
      "bufferView": 1,
      "componentType": 5126,
      "count": 15053,
      "type": "VEC3",
      "min": [
        -0.9998761415481567,
        -0.9999974370002747,
        -0.9999979734420776
      ],
      "max": [
        0.9998762011528015,
        0.9999919533729553,
        0.9999997615814209
      ]
    },
    {
      "bufferView": 2,
      "componentType": 5126,
      "count": 15053,
      "type": "VEC2",
      "min": [
        0.004942264407873154,
        0.1307743787765503
      ],
      "max": [
        0.9795385003089905,
        0.9953818917274475
      ]
    },
    {
      "bufferView": 3,
      "componentType": 5126,
      "count": 15053,
      "type": "VEC2",
      "min": [
        0,
        0.09830057621002197
      ],
      "max": [
        0.9858273267745972,
        1
      ]
    },
    {
      "bufferView": 4,
      "componentType": 5126,
      "count": 11289.75,
      "type": "VEC4",
      "min": [
        0,
        0,
        0,
        0
      ],
      "max": [
        1,
        1,
        1,
        1
      ]
    },
    {
      "bufferView": 5,
      "componentType": 5123,
      "count": 49326,
      "type": "SCALAR",
      "min": [
        0
      ],
      "max": [
        15052
      ]
    }
  ],
  "extras": {
    "manifest": "Imp_KingRatoo.materials.json"
  }
}