{
  "asset": {
    "version": "2.0",
    "generator": "prefab-to-gltf"
  },
  "scene": 0,
  "scenes": [
    {
      "name": "Imp_KingRatoo_Split",
      "nodes": [
        0
      ]
    }
  ],
  "nodes": [
    {
      "name": "Kobold_KingRatoo_NoCrown",
      "translation": [
        0,
        0,
        0
      ],
      "rotation": [
        0,
        0,
        0,
        1
      ],
      "scale": [
        1,
        1,
        1
      ],
      "mesh": 0
    }
  ],
  "meshes": [
    {
      "name": "Kobold_KingRatoo_NoCrown",
      "primitives": [
        {
          "attributes": {
            "POSITION": 0,
            "NORMAL": 1,
            "TEXCOORD_0": 2,
            "TEXCOORD_1": 3,
            "COLOR_0": 4
          },
          "indices": 5,
          "material": 0,
          "mode": 4
        }
      ]
    }
  ],
  "materials": [
    {
      "name": "GradMat",
      "pbrMetallicRoughness": {
        "baseColorFactor": [
          1,
          1,
          1,
          1
        ],
        "metallicFactor": 0,
        "roughnessFactor": 1
      },
      "doubleSided": true,
      "extras": {
        "diffuseTexture": "Character/Common/Texture/CustomGradient_Guard.png",
        "specularTexture": null,
        "normalMap": null
      }
    }
  ],
  "buffers": [
    {
      "uri": "Imp_KingRatoo_Split.bin",
      "byteLength": 796792
    }
  ],
  "bufferViews": [
    {
      "buffer": 0,
      "byteOffset": 0,
      "byteLength": 163380,
      "target": 34962
    },
    {
      "buffer": 0,
      "byteOffset": 163380,
      "byteLength": 163380,
      "target": 34962
    },
    {
      "buffer": 0,
      "byteOffset": 326760,
      "byteLength": 108920,
      "target": 34962
    },
    {
      "buffer": 0,
      "byteOffset": 435680,
      "byteLength": 108920,
      "target": 34962
    },
    {
      "buffer": 0,
      "byteOffset": 544600,
      "byteLength": 163380,
      "target": 34962
    },
    {
      "buffer": 0,
      "byteOffset": 707980,
      "byteLength": 88812,
      "target": 34963
    }
  ],
  "accessors": [
    {
      "bufferView": 0,
      "componentType": 5126,
      "count": 13615,
      "type": "VEC3",
      "min": [
        -0.7927431464195251,
        -0.004016966093331575,
        -1.1880091428756714
      ],
      "max": [
        0.7892298102378845,
        1.7958741188049316,
        0.6348518133163452
      ]
    },
    {
      "bufferView": 1,
      "componentType": 5126,
      "count": 13615,
      "type": "VEC3",
      "min": [
        -0.9998762607574463,
        -0.9999974966049194,
        -0.9999979734420776
      ],
      "max": [
        0.9998762011528015,
        0.9999920725822449,
        0.9995063543319702
      ]
    },
    {
      "bufferView": 2,
      "componentType": 5126,
      "count": 13615,
      "type": "VEC2",
      "min": [
        0.004942264407873154,
        0.1307743787765503
      ],
      "max": [
        0.9795385003089905,
        0.9953818917274475
      ]
    },
    {
      "bufferView": 3,
      "componentType": 5126,
      "count": 13615,
      "type": "VEC2",
      "min": [
        0,
        0.1002877950668335
      ],
      "max": [
        0.9858273267745972,
        1
      ]
    },
    {
      "bufferView": 4,
      "componentType": 5126,
      "count": 10211.25,
      "type": "VEC4",
      "min": [
        0,
        0,
        0,
        0
      ],
      "max": [
        1,
        1,
        1,
        1
      ]
    },
    {
      "bufferView": 5,
      "componentType": 5123,
      "count": 44406,
      "type": "SCALAR",
      "min": [
        0
      ],
      "max": [
        13614
      ]
    }
  ],
  "extras": {
    "manifest": "Imp_KingRatoo_Split.materials.json"
  }
}