{
  "asset": {
    "version": "2.0",
    "generator": "prefab-to-gltf"
  },
  "scene": 0,
  "scenes": [
    {
      "name": "KingRatoo_Crown",
      "nodes": [
        0
      ]
    }
  ],
  "nodes": [
    {
      "name": "KingRatoo_Crown",
      "translation": [
        0,
        0,
        0
      ],
      "rotation": [
        0.7071056365966797,
        0,
        0,
        0.7071079257745626
      ],
      "scale": [
        1,
        1,
        1
      ],
      "mesh": 0
    }
  ],
  "meshes": [
    {
      "name": "KingRatoo_Crown",
      "primitives": [
        {
          "attributes": {
            "POSITION": 0,
            "NORMAL": 1,
            "TEXCOORD_0": 2,
            "TEXCOORD_1": 3,
            "COLOR_0": 4
          },
          "indices": 5,
          "material": 0,
          "mode": 4
        }
      ]
    }
  ],
  "materials": [
    {
      "name": "Gradmat",
      "pbrMetallicRoughness": {
        "baseColorFactor": [
          1,
          1,
          1,
          1
        ],
        "metallicFactor": 0,
        "roughnessFactor": 1
      },
      "doubleSided": true,
      "extras": {
        "diffuseTexture": "Character/Common/Texture/CustomGradient_WeaponALL.png",
        "specularTexture": null,
        "normalMap": null
      }
    }
  ],
  "buffers": [
    {
      "uri": "KingRatoo_Crown.bin",
      "byteLength": 91376
    }
  ],
  "bufferViews": [
    {
      "buffer": 0,
      "byteOffset": 0,
      "byteLength": 18816,
      "target": 34962
    },
    {
      "buffer": 0,
      "byteOffset": 18816,
      "byteLength": 18816,
      "target": 34962
    },
    {
      "buffer": 0,
      "byteOffset": 37632,
      "byteLength": 12544,
      "target": 34962
    },
    {
      "buffer": 0,
      "byteOffset": 50176,
      "byteLength": 12544,
      "target": 34962
    },
    {
      "buffer": 0,
      "byteOffset": 62720,
      "byteLength": 18816,
      "target": 34962
    },
    {
      "buffer": 0,
      "byteOffset": 81536,
      "byteLength": 9840,
      "target": 34963
    }
  ],
  "accessors": [
    {
      "bufferView": 0,
      "componentType": 5126,
      "count": 1568,
      "type": "VEC3",
      "min": [
        -0.24168211221694946,
        -0.23792076110839844,
        -0.15136554837226868
      ],
      "max": [
        0.24168278276920319,
        0.5301573276519775,
        0.5073659420013428
      ]
    },
    {
      "bufferView": 1,
      "componentType": 5126,
      "count": 1568,
      "type": "VEC3",
      "min": [
        -0.9988943338394165,
        -0.9991694688796997,
        -0.9695786237716675
      ],
      "max": [
        0.9988941550254822,
        0.9983348846435547,
        0.9999998211860657
      ]
    },
    {
      "bufferView": 2,
      "componentType": 5126,
      "count": 1568,
      "type": "VEC2",
      "min": [
        0.03846139460802078,
        0.25142860412597656
      ],
      "max": [
        0.3664690852165222,
        0.9654024839401245
      ]
    },
    {
      "bufferView": 3,
      "componentType": 5126,
      "count": 1568,
      "type": "VEC2",
      "min": [
        0,
        0.09830057621002197
      ],
      "max": [
        0.9437988996505737,
        1
      ]
    },
    {
      "bufferView": 4,
      "componentType": 5126,
      "count": 1176,
      "type": "VEC4",
      "min": [
        0,
        0,
        0,
        0
      ],
      "max": [
        1,
        1,
        1,
        1
      ]
    },
    {
      "bufferView": 5,
      "componentType": 5123,
      "count": 4920,
      "type": "SCALAR",
      "min": [
        0
      ],
      "max": [
        1567
      ]
    }
  ],
  "extras": {
    "manifest": "KingRatoo_Crown.materials.json"
  }
}