{
  "asset": {
    "version": "2.0",
    "generator": "prefab-to-gltf"
  },
  "scene": 0,
  "scenes": [
    {
      "name": "Chest_Naked",
      "nodes": [
        0
      ]
    }
  ],
  "nodes": [
    {
      "name": "Chest_Body_Hero_01_N",
      "translation": [
        0,
        0,
        0
      ],
      "rotation": [
        0,
        0,
        0,
        1
      ],
      "scale": [
        1,
        1,
        1
      ],
      "mesh": 0
    }
  ],
  "meshes": [
    {
      "name": "Chest_Body_Hero_01_N",
      "primitives": [
        {
          "attributes": {
            "POSITION": 0,
            "NORMAL": 1,
            "TEXCOORD_0": 2,
            "TEXCOORD_1": 3,
            "COLOR_0": 4
          },
          "indices": 5,
          "material": 0,
          "mode": 4
        }
      ]
    }
  ],
  "materials": [
    {
      "name": "GradMat_Body",
      "pbrMetallicRoughness": {
        "baseColorFactor": [
          1,
          1,
          1,
          1
        ],
        "metallicFactor": 0,
        "roughnessFactor": 1
      },
      "doubleSided": true,
      "extras": {
        "diffuseTexture": "Character/Common/Texture/CustomGradient_RobinHoof.png",
        "specularTexture": null,
        "normalMap": null
      }
    }
  ],
  "buffers": [
    {
      "uri": "Chest_Naked.bin",
      "byteLength": 82848
    }
  ],
  "bufferViews": [
    {
      "buffer": 0,
      "byteOffset": 0,
      "byteLength": 16704,
      "target": 34962
    },
    {
      "buffer": 0,
      "byteOffset": 16704,
      "byteLength": 16704,
      "target": 34962
    },
    {
      "buffer": 0,
      "byteOffset": 33408,
      "byteLength": 11136,
      "target": 34962
    },
    {
      "buffer": 0,
      "byteOffset": 44544,
      "byteLength": 11136,
      "target": 34962
    },
    {
      "buffer": 0,
      "byteOffset": 55680,
      "byteLength": 16704,
      "target": 34962
    },
    {
      "buffer": 0,
      "byteOffset": 72384,
      "byteLength": 10464,
      "target": 34963
    }
  ],
  "accessors": [
    {
      "bufferView": 0,
      "componentType": 5126,
      "count": 1392,
      "type": "VEC3",
      "min": [
        -0.6669848561286926,
        1.1743311882019043,
        -0.09181103110313416
      ],
      "max": [
        0.6669848561286926,
        1.9331179857254028,
        0.23014463484287262
      ]
    },
    {
      "bufferView": 1,
      "componentType": 5126,
      "count": 1392,
      "type": "VEC3",
      "min": [
        -0.998241662979126,
        -0.8763850927352905,
        -0.9995690584182739
      ],
      "max": [
        0.998241662979126,
        0.9813642501831055,
        0.9999192357063293
      ]
    },
    {
      "bufferView": 2,
      "componentType": 5126,
      "count": 1392,
      "type": "VEC2",
      "min": [
        0.004020640626549721,
        0.11490827798843384
      ],
      "max": [
        0.3524005115032196,
        0.5568694472312927
      ]
    },
    {
      "bufferView": 3,
      "componentType": 5126,
      "count": 1392,
      "type": "VEC2",
      "min": [
        0,
        0.12037426233291626
      ],
      "max": [
        0.8119469881057739,
        1
      ]
    },
    {
      "bufferView": 4,
      "componentType": 5126,
      "count": 1044,
      "type": "VEC4",
      "min": [
        0.3607843220233917,
        0.3607843220233917,
        0.38823530077934265,
        0.3607843220233917
      ],
      "max": [
        1,
        1,
        1,
        1
      ]
    },
    {
      "bufferView": 5,
      "componentType": 5123,
      "count": 5232,
      "type": "SCALAR",
      "min": [
        0
      ],
      "max": [
        1391
      ]
    }
  ],
  "extras": {
    "manifest": "Chest_Naked.materials.json"
  }
}