{
  "asset": {
    "version": "2.0",
    "generator": "prefab-to-gltf"
  },
  "scene": 0,
  "scenes": [
    {
      "name": "Hands_Naked",
      "nodes": [
        0
      ]
    }
  ],
  "nodes": [
    {
      "name": "Hands_Body_Hero_01_N",
      "translation": [
        0,
        0,
        0
      ],
      "rotation": [
        0,
        0,
        0,
        1
      ],
      "scale": [
        1,
        1,
        1
      ],
      "mesh": 0
    }
  ],
  "meshes": [
    {
      "name": "Hands_Body_Hero_01_N",
      "primitives": [
        {
          "attributes": {
            "POSITION": 0,
            "NORMAL": 1,
            "TEXCOORD_0": 2,
            "TEXCOORD_1": 3
          },
          "indices": 4,
          "material": 0,
          "mode": 4
        }
      ]
    }
  ],
  "materials": [
    {
      "name": "GradMat_Body",
      "pbrMetallicRoughness": {
        "baseColorFactor": [
          1,
          1,
          1,
          1
        ],
        "metallicFactor": 0,
        "roughnessFactor": 1
      },
      "doubleSided": true,
      "extras": {
        "diffuseTexture": "Character/Common/Texture/CustomGradient_RobinHoof.png",
        "specularTexture": null,
        "normalMap": null
      }
    }
  ],
  "buffers": [
    {
      "uri": "Hands_Naked.bin",
      "byteLength": 74968
    }
  ],
  "bufferViews": [
    {
      "buffer": 0,
      "byteOffset": 0,
      "byteLength": 17976,
      "target": 34962
    },
    {
      "buffer": 0,
      "byteOffset": 17976,
      "byteLength": 17976,
      "target": 34962
    },
    {
      "buffer": 0,
      "byteOffset": 35952,
      "byteLength": 11984,
      "target": 34962
    },
    {
      "buffer": 0,
      "byteOffset": 47936,
      "byteLength": 11984,
      "target": 34962
    },
    {
      "buffer": 0,
      "byteOffset": 59920,
      "byteLength": 15048,
      "target": 34963
    }
  ],
  "accessors": [
    {
      "bufferView": 0,
      "componentType": 5126,
      "count": 1498,
      "type": "VEC3",
      "min": [
        -0.8123599886894226,
        0.9814912676811218,
        0.09974828362464905
      ],
      "max": [
        0.8123599886894226,
        1.241330623626709,
        0.3378543555736542
      ]
    },
    {
      "bufferView": 1,
      "componentType": 5126,
      "count": 1498,
      "type": "VEC3",
      "min": [
        -0.9997500777244568,
        -0.995315432548523,
        -0.9884640574455261
      ],
      "max": [
        0.9997500777244568,
        0.8343216180801392,
        0.9848762154579163
      ]
    },
    {
      "bufferView": 2,
      "componentType": 5126,
      "count": 1498,
      "type": "VEC2",
      "min": [
        0.008648224174976349,
        0.1740592122077942
      ],
      "max": [
        0.10856088250875473,
        0.47187918424606323
      ]
    },
    {
      "bufferView": 3,
      "componentType": 5126,
      "count": 1498,
      "type": "VEC2",
      "min": [
        0.029076194390654564,
        0.17756187915802002
      ],
      "max": [
        0.3283907175064087,
        1.00118887424469
      ]
    },
    {
      "bufferView": 4,
      "componentType": 5123,
      "count": 7524,
      "type": "SCALAR",
      "min": [
        0
      ],
      "max": [
        1497
      ]
    }
  ],
  "extras": {
    "manifest": "Hands_Naked.materials.json"
  }
}