{
  "asset": {
    "version": "2.0",
    "generator": "prefab-to-gltf"
  },
  "scene": 0,
  "scenes": [
    {
      "name": "Head_Headband_Z2U2_Wiz",
      "nodes": [
        0
      ]
    }
  ],
  "nodes": [
    {
      "name": "Head_Z2U_Light_N",
      "translation": [
        0,
        0,
        0
      ],
      "rotation": [
        0,
        0,
        0,
        1
      ],
      "scale": [
        1,
        1,
        1
      ],
      "mesh": 0
    }
  ],
  "meshes": [
    {
      "name": "Head_Z2U_Light_N",
      "primitives": [
        {
          "attributes": {
            "POSITION": 0,
            "NORMAL": 1,
            "TEXCOORD_0": 2,
            "TEXCOORD_1": 3,
            "COLOR_0": 4
          },
          "indices": 5,
          "material": 0,
          "mode": 4
        }
      ]
    }
  ],
  "materials": [
    {
      "name": "standardSurface1",
      "pbrMetallicRoughness": {
        "baseColorFactor": [
          1,
          1,
          1,
          1
        ],
        "metallicFactor": 0,
        "roughnessFactor": 1
      },
      "doubleSided": true,
      "extras": {
        "diffuseTexture": null,
        "specularTexture": null,
        "normalMap": null
      }
    }
  ],
  "buffers": [
    {
      "uri": "Head_Headband_Z2U2_Wiz.bin",
      "byteLength": 62244
    }
  ],
  "bufferViews": [
    {
      "buffer": 0,
      "byteOffset": 0,
      "byteLength": 13176,
      "target": 34962
    },
    {
      "buffer": 0,
      "byteOffset": 13176,
      "byteLength": 13176,
      "target": 34962
    },
    {
      "buffer": 0,
      "byteOffset": 26352,
      "byteLength": 8784,
      "target": 34962
    },
    {
      "buffer": 0,
      "byteOffset": 35136,
      "byteLength": 8784,
      "target": 34962
    },
    {
      "buffer": 0,
      "byteOffset": 43920,
      "byteLength": 13176,
      "target": 34962
    },
    {
      "buffer": 0,
      "byteOffset": 57096,
      "byteLength": 5148,
      "target": 34963
    }
  ],
  "accessors": [
    {
      "bufferView": 0,
      "componentType": 5126,
      "count": 1098,
      "type": "VEC3",
      "min": [
        -0.1881103515625,
        1.99609375,
        -0.1627197265625
      ],
      "max": [
        0.1881103515625,
        2.22265625,
        0.279541015625
      ]
    },
    {
      "bufferView": 1,
      "componentType": 5126,
      "count": 1098,
      "type": "VEC3",
      "min": [
        -0.5019607843137255,
        -0.5019607843137255,
        -0.5019607843137255
      ],
      "max": [
        1,
        0.4980392156862745,
        1
      ]
    },
    {
      "bufferView": 2,
      "componentType": 5126,
      "count": 1098,
      "type": "VEC2",
      "min": [
        0.152587890625,
        0.226806640625
      ],
      "max": [
        0.72998046875,
        0.91796875
      ]
    },
    {
      "bufferView": 3,
      "componentType": 5126,
      "count": 1098,
      "type": "VEC2",
      "min": [
        0.0577392578125,
        0.26025390625
      ],
      "max": [
        0.9482421875,
        0.95947265625
      ]
    },
    {
      "bufferView": 4,
      "componentType": 5126,
      "count": 823.5,
      "type": "VEC4",
      "min": [
        0,
        0,
        0,
        0
      ],
      "max": [
        0.9999715685844421,
        0.9999715685844421,
        0.9999715685844421,
        0.9999715685844421
      ]
    },
    {
      "bufferView": 5,
      "componentType": 5123,
      "count": 2574,
      "type": "SCALAR",
      "min": [
        0
      ],
      "max": [
        1097
      ]
    }
  ],
  "extras": {
    "manifest": "Head_Headband_Z2U2_Wiz.materials.json"
  }
}