{
  "asset": {
    "version": "2.0",
    "generator": "prefab-to-gltf"
  },
  "scene": 0,
  "scenes": [
    {
      "name": "Back_Short_Z1U2_AssWiz",
      "nodes": [
        0
      ]
    }
  ],
  "nodes": [
    {
      "name": "Back_R1S1_FigAss_N",
      "translation": [
        0,
        0,
        0
      ],
      "rotation": [
        0,
        0,
        0,
        1
      ],
      "scale": [
        1,
        1,
        1
      ],
      "mesh": 0
    }
  ],
  "meshes": [
    {
      "name": "Back_R1S1_FigAss_N",
      "primitives": [
        {
          "attributes": {
            "POSITION": 0,
            "NORMAL": 1,
            "TEXCOORD_0": 2,
            "TEXCOORD_1": 3
          },
          "indices": 4,
          "material": 0,
          "mode": 4
        }
      ]
    }
  ],
  "materials": [
    {
      "name": "GradMat_Body",
      "pbrMetallicRoughness": {
        "baseColorFactor": [
          1,
          1,
          1,
          1
        ],
        "metallicFactor": 0,
        "roughnessFactor": 1
      },
      "doubleSided": true,
      "extras": {
        "diffuseTexture": "Character/Common/Texture/CustomGradient_BasicGuy.png",
        "specularTexture": null,
        "normalMap": null
      }
    }
  ],
  "buffers": [
    {
      "uri": "Back_Short_Z1U2_AssWiz.bin",
      "byteLength": 27236
    }
  ],
  "bufferViews": [
    {
      "buffer": 0,
      "byteOffset": 0,
      "byteLength": 7440,
      "target": 34962
    },
    {
      "buffer": 0,
      "byteOffset": 7440,
      "byteLength": 7440,
      "target": 34962
    },
    {
      "buffer": 0,
      "byteOffset": 14880,
      "byteLength": 4960,
      "target": 34962
    },
    {
      "buffer": 0,
      "byteOffset": 19840,
      "byteLength": 4960,
      "target": 34962
    },
    {
      "buffer": 0,
      "byteOffset": 24800,
      "byteLength": 2436,
      "target": 34963
    }
  ],
  "accessors": [
    {
      "bufferView": 0,
      "componentType": 5126,
      "count": 620,
      "type": "VEC3",
      "min": [
        -0.192138671875,
        1.4140625,
        -0.1956787109375
      ],
      "max": [
        0.1934814453125,
        1.7919921875,
        0.092529296875
      ]
    },
    {
      "bufferView": 1,
      "componentType": 5126,
      "count": 620,
      "type": "VEC3",
      "min": [
        -0.5019607843137255,
        -0.5019607843137255,
        -0.5019607843137255
      ],
      "max": [
        1,
        1,
        1
      ]
    },
    {
      "bufferView": 2,
      "componentType": 5126,
      "count": 620,
      "type": "VEC2",
      "min": [
        0.1707763671875,
        0.404296875
      ],
      "max": [
        0.81689453125,
        0.904296875
      ]
    },
    {
      "bufferView": 3,
      "componentType": 5126,
      "count": 620,
      "type": "VEC2",
      "min": [
        0.0231781005859375,
        0.1124267578125
      ],
      "max": [
        0.94189453125,
        0.96484375
      ]
    },
    {
      "bufferView": 4,
      "componentType": 5123,
      "count": 1218,
      "type": "SCALAR",
      "min": [
        0
      ],
      "max": [
        619
      ]
    }
  ],
  "extras": {
    "manifest": "Back_Short_Z1U2_AssWiz.materials.json"
  }
}