{
  "asset": {
    "version": "2.0",
    "generator": "prefab-to-gltf"
  },
  "scene": 0,
  "scenes": [
    {
      "name": "Legs_Whole_Z1U2_AssWiz",
      "nodes": [
        0
      ]
    }
  ],
  "nodes": [
    {
      "name": "Legs_Z1U_Medium_N",
      "translation": [
        0,
        0,
        0
      ],
      "rotation": [
        0,
        0,
        0,
        1
      ],
      "scale": [
        1,
        1,
        1
      ],
      "mesh": 0,
      "children": [
        1
      ]
    },
    {
      "name": "ASS",
      "translation": [
        0,
        0,
        0
      ],
      "rotation": [
        0.7071067690849304,
        0,
        0,
        0.7071067932881644
      ],
      "scale": [
        1,
        1,
        1
      ]
    }
  ],
  "meshes": [
    {
      "name": "Legs_Z1U_Medium_N",
      "primitives": [
        {
          "attributes": {
            "POSITION": 0,
            "NORMAL": 1,
            "TEXCOORD_0": 2,
            "TEXCOORD_1": 3
          },
          "indices": 4,
          "material": 0,
          "mode": 4
        }
      ]
    }
  ],
  "materials": [
    {
      "name": "GradMat_Body",
      "pbrMetallicRoughness": {
        "baseColorFactor": [
          1,
          1,
          1,
          1
        ],
        "metallicFactor": 0,
        "roughnessFactor": 1
      },
      "doubleSided": true,
      "extras": {
        "diffuseTexture": "Character/Common/Texture/CustomGradient_RobinHoof.png",
        "specularTexture": null,
        "normalMap": null
      }
    }
  ],
  "buffers": [
    {
      "uri": "Legs_Whole_Z1U2_AssWiz.bin",
      "byteLength": 113656
    }
  ],
  "bufferViews": [
    {
      "buffer": 0,
      "byteOffset": 0,
      "byteLength": 30648,
      "target": 34962
    },
    {
      "buffer": 0,
      "byteOffset": 30648,
      "byteLength": 30648,
      "target": 34962
    },
    {
      "buffer": 0,
      "byteOffset": 61296,
      "byteLength": 20432,
      "target": 34962
    },
    {
      "buffer": 0,
      "byteOffset": 81728,
      "byteLength": 20432,
      "target": 34962
    },
    {
      "buffer": 0,
      "byteOffset": 102160,
      "byteLength": 11496,
      "target": 34963
    }
  ],
  "accessors": [
    {
      "bufferView": 0,
      "componentType": 5126,
      "count": 2554,
      "type": "VEC3",
      "min": [
        -0.370361328125,
        0.08514404296875,
        -0.09075927734375
      ],
      "max": [
        0.370361328125,
        1.2763671875,
        0.2286376953125
      ]
    },
    {
      "bufferView": 1,
      "componentType": 5126,
      "count": 2554,
      "type": "VEC3",
      "min": [
        -0.5019607843137255,
        -0.5019607843137255,
        -0.5019607843137255
      ],
      "max": [
        1,
        1,
        1
      ]
    },
    {
      "bufferView": 2,
      "componentType": 5126,
      "count": 2554,
      "type": "VEC2",
      "min": [
        0.07232666015625,
        0.348876953125
      ],
      "max": [
        0.7236328125,
        0.97021484375
      ]
    },
    {
      "bufferView": 3,
      "componentType": 5126,
      "count": 2554,
      "type": "VEC2",
      "min": [
        0.0347900390625,
        0.1123046875
      ],
      "max": [
        0.481689453125,
        0.9755859375
      ]
    },
    {
      "bufferView": 4,
      "componentType": 5123,
      "count": 5748,
      "type": "SCALAR",
      "min": [
        0
      ],
      "max": [
        2553
      ]
    }
  ],
  "extras": {
    "manifest": "Legs_Whole_Z1U2_AssWiz.materials.json"
  }
}