{
  "asset": {
    "version": "2.0",
    "generator": "prefab-to-gltf"
  },
  "scene": 0,
  "scenes": [
    {
      "name": "Shoulders_Inner_Z1U1_AssWiz",
      "nodes": [
        0
      ]
    }
  ],
  "nodes": [
    {
      "name": "Shoulders_Z1U_Medium_N",
      "translation": [
        0,
        0,
        0
      ],
      "rotation": [
        0,
        0,
        0,
        1
      ],
      "scale": [
        1,
        1,
        1
      ],
      "mesh": 0
    }
  ],
  "meshes": [
    {
      "name": "Shoulders_Z1U_Medium_N",
      "primitives": [
        {
          "attributes": {
            "POSITION": 0,
            "NORMAL": 1,
            "TEXCOORD_0": 2,
            "TEXCOORD_1": 3,
            "COLOR_0": 4
          },
          "indices": 5,
          "material": 0,
          "mode": 4
        }
      ]
    }
  ],
  "materials": [
    {
      "name": "standardSurface1",
      "pbrMetallicRoughness": {
        "baseColorFactor": [
          1,
          1,
          1,
          1
        ],
        "metallicFactor": 0,
        "roughnessFactor": 1
      },
      "doubleSided": true,
      "extras": {
        "diffuseTexture": null,
        "specularTexture": null,
        "normalMap": null
      }
    }
  ],
  "buffers": [
    {
      "uri": "Shoulders_Inner_Z1U1_AssWiz.bin",
      "byteLength": 39664
    }
  ],
  "bufferViews": [
    {
      "buffer": 0,
      "byteOffset": 0,
      "byteLength": 8400,
      "target": 34962
    },
    {
      "buffer": 0,
      "byteOffset": 8400,
      "byteLength": 8400,
      "target": 34962
    },
    {
      "buffer": 0,
      "byteOffset": 16800,
      "byteLength": 5600,
      "target": 34962
    },
    {
      "buffer": 0,
      "byteOffset": 22400,
      "byteLength": 5600,
      "target": 34962
    },
    {
      "buffer": 0,
      "byteOffset": 28000,
      "byteLength": 8400,
      "target": 34962
    },
    {
      "buffer": 0,
      "byteOffset": 36400,
      "byteLength": 3264,
      "target": 34963
    }
  ],
  "accessors": [
    {
      "bufferView": 0,
      "componentType": 5126,
      "count": 700,
      "type": "VEC3",
      "min": [
        -0.447998046875,
        1.7080078125,
        -0.129638671875
      ],
      "max": [
        0.447998046875,
        1.8515625,
        0.18115234375
      ]
    },
    {
      "bufferView": 1,
      "componentType": 5126,
      "count": 700,
      "type": "VEC3",
      "min": [
        -0.4745098039215686,
        -0.4980392156862745,
        -0.5019607843137255
      ],
      "max": [
        0.4666666666666667,
        0.4980392156862745,
        0.49411764705882355
      ]
    },
    {
      "bufferView": 2,
      "componentType": 5126,
      "count": 700,
      "type": "VEC2",
      "min": [
        0.1729736328125,
        0.34716796875
      ],
      "max": [
        0.453369140625,
        0.86474609375
      ]
    },
    {
      "bufferView": 3,
      "componentType": 5126,
      "count": 700,
      "type": "VEC2",
      "min": [
        0,
        0.117431640625
      ],
      "max": [
        0.87451171875,
        1
      ]
    },
    {
      "bufferView": 4,
      "componentType": 5126,
      "count": 525,
      "type": "VEC4",
      "min": [
        0,
        0,
        0,
        0
      ],
      "max": [
        0.9999715685844421,
        0.9999715685844421,
        0.9999715685844421,
        0.9999715685844421
      ]
    },
    {
      "bufferView": 5,
      "componentType": 5123,
      "count": 1632,
      "type": "SCALAR",
      "min": [
        0
      ],
      "max": [
        699
      ]
    }
  ],
  "extras": {
    "manifest": "Shoulders_Inner_Z1U1_AssWiz.materials.json"
  }
}