{
  "asset": {
    "version": "2.0",
    "generator": "prefab-to-gltf"
  },
  "scene": 0,
  "scenes": [
    {
      "name": "Daggers_R3_R1Mines_Ass",
      "nodes": [
        0
      ]
    }
  ],
  "nodes": [
    {
      "name": "Daggers_R3_R1Mines_Ass",
      "translation": [
        0,
        0,
        0
      ],
      "rotation": [
        0,
        0,
        0,
        1
      ],
      "scale": [
        1,
        1,
        1
      ],
      "mesh": 0
    }
  ],
  "meshes": [
    {
      "name": "Daggers_R3_R1Mines_Ass",
      "primitives": [
        {
          "attributes": {
            "POSITION": 0,
            "NORMAL": 1,
            "TEXCOORD_0": 2,
            "TEXCOORD_1": 3
          },
          "indices": 4,
          "material": 0,
          "mode": 4
        }
      ]
    }
  ],
  "materials": [
    {
      "name": "Gradmat_Weapon",
      "pbrMetallicRoughness": {
        "baseColorFactor": [
          1,
          1,
          1,
          1
        ],
        "metallicFactor": 0,
        "roughnessFactor": 1
      },
      "doubleSided": true,
      "extras": {
        "diffuseTexture": null,
        "specularTexture": null,
        "normalMap": null
      }
    },
    {
      "name": "Outline_head_002",
      "pbrMetallicRoughness": {
        "baseColorFactor": [
          1,
          1,
          1,
          1
        ],
        "metallicFactor": 0,
        "roughnessFactor": 1
      },
      "doubleSided": true,
      "extras": {
        "diffuseTexture": null,
        "specularTexture": null,
        "normalMap": null
      }
    }
  ],
  "buffers": [
    {
      "uri": "Daggers_R3_R1Mines_Ass.bin",
      "byteLength": 34656
    }
  ],
  "bufferViews": [
    {
      "buffer": 0,
      "byteOffset": 0,
      "byteLength": 9396,
      "target": 34962
    },
    {
      "buffer": 0,
      "byteOffset": 9396,
      "byteLength": 9396,
      "target": 34962
    },
    {
      "buffer": 0,
      "byteOffset": 18792,
      "byteLength": 6264,
      "target": 34962
    },
    {
      "buffer": 0,
      "byteOffset": 25056,
      "byteLength": 6264,
      "target": 34962
    },
    {
      "buffer": 0,
      "byteOffset": 31320,
      "byteLength": 3336,
      "target": 34963
    }
  ],
  "accessors": [
    {
      "bufferView": 0,
      "componentType": 5126,
      "count": 783,
      "type": "VEC3",
      "min": [
        -0.1569644659757614,
        -0.09806082397699356,
        -0.3309484124183655
      ],
      "max": [
        0.1453973352909088,
        0.09985289722681046,
        0.6984366178512573
      ]
    },
    {
      "bufferView": 1,
      "componentType": 5126,
      "count": 783,
      "type": "VEC3",
      "min": [
        -0.9994476437568665,
        -0.9958674907684326,
        -0.9999156594276428
      ],
      "max": [
        0.998833179473877,
        1,
        0.9934431910514832
      ]
    },
    {
      "bufferView": 2,
      "componentType": 5126,
      "count": 783,
      "type": "VEC2",
      "min": [
        0.03436568006873131,
        0.10363709926605225
      ],
      "max": [
        0.33525875210762024,
        0.8711767196655273
      ]
    },
    {
      "bufferView": 3,
      "componentType": 5126,
      "count": 783,
      "type": "VEC2",
      "min": [
        0.020908832550048828,
        0.05881786346435547
      ],
      "max": [
        0.9459249973297119,
        0.9711610674858093
      ]
    },
    {
      "bufferView": 4,
      "componentType": 5123,
      "count": 1668,
      "type": "SCALAR",
      "min": [
        0
      ],
      "max": [
        782
      ]
    }
  ],
  "extras": {
    "manifest": "Daggers_R3_R1Mines_Ass.materials.json"
  }
}