{
  "asset": {
    "version": "2.0",
    "generator": "prefab-to-gltf"
  },
  "scene": 0,
  "scenes": [
    {
      "name": "Daggers_CrimsonRam",
      "nodes": [
        0
      ]
    }
  ],
  "nodes": [
    {
      "name": "model_0",
      "translation": [
        0,
        0,
        0
      ],
      "rotation": [
        0,
        0,
        0,
        1
      ],
      "scale": [
        1,
        1,
        1
      ],
      "children": [
        1,
        2
      ]
    },
    {
      "name": "Dagger_CrimsonRam",
      "translation": [
        0,
        0,
        0
      ],
      "rotation": [
        -0.0000028130032205808675,
        4.3212014588789316e-7,
        -0.6754432916641235,
        0.7374119335472095
      ],
      "scale": [
        1.0201568603515625,
        1.0201568603515625,
        1.0201568603515625
      ],
      "mesh": 0
    },
    {
      "name": "Cube",
      "translation": [
        0,
        0,
        0
      ],
      "rotation": [
        0,
        0,
        0,
        1
      ],
      "scale": [
        1,
        1,
        1
      ],
      "mesh": 1
    }
  ],
  "meshes": [
    {
      "name": "Dagger_CrimsonRam",
      "primitives": [
        {
          "attributes": {
            "POSITION": 0,
            "NORMAL": 1,
            "TEXCOORD_0": 2,
            "TEXCOORD_1": 3
          },
          "indices": 4,
          "material": 0,
          "mode": 4
        }
      ]
    },
    {
      "name": "Cube",
      "primitives": [
        {
          "attributes": {
            "POSITION": 5,
            "NORMAL": 6,
            "TEXCOORD_0": 7,
            "TEXCOORD_1": 8
          },
          "indices": 9,
          "material": 0,
          "mode": 4
        }
      ]
    }
  ],
  "materials": [
    {
      "name": "MatSlots_WEAPONS",
      "pbrMetallicRoughness": {
        "baseColorFactor": [
          1,
          1,
          1,
          1
        ],
        "metallicFactor": 0,
        "roughnessFactor": 1
      },
      "doubleSided": true,
      "extras": {
        "diffuseTexture": null,
        "specularTexture": null,
        "normalMap": null
      }
    },
    {
      "name": "Outline_002",
      "pbrMetallicRoughness": {
        "baseColorFactor": [
          1,
          1,
          1,
          1
        ],
        "metallicFactor": 0,
        "roughnessFactor": 1
      },
      "doubleSided": true,
      "extras": {
        "diffuseTexture": null,
        "specularTexture": null,
        "normalMap": null
      }
    },
    {
      "name": "Outline",
      "pbrMetallicRoughness": {
        "baseColorFactor": [
          1,
          1,
          1,
          1
        ],
        "metallicFactor": 0,
        "roughnessFactor": 1
      },
      "doubleSided": true,
      "extras": {
        "diffuseTexture": null,
        "specularTexture": null,
        "normalMap": null
      }
    }
  ],
  "buffers": [
    {
      "uri": "Daggers_CrimsonRam.bin",
      "byteLength": 43500
    }
  ],
  "bufferViews": [
    {
      "buffer": 0,
      "byteOffset": 0,
      "byteLength": 2796,
      "target": 34962
    },
    {
      "buffer": 0,
      "byteOffset": 2796,
      "byteLength": 2796,
      "target": 34962
    },
    {
      "buffer": 0,
      "byteOffset": 5592,
      "byteLength": 1864,
      "target": 34962
    },
    {
      "buffer": 0,
      "byteOffset": 7456,
      "byteLength": 1864,
      "target": 34962
    },
    {
      "buffer": 0,
      "byteOffset": 9320,
      "byteLength": 1296,
      "target": 34963
    },
    {
      "buffer": 0,
      "byteOffset": 10616,
      "byteLength": 8580,
      "target": 34962
    },
    {
      "buffer": 0,
      "byteOffset": 19196,
      "byteLength": 8580,
      "target": 34962
    },
    {
      "buffer": 0,
      "byteOffset": 27776,
      "byteLength": 5720,
      "target": 34962
    },
    {
      "buffer": 0,
      "byteOffset": 33496,
      "byteLength": 5720,
      "target": 34962
    },
    {
      "buffer": 0,
      "byteOffset": 39216,
      "byteLength": 4284,
      "target": 34963
    }
  ],
  "accessors": [
    {
      "bufferView": 0,
      "componentType": 5126,
      "count": 233,
      "type": "VEC3",
      "min": [
        -0.04292559251189232,
        -0.05439227074384689,
        -0.27046898007392883
      ],
      "max": [
        0.04292565584182739,
        0.05439271032810211,
        0.04176279902458191
      ]
    },
    {
      "bufferView": 1,
      "componentType": 5126,
      "count": 233,
      "type": "VEC3",
      "min": [
        -0.9999843239784241,
        -0.9999805688858032,
        -0.925909161567688
      ],
      "max": [
        0.9999798536300659,
        0.9999856352806091,
        0.9904190897941589
      ]
    },
    {
      "bufferView": 2,
      "componentType": 5126,
      "count": 233,
      "type": "VEC2",
      "min": [
        0.038764603435993195,
        0.584812343120575
      ],
      "max": [
        0.3350745737552643,
        0.735562801361084
      ]
    },
    {
      "bufferView": 3,
      "componentType": 5126,
      "count": 233,
      "type": "VEC2",
      "min": [
        0.06331746280193329,
        0.3802807927131653
      ],
      "max": [
        0.9394317865371704,
        0.9567196369171143
      ]
    },
    {
      "bufferView": 4,
      "componentType": 5123,
      "count": 648,
      "type": "SCALAR",
      "min": [
        0
      ],
      "max": [
        232
      ]
    },
    {
      "bufferView": 5,
      "componentType": 5126,
      "count": 715,
      "type": "VEC3",
      "min": [
        -0.11683879047632217,
        -0.06223154067993164,
        0.014037651009857655
      ],
      "max": [
        0.11605627089738846,
        0.06223154067993164,
        0.6067421436309814
      ]
    },
    {
      "bufferView": 6,
      "componentType": 5126,
      "count": 715,
      "type": "VEC3",
      "min": [
        -0.999991774559021,
        -0.9997659921646118,
        -0.9999979734420776
      ],
      "max": [
        0.8040383458137512,
        0.9997659921646118,
        0.9819089770317078
      ]
    },
    {
      "bufferView": 7,
      "componentType": 5126,
      "count": 715,
      "type": "VEC2",
      "min": [
        0.1598227620124817,
        0.19439232349395752
      ],
      "max": [
        0.35110700130462646,
        0.6849469542503357
      ]
    },
    {
      "bufferView": 8,
      "componentType": 5126,
      "count": 715,
      "type": "VEC2",
      "min": [
        0.04877205938100815,
        0.20562398433685303
      ],
      "max": [
        0.9442739486694336,
        0.9522678256034851
      ]
    },
    {
      "bufferView": 9,
      "componentType": 5123,
      "count": 2142,
      "type": "SCALAR",
      "min": [
        0
      ],
      "max": [
        714
      ]
    }
  ],
  "extras": {
    "manifest": "Daggers_CrimsonRam.materials.json"
  }
}