{
  "asset": {
    "version": "2.0",
    "generator": "prefab-to-gltf"
  },
  "scene": 0,
  "scenes": [
    {
      "name": "Crabgantua",
      "nodes": [
        0
      ]
    }
  ],
  "nodes": [
    {
      "name": "Crabgantua",
      "translation": [
        0,
        0,
        0
      ],
      "rotation": [
        0,
        0,
        0,
        1
      ],
      "scale": [
        1,
        1,
        1
      ],
      "mesh": 0
    }
  ],
  "meshes": [
    {
      "name": "Crabgantua",
      "primitives": [
        {
          "attributes": {
            "POSITION": 0,
            "NORMAL": 1,
            "TEXCOORD_0": 2,
            "TEXCOORD_1": 3,
            "COLOR_0": 4
          },
          "indices": 5,
          "material": 0,
          "mode": 4
        }
      ]
    }
  ],
  "materials": [
    {
      "name": "MatSlots1",
      "pbrMetallicRoughness": {
        "baseColorFactor": [
          1,
          1,
          1,
          1
        ],
        "metallicFactor": 0,
        "roughnessFactor": 1
      },
      "doubleSided": true,
      "extras": {
        "diffuseTexture": "Character/Common/Texture/CustomGradient_WeaponALL.png",
        "specularTexture": null,
        "normalMap": null
      }
    }
  ],
  "buffers": [
    {
      "uri": "Crabgantua.bin",
      "byteLength": 1492556
    }
  ],
  "bufferViews": [
    {
      "buffer": 0,
      "byteOffset": 0,
      "byteLength": 303864,
      "target": 34962
    },
    {
      "buffer": 0,
      "byteOffset": 303864,
      "byteLength": 303864,
      "target": 34962
    },
    {
      "buffer": 0,
      "byteOffset": 607728,
      "byteLength": 202576,
      "target": 34962
    },
    {
      "buffer": 0,
      "byteOffset": 810304,
      "byteLength": 202576,
      "target": 34962
    },
    {
      "buffer": 0,
      "byteOffset": 1012880,
      "byteLength": 303864,
      "target": 34962
    },
    {
      "buffer": 0,
      "byteOffset": 1316744,
      "byteLength": 175812,
      "target": 34963
    }
  ],
  "accessors": [
    {
      "bufferView": 0,
      "componentType": 5126,
      "count": 25322,
      "type": "VEC3",
      "min": [
        -2.8851540088653564,
        -0.008797816932201385,
        -3.3697562217712402
      ],
      "max": [
        2.8851540088653564,
        5.5209856033325195,
        4.5455193519592285
      ]
    },
    {
      "bufferView": 1,
      "componentType": 5126,
      "count": 25322,
      "type": "VEC3",
      "min": [
        -0.9999677538871765,
        -0.9999955892562866,
        -0.9999182820320129
      ],
      "max": [
        0.9999887943267822,
        1,
        0.9998833537101746
      ]
    },
    {
      "bufferView": 2,
      "componentType": 5126,
      "count": 25322,
      "type": "VEC2",
      "min": [
        0.015304217115044594,
        0.09195315837860107
      ],
      "max": [
        0.9776821732521057,
        0.9919179677963257
      ]
    },
    {
      "bufferView": 3,
      "componentType": 5126,
      "count": 25322,
      "type": "VEC2",
      "min": [
        0,
        0.01485675573348999
      ],
      "max": [
        1.0013271570205688,
        1
      ]
    },
    {
      "bufferView": 4,
      "componentType": 5126,
      "count": 18991.5,
      "type": "VEC4",
      "min": [
        0,
        0,
        0,
        0
      ],
      "max": [
        1,
        1,
        1,
        1
      ]
    },
    {
      "bufferView": 5,
      "componentType": 5123,
      "count": 87906,
      "type": "SCALAR",
      "min": [
        0
      ],
      "max": [
        25321
      ]
    }
  ],
  "extras": {
    "manifest": "Crabgantua.materials.json"
  }
}