{
  "asset": {
    "version": "2.0",
    "generator": "prefab-to-gltf"
  },
  "scene": 0,
  "scenes": [
    {
      "name": "ShellFragment",
      "nodes": [
        0
      ]
    }
  ],
  "nodes": [
    {
      "name": "ShellFragment",
      "translation": [
        0,
        0,
        0
      ],
      "rotation": [
        0,
        0,
        0.7071056365966797,
        0.7071079257745626
      ],
      "scale": [
        3,
        3,
        3
      ],
      "mesh": 0
    }
  ],
  "meshes": [
    {
      "name": "ShellFragment",
      "primitives": [
        {
          "attributes": {
            "POSITION": 0,
            "NORMAL": 1,
            "TEXCOORD_0": 2,
            "TEXCOORD_1": 3
          },
          "indices": 4,
          "material": 0,
          "mode": 4
        }
      ]
    }
  ],
  "materials": [
    {
      "name": "MatSlots",
      "pbrMetallicRoughness": {
        "baseColorFactor": [
          1,
          1,
          1,
          1
        ],
        "metallicFactor": 0,
        "roughnessFactor": 1
      },
      "doubleSided": true,
      "extras": {
        "diffuseTexture": null,
        "specularTexture": null,
        "normalMap": null
      }
    },
    {
      "name": "Outline",
      "pbrMetallicRoughness": {
        "baseColorFactor": [
          1,
          1,
          1,
          1
        ],
        "metallicFactor": 0,
        "roughnessFactor": 1
      },
      "doubleSided": true,
      "extras": {
        "diffuseTexture": null,
        "specularTexture": null,
        "normalMap": null
      }
    }
  ],
  "buffers": [
    {
      "uri": "ShellFragment.bin",
      "byteLength": 142754
    }
  ],
  "bufferViews": [
    {
      "buffer": 0,
      "byteOffset": 0,
      "byteLength": 36672,
      "target": 34962
    },
    {
      "buffer": 0,
      "byteOffset": 36672,
      "byteLength": 36672,
      "target": 34962
    },
    {
      "buffer": 0,
      "byteOffset": 73344,
      "byteLength": 24448,
      "target": 34962
    },
    {
      "buffer": 0,
      "byteOffset": 97792,
      "byteLength": 24448,
      "target": 34962
    },
    {
      "buffer": 0,
      "byteOffset": 122240,
      "byteLength": 20514,
      "target": 34963
    }
  ],
  "accessors": [
    {
      "bufferView": 0,
      "componentType": 5126,
      "count": 3056,
      "type": "VEC3",
      "min": [
        -1.1824908256530762,
        -1.163526177406311,
        -0.6394259929656982
      ],
      "max": [
        1.150255799293518,
        1.2141058444976807,
        1.8616397380828857
      ]
    },
    {
      "bufferView": 1,
      "componentType": 5126,
      "count": 3056,
      "type": "VEC3",
      "min": [
        -0.9992172718048096,
        -0.9991229772567749,
        -0.999908447265625
      ],
      "max": [
        0.9996966123580933,
        0.9965261816978455,
        0.9999777674674988
      ]
    },
    {
      "bufferView": 2,
      "componentType": 5126,
      "count": 3056,
      "type": "VEC2",
      "min": [
        0.034420207142829895,
        0.20391875505447388
      ],
      "max": [
        0.34269899129867554,
        0.9676755666732788
      ]
    },
    {
      "bufferView": 3,
      "componentType": 5126,
      "count": 3056,
      "type": "VEC2",
      "min": [
        0,
        0.22989815473556519
      ],
      "max": [
        0.9787797927856445,
        1
      ]
    },
    {
      "bufferView": 4,
      "componentType": 5123,
      "count": 10257,
      "type": "SCALAR",
      "min": [
        0
      ],
      "max": [
        3055
      ]
    }
  ],
  "extras": {
    "manifest": "ShellFragment.materials.json"
  }
}