{
  "asset": {
    "version": "2.0",
    "generator": "prefab-to-gltf"
  },
  "scene": 0,
  "scenes": [
    {
      "name": "Human_Peasant_M_01",
      "nodes": [
        0
      ]
    }
  ],
  "nodes": [
    {
      "name": "Human_Peasant_M_01",
      "translation": [
        0,
        0,
        0
      ],
      "rotation": [
        0,
        0,
        0,
        1
      ],
      "scale": [
        1,
        1,
        1
      ],
      "mesh": 0
    }
  ],
  "meshes": [
    {
      "name": "Human_Peasant_M_01",
      "primitives": [
        {
          "attributes": {
            "POSITION": 0,
            "NORMAL": 1,
            "TEXCOORD_0": 2,
            "TEXCOORD_1": 3,
            "COLOR_0": 4
          },
          "indices": 5,
          "material": 0,
          "mode": 4
        }
      ]
    }
  ],
  "materials": [
    {
      "name": "GradMat_Body",
      "pbrMetallicRoughness": {
        "baseColorFactor": [
          1,
          1,
          1,
          1
        ],
        "metallicFactor": 0,
        "roughnessFactor": 1
      },
      "doubleSided": true,
      "extras": {
        "diffuseTexture": "Character/Common/Texture/CustomGradient_RobinHoof.png",
        "specularTexture": null,
        "normalMap": null
      }
    }
  ],
  "buffers": [
    {
      "uri": "Human_Peasant_M_01.bin",
      "byteLength": 575304
    }
  ],
  "bufferViews": [
    {
      "buffer": 0,
      "byteOffset": 0,
      "byteLength": 115524,
      "target": 34962
    },
    {
      "buffer": 0,
      "byteOffset": 115524,
      "byteLength": 115524,
      "target": 34962
    },
    {
      "buffer": 0,
      "byteOffset": 231048,
      "byteLength": 77016,
      "target": 34962
    },
    {
      "buffer": 0,
      "byteOffset": 308064,
      "byteLength": 77016,
      "target": 34962
    },
    {
      "buffer": 0,
      "byteOffset": 385080,
      "byteLength": 115524,
      "target": 34962
    },
    {
      "buffer": 0,
      "byteOffset": 500604,
      "byteLength": 74700,
      "target": 34963
    }
  ],
  "accessors": [
    {
      "bufferView": 0,
      "componentType": 5126,
      "count": 9627,
      "type": "VEC3",
      "min": [
        -0.8130348920822144,
        -0.007641528733074665,
        -0.25229477882385254
      ],
      "max": [
        0.8130348920822144,
        2.225780725479126,
        0.38855820894241333
      ]
    },
    {
      "bufferView": 1,
      "componentType": 5126,
      "count": 9627,
      "type": "VEC3",
      "min": [
        -0.9999819993972778,
        -1,
        -0.9999547600746155
      ],
      "max": [
        0.9999819993972778,
        0.9999145269393921,
        0.9999869465827942
      ]
    },
    {
      "bufferView": 2,
      "componentType": 5126,
      "count": 9627,
      "type": "VEC2",
      "min": [
        0.017662055790424347,
        0.1053164005279541
      ],
      "max": [
        0.8965275883674622,
        0.925665020942688
      ]
    },
    {
      "bufferView": 3,
      "componentType": 5126,
      "count": 9627,
      "type": "VEC2",
      "min": [
        0.05483987554907799,
        0.02668595314025879
      ],
      "max": [
        0.9985706806182861,
        0.9698551893234253
      ]
    },
    {
      "bufferView": 4,
      "componentType": 5126,
      "count": 7220.25,
      "type": "VEC4",
      "min": [
        0,
        0,
        0,
        0
      ],
      "max": [
        0.9999715685844421,
        0.9999715685844421,
        0.9999715685844421,
        0.9999715685844421
      ]
    },
    {
      "bufferView": 5,
      "componentType": 5123,
      "count": 37350,
      "type": "SCALAR",
      "min": [
        0
      ],
      "max": [
        9626
      ]
    }
  ],
  "extras": {
    "manifest": "Human_Peasant_M_01.materials.json"
  }
}