{
  "asset": {
    "version": "2.0",
    "generator": "prefab-to-gltf"
  },
  "scene": 0,
  "scenes": [
    {
      "name": "Human_Peasant_F_01",
      "nodes": [
        0
      ]
    }
  ],
  "nodes": [
    {
      "name": "Human_Peasant_F_01",
      "translation": [
        0,
        0,
        0
      ],
      "rotation": [
        0,
        0,
        0,
        1
      ],
      "scale": [
        1,
        1,
        1
      ],
      "mesh": 0
    }
  ],
  "meshes": [
    {
      "name": "Human_Peasant_F_01",
      "primitives": [
        {
          "attributes": {
            "POSITION": 0,
            "NORMAL": 1,
            "TEXCOORD_0": 2,
            "TEXCOORD_1": 3,
            "COLOR_0": 4
          },
          "indices": 5,
          "material": 0,
          "mode": 4
        }
      ]
    }
  ],
  "materials": [
    {
      "name": "GradMat_Body",
      "pbrMetallicRoughness": {
        "baseColorFactor": [
          1,
          1,
          1,
          1
        ],
        "metallicFactor": 0,
        "roughnessFactor": 1
      },
      "doubleSided": true,
      "extras": {
        "diffuseTexture": "Character/Common/Texture/CustomGradient_RobinHoof.png",
        "specularTexture": null,
        "normalMap": null
      }
    }
  ],
  "buffers": [
    {
      "uri": "Human_Peasant_F_01.bin",
      "byteLength": 580652
    }
  ],
  "bufferViews": [
    {
      "buffer": 0,
      "byteOffset": 0,
      "byteLength": 116520,
      "target": 34962
    },
    {
      "buffer": 0,
      "byteOffset": 116520,
      "byteLength": 116520,
      "target": 34962
    },
    {
      "buffer": 0,
      "byteOffset": 233040,
      "byteLength": 77680,
      "target": 34962
    },
    {
      "buffer": 0,
      "byteOffset": 310720,
      "byteLength": 77680,
      "target": 34962
    },
    {
      "buffer": 0,
      "byteOffset": 388400,
      "byteLength": 116520,
      "target": 34962
    },
    {
      "buffer": 0,
      "byteOffset": 504920,
      "byteLength": 75732,
      "target": 34963
    }
  ],
  "accessors": [
    {
      "bufferView": 0,
      "componentType": 5126,
      "count": 9710,
      "type": "VEC3",
      "min": [
        -0.8123599886894226,
        -0.005900783464312553,
        -0.2605046331882477
      ],
      "max": [
        0.8123599886894226,
        2.2262778282165527,
        0.3889826238155365
      ]
    },
    {
      "bufferView": 1,
      "componentType": 5126,
      "count": 9710,
      "type": "VEC3",
      "min": [
        -0.9996746778488159,
        -0.9999814629554749,
        -0.9997478127479553
      ],
      "max": [
        0.9996746778488159,
        0.9996960163116455,
        0.9999924302101135
      ]
    },
    {
      "bufferView": 2,
      "componentType": 5126,
      "count": 9710,
      "type": "VEC2",
      "min": [
        0.018077030777931213,
        0.048709750175476074
      ],
      "max": [
        0.9685028195381165,
        0.925665020942688
      ]
    },
    {
      "bufferView": 3,
      "componentType": 5126,
      "count": 9710,
      "type": "VEC2",
      "min": [
        0.05483987554907799,
        0.02668595314025879
      ],
      "max": [
        0.9985733032226562,
        0.9698551893234253
      ]
    },
    {
      "bufferView": 4,
      "componentType": 5126,
      "count": 7282.5,
      "type": "VEC4",
      "min": [
        0,
        0,
        0,
        0
      ],
      "max": [
        0.9999715685844421,
        0.9999715685844421,
        0.9999715685844421,
        0.9999715685844421
      ]
    },
    {
      "bufferView": 5,
      "componentType": 5123,
      "count": 37866,
      "type": "SCALAR",
      "min": [
        0
      ],
      "max": [
        9709
      ]
    }
  ],
  "extras": {
    "manifest": "Human_Peasant_F_01.materials.json"
  }
}