{
  "asset": {
    "version": "2.0",
    "generator": "prefab-to-gltf"
  },
  "scene": 0,
  "scenes": [
    {
      "name": "Chest_LongSleeves_RCrimson_Heavy",
      "nodes": [
        0
      ]
    }
  ],
  "nodes": [
    {
      "name": "Chest_LongSleeves_Z1RCrimsonA_Heavy_N",
      "translation": [
        0,
        0,
        0
      ],
      "rotation": [
        0,
        0,
        0,
        1
      ],
      "scale": [
        1,
        1,
        1
      ],
      "mesh": 0,
      "children": [
        1
      ]
    },
    {
      "name": "Z1R4A_Heavy",
      "translation": [
        0,
        0,
        0
      ],
      "rotation": [
        0.7071067690849304,
        0,
        0,
        0.7071067932881644
      ],
      "scale": [
        1,
        1,
        1
      ]
    }
  ],
  "meshes": [
    {
      "name": "Chest_LongSleeves_Z1RCrimsonA_Heavy_N",
      "primitives": [
        {
          "attributes": {
            "POSITION": 0,
            "NORMAL": 1,
            "TEXCOORD_0": 2,
            "TEXCOORD_1": 3,
            "COLOR_0": 4
          },
          "indices": 5,
          "material": 0,
          "mode": 4
        }
      ]
    }
  ],
  "materials": [
    {
      "name": "GradMat_Body",
      "pbrMetallicRoughness": {
        "baseColorFactor": [
          1,
          1,
          1,
          1
        ],
        "metallicFactor": 0,
        "roughnessFactor": 1
      },
      "doubleSided": true,
      "extras": {
        "diffuseTexture": "Character/Common/Texture/CustomGradient_BasicGuy.png",
        "specularTexture": null,
        "normalMap": null
      }
    }
  ],
  "buffers": [
    {
      "uri": "Chest_LongSleeves_RCrimson_Heavy.bin",
      "byteLength": 347668
    }
  ],
  "bufferViews": [
    {
      "buffer": 0,
      "byteOffset": 0,
      "byteLength": 74064,
      "target": 34962
    },
    {
      "buffer": 0,
      "byteOffset": 74064,
      "byteLength": 74064,
      "target": 34962
    },
    {
      "buffer": 0,
      "byteOffset": 148128,
      "byteLength": 49376,
      "target": 34962
    },
    {
      "buffer": 0,
      "byteOffset": 197504,
      "byteLength": 49376,
      "target": 34962
    },
    {
      "buffer": 0,
      "byteOffset": 246880,
      "byteLength": 74064,
      "target": 34962
    },
    {
      "buffer": 0,
      "byteOffset": 320944,
      "byteLength": 26724,
      "target": 34963
    }
  ],
  "accessors": [
    {
      "bufferView": 0,
      "componentType": 5126,
      "count": 6172,
      "type": "VEC3",
      "min": [
        -0.66943359375,
        1.001953125,
        -0.12115478515625
      ],
      "max": [
        0.66943359375,
        1.9326171875,
        0.262939453125
      ]
    },
    {
      "bufferView": 1,
      "componentType": 5126,
      "count": 6172,
      "type": "VEC3",
      "min": [
        -0.5019607843137255,
        -0.5019607843137255,
        -0.5019607843137255
      ],
      "max": [
        1,
        1,
        1
      ]
    },
    {
      "bufferView": 2,
      "componentType": 5126,
      "count": 6172,
      "type": "VEC2",
      "min": [
        0.0272979736328125,
        0.2049560546875
      ],
      "max": [
        0.73828125,
        0.98779296875
      ]
    },
    {
      "bufferView": 3,
      "componentType": 5126,
      "count": 6172,
      "type": "VEC2",
      "min": [
        0.0312347412109375,
        0.109130859375
      ],
      "max": [
        0.9453125,
        0.974609375
      ]
    },
    {
      "bufferView": 4,
      "componentType": 5126,
      "count": 4629,
      "type": "VEC4",
      "min": [
        0.3607843220233917,
        0.3607843220233917,
        0.3607843220233917,
        0.3607843220233917
      ],
      "max": [
        1,
        1,
        1,
        1
      ]
    },
    {
      "bufferView": 5,
      "componentType": 5123,
      "count": 13362,
      "type": "SCALAR",
      "min": [
        0
      ],
      "max": [
        6171
      ]
    }
  ],
  "extras": {
    "manifest": "Chest_LongSleeves_RCrimson_Heavy.materials.json"
  }
}