{
  "asset": {
    "version": "2.0",
    "generator": "prefab-to-gltf"
  },
  "scene": 0,
  "scenes": [
    {
      "name": "Feet_High_RCrimson_Light",
      "nodes": [
        0
      ]
    }
  ],
  "nodes": [
    {
      "name": "Feet_High_Z1R4A_Light_N",
      "translation": [
        0,
        0,
        0
      ],
      "rotation": [
        0,
        0,
        0,
        1
      ],
      "scale": [
        1,
        1,
        1
      ],
      "mesh": 0,
      "children": [
        1
      ]
    },
    {
      "name": "Z1R4A_Light",
      "translation": [
        0,
        0,
        0
      ],
      "rotation": [
        0.7071067690849304,
        0,
        0,
        0.7071067932881644
      ],
      "scale": [
        1,
        1,
        1
      ]
    }
  ],
  "meshes": [
    {
      "name": "Feet_High_Z1R4A_Light_N",
      "primitives": [
        {
          "attributes": {
            "POSITION": 0,
            "NORMAL": 1,
            "TEXCOORD_0": 2,
            "TEXCOORD_1": 3
          },
          "indices": 4,
          "material": 0,
          "mode": 4
        }
      ]
    }
  ],
  "materials": [
    {
      "name": "GradMat_Body",
      "pbrMetallicRoughness": {
        "baseColorFactor": [
          1,
          1,
          1,
          1
        ],
        "metallicFactor": 0,
        "roughnessFactor": 1
      },
      "doubleSided": true,
      "extras": {
        "diffuseTexture": "Character/Common/Texture/CustomGradient_BasicGuy.png",
        "specularTexture": null,
        "normalMap": null
      }
    }
  ],
  "buffers": [
    {
      "uri": "Feet_High_RCrimson_Light.bin",
      "byteLength": 102112
    }
  ],
  "bufferViews": [
    {
      "buffer": 0,
      "byteOffset": 0,
      "byteLength": 27552,
      "target": 34962
    },
    {
      "buffer": 0,
      "byteOffset": 27552,
      "byteLength": 27552,
      "target": 34962
    },
    {
      "buffer": 0,
      "byteOffset": 55104,
      "byteLength": 18368,
      "target": 34962
    },
    {
      "buffer": 0,
      "byteOffset": 73472,
      "byteLength": 18368,
      "target": 34962
    },
    {
      "buffer": 0,
      "byteOffset": 91840,
      "byteLength": 10272,
      "target": 34963
    }
  ],
  "accessors": [
    {
      "bufferView": 0,
      "componentType": 5126,
      "count": 2296,
      "type": "VEC3",
      "min": [
        -0.4150390625,
        -0.007537841796875,
        -0.11529541015625
      ],
      "max": [
        0.4150390625,
        0.52587890625,
        0.326171875
      ]
    },
    {
      "bufferView": 1,
      "componentType": 5126,
      "count": 2296,
      "type": "VEC3",
      "min": [
        -0.5019607843137255,
        -0.5019607843137255,
        -0.5019607843137255
      ],
      "max": [
        1,
        1,
        1
      ]
    },
    {
      "bufferView": 2,
      "componentType": 5126,
      "count": 2296,
      "type": "VEC2",
      "min": [
        0.1925048828125,
        0.482421875
      ],
      "max": [
        0.60595703125,
        0.806640625
      ]
    },
    {
      "bufferView": 3,
      "componentType": 5126,
      "count": 2296,
      "type": "VEC2",
      "min": [
        0.0594482421875,
        0.11614990234375
      ],
      "max": [
        0.94287109375,
        0.97412109375
      ]
    },
    {
      "bufferView": 4,
      "componentType": 5123,
      "count": 5136,
      "type": "SCALAR",
      "min": [
        0
      ],
      "max": [
        2295
      ]
    }
  ],
  "extras": {
    "manifest": "Feet_High_RCrimson_Light.materials.json"
  }
}