{
  "asset": {
    "version": "2.0",
    "generator": "prefab-to-gltf"
  },
  "scene": 0,
  "scenes": [
    {
      "name": "Legs_Shin_RCrimson_Medium",
      "nodes": [
        0
      ]
    }
  ],
  "nodes": [
    {
      "name": "Legs_Shin_Z1R4A_Medium_N",
      "translation": [
        0,
        0,
        0
      ],
      "rotation": [
        0,
        0,
        0,
        1
      ],
      "scale": [
        1,
        1,
        1
      ],
      "mesh": 0,
      "children": [
        1
      ]
    },
    {
      "name": "Z1R4A_Medium",
      "translation": [
        0,
        0,
        0
      ],
      "rotation": [
        0.7071067690849304,
        0,
        0,
        0.7071067932881644
      ],
      "scale": [
        1,
        1,
        1
      ]
    }
  ],
  "meshes": [
    {
      "name": "Legs_Shin_Z1R4A_Medium_N",
      "primitives": [
        {
          "attributes": {
            "POSITION": 0,
            "NORMAL": 1,
            "TEXCOORD_0": 2,
            "TEXCOORD_1": 3
          },
          "indices": 4,
          "material": 0,
          "mode": 4
        }
      ]
    }
  ],
  "materials": [
    {
      "name": "GradMat_Body",
      "pbrMetallicRoughness": {
        "baseColorFactor": [
          1,
          1,
          1,
          1
        ],
        "metallicFactor": 0,
        "roughnessFactor": 1
      },
      "doubleSided": true,
      "extras": {
        "diffuseTexture": "Character/Common/Texture/CustomGradient_BasicGuy.png",
        "specularTexture": null,
        "normalMap": null
      }
    }
  ],
  "buffers": [
    {
      "uri": "Legs_Shin_RCrimson_Medium.bin",
      "byteLength": 167216
    }
  ],
  "bufferViews": [
    {
      "buffer": 0,
      "byteOffset": 0,
      "byteLength": 45456,
      "target": 34962
    },
    {
      "buffer": 0,
      "byteOffset": 45456,
      "byteLength": 45456,
      "target": 34962
    },
    {
      "buffer": 0,
      "byteOffset": 90912,
      "byteLength": 30304,
      "target": 34962
    },
    {
      "buffer": 0,
      "byteOffset": 121216,
      "byteLength": 30304,
      "target": 34962
    },
    {
      "buffer": 0,
      "byteOffset": 151520,
      "byteLength": 15696,
      "target": 34963
    }
  ],
  "accessors": [
    {
      "bufferView": 0,
      "componentType": 5126,
      "count": 3788,
      "type": "VEC3",
      "min": [
        -0.3798828125,
        0.08514404296875,
        -0.11376953125
      ],
      "max": [
        0.3798828125,
        1.2763671875,
        0.23046875
      ]
    },
    {
      "bufferView": 1,
      "componentType": 5126,
      "count": 3788,
      "type": "VEC3",
      "min": [
        -0.5019607843137255,
        -0.5019607843137255,
        -0.5019607843137255
      ],
      "max": [
        1,
        1,
        1
      ]
    },
    {
      "bufferView": 2,
      "componentType": 5126,
      "count": 3788,
      "type": "VEC2",
      "min": [
        0.039886474609375,
        0.2254638671875
      ],
      "max": [
        0.5556640625,
        0.93994140625
      ]
    },
    {
      "bufferView": 3,
      "componentType": 5126,
      "count": 3788,
      "type": "VEC2",
      "min": [
        0.0347900390625,
        0.1126708984375
      ],
      "max": [
        0.93994140625,
        0.96630859375
      ]
    },
    {
      "bufferView": 4,
      "componentType": 5123,
      "count": 7848,
      "type": "SCALAR",
      "min": [
        0
      ],
      "max": [
        3787
      ]
    }
  ],
  "extras": {
    "manifest": "Legs_Shin_RCrimson_Medium.materials.json"
  }
}