{
  "asset": {
    "version": "2.0",
    "generator": "prefab-to-gltf"
  },
  "scene": 0,
  "scenes": [
    {
      "name": "Back_Long_XCrimson_02_Medium",
      "nodes": [
        0
      ]
    }
  ],
  "nodes": [
    {
      "name": "Back_Long_Z1R4_Medium_N",
      "translation": [
        0,
        0,
        0
      ],
      "rotation": [
        0,
        0,
        0,
        1
      ],
      "scale": [
        1,
        1,
        1
      ],
      "mesh": 0
    }
  ],
  "meshes": [
    {
      "name": "Back_Long_Z1R4_Medium_N",
      "primitives": [
        {
          "attributes": {
            "POSITION": 0,
            "NORMAL": 1,
            "TEXCOORD_0": 2,
            "TEXCOORD_1": 3
          },
          "indices": 4,
          "material": 0,
          "mode": 4
        }
      ]
    }
  ],
  "materials": [
    {
      "name": "GradMat_Body",
      "pbrMetallicRoughness": {
        "baseColorFactor": [
          1,
          1,
          1,
          1
        ],
        "metallicFactor": 0,
        "roughnessFactor": 1
      },
      "doubleSided": true,
      "extras": {
        "diffuseTexture": "Character/Common/Texture/CustomGradient_RobinHoof.png",
        "specularTexture": null,
        "normalMap": null
      }
    }
  ],
  "buffers": [
    {
      "uri": "Back_Long_XCrimson_02_Medium.bin",
      "byteLength": 91408
    }
  ],
  "bufferViews": [
    {
      "buffer": 0,
      "byteOffset": 0,
      "byteLength": 24600,
      "target": 34962
    },
    {
      "buffer": 0,
      "byteOffset": 24600,
      "byteLength": 24600,
      "target": 34962
    },
    {
      "buffer": 0,
      "byteOffset": 49200,
      "byteLength": 16400,
      "target": 34962
    },
    {
      "buffer": 0,
      "byteOffset": 65600,
      "byteLength": 16400,
      "target": 34962
    },
    {
      "buffer": 0,
      "byteOffset": 82000,
      "byteLength": 9408,
      "target": 34963
    }
  ],
  "accessors": [
    {
      "bufferView": 0,
      "componentType": 5126,
      "count": 2050,
      "type": "VEC3",
      "min": [
        -0.331298828125,
        0.6181640625,
        -0.415771484375
      ],
      "max": [
        0.331298828125,
        1.779296875,
        0.0305328369140625
      ]
    },
    {
      "bufferView": 1,
      "componentType": 5126,
      "count": 2050,
      "type": "VEC3",
      "min": [
        -0.5019607843137255,
        -0.5019607843137255,
        -0.5019607843137255
      ],
      "max": [
        1,
        1,
        0.49019607843137253
      ]
    },
    {
      "bufferView": 2,
      "componentType": 5126,
      "count": 2050,
      "type": "VEC2",
      "min": [
        0.13525390625,
        0.308837890625
      ],
      "max": [
        0.70556640625,
        0.93603515625
      ]
    },
    {
      "bufferView": 3,
      "componentType": 5126,
      "count": 2050,
      "type": "VEC2",
      "min": [
        0,
        0.31396484375
      ],
      "max": [
        0.93896484375,
        1
      ]
    },
    {
      "bufferView": 4,
      "componentType": 5123,
      "count": 4704,
      "type": "SCALAR",
      "min": [
        0
      ],
      "max": [
        2049
      ]
    }
  ],
  "extras": {
    "manifest": "Back_Long_XCrimson_02_Medium.materials.json"
  }
}