{
  "asset": {
    "version": "2.0",
    "generator": "prefab-to-gltf"
  },
  "scene": 0,
  "scenes": [
    {
      "name": "Feet_High_XCrimson_02_Medium",
      "nodes": [
        0
      ]
    }
  ],
  "nodes": [
    {
      "name": "Feet_High_Z1R4A_Medium_N",
      "translation": [
        0,
        0,
        0
      ],
      "rotation": [
        0,
        0,
        0,
        1
      ],
      "scale": [
        1,
        1,
        1
      ],
      "mesh": 0,
      "children": [
        1
      ]
    },
    {
      "name": "Z1R4A_Medium",
      "translation": [
        0,
        0,
        0
      ],
      "rotation": [
        0.7071067690849304,
        0,
        0,
        0.7071067932881644
      ],
      "scale": [
        1,
        1,
        1
      ]
    }
  ],
  "meshes": [
    {
      "name": "Feet_High_Z1R4A_Medium_N",
      "primitives": [
        {
          "attributes": {
            "POSITION": 0,
            "NORMAL": 1,
            "TEXCOORD_0": 2,
            "TEXCOORD_1": 3
          },
          "indices": 4,
          "material": 0,
          "mode": 4
        }
      ]
    }
  ],
  "materials": [
    {
      "name": "GradMat_Body",
      "pbrMetallicRoughness": {
        "baseColorFactor": [
          1,
          1,
          1,
          1
        ],
        "metallicFactor": 0,
        "roughnessFactor": 1
      },
      "doubleSided": true,
      "extras": {
        "diffuseTexture": "Character/Common/Texture/CustomGradient_BasicGuy.png",
        "specularTexture": null,
        "normalMap": null
      }
    }
  ],
  "buffers": [
    {
      "uri": "Feet_High_XCrimson_02_Medium.bin",
      "byteLength": 139128
    }
  ],
  "bufferViews": [
    {
      "buffer": 0,
      "byteOffset": 0,
      "byteLength": 37404,
      "target": 34962
    },
    {
      "buffer": 0,
      "byteOffset": 37404,
      "byteLength": 37404,
      "target": 34962
    },
    {
      "buffer": 0,
      "byteOffset": 74808,
      "byteLength": 24936,
      "target": 34962
    },
    {
      "buffer": 0,
      "byteOffset": 99744,
      "byteLength": 24936,
      "target": 34962
    },
    {
      "buffer": 0,
      "byteOffset": 124680,
      "byteLength": 14448,
      "target": 34963
    }
  ],
  "accessors": [
    {
      "bufferView": 0,
      "componentType": 5126,
      "count": 3117,
      "type": "VEC3",
      "min": [
        -0.417236328125,
        -0.007537841796875,
        -0.1260986328125
      ],
      "max": [
        0.417236328125,
        0.52587890625,
        0.326171875
      ]
    },
    {
      "bufferView": 1,
      "componentType": 5126,
      "count": 3117,
      "type": "VEC3",
      "min": [
        -0.5019607843137255,
        -0.5019607843137255,
        -0.5019607843137255
      ],
      "max": [
        1,
        1,
        1
      ]
    },
    {
      "bufferView": 2,
      "componentType": 5126,
      "count": 3117,
      "type": "VEC2",
      "min": [
        0.14501953125,
        0.21728515625
      ],
      "max": [
        0.71533203125,
        0.8935546875
      ]
    },
    {
      "bufferView": 3,
      "componentType": 5126,
      "count": 3117,
      "type": "VEC2",
      "min": [
        0.028900146484375,
        0.11614990234375
      ],
      "max": [
        0.943359375,
        0.97216796875
      ]
    },
    {
      "bufferView": 4,
      "componentType": 5123,
      "count": 7224,
      "type": "SCALAR",
      "min": [
        0
      ],
      "max": [
        3116
      ]
    }
  ],
  "extras": {
    "manifest": "Feet_High_XCrimson_02_Medium.materials.json"
  }
}