{
  "asset": {
    "version": "2.0",
    "generator": "prefab-to-gltf"
  },
  "scene": 0,
  "scenes": [
    {
      "name": "Waist_Medium_XCrimson_02_Light",
      "nodes": [
        0
      ]
    }
  ],
  "nodes": [
    {
      "name": "Waist_Medium_Z1R4A_Light_N",
      "translation": [
        0,
        0,
        0
      ],
      "rotation": [
        0,
        0,
        0,
        1
      ],
      "scale": [
        1,
        1,
        1
      ],
      "mesh": 0,
      "children": [
        1
      ]
    },
    {
      "name": "Z1R4A_Light",
      "translation": [
        0,
        0,
        0
      ],
      "rotation": [
        0.7071067690849304,
        0,
        0,
        0.7071067932881644
      ],
      "scale": [
        1,
        1,
        1
      ]
    }
  ],
  "meshes": [
    {
      "name": "Waist_Medium_Z1R4A_Light_N",
      "primitives": [
        {
          "attributes": {
            "POSITION": 0,
            "NORMAL": 1,
            "TEXCOORD_0": 2,
            "TEXCOORD_1": 3
          },
          "indices": 4,
          "material": 0,
          "mode": 4
        }
      ]
    }
  ],
  "materials": [
    {
      "name": "GradMat_Body",
      "pbrMetallicRoughness": {
        "baseColorFactor": [
          1,
          1,
          1,
          1
        ],
        "metallicFactor": 0,
        "roughnessFactor": 1
      },
      "doubleSided": true,
      "extras": {
        "diffuseTexture": "Character/Common/Texture/CustomGradient_BasicGuy.png",
        "specularTexture": null,
        "normalMap": null
      }
    }
  ],
  "buffers": [
    {
      "uri": "Waist_Medium_XCrimson_02_Light.bin",
      "byteLength": 27680
    }
  ],
  "bufferViews": [
    {
      "buffer": 0,
      "byteOffset": 0,
      "byteLength": 7440,
      "target": 34962
    },
    {
      "buffer": 0,
      "byteOffset": 7440,
      "byteLength": 7440,
      "target": 34962
    },
    {
      "buffer": 0,
      "byteOffset": 14880,
      "byteLength": 4960,
      "target": 34962
    },
    {
      "buffer": 0,
      "byteOffset": 19840,
      "byteLength": 4960,
      "target": 34962
    },
    {
      "buffer": 0,
      "byteOffset": 24800,
      "byteLength": 2880,
      "target": 34963
    }
  ],
  "accessors": [
    {
      "bufferView": 0,
      "componentType": 5126,
      "count": 620,
      "type": "VEC3",
      "min": [
        -0.2215576171875,
        1.1640625,
        -0.07196044921875
      ],
      "max": [
        0.2215576171875,
        1.302734375,
        0.2822265625
      ]
    },
    {
      "bufferView": 1,
      "componentType": 5126,
      "count": 620,
      "type": "VEC3",
      "min": [
        -0.4980392156862745,
        -0.5019607843137255,
        -0.5019607843137255
      ],
      "max": [
        1,
        1,
        0.4980392156862745
      ]
    },
    {
      "bufferView": 2,
      "componentType": 5126,
      "count": 620,
      "type": "VEC2",
      "min": [
        0.1485595703125,
        0.404296875
      ],
      "max": [
        0.333984375,
        0.857421875
      ]
    },
    {
      "bufferView": 3,
      "componentType": 5126,
      "count": 620,
      "type": "VEC2",
      "min": [
        0.051300048828125,
        0.11798095703125
      ],
      "max": [
        0.94140625,
        0.990234375
      ]
    },
    {
      "bufferView": 4,
      "componentType": 5123,
      "count": 1440,
      "type": "SCALAR",
      "min": [
        0
      ],
      "max": [
        619
      ]
    }
  ],
  "extras": {
    "manifest": "Waist_Medium_XCrimson_02_Light.materials.json"
  }
}