{
  "asset": {
    "version": "2.0",
    "generator": "prefab-to-gltf"
  },
  "scene": 0,
  "scenes": [
    {
      "name": "Spear_Demon_CursedEye_01",
      "nodes": [
        0
      ]
    }
  ],
  "nodes": [
    {
      "name": "GA_Demon_CursedEye_01",
      "translation": [
        0,
        0,
        0
      ],
      "rotation": [
        0,
        0,
        0,
        1
      ],
      "scale": [
        1,
        1,
        1
      ],
      "mesh": 0
    }
  ],
  "meshes": [
    {
      "name": "GA_Demon_CursedEye_01",
      "primitives": [
        {
          "attributes": {
            "POSITION": 0,
            "NORMAL": 1,
            "TEXCOORD_0": 2,
            "TEXCOORD_1": 3
          },
          "indices": 4,
          "material": 0,
          "mode": 4
        }
      ]
    }
  ],
  "materials": [
    {
      "name": "MatSlots",
      "pbrMetallicRoughness": {
        "baseColorFactor": [
          1,
          1,
          1,
          1
        ],
        "metallicFactor": 0,
        "roughnessFactor": 1
      },
      "doubleSided": true,
      "extras": {
        "diffuseTexture": null,
        "specularTexture": null,
        "normalMap": null
      }
    }
  ],
  "buffers": [
    {
      "uri": "Spear_Demon_CursedEye_01.bin",
      "byteLength": 64944
    }
  ],
  "bufferViews": [
    {
      "buffer": 0,
      "byteOffset": 0,
      "byteLength": 16992,
      "target": 34962
    },
    {
      "buffer": 0,
      "byteOffset": 16992,
      "byteLength": 16992,
      "target": 34962
    },
    {
      "buffer": 0,
      "byteOffset": 33984,
      "byteLength": 11328,
      "target": 34962
    },
    {
      "buffer": 0,
      "byteOffset": 45312,
      "byteLength": 11328,
      "target": 34962
    },
    {
      "buffer": 0,
      "byteOffset": 56640,
      "byteLength": 8304,
      "target": 34963
    }
  ],
  "accessors": [
    {
      "bufferView": 0,
      "componentType": 5126,
      "count": 1416,
      "type": "VEC3",
      "min": [
        -0.10891369730234146,
        -0.3210431635379791,
        -0.8324924111366272
      ],
      "max": [
        0.10918126255273819,
        0.3177851736545563,
        1.8808207511901855
      ]
    },
    {
      "bufferView": 1,
      "componentType": 5126,
      "count": 1416,
      "type": "VEC3",
      "min": [
        -1,
        -1,
        -1
      ],
      "max": [
        1,
        1,
        1
      ]
    },
    {
      "bufferView": 2,
      "componentType": 5126,
      "count": 1416,
      "type": "VEC2",
      "min": [
        0.016436010599136353,
        0.31532013416290283
      ],
      "max": [
        0.08475840091705322,
        0.9962337613105774
      ]
    },
    {
      "bufferView": 3,
      "componentType": 5126,
      "count": 1416,
      "type": "VEC2",
      "min": [
        0,
        0.13845956325531006
      ],
      "max": [
        0.9786821603775024,
        1
      ]
    },
    {
      "bufferView": 4,
      "componentType": 5123,
      "count": 4152,
      "type": "SCALAR",
      "min": [
        0
      ],
      "max": [
        1415
      ]
    }
  ],
  "extras": {
    "manifest": "Spear_Demon_CursedEye_01.materials.json"
  }
}