{
  "asset": {
    "version": "2.0",
    "generator": "prefab-to-gltf"
  },
  "scene": 0,
  "scenes": [
    {
      "name": "GreatAxe_Crimson",
      "nodes": [
        0
      ]
    }
  ],
  "nodes": [
    {
      "name": "GreatMace_Crimson",
      "translation": [
        0,
        0,
        0
      ],
      "rotation": [
        0,
        0,
        0.7071056365966797,
        0.7071079257745626
      ],
      "scale": [
        1,
        1,
        1
      ],
      "mesh": 0
    }
  ],
  "meshes": [
    {
      "name": "GreatMace_Crimson",
      "primitives": [
        {
          "attributes": {
            "POSITION": 0,
            "NORMAL": 1,
            "TEXCOORD_0": 2,
            "TEXCOORD_1": 3,
            "COLOR_0": 4
          },
          "indices": 5,
          "material": 0,
          "mode": 4
        }
      ]
    }
  ],
  "materials": [
    {
      "name": "MatSlots_WEAPONS_001",
      "pbrMetallicRoughness": {
        "baseColorFactor": [
          1,
          1,
          1,
          1
        ],
        "metallicFactor": 0,
        "roughnessFactor": 1
      },
      "doubleSided": true,
      "extras": {
        "diffuseTexture": null,
        "specularTexture": null,
        "normalMap": null
      }
    },
    {
      "name": "Outline_001",
      "pbrMetallicRoughness": {
        "baseColorFactor": [
          1,
          1,
          1,
          1
        ],
        "metallicFactor": 0,
        "roughnessFactor": 1
      },
      "doubleSided": true,
      "extras": {
        "diffuseTexture": null,
        "specularTexture": null,
        "normalMap": null
      }
    }
  ],
  "buffers": [
    {
      "uri": "GreatAxe_Crimson.bin",
      "byteLength": 168384
    }
  ],
  "bufferViews": [
    {
      "buffer": 0,
      "byteOffset": 0,
      "byteLength": 34272,
      "target": 34962
    },
    {
      "buffer": 0,
      "byteOffset": 34272,
      "byteLength": 34272,
      "target": 34962
    },
    {
      "buffer": 0,
      "byteOffset": 68544,
      "byteLength": 22848,
      "target": 34962
    },
    {
      "buffer": 0,
      "byteOffset": 91392,
      "byteLength": 22848,
      "target": 34962
    },
    {
      "buffer": 0,
      "byteOffset": 114240,
      "byteLength": 34272,
      "target": 34962
    },
    {
      "buffer": 0,
      "byteOffset": 148512,
      "byteLength": 19872,
      "target": 34963
    }
  ],
  "accessors": [
    {
      "bufferView": 0,
      "componentType": 5126,
      "count": 2856,
      "type": "VEC3",
      "min": [
        -0.5217198729515076,
        -0.1398800164461136,
        -0.8671625852584839
      ],
      "max": [
        0.5217198729515076,
        0.13992838561534882,
        1.890049695968628
      ]
    },
    {
      "bufferView": 1,
      "componentType": 5126,
      "count": 2856,
      "type": "VEC3",
      "min": [
        -1,
        -1,
        -1
      ],
      "max": [
        1,
        1,
        1
      ]
    },
    {
      "bufferView": 2,
      "componentType": 5126,
      "count": 2856,
      "type": "VEC2",
      "min": [
        0.012502223253250122,
        0.1286448836326599
      ],
      "max": [
        0.33965471386909485,
        0.8160762786865234
      ]
    },
    {
      "bufferView": 3,
      "componentType": 5126,
      "count": 2856,
      "type": "VEC2",
      "min": [
        0,
        0.19606149196624756
      ],
      "max": [
        0.9590837955474854,
        1
      ]
    },
    {
      "bufferView": 4,
      "componentType": 5126,
      "count": 2142,
      "type": "VEC4",
      "min": [
        0,
        0,
        0,
        0
      ],
      "max": [
        1,
        1,
        1,
        1
      ]
    },
    {
      "bufferView": 5,
      "componentType": 5123,
      "count": 9936,
      "type": "SCALAR",
      "min": [
        0
      ],
      "max": [
        2855
      ]
    }
  ],
  "extras": {
    "manifest": "GreatAxe_Crimson.materials.json"
  }
}