{
  "asset": {
    "version": "2.0",
    "generator": "prefab-to-gltf"
  },
  "scene": 0,
  "scenes": [
    {
      "name": "Ogre_Docker",
      "nodes": [
        0
      ]
    }
  ],
  "nodes": [
    {
      "name": "Ogre_Docker",
      "translation": [
        0,
        0,
        0
      ],
      "rotation": [
        0,
        0,
        0,
        1
      ],
      "scale": [
        1,
        1,
        1
      ],
      "mesh": 0
    }
  ],
  "meshes": [
    {
      "name": "Ogre_Docker",
      "primitives": [
        {
          "attributes": {
            "POSITION": 0,
            "NORMAL": 1,
            "TEXCOORD_0": 2,
            "TEXCOORD_1": 3,
            "COLOR_0": 4
          },
          "indices": 5,
          "material": 0,
          "mode": 4
        }
      ]
    }
  ],
  "materials": [
    {
      "name": "GradMat",
      "pbrMetallicRoughness": {
        "baseColorFactor": [
          1,
          1,
          1,
          1
        ],
        "metallicFactor": 0,
        "roughnessFactor": 1
      },
      "doubleSided": true,
      "extras": {
        "diffuseTexture": "Character/Common/Texture/CustomGradient_WeaponALL.png",
        "specularTexture": null,
        "normalMap": null
      }
    }
  ],
  "buffers": [
    {
      "uri": "Ogre_Docker.bin",
      "byteLength": 1389542
    }
  ],
  "bufferViews": [
    {
      "buffer": 0,
      "byteOffset": 0,
      "byteLength": 283668,
      "target": 34962
    },
    {
      "buffer": 0,
      "byteOffset": 283668,
      "byteLength": 283668,
      "target": 34962
    },
    {
      "buffer": 0,
      "byteOffset": 567336,
      "byteLength": 189112,
      "target": 34962
    },
    {
      "buffer": 0,
      "byteOffset": 756448,
      "byteLength": 189112,
      "target": 34962
    },
    {
      "buffer": 0,
      "byteOffset": 945560,
      "byteLength": 283668,
      "target": 34962
    },
    {
      "buffer": 0,
      "byteOffset": 1229228,
      "byteLength": 160314,
      "target": 34963
    }
  ],
  "accessors": [
    {
      "bufferView": 0,
      "componentType": 5126,
      "count": 23639,
      "type": "VEC3",
      "min": [
        -2.7320189476013184,
        -0.0023953390773385763,
        -3.5394556522369385
      ],
      "max": [
        2.7320189476013184,
        5.0789289474487305,
        1.6482515335083008
      ]
    },
    {
      "bufferView": 1,
      "componentType": 5126,
      "count": 23639,
      "type": "VEC3",
      "min": [
        -0.999988317489624,
        -0.9999338388442993,
        -0.999961256980896
      ],
      "max": [
        0.999988317489624,
        0.9999802112579346,
        0.9999934434890747
      ]
    },
    {
      "bufferView": 2,
      "componentType": 5126,
      "count": 23639,
      "type": "VEC2",
      "min": [
        0.00019810977391898632,
        0.13469535112380981
      ],
      "max": [
        0.9870158433914185,
        0.9946475028991699
      ]
    },
    {
      "bufferView": 3,
      "componentType": 5126,
      "count": 23639,
      "type": "VEC2",
      "min": [
        0.019714809954166412,
        0.020604491233825684
      ],
      "max": [
        0.9952226877212524,
        1.0015594959259033
      ]
    },
    {
      "bufferView": 4,
      "componentType": 5126,
      "count": 17729.25,
      "type": "VEC4",
      "min": [
        0,
        0,
        0,
        0
      ],
      "max": [
        1,
        1,
        1,
        1
      ]
    },
    {
      "bufferView": 5,
      "componentType": 5123,
      "count": 80157,
      "type": "SCALAR",
      "min": [
        0
      ],
      "max": [
        23638
      ]
    }
  ],
  "extras": {
    "manifest": "Ogre_Docker.materials.json"
  }
}