{
  "asset": {
    "version": "2.0",
    "generator": "prefab-to-gltf"
  },
  "scene": 0,
  "scenes": [
    {
      "name": "Ogre_Kobold_02",
      "nodes": [
        0
      ]
    }
  ],
  "nodes": [
    {
      "name": "Ogre_Kobold_02",
      "translation": [
        0,
        0,
        0
      ],
      "rotation": [
        0,
        0,
        0,
        1
      ],
      "scale": [
        1,
        1,
        1
      ],
      "mesh": 0
    }
  ],
  "meshes": [
    {
      "name": "Ogre_Kobold_02",
      "primitives": [
        {
          "attributes": {
            "POSITION": 0,
            "NORMAL": 1,
            "TEXCOORD_0": 2,
            "TEXCOORD_1": 3,
            "COLOR_0": 4
          },
          "indices": 5,
          "material": 0,
          "mode": 4
        }
      ]
    }
  ],
  "materials": [
    {
      "name": "Gradmat",
      "pbrMetallicRoughness": {
        "baseColorFactor": [
          1,
          1,
          1,
          1
        ],
        "metallicFactor": 0,
        "roughnessFactor": 1
      },
      "doubleSided": true,
      "extras": {
        "diffuseTexture": "Character/Common/Texture/CustomGradient_WeaponALL.png",
        "specularTexture": null,
        "normalMap": null
      }
    }
  ],
  "buffers": [
    {
      "uri": "Ogre_Kobold_02.bin",
      "byteLength": 963034
    }
  ],
  "bufferViews": [
    {
      "buffer": 0,
      "byteOffset": 0,
      "byteLength": 195600,
      "target": 34962
    },
    {
      "buffer": 0,
      "byteOffset": 195600,
      "byteLength": 195600,
      "target": 34962
    },
    {
      "buffer": 0,
      "byteOffset": 391200,
      "byteLength": 130400,
      "target": 34962
    },
    {
      "buffer": 0,
      "byteOffset": 521600,
      "byteLength": 130400,
      "target": 34962
    },
    {
      "buffer": 0,
      "byteOffset": 652000,
      "byteLength": 195600,
      "target": 34962
    },
    {
      "buffer": 0,
      "byteOffset": 847600,
      "byteLength": 115434,
      "target": 34963
    }
  ],
  "accessors": [
    {
      "bufferView": 0,
      "componentType": 5126,
      "count": 16300,
      "type": "VEC3",
      "min": [
        -2.7320189476013184,
        -0.0023953390773385763,
        -3.713866949081421
      ],
      "max": [
        2.7320189476013184,
        4.766666412353516,
        1.6482515335083008
      ]
    },
    {
      "bufferView": 1,
      "componentType": 5126,
      "count": 16300,
      "type": "VEC3",
      "min": [
        -0.999988317489624,
        -0.9999338388442993,
        -0.999961256980896
      ],
      "max": [
        0.999988317489624,
        0.9999706745147705,
        0.9999934434890747
      ]
    },
    {
      "bufferView": 2,
      "componentType": 5126,
      "count": 16300,
      "type": "VEC2",
      "min": [
        0.00019810977391898632,
        0.13469535112380981
      ],
      "max": [
        0.9870158433914185,
        0.9946475028991699
      ]
    },
    {
      "bufferView": 3,
      "componentType": 5126,
      "count": 16300,
      "type": "VEC2",
      "min": [
        0.019714809954166412,
        0.03906130790710449
      ],
      "max": [
        0.9952226877212524,
        1.0015594959259033
      ]
    },
    {
      "bufferView": 4,
      "componentType": 5126,
      "count": 12225,
      "type": "VEC4",
      "min": [
        0,
        0,
        0,
        0
      ],
      "max": [
        1,
        1,
        1,
        1
      ]
    },
    {
      "bufferView": 5,
      "componentType": 5123,
      "count": 57717,
      "type": "SCALAR",
      "min": [
        0
      ],
      "max": [
        16299
      ]
    }
  ],
  "extras": {
    "manifest": "Ogre_Kobold_02.materials.json"
  }
}