{
  "asset": {
    "version": "2.0",
    "generator": "prefab-to-gltf"
  },
  "scene": 0,
  "scenes": [
    {
      "name": "Ogre_Bagon_Brown02",
      "nodes": [
        0
      ]
    }
  ],
  "nodes": [
    {
      "name": "Ogre_Bagon",
      "translation": [
        0,
        0,
        0
      ],
      "rotation": [
        0,
        0,
        0,
        1
      ],
      "scale": [
        1,
        1,
        1
      ],
      "mesh": 0
    }
  ],
  "meshes": [
    {
      "name": "Ogre_Bagon",
      "primitives": [
        {
          "attributes": {
            "POSITION": 0,
            "NORMAL": 1,
            "TEXCOORD_0": 2,
            "TEXCOORD_1": 3,
            "COLOR_0": 4
          },
          "indices": 5,
          "material": 0,
          "mode": 4
        }
      ]
    }
  ],
  "materials": [
    {
      "name": "phong2",
      "pbrMetallicRoughness": {
        "baseColorFactor": [
          1,
          1,
          1,
          1
        ],
        "metallicFactor": 0,
        "roughnessFactor": 1
      },
      "doubleSided": true,
      "extras": {
        "diffuseTexture": "Character/Common/Texture/CustomGradient_Guard.png",
        "specularTexture": null,
        "normalMap": null
      }
    }
  ],
  "buffers": [
    {
      "uri": "Ogre_Bagon_Brown02.bin",
      "byteLength": 1078190
    }
  ],
  "bufferViews": [
    {
      "buffer": 0,
      "byteOffset": 0,
      "byteLength": 218364,
      "target": 34962
    },
    {
      "buffer": 0,
      "byteOffset": 218364,
      "byteLength": 218364,
      "target": 34962
    },
    {
      "buffer": 0,
      "byteOffset": 436728,
      "byteLength": 145576,
      "target": 34962
    },
    {
      "buffer": 0,
      "byteOffset": 582304,
      "byteLength": 145576,
      "target": 34962
    },
    {
      "buffer": 0,
      "byteOffset": 727880,
      "byteLength": 218364,
      "target": 34962
    },
    {
      "buffer": 0,
      "byteOffset": 946244,
      "byteLength": 131946,
      "target": 34963
    }
  ],
  "accessors": [
    {
      "bufferView": 0,
      "componentType": 5126,
      "count": 18197,
      "type": "VEC3",
      "min": [
        -2.7320356369018555,
        -0.00037697760853916407,
        -1.4515858888626099
      ],
      "max": [
        2.7320356369018555,
        5.27182674407959,
        1.2940198183059692
      ]
    },
    {
      "bufferView": 1,
      "componentType": 5126,
      "count": 18197,
      "type": "VEC3",
      "min": [
        -0.9999425411224365,
        -0.9999467134475708,
        -0.9999669194221497
      ],
      "max": [
        0.999942421913147,
        0.9995862245559692,
        0.9998244047164917
      ]
    },
    {
      "bufferView": 2,
      "componentType": 5126,
      "count": 18197,
      "type": "VEC2",
      "min": [
        0.0040318965911865234,
        0.0450405478477478
      ],
      "max": [
        0.8126236796379089,
        1.1995733976364136
      ]
    },
    {
      "bufferView": 3,
      "componentType": 5126,
      "count": 18197,
      "type": "VEC2",
      "min": [
        0,
        0.06954890489578247
      ],
      "max": [
        0.9447188377380371,
        1
      ]
    },
    {
      "bufferView": 4,
      "componentType": 5126,
      "count": 13647.75,
      "type": "VEC4",
      "min": [
        0,
        0,
        0,
        0
      ],
      "max": [
        1,
        1,
        1,
        1
      ]
    },
    {
      "bufferView": 5,
      "componentType": 5123,
      "count": 65973,
      "type": "SCALAR",
      "min": [
        0
      ],
      "max": [
        18196
      ]
    }
  ],
  "extras": {
    "manifest": "Ogre_Bagon_Brown02.materials.json"
  }
}