{
  "asset": {
    "version": "2.0",
    "generator": "prefab-to-gltf"
  },
  "scene": 0,
  "scenes": [
    {
      "name": "GreatMace_Ogre_RaclettePan",
      "nodes": [
        0
      ]
    }
  ],
  "nodes": [
    {
      "name": "GreatMace_Ogre_RaclettePan",
      "translation": [
        0,
        0,
        0
      ],
      "rotation": [
        0,
        0,
        0,
        1
      ],
      "scale": [
        1,
        1,
        1
      ],
      "mesh": 0
    }
  ],
  "meshes": [
    {
      "name": "GreatMace_Ogre_RaclettePan",
      "primitives": [
        {
          "attributes": {
            "POSITION": 0,
            "NORMAL": 1,
            "TEXCOORD_0": 2,
            "TEXCOORD_1": 3
          },
          "indices": 4,
          "material": 0,
          "mode": 4
        }
      ]
    }
  ],
  "materials": [
    {
      "name": "GradMat_002",
      "pbrMetallicRoughness": {
        "baseColorFactor": [
          1,
          1,
          1,
          1
        ],
        "metallicFactor": 0,
        "roughnessFactor": 1
      },
      "doubleSided": true,
      "extras": {
        "diffuseTexture": null,
        "specularTexture": null,
        "normalMap": null
      }
    }
  ],
  "buffers": [
    {
      "uri": "GreatMace_Ogre_RaclettePan.bin",
      "byteLength": 106220
    }
  ],
  "bufferViews": [
    {
      "buffer": 0,
      "byteOffset": 0,
      "byteLength": 27924,
      "target": 34962
    },
    {
      "buffer": 0,
      "byteOffset": 27924,
      "byteLength": 27924,
      "target": 34962
    },
    {
      "buffer": 0,
      "byteOffset": 55848,
      "byteLength": 18616,
      "target": 34962
    },
    {
      "buffer": 0,
      "byteOffset": 74464,
      "byteLength": 18616,
      "target": 34962
    },
    {
      "buffer": 0,
      "byteOffset": 93080,
      "byteLength": 13140,
      "target": 34963
    }
  ],
  "accessors": [
    {
      "bufferView": 0,
      "componentType": 5126,
      "count": 2327,
      "type": "VEC3",
      "min": [
        -0.7551175951957703,
        -0.2999286651611328,
        -1.610463261604309
      ],
      "max": [
        0.7759401202201843,
        0.28601130843162537,
        3.6178431510925293
      ]
    },
    {
      "bufferView": 1,
      "componentType": 5126,
      "count": 2327,
      "type": "VEC3",
      "min": [
        -1,
        -1,
        -1
      ],
      "max": [
        1,
        1,
        0.9997715950012207
      ]
    },
    {
      "bufferView": 2,
      "componentType": 5126,
      "count": 2327,
      "type": "VEC2",
      "min": [
        0.027153626084327698,
        0.4767073392868042
      ],
      "max": [
        0.3556867241859436,
        0.9021621346473694
      ]
    },
    {
      "bufferView": 3,
      "componentType": 5126,
      "count": 2327,
      "type": "VEC2",
      "min": [
        0,
        0.12632590532302856
      ],
      "max": [
        0.9417803883552551,
        1
      ]
    },
    {
      "bufferView": 4,
      "componentType": 5123,
      "count": 6570,
      "type": "SCALAR",
      "min": [
        0
      ],
      "max": [
        2326
      ]
    }
  ],
  "extras": {
    "manifest": "GreatMace_Ogre_RaclettePan.materials.json"
  }
}