{
  "asset": {
    "version": "2.0",
    "generator": "prefab-to-gltf"
  },
  "scene": 0,
  "scenes": [
    {
      "name": "Feet_Low_Starter_Wiz",
      "nodes": [
        0
      ]
    }
  ],
  "nodes": [
    {
      "name": "Feet_Starter_Wiz_01_N",
      "translation": [
        0,
        0,
        0
      ],
      "rotation": [
        0,
        0,
        0,
        1
      ],
      "scale": [
        1,
        1,
        1
      ],
      "mesh": 0
    }
  ],
  "meshes": [
    {
      "name": "Feet_Starter_Wiz_01_N",
      "primitives": [
        {
          "attributes": {
            "POSITION": 0,
            "NORMAL": 1,
            "TEXCOORD_0": 2,
            "TEXCOORD_1": 3,
            "COLOR_0": 4
          },
          "indices": 5,
          "material": 0,
          "mode": 4
        }
      ]
    }
  ],
  "materials": [
    {
      "name": "Gradmat_Weapon",
      "pbrMetallicRoughness": {
        "baseColorFactor": [
          1,
          1,
          1,
          1
        ],
        "metallicFactor": 0,
        "roughnessFactor": 1
      },
      "doubleSided": true,
      "extras": {
        "diffuseTexture": "Character/Common/Texture/CustomGradient_Hero_Clothes.png",
        "specularTexture": null,
        "normalMap": null
      }
    }
  ],
  "buffers": [
    {
      "uri": "Feet_Low_Starter_Wiz.bin",
      "byteLength": 64056
    }
  ],
  "bufferViews": [
    {
      "buffer": 0,
      "byteOffset": 0,
      "byteLength": 13464,
      "target": 34962
    },
    {
      "buffer": 0,
      "byteOffset": 13464,
      "byteLength": 13464,
      "target": 34962
    },
    {
      "buffer": 0,
      "byteOffset": 26928,
      "byteLength": 8976,
      "target": 34962
    },
    {
      "buffer": 0,
      "byteOffset": 35904,
      "byteLength": 8976,
      "target": 34962
    },
    {
      "buffer": 0,
      "byteOffset": 44880,
      "byteLength": 13464,
      "target": 34962
    },
    {
      "buffer": 0,
      "byteOffset": 58344,
      "byteLength": 5712,
      "target": 34963
    }
  ],
  "accessors": [
    {
      "bufferView": 0,
      "componentType": 5126,
      "count": 1122,
      "type": "VEC3",
      "min": [
        -0.390971302986145,
        -0.007517548277974129,
        -0.0661940649151802
      ],
      "max": [
        0.390971302986145,
        0.23026807606220245,
        0.32785582542419434
      ]
    },
    {
      "bufferView": 1,
      "componentType": 5126,
      "count": 1122,
      "type": "VEC3",
      "min": [
        -0.9986488223075867,
        -1,
        -0.9999864101409912
      ],
      "max": [
        0.9986488223075867,
        0.9954811930656433,
        0.9977282881736755
      ]
    },
    {
      "bufferView": 2,
      "componentType": 5126,
      "count": 1122,
      "type": "VEC2",
      "min": [
        0.15394797921180725,
        0.26697295904159546
      ],
      "max": [
        0.43473824858665466,
        0.7565441131591797
      ]
    },
    {
      "bufferView": 3,
      "componentType": 5126,
      "count": 1122,
      "type": "VEC2",
      "min": [
        0.047156743705272675,
        0.14174044132232666
      ],
      "max": [
        0.9466296434402466,
        0.9551625847816467
      ]
    },
    {
      "bufferView": 4,
      "componentType": 5126,
      "count": 841.5,
      "type": "VEC4",
      "min": [
        0,
        0,
        0,
        0
      ],
      "max": [
        1,
        1,
        1,
        1
      ]
    },
    {
      "bufferView": 5,
      "componentType": 5123,
      "count": 2856,
      "type": "SCALAR",
      "min": [
        0
      ],
      "max": [
        1121
      ]
    }
  ],
  "extras": {
    "manifest": "Feet_Low_Starter_Wiz.materials.json"
  }
}