{
  "asset": {
    "version": "2.0",
    "generator": "prefab-to-gltf"
  },
  "scene": 0,
  "scenes": [
    {
      "name": "Glider_Owl_Brown02",
      "nodes": [
        0
      ]
    }
  ],
  "nodes": [
    {
      "name": "Glider_Owl_02",
      "translation": [
        0,
        0,
        0
      ],
      "rotation": [
        0,
        0,
        0,
        1
      ],
      "scale": [
        1,
        1,
        1
      ],
      "mesh": 0
    }
  ],
  "meshes": [
    {
      "name": "Glider_Owl_02",
      "primitives": [
        {
          "attributes": {
            "POSITION": 0,
            "NORMAL": 1,
            "TEXCOORD_0": 2,
            "TEXCOORD_1": 3,
            "COLOR_0": 4
          },
          "indices": 5,
          "material": 0,
          "mode": 4
        }
      ]
    }
  ],
  "materials": [
    {
      "name": "Gradmat_Owl",
      "pbrMetallicRoughness": {
        "baseColorFactor": [
          1,
          1,
          1,
          1
        ],
        "metallicFactor": 0,
        "roughnessFactor": 1
      },
      "doubleSided": true,
      "extras": {
        "diffuseTexture": "Character/Common/Texture/CustomGradient_BasicGuy.png",
        "specularTexture": null,
        "normalMap": null
      }
    }
  ],
  "buffers": [
    {
      "uri": "Glider_Owl_Brown02.bin",
      "byteLength": 685472
    }
  ],
  "bufferViews": [
    {
      "buffer": 0,
      "byteOffset": 0,
      "byteLength": 139164,
      "target": 34962
    },
    {
      "buffer": 0,
      "byteOffset": 139164,
      "byteLength": 139164,
      "target": 34962
    },
    {
      "buffer": 0,
      "byteOffset": 278328,
      "byteLength": 92776,
      "target": 34962
    },
    {
      "buffer": 0,
      "byteOffset": 371104,
      "byteLength": 92776,
      "target": 34962
    },
    {
      "buffer": 0,
      "byteOffset": 463880,
      "byteLength": 139164,
      "target": 34962
    },
    {
      "buffer": 0,
      "byteOffset": 603044,
      "byteLength": 82428,
      "target": 34963
    }
  ],
  "accessors": [
    {
      "bufferView": 0,
      "componentType": 5126,
      "count": 11597,
      "type": "VEC3",
      "min": [
        -1.8294426202774048,
        0.2000633031129837,
        -1.9506617784500122
      ],
      "max": [
        1.8300447463989258,
        1.0808517932891846,
        1.1301798820495605
      ]
    },
    {
      "bufferView": 1,
      "componentType": 5126,
      "count": 11597,
      "type": "VEC3",
      "min": [
        -0.9999790191650391,
        -0.9999978542327881,
        -0.9997394680976868
      ],
      "max": [
        0.9999790191650391,
        1,
        0.9998466968536377
      ]
    },
    {
      "bufferView": 2,
      "componentType": 5126,
      "count": 11597,
      "type": "VEC2",
      "min": [
        0.11384657770395279,
        0.014369368553161621
      ],
      "max": [
        0.954830527305603,
        0.993017315864563
      ]
    },
    {
      "bufferView": 3,
      "componentType": 5126,
      "count": 11597,
      "type": "VEC2",
      "min": [
        0.04859599471092224,
        0.13347458839416504
      ],
      "max": [
        0.9442553520202637,
        0.9899159073829651
      ]
    },
    {
      "bufferView": 4,
      "componentType": 5126,
      "count": 8697.75,
      "type": "VEC4",
      "min": [
        0,
        0,
        0,
        0
      ],
      "max": [
        1,
        1,
        1,
        1
      ]
    },
    {
      "bufferView": 5,
      "componentType": 5123,
      "count": 41214,
      "type": "SCALAR",
      "min": [
        0
      ],
      "max": [
        11596
      ]
    }
  ],
  "extras": {
    "manifest": "Glider_Owl_Brown02.materials.json"
  }
}