{
  "asset": {
    "version": "2.0",
    "generator": "prefab-to-gltf"
  },
  "scene": 0,
  "scenes": [
    {
      "name": "Back_Short_Z2U2_WizCle",
      "nodes": [
        0
      ]
    }
  ],
  "nodes": [
    {
      "name": "Back_Z2U_Light_N",
      "translation": [
        0,
        0,
        0
      ],
      "rotation": [
        0,
        0,
        0,
        1
      ],
      "scale": [
        1,
        1,
        1
      ],
      "mesh": 0
    }
  ],
  "meshes": [
    {
      "name": "Back_Z2U_Light_N",
      "primitives": [
        {
          "attributes": {
            "POSITION": 0,
            "NORMAL": 1,
            "TEXCOORD_0": 2,
            "TEXCOORD_1": 3
          },
          "indices": 4,
          "material": 0,
          "mode": 4
        }
      ]
    }
  ],
  "materials": [
    {
      "name": "Gradmat_Weapon",
      "pbrMetallicRoughness": {
        "baseColorFactor": [
          1,
          1,
          1,
          1
        ],
        "metallicFactor": 0,
        "roughnessFactor": 1
      },
      "doubleSided": true,
      "extras": {
        "diffuseTexture": "Character/Common/Texture/CustomGradient_Hero_Clothes.png",
        "specularTexture": null,
        "normalMap": null
      }
    }
  ],
  "buffers": [
    {
      "uri": "Back_Short_Z2U2_WizCle.bin",
      "byteLength": 17272
    }
  ],
  "bufferViews": [
    {
      "buffer": 0,
      "byteOffset": 0,
      "byteLength": 4728,
      "target": 34962
    },
    {
      "buffer": 0,
      "byteOffset": 4728,
      "byteLength": 4728,
      "target": 34962
    },
    {
      "buffer": 0,
      "byteOffset": 9456,
      "byteLength": 3152,
      "target": 34962
    },
    {
      "buffer": 0,
      "byteOffset": 12608,
      "byteLength": 3152,
      "target": 34962
    },
    {
      "buffer": 0,
      "byteOffset": 15760,
      "byteLength": 1512,
      "target": 34963
    }
  ],
  "accessors": [
    {
      "bufferView": 0,
      "componentType": 5126,
      "count": 394,
      "type": "VEC3",
      "min": [
        -0.267578125,
        1.4267578125,
        -0.1689453125
      ],
      "max": [
        0.267578125,
        1.7900390625,
        0.10260009765625
      ]
    },
    {
      "bufferView": 1,
      "componentType": 5126,
      "count": 394,
      "type": "VEC3",
      "min": [
        -0.5019607843137255,
        -0.4627450980392157,
        -0.5019607843137255
      ],
      "max": [
        1,
        1,
        0.4980392156862745
      ]
    },
    {
      "bufferView": 2,
      "componentType": 5126,
      "count": 394,
      "type": "VEC2",
      "min": [
        0.1741943359375,
        0.365234375
      ],
      "max": [
        0.69921875,
        0.7861328125
      ]
    },
    {
      "bufferView": 3,
      "componentType": 5126,
      "count": 394,
      "type": "VEC2",
      "min": [
        0,
        0.1124267578125
      ],
      "max": [
        0.93896484375,
        1
      ]
    },
    {
      "bufferView": 4,
      "componentType": 5123,
      "count": 756,
      "type": "SCALAR",
      "min": [
        0
      ],
      "max": [
        393
      ]
    }
  ],
  "extras": {
    "manifest": "Back_Short_Z2U2_WizCle.materials.json"
  }
}