{
  "asset": {
    "version": "2.0",
    "generator": "prefab-to-gltf"
  },
  "scene": 0,
  "scenes": [
    {
      "name": "Feet_High_Z2U2_WizCle",
      "nodes": [
        0
      ]
    }
  ],
  "nodes": [
    {
      "name": "Feet_R1S1_Wiz_N",
      "translation": [
        0,
        0,
        0
      ],
      "rotation": [
        0,
        0,
        0,
        1
      ],
      "scale": [
        1,
        1,
        1
      ],
      "mesh": 0
    }
  ],
  "meshes": [
    {
      "name": "Feet_R1S1_Wiz_N",
      "primitives": [
        {
          "attributes": {
            "POSITION": 0,
            "NORMAL": 1,
            "TEXCOORD_0": 2,
            "TEXCOORD_1": 3
          },
          "indices": 4,
          "material": 0,
          "mode": 4
        }
      ]
    }
  ],
  "materials": [
    {
      "name": "GradMat_Body",
      "pbrMetallicRoughness": {
        "baseColorFactor": [
          1,
          1,
          1,
          1
        ],
        "metallicFactor": 0,
        "roughnessFactor": 1
      },
      "doubleSided": true,
      "extras": {
        "diffuseTexture": "Character/Common/Texture/CustomGradient_BasicGuy.png",
        "specularTexture": null,
        "normalMap": null
      }
    }
  ],
  "buffers": [
    {
      "uri": "Feet_High_Z2U2_WizCle.bin",
      "byteLength": 83768
    }
  ],
  "bufferViews": [
    {
      "buffer": 0,
      "byteOffset": 0,
      "byteLength": 22488,
      "target": 34962
    },
    {
      "buffer": 0,
      "byteOffset": 22488,
      "byteLength": 22488,
      "target": 34962
    },
    {
      "buffer": 0,
      "byteOffset": 44976,
      "byteLength": 14992,
      "target": 34962
    },
    {
      "buffer": 0,
      "byteOffset": 59968,
      "byteLength": 14992,
      "target": 34962
    },
    {
      "buffer": 0,
      "byteOffset": 74960,
      "byteLength": 8808,
      "target": 34963
    }
  ],
  "accessors": [
    {
      "bufferView": 0,
      "componentType": 5126,
      "count": 1874,
      "type": "VEC3",
      "min": [
        -0.4150390625,
        -0.007537841796875,
        -0.11529541015625
      ],
      "max": [
        0.4150390625,
        0.52587890625,
        0.326171875
      ]
    },
    {
      "bufferView": 1,
      "componentType": 5126,
      "count": 1874,
      "type": "VEC3",
      "min": [
        -0.5019607843137255,
        -0.5019607843137255,
        -0.5019607843137255
      ],
      "max": [
        1,
        1,
        0.4980392156862745
      ]
    },
    {
      "bufferView": 2,
      "componentType": 5126,
      "count": 1874,
      "type": "VEC2",
      "min": [
        0.1572265625,
        0.40087890625
      ],
      "max": [
        0.59228515625,
        0.8935546875
      ]
    },
    {
      "bufferView": 3,
      "componentType": 5126,
      "count": 1874,
      "type": "VEC2",
      "min": [
        0.028900146484375,
        0.1131591796875
      ],
      "max": [
        0.84228515625,
        0.9482421875
      ]
    },
    {
      "bufferView": 4,
      "componentType": 5123,
      "count": 4404,
      "type": "SCALAR",
      "min": [
        0
      ],
      "max": [
        1873
      ]
    }
  ],
  "extras": {
    "manifest": "Feet_High_Z2U2_WizCle.materials.json"
  }
}