{
  "asset": {
    "version": "2.0",
    "generator": "prefab-to-gltf"
  },
  "scene": 0,
  "scenes": [
    {
      "name": "Waist_Medium_Z2U1_WizCle",
      "nodes": [
        0
      ]
    }
  ],
  "nodes": [
    {
      "name": "Waist_R1S1_Wiz_N",
      "translation": [
        0,
        0,
        0
      ],
      "rotation": [
        0,
        0,
        0,
        1
      ],
      "scale": [
        1,
        1,
        1
      ],
      "mesh": 0
    }
  ],
  "meshes": [
    {
      "name": "Waist_R1S1_Wiz_N",
      "primitives": [
        {
          "attributes": {
            "POSITION": 0,
            "NORMAL": 1,
            "TEXCOORD_0": 2,
            "TEXCOORD_1": 3
          },
          "indices": 4,
          "material": 0,
          "mode": 4
        }
      ]
    }
  ],
  "materials": [
    {
      "name": "GradMat_Body",
      "pbrMetallicRoughness": {
        "baseColorFactor": [
          1,
          1,
          1,
          1
        ],
        "metallicFactor": 0,
        "roughnessFactor": 1
      },
      "doubleSided": true,
      "extras": {
        "diffuseTexture": "Character/Common/Texture/CustomGradient_BasicGuy.png",
        "specularTexture": null,
        "normalMap": null
      }
    }
  ],
  "buffers": [
    {
      "uri": "Waist_Medium_Z2U1_WizCle.bin",
      "byteLength": 28136
    }
  ],
  "bufferViews": [
    {
      "buffer": 0,
      "byteOffset": 0,
      "byteLength": 7512,
      "target": 34962
    },
    {
      "buffer": 0,
      "byteOffset": 7512,
      "byteLength": 7512,
      "target": 34962
    },
    {
      "buffer": 0,
      "byteOffset": 15024,
      "byteLength": 5008,
      "target": 34962
    },
    {
      "buffer": 0,
      "byteOffset": 20032,
      "byteLength": 5008,
      "target": 34962
    },
    {
      "buffer": 0,
      "byteOffset": 25040,
      "byteLength": 3096,
      "target": 34963
    }
  ],
  "accessors": [
    {
      "bufferView": 0,
      "componentType": 5126,
      "count": 626,
      "type": "VEC3",
      "min": [
        -0.2215576171875,
        1.173828125,
        -0.07196044921875
      ],
      "max": [
        0.2215576171875,
        1.302734375,
        0.269775390625
      ]
    },
    {
      "bufferView": 1,
      "componentType": 5126,
      "count": 626,
      "type": "VEC3",
      "min": [
        -0.4980392156862745,
        -0.5019607843137255,
        -0.5019607843137255
      ],
      "max": [
        1,
        1,
        1
      ]
    },
    {
      "bufferView": 2,
      "componentType": 5126,
      "count": 626,
      "type": "VEC2",
      "min": [
        0.1622314453125,
        0.54443359375
      ],
      "max": [
        0.342041015625,
        0.85791015625
      ]
    },
    {
      "bufferView": 3,
      "componentType": 5126,
      "count": 626,
      "type": "VEC2",
      "min": [
        0.051300048828125,
        0.12274169921875
      ],
      "max": [
        0.439453125,
        0.96435546875
      ]
    },
    {
      "bufferView": 4,
      "componentType": 5123,
      "count": 1548,
      "type": "SCALAR",
      "min": [
        0
      ],
      "max": [
        625
      ]
    }
  ],
  "extras": {
    "manifest": "Waist_Medium_Z2U1_WizCle.materials.json"
  }
}