{
  "asset": {
    "version": "2.0",
    "generator": "prefab-to-gltf"
  },
  "scene": 0,
  "scenes": [
    {
      "name": "Relic_R5_R1Hive_Wiz",
      "nodes": [
        0
      ]
    }
  ],
  "nodes": [
    {
      "name": "Relic_R5_R1Hive_Wiz",
      "translation": [
        0,
        0,
        0
      ],
      "rotation": [
        0,
        0,
        0.7071056365966797,
        0.7071079257745626
      ],
      "scale": [
        1,
        1,
        1
      ],
      "mesh": 0
    }
  ],
  "meshes": [
    {
      "name": "Relic_R5_R1Hive_Wiz",
      "primitives": [
        {
          "attributes": {
            "POSITION": 0,
            "NORMAL": 1,
            "TEXCOORD_0": 2,
            "TEXCOORD_1": 3
          },
          "indices": 4,
          "material": 0,
          "mode": 4
        }
      ]
    }
  ],
  "materials": [
    {
      "name": "MatSlots_WEAPONS",
      "pbrMetallicRoughness": {
        "baseColorFactor": [
          1,
          1,
          1,
          1
        ],
        "metallicFactor": 0,
        "roughnessFactor": 1
      },
      "doubleSided": true,
      "extras": {
        "diffuseTexture": null,
        "specularTexture": null,
        "normalMap": null
      }
    },
    {
      "name": "Outline",
      "pbrMetallicRoughness": {
        "baseColorFactor": [
          1,
          1,
          1,
          1
        ],
        "metallicFactor": 0,
        "roughnessFactor": 1
      },
      "doubleSided": true,
      "extras": {
        "diffuseTexture": null,
        "specularTexture": null,
        "normalMap": null
      }
    }
  ],
  "buffers": [
    {
      "uri": "Relic_R5_R1Hive_Wiz.bin",
      "byteLength": 123310
    }
  ],
  "bufferViews": [
    {
      "buffer": 0,
      "byteOffset": 0,
      "byteLength": 32772,
      "target": 34962
    },
    {
      "buffer": 0,
      "byteOffset": 32772,
      "byteLength": 32772,
      "target": 34962
    },
    {
      "buffer": 0,
      "byteOffset": 65544,
      "byteLength": 21848,
      "target": 34962
    },
    {
      "buffer": 0,
      "byteOffset": 87392,
      "byteLength": 21848,
      "target": 34962
    },
    {
      "buffer": 0,
      "byteOffset": 109240,
      "byteLength": 14070,
      "target": 34963
    }
  ],
  "accessors": [
    {
      "bufferView": 0,
      "componentType": 5126,
      "count": 2731,
      "type": "VEC3",
      "min": [
        -0.30986541509628296,
        -0.21760110557079315,
        -0.7500897645950317
      ],
      "max": [
        0.3394474387168884,
        0.22778932750225067,
        0.09145207703113556
      ]
    },
    {
      "bufferView": 1,
      "componentType": 5126,
      "count": 2731,
      "type": "VEC3",
      "min": [
        -0.9998000860214233,
        -0.999671220779419,
        -0.9999895095825195
      ],
      "max": [
        1,
        0.9998619556427002,
        0.9999040961265564
      ]
    },
    {
      "bufferView": 2,
      "componentType": 5126,
      "count": 2731,
      "type": "VEC2",
      "min": [
        0.010496914386749268,
        0.20807576179504395
      ],
      "max": [
        0.4609127640724182,
        0.9527550935745239
      ]
    },
    {
      "bufferView": 3,
      "componentType": 5126,
      "count": 2731,
      "type": "VEC2",
      "min": [
        0,
        0.20034372806549072
      ],
      "max": [
        0.9494947195053101,
        1
      ]
    },
    {
      "bufferView": 4,
      "componentType": 5123,
      "count": 7035,
      "type": "SCALAR",
      "min": [
        0
      ],
      "max": [
        2730
      ]
    }
  ],
  "extras": {
    "manifest": "Relic_R5_R1Hive_Wiz.materials.json"
  }
}