{
  "asset": {
    "version": "2.0",
    "generator": "prefab-to-gltf"
  },
  "scene": 0,
  "scenes": [
    {
      "name": "Relic_R3_R1Ruins_Cle",
      "nodes": [
        0
      ]
    }
  ],
  "nodes": [
    {
      "name": "Relic_Manfish",
      "translation": [
        0,
        0,
        0
      ],
      "rotation": [
        0,
        0,
        0,
        1
      ],
      "scale": [
        1,
        1,
        1
      ],
      "mesh": 0
    }
  ],
  "meshes": [
    {
      "name": "Relic_Manfish",
      "primitives": [
        {
          "attributes": {
            "POSITION": 0,
            "NORMAL": 1,
            "TEXCOORD_0": 2,
            "TEXCOORD_1": 3,
            "COLOR_0": 4
          },
          "indices": 5,
          "material": 0,
          "mode": 4
        }
      ]
    }
  ],
  "materials": [
    {
      "name": "MatSlots",
      "pbrMetallicRoughness": {
        "baseColorFactor": [
          1,
          1,
          1,
          1
        ],
        "metallicFactor": 0,
        "roughnessFactor": 1
      },
      "doubleSided": true,
      "extras": {
        "diffuseTexture": "Character/Common/Texture/CustomGradient_WeaponALL.png",
        "specularTexture": null,
        "normalMap": null
      }
    }
  ],
  "buffers": [
    {
      "uri": "Relic_R3_R1Ruins_Cle.bin",
      "byteLength": 172344
    }
  ],
  "bufferViews": [
    {
      "buffer": 0,
      "byteOffset": 0,
      "byteLength": 35244,
      "target": 34962
    },
    {
      "buffer": 0,
      "byteOffset": 35244,
      "byteLength": 35244,
      "target": 34962
    },
    {
      "buffer": 0,
      "byteOffset": 70488,
      "byteLength": 23496,
      "target": 34962
    },
    {
      "buffer": 0,
      "byteOffset": 93984,
      "byteLength": 23496,
      "target": 34962
    },
    {
      "buffer": 0,
      "byteOffset": 117480,
      "byteLength": 35244,
      "target": 34962
    },
    {
      "buffer": 0,
      "byteOffset": 152724,
      "byteLength": 19620,
      "target": 34963
    }
  ],
  "accessors": [
    {
      "bufferView": 0,
      "componentType": 5126,
      "count": 2937,
      "type": "VEC3",
      "min": [
        -0.3205392062664032,
        -1.2038486003875732,
        -0.1652221828699112
      ],
      "max": [
        0.3539796471595764,
        0.03593779355287552,
        0.20648205280303955
      ]
    },
    {
      "bufferView": 1,
      "componentType": 5126,
      "count": 2937,
      "type": "VEC3",
      "min": [
        -0.9977806210517883,
        -1,
        -0.9997166395187378
      ],
      "max": [
        0.9949991703033447,
        1,
        0.9996060132980347
      ]
    },
    {
      "bufferView": 2,
      "componentType": 5126,
      "count": 2937,
      "type": "VEC2",
      "min": [
        0.03381135314702988,
        0.05800294876098633
      ],
      "max": [
        0.5766167044639587,
        0.9898073077201843
      ]
    },
    {
      "bufferView": 3,
      "componentType": 5126,
      "count": 2937,
      "type": "VEC2",
      "min": [
        0,
        0.10284674167633057
      ],
      "max": [
        0.9448626637458801,
        1
      ]
    },
    {
      "bufferView": 4,
      "componentType": 5126,
      "count": 2202.75,
      "type": "VEC4",
      "min": [
        0,
        0,
        0,
        0
      ],
      "max": [
        1,
        1,
        1,
        1
      ]
    },
    {
      "bufferView": 5,
      "componentType": 5123,
      "count": 9810,
      "type": "SCALAR",
      "min": [
        0
      ],
      "max": [
        2936
      ]
    }
  ],
  "extras": {
    "manifest": "Relic_R3_R1Ruins_Cle.materials.json"
  }
}