{
  "asset": {
    "version": "2.0",
    "generator": "prefab-to-gltf"
  },
  "scene": 0,
  "scenes": [
    {
      "name": "Crawler_Honeypot_Bee",
      "nodes": [
        0
      ]
    }
  ],
  "nodes": [
    {
      "name": "HoneyPot_Bee",
      "translation": [
        0,
        0,
        0
      ],
      "rotation": [
        0,
        0,
        0,
        1
      ],
      "scale": [
        1,
        1,
        1
      ],
      "mesh": 0
    }
  ],
  "meshes": [
    {
      "name": "HoneyPot_Bee",
      "primitives": [
        {
          "attributes": {
            "POSITION": 0,
            "NORMAL": 1,
            "TEXCOORD_0": 2,
            "TEXCOORD_1": 3
          },
          "indices": 4,
          "material": 0,
          "mode": 4
        }
      ]
    }
  ],
  "materials": [
    {
      "name": "MatSlots",
      "pbrMetallicRoughness": {
        "baseColorFactor": [
          1,
          1,
          1,
          1
        ],
        "metallicFactor": 0,
        "roughnessFactor": 1
      },
      "doubleSided": true,
      "extras": {
        "diffuseTexture": "Character/Common/Texture/CustomGradient_WeaponALL.png",
        "specularTexture": null,
        "normalMap": null
      }
    }
  ],
  "buffers": [
    {
      "uri": "Crawler_Honeypot_Bee.bin",
      "byteLength": 248924
    }
  ],
  "bufferViews": [
    {
      "buffer": 0,
      "byteOffset": 0,
      "byteLength": 63420,
      "target": 34962
    },
    {
      "buffer": 0,
      "byteOffset": 63420,
      "byteLength": 63420,
      "target": 34962
    },
    {
      "buffer": 0,
      "byteOffset": 126840,
      "byteLength": 42280,
      "target": 34962
    },
    {
      "buffer": 0,
      "byteOffset": 169120,
      "byteLength": 42280,
      "target": 34962
    },
    {
      "buffer": 0,
      "byteOffset": 211400,
      "byteLength": 37524,
      "target": 34963
    }
  ],
  "accessors": [
    {
      "bufferView": 0,
      "componentType": 5126,
      "count": 5285,
      "type": "VEC3",
      "min": [
        -1.1119346618652344,
        -0.02619737945497036,
        -1.0068416595458984
      ],
      "max": [
        1.1119346618652344,
        1.9017395973205566,
        1.0726319551467896
      ]
    },
    {
      "bufferView": 1,
      "componentType": 5126,
      "count": 5285,
      "type": "VEC3",
      "min": [
        -0.9993833899497986,
        -0.9996846914291382,
        -0.997218668460846
      ],
      "max": [
        1,
        0.9999963045120239,
        0.999781608581543
      ]
    },
    {
      "bufferView": 2,
      "componentType": 5126,
      "count": 5285,
      "type": "VEC2",
      "min": [
        0,
        0.06541848182678223
      ],
      "max": [
        0.9284672141075134,
        1.0001362562179565
      ]
    },
    {
      "bufferView": 3,
      "componentType": 5126,
      "count": 5285,
      "type": "VEC2",
      "min": [
        0,
        0.08757615089416504
      ],
      "max": [
        0.946507453918457,
        1
      ]
    },
    {
      "bufferView": 4,
      "componentType": 5123,
      "count": 18762,
      "type": "SCALAR",
      "min": [
        0
      ],
      "max": [
        5284
      ]
    }
  ],
  "extras": {
    "manifest": "Crawler_Honeypot_Bee.materials.json"
  }
}