{
  "asset": {
    "version": "2.0",
    "generator": "prefab-to-gltf"
  },
  "scene": 0,
  "scenes": [
    {
      "name": "Crawler_Crab_Grey",
      "nodes": [
        0
      ]
    }
  ],
  "nodes": [
    {
      "name": "Shore_Crawler",
      "translation": [
        0,
        0,
        0
      ],
      "rotation": [
        0,
        0,
        0,
        1
      ],
      "scale": [
        1,
        1,
        1
      ],
      "mesh": 0
    }
  ],
  "meshes": [
    {
      "name": "Shore_Crawler",
      "primitives": [
        {
          "attributes": {
            "POSITION": 0,
            "NORMAL": 1,
            "TEXCOORD_0": 2,
            "TEXCOORD_1": 3
          },
          "indices": 4,
          "material": 0,
          "mode": 4
        }
      ]
    }
  ],
  "materials": [
    {
      "name": "MatSlots",
      "pbrMetallicRoughness": {
        "baseColorFactor": [
          1,
          1,
          1,
          1
        ],
        "metallicFactor": 0,
        "roughnessFactor": 1
      },
      "doubleSided": true,
      "extras": {
        "diffuseTexture": "Character/Common/Texture/CustomGradient_WeaponALL.png",
        "specularTexture": null,
        "normalMap": null
      }
    }
  ],
  "buffers": [
    {
      "uri": "Crawler_Crab_Grey.bin",
      "byteLength": 211154
    }
  ],
  "bufferViews": [
    {
      "buffer": 0,
      "byteOffset": 0,
      "byteLength": 54276,
      "target": 34962
    },
    {
      "buffer": 0,
      "byteOffset": 54276,
      "byteLength": 54276,
      "target": 34962
    },
    {
      "buffer": 0,
      "byteOffset": 108552,
      "byteLength": 36184,
      "target": 34962
    },
    {
      "buffer": 0,
      "byteOffset": 144736,
      "byteLength": 36184,
      "target": 34962
    },
    {
      "buffer": 0,
      "byteOffset": 180920,
      "byteLength": 30234,
      "target": 34963
    }
  ],
  "accessors": [
    {
      "bufferView": 0,
      "componentType": 5126,
      "count": 4523,
      "type": "VEC3",
      "min": [
        -1.1066291332244873,
        0.0015007138717919588,
        -1.0300493240356445
      ],
      "max": [
        1.1066293716430664,
        1.400444746017456,
        1.530257225036621
      ]
    },
    {
      "bufferView": 1,
      "componentType": 5126,
      "count": 4523,
      "type": "VEC3",
      "min": [
        -0.9993541240692139,
        -0.9992881417274475,
        -0.9965169429779053
      ],
      "max": [
        0.9993541836738586,
        0.9998644590377808,
        0.9992798566818237
      ]
    },
    {
      "bufferView": 2,
      "componentType": 5126,
      "count": 4523,
      "type": "VEC2",
      "min": [
        0.00993068516254425,
        0.15826302766799927
      ],
      "max": [
        0.3371524512767792,
        0.9553899168968201
      ]
    },
    {
      "bufferView": 3,
      "componentType": 5126,
      "count": 4523,
      "type": "VEC2",
      "min": [
        0,
        0.08757615089416504
      ],
      "max": [
        0.9996649026870728,
        1
      ]
    },
    {
      "bufferView": 4,
      "componentType": 5123,
      "count": 15117,
      "type": "SCALAR",
      "min": [
        0
      ],
      "max": [
        4522
      ]
    }
  ],
  "extras": {
    "manifest": "Crawler_Crab_Grey.materials.json"
  }
}