{
  "asset": {
    "version": "2.0",
    "generator": "prefab-to-gltf"
  },
  "scene": 0,
  "scenes": [
    {
      "name": "Crawler_Snapper_Blue",
      "nodes": [
        0
      ]
    }
  ],
  "nodes": [
    {
      "name": "Shore_Snapper",
      "translation": [
        0,
        0,
        0
      ],
      "rotation": [
        0,
        0,
        0,
        1
      ],
      "scale": [
        1,
        1,
        1
      ],
      "mesh": 0
    }
  ],
  "meshes": [
    {
      "name": "Shore_Snapper",
      "primitives": [
        {
          "attributes": {
            "POSITION": 0,
            "NORMAL": 1,
            "TEXCOORD_0": 2,
            "TEXCOORD_1": 3
          },
          "indices": 4,
          "material": 0,
          "mode": 4
        }
      ]
    }
  ],
  "materials": [
    {
      "name": "MatSlots",
      "pbrMetallicRoughness": {
        "baseColorFactor": [
          1,
          1,
          1,
          1
        ],
        "metallicFactor": 0,
        "roughnessFactor": 1
      },
      "doubleSided": true,
      "extras": {
        "diffuseTexture": "Character/Common/Texture/CustomGradient_WeaponALL.png",
        "specularTexture": null,
        "normalMap": null
      }
    }
  ],
  "buffers": [
    {
      "uri": "Crawler_Snapper_Blue.bin",
      "byteLength": 223082
    }
  ],
  "bufferViews": [
    {
      "buffer": 0,
      "byteOffset": 0,
      "byteLength": 57264,
      "target": 34962
    },
    {
      "buffer": 0,
      "byteOffset": 57264,
      "byteLength": 57264,
      "target": 34962
    },
    {
      "buffer": 0,
      "byteOffset": 114528,
      "byteLength": 38176,
      "target": 34962
    },
    {
      "buffer": 0,
      "byteOffset": 152704,
      "byteLength": 38176,
      "target": 34962
    },
    {
      "buffer": 0,
      "byteOffset": 190880,
      "byteLength": 32202,
      "target": 34963
    }
  ],
  "accessors": [
    {
      "bufferView": 0,
      "componentType": 5126,
      "count": 4772,
      "type": "VEC3",
      "min": [
        -1.1066291332244873,
        0.0015007138717919588,
        -1.0300493240356445
      ],
      "max": [
        1.1066293716430664,
        1.5455338954925537,
        1.530257225036621
      ]
    },
    {
      "bufferView": 1,
      "componentType": 5126,
      "count": 4772,
      "type": "VEC3",
      "min": [
        -0.9988616108894348,
        -0.9999626278877258,
        -0.9996876120567322
      ],
      "max": [
        0.9988620281219482,
        0.9994970560073853,
        0.9992650747299194
      ]
    },
    {
      "bufferView": 2,
      "componentType": 5126,
      "count": 4772,
      "type": "VEC2",
      "min": [
        0.021935641765594482,
        0.028329968452453613
      ],
      "max": [
        0.3502766191959381,
        0.9553899765014648
      ]
    },
    {
      "bufferView": 3,
      "componentType": 5126,
      "count": 4772,
      "type": "VEC2",
      "min": [
        0,
        0.08757615089416504
      ],
      "max": [
        0.9947504997253418,
        1
      ]
    },
    {
      "bufferView": 4,
      "componentType": 5123,
      "count": 16101,
      "type": "SCALAR",
      "min": [
        0
      ],
      "max": [
        4771
      ]
    }
  ],
  "extras": {
    "manifest": "Crawler_Snapper_Blue.materials.json"
  }
}