{
  "asset": {
    "version": "2.0",
    "generator": "prefab-to-gltf"
  },
  "scene": 0,
  "scenes": [
    {
      "name": "Fist_R8_R1Tomb_AssCle",
      "nodes": [
        0
      ]
    }
  ],
  "nodes": [
    {
      "name": "Fist_R8_R1Tomb_AssCle",
      "translation": [
        0,
        0,
        0
      ],
      "rotation": [
        0,
        0,
        1,
        0
      ],
      "scale": [
        1,
        1,
        1
      ],
      "mesh": 0
    }
  ],
  "meshes": [
    {
      "name": "Fist_R8_R1Tomb_AssCle",
      "primitives": [
        {
          "attributes": {
            "POSITION": 0,
            "NORMAL": 1,
            "TEXCOORD_0": 2,
            "TEXCOORD_1": 3,
            "COLOR_0": 4
          },
          "indices": 5,
          "material": 0,
          "mode": 4
        }
      ]
    }
  ],
  "materials": [
    {
      "name": "Gradmat",
      "pbrMetallicRoughness": {
        "baseColorFactor": [
          1,
          1,
          1,
          1
        ],
        "metallicFactor": 0,
        "roughnessFactor": 1
      },
      "doubleSided": true,
      "extras": {
        "diffuseTexture": null,
        "specularTexture": null,
        "normalMap": null
      }
    },
    {
      "name": "Outline",
      "pbrMetallicRoughness": {
        "baseColorFactor": [
          1,
          1,
          1,
          1
        ],
        "metallicFactor": 0,
        "roughnessFactor": 1
      },
      "doubleSided": true,
      "extras": {
        "diffuseTexture": null,
        "specularTexture": null,
        "normalMap": null
      }
    }
  ],
  "buffers": [
    {
      "uri": "Fist_R8_R1Tomb_AssCle.bin",
      "byteLength": 222418
    }
  ],
  "bufferViews": [
    {
      "buffer": 0,
      "byteOffset": 0,
      "byteLength": 46812,
      "target": 34962
    },
    {
      "buffer": 0,
      "byteOffset": 46812,
      "byteLength": 46812,
      "target": 34962
    },
    {
      "buffer": 0,
      "byteOffset": 93624,
      "byteLength": 31208,
      "target": 34962
    },
    {
      "buffer": 0,
      "byteOffset": 124832,
      "byteLength": 31208,
      "target": 34962
    },
    {
      "buffer": 0,
      "byteOffset": 156040,
      "byteLength": 46812,
      "target": 34962
    },
    {
      "buffer": 0,
      "byteOffset": 202852,
      "byteLength": 19566,
      "target": 34963
    }
  ],
  "accessors": [
    {
      "bufferView": 0,
      "componentType": 5126,
      "count": 3901,
      "type": "VEC3",
      "min": [
        -0.31063058972358704,
        -0.2559087872505188,
        -0.47414711117744446
      ],
      "max": [
        0.23262441158294678,
        0.24739690124988556,
        0.17047826945781708
      ]
    },
    {
      "bufferView": 1,
      "componentType": 5126,
      "count": 3901,
      "type": "VEC3",
      "min": [
        -0.9993696808815002,
        -0.9998870491981506,
        -0.9999421834945679
      ],
      "max": [
        0.999342679977417,
        0.999926745891571,
        0.9999988079071045
      ]
    },
    {
      "bufferView": 2,
      "componentType": 5126,
      "count": 3901,
      "type": "VEC2",
      "min": [
        0.02507263422012329,
        0.16413098573684692
      ],
      "max": [
        0.6144077181816101,
        0.9790403842926025
      ]
    },
    {
      "bufferView": 3,
      "componentType": 5126,
      "count": 3901,
      "type": "VEC2",
      "min": [
        0.05649007111787796,
        0.12428438663482666
      ],
      "max": [
        0.9502394199371338,
        0.9333069324493408
      ]
    },
    {
      "bufferView": 4,
      "componentType": 5126,
      "count": 2925.75,
      "type": "VEC4",
      "min": [
        0,
        0,
        0,
        0
      ],
      "max": [
        1,
        1,
        1,
        1
      ]
    },
    {
      "bufferView": 5,
      "componentType": 5123,
      "count": 9783,
      "type": "SCALAR",
      "min": [
        0
      ],
      "max": [
        3900
      ]
    }
  ],
  "extras": {
    "manifest": "Fist_R8_R1Tomb_AssCle.materials.json"
  }
}