{
  "asset": {
    "version": "2.0",
    "generator": "prefab-to-gltf"
  },
  "scene": 0,
  "scenes": [
    {
      "name": "Chest_ShortSleeves_Peasant_Light",
      "nodes": [
        0
      ]
    }
  ],
  "nodes": [
    {
      "name": "Chest_Peasant_Light_N",
      "translation": [
        0,
        0,
        0
      ],
      "rotation": [
        0,
        0,
        0,
        1
      ],
      "scale": [
        1,
        1,
        1
      ],
      "mesh": 0
    }
  ],
  "meshes": [
    {
      "name": "Chest_Peasant_Light_N",
      "primitives": [
        {
          "attributes": {
            "POSITION": 0,
            "NORMAL": 1,
            "TEXCOORD_0": 2,
            "TEXCOORD_1": 3,
            "COLOR_0": 4
          },
          "indices": 5,
          "material": 0,
          "mode": 4
        }
      ]
    }
  ],
  "materials": [
    {
      "name": "GradMat_Body",
      "pbrMetallicRoughness": {
        "baseColorFactor": [
          1,
          1,
          1,
          1
        ],
        "metallicFactor": 0,
        "roughnessFactor": 1
      },
      "doubleSided": true,
      "extras": {
        "diffuseTexture": "Character/Common/Texture/CustomGradient_RobinHoof.png",
        "specularTexture": null,
        "normalMap": null
      }
    }
  ],
  "buffers": [
    {
      "uri": "Chest_ShortSleeves_Peasant_Light.bin",
      "byteLength": 124392
    }
  ],
  "bufferViews": [
    {
      "buffer": 0,
      "byteOffset": 0,
      "byteLength": 25344,
      "target": 34962
    },
    {
      "buffer": 0,
      "byteOffset": 25344,
      "byteLength": 25344,
      "target": 34962
    },
    {
      "buffer": 0,
      "byteOffset": 50688,
      "byteLength": 16896,
      "target": 34962
    },
    {
      "buffer": 0,
      "byteOffset": 67584,
      "byteLength": 16896,
      "target": 34962
    },
    {
      "buffer": 0,
      "byteOffset": 84480,
      "byteLength": 25344,
      "target": 34962
    },
    {
      "buffer": 0,
      "byteOffset": 109824,
      "byteLength": 14568,
      "target": 34963
    }
  ],
  "accessors": [
    {
      "bufferView": 0,
      "componentType": 5126,
      "count": 2112,
      "type": "VEC3",
      "min": [
        -0.6669847965240479,
        0.9402591586112976,
        -0.15377798676490784
      ],
      "max": [
        0.6669847965240479,
        1.9331178665161133,
        0.3012602925300598
      ]
    },
    {
      "bufferView": 1,
      "componentType": 5126,
      "count": 2112,
      "type": "VEC3",
      "min": [
        -0.9969918131828308,
        -0.8803761601448059,
        -0.9994374513626099
      ],
      "max": [
        0.9969933032989502,
        0.9999248385429382,
        0.9998027086257935
      ]
    },
    {
      "bufferView": 2,
      "componentType": 5126,
      "count": 2112,
      "type": "VEC2",
      "min": [
        0.02681267075240612,
        0.10037237405776978
      ],
      "max": [
        0.46190744638442993,
        0.825620710849762
      ]
    },
    {
      "bufferView": 3,
      "componentType": 5126,
      "count": 2112,
      "type": "VEC2",
      "min": [
        0.05644148588180542,
        0.10475623607635498
      ],
      "max": [
        0.9985733032226562,
        0.9698551893234253
      ]
    },
    {
      "bufferView": 4,
      "componentType": 5126,
      "count": 1584,
      "type": "VEC4",
      "min": [
        0,
        0,
        0,
        0
      ],
      "max": [
        1,
        1,
        1,
        1
      ]
    },
    {
      "bufferView": 5,
      "componentType": 5123,
      "count": 7284,
      "type": "SCALAR",
      "min": [
        0
      ],
      "max": [
        2111
      ]
    }
  ],
  "extras": {
    "manifest": "Chest_ShortSleeves_Peasant_Light.materials.json"
  }
}