{
  "asset": {
    "version": "2.0",
    "generator": "prefab-to-gltf"
  },
  "scene": 0,
  "scenes": [
    {
      "name": "Head_Open_Peasant_Light",
      "nodes": [
        0
      ]
    }
  ],
  "nodes": [
    {
      "name": "Head_Peasant_Light_A",
      "translation": [
        0,
        0,
        0
      ],
      "rotation": [
        0,
        0,
        0,
        1
      ],
      "scale": [
        1,
        1,
        1
      ],
      "mesh": 0
    }
  ],
  "meshes": [
    {
      "name": "Head_Peasant_Light_A",
      "primitives": [
        {
          "attributes": {
            "POSITION": 0,
            "NORMAL": 1,
            "TEXCOORD_0": 2,
            "TEXCOORD_1": 3,
            "COLOR_0": 4
          },
          "indices": 5,
          "material": 0,
          "mode": 4
        }
      ]
    }
  ],
  "materials": [
    {
      "name": "GradMat_Body",
      "pbrMetallicRoughness": {
        "baseColorFactor": [
          1,
          1,
          1,
          1
        ],
        "metallicFactor": 0,
        "roughnessFactor": 1
      },
      "doubleSided": true,
      "extras": {
        "diffuseTexture": "Character/Common/Texture/CustomGradient_RobinHoof.png",
        "specularTexture": null,
        "normalMap": null
      }
    }
  ],
  "buffers": [
    {
      "uri": "Head_Open_Peasant_Light.bin",
      "byteLength": 33164
    }
  ],
  "bufferViews": [
    {
      "buffer": 0,
      "byteOffset": 0,
      "byteLength": 6900,
      "target": 34962
    },
    {
      "buffer": 0,
      "byteOffset": 6900,
      "byteLength": 6900,
      "target": 34962
    },
    {
      "buffer": 0,
      "byteOffset": 13800,
      "byteLength": 4600,
      "target": 34962
    },
    {
      "buffer": 0,
      "byteOffset": 18400,
      "byteLength": 4600,
      "target": 34962
    },
    {
      "buffer": 0,
      "byteOffset": 23000,
      "byteLength": 6900,
      "target": 34962
    },
    {
      "buffer": 0,
      "byteOffset": 29900,
      "byteLength": 3264,
      "target": 34963
    }
  ],
  "accessors": [
    {
      "bufferView": 0,
      "componentType": 5126,
      "count": 575,
      "type": "VEC3",
      "min": [
        -0.2749026417732239,
        1.8916842937469482,
        -0.1418091356754303
      ],
      "max": [
        0.2828458845615387,
        2.2262778282165527,
        0.3889825940132141
      ]
    },
    {
      "bufferView": 1,
      "componentType": 5126,
      "count": 575,
      "type": "VEC3",
      "min": [
        -0.975075364112854,
        -0.9707506895065308,
        -0.9974320530891418
      ],
      "max": [
        0.9776014685630798,
        0.9993720650672913,
        0.9838640093803406
      ]
    },
    {
      "bufferView": 2,
      "componentType": 5126,
      "count": 575,
      "type": "VEC2",
      "min": [
        0.16543656587600708,
        0.3307728171348572
      ],
      "max": [
        0.33699315786361694,
        0.8765217661857605
      ]
    },
    {
      "bufferView": 3,
      "componentType": 5126,
      "count": 575,
      "type": "VEC2",
      "min": [
        0.06566447764635086,
        0.10297143459320068
      ],
      "max": [
        0.9519848227500916,
        0.941277801990509
      ]
    },
    {
      "bufferView": 4,
      "componentType": 5126,
      "count": 431.25,
      "type": "VEC4",
      "min": [
        0,
        0,
        0,
        0
      ],
      "max": [
        0.9999715685844421,
        0.9999715685844421,
        0.9999715685844421,
        0.9999715685844421
      ]
    },
    {
      "bufferView": 5,
      "componentType": 5123,
      "count": 1632,
      "type": "SCALAR",
      "min": [
        0
      ],
      "max": [
        574
      ]
    }
  ],
  "extras": {
    "manifest": "Head_Open_Peasant_Light.materials.json"
  }
}