{
  "asset": {
    "version": "2.0",
    "generator": "prefab-to-gltf"
  },
  "scene": 0,
  "scenes": [
    {
      "name": "Legs_Whole_Peasant_Light",
      "nodes": [
        0
      ]
    }
  ],
  "nodes": [
    {
      "name": "Legs_Peasant_Light_N",
      "translation": [
        0,
        0,
        0
      ],
      "rotation": [
        0,
        0,
        0,
        1
      ],
      "scale": [
        1,
        1,
        1
      ],
      "mesh": 0
    }
  ],
  "meshes": [
    {
      "name": "Legs_Peasant_Light_N",
      "primitives": [
        {
          "attributes": {
            "POSITION": 0,
            "NORMAL": 1,
            "TEXCOORD_0": 2,
            "TEXCOORD_1": 3,
            "COLOR_0": 4
          },
          "indices": 5,
          "material": 0,
          "mode": 4
        }
      ]
    }
  ],
  "materials": [
    {
      "name": "GradMat_Body",
      "pbrMetallicRoughness": {
        "baseColorFactor": [
          1,
          1,
          1,
          1
        ],
        "metallicFactor": 0,
        "roughnessFactor": 1
      },
      "doubleSided": true,
      "extras": {
        "diffuseTexture": "Character/Common/Texture/CustomGradient_RobinHoof.png",
        "specularTexture": null,
        "normalMap": null
      }
    }
  ],
  "buffers": [
    {
      "uri": "Legs_Whole_Peasant_Light.bin",
      "byteLength": 109560
    }
  ],
  "bufferViews": [
    {
      "buffer": 0,
      "byteOffset": 0,
      "byteLength": 22680,
      "target": 34962
    },
    {
      "buffer": 0,
      "byteOffset": 22680,
      "byteLength": 22680,
      "target": 34962
    },
    {
      "buffer": 0,
      "byteOffset": 45360,
      "byteLength": 15120,
      "target": 34962
    },
    {
      "buffer": 0,
      "byteOffset": 60480,
      "byteLength": 15120,
      "target": 34962
    },
    {
      "buffer": 0,
      "byteOffset": 75600,
      "byteLength": 22680,
      "target": 34962
    },
    {
      "buffer": 0,
      "byteOffset": 98280,
      "byteLength": 11280,
      "target": 34963
    }
  ],
  "accessors": [
    {
      "bufferView": 0,
      "componentType": 5126,
      "count": 1890,
      "type": "VEC3",
      "min": [
        -0.3851529657840729,
        0.0851835235953331,
        -0.1069963276386261
      ],
      "max": [
        0.3851529657840729,
        1.2771111726760864,
        0.228683203458786
      ]
    },
    {
      "bufferView": 1,
      "componentType": 5126,
      "count": 1890,
      "type": "VEC3",
      "min": [
        -0.9995256662368774,
        -0.9999306201934814,
        -0.9994633793830872
      ],
      "max": [
        0.9995256662368774,
        0.973338782787323,
        0.9999929666519165
      ]
    },
    {
      "bufferView": 2,
      "componentType": 5126,
      "count": 1890,
      "type": "VEC2",
      "min": [
        0.03967464715242386,
        0.23391962051391602
      ],
      "max": [
        0.7128227353096008,
        0.7737945914268494
      ]
    },
    {
      "bufferView": 3,
      "componentType": 5126,
      "count": 1890,
      "type": "VEC2",
      "min": [
        0.06838807463645935,
        0.09719514846801758
      ],
      "max": [
        0.9633388519287109,
        0.9334850311279297
      ]
    },
    {
      "bufferView": 4,
      "componentType": 5126,
      "count": 1417.5,
      "type": "VEC4",
      "min": [
        0,
        0,
        0,
        0
      ],
      "max": [
        0.9999715685844421,
        0.9999715685844421,
        0.9999715685844421,
        0.9999715685844421
      ]
    },
    {
      "bufferView": 5,
      "componentType": 5123,
      "count": 5640,
      "type": "SCALAR",
      "min": [
        0
      ],
      "max": [
        1889
      ]
    }
  ],
  "extras": {
    "manifest": "Legs_Whole_Peasant_Light.materials.json"
  }
}