{
  "asset": {
    "version": "2.0",
    "generator": "prefab-to-gltf"
  },
  "scene": 0,
  "scenes": [
    {
      "name": "Waist_Medium_Peasant_Light",
      "nodes": [
        0
      ]
    }
  ],
  "nodes": [
    {
      "name": "Waist_Peasant_Light_N",
      "translation": [
        0,
        0,
        0
      ],
      "rotation": [
        0,
        0,
        0,
        1
      ],
      "scale": [
        1,
        1,
        1
      ],
      "mesh": 0
    }
  ],
  "meshes": [
    {
      "name": "Waist_Peasant_Light_N",
      "primitives": [
        {
          "attributes": {
            "POSITION": 0,
            "NORMAL": 1,
            "TEXCOORD_0": 2,
            "TEXCOORD_1": 3,
            "COLOR_0": 4
          },
          "indices": 5,
          "material": 0,
          "mode": 4
        }
      ]
    }
  ],
  "materials": [
    {
      "name": "GradMat_Body",
      "pbrMetallicRoughness": {
        "baseColorFactor": [
          1,
          1,
          1,
          1
        ],
        "metallicFactor": 0,
        "roughnessFactor": 1
      },
      "doubleSided": true,
      "extras": {
        "diffuseTexture": "Character/Common/Texture/CustomGradient_RobinHoof.png",
        "specularTexture": null,
        "normalMap": null
      }
    }
  ],
  "buffers": [
    {
      "uri": "Waist_Medium_Peasant_Light.bin",
      "byteLength": 60136
    }
  ],
  "bufferViews": [
    {
      "buffer": 0,
      "byteOffset": 0,
      "byteLength": 12252,
      "target": 34962
    },
    {
      "buffer": 0,
      "byteOffset": 12252,
      "byteLength": 12252,
      "target": 34962
    },
    {
      "buffer": 0,
      "byteOffset": 24504,
      "byteLength": 8168,
      "target": 34962
    },
    {
      "buffer": 0,
      "byteOffset": 32672,
      "byteLength": 8168,
      "target": 34962
    },
    {
      "buffer": 0,
      "byteOffset": 40840,
      "byteLength": 12252,
      "target": 34962
    },
    {
      "buffer": 0,
      "byteOffset": 53092,
      "byteLength": 7044,
      "target": 34963
    }
  ],
  "accessors": [
    {
      "bufferView": 0,
      "componentType": 5126,
      "count": 1021,
      "type": "VEC3",
      "min": [
        -0.22042149305343628,
        1.103397250175476,
        -0.2175341248512268
      ],
      "max": [
        0.22042149305343628,
        1.3462218046188354,
        0.2707574963569641
      ]
    },
    {
      "bufferView": 1,
      "componentType": 5126,
      "count": 1021,
      "type": "VEC3",
      "min": [
        -0.9872903823852539,
        -0.996306836605072,
        -0.9959775805473328
      ],
      "max": [
        0.9872903227806091,
        0.9969930052757263,
        0.9951125383377075
      ]
    },
    {
      "bufferView": 2,
      "componentType": 5126,
      "count": 1021,
      "type": "VEC2",
      "min": [
        0.17193599045276642,
        0.23675388097763062
      ],
      "max": [
        0.5913910269737244,
        0.8798234462738037
      ]
    },
    {
      "bufferView": 3,
      "componentType": 5126,
      "count": 1021,
      "type": "VEC2",
      "min": [
        0.04618671536445618,
        0.11129504442214966
      ],
      "max": [
        0.9423171281814575,
        0.9655112028121948
      ]
    },
    {
      "bufferView": 4,
      "componentType": 5126,
      "count": 765.75,
      "type": "VEC4",
      "min": [
        0,
        0,
        0,
        0
      ],
      "max": [
        0.9999715685844421,
        0.9999715685844421,
        0.9999715685844421,
        0.9999715685844421
      ]
    },
    {
      "bufferView": 5,
      "componentType": 5123,
      "count": 3522,
      "type": "SCALAR",
      "min": [
        0
      ],
      "max": [
        1020
      ]
    }
  ],
  "extras": {
    "manifest": "Waist_Medium_Peasant_Light.materials.json"
  }
}