{
  "asset": {
    "version": "2.0",
    "generator": "prefab-to-gltf"
  },
  "scene": 0,
  "scenes": [
    {
      "name": "Human_Monk",
      "nodes": [
        0
      ]
    }
  ],
  "nodes": [
    {
      "name": "Human_Monk",
      "translation": [
        0,
        0,
        0
      ],
      "rotation": [
        0,
        0,
        0,
        1
      ],
      "scale": [
        1,
        1,
        1
      ],
      "mesh": 0
    }
  ],
  "meshes": [
    {
      "name": "Human_Monk",
      "primitives": [
        {
          "attributes": {
            "POSITION": 0,
            "NORMAL": 1,
            "TEXCOORD_0": 2,
            "TEXCOORD_1": 3,
            "COLOR_0": 4
          },
          "indices": 5,
          "material": 0,
          "mode": 4
        }
      ]
    }
  ],
  "materials": [
    {
      "name": "Gradmat_Weapon",
      "pbrMetallicRoughness": {
        "baseColorFactor": [
          1,
          1,
          1,
          1
        ],
        "metallicFactor": 0,
        "roughnessFactor": 1
      },
      "doubleSided": true,
      "extras": {
        "diffuseTexture": "Character/Common/Texture/CustomGradient_WeaponALL.png",
        "specularTexture": null,
        "normalMap": null
      }
    }
  ],
  "buffers": [
    {
      "uri": "Human_Monk.bin",
      "byteLength": 722266
    }
  ],
  "bufferViews": [
    {
      "buffer": 0,
      "byteOffset": 0,
      "byteLength": 148116,
      "target": 34962
    },
    {
      "buffer": 0,
      "byteOffset": 148116,
      "byteLength": 148116,
      "target": 34962
    },
    {
      "buffer": 0,
      "byteOffset": 296232,
      "byteLength": 98744,
      "target": 34962
    },
    {
      "buffer": 0,
      "byteOffset": 394976,
      "byteLength": 98744,
      "target": 34962
    },
    {
      "buffer": 0,
      "byteOffset": 493720,
      "byteLength": 148116,
      "target": 34962
    },
    {
      "buffer": 0,
      "byteOffset": 641836,
      "byteLength": 80430,
      "target": 34963
    }
  ],
  "accessors": [
    {
      "bufferView": 0,
      "componentType": 5126,
      "count": 12343,
      "type": "VEC3",
      "min": [
        -0.8123600482940674,
        0.009590056724846363,
        -0.279243141412735
      ],
      "max": [
        0.8123598694801331,
        2.249412775039673,
        0.3855360746383667
      ]
    },
    {
      "bufferView": 1,
      "componentType": 5126,
      "count": 12343,
      "type": "VEC3",
      "min": [
        -0.999815046787262,
        -1,
        -0.9997637271881104
      ],
      "max": [
        0.9999203681945801,
        0.9998174905776978,
        0.999926745891571
      ]
    },
    {
      "bufferView": 2,
      "componentType": 5126,
      "count": 12343,
      "type": "VEC2",
      "min": [
        0.018141616135835648,
        0.05245649814605713
      ],
      "max": [
        0.8584027290344238,
        1.017319679260254
      ]
    },
    {
      "bufferView": 3,
      "componentType": 5126,
      "count": 12343,
      "type": "VEC2",
      "min": [
        -0.028294982388615608,
        0.014132976531982422
      ],
      "max": [
        0.9915549755096436,
        1.0061570405960083
      ]
    },
    {
      "bufferView": 4,
      "componentType": 5126,
      "count": 9257.25,
      "type": "VEC4",
      "min": [
        0.3607843220233917,
        0.3607843220233917,
        0.3607843220233917,
        0.3607843220233917
      ],
      "max": [
        1,
        1,
        1,
        1
      ]
    },
    {
      "bufferView": 5,
      "componentType": 5123,
      "count": 40215,
      "type": "SCALAR",
      "min": [
        0
      ],
      "max": [
        12342
      ]
    }
  ],
  "extras": {
    "manifest": "Human_Monk.materials.json"
  }
}