{
  "asset": {
    "version": "2.0",
    "generator": "prefab-to-gltf"
  },
  "scene": 0,
  "scenes": [
    {
      "name": "Back_Long_XKobold_02_Medium",
      "nodes": [
        0
      ]
    }
  ],
  "nodes": [
    {
      "name": "Back_Z1RKobold_Medium_N",
      "translation": [
        0,
        0,
        0
      ],
      "rotation": [
        0,
        0,
        0,
        1
      ],
      "scale": [
        1,
        1,
        1
      ],
      "mesh": 0
    }
  ],
  "meshes": [
    {
      "name": "Back_Z1RKobold_Medium_N",
      "primitives": [
        {
          "attributes": {
            "POSITION": 0,
            "NORMAL": 1,
            "TEXCOORD_0": 2,
            "TEXCOORD_1": 3,
            "COLOR_0": 4
          },
          "indices": 5,
          "material": 0,
          "mode": 4
        }
      ]
    }
  ],
  "materials": [
    {
      "name": "GradMat_Body",
      "pbrMetallicRoughness": {
        "baseColorFactor": [
          1,
          1,
          1,
          1
        ],
        "metallicFactor": 0,
        "roughnessFactor": 1
      },
      "doubleSided": true,
      "extras": {
        "diffuseTexture": "Character/Common/Texture/CustomGradient_Hero_Clothes.png",
        "specularTexture": null,
        "normalMap": null
      }
    }
  ],
  "buffers": [
    {
      "uri": "Back_Long_XKobold_02_Medium.bin",
      "byteLength": 157110
    }
  ],
  "bufferViews": [
    {
      "buffer": 0,
      "byteOffset": 0,
      "byteLength": 33084,
      "target": 34962
    },
    {
      "buffer": 0,
      "byteOffset": 33084,
      "byteLength": 33084,
      "target": 34962
    },
    {
      "buffer": 0,
      "byteOffset": 66168,
      "byteLength": 22056,
      "target": 34962
    },
    {
      "buffer": 0,
      "byteOffset": 88224,
      "byteLength": 22056,
      "target": 34962
    },
    {
      "buffer": 0,
      "byteOffset": 110280,
      "byteLength": 33084,
      "target": 34962
    },
    {
      "buffer": 0,
      "byteOffset": 143364,
      "byteLength": 13746,
      "target": 34963
    }
  ],
  "accessors": [
    {
      "bufferView": 0,
      "componentType": 5126,
      "count": 2757,
      "type": "VEC3",
      "min": [
        -0.452392578125,
        0.462890625,
        -0.267333984375
      ],
      "max": [
        0.45263671875,
        1.802734375,
        0.1546630859375
      ]
    },
    {
      "bufferView": 1,
      "componentType": 5126,
      "count": 2757,
      "type": "VEC3",
      "min": [
        -0.4980392156862745,
        -0.47843137254901963,
        -0.5019607843137255
      ],
      "max": [
        1,
        1,
        1
      ]
    },
    {
      "bufferView": 2,
      "componentType": 5126,
      "count": 2757,
      "type": "VEC2",
      "min": [
        0.1478271484375,
        0.12017822265625
      ],
      "max": [
        0.986328125,
        0.92529296875
      ]
    },
    {
      "bufferView": 3,
      "componentType": 5126,
      "count": 2757,
      "type": "VEC2",
      "min": [
        0.05303955078125,
        0.11260986328125
      ],
      "max": [
        0.99951171875,
        0.958984375
      ]
    },
    {
      "bufferView": 4,
      "componentType": 5126,
      "count": 2067.75,
      "type": "VEC4",
      "min": [
        0,
        0,
        0,
        0
      ],
      "max": [
        0.9999715685844421,
        0.9999715685844421,
        0.9999715685844421,
        0.9999715685844421
      ]
    },
    {
      "bufferView": 5,
      "componentType": 5123,
      "count": 6873,
      "type": "SCALAR",
      "min": [
        0
      ],
      "max": [
        2756
      ]
    }
  ],
  "extras": {
    "manifest": "Back_Long_XKobold_02_Medium.materials.json"
  }
}