{
  "asset": {
    "version": "2.0",
    "generator": "prefab-to-gltf"
  },
  "scene": 0,
  "scenes": [
    {
      "name": "Back_Medium_XKobold_02_Heavy",
      "nodes": [
        0
      ]
    }
  ],
  "nodes": [
    {
      "name": "Back_Z1RKobold_Heavy_N",
      "translation": [
        0,
        0,
        0
      ],
      "rotation": [
        0,
        0,
        0,
        1
      ],
      "scale": [
        1,
        1,
        1
      ],
      "mesh": 0
    }
  ],
  "meshes": [
    {
      "name": "Back_Z1RKobold_Heavy_N",
      "primitives": [
        {
          "attributes": {
            "POSITION": 0,
            "NORMAL": 1,
            "TEXCOORD_0": 2,
            "TEXCOORD_1": 3,
            "COLOR_0": 4
          },
          "indices": 5,
          "material": 0,
          "mode": 4
        }
      ]
    }
  ],
  "materials": [
    {
      "name": "GradMat_Body",
      "pbrMetallicRoughness": {
        "baseColorFactor": [
          1,
          1,
          1,
          1
        ],
        "metallicFactor": 0,
        "roughnessFactor": 1
      },
      "doubleSided": true,
      "extras": {
        "diffuseTexture": "Character/Common/Texture/CustomGradient_Hero_Clothes.png",
        "specularTexture": null,
        "normalMap": null
      }
    }
  ],
  "buffers": [
    {
      "uri": "Back_Medium_XKobold_02_Heavy.bin",
      "byteLength": 142142
    }
  ],
  "bufferViews": [
    {
      "buffer": 0,
      "byteOffset": 0,
      "byteLength": 30012,
      "target": 34962
    },
    {
      "buffer": 0,
      "byteOffset": 30012,
      "byteLength": 30012,
      "target": 34962
    },
    {
      "buffer": 0,
      "byteOffset": 60024,
      "byteLength": 20008,
      "target": 34962
    },
    {
      "buffer": 0,
      "byteOffset": 80032,
      "byteLength": 20008,
      "target": 34962
    },
    {
      "buffer": 0,
      "byteOffset": 100040,
      "byteLength": 30012,
      "target": 34962
    },
    {
      "buffer": 0,
      "byteOffset": 130052,
      "byteLength": 12090,
      "target": 34963
    }
  ],
  "accessors": [
    {
      "bufferView": 0,
      "componentType": 5126,
      "count": 2501,
      "type": "VEC3",
      "min": [
        -0.444091796875,
        0.61865234375,
        -0.267578125
      ],
      "max": [
        0.4482421875,
        1.8134765625,
        0.1561279296875
      ]
    },
    {
      "bufferView": 1,
      "componentType": 5126,
      "count": 2501,
      "type": "VEC3",
      "min": [
        -0.5019607843137255,
        -0.5019607843137255,
        -0.5019607843137255
      ],
      "max": [
        1,
        1,
        1
      ]
    },
    {
      "bufferView": 2,
      "componentType": 5126,
      "count": 2501,
      "type": "VEC2",
      "min": [
        0.1455078125,
        0.359619140625
      ],
      "max": [
        0.84912109375,
        0.9248046875
      ]
    },
    {
      "bufferView": 3,
      "componentType": 5126,
      "count": 2501,
      "type": "VEC2",
      "min": [
        0.05633544921875,
        0.0179290771484375
      ],
      "max": [
        0.91845703125,
        0.94970703125
      ]
    },
    {
      "bufferView": 4,
      "componentType": 5126,
      "count": 1875.75,
      "type": "VEC4",
      "min": [
        0,
        0,
        0,
        0
      ],
      "max": [
        1,
        1,
        1,
        1
      ]
    },
    {
      "bufferView": 5,
      "componentType": 5123,
      "count": 6045,
      "type": "SCALAR",
      "min": [
        0
      ],
      "max": [
        2500
      ]
    }
  ],
  "extras": {
    "manifest": "Back_Medium_XKobold_02_Heavy.materials.json"
  }
}