{
  "asset": {
    "version": "2.0",
    "generator": "prefab-to-gltf"
  },
  "scene": 0,
  "scenes": [
    {
      "name": "Feet_High_XKobold_02_Medium",
      "nodes": [
        0
      ]
    }
  ],
  "nodes": [
    {
      "name": "Feet_Z1RKobold_Medium_N",
      "translation": [
        0,
        0,
        0
      ],
      "rotation": [
        0,
        0,
        0,
        1
      ],
      "scale": [
        1,
        1,
        1
      ],
      "mesh": 0
    }
  ],
  "meshes": [
    {
      "name": "Feet_Z1RKobold_Medium_N",
      "primitives": [
        {
          "attributes": {
            "POSITION": 0,
            "NORMAL": 1,
            "TEXCOORD_0": 2,
            "TEXCOORD_1": 3
          },
          "indices": 4,
          "material": 0,
          "mode": 4
        }
      ]
    }
  ],
  "materials": [
    {
      "name": "GradMat_Body",
      "pbrMetallicRoughness": {
        "baseColorFactor": [
          1,
          1,
          1,
          1
        ],
        "metallicFactor": 0,
        "roughnessFactor": 1
      },
      "doubleSided": true,
      "extras": {
        "diffuseTexture": "Character/Common/Texture/CustomGradient_BasicGuy.png",
        "specularTexture": null,
        "normalMap": null
      }
    }
  ],
  "buffers": [
    {
      "uri": "Feet_High_XKobold_02_Medium.bin",
      "byteLength": 180384
    }
  ],
  "bufferViews": [
    {
      "buffer": 0,
      "byteOffset": 0,
      "byteLength": 48456,
      "target": 34962
    },
    {
      "buffer": 0,
      "byteOffset": 48456,
      "byteLength": 48456,
      "target": 34962
    },
    {
      "buffer": 0,
      "byteOffset": 96912,
      "byteLength": 32304,
      "target": 34962
    },
    {
      "buffer": 0,
      "byteOffset": 129216,
      "byteLength": 32304,
      "target": 34962
    },
    {
      "buffer": 0,
      "byteOffset": 161520,
      "byteLength": 18864,
      "target": 34963
    }
  ],
  "accessors": [
    {
      "bufferView": 0,
      "componentType": 5126,
      "count": 4038,
      "type": "VEC3",
      "min": [
        -0.416259765625,
        -0.00791168212890625,
        -0.11181640625
      ],
      "max": [
        0.416259765625,
        0.5205078125,
        0.32373046875
      ]
    },
    {
      "bufferView": 1,
      "componentType": 5126,
      "count": 4038,
      "type": "VEC3",
      "min": [
        -0.5019607843137255,
        -0.5019607843137255,
        -0.5019607843137255
      ],
      "max": [
        1,
        1,
        1
      ]
    },
    {
      "bufferView": 2,
      "componentType": 5126,
      "count": 4038,
      "type": "VEC2",
      "min": [
        0.273193359375,
        0.2734375
      ],
      "max": [
        0.849609375,
        0.90087890625
      ]
    },
    {
      "bufferView": 3,
      "componentType": 5126,
      "count": 4038,
      "type": "VEC2",
      "min": [
        0.042572021484375,
        0.10821533203125
      ],
      "max": [
        0.9501953125,
        0.9638671875
      ]
    },
    {
      "bufferView": 4,
      "componentType": 5123,
      "count": 9432,
      "type": "SCALAR",
      "min": [
        0
      ],
      "max": [
        4037
      ]
    }
  ],
  "extras": {
    "manifest": "Feet_High_XKobold_02_Medium.materials.json"
  }
}