{
  "asset": {
    "version": "2.0",
    "generator": "prefab-to-gltf"
  },
  "scene": 0,
  "scenes": [
    {
      "name": "Shoulders_Outer_XKobold_02_Heavy",
      "nodes": [
        0
      ]
    }
  ],
  "nodes": [
    {
      "name": "Shoulders_Z1RKobold_Heavy_N",
      "translation": [
        0,
        0,
        0
      ],
      "rotation": [
        0,
        0,
        0,
        1
      ],
      "scale": [
        1,
        1,
        1
      ],
      "mesh": 0,
      "children": [
        1
      ]
    },
    {
      "name": "KOBOLD_HEAVY",
      "translation": [
        0,
        0,
        0
      ],
      "rotation": [
        0.7071067690849304,
        0,
        0,
        0.7071067932881644
      ],
      "scale": [
        1,
        1,
        1
      ]
    }
  ],
  "meshes": [
    {
      "name": "Shoulders_Z1RKobold_Heavy_N",
      "primitives": [
        {
          "attributes": {
            "POSITION": 0,
            "NORMAL": 1,
            "TEXCOORD_0": 2,
            "TEXCOORD_1": 3,
            "COLOR_0": 4
          },
          "indices": 5,
          "material": 0,
          "mode": 4
        }
      ]
    }
  ],
  "materials": [
    {
      "name": "standardSurface1",
      "pbrMetallicRoughness": {
        "baseColorFactor": [
          1,
          1,
          1,
          1
        ],
        "metallicFactor": 0,
        "roughnessFactor": 1
      },
      "doubleSided": true,
      "extras": {
        "diffuseTexture": null,
        "specularTexture": null,
        "normalMap": null
      }
    }
  ],
  "buffers": [
    {
      "uri": "Shoulders_Outer_XKobold_02_Heavy.bin",
      "byteLength": 197532
    }
  ],
  "bufferViews": [
    {
      "buffer": 0,
      "byteOffset": 0,
      "byteLength": 42120,
      "target": 34962
    },
    {
      "buffer": 0,
      "byteOffset": 42120,
      "byteLength": 42120,
      "target": 34962
    },
    {
      "buffer": 0,
      "byteOffset": 84240,
      "byteLength": 28080,
      "target": 34962
    },
    {
      "buffer": 0,
      "byteOffset": 112320,
      "byteLength": 28080,
      "target": 34962
    },
    {
      "buffer": 0,
      "byteOffset": 140400,
      "byteLength": 42120,
      "target": 34962
    },
    {
      "buffer": 0,
      "byteOffset": 182520,
      "byteLength": 15012,
      "target": 34963
    }
  ],
  "accessors": [
    {
      "bufferView": 0,
      "componentType": 5126,
      "count": 3510,
      "type": "VEC3",
      "min": [
        -0.44287109375,
        1.6083984375,
        -0.140380859375
      ],
      "max": [
        0.44287109375,
        1.9052734375,
        0.21142578125
      ]
    },
    {
      "bufferView": 1,
      "componentType": 5126,
      "count": 3510,
      "type": "VEC3",
      "min": [
        -0.5019607843137255,
        -0.5019607843137255,
        -0.5019607843137255
      ],
      "max": [
        1,
        1,
        1
      ]
    },
    {
      "bufferView": 2,
      "componentType": 5126,
      "count": 3510,
      "type": "VEC2",
      "min": [
        0.263916015625,
        0.1954345703125
      ],
      "max": [
        0.61669921875,
        0.97998046875
      ]
    },
    {
      "bufferView": 3,
      "componentType": 5126,
      "count": 3510,
      "type": "VEC2",
      "min": [
        0.03436279296875,
        0.09991455078125
      ],
      "max": [
        0.794921875,
        0.94873046875
      ]
    },
    {
      "bufferView": 4,
      "componentType": 5126,
      "count": 2632.5,
      "type": "VEC4",
      "min": [
        0,
        0,
        0,
        0
      ],
      "max": [
        1,
        1,
        1,
        1
      ]
    },
    {
      "bufferView": 5,
      "componentType": 5123,
      "count": 7506,
      "type": "SCALAR",
      "min": [
        0
      ],
      "max": [
        3509
      ]
    }
  ],
  "extras": {
    "manifest": "Shoulders_Outer_XKobold_02_Heavy.materials.json"
  }
}