{
  "asset": {
    "version": "2.0",
    "generator": "prefab-to-gltf"
  },
  "scene": 0,
  "scenes": [
    {
      "name": "Waist_Medium_XKobold_02_Medium",
      "nodes": [
        0
      ]
    }
  ],
  "nodes": [
    {
      "name": "Waist_Z1RKobold_Medium_N",
      "translation": [
        0,
        0,
        0
      ],
      "rotation": [
        0,
        0,
        0,
        1
      ],
      "scale": [
        1,
        1,
        1
      ],
      "mesh": 0
    }
  ],
  "meshes": [
    {
      "name": "Waist_Z1RKobold_Medium_N",
      "primitives": [
        {
          "attributes": {
            "POSITION": 0,
            "NORMAL": 1,
            "TEXCOORD_0": 2,
            "TEXCOORD_1": 3
          },
          "indices": 4,
          "material": 0,
          "mode": 4
        }
      ]
    }
  ],
  "materials": [
    {
      "name": "GradMat_Body",
      "pbrMetallicRoughness": {
        "baseColorFactor": [
          1,
          1,
          1,
          1
        ],
        "metallicFactor": 0,
        "roughnessFactor": 1
      },
      "doubleSided": true,
      "extras": {
        "diffuseTexture": "Character/Common/Texture/CustomGradient_BasicGuy.png",
        "specularTexture": null,
        "normalMap": null
      }
    }
  ],
  "buffers": [
    {
      "uri": "Waist_Medium_XKobold_02_Medium.bin",
      "byteLength": 38140
    }
  ],
  "bufferViews": [
    {
      "buffer": 0,
      "byteOffset": 0,
      "byteLength": 10128,
      "target": 34962
    },
    {
      "buffer": 0,
      "byteOffset": 10128,
      "byteLength": 10128,
      "target": 34962
    },
    {
      "buffer": 0,
      "byteOffset": 20256,
      "byteLength": 6752,
      "target": 34962
    },
    {
      "buffer": 0,
      "byteOffset": 27008,
      "byteLength": 6752,
      "target": 34962
    },
    {
      "buffer": 0,
      "byteOffset": 33760,
      "byteLength": 4380,
      "target": 34963
    }
  ],
  "accessors": [
    {
      "bufferView": 0,
      "componentType": 5126,
      "count": 844,
      "type": "VEC3",
      "min": [
        -0.216796875,
        1.1650390625,
        -0.0673828125
      ],
      "max": [
        0.216796875,
        1.302734375,
        0.26611328125
      ]
    },
    {
      "bufferView": 1,
      "componentType": 5126,
      "count": 844,
      "type": "VEC3",
      "min": [
        -0.4980392156862745,
        -0.4980392156862745,
        -0.5019607843137255
      ],
      "max": [
        1,
        1,
        0.4980392156862745
      ]
    },
    {
      "bufferView": 2,
      "componentType": 5126,
      "count": 844,
      "type": "VEC2",
      "min": [
        0.269775390625,
        0.1864013671875
      ],
      "max": [
        0.470947265625,
        0.861328125
      ]
    },
    {
      "bufferView": 3,
      "componentType": 5126,
      "count": 844,
      "type": "VEC2",
      "min": [
        0.0357666015625,
        0.2958984375
      ],
      "max": [
        0.96240234375,
        0.9658203125
      ]
    },
    {
      "bufferView": 4,
      "componentType": 5123,
      "count": 2190,
      "type": "SCALAR",
      "min": [
        0
      ],
      "max": [
        843
      ]
    }
  ],
  "extras": {
    "manifest": "Waist_Medium_XKobold_02_Medium.materials.json"
  }
}