{
  "asset": {
    "version": "2.0",
    "generator": "prefab-to-gltf"
  },
  "scene": 0,
  "scenes": [
    {
      "name": "Plant_Sprout_Turnip_Brown",
      "nodes": [
        0
      ]
    }
  ],
  "nodes": [
    {
      "name": "Plant_Sprout_Turnip_01",
      "translation": [
        0,
        0,
        0
      ],
      "rotation": [
        0,
        0,
        0,
        1
      ],
      "scale": [
        1,
        1,
        1
      ],
      "mesh": 0
    }
  ],
  "meshes": [
    {
      "name": "Plant_Sprout_Turnip_01",
      "primitives": [
        {
          "attributes": {
            "POSITION": 0,
            "NORMAL": 1,
            "TEXCOORD_0": 2,
            "TEXCOORD_1": 3
          },
          "indices": 4,
          "material": 0,
          "mode": 4
        }
      ]
    }
  ],
  "materials": [
    {
      "name": "standardSurface1",
      "pbrMetallicRoughness": {
        "baseColorFactor": [
          1,
          1,
          1,
          1
        ],
        "metallicFactor": 0,
        "roughnessFactor": 1
      },
      "doubleSided": true,
      "extras": {
        "diffuseTexture": null,
        "specularTexture": null,
        "normalMap": null
      }
    }
  ],
  "buffers": [
    {
      "uri": "Plant_Sprout_Turnip_Brown.bin",
      "byteLength": 162172
    }
  ],
  "bufferViews": [
    {
      "buffer": 0,
      "byteOffset": 0,
      "byteLength": 42096,
      "target": 34962
    },
    {
      "buffer": 0,
      "byteOffset": 42096,
      "byteLength": 42096,
      "target": 34962
    },
    {
      "buffer": 0,
      "byteOffset": 84192,
      "byteLength": 28064,
      "target": 34962
    },
    {
      "buffer": 0,
      "byteOffset": 112256,
      "byteLength": 28064,
      "target": 34962
    },
    {
      "buffer": 0,
      "byteOffset": 140320,
      "byteLength": 21852,
      "target": 34963
    }
  ],
  "accessors": [
    {
      "bufferView": 0,
      "componentType": 5126,
      "count": 3508,
      "type": "VEC3",
      "min": [
        -0.6594832539558411,
        -0.4982084631919861,
        -0.6596134901046753
      ],
      "max": [
        0.6629627346992493,
        1.6188535690307617,
        0.6594834923744202
      ]
    },
    {
      "bufferView": 1,
      "componentType": 5126,
      "count": 3508,
      "type": "VEC3",
      "min": [
        -0.9971067309379578,
        -0.9998480081558228,
        -0.9988254904747009
      ],
      "max": [
        0.9978700280189514,
        0.9998176097869873,
        0.9969432950019836
      ]
    },
    {
      "bufferView": 2,
      "componentType": 5126,
      "count": 3508,
      "type": "VEC2",
      "min": [
        0.03013065829873085,
        0.19225817918777466
      ],
      "max": [
        0.4733164310455322,
        0.8677161931991577
      ]
    },
    {
      "bufferView": 3,
      "componentType": 5126,
      "count": 3508,
      "type": "VEC2",
      "min": [
        0.0166514590382576,
        0.1005333662033081
      ],
      "max": [
        0.3650715947151184,
        0.9626644849777222
      ]
    },
    {
      "bufferView": 4,
      "componentType": 5123,
      "count": 10926,
      "type": "SCALAR",
      "min": [
        0
      ],
      "max": [
        3507
      ]
    }
  ],
  "extras": {
    "manifest": "Plant_Sprout_Turnip_Brown.materials.json"
  }
}