{
  "asset": {
    "version": "2.0",
    "generator": "prefab-to-gltf"
  },
  "scene": 0,
  "scenes": [
    {
      "name": "Plant_Sprout_Elite_Manfish_01",
      "nodes": [
        0
      ]
    }
  ],
  "nodes": [
    {
      "name": "Plant_Sprout_Elite_01",
      "translation": [
        0,
        0,
        0
      ],
      "rotation": [
        0,
        0,
        0,
        1
      ],
      "scale": [
        1,
        1,
        1
      ],
      "mesh": 0
    }
  ],
  "meshes": [
    {
      "name": "Plant_Sprout_Elite_01",
      "primitives": [
        {
          "attributes": {
            "POSITION": 0,
            "NORMAL": 1,
            "TEXCOORD_0": 2,
            "TEXCOORD_1": 3
          },
          "indices": 4,
          "material": 0,
          "mode": 4
        }
      ]
    }
  ],
  "materials": [
    {
      "name": "MatSlots",
      "pbrMetallicRoughness": {
        "baseColorFactor": [
          1,
          1,
          1,
          1
        ],
        "metallicFactor": 0,
        "roughnessFactor": 1
      },
      "doubleSided": true,
      "extras": {
        "diffuseTexture": "Character/Common/Texture/CustomGradient_WeaponALL.png",
        "specularTexture": null,
        "normalMap": null
      }
    }
  ],
  "buffers": [
    {
      "uri": "Plant_Sprout_Elite_Manfish_01.bin",
      "byteLength": 469288
    }
  ],
  "bufferViews": [
    {
      "buffer": 0,
      "byteOffset": 0,
      "byteLength": 118020,
      "target": 34962
    },
    {
      "buffer": 0,
      "byteOffset": 118020,
      "byteLength": 118020,
      "target": 34962
    },
    {
      "buffer": 0,
      "byteOffset": 236040,
      "byteLength": 78680,
      "target": 34962
    },
    {
      "buffer": 0,
      "byteOffset": 314720,
      "byteLength": 78680,
      "target": 34962
    },
    {
      "buffer": 0,
      "byteOffset": 393400,
      "byteLength": 75888,
      "target": 34963
    }
  ],
  "accessors": [
    {
      "bufferView": 0,
      "componentType": 5126,
      "count": 9835,
      "type": "VEC3",
      "min": [
        -0.7846742272377014,
        -0.5253326892852783,
        -0.8782286047935486
      ],
      "max": [
        0.9411272406578064,
        1.8385226726531982,
        0.6566372513771057
      ]
    },
    {
      "bufferView": 1,
      "componentType": 5126,
      "count": 9835,
      "type": "VEC3",
      "min": [
        -0.9995957612991333,
        -0.9996179342269897,
        -0.9999764561653137
      ],
      "max": [
        0.9998220205307007,
        0.9998489022254944,
        0.9999764561653137
      ]
    },
    {
      "bufferView": 2,
      "componentType": 5126,
      "count": 9835,
      "type": "VEC2",
      "min": [
        0.01727898232638836,
        0.021971821784973145
      ],
      "max": [
        0.5574460625648499,
        0.9474465847015381
      ]
    },
    {
      "bufferView": 3,
      "componentType": 5126,
      "count": 9835,
      "type": "VEC2",
      "min": [
        0.017889760434627533,
        0.08544301986694336
      ],
      "max": [
        0.4840191900730133,
        0.966308057308197
      ]
    },
    {
      "bufferView": 4,
      "componentType": 5123,
      "count": 37944,
      "type": "SCALAR",
      "min": [
        0
      ],
      "max": [
        9834
      ]
    }
  ],
  "extras": {
    "manifest": "Plant_Sprout_Elite_Manfish_01.materials.json"
  }
}