{
  "asset": {
    "version": "2.0",
    "generator": "prefab-to-gltf"
  },
  "scene": 0,
  "scenes": [
    {
      "name": "Plant_Sprout_Onion_Red",
      "nodes": [
        0
      ]
    }
  ],
  "nodes": [
    {
      "name": "Plant_Sprout_Onion_01",
      "translation": [
        0,
        0,
        0
      ],
      "rotation": [
        0,
        0,
        0,
        1
      ],
      "scale": [
        1,
        1,
        1
      ],
      "mesh": 0
    }
  ],
  "meshes": [
    {
      "name": "Plant_Sprout_Onion_01",
      "primitives": [
        {
          "attributes": {
            "POSITION": 0,
            "NORMAL": 1,
            "TEXCOORD_0": 2,
            "TEXCOORD_1": 3
          },
          "indices": 4,
          "material": 0,
          "mode": 4
        }
      ]
    }
  ],
  "materials": [
    {
      "name": "standardSurface1",
      "pbrMetallicRoughness": {
        "baseColorFactor": [
          1,
          1,
          1,
          1
        ],
        "metallicFactor": 0,
        "roughnessFactor": 1
      },
      "doubleSided": true,
      "extras": {
        "diffuseTexture": null,
        "specularTexture": null,
        "normalMap": null
      }
    }
  ],
  "buffers": [
    {
      "uri": "Plant_Sprout_Onion_Red.bin",
      "byteLength": 149060
    }
  ],
  "bufferViews": [
    {
      "buffer": 0,
      "byteOffset": 0,
      "byteLength": 38508,
      "target": 34962
    },
    {
      "buffer": 0,
      "byteOffset": 38508,
      "byteLength": 38508,
      "target": 34962
    },
    {
      "buffer": 0,
      "byteOffset": 77016,
      "byteLength": 25672,
      "target": 34962
    },
    {
      "buffer": 0,
      "byteOffset": 102688,
      "byteLength": 25672,
      "target": 34962
    },
    {
      "buffer": 0,
      "byteOffset": 128360,
      "byteLength": 20700,
      "target": 34963
    }
  ],
  "accessors": [
    {
      "bufferView": 0,
      "componentType": 5126,
      "count": 3209,
      "type": "VEC3",
      "min": [
        -0.6594832539558411,
        -0.498208224773407,
        -0.6596136689186096
      ],
      "max": [
        0.662962794303894,
        1.914666771888733,
        0.6594832539558411
      ]
    },
    {
      "bufferView": 1,
      "componentType": 5126,
      "count": 3209,
      "type": "VEC3",
      "min": [
        -0.9998021721839905,
        -0.9984744787216187,
        -0.994897186756134
      ],
      "max": [
        0.9978699684143066,
        0.9999383687973022,
        0.997090220451355
      ]
    },
    {
      "bufferView": 2,
      "componentType": 5126,
      "count": 3209,
      "type": "VEC2",
      "min": [
        0.012164413928985596,
        0.13585996627807617
      ],
      "max": [
        0.32733750343322754,
        0.8677611947059631
      ]
    },
    {
      "bufferView": 3,
      "componentType": 5126,
      "count": 3209,
      "type": "VEC2",
      "min": [
        0,
        0.1005333662033081
      ],
      "max": [
        0.4011775255203247,
        1
      ]
    },
    {
      "bufferView": 4,
      "componentType": 5123,
      "count": 10350,
      "type": "SCALAR",
      "min": [
        0
      ],
      "max": [
        3208
      ]
    }
  ],
  "extras": {
    "manifest": "Plant_Sprout_Onion_Red.materials.json"
  }
}