{
  "asset": {
    "version": "2.0",
    "generator": "prefab-to-gltf"
  },
  "scene": 0,
  "scenes": [
    {
      "name": "Plant_Sprout_Rice_01",
      "nodes": [
        0
      ]
    }
  ],
  "nodes": [
    {
      "name": "Sprout01",
      "translation": [
        0,
        0,
        0
      ],
      "rotation": [
        0,
        0,
        0,
        1
      ],
      "scale": [
        1,
        1,
        1
      ],
      "mesh": 0
    }
  ],
  "meshes": [
    {
      "name": "Sprout01",
      "primitives": [
        {
          "attributes": {
            "POSITION": 0,
            "NORMAL": 1,
            "TEXCOORD_0": 2,
            "TEXCOORD_1": 3
          },
          "indices": 4,
          "material": 0,
          "mode": 4
        }
      ]
    }
  ],
  "materials": [
    {
      "name": "MatSlots",
      "pbrMetallicRoughness": {
        "baseColorFactor": [
          1,
          1,
          1,
          1
        ],
        "metallicFactor": 0,
        "roughnessFactor": 1
      },
      "doubleSided": true,
      "extras": {
        "diffuseTexture": "Character/Common/Texture/CustomGradient_WeaponALL.png",
        "specularTexture": null,
        "normalMap": null
      }
    }
  ],
  "buffers": [
    {
      "uri": "Plant_Sprout_Rice_01.bin",
      "byteLength": 269894
    }
  ],
  "bufferViews": [
    {
      "buffer": 0,
      "byteOffset": 0,
      "byteLength": 67992,
      "target": 34962
    },
    {
      "buffer": 0,
      "byteOffset": 67992,
      "byteLength": 67992,
      "target": 34962
    },
    {
      "buffer": 0,
      "byteOffset": 135984,
      "byteLength": 45328,
      "target": 34962
    },
    {
      "buffer": 0,
      "byteOffset": 181312,
      "byteLength": 45328,
      "target": 34962
    },
    {
      "buffer": 0,
      "byteOffset": 226640,
      "byteLength": 43254,
      "target": 34963
    }
  ],
  "accessors": [
    {
      "bufferView": 0,
      "componentType": 5126,
      "count": 5666,
      "type": "VEC3",
      "min": [
        -0.9194850325584412,
        -0.498208224773407,
        -1.6938101053237915
      ],
      "max": [
        0.9411273002624512,
        2.476922035217285,
        0.7250586152076721
      ]
    },
    {
      "bufferView": 1,
      "componentType": 5126,
      "count": 5666,
      "type": "VEC3",
      "min": [
        -0.9993001818656921,
        -0.9992576241493225,
        -0.999901294708252
      ],
      "max": [
        0.9984012842178345,
        0.999938428401947,
        0.9984100461006165
      ]
    },
    {
      "bufferView": 2,
      "componentType": 5126,
      "count": 5666,
      "type": "VEC2",
      "min": [
        0.013566454872488976,
        0.17540884017944336
      ],
      "max": [
        0.3541058599948883,
        0.9650154709815979
      ]
    },
    {
      "bufferView": 3,
      "componentType": 5126,
      "count": 5666,
      "type": "VEC2",
      "min": [
        0.0166514590382576,
        0.1005333662033081
      ],
      "max": [
        0.7835730314254761,
        0.9708982110023499
      ]
    },
    {
      "bufferView": 4,
      "componentType": 5123,
      "count": 21627,
      "type": "SCALAR",
      "min": [
        0
      ],
      "max": [
        5665
      ]
    }
  ],
  "extras": {
    "manifest": "Plant_Sprout_Rice_01.materials.json"
  }
}