{
  "asset": {
    "version": "2.0",
    "generator": "prefab-to-gltf"
  },
  "scene": 0,
  "scenes": [
    {
      "name": "Imp_Kobold",
      "nodes": [
        0
      ]
    }
  ],
  "nodes": [
    {
      "name": "Kobold_Naked",
      "translation": [
        0,
        0,
        0
      ],
      "rotation": [
        0,
        0,
        0,
        1
      ],
      "scale": [
        1,
        1,
        1
      ],
      "mesh": 0
    }
  ],
  "meshes": [
    {
      "name": "Kobold_Naked",
      "primitives": [
        {
          "attributes": {
            "POSITION": 0,
            "NORMAL": 1,
            "TEXCOORD_0": 2,
            "TEXCOORD_1": 3,
            "COLOR_0": 4
          },
          "indices": 5,
          "material": 0,
          "mode": 4
        }
      ]
    }
  ],
  "materials": [
    {
      "name": "Gradmat",
      "pbrMetallicRoughness": {
        "baseColorFactor": [
          1,
          1,
          1,
          1
        ],
        "metallicFactor": 0,
        "roughnessFactor": 1
      },
      "doubleSided": true,
      "extras": {
        "diffuseTexture": "Character/Common/Texture/CustomGradient_WeaponALL.png",
        "specularTexture": null,
        "normalMap": null
      }
    }
  ],
  "buffers": [
    {
      "uri": "Imp_Kobold.bin",
      "byteLength": 420896
    }
  ],
  "bufferViews": [
    {
      "buffer": 0,
      "byteOffset": 0,
      "byteLength": 84264,
      "target": 34962
    },
    {
      "buffer": 0,
      "byteOffset": 84264,
      "byteLength": 84264,
      "target": 34962
    },
    {
      "buffer": 0,
      "byteOffset": 168528,
      "byteLength": 56176,
      "target": 34962
    },
    {
      "buffer": 0,
      "byteOffset": 224704,
      "byteLength": 56176,
      "target": 34962
    },
    {
      "buffer": 0,
      "byteOffset": 280880,
      "byteLength": 84264,
      "target": 34962
    },
    {
      "buffer": 0,
      "byteOffset": 365144,
      "byteLength": 55752,
      "target": 34963
    }
  ],
  "accessors": [
    {
      "bufferView": 0,
      "componentType": 5126,
      "count": 7022,
      "type": "VEC3",
      "min": [
        -0.7892298698425293,
        0.00007151402678573504,
        -1.1880091428756714
      ],
      "max": [
        0.7892298698425293,
        1.7958741188049316,
        0.6348518133163452
      ]
    },
    {
      "bufferView": 1,
      "componentType": 5126,
      "count": 7022,
      "type": "VEC3",
      "min": [
        -0.9998762607574463,
        -0.9999933242797852,
        -0.9999980926513672
      ],
      "max": [
        0.9998762011528015,
        0.9999920725822449,
        0.9995063543319702
      ]
    },
    {
      "bufferView": 2,
      "componentType": 5126,
      "count": 7022,
      "type": "VEC2",
      "min": [
        0.013045981526374817,
        0.09029984474182129
      ],
      "max": [
        0.5784070491790771,
        0.9655128121376038
      ]
    },
    {
      "bufferView": 3,
      "componentType": 5126,
      "count": 7022,
      "type": "VEC2",
      "min": [
        0.007532049901783466,
        0.09525871276855469
      ],
      "max": [
        0.960884690284729,
        0.9773949980735779
      ]
    },
    {
      "bufferView": 4,
      "componentType": 5126,
      "count": 5266.5,
      "type": "VEC4",
      "min": [
        0,
        0,
        0,
        0
      ],
      "max": [
        1,
        1,
        1,
        1
      ]
    },
    {
      "bufferView": 5,
      "componentType": 5123,
      "count": 27876,
      "type": "SCALAR",
      "min": [
        0
      ],
      "max": [
        7021
      ]
    }
  ],
  "extras": {
    "manifest": "Imp_Kobold.materials.json"
  }
}