{
  "asset": {
    "version": "2.0",
    "generator": "prefab-to-gltf"
  },
  "scene": 0,
  "scenes": [
    {
      "name": "Imp_Demon_Purple",
      "nodes": [
        0
      ]
    }
  ],
  "nodes": [
    {
      "name": "Imp_Demon_01",
      "translation": [
        0,
        0,
        0
      ],
      "rotation": [
        0,
        0,
        0,
        1
      ],
      "scale": [
        1,
        1,
        1
      ],
      "mesh": 0
    }
  ],
  "meshes": [
    {
      "name": "Imp_Demon_01",
      "primitives": [
        {
          "attributes": {
            "POSITION": 0,
            "NORMAL": 1,
            "TEXCOORD_0": 2,
            "TEXCOORD_1": 3,
            "COLOR_0": 4
          },
          "indices": 5,
          "material": 0,
          "mode": 4
        }
      ]
    }
  ],
  "materials": [
    {
      "name": "pasted__Gradmat",
      "pbrMetallicRoughness": {
        "baseColorFactor": [
          1,
          1,
          1,
          1
        ],
        "metallicFactor": 0,
        "roughnessFactor": 1
      },
      "doubleSided": true,
      "extras": {
        "diffuseTexture": "Character/Common/Texture/CustomGradient_WeaponALL.png",
        "specularTexture": null,
        "normalMap": null
      }
    }
  ],
  "buffers": [
    {
      "uri": "Imp_Demon_Purple.bin",
      "byteLength": 319056
    }
  ],
  "bufferViews": [
    {
      "buffer": 0,
      "byteOffset": 0,
      "byteLength": 62496,
      "target": 34962
    },
    {
      "buffer": 0,
      "byteOffset": 62496,
      "byteLength": 62496,
      "target": 34962
    },
    {
      "buffer": 0,
      "byteOffset": 124992,
      "byteLength": 41664,
      "target": 34962
    },
    {
      "buffer": 0,
      "byteOffset": 166656,
      "byteLength": 41664,
      "target": 34962
    },
    {
      "buffer": 0,
      "byteOffset": 208320,
      "byteLength": 62496,
      "target": 34962
    },
    {
      "buffer": 0,
      "byteOffset": 270816,
      "byteLength": 48240,
      "target": 34963
    }
  ],
  "accessors": [
    {
      "bufferView": 0,
      "componentType": 5126,
      "count": 5208,
      "type": "VEC3",
      "min": [
        -0.7916171550750732,
        -0.00005042854536441155,
        -1.189929723739624
      ],
      "max": [
        0.7916171550750732,
        1.838802695274353,
        0.47491455078125
      ]
    },
    {
      "bufferView": 1,
      "componentType": 5126,
      "count": 5208,
      "type": "VEC3",
      "min": [
        -0.9996287226676941,
        -0.9999978542327881,
        -0.9995596408843994
      ],
      "max": [
        0.9996287822723389,
        0.9999839663505554,
        0.9999992251396179
      ]
    },
    {
      "bufferView": 2,
      "componentType": 5126,
      "count": 5208,
      "type": "VEC2",
      "min": [
        0.012344391085207462,
        0.20160293579101562
      ],
      "max": [
        0.12391649931669235,
        0.9941942691802979
      ]
    },
    {
      "bufferView": 3,
      "componentType": 5126,
      "count": 5208,
      "type": "VEC2",
      "min": [
        0.007532049901783466,
        0.09525871276855469
      ],
      "max": [
        0.9553678035736084,
        0.964676558971405
      ]
    },
    {
      "bufferView": 4,
      "componentType": 5126,
      "count": 3906,
      "type": "VEC4",
      "min": [
        0,
        0,
        0,
        0
      ],
      "max": [
        0.9999715685844421,
        0.9999715685844421,
        0.9999715685844421,
        0.9999715685844421
      ]
    },
    {
      "bufferView": 5,
      "componentType": 5123,
      "count": 24120,
      "type": "SCALAR",
      "min": [
        0
      ],
      "max": [
        5207
      ]
    }
  ],
  "extras": {
    "manifest": "Imp_Demon_Purple.materials.json"
  }
}