{
  "asset": {
    "version": "2.0",
    "generator": "prefab-to-gltf"
  },
  "scene": 0,
  "scenes": [
    {
      "name": "Imp_Kobold_Thief_Grey",
      "nodes": [
        0
      ]
    }
  ],
  "nodes": [
    {
      "name": "Kobold_Rogue",
      "translation": [
        0,
        0,
        0
      ],
      "rotation": [
        0,
        0,
        0,
        1
      ],
      "scale": [
        1,
        1,
        1
      ],
      "mesh": 0
    }
  ],
  "meshes": [
    {
      "name": "Kobold_Rogue",
      "primitives": [
        {
          "attributes": {
            "POSITION": 0,
            "NORMAL": 1,
            "TEXCOORD_0": 2,
            "TEXCOORD_1": 3,
            "COLOR_0": 4
          },
          "indices": 5,
          "material": 0,
          "mode": 4
        }
      ]
    }
  ],
  "materials": [
    {
      "name": "Gradmat",
      "pbrMetallicRoughness": {
        "baseColorFactor": [
          1,
          1,
          1,
          1
        ],
        "metallicFactor": 0,
        "roughnessFactor": 1
      },
      "doubleSided": true,
      "extras": {
        "diffuseTexture": "Character/Common/Texture/CustomGradient_WeaponALL.png",
        "specularTexture": null,
        "normalMap": null
      }
    }
  ],
  "buffers": [
    {
      "uri": "Imp_Kobold_Thief_Grey.bin",
      "byteLength": 583972
    }
  ],
  "bufferViews": [
    {
      "buffer": 0,
      "byteOffset": 0,
      "byteLength": 118920,
      "target": 34962
    },
    {
      "buffer": 0,
      "byteOffset": 118920,
      "byteLength": 118920,
      "target": 34962
    },
    {
      "buffer": 0,
      "byteOffset": 237840,
      "byteLength": 79280,
      "target": 34962
    },
    {
      "buffer": 0,
      "byteOffset": 317120,
      "byteLength": 79280,
      "target": 34962
    },
    {
      "buffer": 0,
      "byteOffset": 396400,
      "byteLength": 118920,
      "target": 34962
    },
    {
      "buffer": 0,
      "byteOffset": 515320,
      "byteLength": 68652,
      "target": 34963
    }
  ],
  "accessors": [
    {
      "bufferView": 0,
      "componentType": 5126,
      "count": 9910,
      "type": "VEC3",
      "min": [
        -0.7892298698425293,
        -0.004016966093331575,
        -1.1880091428756714
      ],
      "max": [
        0.7892298698425293,
        1.7958741188049316,
        0.6348518133163452
      ]
    },
    {
      "bufferView": 1,
      "componentType": 5126,
      "count": 9910,
      "type": "VEC3",
      "min": [
        -0.9998761415481567,
        -0.9999974370002747,
        -0.9998373985290527
      ],
      "max": [
        0.9998761415481567,
        0.9999919533729553,
        0.9996877908706665
      ]
    },
    {
      "bufferView": 2,
      "componentType": 5126,
      "count": 9910,
      "type": "VEC2",
      "min": [
        0.013045981526374817,
        0.08648133277893066
      ],
      "max": [
        0.9490023851394653,
        0.9655128121376038
      ]
    },
    {
      "bufferView": 3,
      "componentType": 5126,
      "count": 9910,
      "type": "VEC2",
      "min": [
        0,
        0.08373141288757324
      ],
      "max": [
        0.9561805725097656,
        1
      ]
    },
    {
      "bufferView": 4,
      "componentType": 5126,
      "count": 7432.5,
      "type": "VEC4",
      "min": [
        0.6705882549285889,
        0.6705882549285889,
        0.6980392336845398,
        0.6705882549285889
      ],
      "max": [
        1,
        1,
        1,
        1
      ]
    },
    {
      "bufferView": 5,
      "componentType": 5123,
      "count": 34326,
      "type": "SCALAR",
      "min": [
        0
      ],
      "max": [
        9909
      ]
    }
  ],
  "extras": {
    "manifest": "Imp_Kobold_Thief_Grey.materials.json"
  }
}