{
  "asset": {
    "version": "2.0",
    "generator": "prefab-to-gltf"
  },
  "scene": 0,
  "scenes": [
    {
      "name": "Imp_Kobold_Caster_Beige",
      "nodes": [
        0
      ]
    }
  ],
  "nodes": [
    {
      "name": "Kobold_Melee",
      "translation": [
        0,
        0,
        0
      ],
      "rotation": [
        0,
        0,
        0,
        1
      ],
      "scale": [
        1,
        1,
        1
      ],
      "mesh": 0
    }
  ],
  "meshes": [
    {
      "name": "Kobold_Melee",
      "primitives": [
        {
          "attributes": {
            "POSITION": 0,
            "NORMAL": 1,
            "TEXCOORD_0": 2,
            "TEXCOORD_1": 3,
            "COLOR_0": 4
          },
          "indices": 5,
          "material": 0,
          "mode": 4
        }
      ]
    }
  ],
  "materials": [
    {
      "name": "Gradmat",
      "pbrMetallicRoughness": {
        "baseColorFactor": [
          1,
          1,
          1,
          1
        ],
        "metallicFactor": 0,
        "roughnessFactor": 1
      },
      "doubleSided": true,
      "extras": {
        "diffuseTexture": "Character/Common/Texture/CustomGradient_WeaponALL.png",
        "specularTexture": null,
        "normalMap": null
      }
    }
  ],
  "buffers": [
    {
      "uri": "Imp_Kobold_Caster_Beige.bin",
      "byteLength": 594416
    }
  ],
  "bufferViews": [
    {
      "buffer": 0,
      "byteOffset": 0,
      "byteLength": 119976,
      "target": 34962
    },
    {
      "buffer": 0,
      "byteOffset": 119976,
      "byteLength": 119976,
      "target": 34962
    },
    {
      "buffer": 0,
      "byteOffset": 239952,
      "byteLength": 79984,
      "target": 34962
    },
    {
      "buffer": 0,
      "byteOffset": 319936,
      "byteLength": 79984,
      "target": 34962
    },
    {
      "buffer": 0,
      "byteOffset": 399920,
      "byteLength": 119976,
      "target": 34962
    },
    {
      "buffer": 0,
      "byteOffset": 519896,
      "byteLength": 74520,
      "target": 34963
    }
  ],
  "accessors": [
    {
      "bufferView": 0,
      "componentType": 5126,
      "count": 9998,
      "type": "VEC3",
      "min": [
        -0.7892298698425293,
        -0.004016966093331575,
        -1.1880091428756714
      ],
      "max": [
        0.7892298698425293,
        1.7958741188049316,
        0.6348518133163452
      ]
    },
    {
      "bufferView": 1,
      "componentType": 5126,
      "count": 9998,
      "type": "VEC3",
      "min": [
        -0.9998761415481567,
        -0.9999974370002747,
        -0.9999979734420776
      ],
      "max": [
        0.9998761415481567,
        0.9999919533729553,
        0.9995063543319702
      ]
    },
    {
      "bufferView": 2,
      "componentType": 5126,
      "count": 9998,
      "type": "VEC2",
      "min": [
        0.013045981526374817,
        0.09029984474182129
      ],
      "max": [
        0.9881201386451721,
        0.9655128121376038
      ]
    },
    {
      "bufferView": 3,
      "componentType": 5126,
      "count": 9998,
      "type": "VEC2",
      "min": [
        0,
        0.10022842884063721
      ],
      "max": [
        0.960884690284729,
        1
      ]
    },
    {
      "bufferView": 4,
      "componentType": 5126,
      "count": 7498.5,
      "type": "VEC4",
      "min": [
        0,
        0,
        0,
        0
      ],
      "max": [
        1,
        1,
        1,
        1
      ]
    },
    {
      "bufferView": 5,
      "componentType": 5123,
      "count": 37260,
      "type": "SCALAR",
      "min": [
        0
      ],
      "max": [
        9997
      ]
    }
  ],
  "extras": {
    "manifest": "Imp_Kobold_Caster_Beige.materials.json"
  }
}