{
  "asset": {
    "version": "2.0",
    "generator": "prefab-to-gltf"
  },
  "scene": 0,
  "scenes": [
    {
      "name": "Imp_Kobold_Range_Cheese_Brown",
      "nodes": [
        0
      ]
    }
  ],
  "nodes": [
    {
      "name": "Kobold_Range",
      "translation": [
        0,
        0,
        0
      ],
      "rotation": [
        0,
        0,
        0,
        1
      ],
      "scale": [
        1,
        1,
        1
      ],
      "mesh": 0
    }
  ],
  "meshes": [
    {
      "name": "Kobold_Range",
      "primitives": [
        {
          "attributes": {
            "POSITION": 0,
            "NORMAL": 1,
            "TEXCOORD_0": 2,
            "TEXCOORD_1": 3,
            "COLOR_0": 4
          },
          "indices": 5,
          "material": 0,
          "mode": 4
        }
      ]
    }
  ],
  "materials": [
    {
      "name": "Gradmat",
      "pbrMetallicRoughness": {
        "baseColorFactor": [
          1,
          1,
          1,
          1
        ],
        "metallicFactor": 0,
        "roughnessFactor": 1
      },
      "doubleSided": true,
      "extras": {
        "diffuseTexture": "Character/Common/Texture/CustomGradient_WeaponALL.png",
        "specularTexture": null,
        "normalMap": null
      }
    }
  ],
  "buffers": [
    {
      "uri": "Imp_Kobold_Range_Cheese_Brown.bin",
      "byteLength": 675116
    }
  ],
  "bufferViews": [
    {
      "buffer": 0,
      "byteOffset": 0,
      "byteLength": 138192,
      "target": 34962
    },
    {
      "buffer": 0,
      "byteOffset": 138192,
      "byteLength": 138192,
      "target": 34962
    },
    {
      "buffer": 0,
      "byteOffset": 276384,
      "byteLength": 92128,
      "target": 34962
    },
    {
      "buffer": 0,
      "byteOffset": 368512,
      "byteLength": 92128,
      "target": 34962
    },
    {
      "buffer": 0,
      "byteOffset": 460640,
      "byteLength": 138192,
      "target": 34962
    },
    {
      "buffer": 0,
      "byteOffset": 598832,
      "byteLength": 76284,
      "target": 34963
    }
  ],
  "accessors": [
    {
      "bufferView": 0,
      "componentType": 5126,
      "count": 11516,
      "type": "VEC3",
      "min": [
        -0.7892298698425293,
        -0.00005044100180384703,
        -1.1880091428756714
      ],
      "max": [
        0.7892298698425293,
        1.7958741188049316,
        0.6348518133163452
      ]
    },
    {
      "bufferView": 1,
      "componentType": 5126,
      "count": 11516,
      "type": "VEC3",
      "min": [
        -0.9998761415481567,
        -0.9999977350234985,
        -0.9998182058334351
      ],
      "max": [
        0.9998761415481567,
        0.9999919533729553,
        0.9995063543319702
      ]
    },
    {
      "bufferView": 2,
      "componentType": 5126,
      "count": 11516,
      "type": "VEC2",
      "min": [
        0.013045981526374817,
        0.09029984474182129
      ],
      "max": [
        0.9881201386451721,
        0.9655128121376038
      ]
    },
    {
      "bufferView": 3,
      "componentType": 5126,
      "count": 11516,
      "type": "VEC2",
      "min": [
        0,
        0.04033619165420532
      ],
      "max": [
        0.991366446018219,
        1
      ]
    },
    {
      "bufferView": 4,
      "componentType": 5126,
      "count": 8637,
      "type": "VEC4",
      "min": [
        0.6705882549285889,
        0.6705882549285889,
        0.6705882549285889,
        0.6705882549285889
      ],
      "max": [
        1,
        1,
        1,
        1
      ]
    },
    {
      "bufferView": 5,
      "componentType": 5123,
      "count": 38142,
      "type": "SCALAR",
      "min": [
        0
      ],
      "max": [
        11515
      ]
    }
  ],
  "extras": {
    "manifest": "Imp_Kobold_Range_Cheese_Brown.materials.json"
  }
}