{
  "asset": {
    "version": "2.0",
    "generator": "prefab-to-gltf"
  },
  "scene": 0,
  "scenes": [
    {
      "name": "Heavy_Phrixes",
      "nodes": [
        0
      ]
    }
  ],
  "nodes": [
    {
      "name": "Heavy_Phrixes",
      "translation": [
        0,
        0,
        0
      ],
      "rotation": [
        0,
        0,
        0,
        1
      ],
      "scale": [
        1,
        1,
        1
      ],
      "mesh": 0
    }
  ],
  "meshes": [
    {
      "name": "Heavy_Phrixes",
      "primitives": [
        {
          "attributes": {
            "POSITION": 0,
            "NORMAL": 1,
            "TEXCOORD_0": 2,
            "TEXCOORD_1": 3,
            "COLOR_0": 4
          },
          "indices": 5,
          "material": 0,
          "mode": 4
        }
      ]
    }
  ],
  "materials": [
    {
      "name": "Mat_Gradmat",
      "pbrMetallicRoughness": {
        "baseColorFactor": [
          1,
          1,
          1,
          1
        ],
        "metallicFactor": 0,
        "roughnessFactor": 1
      },
      "doubleSided": true,
      "extras": {
        "diffuseTexture": "Character/Common/Texture/CustomGradient_Guard.png",
        "specularTexture": null,
        "normalMap": null
      }
    }
  ],
  "buffers": [
    {
      "uri": "Heavy_Phrixes.bin",
      "byteLength": 1107360
    }
  ],
  "bufferViews": [
    {
      "buffer": 0,
      "byteOffset": 0,
      "byteLength": 227052,
      "target": 34962
    },
    {
      "buffer": 0,
      "byteOffset": 227052,
      "byteLength": 227052,
      "target": 34962
    },
    {
      "buffer": 0,
      "byteOffset": 454104,
      "byteLength": 151368,
      "target": 34962
    },
    {
      "buffer": 0,
      "byteOffset": 605472,
      "byteLength": 151368,
      "target": 34962
    },
    {
      "buffer": 0,
      "byteOffset": 756840,
      "byteLength": 227052,
      "target": 34962
    },
    {
      "buffer": 0,
      "byteOffset": 983892,
      "byteLength": 123468,
      "target": 34963
    }
  ],
  "accessors": [
    {
      "bufferView": 0,
      "componentType": 5126,
      "count": 18921,
      "type": "VEC3",
      "min": [
        -2.0480074882507324,
        0.0007232868811115623,
        -0.6935142278671265
      ],
      "max": [
        2.0480074882507324,
        5.365291118621826,
        1.2320449352264404
      ]
    },
    {
      "bufferView": 1,
      "componentType": 5126,
      "count": 18921,
      "type": "VEC3",
      "min": [
        -0.9999399781227112,
        -0.999988317489624,
        -0.9998385906219482
      ],
      "max": [
        0.9999399781227112,
        0.9999573826789856,
        1
      ]
    },
    {
      "bufferView": 2,
      "componentType": 5126,
      "count": 18921,
      "type": "VEC2",
      "min": [
        0.008591614663600922,
        0.13423359394073486
      ],
      "max": [
        0.9732328653335571,
        1.0778263807296753
      ]
    },
    {
      "bufferView": 3,
      "componentType": 5126,
      "count": 18921,
      "type": "VEC2",
      "min": [
        0,
        0.011774182319641113
      ],
      "max": [
        0.9510111212730408,
        1.00118887424469
      ]
    },
    {
      "bufferView": 4,
      "componentType": 5126,
      "count": 14190.75,
      "type": "VEC4",
      "min": [
        0,
        0,
        0,
        0
      ],
      "max": [
        1,
        1,
        1,
        1
      ]
    },
    {
      "bufferView": 5,
      "componentType": 5123,
      "count": 61734,
      "type": "SCALAR",
      "min": [
        0
      ],
      "max": [
        18920
      ]
    }
  ],
  "extras": {
    "manifest": "Heavy_Phrixes.materials.json"
  }
}