{
  "asset": {
    "version": "2.0",
    "generator": "prefab-to-gltf"
  },
  "scene": 0,
  "scenes": [
    {
      "name": "Item_Thrown",
      "nodes": [
        0
      ]
    }
  ],
  "nodes": [
    {
      "name": "Item_Thrown",
      "translation": [
        0,
        0,
        0
      ],
      "rotation": [
        0.7071056365966797,
        0,
        0,
        0.7071079257745626
      ],
      "scale": [
        1,
        1,
        1
      ],
      "mesh": 0
    }
  ],
  "meshes": [
    {
      "name": "Item_Thrown",
      "primitives": [
        {
          "attributes": {
            "POSITION": 0,
            "NORMAL": 1,
            "TEXCOORD_0": 2,
            "TEXCOORD_1": 3
          },
          "indices": 4,
          "material": 0,
          "mode": 4
        }
      ]
    }
  ],
  "materials": [
    {
      "name": "Gradmat_Weapon",
      "pbrMetallicRoughness": {
        "baseColorFactor": [
          1,
          1,
          1,
          1
        ],
        "metallicFactor": 0,
        "roughnessFactor": 1
      },
      "doubleSided": true,
      "extras": {
        "diffuseTexture": "Character/Common/Texture/CustomGradient_WeaponALL.png",
        "specularTexture": null,
        "normalMap": null
      }
    }
  ],
  "buffers": [
    {
      "uri": "Item_Thrown.bin",
      "byteLength": 32288
    }
  ],
  "bufferViews": [
    {
      "buffer": 0,
      "byteOffset": 0,
      "byteLength": 8448,
      "target": 34962
    },
    {
      "buffer": 0,
      "byteOffset": 8448,
      "byteLength": 8448,
      "target": 34962
    },
    {
      "buffer": 0,
      "byteOffset": 16896,
      "byteLength": 5632,
      "target": 34962
    },
    {
      "buffer": 0,
      "byteOffset": 22528,
      "byteLength": 5632,
      "target": 34962
    },
    {
      "buffer": 0,
      "byteOffset": 28160,
      "byteLength": 4128,
      "target": 34963
    }
  ],
  "accessors": [
    {
      "bufferView": 0,
      "componentType": 5126,
      "count": 704,
      "type": "VEC3",
      "min": [
        -0.180766299366951,
        -0.4825841784477234,
        -0.12078464776277542
      ],
      "max": [
        0.15227679908275604,
        0.2605895400047302,
        0.11374291777610779
      ]
    },
    {
      "bufferView": 1,
      "componentType": 5126,
      "count": 704,
      "type": "VEC3",
      "min": [
        -0.9999101758003235,
        -0.9708003401756287,
        -0.9800753593444824
      ],
      "max": [
        0.9991863965988159,
        0.9968782663345337,
        0.980688750743866
      ]
    },
    {
      "bufferView": 2,
      "componentType": 5126,
      "count": 704,
      "type": "VEC2",
      "min": [
        0.07081183791160583,
        0.4244687557220459
      ],
      "max": [
        0.3368641436100006,
        0.7228211164474487
      ]
    },
    {
      "bufferView": 3,
      "componentType": 5126,
      "count": 704,
      "type": "VEC2",
      "min": [
        0.0490228533744812,
        0.10196137428283691
      ],
      "max": [
        0.9056891202926636,
        0.9590511322021484
      ]
    },
    {
      "bufferView": 4,
      "componentType": 5123,
      "count": 2064,
      "type": "SCALAR",
      "min": [
        0
      ],
      "max": [
        703
      ]
    }
  ],
  "extras": {
    "manifest": "Item_Thrown.materials.json"
  }
}