{
  "asset": {
    "version": "2.0",
    "generator": "prefab-to-gltf"
  },
  "scene": 0,
  "scenes": [
    {
      "name": "Item_Quiver",
      "nodes": [
        0
      ]
    }
  ],
  "nodes": [
    {
      "name": "Item_Quiver",
      "translation": [
        0,
        0,
        0
      ],
      "rotation": [
        0.7071056365966797,
        0,
        0,
        0.7071079257745626
      ],
      "scale": [
        1,
        1,
        1
      ],
      "mesh": 0
    }
  ],
  "meshes": [
    {
      "name": "Item_Quiver",
      "primitives": [
        {
          "attributes": {
            "POSITION": 0,
            "NORMAL": 1,
            "TEXCOORD_0": 2,
            "TEXCOORD_1": 3
          },
          "indices": 4,
          "material": 0,
          "mode": 4
        }
      ]
    }
  ],
  "materials": [
    {
      "name": "Gradmat_Weapon",
      "pbrMetallicRoughness": {
        "baseColorFactor": [
          1,
          1,
          1,
          1
        ],
        "metallicFactor": 0,
        "roughnessFactor": 1
      },
      "doubleSided": true,
      "extras": {
        "diffuseTexture": "Character/Common/Texture/CustomGradient_WeaponALL.png",
        "specularTexture": null,
        "normalMap": null
      }
    }
  ],
  "buffers": [
    {
      "uri": "Item_Quiver.bin",
      "byteLength": 26576
    }
  ],
  "bufferViews": [
    {
      "buffer": 0,
      "byteOffset": 0,
      "byteLength": 7152,
      "target": 34962
    },
    {
      "buffer": 0,
      "byteOffset": 7152,
      "byteLength": 7152,
      "target": 34962
    },
    {
      "buffer": 0,
      "byteOffset": 14304,
      "byteLength": 4768,
      "target": 34962
    },
    {
      "buffer": 0,
      "byteOffset": 19072,
      "byteLength": 4768,
      "target": 34962
    },
    {
      "buffer": 0,
      "byteOffset": 23840,
      "byteLength": 2736,
      "target": 34963
    }
  ],
  "accessors": [
    {
      "bufferView": 0,
      "componentType": 5126,
      "count": 596,
      "type": "VEC3",
      "min": [
        -0.11358621716499329,
        -0.35592007637023926,
        -0.12416927516460419
      ],
      "max": [
        0.11358621716499329,
        0.436313658952713,
        0.17625373601913452
      ]
    },
    {
      "bufferView": 1,
      "componentType": 5126,
      "count": 596,
      "type": "VEC3",
      "min": [
        -0.9999809265136719,
        -0.9992509484291077,
        -0.9998503923416138
      ],
      "max": [
        0.9999949336051941,
        0.9991998672485352,
        0.9998763799667358
      ]
    },
    {
      "bufferView": 2,
      "componentType": 5126,
      "count": 596,
      "type": "VEC2",
      "min": [
        0.03195161372423172,
        0.10447198152542114
      ],
      "max": [
        0.473501056432724,
        0.9952653646469116
      ]
    },
    {
      "bufferView": 3,
      "componentType": 5126,
      "count": 596,
      "type": "VEC2",
      "min": [
        0.03992244601249695,
        0.09918206930160522
      ],
      "max": [
        0.9479583501815796,
        0.9575611352920532
      ]
    },
    {
      "bufferView": 4,
      "componentType": 5123,
      "count": 1368,
      "type": "SCALAR",
      "min": [
        0
      ],
      "max": [
        595
      ]
    }
  ],
  "extras": {
    "manifest": "Item_Quiver.materials.json"
  }
}