{
  "asset": {
    "version": "2.0",
    "generator": "prefab-to-gltf"
  },
  "scene": 0,
  "scenes": [
    {
      "name": "Weapon_2H_Reaper",
      "nodes": [
        0
      ]
    }
  ],
  "nodes": [
    {
      "name": "WEAPONS",
      "translation": [
        0,
        0,
        0
      ],
      "rotation": [
        0.7071056365966797,
        0,
        0,
        0.7071079257745626
      ],
      "scale": [
        1,
        1,
        1
      ],
      "children": [
        1
      ]
    },
    {
      "name": "Weapon_2H_Reaper",
      "translation": [
        0,
        0.2489166259765625,
        0.01593780517578125
      ],
      "rotation": [
        0,
        0,
        0,
        1
      ],
      "scale": [
        1,
        1,
        1
      ],
      "mesh": 0
    }
  ],
  "meshes": [
    {
      "name": "Weapon_2H_Reaper",
      "primitives": [
        {
          "attributes": {
            "POSITION": 0,
            "NORMAL": 1,
            "TEXCOORD_0": 2,
            "TEXCOORD_1": 3
          },
          "indices": 4,
          "material": 0,
          "mode": 4
        }
      ]
    }
  ],
  "materials": [
    {
      "name": "Gradmat_Weapon3",
      "pbrMetallicRoughness": {
        "baseColorFactor": [
          1,
          1,
          1,
          1
        ],
        "metallicFactor": 0,
        "roughnessFactor": 1
      },
      "doubleSided": true,
      "extras": {
        "diffuseTexture": "Character/Common/Texture/CustomGradient_WeaponALL.png",
        "specularTexture": null,
        "normalMap": null
      }
    }
  ],
  "buffers": [
    {
      "uri": "Weapon_2H_Reaper.bin",
      "byteLength": 14628
    }
  ],
  "bufferViews": [
    {
      "buffer": 0,
      "byteOffset": 0,
      "byteLength": 3780,
      "target": 34962
    },
    {
      "buffer": 0,
      "byteOffset": 3780,
      "byteLength": 3780,
      "target": 34962
    },
    {
      "buffer": 0,
      "byteOffset": 7560,
      "byteLength": 2520,
      "target": 34962
    },
    {
      "buffer": 0,
      "byteOffset": 10080,
      "byteLength": 2520,
      "target": 34962
    },
    {
      "buffer": 0,
      "byteOffset": 12600,
      "byteLength": 2028,
      "target": 34963
    }
  ],
  "accessors": [
    {
      "bufferView": 0,
      "componentType": 5126,
      "count": 315,
      "type": "VEC3",
      "min": [
        -0.06478889286518097,
        -1.5311651229858398,
        -0.29279568791389465
      ],
      "max": [
        0.05701376497745514,
        0.8283849358558655,
        1.218969702720642
      ]
    },
    {
      "bufferView": 1,
      "componentType": 5126,
      "count": 315,
      "type": "VEC3",
      "min": [
        -1,
        -0.9984086155891418,
        -0.9382638335227966
      ],
      "max": [
        1,
        0.9998928904533386,
        0.9984673261642456
      ]
    },
    {
      "bufferView": 2,
      "componentType": 5126,
      "count": 315,
      "type": "VEC2",
      "min": [
        0.04497063159942627,
        0.08197528123855591
      ],
      "max": [
        0.22489048540592194,
        0.7493975162506104
      ]
    },
    {
      "bufferView": 3,
      "componentType": 5126,
      "count": 315,
      "type": "VEC2",
      "min": [
        0.05354630947113037,
        0.10902571678161621
      ],
      "max": [
        0.9687826633453369,
        0.9594844579696655
      ]
    },
    {
      "bufferView": 4,
      "componentType": 5123,
      "count": 1014,
      "type": "SCALAR",
      "min": [
        0
      ],
      "max": [
        314
      ]
    }
  ],
  "extras": {
    "manifest": "Weapon_2H_Reaper.materials.json"
  }
}