{
  "asset": {
    "version": "2.0",
    "generator": "prefab-to-gltf"
  },
  "scene": 0,
  "scenes": [
    {
      "name": "Weapon_1H_Crescent",
      "nodes": [
        0
      ]
    }
  ],
  "nodes": [
    {
      "name": "Crescent_Gabarit",
      "translation": [
        0,
        0,
        0
      ],
      "rotation": [
        0,
        0,
        0,
        1
      ],
      "scale": [
        1,
        1,
        1
      ],
      "mesh": 0
    }
  ],
  "meshes": [
    {
      "name": "Crescent_Gabarit",
      "primitives": [
        {
          "attributes": {
            "POSITION": 0,
            "NORMAL": 1,
            "TEXCOORD_0": 2,
            "TEXCOORD_1": 3
          },
          "indices": 4,
          "material": 0,
          "mode": 4
        }
      ]
    }
  ],
  "materials": [
    {
      "name": "GradMat",
      "pbrMetallicRoughness": {
        "baseColorFactor": [
          1,
          1,
          1,
          1
        ],
        "metallicFactor": 0,
        "roughnessFactor": 1
      },
      "doubleSided": true,
      "extras": {
        "diffuseTexture": null,
        "specularTexture": null,
        "normalMap": null
      }
    }
  ],
  "buffers": [
    {
      "uri": "Weapon_1H_Crescent.bin",
      "byteLength": 31112
    }
  ],
  "bufferViews": [
    {
      "buffer": 0,
      "byteOffset": 0,
      "byteLength": 7980,
      "target": 34962
    },
    {
      "buffer": 0,
      "byteOffset": 7980,
      "byteLength": 7980,
      "target": 34962
    },
    {
      "buffer": 0,
      "byteOffset": 15960,
      "byteLength": 5320,
      "target": 34962
    },
    {
      "buffer": 0,
      "byteOffset": 21280,
      "byteLength": 5320,
      "target": 34962
    },
    {
      "buffer": 0,
      "byteOffset": 26600,
      "byteLength": 4512,
      "target": 34963
    }
  ],
  "accessors": [
    {
      "bufferView": 0,
      "componentType": 5126,
      "count": 665,
      "type": "VEC3",
      "min": [
        -0.052005585283041,
        -0.6928999423980713,
        -0.9086231589317322
      ],
      "max": [
        0.052005585283041,
        0.2541975975036621,
        0.9086231589317322
      ]
    },
    {
      "bufferView": 1,
      "componentType": 5126,
      "count": 665,
      "type": "VEC3",
      "min": [
        -1,
        -1,
        -1
      ],
      "max": [
        1,
        1,
        1
      ]
    },
    {
      "bufferView": 2,
      "componentType": 5126,
      "count": 665,
      "type": "VEC2",
      "min": [
        0.01954769715666771,
        0.1833043098449707
      ],
      "max": [
        0.22563225030899048,
        0.7992117404937744
      ]
    },
    {
      "bufferView": 3,
      "componentType": 5126,
      "count": 665,
      "type": "VEC2",
      "min": [
        0.038524776697158813,
        0.11620569229125977
      ],
      "max": [
        0.9467295408248901,
        0.9682993292808533
      ]
    },
    {
      "bufferView": 4,
      "componentType": 5123,
      "count": 2256,
      "type": "SCALAR",
      "min": [
        0
      ],
      "max": [
        664
      ]
    }
  ],
  "extras": {
    "manifest": "Weapon_1H_Crescent.materials.json"
  }
}