{
  "asset": {
    "version": "2.0",
    "generator": "prefab-to-gltf"
  },
  "scene": 0,
  "scenes": [
    {
      "name": "Weapon_1H_Book",
      "nodes": [
        0
      ]
    }
  ],
  "nodes": [
    {
      "name": "Weapon_1H_Book",
      "translation": [
        0,
        0,
        0
      ],
      "rotation": [
        0,
        0,
        0,
        1
      ],
      "scale": [
        1,
        1,
        1
      ],
      "mesh": 0,
      "children": [
        1
      ]
    },
    {
      "name": "MESH",
      "translation": [
        0,
        0,
        0
      ],
      "rotation": [
        0.7071056365966797,
        0,
        0,
        0.7071079257745626
      ],
      "scale": [
        1,
        1,
        1
      ],
      "children": [
        2
      ]
    },
    {
      "name": "WEAPONS",
      "translation": [
        0,
        0,
        0
      ],
      "rotation": [
        0,
        0,
        0,
        1
      ],
      "scale": [
        1,
        1,
        1
      ]
    }
  ],
  "meshes": [
    {
      "name": "Weapon_1H_Book",
      "primitives": [
        {
          "attributes": {
            "POSITION": 0,
            "NORMAL": 1,
            "TEXCOORD_0": 2,
            "TEXCOORD_1": 3,
            "COLOR_0": 4
          },
          "indices": 5,
          "material": 0,
          "mode": 4
        }
      ]
    }
  ],
  "materials": [
    {
      "name": "Gradmat_Weapon",
      "pbrMetallicRoughness": {
        "baseColorFactor": [
          1,
          1,
          1,
          1
        ],
        "metallicFactor": 0,
        "roughnessFactor": 1
      },
      "doubleSided": true,
      "extras": {
        "diffuseTexture": "Character/Common/Texture/CustomGradient_Hero_Clothes.png",
        "specularTexture": null,
        "normalMap": null
      }
    }
  ],
  "buffers": [
    {
      "uri": "Weapon_1H_Book.bin",
      "byteLength": 175280
    }
  ],
  "bufferViews": [
    {
      "buffer": 0,
      "byteOffset": 0,
      "byteLength": 36456,
      "target": 34962
    },
    {
      "buffer": 0,
      "byteOffset": 36456,
      "byteLength": 36456,
      "target": 34962
    },
    {
      "buffer": 0,
      "byteOffset": 72912,
      "byteLength": 24304,
      "target": 34962
    },
    {
      "buffer": 0,
      "byteOffset": 97216,
      "byteLength": 24304,
      "target": 34962
    },
    {
      "buffer": 0,
      "byteOffset": 121520,
      "byteLength": 36456,
      "target": 34962
    },
    {
      "buffer": 0,
      "byteOffset": 157976,
      "byteLength": 17304,
      "target": 34963
    }
  ],
  "accessors": [
    {
      "bufferView": 0,
      "componentType": 5126,
      "count": 3038,
      "type": "VEC3",
      "min": [
        -0.15155498683452606,
        -0.37933576107025146,
        -0.02016153186559677
      ],
      "max": [
        0.15155498683452606,
        0.37933576107025146,
        0.6069113612174988
      ]
    },
    {
      "bufferView": 1,
      "componentType": 5126,
      "count": 3038,
      "type": "VEC3",
      "min": [
        -0.9999993443489075,
        -0.9999996423721313,
        -1
      ],
      "max": [
        0.9999993443489075,
        0.9999996423721313,
        1
      ]
    },
    {
      "bufferView": 2,
      "componentType": 5126,
      "count": 3038,
      "type": "VEC2",
      "min": [
        0.01711876690387726,
        0.13277238607406616
      ],
      "max": [
        0.45978206396102905,
        0.8619006872177124
      ]
    },
    {
      "bufferView": 3,
      "componentType": 5126,
      "count": 3038,
      "type": "VEC2",
      "min": [
        0,
        0.11107701063156128
      ],
      "max": [
        0.9964674711227417,
        1
      ]
    },
    {
      "bufferView": 4,
      "componentType": 5126,
      "count": 2278.5,
      "type": "VEC4",
      "min": [
        0,
        0,
        0,
        0
      ],
      "max": [
        1,
        1,
        1,
        1
      ]
    },
    {
      "bufferView": 5,
      "componentType": 5123,
      "count": 8652,
      "type": "SCALAR",
      "min": [
        0
      ],
      "max": [
        3037
      ]
    }
  ],
  "extras": {
    "manifest": "Weapon_1H_Book.materials.json"
  }
}