{
  "asset": {
    "version": "2.0",
    "generator": "prefab-to-gltf"
  },
  "scene": 0,
  "scenes": [
    {
      "name": "Weapon_2H_GreatAxe",
      "nodes": [
        0
      ]
    }
  ],
  "nodes": [
    {
      "name": "2H_GreatAxe",
      "translation": [
        0,
        0,
        0
      ],
      "rotation": [
        0,
        0,
        0,
        1
      ],
      "scale": [
        1,
        1,
        1
      ],
      "mesh": 0
    }
  ],
  "meshes": [
    {
      "name": "2H_GreatAxe",
      "primitives": [
        {
          "attributes": {
            "POSITION": 0,
            "NORMAL": 1,
            "TEXCOORD_0": 2,
            "TEXCOORD_1": 3
          },
          "indices": 4,
          "material": 0,
          "mode": 4
        }
      ]
    }
  ],
  "materials": [
    {
      "name": "MatSlots_WEAPONS",
      "pbrMetallicRoughness": {
        "baseColorFactor": [
          1,
          1,
          1,
          1
        ],
        "metallicFactor": 0,
        "roughnessFactor": 1
      },
      "doubleSided": true,
      "extras": {
        "diffuseTexture": null,
        "specularTexture": null,
        "normalMap": null
      }
    },
    {
      "name": "Outline",
      "pbrMetallicRoughness": {
        "baseColorFactor": [
          1,
          1,
          1,
          1
        ],
        "metallicFactor": 0,
        "roughnessFactor": 1
      },
      "doubleSided": true,
      "extras": {
        "diffuseTexture": null,
        "specularTexture": null,
        "normalMap": null
      }
    }
  ],
  "buffers": [
    {
      "uri": "Weapon_2H_GreatAxe.bin",
      "byteLength": 28544
    }
  ],
  "bufferViews": [
    {
      "buffer": 0,
      "byteOffset": 0,
      "byteLength": 7440,
      "target": 34962
    },
    {
      "buffer": 0,
      "byteOffset": 7440,
      "byteLength": 7440,
      "target": 34962
    },
    {
      "buffer": 0,
      "byteOffset": 14880,
      "byteLength": 4960,
      "target": 34962
    },
    {
      "buffer": 0,
      "byteOffset": 19840,
      "byteLength": 4960,
      "target": 34962
    },
    {
      "buffer": 0,
      "byteOffset": 24800,
      "byteLength": 3744,
      "target": 34963
    }
  ],
  "accessors": [
    {
      "bufferView": 0,
      "componentType": 5126,
      "count": 620,
      "type": "VEC3",
      "min": [
        -0.07651474326848984,
        -0.44809165596961975,
        -0.7075961828231812
      ],
      "max": [
        0.07651474326848984,
        0.44809165596961975,
        1.7731660604476929
      ]
    },
    {
      "bufferView": 1,
      "componentType": 5126,
      "count": 620,
      "type": "VEC3",
      "min": [
        -1,
        -1,
        -1
      ],
      "max": [
        1,
        1,
        1
      ]
    },
    {
      "bufferView": 2,
      "componentType": 5126,
      "count": 620,
      "type": "VEC2",
      "min": [
        0.06509256362915039,
        0.3024357557296753
      ],
      "max": [
        0.2130081057548523,
        0.7702072858810425
      ]
    },
    {
      "bufferView": 3,
      "componentType": 5126,
      "count": 620,
      "type": "VEC2",
      "min": [
        0.04121888428926468,
        0.10332763195037842
      ],
      "max": [
        0.9548307657241821,
        0.9781890511512756
      ]
    },
    {
      "bufferView": 4,
      "componentType": 5123,
      "count": 1872,
      "type": "SCALAR",
      "min": [
        0
      ],
      "max": [
        619
      ]
    }
  ],
  "extras": {
    "manifest": "Weapon_2H_GreatAxe.materials.json"
  }
}