{
  "asset": {
    "version": "2.0",
    "generator": "prefab-to-gltf"
  },
  "scene": 0,
  "scenes": [
    {
      "name": "Weapon_1H_Bow",
      "nodes": [
        0
      ]
    }
  ],
  "nodes": [
    {
      "name": "Bow_Gabarit",
      "translation": [
        0,
        0,
        0
      ],
      "rotation": [
        0,
        0,
        0,
        1
      ],
      "scale": [
        1,
        1,
        1
      ],
      "mesh": 0
    }
  ],
  "meshes": [
    {
      "name": "Bow_Gabarit",
      "primitives": [
        {
          "attributes": {
            "POSITION": 0,
            "NORMAL": 1,
            "TEXCOORD_0": 2,
            "TEXCOORD_1": 3
          },
          "indices": 4,
          "material": 0,
          "mode": 4
        }
      ]
    }
  ],
  "materials": [
    {
      "name": "standardSurface1",
      "pbrMetallicRoughness": {
        "baseColorFactor": [
          1,
          1,
          1,
          1
        ],
        "metallicFactor": 0,
        "roughnessFactor": 1
      },
      "doubleSided": true,
      "extras": {
        "diffuseTexture": null,
        "specularTexture": null,
        "normalMap": null
      }
    }
  ],
  "buffers": [
    {
      "uri": "Weapon_1H_Bow.bin",
      "byteLength": 41812
    }
  ],
  "bufferViews": [
    {
      "buffer": 0,
      "byteOffset": 0,
      "byteLength": 10812,
      "target": 34962
    },
    {
      "buffer": 0,
      "byteOffset": 10812,
      "byteLength": 10812,
      "target": 34962
    },
    {
      "buffer": 0,
      "byteOffset": 21624,
      "byteLength": 7208,
      "target": 34962
    },
    {
      "buffer": 0,
      "byteOffset": 28832,
      "byteLength": 7208,
      "target": 34962
    },
    {
      "buffer": 0,
      "byteOffset": 36040,
      "byteLength": 5772,
      "target": 34963
    }
  ],
  "accessors": [
    {
      "bufferView": 0,
      "componentType": 5126,
      "count": 901,
      "type": "VEC3",
      "min": [
        -0.06563334167003632,
        -0.9926167130470276,
        -0.3770185708999634
      ],
      "max": [
        0.06563335657119751,
        0.9926167130470276,
        0.062442392110824585
      ]
    },
    {
      "bufferView": 1,
      "componentType": 5126,
      "count": 901,
      "type": "VEC3",
      "min": [
        -0.9998968839645386,
        -0.9989212155342102,
        -1
      ],
      "max": [
        1,
        0.9989184737205505,
        1
      ]
    },
    {
      "bufferView": 2,
      "componentType": 5126,
      "count": 901,
      "type": "VEC2",
      "min": [
        0.030821263790130615,
        0.07423156499862671
      ],
      "max": [
        0.10125935822725296,
        0.7278453707695007
      ]
    },
    {
      "bufferView": 3,
      "componentType": 5126,
      "count": 901,
      "type": "VEC2",
      "min": [
        0.03486672043800354,
        0.965053915977478
      ],
      "max": [
        0.03486672043800354,
        0.965053915977478
      ]
    },
    {
      "bufferView": 4,
      "componentType": 5123,
      "count": 2886,
      "type": "SCALAR",
      "min": [
        0
      ],
      "max": [
        900
      ]
    }
  ],
  "extras": {
    "manifest": "Weapon_1H_Bow.materials.json"
  }
}