{
  "asset": {
    "version": "2.0",
    "generator": "prefab-to-gltf"
  },
  "scene": 0,
  "scenes": [
    {
      "name": "Weapon_2H_GreatMace",
      "nodes": [
        0
      ]
    }
  ],
  "nodes": [
    {
      "name": "Weapon_2H_GreatMace",
      "translation": [
        0,
        0,
        0
      ],
      "rotation": [
        0.7071056365966797,
        0,
        0,
        0.7071079257745626
      ],
      "scale": [
        1,
        1,
        1
      ],
      "mesh": 0
    }
  ],
  "meshes": [
    {
      "name": "Weapon_2H_GreatMace",
      "primitives": [
        {
          "attributes": {
            "POSITION": 0,
            "NORMAL": 1,
            "TEXCOORD_0": 2,
            "TEXCOORD_1": 3
          },
          "indices": 4,
          "material": 0,
          "mode": 4
        }
      ]
    }
  ],
  "materials": [
    {
      "name": "Gradmat_Weapon",
      "pbrMetallicRoughness": {
        "baseColorFactor": [
          1,
          1,
          1,
          1
        ],
        "metallicFactor": 0,
        "roughnessFactor": 1
      },
      "doubleSided": true,
      "extras": {
        "diffuseTexture": "Character/Common/Texture/CustomGradient_WeaponALL.png",
        "specularTexture": null,
        "normalMap": null
      }
    }
  ],
  "buffers": [
    {
      "uri": "Weapon_2H_GreatMace.bin",
      "byteLength": 25816
    }
  ],
  "bufferViews": [
    {
      "buffer": 0,
      "byteOffset": 0,
      "byteLength": 6888,
      "target": 34962
    },
    {
      "buffer": 0,
      "byteOffset": 6888,
      "byteLength": 6888,
      "target": 34962
    },
    {
      "buffer": 0,
      "byteOffset": 13776,
      "byteLength": 4592,
      "target": 34962
    },
    {
      "buffer": 0,
      "byteOffset": 18368,
      "byteLength": 4592,
      "target": 34962
    },
    {
      "buffer": 0,
      "byteOffset": 22960,
      "byteLength": 2856,
      "target": 34963
    }
  ],
  "accessors": [
    {
      "bufferView": 0,
      "componentType": 5126,
      "count": 574,
      "type": "VEC3",
      "min": [
        -0.12325607240200043,
        -0.609346866607666,
        -0.4037584662437439
      ],
      "max": [
        0.12325607240200043,
        1.6150596141815186,
        0.4037572145462036
      ]
    },
    {
      "bufferView": 1,
      "componentType": 5126,
      "count": 574,
      "type": "VEC3",
      "min": [
        -1,
        -1,
        -1
      ],
      "max": [
        1,
        1,
        1
      ]
    },
    {
      "bufferView": 2,
      "componentType": 5126,
      "count": 574,
      "type": "VEC2",
      "min": [
        0.0606401190161705,
        0.31432807445526123
      ],
      "max": [
        0.364808589220047,
        0.7092260718345642
      ]
    },
    {
      "bufferView": 3,
      "componentType": 5126,
      "count": 574,
      "type": "VEC2",
      "min": [
        0.05673397704958916,
        0.9592247605323792
      ],
      "max": [
        0.05673397704958916,
        0.9592247605323792
      ]
    },
    {
      "bufferView": 4,
      "componentType": 5123,
      "count": 1428,
      "type": "SCALAR",
      "min": [
        0
      ],
      "max": [
        573
      ]
    }
  ],
  "extras": {
    "manifest": "Weapon_2H_GreatMace.materials.json"
  }
}