{
  "asset": {
    "version": "2.0",
    "generator": "prefab-to-gltf"
  },
  "scene": 0,
  "scenes": [
    {
      "name": "Weapon_1H_Mace",
      "nodes": [
        0
      ]
    }
  ],
  "nodes": [
    {
      "name": "1H_Hammer_R",
      "translation": [
        0,
        0,
        0
      ],
      "rotation": [
        0,
        0,
        0.7071056365966797,
        0.7071079257745626
      ],
      "scale": [
        1,
        1,
        1
      ],
      "mesh": 0
    }
  ],
  "meshes": [
    {
      "name": "1H_Hammer_R",
      "primitives": [
        {
          "attributes": {
            "POSITION": 0,
            "NORMAL": 1,
            "TEXCOORD_0": 2,
            "TEXCOORD_1": 3
          },
          "indices": 4,
          "material": 0,
          "mode": 4
        }
      ]
    }
  ],
  "materials": [
    {
      "name": "MatSlots_WEAPONS",
      "pbrMetallicRoughness": {
        "baseColorFactor": [
          1,
          1,
          1,
          1
        ],
        "metallicFactor": 0,
        "roughnessFactor": 1
      },
      "doubleSided": true,
      "extras": {
        "diffuseTexture": null,
        "specularTexture": null,
        "normalMap": null
      }
    },
    {
      "name": "Outline",
      "pbrMetallicRoughness": {
        "baseColorFactor": [
          1,
          1,
          1,
          1
        ],
        "metallicFactor": 0,
        "roughnessFactor": 1
      },
      "doubleSided": true,
      "extras": {
        "diffuseTexture": null,
        "specularTexture": null,
        "normalMap": null
      }
    }
  ],
  "buffers": [
    {
      "uri": "Weapon_1H_Mace.bin",
      "byteLength": 29888
    }
  ],
  "bufferViews": [
    {
      "buffer": 0,
      "byteOffset": 0,
      "byteLength": 7764,
      "target": 34962
    },
    {
      "buffer": 0,
      "byteOffset": 7764,
      "byteLength": 7764,
      "target": 34962
    },
    {
      "buffer": 0,
      "byteOffset": 15528,
      "byteLength": 5176,
      "target": 34962
    },
    {
      "buffer": 0,
      "byteOffset": 20704,
      "byteLength": 5176,
      "target": 34962
    },
    {
      "buffer": 0,
      "byteOffset": 25880,
      "byteLength": 4008,
      "target": 34963
    }
  ],
  "accessors": [
    {
      "bufferView": 0,
      "componentType": 5126,
      "count": 647,
      "type": "VEC3",
      "min": [
        -0.3307267129421234,
        -0.14712922275066376,
        -0.36055174469947815
      ],
      "max": [
        0.3307267129421234,
        0.14712922275066376,
        0.8347058296203613
      ]
    },
    {
      "bufferView": 1,
      "componentType": 5126,
      "count": 647,
      "type": "VEC3",
      "min": [
        -1,
        -1,
        -1
      ],
      "max": [
        1,
        1,
        1
      ]
    },
    {
      "bufferView": 2,
      "componentType": 5126,
      "count": 647,
      "type": "VEC2",
      "min": [
        0.04778642579913139,
        0.44087332487106323
      ],
      "max": [
        0.22978240251541138,
        0.7590815424919128
      ]
    },
    {
      "bufferView": 3,
      "componentType": 5126,
      "count": 647,
      "type": "VEC2",
      "min": [
        0.04118022322654724,
        0.9653441905975342
      ],
      "max": [
        0.04118022322654724,
        0.9653441905975342
      ]
    },
    {
      "bufferView": 4,
      "componentType": 5123,
      "count": 2004,
      "type": "SCALAR",
      "min": [
        0
      ],
      "max": [
        646
      ]
    }
  ],
  "extras": {
    "manifest": "Weapon_1H_Mace.materials.json"
  }
}