{
  "asset": {
    "version": "2.0",
    "generator": "prefab-to-gltf"
  },
  "scene": 0,
  "scenes": [
    {
      "name": "Weapon_1H_DualDagger",
      "nodes": [
        0
      ]
    }
  ],
  "nodes": [
    {
      "name": "1H_Dagga_R",
      "translation": [
        0,
        0,
        0
      ],
      "rotation": [
        0,
        0,
        0,
        1
      ],
      "scale": [
        1.0201568603515625,
        1.0201568603515625,
        1.0201568603515625
      ],
      "mesh": 0
    }
  ],
  "meshes": [
    {
      "name": "1H_Dagga_R",
      "primitives": [
        {
          "attributes": {
            "POSITION": 0,
            "NORMAL": 1,
            "TEXCOORD_0": 2,
            "TEXCOORD_1": 3
          },
          "indices": 4,
          "material": 0,
          "mode": 4
        }
      ]
    }
  ],
  "materials": [
    {
      "name": "MatSlots_WEAPONS_005",
      "pbrMetallicRoughness": {
        "baseColorFactor": [
          1,
          1,
          1,
          1
        ],
        "metallicFactor": 0,
        "roughnessFactor": 1
      },
      "doubleSided": true,
      "extras": {
        "diffuseTexture": null,
        "specularTexture": null,
        "normalMap": null
      }
    },
    {
      "name": "Outline_005",
      "pbrMetallicRoughness": {
        "baseColorFactor": [
          1,
          1,
          1,
          1
        ],
        "metallicFactor": 0,
        "roughnessFactor": 1
      },
      "doubleSided": true,
      "extras": {
        "diffuseTexture": null,
        "specularTexture": null,
        "normalMap": null
      }
    }
  ],
  "buffers": [
    {
      "uri": "Weapon_1H_DualDagger.bin",
      "byteLength": 27556
    }
  ],
  "bufferViews": [
    {
      "buffer": 0,
      "byteOffset": 0,
      "byteLength": 7356,
      "target": 34962
    },
    {
      "buffer": 0,
      "byteOffset": 7356,
      "byteLength": 7356,
      "target": 34962
    },
    {
      "buffer": 0,
      "byteOffset": 14712,
      "byteLength": 4904,
      "target": 34962
    },
    {
      "buffer": 0,
      "byteOffset": 19616,
      "byteLength": 4904,
      "target": 34962
    },
    {
      "buffer": 0,
      "byteOffset": 24520,
      "byteLength": 3036,
      "target": 34963
    }
  ],
  "accessors": [
    {
      "bufferView": 0,
      "componentType": 5126,
      "count": 613,
      "type": "VEC3",
      "min": [
        -0.050112731754779816,
        -0.12313352525234222,
        -0.22101235389709473
      ],
      "max": [
        0.050112731754779816,
        0.12313352525234222,
        0.6137229800224304
      ]
    },
    {
      "bufferView": 1,
      "componentType": 5126,
      "count": 613,
      "type": "VEC3",
      "min": [
        -0.9999869465827942,
        -0.9999409317970276,
        -0.8375098705291748
      ],
      "max": [
        0.9999869465827942,
        0.9999409317970276,
        0.8122246265411377
      ]
    },
    {
      "bufferView": 2,
      "componentType": 5126,
      "count": 613,
      "type": "VEC2",
      "min": [
        0.16455870866775513,
        0.07766765356063843
      ],
      "max": [
        0.4745098948478699,
        0.8420363068580627
      ]
    },
    {
      "bufferView": 3,
      "componentType": 5126,
      "count": 613,
      "type": "VEC2",
      "min": [
        0.031658731400966644,
        0.10540395975112915
      ],
      "max": [
        0.9421963095664978,
        0.9783598184585571
      ]
    },
    {
      "bufferView": 4,
      "componentType": 5123,
      "count": 1518,
      "type": "SCALAR",
      "min": [
        0
      ],
      "max": [
        612
      ]
    }
  ],
  "extras": {
    "manifest": "Weapon_1H_DualDagger.materials.json"
  }
}