{
  "asset": {
    "version": "2.0",
    "generator": "prefab-to-gltf"
  },
  "scene": 0,
  "scenes": [
    {
      "name": "Weapon_1H_Sarbacane",
      "nodes": [
        0
      ]
    }
  ],
  "nodes": [
    {
      "name": "Weapon_1H_Sarbacane",
      "translation": [
        0,
        0,
        0
      ],
      "rotation": [
        0.7071056365966797,
        0,
        0,
        0.7071079257745626
      ],
      "scale": [
        1,
        1,
        1
      ],
      "mesh": 0
    }
  ],
  "meshes": [
    {
      "name": "Weapon_1H_Sarbacane",
      "primitives": [
        {
          "attributes": {
            "POSITION": 0,
            "NORMAL": 1,
            "TEXCOORD_0": 2,
            "TEXCOORD_1": 3
          },
          "indices": 4,
          "material": 0,
          "mode": 4
        }
      ]
    }
  ],
  "materials": [
    {
      "name": "Gradmat_Weapon",
      "pbrMetallicRoughness": {
        "baseColorFactor": [
          1,
          1,
          1,
          1
        ],
        "metallicFactor": 0,
        "roughnessFactor": 1
      },
      "doubleSided": true,
      "extras": {
        "diffuseTexture": "Character/Common/Texture/CustomGradient_WeaponALL.png",
        "specularTexture": null,
        "normalMap": null
      }
    }
  ],
  "buffers": [
    {
      "uri": "Weapon_1H_Sarbacane.bin",
      "byteLength": 18048
    }
  ],
  "bufferViews": [
    {
      "buffer": 0,
      "byteOffset": 0,
      "byteLength": 4572,
      "target": 34962
    },
    {
      "buffer": 0,
      "byteOffset": 4572,
      "byteLength": 4572,
      "target": 34962
    },
    {
      "buffer": 0,
      "byteOffset": 9144,
      "byteLength": 3048,
      "target": 34962
    },
    {
      "buffer": 0,
      "byteOffset": 12192,
      "byteLength": 3048,
      "target": 34962
    },
    {
      "buffer": 0,
      "byteOffset": 15240,
      "byteLength": 2808,
      "target": 34963
    }
  ],
  "accessors": [
    {
      "bufferView": 0,
      "componentType": 5126,
      "count": 381,
      "type": "VEC3",
      "min": [
        -0.10378140211105347,
        -0.8507442474365234,
        -0.10883662849664688
      ],
      "max": [
        0.10378140211105347,
        0.41488009691238403,
        0.10051975399255753
      ]
    },
    {
      "bufferView": 1,
      "componentType": 5126,
      "count": 381,
      "type": "VEC3",
      "min": [
        -0.9508734345436096,
        -1,
        -0.9997978210449219
      ],
      "max": [
        0.9508734345436096,
        1,
        0.9998050332069397
      ]
    },
    {
      "bufferView": 2,
      "componentType": 5126,
      "count": 381,
      "type": "VEC2",
      "min": [
        0.029495101422071457,
        0.11703801155090332
      ],
      "max": [
        0.10441406816244125,
        0.9304305911064148
      ]
    },
    {
      "bufferView": 3,
      "componentType": 5126,
      "count": 381,
      "type": "VEC2",
      "min": [
        0.039784371852874756,
        0.006772518157958984
      ],
      "max": [
        0.688637375831604,
        0.9488840103149414
      ]
    },
    {
      "bufferView": 4,
      "componentType": 5123,
      "count": 1404,
      "type": "SCALAR",
      "min": [
        0
      ],
      "max": [
        380
      ]
    }
  ],
  "extras": {
    "manifest": "Weapon_1H_Sarbacane.materials.json"
  }
}