{
  "asset": {
    "version": "2.0",
    "generator": "prefab-to-gltf"
  },
  "scene": 0,
  "scenes": [
    {
      "name": "Weapon_1H_Axe",
      "nodes": [
        0
      ]
    }
  ],
  "nodes": [
    {
      "name": "Weapon_1H_Axe_R",
      "translation": [
        0,
        0,
        0
      ],
      "rotation": [
        0.7071056365966797,
        0,
        0,
        0.7071079257745626
      ],
      "scale": [
        1,
        1,
        1
      ],
      "mesh": 0
    }
  ],
  "meshes": [
    {
      "name": "Weapon_1H_Axe_R",
      "primitives": [
        {
          "attributes": {
            "POSITION": 0,
            "NORMAL": 1,
            "TEXCOORD_0": 2,
            "TEXCOORD_1": 3
          },
          "indices": 4,
          "material": 0,
          "mode": 4
        }
      ]
    }
  ],
  "materials": [
    {
      "name": "Gradmat_Weapon",
      "pbrMetallicRoughness": {
        "baseColorFactor": [
          1,
          1,
          1,
          1
        ],
        "metallicFactor": 0,
        "roughnessFactor": 1
      },
      "doubleSided": true,
      "extras": {
        "diffuseTexture": "Character/Common/Texture/CustomGradient_WeaponALL.png",
        "specularTexture": null,
        "normalMap": null
      }
    }
  ],
  "buffers": [
    {
      "uri": "Weapon_1H_Axe.bin",
      "byteLength": 17432
    }
  ],
  "bufferViews": [
    {
      "buffer": 0,
      "byteOffset": 0,
      "byteLength": 4488,
      "target": 34962
    },
    {
      "buffer": 0,
      "byteOffset": 4488,
      "byteLength": 4488,
      "target": 34962
    },
    {
      "buffer": 0,
      "byteOffset": 8976,
      "byteLength": 2992,
      "target": 34962
    },
    {
      "buffer": 0,
      "byteOffset": 11968,
      "byteLength": 2992,
      "target": 34962
    },
    {
      "buffer": 0,
      "byteOffset": 14960,
      "byteLength": 2472,
      "target": 34963
    }
  ],
  "accessors": [
    {
      "bufferView": 0,
      "componentType": 5126,
      "count": 374,
      "type": "VEC3",
      "min": [
        -0.06641136109828949,
        -0.4188480079174042,
        -0.17795026302337646
      ],
      "max": [
        0.06849881261587143,
        0.5645192265510559,
        0.33110374212265015
      ]
    },
    {
      "bufferView": 1,
      "componentType": 5126,
      "count": 374,
      "type": "VEC3",
      "min": [
        -1,
        -0.9999104738235474,
        -0.9995004534721375
      ],
      "max": [
        1,
        1,
        0.9392763376235962
      ]
    },
    {
      "bufferView": 2,
      "componentType": 5126,
      "count": 374,
      "type": "VEC2",
      "min": [
        0.02186666429042816,
        0.22345542907714844
      ],
      "max": [
        0.23219938576221466,
        0.7717457413673401
      ]
    },
    {
      "bufferView": 3,
      "componentType": 5126,
      "count": 374,
      "type": "VEC2",
      "min": [
        0.06534722447395325,
        0.09166312217712402
      ],
      "max": [
        0.9372067451477051,
        0.9535982608795166
      ]
    },
    {
      "bufferView": 4,
      "componentType": 5123,
      "count": 1236,
      "type": "SCALAR",
      "min": [
        0
      ],
      "max": [
        373
      ]
    }
  ],
  "extras": {
    "manifest": "Weapon_1H_Axe.materials.json"
  }
}