{
  "asset": {
    "version": "2.0",
    "generator": "prefab-to-gltf"
  },
  "scene": 0,
  "scenes": [
    {
      "name": "Weapon_1H_Thrown",
      "nodes": [
        0
      ]
    }
  ],
  "nodes": [
    {
      "name": "WEAPONS",
      "translation": [
        0,
        0,
        0
      ],
      "rotation": [
        0.7071056365966797,
        0,
        0,
        0.7071079257745626
      ],
      "scale": [
        1,
        1,
        1
      ],
      "children": [
        1
      ]
    },
    {
      "name": "Weapon_1H_Thrown",
      "translation": [
        0,
        0,
        0
      ],
      "rotation": [
        0,
        0,
        0,
        1
      ],
      "scale": [
        1,
        1,
        1
      ],
      "mesh": 0
    }
  ],
  "meshes": [
    {
      "name": "Weapon_1H_Thrown",
      "primitives": [
        {
          "attributes": {
            "POSITION": 0,
            "NORMAL": 1,
            "TEXCOORD_0": 2,
            "TEXCOORD_1": 3
          },
          "indices": 4,
          "material": 0,
          "mode": 4
        }
      ]
    }
  ],
  "materials": [
    {
      "name": "Gradmat_Weapon3",
      "pbrMetallicRoughness": {
        "baseColorFactor": [
          1,
          1,
          1,
          1
        ],
        "metallicFactor": 0,
        "roughnessFactor": 1
      },
      "doubleSided": true,
      "extras": {
        "diffuseTexture": "Character/Common/Texture/CustomGradient_WeaponALL.png",
        "specularTexture": null,
        "normalMap": null
      }
    }
  ],
  "buffers": [
    {
      "uri": "Weapon_1H_Thrown.bin",
      "byteLength": 16144
    }
  ],
  "bufferViews": [
    {
      "buffer": 0,
      "byteOffset": 0,
      "byteLength": 4224,
      "target": 34962
    },
    {
      "buffer": 0,
      "byteOffset": 4224,
      "byteLength": 4224,
      "target": 34962
    },
    {
      "buffer": 0,
      "byteOffset": 8448,
      "byteLength": 2816,
      "target": 34962
    },
    {
      "buffer": 0,
      "byteOffset": 11264,
      "byteLength": 2816,
      "target": 34962
    },
    {
      "buffer": 0,
      "byteOffset": 14080,
      "byteLength": 2064,
      "target": 34963
    }
  ],
  "accessors": [
    {
      "bufferView": 0,
      "componentType": 5126,
      "count": 352,
      "type": "VEC3",
      "min": [
        -0.04528570547699928,
        -0.25645408034324646,
        -0.09077426791191101
      ],
      "max": [
        0.04528570547699928,
        0.4549168050289154,
        0.09077425301074982
      ]
    },
    {
      "bufferView": 1,
      "componentType": 5126,
      "count": 352,
      "type": "VEC3",
      "min": [
        -0.9998977780342102,
        -0.9893201589584351,
        -0.9997459053993225
      ],
      "max": [
        0.999897837638855,
        0.9755514860153198,
        0.9997459053993225
      ]
    },
    {
      "bufferView": 2,
      "componentType": 5126,
      "count": 352,
      "type": "VEC2",
      "min": [
        0.07081183791160583,
        0.4244687557220459
      ],
      "max": [
        0.3368641436100006,
        0.7228211164474487
      ]
    },
    {
      "bufferView": 3,
      "componentType": 5126,
      "count": 352,
      "type": "VEC2",
      "min": [
        0.0490228533744812,
        0.10196137428283691
      ],
      "max": [
        0.9056891202926636,
        0.9590511322021484
      ]
    },
    {
      "bufferView": 4,
      "componentType": 5123,
      "count": 1032,
      "type": "SCALAR",
      "min": [
        0
      ],
      "max": [
        351
      ]
    }
  ],
  "extras": {
    "manifest": "Weapon_1H_Thrown.materials.json"
  }
}