{
  "asset": {
    "version": "2.0",
    "generator": "prefab-to-gltf"
  },
  "scene": 0,
  "scenes": [
    {
      "name": "Weapon_2H_Spear",
      "nodes": [
        0
      ]
    }
  ],
  "nodes": [
    {
      "name": "WEAPONS",
      "translation": [
        0,
        0,
        0
      ],
      "rotation": [
        0.7071056365966797,
        0,
        0,
        0.7071079257745626
      ],
      "scale": [
        1,
        1,
        1
      ],
      "children": [
        1
      ]
    },
    {
      "name": "Weapon_2H_Spear",
      "translation": [
        0,
        0,
        0
      ],
      "rotation": [
        0,
        0,
        0,
        1
      ],
      "scale": [
        1,
        1,
        1
      ],
      "mesh": 0
    }
  ],
  "meshes": [
    {
      "name": "Weapon_2H_Spear",
      "primitives": [
        {
          "attributes": {
            "POSITION": 0,
            "NORMAL": 1,
            "TEXCOORD_0": 2,
            "TEXCOORD_1": 3
          },
          "indices": 4,
          "material": 0,
          "mode": 4
        }
      ]
    }
  ],
  "materials": [
    {
      "name": "Gradmat_Weapon3",
      "pbrMetallicRoughness": {
        "baseColorFactor": [
          1,
          1,
          1,
          1
        ],
        "metallicFactor": 0,
        "roughnessFactor": 1
      },
      "doubleSided": true,
      "extras": {
        "diffuseTexture": "Character/Common/Texture/CustomGradient_WeaponALL.png",
        "specularTexture": null,
        "normalMap": null
      }
    }
  ],
  "buffers": [
    {
      "uri": "Weapon_2H_Spear.bin",
      "byteLength": 18312
    }
  ],
  "bufferViews": [
    {
      "buffer": 0,
      "byteOffset": 0,
      "byteLength": 4788,
      "target": 34962
    },
    {
      "buffer": 0,
      "byteOffset": 4788,
      "byteLength": 4788,
      "target": 34962
    },
    {
      "buffer": 0,
      "byteOffset": 9576,
      "byteLength": 3192,
      "target": 34962
    },
    {
      "buffer": 0,
      "byteOffset": 12768,
      "byteLength": 3192,
      "target": 34962
    },
    {
      "buffer": 0,
      "byteOffset": 15960,
      "byteLength": 2352,
      "target": 34963
    }
  ],
  "accessors": [
    {
      "bufferView": 0,
      "componentType": 5126,
      "count": 399,
      "type": "VEC3",
      "min": [
        -0.0664520189166069,
        -0.6908820271492004,
        -0.20987644791603088
      ],
      "max": [
        0.0664520189166069,
        1.83005952835083,
        0.20987604558467865
      ]
    },
    {
      "bufferView": 1,
      "componentType": 5126,
      "count": 399,
      "type": "VEC3",
      "min": [
        -1,
        -1,
        -0.9998644590377808
      ],
      "max": [
        1,
        1,
        0.9998644590377808
      ]
    },
    {
      "bufferView": 2,
      "componentType": 5126,
      "count": 399,
      "type": "VEC2",
      "min": [
        0.0785117819905281,
        0.0985647439956665
      ],
      "max": [
        0.34099891781806946,
        0.8006722331047058
      ]
    },
    {
      "bufferView": 3,
      "componentType": 5126,
      "count": 399,
      "type": "VEC2",
      "min": [
        0.032101988792419434,
        0.9692206382751465
      ],
      "max": [
        0.032101988792419434,
        0.9692206382751465
      ]
    },
    {
      "bufferView": 4,
      "componentType": 5123,
      "count": 1176,
      "type": "SCALAR",
      "min": [
        0
      ],
      "max": [
        398
      ]
    }
  ],
  "extras": {
    "manifest": "Weapon_2H_Spear.materials.json"
  }
}