{
  "asset": {
    "version": "2.0",
    "generator": "prefab-to-gltf"
  },
  "scene": 0,
  "scenes": [
    {
      "name": "Weapon_2H_Staff",
      "nodes": [
        0
      ]
    }
  ],
  "nodes": [
    {
      "name": "Weapon_2H_Staff",
      "translation": [
        0,
        0,
        0
      ],
      "rotation": [
        0,
        0,
        0,
        1
      ],
      "scale": [
        1,
        1,
        1
      ],
      "mesh": 0
    }
  ],
  "meshes": [
    {
      "name": "Weapon_2H_Staff",
      "primitives": [
        {
          "attributes": {
            "POSITION": 0,
            "NORMAL": 1,
            "TEXCOORD_0": 2,
            "TEXCOORD_1": 3
          },
          "indices": 4,
          "material": 0,
          "mode": 4
        },
        {
          "attributes": {
            "POSITION": 5,
            "NORMAL": 6,
            "TEXCOORD_0": 7,
            "TEXCOORD_1": 8
          },
          "indices": 9,
          "material": 1,
          "mode": 4
        }
      ]
    }
  ],
  "materials": [
    {
      "name": "MatSlots_WEAPONS_001",
      "pbrMetallicRoughness": {
        "baseColorFactor": [
          1,
          1,
          1,
          1
        ],
        "metallicFactor": 0,
        "roughnessFactor": 1
      },
      "doubleSided": true,
      "extras": {
        "diffuseTexture": null,
        "specularTexture": null,
        "normalMap": null
      }
    },
    {
      "name": "Outline_002",
      "pbrMetallicRoughness": {
        "baseColorFactor": [
          1,
          1,
          1,
          1
        ],
        "metallicFactor": 0,
        "roughnessFactor": 1
      },
      "doubleSided": true,
      "extras": {
        "diffuseTexture": null,
        "specularTexture": null,
        "normalMap": null
      }
    }
  ],
  "buffers": [
    {
      "uri": "Weapon_2H_Staff.bin",
      "byteLength": 132744
    }
  ],
  "bufferViews": [
    {
      "buffer": 0,
      "byteOffset": 0,
      "byteLength": 18216,
      "target": 34962
    },
    {
      "buffer": 0,
      "byteOffset": 18216,
      "byteLength": 18216,
      "target": 34962
    },
    {
      "buffer": 0,
      "byteOffset": 36432,
      "byteLength": 12144,
      "target": 34962
    },
    {
      "buffer": 0,
      "byteOffset": 48576,
      "byteLength": 12144,
      "target": 34962
    },
    {
      "buffer": 0,
      "byteOffset": 60720,
      "byteLength": 5652,
      "target": 34963
    },
    {
      "buffer": 0,
      "byteOffset": 66372,
      "byteLength": 18216,
      "target": 34962
    },
    {
      "buffer": 0,
      "byteOffset": 84588,
      "byteLength": 18216,
      "target": 34962
    },
    {
      "buffer": 0,
      "byteOffset": 102804,
      "byteLength": 12144,
      "target": 34962
    },
    {
      "buffer": 0,
      "byteOffset": 114948,
      "byteLength": 12144,
      "target": 34962
    },
    {
      "buffer": 0,
      "byteOffset": 127092,
      "byteLength": 5652,
      "target": 34963
    }
  ],
  "accessors": [
    {
      "bufferView": 0,
      "componentType": 5126,
      "count": 1518,
      "type": "VEC3",
      "min": [
        -0.2215634435415268,
        -0.2326282262802124,
        -0.6865683794021606
      ],
      "max": [
        0.20920035243034363,
        0.198135644197464,
        1.8464962244033813
      ]
    },
    {
      "bufferView": 1,
      "componentType": 5126,
      "count": 1518,
      "type": "VEC3",
      "min": [
        -0.9999995231628418,
        -0.9999999403953552,
        -1
      ],
      "max": [
        0.9999992847442627,
        0.9999999403953552,
        1
      ]
    },
    {
      "bufferView": 2,
      "componentType": 5126,
      "count": 1518,
      "type": "VEC2",
      "min": [
        0.05678074061870575,
        0.04664909839630127
      ],
      "max": [
        0.4779907166957855,
        0.7171169519424438
      ]
    },
    {
      "bufferView": 3,
      "componentType": 5126,
      "count": 1518,
      "type": "VEC2",
      "min": [
        0.04603096842765808,
        0.9427616596221924
      ],
      "max": [
        0.04603096842765808,
        0.9427616596221924
      ]
    },
    {
      "bufferView": 4,
      "componentType": 5123,
      "count": 2826,
      "type": "SCALAR",
      "min": [
        0
      ],
      "max": [
        758
      ]
    },
    {
      "bufferView": 5,
      "componentType": 5126,
      "count": 1518,
      "type": "VEC3",
      "min": [
        -0.2215634435415268,
        -0.2326282262802124,
        -0.6865683794021606
      ],
      "max": [
        0.20920035243034363,
        0.198135644197464,
        1.8464962244033813
      ]
    },
    {
      "bufferView": 6,
      "componentType": 5126,
      "count": 1518,
      "type": "VEC3",
      "min": [
        -0.9999995231628418,
        -0.9999999403953552,
        -1
      ],
      "max": [
        0.9999992847442627,
        0.9999999403953552,
        1
      ]
    },
    {
      "bufferView": 7,
      "componentType": 5126,
      "count": 1518,
      "type": "VEC2",
      "min": [
        0.05678074061870575,
        0.04664909839630127
      ],
      "max": [
        0.4779907166957855,
        0.7171169519424438
      ]
    },
    {
      "bufferView": 8,
      "componentType": 5126,
      "count": 1518,
      "type": "VEC2",
      "min": [
        0.04603096842765808,
        0.9427616596221924
      ],
      "max": [
        0.04603096842765808,
        0.9427616596221924
      ]
    },
    {
      "bufferView": 9,
      "componentType": 5123,
      "count": 2826,
      "type": "SCALAR",
      "min": [
        0
      ],
      "max": [
        1517
      ]
    }
  ],
  "extras": {
    "manifest": "Weapon_2H_Staff.materials.json"
  }
}