{
  "asset": {
    "version": "2.0",
    "generator": "prefab-to-gltf"
  },
  "scene": 0,
  "scenes": [
    {
      "name": "Weapon_1H_Sword",
      "nodes": [
        0
      ]
    }
  ],
  "nodes": [
    {
      "name": "Weapon_1HH_DualSword_R",
      "translation": [
        0,
        0,
        0
      ],
      "rotation": [
        0,
        0,
        0,
        1
      ],
      "scale": [
        1,
        1,
        1
      ],
      "mesh": 0,
      "children": [
        1
      ]
    },
    {
      "name": "WEAPONS",
      "translation": [
        0,
        0,
        0
      ],
      "rotation": [
        0.7071056365966797,
        0,
        0,
        0.7071079257745626
      ],
      "scale": [
        1,
        1,
        1
      ]
    }
  ],
  "meshes": [
    {
      "name": "Weapon_1HH_DualSword_R",
      "primitives": [
        {
          "attributes": {
            "POSITION": 0,
            "NORMAL": 1,
            "TEXCOORD_0": 2,
            "TEXCOORD_1": 3
          },
          "indices": 4,
          "material": 0,
          "mode": 4
        }
      ]
    }
  ],
  "materials": [
    {
      "name": "Gradmat_Weapon",
      "pbrMetallicRoughness": {
        "baseColorFactor": [
          1,
          1,
          1,
          1
        ],
        "metallicFactor": 0,
        "roughnessFactor": 1
      },
      "doubleSided": true,
      "extras": {
        "diffuseTexture": "Character/Common/Texture/CustomGradient_WeaponALL.png",
        "specularTexture": null,
        "normalMap": null
      }
    }
  ],
  "buffers": [
    {
      "uri": "Weapon_1H_Sword.bin",
      "byteLength": 24864
    }
  ],
  "bufferViews": [
    {
      "buffer": 0,
      "byteOffset": 0,
      "byteLength": 6516,
      "target": 34962
    },
    {
      "buffer": 0,
      "byteOffset": 6516,
      "byteLength": 6516,
      "target": 34962
    },
    {
      "buffer": 0,
      "byteOffset": 13032,
      "byteLength": 4344,
      "target": 34962
    },
    {
      "buffer": 0,
      "byteOffset": 17376,
      "byteLength": 4344,
      "target": 34962
    },
    {
      "buffer": 0,
      "byteOffset": 21720,
      "byteLength": 3144,
      "target": 34963
    }
  ],
  "accessors": [
    {
      "bufferView": 0,
      "componentType": 5126,
      "count": 543,
      "type": "VEC3",
      "min": [
        -0.04897519201040268,
        -0.3137332499027252,
        -0.1975005716085434
      ],
      "max": [
        0.04897519201040268,
        1.1382324695587158,
        0.19750045239925385
      ]
    },
    {
      "bufferView": 1,
      "componentType": 5126,
      "count": 543,
      "type": "VEC3",
      "min": [
        -1,
        -1,
        -0.9999919533729553
      ],
      "max": [
        1,
        1,
        0.9999919533729553
      ]
    },
    {
      "bufferView": 2,
      "componentType": 5126,
      "count": 543,
      "type": "VEC2",
      "min": [
        0.06542481482028961,
        0.14656180143356323
      ],
      "max": [
        0.4627506136894226,
        0.7639623284339905
      ]
    },
    {
      "bufferView": 3,
      "componentType": 5126,
      "count": 543,
      "type": "VEC2",
      "min": [
        0.027500687167048454,
        0.11530977487564087
      ],
      "max": [
        0.9489806890487671,
        0.9648158550262451
      ]
    },
    {
      "bufferView": 4,
      "componentType": 5123,
      "count": 1572,
      "type": "SCALAR",
      "min": [
        0
      ],
      "max": [
        542
      ]
    }
  ],
  "extras": {
    "manifest": "Weapon_1H_Sword.materials.json"
  }
}