{
  "asset": {
    "version": "2.0",
    "generator": "prefab-to-gltf"
  },
  "scene": 0,
  "scenes": [
    {
      "name": "Weapon_1H_Scepter",
      "nodes": [
        0
      ]
    }
  ],
  "nodes": [
    {
      "name": "WEAPONS",
      "translation": [
        0,
        0,
        0
      ],
      "rotation": [
        0.7071056365966797,
        0,
        0,
        0.7071079257745626
      ],
      "scale": [
        1,
        1,
        1
      ],
      "children": [
        1
      ]
    },
    {
      "name": "Weapon_1H_Scepter",
      "translation": [
        0,
        0,
        0
      ],
      "rotation": [
        0,
        0,
        0,
        1
      ],
      "scale": [
        1,
        1,
        1
      ],
      "mesh": 0
    }
  ],
  "meshes": [
    {
      "name": "Weapon_1H_Scepter",
      "primitives": [
        {
          "attributes": {
            "POSITION": 0,
            "NORMAL": 1,
            "TEXCOORD_0": 2,
            "TEXCOORD_1": 3
          },
          "indices": 4,
          "material": 0,
          "mode": 4
        }
      ]
    }
  ],
  "materials": [
    {
      "name": "Gradmat_Weapon2",
      "pbrMetallicRoughness": {
        "baseColorFactor": [
          1,
          1,
          1,
          1
        ],
        "metallicFactor": 0,
        "roughnessFactor": 1
      },
      "doubleSided": true,
      "extras": {
        "diffuseTexture": "Character/Common/Texture/CustomGradient_WeaponALL.png",
        "specularTexture": null,
        "normalMap": null
      }
    }
  ],
  "buffers": [
    {
      "uri": "Weapon_1H_Scepter.bin",
      "byteLength": 34888
    }
  ],
  "bufferViews": [
    {
      "buffer": 0,
      "byteOffset": 0,
      "byteLength": 9084,
      "target": 34962
    },
    {
      "buffer": 0,
      "byteOffset": 9084,
      "byteLength": 9084,
      "target": 34962
    },
    {
      "buffer": 0,
      "byteOffset": 18168,
      "byteLength": 6056,
      "target": 34962
    },
    {
      "buffer": 0,
      "byteOffset": 24224,
      "byteLength": 6056,
      "target": 34962
    },
    {
      "buffer": 0,
      "byteOffset": 30280,
      "byteLength": 4608,
      "target": 34963
    }
  ],
  "accessors": [
    {
      "bufferView": 0,
      "componentType": 5126,
      "count": 757,
      "type": "VEC3",
      "min": [
        -0.06891518831253052,
        -0.4168693423271179,
        -0.27873578667640686
      ],
      "max": [
        0.06705531477928162,
        0.9500578045845032,
        0.2979597747325897
      ]
    },
    {
      "bufferView": 1,
      "componentType": 5126,
      "count": 757,
      "type": "VEC3",
      "min": [
        -1,
        -1,
        -0.999865710735321
      ],
      "max": [
        1,
        1,
        0.9999849200248718
      ]
    },
    {
      "bufferView": 2,
      "componentType": 5126,
      "count": 757,
      "type": "VEC2",
      "min": [
        0.03872169554233551,
        0.05655980110168457
      ],
      "max": [
        0.4773346781730652,
        0.7079989314079285
      ]
    },
    {
      "bufferView": 3,
      "componentType": 5126,
      "count": 757,
      "type": "VEC2",
      "min": [
        0.06507354974746704,
        0.9470707178115845
      ],
      "max": [
        0.06507354974746704,
        0.9470707178115845
      ]
    },
    {
      "bufferView": 4,
      "componentType": 5123,
      "count": 2304,
      "type": "SCALAR",
      "min": [
        0
      ],
      "max": [
        756
      ]
    }
  ],
  "extras": {
    "manifest": "Weapon_1H_Scepter.materials.json"
  }
}