{
  "asset": {
    "version": "2.0",
    "generator": "prefab-to-gltf"
  },
  "scene": 0,
  "scenes": [
    {
      "name": "Weapon_1H_DualMace",
      "nodes": [
        0
      ]
    }
  ],
  "nodes": [
    {
      "name": "Weapon_1H_DualMace_R",
      "translation": [
        0,
        0,
        0
      ],
      "rotation": [
        0.7071056365966797,
        0,
        0,
        0.7071079257745626
      ],
      "scale": [
        1,
        1,
        1
      ],
      "mesh": 0
    }
  ],
  "meshes": [
    {
      "name": "Weapon_1H_DualMace_R",
      "primitives": [
        {
          "attributes": {
            "POSITION": 0,
            "NORMAL": 1,
            "TEXCOORD_0": 2,
            "TEXCOORD_1": 3
          },
          "indices": 4,
          "material": 0,
          "mode": 4
        }
      ]
    }
  ],
  "materials": [
    {
      "name": "Gradmat_Weapon",
      "pbrMetallicRoughness": {
        "baseColorFactor": [
          1,
          1,
          1,
          1
        ],
        "metallicFactor": 0,
        "roughnessFactor": 1
      },
      "doubleSided": true,
      "extras": {
        "diffuseTexture": "Character/Common/Texture/CustomGradient_WeaponALL.png",
        "specularTexture": null,
        "normalMap": null
      }
    }
  ],
  "buffers": [
    {
      "uri": "Weapon_1H_DualMace.bin",
      "byteLength": 41380
    }
  ],
  "bufferViews": [
    {
      "buffer": 0,
      "byteOffset": 0,
      "byteLength": 10884,
      "target": 34962
    },
    {
      "buffer": 0,
      "byteOffset": 10884,
      "byteLength": 10884,
      "target": 34962
    },
    {
      "buffer": 0,
      "byteOffset": 21768,
      "byteLength": 7256,
      "target": 34962
    },
    {
      "buffer": 0,
      "byteOffset": 29024,
      "byteLength": 7256,
      "target": 34962
    },
    {
      "buffer": 0,
      "byteOffset": 36280,
      "byteLength": 5100,
      "target": 34963
    }
  ],
  "accessors": [
    {
      "bufferView": 0,
      "componentType": 5126,
      "count": 907,
      "type": "VEC3",
      "min": [
        -0.21851322054862976,
        -0.4205244481563568,
        -0.21851328015327454
      ],
      "max": [
        0.21851322054862976,
        0.7662444114685059,
        0.21851302683353424
      ]
    },
    {
      "bufferView": 1,
      "componentType": 5126,
      "count": 907,
      "type": "VEC3",
      "min": [
        -0.9999937415122986,
        -1,
        -1
      ],
      "max": [
        0.9999937415122986,
        1,
        1
      ]
    },
    {
      "bufferView": 2,
      "componentType": 5126,
      "count": 907,
      "type": "VEC2",
      "min": [
        0.03767487406730652,
        0.26257044076919556
      ],
      "max": [
        0.3695143461227417,
        0.6822125911712646
      ]
    },
    {
      "bufferView": 3,
      "componentType": 5126,
      "count": 907,
      "type": "VEC2",
      "min": [
        0.05275392532348633,
        0.9352471828460693
      ],
      "max": [
        0.05275392532348633,
        0.9352471828460693
      ]
    },
    {
      "bufferView": 4,
      "componentType": 5123,
      "count": 2550,
      "type": "SCALAR",
      "min": [
        0
      ],
      "max": [
        906
      ]
    }
  ],
  "extras": {
    "manifest": "Weapon_1H_DualMace.materials.json"
  }
}