{
  "asset": {
    "version": "2.0",
    "generator": "prefab-to-gltf"
  },
  "scene": 0,
  "scenes": [
    {
      "name": "Weapon_1H_Shield",
      "nodes": [
        0
      ]
    }
  ],
  "nodes": [
    {
      "name": "Shield_01",
      "translation": [
        0,
        0,
        0
      ],
      "rotation": [
        0.7071056365966797,
        0,
        0,
        0.7071079257745626
      ],
      "scale": [
        1,
        1,
        1
      ],
      "mesh": 0
    }
  ],
  "meshes": [
    {
      "name": "Shield_01",
      "primitives": [
        {
          "attributes": {
            "POSITION": 0,
            "NORMAL": 1,
            "TEXCOORD_0": 2,
            "TEXCOORD_1": 3
          },
          "indices": 4,
          "material": 0,
          "mode": 4
        }
      ]
    }
  ],
  "materials": [
    {
      "name": "Gradmat_Weapon",
      "pbrMetallicRoughness": {
        "baseColorFactor": [
          1,
          1,
          1,
          1
        ],
        "metallicFactor": 0,
        "roughnessFactor": 1
      },
      "doubleSided": true,
      "extras": {
        "diffuseTexture": "Character/Common/Texture/CustomGradient_WeaponALL.png",
        "specularTexture": null,
        "normalMap": null
      }
    }
  ],
  "buffers": [
    {
      "uri": "Weapon_1H_Shield.bin",
      "byteLength": 66068
    }
  ],
  "bufferViews": [
    {
      "buffer": 0,
      "byteOffset": 0,
      "byteLength": 17484,
      "target": 34962
    },
    {
      "buffer": 0,
      "byteOffset": 17484,
      "byteLength": 17484,
      "target": 34962
    },
    {
      "buffer": 0,
      "byteOffset": 34968,
      "byteLength": 11656,
      "target": 34962
    },
    {
      "buffer": 0,
      "byteOffset": 46624,
      "byteLength": 11656,
      "target": 34962
    },
    {
      "buffer": 0,
      "byteOffset": 58280,
      "byteLength": 7788,
      "target": 34963
    }
  ],
  "accessors": [
    {
      "bufferView": 0,
      "componentType": 5126,
      "count": 1457,
      "type": "VEC3",
      "min": [
        -0.44334056973457336,
        -0.3978174328804016,
        -0.22477751970291138
      ],
      "max": [
        0.3807264268398285,
        0.42310795187950134,
        0.18506592512130737
      ]
    },
    {
      "bufferView": 1,
      "componentType": 5126,
      "count": 1457,
      "type": "VEC3",
      "min": [
        -0.9999436736106873,
        -0.9999988079071045,
        -1
      ],
      "max": [
        0.9999426007270813,
        0.9999987483024597,
        1
      ]
    },
    {
      "bufferView": 2,
      "componentType": 5126,
      "count": 1457,
      "type": "VEC2",
      "min": [
        0.06890270113945007,
        0.24405592679977417
      ],
      "max": [
        0.19351544976234436,
        0.8053922057151794
      ]
    },
    {
      "bufferView": 3,
      "componentType": 5126,
      "count": 1457,
      "type": "VEC2",
      "min": [
        0.029663167893886566,
        0.11935722827911377
      ],
      "max": [
        0.3453875184059143,
        0.9675844311714172
      ]
    },
    {
      "bufferView": 4,
      "componentType": 5123,
      "count": 3894,
      "type": "SCALAR",
      "min": [
        0
      ],
      "max": [
        1456
      ]
    }
  ],
  "extras": {
    "manifest": "Weapon_1H_Shield.materials.json"
  }
}