{
  "asset": {
    "version": "2.0",
    "generator": "prefab-to-gltf"
  },
  "scene": 0,
  "scenes": [
    {
      "name": "Weapon_1H_DualAxe",
      "nodes": [
        0
      ]
    }
  ],
  "nodes": [
    {
      "name": "Weapon_1H_DualAxe_R",
      "translation": [
        0,
        0,
        0
      ],
      "rotation": [
        0.7071056365966797,
        0,
        0,
        0.7071079257745626
      ],
      "scale": [
        1,
        1,
        1
      ],
      "mesh": 0
    }
  ],
  "meshes": [
    {
      "name": "Weapon_1H_DualAxe_R",
      "primitives": [
        {
          "attributes": {
            "POSITION": 0,
            "NORMAL": 1,
            "TEXCOORD_0": 2,
            "TEXCOORD_1": 3
          },
          "indices": 4,
          "material": 0,
          "mode": 4
        }
      ]
    }
  ],
  "materials": [
    {
      "name": "Gradmat_Weapon",
      "pbrMetallicRoughness": {
        "baseColorFactor": [
          1,
          1,
          1,
          1
        ],
        "metallicFactor": 0,
        "roughnessFactor": 1
      },
      "doubleSided": true,
      "extras": {
        "diffuseTexture": "Character/Common/Texture/CustomGradient_WeaponALL.png",
        "specularTexture": null,
        "normalMap": null
      }
    }
  ],
  "buffers": [
    {
      "uri": "Weapon_1H_DualAxe.bin",
      "byteLength": 14340
    }
  ],
  "bufferViews": [
    {
      "buffer": 0,
      "byteOffset": 0,
      "byteLength": 3708,
      "target": 34962
    },
    {
      "buffer": 0,
      "byteOffset": 3708,
      "byteLength": 3708,
      "target": 34962
    },
    {
      "buffer": 0,
      "byteOffset": 7416,
      "byteLength": 2472,
      "target": 34962
    },
    {
      "buffer": 0,
      "byteOffset": 9888,
      "byteLength": 2472,
      "target": 34962
    },
    {
      "buffer": 0,
      "byteOffset": 12360,
      "byteLength": 1980,
      "target": 34963
    }
  ],
  "accessors": [
    {
      "bufferView": 0,
      "componentType": 5126,
      "count": 309,
      "type": "VEC3",
      "min": [
        -0.0700898990035057,
        -0.3666438162326813,
        -0.16019092500209808
      ],
      "max": [
        0.07008982449769974,
        0.7103040218353271,
        0.39774516224861145
      ]
    },
    {
      "bufferView": 1,
      "componentType": 5126,
      "count": 309,
      "type": "VEC3",
      "min": [
        -1,
        -0.9999132752418518,
        -0.9428529143333435
      ],
      "max": [
        1,
        0.9987990260124207,
        0.9375311136245728
      ]
    },
    {
      "bufferView": 2,
      "componentType": 5126,
      "count": 309,
      "type": "VEC2",
      "min": [
        0.04229790344834328,
        0.2217835783958435
      ],
      "max": [
        0.21163156628608704,
        0.7297809720039368
      ]
    },
    {
      "bufferView": 3,
      "componentType": 5126,
      "count": 309,
      "type": "VEC2",
      "min": [
        0.06302151083946228,
        0.026927709579467773
      ],
      "max": [
        0.941963791847229,
        0.948601484298706
      ]
    },
    {
      "bufferView": 4,
      "componentType": 5123,
      "count": 990,
      "type": "SCALAR",
      "min": [
        0
      ],
      "max": [
        308
      ]
    }
  ],
  "extras": {
    "manifest": "Weapon_1H_DualAxe.materials.json"
  }
}