{
  "asset": {
    "version": "2.0",
    "generator": "prefab-to-gltf"
  },
  "scene": 0,
  "scenes": [
    {
      "name": "Weapon_1H_Fist",
      "nodes": [
        0
      ]
    }
  ],
  "nodes": [
    {
      "name": "Weapon_1H_Fist_R",
      "translation": [
        0,
        0,
        0
      ],
      "rotation": [
        0.7071056365966797,
        0,
        0,
        0.7071079257745626
      ],
      "scale": [
        1,
        1,
        1
      ],
      "mesh": 0
    }
  ],
  "meshes": [
    {
      "name": "Weapon_1H_Fist_R",
      "primitives": [
        {
          "attributes": {
            "POSITION": 0,
            "NORMAL": 1,
            "TEXCOORD_0": 2,
            "TEXCOORD_1": 3
          },
          "indices": 4,
          "material": 0,
          "mode": 4
        }
      ]
    }
  ],
  "materials": [
    {
      "name": "Gradmat_Weapon",
      "pbrMetallicRoughness": {
        "baseColorFactor": [
          1,
          1,
          1,
          1
        ],
        "metallicFactor": 0,
        "roughnessFactor": 1
      },
      "doubleSided": true,
      "extras": {
        "diffuseTexture": "Character/Common/Texture/CustomGradient_WeaponALL.png",
        "specularTexture": null,
        "normalMap": null
      }
    }
  ],
  "buffers": [
    {
      "uri": "Weapon_1H_Fist.bin",
      "byteLength": 84988
    }
  ],
  "bufferViews": [
    {
      "buffer": 0,
      "byteOffset": 0,
      "byteLength": 22188,
      "target": 34962
    },
    {
      "buffer": 0,
      "byteOffset": 22188,
      "byteLength": 22188,
      "target": 34962
    },
    {
      "buffer": 0,
      "byteOffset": 44376,
      "byteLength": 14792,
      "target": 34962
    },
    {
      "buffer": 0,
      "byteOffset": 59168,
      "byteLength": 14792,
      "target": 34962
    },
    {
      "buffer": 0,
      "byteOffset": 73960,
      "byteLength": 11028,
      "target": 34963
    }
  ],
  "accessors": [
    {
      "bufferView": 0,
      "componentType": 5126,
      "count": 1849,
      "type": "VEC3",
      "min": [
        -0.2106856405735016,
        -0.43256306648254395,
        -0.20878437161445618
      ],
      "max": [
        0.2195921689271927,
        0.2285284399986267,
        0.21574176847934723
      ]
    },
    {
      "bufferView": 1,
      "componentType": 5126,
      "count": 1849,
      "type": "VEC3",
      "min": [
        -0.9998486042022705,
        -1,
        -0.9999528527259827
      ],
      "max": [
        0.9998621344566345,
        1,
        0.9999528527259827
      ]
    },
    {
      "bufferView": 2,
      "componentType": 5126,
      "count": 1849,
      "type": "VEC2",
      "min": [
        0.1670781373977661,
        0.3411977291107178
      ],
      "max": [
        0.33879026770591736,
        0.8798118829727173
      ]
    },
    {
      "bufferView": 3,
      "componentType": 5126,
      "count": 1849,
      "type": "VEC2",
      "min": [
        0.058827877044677734,
        0.9613485932350159
      ],
      "max": [
        0.058827877044677734,
        0.9613485932350159
      ]
    },
    {
      "bufferView": 4,
      "componentType": 5123,
      "count": 5514,
      "type": "SCALAR",
      "min": [
        0
      ],
      "max": [
        1848
      ]
    }
  ],
  "extras": {
    "manifest": "Weapon_1H_Fist.materials.json"
  }
}