{
  "asset": {
    "version": "2.0",
    "generator": "prefab-to-gltf"
  },
  "scene": 0,
  "scenes": [
    {
      "name": "Pork_Boar_Black",
      "nodes": [
        0
      ]
    }
  ],
  "nodes": [
    {
      "name": "Pork_Boar",
      "translation": [
        0,
        0,
        0
      ],
      "rotation": [
        0,
        0,
        0,
        1
      ],
      "scale": [
        1,
        1,
        1
      ],
      "mesh": 0
    }
  ],
  "meshes": [
    {
      "name": "Pork_Boar",
      "primitives": [
        {
          "attributes": {
            "POSITION": 0,
            "NORMAL": 1,
            "TEXCOORD_0": 2,
            "TEXCOORD_1": 3,
            "COLOR_0": 4
          },
          "indices": 5,
          "material": 0,
          "mode": 4
        }
      ]
    }
  ],
  "materials": [
    {
      "name": "MatSlots",
      "pbrMetallicRoughness": {
        "baseColorFactor": [
          1,
          1,
          1,
          1
        ],
        "metallicFactor": 0,
        "roughnessFactor": 1
      },
      "doubleSided": true,
      "extras": {
        "diffuseTexture": "Character/Common/Texture/CustomGradient_WeaponALL.png",
        "specularTexture": null,
        "normalMap": null
      }
    }
  ],
  "buffers": [
    {
      "uri": "Pork_Boar_Black.bin",
      "byteLength": 330930
    }
  ],
  "bufferViews": [
    {
      "buffer": 0,
      "byteOffset": 0,
      "byteLength": 65952,
      "target": 34962
    },
    {
      "buffer": 0,
      "byteOffset": 65952,
      "byteLength": 65952,
      "target": 34962
    },
    {
      "buffer": 0,
      "byteOffset": 131904,
      "byteLength": 43968,
      "target": 34962
    },
    {
      "buffer": 0,
      "byteOffset": 175872,
      "byteLength": 43968,
      "target": 34962
    },
    {
      "buffer": 0,
      "byteOffset": 219840,
      "byteLength": 65952,
      "target": 34962
    },
    {
      "buffer": 0,
      "byteOffset": 285792,
      "byteLength": 45138,
      "target": 34963
    }
  ],
  "accessors": [
    {
      "bufferView": 0,
      "componentType": 5126,
      "count": 5496,
      "type": "VEC3",
      "min": [
        -0.8495864868164062,
        -0.003028200939297676,
        -1.7421860694885254
      ],
      "max": [
        0.8495864868164062,
        2.776141881942749,
        2.3438057899475098
      ]
    },
    {
      "bufferView": 1,
      "componentType": 5126,
      "count": 5496,
      "type": "VEC3",
      "min": [
        -0.9998674392700195,
        -1,
        -0.9999876022338867
      ],
      "max": [
        0.9998677372932434,
        0.999966561794281,
        0.999615490436554
      ]
    },
    {
      "bufferView": 2,
      "componentType": 5126,
      "count": 5496,
      "type": "VEC2",
      "min": [
        0.010182170197367668,
        0.14160680770874023
      ],
      "max": [
        0.6004005074501038,
        0.9877899885177612
      ]
    },
    {
      "bufferView": 3,
      "componentType": 5126,
      "count": 5496,
      "type": "VEC2",
      "min": [
        0,
        0.12220257520675659
      ],
      "max": [
        0.9741442799568176,
        1
      ]
    },
    {
      "bufferView": 4,
      "componentType": 5126,
      "count": 4122,
      "type": "VEC4",
      "min": [
        0,
        0,
        0,
        0
      ],
      "max": [
        1,
        1,
        1,
        1
      ]
    },
    {
      "bufferView": 5,
      "componentType": 5123,
      "count": 22569,
      "type": "SCALAR",
      "min": [
        0
      ],
      "max": [
        5495
      ]
    }
  ],
  "extras": {
    "manifest": "Pork_Boar_Black.materials.json"
  }
}