{
  "asset": {
    "version": "2.0",
    "generator": "prefab-to-gltf"
  },
  "scene": 0,
  "scenes": [
    {
      "name": "Pork_SkunkWild_Elite",
      "nodes": [
        0
      ]
    }
  ],
  "nodes": [
    {
      "name": "Skunk_Wild",
      "translation": [
        0,
        0,
        0
      ],
      "rotation": [
        0,
        0,
        0,
        1
      ],
      "scale": [
        1,
        1,
        1
      ],
      "mesh": 0
    }
  ],
  "meshes": [
    {
      "name": "Skunk_Wild",
      "primitives": [
        {
          "attributes": {
            "POSITION": 0,
            "NORMAL": 1,
            "TEXCOORD_0": 2,
            "TEXCOORD_1": 3
          },
          "indices": 4,
          "material": 0,
          "mode": 4
        }
      ]
    }
  ],
  "materials": [
    {
      "name": "MatSlots",
      "pbrMetallicRoughness": {
        "baseColorFactor": [
          1,
          1,
          1,
          1
        ],
        "metallicFactor": 0,
        "roughnessFactor": 1
      },
      "doubleSided": true,
      "extras": {
        "diffuseTexture": "Character/Common/Texture/CustomGradient_WeaponALL.png",
        "specularTexture": null,
        "normalMap": null
      }
    }
  ],
  "buffers": [
    {
      "uri": "Pork_SkunkWild_Elite.bin",
      "byteLength": 321322
    }
  ],
  "bufferViews": [
    {
      "buffer": 0,
      "byteOffset": 0,
      "byteLength": 81804,
      "target": 34962
    },
    {
      "buffer": 0,
      "byteOffset": 81804,
      "byteLength": 81804,
      "target": 34962
    },
    {
      "buffer": 0,
      "byteOffset": 163608,
      "byteLength": 54536,
      "target": 34962
    },
    {
      "buffer": 0,
      "byteOffset": 218144,
      "byteLength": 54536,
      "target": 34962
    },
    {
      "buffer": 0,
      "byteOffset": 272680,
      "byteLength": 48642,
      "target": 34963
    }
  ],
  "accessors": [
    {
      "bufferView": 0,
      "componentType": 5126,
      "count": 6817,
      "type": "VEC3",
      "min": [
        -0.9044340252876282,
        -0.02115102857351303,
        -1.678735613822937
      ],
      "max": [
        0.9044340252876282,
        2.55045485496521,
        2.1513864994049072
      ]
    },
    {
      "bufferView": 1,
      "componentType": 5126,
      "count": 6817,
      "type": "VEC3",
      "min": [
        -0.9998982548713684,
        -0.999981164932251,
        -0.999891459941864
      ],
      "max": [
        0.9998982548713684,
        0.9999997615814209,
        0.9998880624771118
      ]
    },
    {
      "bufferView": 2,
      "componentType": 5126,
      "count": 6817,
      "type": "VEC2",
      "min": [
        0.019402027130126953,
        0.18341487646102905
      ],
      "max": [
        0.4743615686893463,
        0.9877899885177612
      ]
    },
    {
      "bufferView": 3,
      "componentType": 5126,
      "count": 6817,
      "type": "VEC2",
      "min": [
        0,
        0.10786867141723633
      ],
      "max": [
        0.5233281850814819,
        1
      ]
    },
    {
      "bufferView": 4,
      "componentType": 5123,
      "count": 24321,
      "type": "SCALAR",
      "min": [
        0
      ],
      "max": [
        6816
      ]
    }
  ],
  "extras": {
    "manifest": "Pork_SkunkWild_Elite.materials.json"
  }
}