{
  "asset": {
    "version": "2.0",
    "generator": "prefab-to-gltf"
  },
  "scene": 0,
  "scenes": [
    {
      "name": "Pork_SkunkWild_Elite02",
      "nodes": [
        0
      ]
    }
  ],
  "nodes": [
    {
      "name": "Skunk_WILD_ELITE",
      "translation": [
        0,
        0,
        0
      ],
      "rotation": [
        0,
        0,
        0,
        1
      ],
      "scale": [
        1,
        1,
        1
      ],
      "mesh": 0
    }
  ],
  "meshes": [
    {
      "name": "Skunk_WILD_ELITE",
      "primitives": [
        {
          "attributes": {
            "POSITION": 0,
            "NORMAL": 1,
            "TEXCOORD_0": 2,
            "TEXCOORD_1": 3
          },
          "indices": 4,
          "material": 0,
          "mode": 4
        }
      ]
    }
  ],
  "materials": [
    {
      "name": "MatSlots",
      "pbrMetallicRoughness": {
        "baseColorFactor": [
          1,
          1,
          1,
          1
        ],
        "metallicFactor": 0,
        "roughnessFactor": 1
      },
      "doubleSided": true,
      "extras": {
        "diffuseTexture": "Character/Common/Texture/CustomGradient_WeaponALL.png",
        "specularTexture": null,
        "normalMap": null
      }
    }
  ],
  "buffers": [
    {
      "uri": "Pork_SkunkWild_Elite02.bin",
      "byteLength": 340078
    }
  ],
  "bufferViews": [
    {
      "buffer": 0,
      "byteOffset": 0,
      "byteLength": 87276,
      "target": 34962
    },
    {
      "buffer": 0,
      "byteOffset": 87276,
      "byteLength": 87276,
      "target": 34962
    },
    {
      "buffer": 0,
      "byteOffset": 174552,
      "byteLength": 58184,
      "target": 34962
    },
    {
      "buffer": 0,
      "byteOffset": 232736,
      "byteLength": 58184,
      "target": 34962
    },
    {
      "buffer": 0,
      "byteOffset": 290920,
      "byteLength": 49158,
      "target": 34963
    }
  ],
  "accessors": [
    {
      "bufferView": 0,
      "componentType": 5126,
      "count": 7273,
      "type": "VEC3",
      "min": [
        -0.9805698990821838,
        -0.02779460698366165,
        -1.67803156375885
      ],
      "max": [
        0.896419882774353,
        2.585195302963257,
        2.150787591934204
      ]
    },
    {
      "bufferView": 1,
      "componentType": 5126,
      "count": 7273,
      "type": "VEC3",
      "min": [
        -0.9997875690460205,
        -0.9999998807907104,
        -0.999875545501709
      ],
      "max": [
        0.999787449836731,
        0.9999027252197266,
        0.9999117851257324
      ]
    },
    {
      "bufferView": 2,
      "componentType": 5126,
      "count": 7273,
      "type": "VEC2",
      "min": [
        0.019402027130126953,
        0.143044114112854
      ],
      "max": [
        0.9873433113098145,
        0.9877899885177612
      ]
    },
    {
      "bufferView": 3,
      "componentType": 5126,
      "count": 7273,
      "type": "VEC2",
      "min": [
        0,
        0.09918206930160522
      ],
      "max": [
        0.9251558780670166,
        1
      ]
    },
    {
      "bufferView": 4,
      "componentType": 5123,
      "count": 24579,
      "type": "SCALAR",
      "min": [
        0
      ],
      "max": [
        7272
      ]
    }
  ],
  "extras": {
    "manifest": "Pork_SkunkWild_Elite02.materials.json"
  }
}