{
  "asset": {
    "version": "2.0",
    "generator": "prefab-to-gltf"
  },
  "scene": 0,
  "scenes": [
    {
      "name": "Mace_Manfish",
      "nodes": [
        0
      ]
    }
  ],
  "nodes": [
    {
      "name": "model_0",
      "translation": [
        0,
        0,
        0
      ],
      "rotation": [
        0,
        0,
        0,
        1
      ],
      "scale": [
        1,
        1,
        1
      ],
      "children": [
        1,
        2,
        3
      ]
    },
    {
      "name": "Mace_Manfish",
      "translation": [
        0,
        0,
        0
      ],
      "rotation": [
        0,
        0,
        0.7071056365966797,
        0.7071079257745626
      ],
      "scale": [
        1,
        1,
        1
      ],
      "mesh": 0
    },
    {
      "name": "Mace_Manfish_001",
      "translation": [
        0,
        0,
        0
      ],
      "rotation": [
        0,
        0,
        0.7071056365966797,
        0.7071079257745626
      ],
      "scale": [
        1,
        1,
        1
      ],
      "mesh": 1
    },
    {
      "name": "Mace_Manfish_003",
      "translation": [
        0,
        0,
        0
      ],
      "rotation": [
        0,
        0,
        0.7071056365966797,
        0.7071079257745626
      ],
      "scale": [
        1,
        1,
        1
      ],
      "mesh": 2
    }
  ],
  "meshes": [
    {
      "name": "Mace_Manfish",
      "primitives": [
        {
          "attributes": {
            "POSITION": 0,
            "NORMAL": 1,
            "TEXCOORD_0": 2,
            "TEXCOORD_1": 3
          },
          "indices": 4,
          "material": 0,
          "mode": 4
        }
      ]
    },
    {
      "name": "Mace_Manfish_001",
      "primitives": [
        {
          "attributes": {
            "POSITION": 5,
            "NORMAL": 6,
            "TEXCOORD_0": 7,
            "TEXCOORD_1": 8
          },
          "indices": 9,
          "material": 0,
          "mode": 4
        }
      ]
    },
    {
      "name": "Mace_Manfish_003",
      "primitives": [
        {
          "attributes": {
            "POSITION": 10,
            "NORMAL": 11,
            "TEXCOORD_0": 12,
            "TEXCOORD_1": 13
          },
          "indices": 14,
          "material": 0,
          "mode": 4
        }
      ]
    }
  ],
  "materials": [
    {
      "name": "MatSlots_WEAPONS_001",
      "pbrMetallicRoughness": {
        "baseColorFactor": [
          1,
          1,
          1,
          1
        ],
        "metallicFactor": 0,
        "roughnessFactor": 1
      },
      "doubleSided": true,
      "extras": {
        "diffuseTexture": null,
        "specularTexture": null,
        "normalMap": null
      }
    },
    {
      "name": "Outline_001",
      "pbrMetallicRoughness": {
        "baseColorFactor": [
          1,
          1,
          1,
          1
        ],
        "metallicFactor": 0,
        "roughnessFactor": 1
      },
      "doubleSided": true,
      "extras": {
        "diffuseTexture": null,
        "specularTexture": null,
        "normalMap": null
      }
    }
  ],
  "buffers": [
    {
      "uri": "Mace_Manfish.bin",
      "byteLength": 106968
    }
  ],
  "bufferViews": [
    {
      "buffer": 0,
      "byteOffset": 0,
      "byteLength": 9720,
      "target": 34962
    },
    {
      "buffer": 0,
      "byteOffset": 9720,
      "byteLength": 9720,
      "target": 34962
    },
    {
      "buffer": 0,
      "byteOffset": 19440,
      "byteLength": 6480,
      "target": 34962
    },
    {
      "buffer": 0,
      "byteOffset": 25920,
      "byteLength": 6480,
      "target": 34962
    },
    {
      "buffer": 0,
      "byteOffset": 32400,
      "byteLength": 4362,
      "target": 34963
    },
    {
      "buffer": 0,
      "byteOffset": 36764,
      "byteLength": 15804,
      "target": 34962
    },
    {
      "buffer": 0,
      "byteOffset": 52568,
      "byteLength": 15804,
      "target": 34962
    },
    {
      "buffer": 0,
      "byteOffset": 68372,
      "byteLength": 10536,
      "target": 34962
    },
    {
      "buffer": 0,
      "byteOffset": 78908,
      "byteLength": 10536,
      "target": 34962
    },
    {
      "buffer": 0,
      "byteOffset": 89444,
      "byteLength": 8376,
      "target": 34963
    },
    {
      "buffer": 0,
      "byteOffset": 97820,
      "byteLength": 2244,
      "target": 34962
    },
    {
      "buffer": 0,
      "byteOffset": 100064,
      "byteLength": 2244,
      "target": 34962
    },
    {
      "buffer": 0,
      "byteOffset": 102308,
      "byteLength": 1496,
      "target": 34962
    },
    {
      "buffer": 0,
      "byteOffset": 103804,
      "byteLength": 1496,
      "target": 34962
    },
    {
      "buffer": 0,
      "byteOffset": 105300,
      "byteLength": 1668,
      "target": 34963
    }
  ],
  "accessors": [
    {
      "bufferView": 0,
      "componentType": 5126,
      "count": 810,
      "type": "VEC3",
      "min": [
        -0.14180172979831696,
        -0.08698108792304993,
        -0.41270485520362854
      ],
      "max": [
        0.15101324021816254,
        0.08256354928016663,
        0.15336015820503235
      ]
    },
    {
      "bufferView": 1,
      "componentType": 5126,
      "count": 810,
      "type": "VEC3",
      "min": [
        -0.9958503842353821,
        -0.9815119504928589,
        -0.9961184859275818
      ],
      "max": [
        0.946025550365448,
        0.9976273775100708,
        0.9999818205833435
      ]
    },
    {
      "bufferView": 2,
      "componentType": 5126,
      "count": 810,
      "type": "VEC2",
      "min": [
        0.03061741590499878,
        0.33755701780319214
      ],
      "max": [
        0.4609883725643158,
        0.9193098545074463
      ]
    },
    {
      "bufferView": 3,
      "componentType": 5126,
      "count": 810,
      "type": "VEC2",
      "min": [
        0,
        0.2856122851371765
      ],
      "max": [
        0.8660875558853149,
        1
      ]
    },
    {
      "bufferView": 4,
      "componentType": 5123,
      "count": 2181,
      "type": "SCALAR",
      "min": [
        0
      ],
      "max": [
        809
      ]
    },
    {
      "bufferView": 5,
      "componentType": 5126,
      "count": 1317,
      "type": "VEC3",
      "min": [
        -0.4120897054672241,
        -0.19070284068584442,
        0.11679984629154205
      ],
      "max": [
        0.3689803183078766,
        0.19070284068584442,
        0.7911595702171326
      ]
    },
    {
      "bufferView": 6,
      "componentType": 5126,
      "count": 1317,
      "type": "VEC3",
      "min": [
        -0.9980182647705078,
        -0.9999502897262573,
        -0.9991442561149597
      ],
      "max": [
        0.9998583793640137,
        0.9999502301216125,
        0.9999046325683594
      ]
    },
    {
      "bufferView": 7,
      "componentType": 5126,
      "count": 1317,
      "type": "VEC2",
      "min": [
        0.1322808414697647,
        0.17104405164718628
      ],
      "max": [
        0.23474560678005219,
        0.6193373203277588
      ]
    },
    {
      "bufferView": 8,
      "componentType": 5126,
      "count": 1317,
      "type": "VEC2",
      "min": [
        0.7065002918243408,
        0.22382891178131104
      ],
      "max": [
        0.9706751108169556,
        0.3740260601043701
      ]
    },
    {
      "bufferView": 9,
      "componentType": 5123,
      "count": 4188,
      "type": "SCALAR",
      "min": [
        0
      ],
      "max": [
        1316
      ]
    },
    {
      "bufferView": 10,
      "componentType": 5126,
      "count": 187,
      "type": "VEC3",
      "min": [
        -0.4400901794433594,
        -0.16904206573963165,
        0.26601576805114746
      ],
      "max": [
        -0.11613386124372482,
        0.16904206573963165,
        0.44022083282470703
      ]
    },
    {
      "bufferView": 11,
      "componentType": 5126,
      "count": 187,
      "type": "VEC3",
      "min": [
        -0.9680348038673401,
        -0.9996123313903809,
        -0.9973194003105164
      ],
      "max": [
        0.9244816899299622,
        0.9996123313903809,
        0.9851608872413635
      ]
    },
    {
      "bufferView": 12,
      "componentType": 5126,
      "count": 187,
      "type": "VEC2",
      "min": [
        0.4018477201461792,
        0.7501183748245239
      ],
      "max": [
        0.4782916009426117,
        0.9240866303443909
      ]
    },
    {
      "bufferView": 13,
      "componentType": 5126,
      "count": 187,
      "type": "VEC2",
      "min": [
        0.7527135610580444,
        0.32133686542510986
      ],
      "max": [
        0.8086740970611572,
        0.3486354351043701
      ]
    },
    {
      "bufferView": 14,
      "componentType": 5123,
      "count": 834,
      "type": "SCALAR",
      "min": [
        0
      ],
      "max": [
        186
      ]
    }
  ],
  "extras": {
    "manifest": "Mace_Manfish.materials.json"
  }
}