{
  "asset": {
    "version": "2.0",
    "generator": "prefab-to-gltf"
  },
  "scene": 0,
  "scenes": [
    {
      "name": "DM_Human_Crimson_Horn",
      "nodes": [
        0
      ]
    }
  ],
  "nodes": [
    {
      "name": "DualMace_Human_CrimsonHorn",
      "translation": [
        0,
        0,
        0
      ],
      "rotation": [
        0,
        0,
        0.7071056365966797,
        0.7071079257745626
      ],
      "scale": [
        1,
        1,
        1
      ],
      "mesh": 0
    }
  ],
  "meshes": [
    {
      "name": "DualMace_Human_CrimsonHorn",
      "primitives": [
        {
          "attributes": {
            "POSITION": 0,
            "NORMAL": 1,
            "TEXCOORD_0": 2,
            "TEXCOORD_1": 3,
            "COLOR_0": 4
          },
          "indices": 5,
          "material": 0,
          "mode": 4
        }
      ]
    }
  ],
  "materials": [
    {
      "name": "MatSlots_WEAPONS",
      "pbrMetallicRoughness": {
        "baseColorFactor": [
          1,
          1,
          1,
          1
        ],
        "metallicFactor": 0,
        "roughnessFactor": 1
      },
      "doubleSided": true,
      "extras": {
        "diffuseTexture": null,
        "specularTexture": null,
        "normalMap": null
      }
    },
    {
      "name": "Outline",
      "pbrMetallicRoughness": {
        "baseColorFactor": [
          1,
          1,
          1,
          1
        ],
        "metallicFactor": 0,
        "roughnessFactor": 1
      },
      "doubleSided": true,
      "extras": {
        "diffuseTexture": null,
        "specularTexture": null,
        "normalMap": null
      }
    }
  ],
  "buffers": [
    {
      "uri": "DM_Human_Crimson_Horn.bin",
      "byteLength": 329728
    }
  ],
  "bufferViews": [
    {
      "buffer": 0,
      "byteOffset": 0,
      "byteLength": 67908,
      "target": 34962
    },
    {
      "buffer": 0,
      "byteOffset": 67908,
      "byteLength": 67908,
      "target": 34962
    },
    {
      "buffer": 0,
      "byteOffset": 135816,
      "byteLength": 45272,
      "target": 34962
    },
    {
      "buffer": 0,
      "byteOffset": 181088,
      "byteLength": 45272,
      "target": 34962
    },
    {
      "buffer": 0,
      "byteOffset": 226360,
      "byteLength": 67908,
      "target": 34962
    },
    {
      "buffer": 0,
      "byteOffset": 294268,
      "byteLength": 35460,
      "target": 34963
    }
  ],
  "accessors": [
    {
      "bufferView": 0,
      "componentType": 5126,
      "count": 5659,
      "type": "VEC3",
      "min": [
        -0.3290923833847046,
        -0.25985532999038696,
        -0.33928459882736206
      ],
      "max": [
        0.33082813024520874,
        0.2599037289619446,
        0.6282780766487122
      ]
    },
    {
      "bufferView": 1,
      "componentType": 5126,
      "count": 5659,
      "type": "VEC3",
      "min": [
        -1,
        -1,
        -1
      ],
      "max": [
        1,
        1,
        1
      ]
    },
    {
      "bufferView": 2,
      "componentType": 5126,
      "count": 5659,
      "type": "VEC2",
      "min": [
        0.027627184987068176,
        0.24579620361328125
      ],
      "max": [
        0.5816637277603149,
        0.8420724272727966
      ]
    },
    {
      "bufferView": 3,
      "componentType": 5126,
      "count": 5659,
      "type": "VEC2",
      "min": [
        0,
        0.1159706711769104
      ],
      "max": [
        0.9524966478347778,
        1
      ]
    },
    {
      "bufferView": 4,
      "componentType": 5126,
      "count": 4244.25,
      "type": "VEC4",
      "min": [
        0,
        0,
        0,
        0
      ],
      "max": [
        1,
        1,
        1,
        1
      ]
    },
    {
      "bufferView": 5,
      "componentType": 5123,
      "count": 17730,
      "type": "SCALAR",
      "min": [
        0
      ],
      "max": [
        5658
      ]
    }
  ],
  "extras": {
    "manifest": "DM_Human_Crimson_Horn.materials.json"
  }
}