{
  "asset": {
    "version": "2.0",
    "generator": "prefab-to-gltf"
  },
  "scene": 0,
  "scenes": [
    {
      "name": "Shoulders_Outer_Z2U2_FigAss",
      "nodes": [
        0
      ]
    }
  ],
  "nodes": [
    {
      "name": "Shoulders_Z2U_Heavy_N",
      "translation": [
        0,
        0,
        0
      ],
      "rotation": [
        0,
        0,
        0,
        1
      ],
      "scale": [
        1,
        1,
        1
      ],
      "mesh": 0
    }
  ],
  "meshes": [
    {
      "name": "Shoulders_Z2U_Heavy_N",
      "primitives": [
        {
          "attributes": {
            "POSITION": 0,
            "NORMAL": 1,
            "TEXCOORD_0": 2,
            "TEXCOORD_1": 3,
            "COLOR_0": 4
          },
          "indices": 5,
          "material": 0,
          "mode": 4
        }
      ]
    }
  ],
  "materials": [
    {
      "name": "standardSurface1",
      "pbrMetallicRoughness": {
        "baseColorFactor": [
          1,
          1,
          1,
          1
        ],
        "metallicFactor": 0,
        "roughnessFactor": 1
      },
      "doubleSided": true,
      "extras": {
        "diffuseTexture": null,
        "specularTexture": null,
        "normalMap": null
      }
    }
  ],
  "buffers": [
    {
      "uri": "Shoulders_Outer_Z2U2_FigAss.bin",
      "byteLength": 102884
    }
  ],
  "bufferViews": [
    {
      "buffer": 0,
      "byteOffset": 0,
      "byteLength": 21732,
      "target": 34962
    },
    {
      "buffer": 0,
      "byteOffset": 21732,
      "byteLength": 21732,
      "target": 34962
    },
    {
      "buffer": 0,
      "byteOffset": 43464,
      "byteLength": 14488,
      "target": 34962
    },
    {
      "buffer": 0,
      "byteOffset": 57952,
      "byteLength": 14488,
      "target": 34962
    },
    {
      "buffer": 0,
      "byteOffset": 72440,
      "byteLength": 21732,
      "target": 34962
    },
    {
      "buffer": 0,
      "byteOffset": 94172,
      "byteLength": 8712,
      "target": 34963
    }
  ],
  "accessors": [
    {
      "bufferView": 0,
      "componentType": 5126,
      "count": 1811,
      "type": "VEC3",
      "min": [
        -0.485107421875,
        1.6005859375,
        -0.14111328125
      ],
      "max": [
        0.485107421875,
        1.8759765625,
        0.1949462890625
      ]
    },
    {
      "bufferView": 1,
      "componentType": 5126,
      "count": 1811,
      "type": "VEC3",
      "min": [
        -0.5019607843137255,
        -0.5019607843137255,
        -0.49411764705882355
      ],
      "max": [
        1,
        0.4980392156862745,
        0.48627450980392156
      ]
    },
    {
      "bufferView": 2,
      "componentType": 5126,
      "count": 1811,
      "type": "VEC2",
      "min": [
        0.1595458984375,
        0.38623046875
      ],
      "max": [
        0.59619140625,
        0.9189453125
      ]
    },
    {
      "bufferView": 3,
      "componentType": 5126,
      "count": 1811,
      "type": "VEC2",
      "min": [
        0.06158447265625,
        0.324951171875
      ],
      "max": [
        0.947265625,
        0.95751953125
      ]
    },
    {
      "bufferView": 4,
      "componentType": 5126,
      "count": 1358.25,
      "type": "VEC4",
      "min": [
        0,
        0,
        0,
        0
      ],
      "max": [
        0.9999715685844421,
        0.9999715685844421,
        0.9999715685844421,
        0.9999715685844421
      ]
    },
    {
      "bufferView": 5,
      "componentType": 5123,
      "count": 4356,
      "type": "SCALAR",
      "min": [
        0
      ],
      "max": [
        1810
      ]
    }
  ],
  "extras": {
    "manifest": "Shoulders_Outer_Z2U2_FigAss.materials.json"
  }
}