{
  "asset": {
    "version": "2.0",
    "generator": "prefab-to-gltf"
  },
  "scene": 0,
  "scenes": [
    {
      "name": "HumanBeast_ManFish_Boss_R1",
      "nodes": [
        0
      ]
    }
  ],
  "nodes": [
    {
      "name": "Helmet_ManfishBoss",
      "translation": [
        0,
        0,
        0
      ],
      "rotation": [
        0.7071056365966797,
        0,
        0,
        0.7071079257745626
      ],
      "scale": [
        1,
        1,
        1
      ],
      "mesh": 0
    }
  ],
  "meshes": [
    {
      "name": "Helmet_ManfishBoss",
      "primitives": [
        {
          "attributes": {
            "POSITION": 0,
            "NORMAL": 1,
            "TEXCOORD_0": 2,
            "TEXCOORD_1": 3
          },
          "indices": 4,
          "material": 0,
          "mode": 4
        }
      ]
    }
  ],
  "materials": [
    {
      "name": "MatSlots",
      "pbrMetallicRoughness": {
        "baseColorFactor": [
          1,
          1,
          1,
          1
        ],
        "metallicFactor": 0,
        "roughnessFactor": 1
      },
      "doubleSided": true,
      "extras": {
        "diffuseTexture": "Character/Common/Texture/CustomGradient_WeaponALL.png",
        "specularTexture": null,
        "normalMap": null
      }
    }
  ],
  "buffers": [
    {
      "uri": "HumanBeast_ManFish_Boss_R1.bin",
      "byteLength": 87110
    }
  ],
  "bufferViews": [
    {
      "buffer": 0,
      "byteOffset": 0,
      "byteLength": 22020,
      "target": 34962
    },
    {
      "buffer": 0,
      "byteOffset": 22020,
      "byteLength": 22020,
      "target": 34962
    },
    {
      "buffer": 0,
      "byteOffset": 44040,
      "byteLength": 14680,
      "target": 34962
    },
    {
      "buffer": 0,
      "byteOffset": 58720,
      "byteLength": 14680,
      "target": 34962
    },
    {
      "buffer": 0,
      "byteOffset": 73400,
      "byteLength": 13710,
      "target": 34963
    }
  ],
  "accessors": [
    {
      "bufferView": 0,
      "componentType": 5126,
      "count": 1835,
      "type": "VEC3",
      "min": [
        -0.4615122973918915,
        -0.1721436083316803,
        -0.4144190847873688
      ],
      "max": [
        0.4599109888076782,
        0.8457116484642029,
        0.6398745775222778
      ]
    },
    {
      "bufferView": 1,
      "componentType": 5126,
      "count": 1835,
      "type": "VEC3",
      "min": [
        -0.9996021389961243,
        -0.9976537227630615,
        -0.9991418719291687
      ],
      "max": [
        0.9999556541442871,
        0.9969897866249084,
        0.9999035000801086
      ]
    },
    {
      "bufferView": 2,
      "componentType": 5126,
      "count": 1835,
      "type": "VEC2",
      "min": [
        0.040071018040180206,
        0.14216989278793335
      ],
      "max": [
        0.2291841357946396,
        0.9062257409095764
      ]
    },
    {
      "bufferView": 3,
      "componentType": 5126,
      "count": 1835,
      "type": "VEC2",
      "min": [
        0.03638231009244919,
        0.0968218445777893
      ],
      "max": [
        0.9913589954376221,
        0.9901825785636902
      ]
    },
    {
      "bufferView": 4,
      "componentType": 5123,
      "count": 6855,
      "type": "SCALAR",
      "min": [
        0
      ],
      "max": [
        1834
      ]
    }
  ],
  "extras": {
    "manifest": "HumanBeast_ManFish_Boss_R1.materials.json"
  }
}