{
  "asset": {
    "version": "2.0",
    "generator": "prefab-to-gltf"
  },
  "scene": 0,
  "scenes": [
    {
      "name": "Chest_NoSleeves_XManfish_01_Medium",
      "nodes": [
        0
      ]
    }
  ],
  "nodes": [
    {
      "name": "Chest_Z1RManfish_Medium_N",
      "translation": [
        0,
        0,
        0
      ],
      "rotation": [
        0,
        0,
        0,
        1
      ],
      "scale": [
        1,
        1,
        1
      ],
      "mesh": 0,
      "children": [
        1
      ]
    },
    {
      "name": "Medium",
      "translation": [
        0,
        0,
        0
      ],
      "rotation": [
        0.7071067690849304,
        0,
        0,
        0.7071067932881644
      ],
      "scale": [
        1,
        1,
        1
      ]
    }
  ],
  "meshes": [
    {
      "name": "Chest_Z1RManfish_Medium_N",
      "primitives": [
        {
          "attributes": {
            "POSITION": 0,
            "NORMAL": 1,
            "TEXCOORD_0": 2,
            "TEXCOORD_1": 3,
            "COLOR_0": 4
          },
          "indices": 5,
          "material": 0,
          "mode": 4
        }
      ]
    }
  ],
  "materials": [
    {
      "name": "GradMat_Body2",
      "pbrMetallicRoughness": {
        "baseColorFactor": [
          1,
          1,
          1,
          1
        ],
        "metallicFactor": 0,
        "roughnessFactor": 1
      },
      "doubleSided": true,
      "extras": {
        "diffuseTexture": "Character/Common/Texture/CustomGradient_BasicGuy.png",
        "specularTexture": null,
        "normalMap": null
      }
    }
  ],
  "buffers": [
    {
      "uri": "Chest_NoSleeves_XManfish_01_Medium.bin",
      "byteLength": 304220
    }
  ],
  "bufferViews": [
    {
      "buffer": 0,
      "byteOffset": 0,
      "byteLength": 64140,
      "target": 34962
    },
    {
      "buffer": 0,
      "byteOffset": 64140,
      "byteLength": 64140,
      "target": 34962
    },
    {
      "buffer": 0,
      "byteOffset": 128280,
      "byteLength": 42760,
      "target": 34962
    },
    {
      "buffer": 0,
      "byteOffset": 171040,
      "byteLength": 42760,
      "target": 34962
    },
    {
      "buffer": 0,
      "byteOffset": 213800,
      "byteLength": 64140,
      "target": 34962
    },
    {
      "buffer": 0,
      "byteOffset": 277940,
      "byteLength": 26280,
      "target": 34963
    }
  ],
  "accessors": [
    {
      "bufferView": 0,
      "componentType": 5126,
      "count": 5345,
      "type": "VEC3",
      "min": [
        -0.66650390625,
        0.99560546875,
        -0.1400146484375
      ],
      "max": [
        0.66650390625,
        1.9326171875,
        0.292724609375
      ]
    },
    {
      "bufferView": 1,
      "componentType": 5126,
      "count": 5345,
      "type": "VEC3",
      "min": [
        -0.5019607843137255,
        -0.5019607843137255,
        -0.5019607843137255
      ],
      "max": [
        1,
        1,
        1
      ]
    },
    {
      "bufferView": 2,
      "componentType": 5126,
      "count": 5345,
      "type": "VEC2",
      "min": [
        0.004016876220703125,
        0.1707763671875
      ],
      "max": [
        0.83984375,
        0.962890625
      ]
    },
    {
      "bufferView": 3,
      "componentType": 5126,
      "count": 5345,
      "type": "VEC2",
      "min": [
        0,
        0.12115478515625
      ],
      "max": [
        0.9443359375,
        1
      ]
    },
    {
      "bufferView": 4,
      "componentType": 5126,
      "count": 4008.75,
      "type": "VEC4",
      "min": [
        0,
        0,
        0,
        0
      ],
      "max": [
        1,
        1,
        1,
        1
      ]
    },
    {
      "bufferView": 5,
      "componentType": 5123,
      "count": 13140,
      "type": "SCALAR",
      "min": [
        0
      ],
      "max": [
        5344
      ]
    }
  ],
  "extras": {
    "manifest": "Chest_NoSleeves_XManfish_01_Medium.materials.json"
  }
}