{
  "asset": {
    "version": "2.0",
    "generator": "prefab-to-gltf"
  },
  "scene": 0,
  "scenes": [
    {
      "name": "Feet_High_XManfish_01_Heavy",
      "nodes": [
        0
      ]
    }
  ],
  "nodes": [
    {
      "name": "Feet_Z1RManfish_Heavy_N",
      "translation": [
        0,
        0,
        0
      ],
      "rotation": [
        0,
        0,
        0,
        1
      ],
      "scale": [
        1,
        1,
        1
      ],
      "mesh": 0
    }
  ],
  "meshes": [
    {
      "name": "Feet_Z1RManfish_Heavy_N",
      "primitives": [
        {
          "attributes": {
            "POSITION": 0,
            "NORMAL": 1,
            "TEXCOORD_0": 2,
            "TEXCOORD_1": 3
          },
          "indices": 4,
          "material": 0,
          "mode": 4
        }
      ]
    }
  ],
  "materials": [
    {
      "name": "GradMat_Body",
      "pbrMetallicRoughness": {
        "baseColorFactor": [
          1,
          1,
          1,
          1
        ],
        "metallicFactor": 0,
        "roughnessFactor": 1
      },
      "doubleSided": true,
      "extras": {
        "diffuseTexture": "Character/Common/Texture/CustomGradient_BasicGuy.png",
        "specularTexture": null,
        "normalMap": null
      }
    }
  ],
  "buffers": [
    {
      "uri": "Feet_High_XManfish_01_Heavy.bin",
      "byteLength": 221212
    }
  ],
  "bufferViews": [
    {
      "buffer": 0,
      "byteOffset": 0,
      "byteLength": 60456,
      "target": 34962
    },
    {
      "buffer": 0,
      "byteOffset": 60456,
      "byteLength": 60456,
      "target": 34962
    },
    {
      "buffer": 0,
      "byteOffset": 120912,
      "byteLength": 40304,
      "target": 34962
    },
    {
      "buffer": 0,
      "byteOffset": 161216,
      "byteLength": 40304,
      "target": 34962
    },
    {
      "buffer": 0,
      "byteOffset": 201520,
      "byteLength": 19692,
      "target": 34963
    }
  ],
  "accessors": [
    {
      "bufferView": 0,
      "componentType": 5126,
      "count": 5038,
      "type": "VEC3",
      "min": [
        -0.4150390625,
        -0.007537841796875,
        -0.1190185546875
      ],
      "max": [
        0.4150390625,
        0.476806640625,
        0.32373046875
      ]
    },
    {
      "bufferView": 1,
      "componentType": 5126,
      "count": 5038,
      "type": "VEC3",
      "min": [
        -0.5019607843137255,
        -0.5019607843137255,
        -0.5019607843137255
      ],
      "max": [
        1,
        1,
        1
      ]
    },
    {
      "bufferView": 2,
      "componentType": 5126,
      "count": 5038,
      "type": "VEC2",
      "min": [
        0.037322998046875,
        0.2279052734375
      ],
      "max": [
        0.857421875,
        0.9306640625
      ]
    },
    {
      "bufferView": 3,
      "componentType": 5126,
      "count": 5038,
      "type": "VEC2",
      "min": [
        0,
        0.10528564453125
      ],
      "max": [
        0.95654296875,
        1
      ]
    },
    {
      "bufferView": 4,
      "componentType": 5123,
      "count": 9846,
      "type": "SCALAR",
      "min": [
        0
      ],
      "max": [
        5037
      ]
    }
  ],
  "extras": {
    "manifest": "Feet_High_XManfish_01_Heavy.materials.json"
  }
}