{
  "asset": {
    "version": "2.0",
    "generator": "prefab-to-gltf"
  },
  "scene": 0,
  "scenes": [
    {
      "name": "Hands_Forearm_XManfish_01_Light",
      "nodes": [
        0
      ]
    }
  ],
  "nodes": [
    {
      "name": "Hands_Z1RManfish_Light_N",
      "translation": [
        0,
        0,
        0
      ],
      "rotation": [
        0,
        0,
        0,
        1
      ],
      "scale": [
        1,
        1,
        1
      ],
      "mesh": 0
    }
  ],
  "meshes": [
    {
      "name": "Hands_Z1RManfish_Light_N",
      "primitives": [
        {
          "attributes": {
            "POSITION": 0,
            "NORMAL": 1,
            "TEXCOORD_0": 2,
            "TEXCOORD_1": 3
          },
          "indices": 4,
          "material": 0,
          "mode": 4
        }
      ]
    }
  ],
  "materials": [
    {
      "name": "GradMat_Body",
      "pbrMetallicRoughness": {
        "baseColorFactor": [
          1,
          1,
          1,
          1
        ],
        "metallicFactor": 0,
        "roughnessFactor": 1
      },
      "doubleSided": true,
      "extras": {
        "diffuseTexture": "Character/Common/Texture/CustomGradient_BasicGuy.png",
        "specularTexture": null,
        "normalMap": null
      }
    }
  ],
  "buffers": [
    {
      "uri": "Hands_Forearm_XManfish_01_Light.bin",
      "byteLength": 227268
    }
  ],
  "bufferViews": [
    {
      "buffer": 0,
      "byteOffset": 0,
      "byteLength": 60264,
      "target": 34962
    },
    {
      "buffer": 0,
      "byteOffset": 60264,
      "byteLength": 60264,
      "target": 34962
    },
    {
      "buffer": 0,
      "byteOffset": 120528,
      "byteLength": 40176,
      "target": 34962
    },
    {
      "buffer": 0,
      "byteOffset": 160704,
      "byteLength": 40176,
      "target": 34962
    },
    {
      "buffer": 0,
      "byteOffset": 200880,
      "byteLength": 26388,
      "target": 34963
    }
  ],
  "accessors": [
    {
      "bufferView": 0,
      "componentType": 5126,
      "count": 5022,
      "type": "VEC3",
      "min": [
        -0.81201171875,
        0.9814453125,
        -0.0625
      ],
      "max": [
        0.81201171875,
        1.4560546875,
        0.337646484375
      ]
    },
    {
      "bufferView": 1,
      "componentType": 5126,
      "count": 5022,
      "type": "VEC3",
      "min": [
        -0.5019607843137255,
        -0.5019607843137255,
        -0.5019607843137255
      ],
      "max": [
        1,
        1,
        1
      ]
    },
    {
      "bufferView": 2,
      "componentType": 5126,
      "count": 5022,
      "type": "VEC2",
      "min": [
        0.0160369873046875,
        0.1739501953125
      ],
      "max": [
        0.896484375,
        0.99609375
      ]
    },
    {
      "bufferView": 3,
      "componentType": 5126,
      "count": 5022,
      "type": "VEC2",
      "min": [
        0,
        0.1197509765625
      ],
      "max": [
        0.95654296875,
        1
      ]
    },
    {
      "bufferView": 4,
      "componentType": 5123,
      "count": 13194,
      "type": "SCALAR",
      "min": [
        0
      ],
      "max": [
        5021
      ]
    }
  ],
  "extras": {
    "manifest": "Hands_Forearm_XManfish_01_Light.materials.json"
  }
}