{
  "asset": {
    "version": "2.0",
    "generator": "prefab-to-gltf"
  },
  "scene": 0,
  "scenes": [
    {
      "name": "Legs_Shin_XManfish_01_Heavy",
      "nodes": [
        0
      ]
    }
  ],
  "nodes": [
    {
      "name": "Legs_Z1RManfish_Heavy_N",
      "translation": [
        0,
        0,
        0
      ],
      "rotation": [
        0,
        0,
        0,
        1
      ],
      "scale": [
        1,
        1,
        1
      ],
      "mesh": 0,
      "children": [
        1
      ]
    },
    {
      "name": "Heavy",
      "translation": [
        0,
        0,
        0
      ],
      "rotation": [
        0.7071067690849304,
        0,
        0,
        0.7071067932881644
      ],
      "scale": [
        1,
        1,
        1
      ]
    }
  ],
  "meshes": [
    {
      "name": "Legs_Z1RManfish_Heavy_N",
      "primitives": [
        {
          "attributes": {
            "POSITION": 0,
            "NORMAL": 1,
            "TEXCOORD_0": 2,
            "TEXCOORD_1": 3
          },
          "indices": 4,
          "material": 0,
          "mode": 4
        }
      ]
    }
  ],
  "materials": [
    {
      "name": "GradMat_Body",
      "pbrMetallicRoughness": {
        "baseColorFactor": [
          1,
          1,
          1,
          1
        ],
        "metallicFactor": 0,
        "roughnessFactor": 1
      },
      "doubleSided": true,
      "extras": {
        "diffuseTexture": "Character/Common/Texture/CustomGradient_RobinHoof.png",
        "specularTexture": null,
        "normalMap": null
      }
    }
  ],
  "buffers": [
    {
      "uri": "Legs_Shin_XManfish_01_Heavy.bin",
      "byteLength": 342896
    }
  ],
  "bufferViews": [
    {
      "buffer": 0,
      "byteOffset": 0,
      "byteLength": 93624,
      "target": 34962
    },
    {
      "buffer": 0,
      "byteOffset": 93624,
      "byteLength": 93624,
      "target": 34962
    },
    {
      "buffer": 0,
      "byteOffset": 187248,
      "byteLength": 62416,
      "target": 34962
    },
    {
      "buffer": 0,
      "byteOffset": 249664,
      "byteLength": 62416,
      "target": 34962
    },
    {
      "buffer": 0,
      "byteOffset": 312080,
      "byteLength": 30816,
      "target": 34963
    }
  ],
  "accessors": [
    {
      "bufferView": 0,
      "componentType": 5126,
      "count": 7802,
      "type": "VEC3",
      "min": [
        -0.387451171875,
        0.08514404296875,
        -0.1092529296875
      ],
      "max": [
        0.387451171875,
        1.2763671875,
        0.2308349609375
      ]
    },
    {
      "bufferView": 1,
      "componentType": 5126,
      "count": 7802,
      "type": "VEC3",
      "min": [
        -0.5019607843137255,
        -0.5019607843137255,
        -0.5019607843137255
      ],
      "max": [
        1,
        1,
        1
      ]
    },
    {
      "bufferView": 2,
      "componentType": 5126,
      "count": 7802,
      "type": "VEC2",
      "min": [
        0.05242919921875,
        0.2138671875
      ],
      "max": [
        0.72509765625,
        0.86181640625
      ]
    },
    {
      "bufferView": 3,
      "componentType": 5126,
      "count": 7802,
      "type": "VEC2",
      "min": [
        0,
        0.11285400390625
      ],
      "max": [
        0.958984375,
        1
      ]
    },
    {
      "bufferView": 4,
      "componentType": 5123,
      "count": 15408,
      "type": "SCALAR",
      "min": [
        0
      ],
      "max": [
        7801
      ]
    }
  ],
  "extras": {
    "manifest": "Legs_Shin_XManfish_01_Heavy.materials.json"
  }
}