{
  "asset": {
    "version": "2.0",
    "generator": "prefab-to-gltf"
  },
  "scene": 0,
  "scenes": [
    {
      "name": "Legs_Thigh_XManfish_01_Medium",
      "nodes": [
        0
      ]
    }
  ],
  "nodes": [
    {
      "name": "Legs_Z1RManfish_Medium_N",
      "translation": [
        0,
        0,
        0
      ],
      "rotation": [
        0,
        0,
        0,
        1
      ],
      "scale": [
        1,
        1,
        1
      ],
      "mesh": 0,
      "children": [
        1
      ]
    },
    {
      "name": "Medium",
      "translation": [
        0,
        0,
        0
      ],
      "rotation": [
        0.7071067690849304,
        0,
        0,
        0.7071067932881644
      ],
      "scale": [
        1,
        1,
        1
      ]
    }
  ],
  "meshes": [
    {
      "name": "Legs_Z1RManfish_Medium_N",
      "primitives": [
        {
          "attributes": {
            "POSITION": 0,
            "NORMAL": 1,
            "TEXCOORD_0": 2,
            "TEXCOORD_1": 3,
            "COLOR_0": 4
          },
          "indices": 5,
          "material": 0,
          "mode": 4
        }
      ]
    }
  ],
  "materials": [
    {
      "name": "GradMat_Body2",
      "pbrMetallicRoughness": {
        "baseColorFactor": [
          1,
          1,
          1,
          1
        ],
        "metallicFactor": 0,
        "roughnessFactor": 1
      },
      "doubleSided": true,
      "extras": {
        "diffuseTexture": "Character/Common/Texture/CustomGradient_BasicGuy.png",
        "specularTexture": null,
        "normalMap": null
      }
    }
  ],
  "buffers": [
    {
      "uri": "Legs_Thigh_XManfish_01_Medium.bin",
      "byteLength": 221436
    }
  ],
  "bufferViews": [
    {
      "buffer": 0,
      "byteOffset": 0,
      "byteLength": 46944,
      "target": 34962
    },
    {
      "buffer": 0,
      "byteOffset": 46944,
      "byteLength": 46944,
      "target": 34962
    },
    {
      "buffer": 0,
      "byteOffset": 93888,
      "byteLength": 31296,
      "target": 34962
    },
    {
      "buffer": 0,
      "byteOffset": 125184,
      "byteLength": 31296,
      "target": 34962
    },
    {
      "buffer": 0,
      "byteOffset": 156480,
      "byteLength": 46944,
      "target": 34962
    },
    {
      "buffer": 0,
      "byteOffset": 203424,
      "byteLength": 18012,
      "target": 34963
    }
  ],
  "accessors": [
    {
      "bufferView": 0,
      "componentType": 5126,
      "count": 3912,
      "type": "VEC3",
      "min": [
        -0.37109375,
        0.08514404296875,
        -0.09075927734375
      ],
      "max": [
        0.37109375,
        1.2763671875,
        0.2388916015625
      ]
    },
    {
      "bufferView": 1,
      "componentType": 5126,
      "count": 3912,
      "type": "VEC3",
      "min": [
        -0.5019607843137255,
        -0.5019607843137255,
        -0.5019607843137255
      ],
      "max": [
        1,
        1,
        1
      ]
    },
    {
      "bufferView": 2,
      "componentType": 5126,
      "count": 3912,
      "type": "VEC2",
      "min": [
        0.035064697265625,
        0.1925048828125
      ],
      "max": [
        0.83349609375,
        0.9521484375
      ]
    },
    {
      "bufferView": 3,
      "componentType": 5126,
      "count": 3912,
      "type": "VEC2",
      "min": [
        0,
        0.12078857421875
      ],
      "max": [
        0.9423828125,
        1
      ]
    },
    {
      "bufferView": 4,
      "componentType": 5126,
      "count": 2934,
      "type": "VEC4",
      "min": [
        0,
        0,
        0,
        0
      ],
      "max": [
        1,
        1,
        1,
        1
      ]
    },
    {
      "bufferView": 5,
      "componentType": 5123,
      "count": 9006,
      "type": "SCALAR",
      "min": [
        0
      ],
      "max": [
        3911
      ]
    }
  ],
  "extras": {
    "manifest": "Legs_Thigh_XManfish_01_Medium.materials.json"
  }
}