{
  "asset": {
    "version": "2.0",
    "generator": "prefab-to-gltf"
  },
  "scene": 0,
  "scenes": [
    {
      "name": "Waist_Medium_XManfish_01_Medium",
      "nodes": [
        0
      ]
    }
  ],
  "nodes": [
    {
      "name": "Waist_Z1RManfish_Medium_N",
      "translation": [
        0,
        0,
        0
      ],
      "rotation": [
        0,
        0,
        0,
        1
      ],
      "scale": [
        1,
        1,
        1
      ],
      "mesh": 0,
      "children": [
        1
      ]
    },
    {
      "name": "Medium",
      "translation": [
        0,
        0,
        0
      ],
      "rotation": [
        0.7071067690849304,
        0,
        0,
        0.7071067932881644
      ],
      "scale": [
        1,
        1,
        1
      ]
    }
  ],
  "meshes": [
    {
      "name": "Waist_Z1RManfish_Medium_N",
      "primitives": [
        {
          "attributes": {
            "POSITION": 0,
            "NORMAL": 1,
            "TEXCOORD_0": 2,
            "TEXCOORD_1": 3,
            "COLOR_0": 4
          },
          "indices": 5,
          "material": 0,
          "mode": 4
        }
      ]
    }
  ],
  "materials": [
    {
      "name": "GradMat_Body2",
      "pbrMetallicRoughness": {
        "baseColorFactor": [
          1,
          1,
          1,
          1
        ],
        "metallicFactor": 0,
        "roughnessFactor": 1
      },
      "doubleSided": true,
      "extras": {
        "diffuseTexture": "Character/Common/Texture/CustomGradient_BasicGuy.png",
        "specularTexture": null,
        "normalMap": null
      }
    }
  ],
  "buffers": [
    {
      "uri": "Waist_Medium_XManfish_01_Medium.bin",
      "byteLength": 41592
    }
  ],
  "bufferViews": [
    {
      "buffer": 0,
      "byteOffset": 0,
      "byteLength": 8784,
      "target": 34962
    },
    {
      "buffer": 0,
      "byteOffset": 8784,
      "byteLength": 8784,
      "target": 34962
    },
    {
      "buffer": 0,
      "byteOffset": 17568,
      "byteLength": 5856,
      "target": 34962
    },
    {
      "buffer": 0,
      "byteOffset": 23424,
      "byteLength": 5856,
      "target": 34962
    },
    {
      "buffer": 0,
      "byteOffset": 29280,
      "byteLength": 8784,
      "target": 34962
    },
    {
      "buffer": 0,
      "byteOffset": 38064,
      "byteLength": 3528,
      "target": 34963
    }
  ],
  "accessors": [
    {
      "bufferView": 0,
      "componentType": 5126,
      "count": 732,
      "type": "VEC3",
      "min": [
        -0.2213134765625,
        1.1689453125,
        -0.0714111328125
      ],
      "max": [
        0.2213134765625,
        1.2958984375,
        0.2685546875
      ]
    },
    {
      "bufferView": 1,
      "componentType": 5126,
      "count": 732,
      "type": "VEC3",
      "min": [
        -0.49411764705882355,
        -0.4980392156862745,
        -0.5019607843137255
      ],
      "max": [
        1,
        1,
        1
      ]
    },
    {
      "bufferView": 2,
      "componentType": 5126,
      "count": 732,
      "type": "VEC2",
      "min": [
        0.148193359375,
        0.29931640625
      ],
      "max": [
        0.478271484375,
        0.880859375
      ]
    },
    {
      "bufferView": 3,
      "componentType": 5126,
      "count": 732,
      "type": "VEC2",
      "min": [
        0,
        0.94189453125
      ],
      "max": [
        0.245361328125,
        1
      ]
    },
    {
      "bufferView": 4,
      "componentType": 5126,
      "count": 549,
      "type": "VEC4",
      "min": [
        0,
        0,
        0,
        0
      ],
      "max": [
        1,
        1,
        1,
        1
      ]
    },
    {
      "bufferView": 5,
      "componentType": 5123,
      "count": 1764,
      "type": "SCALAR",
      "min": [
        0
      ],
      "max": [
        731
      ]
    }
  ],
  "extras": {
    "manifest": "Waist_Medium_XManfish_01_Medium.materials.json"
  }
}