{
  "asset": {
    "version": "2.0",
    "generator": "prefab-to-gltf"
  },
  "scene": 0,
  "scenes": [
    {
      "name": "Arrow_Crimson_01",
      "nodes": [
        0
      ]
    }
  ],
  "nodes": [
    {
      "name": "Arrow_Crimson_01",
      "translation": [
        0,
        0,
        0
      ],
      "rotation": [
        0.7071056365966797,
        0,
        0,
        0.7071079257745626
      ],
      "scale": [
        1,
        1,
        1
      ],
      "mesh": 0
    }
  ],
  "meshes": [
    {
      "name": "Arrow_Crimson_01",
      "primitives": [
        {
          "attributes": {
            "POSITION": 0,
            "NORMAL": 1,
            "TEXCOORD_0": 2,
            "TEXCOORD_1": 3
          },
          "indices": 4,
          "material": 0,
          "mode": 4
        }
      ]
    }
  ],
  "materials": [
    {
      "name": "Gradmat_Weapon",
      "pbrMetallicRoughness": {
        "baseColorFactor": [
          1,
          1,
          1,
          1
        ],
        "metallicFactor": 0,
        "roughnessFactor": 1
      },
      "doubleSided": true,
      "extras": {
        "diffuseTexture": "Character/Common/Texture/CustomGradient_WeaponALL.png",
        "specularTexture": null,
        "normalMap": null
      }
    }
  ],
  "buffers": [
    {
      "uri": "Arrow_Crimson_01.bin",
      "byteLength": 9874
    }
  ],
  "bufferViews": [
    {
      "buffer": 0,
      "byteOffset": 0,
      "byteLength": 2676,
      "target": 34962
    },
    {
      "buffer": 0,
      "byteOffset": 2676,
      "byteLength": 2676,
      "target": 34962
    },
    {
      "buffer": 0,
      "byteOffset": 5352,
      "byteLength": 1784,
      "target": 34962
    },
    {
      "buffer": 0,
      "byteOffset": 7136,
      "byteLength": 1784,
      "target": 34962
    },
    {
      "buffer": 0,
      "byteOffset": 8920,
      "byteLength": 954,
      "target": 34963
    }
  ],
  "accessors": [
    {
      "bufferView": 0,
      "componentType": 5126,
      "count": 223,
      "type": "VEC3",
      "min": [
        -0.07354219257831573,
        -0.06909215450286865,
        -0.007645132951438427
      ],
      "max": [
        0.0729316920042038,
        0.08456659317016602,
        1.5079747438430786
      ]
    },
    {
      "bufferView": 1,
      "componentType": 5126,
      "count": 223,
      "type": "VEC3",
      "min": [
        -1,
        -0.8992615342140198,
        -0.9650068283081055
      ],
      "max": [
        1,
        0.8992613554000854,
        0.2538788318634033
      ]
    },
    {
      "bufferView": 2,
      "componentType": 5126,
      "count": 223,
      "type": "VEC2",
      "min": [
        0.04174622893333435,
        0.5047764182090759
      ],
      "max": [
        0.3464649021625519,
        0.8766318559646606
      ]
    },
    {
      "bufferView": 3,
      "componentType": 5126,
      "count": 223,
      "type": "VEC2",
      "min": [
        0.07955524325370789,
        0.8864046335220337
      ],
      "max": [
        0.07955524325370789,
        0.8864046335220337
      ]
    },
    {
      "bufferView": 4,
      "componentType": 5123,
      "count": 477,
      "type": "SCALAR",
      "min": [
        0
      ],
      "max": [
        222
      ]
    }
  ],
  "extras": {
    "manifest": "Arrow_Crimson_01.materials.json"
  }
}