{
  "asset": {
    "version": "2.0",
    "generator": "prefab-to-gltf"
  },
  "scene": 0,
  "scenes": [
    {
      "name": "Bow_RobinHoof",
      "nodes": [
        0
      ]
    }
  ],
  "nodes": [
    {
      "name": "Bow_RobinHoof",
      "translation": [
        0,
        0,
        0
      ],
      "rotation": [
        0,
        0,
        0,
        1
      ],
      "scale": [
        1,
        1,
        1
      ],
      "mesh": 0
    }
  ],
  "meshes": [
    {
      "name": "Bow_RobinHoof",
      "primitives": [
        {
          "attributes": {
            "POSITION": 0,
            "NORMAL": 1,
            "TEXCOORD_0": 2,
            "TEXCOORD_1": 3,
            "COLOR_0": 4
          },
          "indices": 5,
          "material": 0,
          "mode": 4
        }
      ]
    }
  ],
  "materials": [
    {
      "name": "standardSurface1",
      "pbrMetallicRoughness": {
        "baseColorFactor": [
          1,
          1,
          1,
          1
        ],
        "metallicFactor": 0,
        "roughnessFactor": 1
      },
      "doubleSided": true,
      "extras": {
        "diffuseTexture": null,
        "specularTexture": null,
        "normalMap": null
      }
    }
  ],
  "buffers": [
    {
      "uri": "Bow_RobinHoof.bin",
      "byteLength": 91516
    }
  ],
  "bufferViews": [
    {
      "buffer": 0,
      "byteOffset": 0,
      "byteLength": 19092,
      "target": 34962
    },
    {
      "buffer": 0,
      "byteOffset": 19092,
      "byteLength": 19092,
      "target": 34962
    },
    {
      "buffer": 0,
      "byteOffset": 38184,
      "byteLength": 12728,
      "target": 34962
    },
    {
      "buffer": 0,
      "byteOffset": 50912,
      "byteLength": 12728,
      "target": 34962
    },
    {
      "buffer": 0,
      "byteOffset": 63640,
      "byteLength": 19092,
      "target": 34962
    },
    {
      "buffer": 0,
      "byteOffset": 82732,
      "byteLength": 8784,
      "target": 34963
    }
  ],
  "accessors": [
    {
      "bufferView": 0,
      "componentType": 5126,
      "count": 1591,
      "type": "VEC3",
      "min": [
        -0.0735311508178711,
        -1.001863956451416,
        -0.39704835414886475
      ],
      "max": [
        0.0735311508178711,
        1.0018638372421265,
        0.10584911704063416
      ]
    },
    {
      "bufferView": 1,
      "componentType": 5126,
      "count": 1591,
      "type": "VEC3",
      "min": [
        -0.9998591542243958,
        -0.9974830746650696,
        -0.9997212290763855
      ],
      "max": [
        0.9999998807907104,
        0.9974817037582397,
        0.999641478061676
      ]
    },
    {
      "bufferView": 2,
      "componentType": 5126,
      "count": 1591,
      "type": "VEC2",
      "min": [
        0.03115643374621868,
        0.4120218753814697
      ],
      "max": [
        0.6017958521842957,
        0.9258585572242737
      ]
    },
    {
      "bufferView": 3,
      "componentType": 5126,
      "count": 1591,
      "type": "VEC2",
      "min": [
        0,
        0.11098659038543701
      ],
      "max": [
        0.9548465013504028,
        1
      ]
    },
    {
      "bufferView": 4,
      "componentType": 5126,
      "count": 1193.25,
      "type": "VEC4",
      "min": [
        0,
        0,
        0,
        0
      ],
      "max": [
        1,
        1,
        1,
        1
      ]
    },
    {
      "bufferView": 5,
      "componentType": 5123,
      "count": 4392,
      "type": "SCALAR",
      "min": [
        0
      ],
      "max": [
        1590
      ]
    }
  ],
  "extras": {
    "manifest": "Bow_RobinHoof.materials.json"
  }
}