{
  "asset": {
    "version": "2.0",
    "generator": "prefab-to-gltf"
  },
  "scene": 0,
  "scenes": [
    {
      "name": "Bow_Crimson_01",
      "nodes": [
        0
      ]
    }
  ],
  "nodes": [
    {
      "name": "Bow_Crimson_01",
      "translation": [
        0,
        0,
        0
      ],
      "rotation": [
        0,
        0,
        0,
        1
      ],
      "scale": [
        1,
        1,
        1
      ],
      "mesh": 0
    }
  ],
  "meshes": [
    {
      "name": "Bow_Crimson_01",
      "primitives": [
        {
          "attributes": {
            "POSITION": 0,
            "NORMAL": 1,
            "TEXCOORD_0": 2,
            "TEXCOORD_1": 3,
            "COLOR_0": 4
          },
          "indices": 5,
          "material": 0,
          "mode": 4
        }
      ]
    }
  ],
  "materials": [
    {
      "name": "GradMat_Body",
      "pbrMetallicRoughness": {
        "baseColorFactor": [
          1,
          1,
          1,
          1
        ],
        "metallicFactor": 0,
        "roughnessFactor": 1
      },
      "doubleSided": true,
      "extras": {
        "diffuseTexture": "Character/Common/Texture/CustomGradient_BasicGuy.png",
        "specularTexture": null,
        "normalMap": null
      }
    }
  ],
  "buffers": [
    {
      "uri": "Bow_Crimson_01.bin",
      "byteLength": 264312
    }
  ],
  "bufferViews": [
    {
      "buffer": 0,
      "byteOffset": 0,
      "byteLength": 53784,
      "target": 34962
    },
    {
      "buffer": 0,
      "byteOffset": 53784,
      "byteLength": 53784,
      "target": 34962
    },
    {
      "buffer": 0,
      "byteOffset": 107568,
      "byteLength": 35856,
      "target": 34962
    },
    {
      "buffer": 0,
      "byteOffset": 143424,
      "byteLength": 35856,
      "target": 34962
    },
    {
      "buffer": 0,
      "byteOffset": 179280,
      "byteLength": 53784,
      "target": 34962
    },
    {
      "buffer": 0,
      "byteOffset": 233064,
      "byteLength": 31248,
      "target": 34963
    }
  ],
  "accessors": [
    {
      "bufferView": 0,
      "componentType": 5126,
      "count": 4482,
      "type": "VEC3",
      "min": [
        -0.1878756582736969,
        -1.078903317451477,
        -0.5064734816551208
      ],
      "max": [
        0.1878756582736969,
        1.0799487829208374,
        0.28787514567375183
      ]
    },
    {
      "bufferView": 1,
      "componentType": 5126,
      "count": 4482,
      "type": "VEC3",
      "min": [
        -0.9990813732147217,
        -0.9988389611244202,
        -0.9999895095825195
      ],
      "max": [
        0.9999999403953552,
        0.9977235198020935,
        0.9999977350234985
      ]
    },
    {
      "bufferView": 2,
      "componentType": 5126,
      "count": 4482,
      "type": "VEC2",
      "min": [
        0.02517113834619522,
        0.22914254665374756
      ],
      "max": [
        0.7284591794013977,
        0.8804653286933899
      ]
    },
    {
      "bufferView": 3,
      "componentType": 5126,
      "count": 4482,
      "type": "VEC2",
      "min": [
        0,
        0.11242157220840454
      ],
      "max": [
        0.9632671475410461,
        1
      ]
    },
    {
      "bufferView": 4,
      "componentType": 5126,
      "count": 3361.5,
      "type": "VEC4",
      "min": [
        0,
        0,
        0,
        0
      ],
      "max": [
        1,
        1,
        1,
        1
      ]
    },
    {
      "bufferView": 5,
      "componentType": 5123,
      "count": 15624,
      "type": "SCALAR",
      "min": [
        0
      ],
      "max": [
        4481
      ]
    }
  ],
  "extras": {
    "manifest": "Bow_Crimson_01.materials.json"
  }
}