{
  "asset": {
    "version": "2.0",
    "generator": "prefab-to-gltf"
  },
  "scene": 0,
  "scenes": [
    {
      "name": "BowQuiver_R8_R1Tomb_FigWiz",
      "nodes": [
        0
      ]
    }
  ],
  "nodes": [
    {
      "name": "BowQuiver_R8_R1Tomb_FigWiz",
      "translation": [
        0,
        0,
        0
      ],
      "rotation": [
        0,
        0,
        0,
        1
      ],
      "scale": [
        1,
        1,
        1
      ],
      "mesh": 0
    }
  ],
  "meshes": [
    {
      "name": "BowQuiver_R8_R1Tomb_FigWiz",
      "primitives": [
        {
          "attributes": {
            "POSITION": 0,
            "NORMAL": 1,
            "TEXCOORD_0": 2,
            "TEXCOORD_1": 3,
            "COLOR_0": 4
          },
          "indices": 5,
          "material": 0,
          "mode": 4
        }
      ]
    }
  ],
  "materials": [
    {
      "name": "MatSlots_WEAPONS",
      "pbrMetallicRoughness": {
        "baseColorFactor": [
          1,
          1,
          1,
          1
        ],
        "metallicFactor": 0,
        "roughnessFactor": 1
      },
      "doubleSided": true,
      "extras": {
        "diffuseTexture": null,
        "specularTexture": null,
        "normalMap": null
      }
    },
    {
      "name": "Outline",
      "pbrMetallicRoughness": {
        "baseColorFactor": [
          1,
          1,
          1,
          1
        ],
        "metallicFactor": 0,
        "roughnessFactor": 1
      },
      "doubleSided": true,
      "extras": {
        "diffuseTexture": null,
        "specularTexture": null,
        "normalMap": null
      }
    }
  ],
  "buffers": [
    {
      "uri": "BowQuiver_R8_R1Tomb_FigWiz.bin",
      "byteLength": 47552
    }
  ],
  "bufferViews": [
    {
      "buffer": 0,
      "byteOffset": 0,
      "byteLength": 10032,
      "target": 34962
    },
    {
      "buffer": 0,
      "byteOffset": 10032,
      "byteLength": 10032,
      "target": 34962
    },
    {
      "buffer": 0,
      "byteOffset": 20064,
      "byteLength": 6688,
      "target": 34962
    },
    {
      "buffer": 0,
      "byteOffset": 26752,
      "byteLength": 6688,
      "target": 34962
    },
    {
      "buffer": 0,
      "byteOffset": 33440,
      "byteLength": 10032,
      "target": 34962
    },
    {
      "buffer": 0,
      "byteOffset": 43472,
      "byteLength": 4080,
      "target": 34963
    }
  ],
  "accessors": [
    {
      "bufferView": 0,
      "componentType": 5126,
      "count": 836,
      "type": "VEC3",
      "min": [
        -0.1592186689376831,
        -0.10094891488552094,
        -0.6300560832023621
      ],
      "max": [
        0.18023884296417236,
        0.0762760192155838,
        0.2896353602409363
      ]
    },
    {
      "bufferView": 1,
      "componentType": 5126,
      "count": 836,
      "type": "VEC3",
      "min": [
        -0.998708188533783,
        -1,
        -0.9832242727279663
      ],
      "max": [
        0.9985706806182861,
        1,
        0.9991157650947571
      ]
    },
    {
      "bufferView": 2,
      "componentType": 5126,
      "count": 836,
      "type": "VEC2",
      "min": [
        0.04174622893333435,
        0.5301802754402161
      ],
      "max": [
        0.6815346479415894,
        0.9710839986801147
      ]
    },
    {
      "bufferView": 3,
      "componentType": 5126,
      "count": 836,
      "type": "VEC2",
      "min": [
        0,
        0.25425493717193604
      ],
      "max": [
        0.9432089924812317,
        1
      ]
    },
    {
      "bufferView": 4,
      "componentType": 5126,
      "count": 627,
      "type": "VEC4",
      "min": [
        0,
        0,
        0,
        0
      ],
      "max": [
        1,
        1,
        1,
        1
      ]
    },
    {
      "bufferView": 5,
      "componentType": 5123,
      "count": 2040,
      "type": "SCALAR",
      "min": [
        0
      ],
      "max": [
        835
      ]
    }
  ],
  "extras": {
    "manifest": "BowQuiver_R8_R1Tomb_FigWiz.materials.json"
  }
}