{
  "asset": {
    "version": "2.0",
    "generator": "prefab-to-gltf"
  },
  "scene": 0,
  "scenes": [
    {
      "name": "Back_Long_WCrimson_Medium",
      "nodes": [
        0
      ]
    }
  ],
  "nodes": [
    {
      "name": "Back_R1Tomb_Ass_N",
      "translation": [
        0,
        0,
        0
      ],
      "rotation": [
        0,
        0,
        0,
        1
      ],
      "scale": [
        1,
        1,
        1
      ],
      "mesh": 0
    }
  ],
  "meshes": [
    {
      "name": "Back_R1Tomb_Ass_N",
      "primitives": [
        {
          "attributes": {
            "POSITION": 0,
            "NORMAL": 1,
            "TEXCOORD_0": 2,
            "TEXCOORD_1": 3
          },
          "indices": 4,
          "material": 0,
          "mode": 4
        }
      ]
    }
  ],
  "materials": [
    {
      "name": "GradMat_Body",
      "pbrMetallicRoughness": {
        "baseColorFactor": [
          1,
          1,
          1,
          1
        ],
        "metallicFactor": 0,
        "roughnessFactor": 1
      },
      "doubleSided": true,
      "extras": {
        "diffuseTexture": "Character/Common/Texture/CustomGradient_BasicGuy.png",
        "specularTexture": null,
        "normalMap": null
      }
    }
  ],
  "buffers": [
    {
      "uri": "Back_Long_WCrimson_Medium.bin",
      "byteLength": 105514
    }
  ],
  "bufferViews": [
    {
      "buffer": 0,
      "byteOffset": 0,
      "byteLength": 28236,
      "target": 34962
    },
    {
      "buffer": 0,
      "byteOffset": 28236,
      "byteLength": 28236,
      "target": 34962
    },
    {
      "buffer": 0,
      "byteOffset": 56472,
      "byteLength": 18824,
      "target": 34962
    },
    {
      "buffer": 0,
      "byteOffset": 75296,
      "byteLength": 18824,
      "target": 34962
    },
    {
      "buffer": 0,
      "byteOffset": 94120,
      "byteLength": 11394,
      "target": 34963
    }
  ],
  "accessors": [
    {
      "bufferView": 0,
      "componentType": 5126,
      "count": 2353,
      "type": "VEC3",
      "min": [
        -0.33154296875,
        0.447021484375,
        -0.3466796875
      ],
      "max": [
        0.332275390625,
        1.80078125,
        0.1881103515625
      ]
    },
    {
      "bufferView": 1,
      "componentType": 5126,
      "count": 2353,
      "type": "VEC3",
      "min": [
        -0.5019607843137255,
        -0.5019607843137255,
        -0.5019607843137255
      ],
      "max": [
        1,
        1,
        1
      ]
    },
    {
      "bufferView": 2,
      "componentType": 5126,
      "count": 2353,
      "type": "VEC2",
      "min": [
        0.1697998046875,
        0.322021484375
      ],
      "max": [
        0.59521484375,
        0.97314453125
      ]
    },
    {
      "bufferView": 3,
      "componentType": 5126,
      "count": 2353,
      "type": "VEC2",
      "min": [
        0,
        0.064453125
      ],
      "max": [
        0.955078125,
        1
      ]
    },
    {
      "bufferView": 4,
      "componentType": 5123,
      "count": 5697,
      "type": "SCALAR",
      "min": [
        0
      ],
      "max": [
        2352
      ]
    }
  ],
  "extras": {
    "manifest": "Back_Long_WCrimson_Medium.materials.json"
  }
}