{
  "asset": {
    "version": "2.0",
    "generator": "prefab-to-gltf"
  },
  "scene": 0,
  "scenes": [
    {
      "name": "Chest_ShortSleeves_WCrimson_Heavy",
      "nodes": [
        0
      ]
    }
  ],
  "nodes": [
    {
      "name": "Chest_R1CrimsonR_FigCle_N",
      "translation": [
        0,
        0,
        0
      ],
      "rotation": [
        0,
        0,
        0,
        1
      ],
      "scale": [
        1,
        1,
        1
      ],
      "mesh": 0,
      "children": [
        1
      ]
    },
    {
      "name": "FIGCLE",
      "translation": [
        0,
        0,
        0
      ],
      "rotation": [
        0.7071067690849304,
        0,
        0,
        0.7071067932881644
      ],
      "scale": [
        1,
        1,
        1
      ]
    }
  ],
  "meshes": [
    {
      "name": "Chest_R1CrimsonR_FigCle_N",
      "primitives": [
        {
          "attributes": {
            "POSITION": 0,
            "NORMAL": 1,
            "TEXCOORD_0": 2,
            "TEXCOORD_1": 3,
            "COLOR_0": 4
          },
          "indices": 5,
          "material": 0,
          "mode": 4
        }
      ]
    }
  ],
  "materials": [
    {
      "name": "GradMat_Body",
      "pbrMetallicRoughness": {
        "baseColorFactor": [
          1,
          1,
          1,
          1
        ],
        "metallicFactor": 0,
        "roughnessFactor": 1
      },
      "doubleSided": true,
      "extras": {
        "diffuseTexture": "Character/Common/Texture/CustomGradient_BasicGuy.png",
        "specularTexture": null,
        "normalMap": null
      }
    }
  ],
  "buffers": [
    {
      "uri": "Chest_ShortSleeves_WCrimson_Heavy.bin",
      "byteLength": 532212
    }
  ],
  "bufferViews": [
    {
      "buffer": 0,
      "byteOffset": 0,
      "byteLength": 112788,
      "target": 34962
    },
    {
      "buffer": 0,
      "byteOffset": 112788,
      "byteLength": 112788,
      "target": 34962
    },
    {
      "buffer": 0,
      "byteOffset": 225576,
      "byteLength": 75192,
      "target": 34962
    },
    {
      "buffer": 0,
      "byteOffset": 300768,
      "byteLength": 75192,
      "target": 34962
    },
    {
      "buffer": 0,
      "byteOffset": 375960,
      "byteLength": 112788,
      "target": 34962
    },
    {
      "buffer": 0,
      "byteOffset": 488748,
      "byteLength": 43464,
      "target": 34963
    }
  ],
  "accessors": [
    {
      "bufferView": 0,
      "componentType": 5126,
      "count": 9399,
      "type": "VEC3",
      "min": [
        -0.66650390625,
        1.03125,
        -0.111083984375
      ],
      "max": [
        0.66650390625,
        1.9326171875,
        0.2493896484375
      ]
    },
    {
      "bufferView": 1,
      "componentType": 5126,
      "count": 9399,
      "type": "VEC3",
      "min": [
        -0.5019607843137255,
        -0.5019607843137255,
        -0.5019607843137255
      ],
      "max": [
        1,
        1,
        1
      ]
    },
    {
      "bufferView": 2,
      "componentType": 5126,
      "count": 9399,
      "type": "VEC2",
      "min": [
        0,
        0.07257080078125
      ],
      "max": [
        0.853515625,
        1
      ]
    },
    {
      "bufferView": 3,
      "componentType": 5126,
      "count": 9399,
      "type": "VEC2",
      "min": [
        0,
        0.1925048828125
      ],
      "max": [
        0.95654296875,
        1
      ]
    },
    {
      "bufferView": 4,
      "componentType": 5126,
      "count": 7049.25,
      "type": "VEC4",
      "min": [
        0.3607843220233917,
        0.3607843220233917,
        0.3607843220233917,
        0.3607843220233917
      ],
      "max": [
        1,
        1,
        1,
        1
      ]
    },
    {
      "bufferView": 5,
      "componentType": 5123,
      "count": 21732,
      "type": "SCALAR",
      "min": [
        0
      ],
      "max": [
        9398
      ]
    }
  ],
  "extras": {
    "manifest": "Chest_ShortSleeves_WCrimson_Heavy.materials.json"
  }
}