{
  "asset": {
    "version": "2.0",
    "generator": "prefab-to-gltf"
  },
  "scene": 0,
  "scenes": [
    {
      "name": "Chest_LongSleeves_WCrimson_Light",
      "nodes": [
        0
      ]
    }
  ],
  "nodes": [
    {
      "name": "Chest_R1CrimsonC_WizCle_N",
      "translation": [
        0,
        0,
        0
      ],
      "rotation": [
        0,
        0,
        0,
        1
      ],
      "scale": [
        1,
        1,
        1
      ],
      "mesh": 0
    }
  ],
  "meshes": [
    {
      "name": "Chest_R1CrimsonC_WizCle_N",
      "primitives": [
        {
          "attributes": {
            "POSITION": 0,
            "NORMAL": 1,
            "TEXCOORD_0": 2,
            "TEXCOORD_1": 3,
            "COLOR_0": 4
          },
          "indices": 5,
          "material": 0,
          "mode": 4
        }
      ]
    }
  ],
  "materials": [
    {
      "name": "GradMat_Body",
      "pbrMetallicRoughness": {
        "baseColorFactor": [
          1,
          1,
          1,
          1
        ],
        "metallicFactor": 0,
        "roughnessFactor": 1
      },
      "doubleSided": true,
      "extras": {
        "diffuseTexture": "Character/Common/Texture/CustomGradient_BasicGuy.png",
        "specularTexture": null,
        "normalMap": null
      }
    }
  ],
  "buffers": [
    {
      "uri": "Chest_LongSleeves_WCrimson_Light.bin",
      "byteLength": 888060
    }
  ],
  "bufferViews": [
    {
      "buffer": 0,
      "byteOffset": 0,
      "byteLength": 187776,
      "target": 34962
    },
    {
      "buffer": 0,
      "byteOffset": 187776,
      "byteLength": 187776,
      "target": 34962
    },
    {
      "buffer": 0,
      "byteOffset": 375552,
      "byteLength": 125184,
      "target": 34962
    },
    {
      "buffer": 0,
      "byteOffset": 500736,
      "byteLength": 125184,
      "target": 34962
    },
    {
      "buffer": 0,
      "byteOffset": 625920,
      "byteLength": 187776,
      "target": 34962
    },
    {
      "buffer": 0,
      "byteOffset": 813696,
      "byteLength": 74364,
      "target": 34963
    }
  ],
  "accessors": [
    {
      "bufferView": 0,
      "componentType": 5126,
      "count": 15648,
      "type": "VEC3",
      "min": [
        -0.66650390625,
        0.08514404296875,
        -0.27490234375
      ],
      "max": [
        0.66650390625,
        1.9326171875,
        0.382568359375
      ]
    },
    {
      "bufferView": 1,
      "componentType": 5126,
      "count": 15648,
      "type": "VEC3",
      "min": [
        -0.5019607843137255,
        -0.5019607843137255,
        -0.5019607843137255
      ],
      "max": [
        1,
        1,
        1
      ]
    },
    {
      "bufferView": 2,
      "componentType": 5126,
      "count": 15648,
      "type": "VEC2",
      "min": [
        0.03369140625,
        0.049713134765625
      ],
      "max": [
        0.95361328125,
        0.98583984375
      ]
    },
    {
      "bufferView": 3,
      "componentType": 5126,
      "count": 15648,
      "type": "VEC2",
      "min": [
        0,
        0.10845947265625
      ],
      "max": [
        0.94091796875,
        1
      ]
    },
    {
      "bufferView": 4,
      "componentType": 5126,
      "count": 11736,
      "type": "VEC4",
      "min": [
        0,
        0,
        0,
        0
      ],
      "max": [
        1,
        1,
        1,
        1
      ]
    },
    {
      "bufferView": 5,
      "componentType": 5123,
      "count": 37182,
      "type": "SCALAR",
      "min": [
        0
      ],
      "max": [
        15647
      ]
    }
  ],
  "extras": {
    "manifest": "Chest_LongSleeves_WCrimson_Light.materials.json"
  }
}