{
  "asset": {
    "version": "2.0",
    "generator": "prefab-to-gltf"
  },
  "scene": 0,
  "scenes": [
    {
      "name": "Feet_High_WCrimson_Medium",
      "nodes": [
        0
      ]
    }
  ],
  "nodes": [
    {
      "name": "Feet_R1CrimsonC_AssCle_N",
      "translation": [
        0,
        0,
        0
      ],
      "rotation": [
        0,
        0,
        0,
        1
      ],
      "scale": [
        1,
        1,
        1
      ],
      "mesh": 0
    }
  ],
  "meshes": [
    {
      "name": "Feet_R1CrimsonC_AssCle_N",
      "primitives": [
        {
          "attributes": {
            "POSITION": 0,
            "NORMAL": 1,
            "TEXCOORD_0": 2,
            "TEXCOORD_1": 3
          },
          "indices": 4,
          "material": 0,
          "mode": 4
        }
      ]
    }
  ],
  "materials": [
    {
      "name": "GradMat_Body",
      "pbrMetallicRoughness": {
        "baseColorFactor": [
          1,
          1,
          1,
          1
        ],
        "metallicFactor": 0,
        "roughnessFactor": 1
      },
      "doubleSided": true,
      "extras": {
        "diffuseTexture": "Character/Common/Texture/CustomGradient_BasicGuy.png",
        "specularTexture": null,
        "normalMap": null
      }
    }
  ],
  "buffers": [
    {
      "uri": "Feet_High_WCrimson_Medium.bin",
      "byteLength": 250084
    }
  ],
  "bufferViews": [
    {
      "buffer": 0,
      "byteOffset": 0,
      "byteLength": 66360,
      "target": 34962
    },
    {
      "buffer": 0,
      "byteOffset": 66360,
      "byteLength": 66360,
      "target": 34962
    },
    {
      "buffer": 0,
      "byteOffset": 132720,
      "byteLength": 44240,
      "target": 34962
    },
    {
      "buffer": 0,
      "byteOffset": 176960,
      "byteLength": 44240,
      "target": 34962
    },
    {
      "buffer": 0,
      "byteOffset": 221200,
      "byteLength": 28884,
      "target": 34963
    }
  ],
  "accessors": [
    {
      "bufferView": 0,
      "componentType": 5126,
      "count": 5530,
      "type": "VEC3",
      "min": [
        -0.417724609375,
        -0.00751495361328125,
        -0.155029296875
      ],
      "max": [
        0.417724609375,
        0.56103515625,
        0.3134765625
      ]
    },
    {
      "bufferView": 1,
      "componentType": 5126,
      "count": 5530,
      "type": "VEC3",
      "min": [
        -0.5019607843137255,
        -0.5019607843137255,
        -0.5019607843137255
      ],
      "max": [
        1,
        1,
        1
      ]
    },
    {
      "bufferView": 2,
      "componentType": 5126,
      "count": 5530,
      "type": "VEC2",
      "min": [
        0.0258941650390625,
        0.150634765625
      ],
      "max": [
        0.49462890625,
        0.98193359375
      ]
    },
    {
      "bufferView": 3,
      "componentType": 5126,
      "count": 5530,
      "type": "VEC2",
      "min": [
        0,
        0.1136474609375
      ],
      "max": [
        0.9423828125,
        1
      ]
    },
    {
      "bufferView": 4,
      "componentType": 5123,
      "count": 14442,
      "type": "SCALAR",
      "min": [
        0
      ],
      "max": [
        5529
      ]
    }
  ],
  "extras": {
    "manifest": "Feet_High_WCrimson_Medium.materials.json"
  }
}