{
  "asset": {
    "version": "2.0",
    "generator": "prefab-to-gltf"
  },
  "scene": 0,
  "scenes": [
    {
      "name": "Legs_Whole_WCrimson_Heavy",
      "nodes": [
        0
      ]
    }
  ],
  "nodes": [
    {
      "name": "Legs_R1CrimsonR_Fig_N",
      "translation": [
        0,
        0,
        0
      ],
      "rotation": [
        0,
        0,
        0,
        1
      ],
      "scale": [
        1,
        1,
        1
      ],
      "mesh": 0
    }
  ],
  "meshes": [
    {
      "name": "Legs_R1CrimsonR_Fig_N",
      "primitives": [
        {
          "attributes": {
            "POSITION": 0,
            "NORMAL": 1,
            "TEXCOORD_0": 2,
            "TEXCOORD_1": 3
          },
          "indices": 4,
          "material": 0,
          "mode": 4
        }
      ]
    }
  ],
  "materials": [
    {
      "name": "GradMat_Body",
      "pbrMetallicRoughness": {
        "baseColorFactor": [
          1,
          1,
          1,
          1
        ],
        "metallicFactor": 0,
        "roughnessFactor": 1
      },
      "doubleSided": true,
      "extras": {
        "diffuseTexture": "Character/Common/Texture/CustomGradient_BasicGuy.png",
        "specularTexture": null,
        "normalMap": null
      }
    }
  ],
  "buffers": [
    {
      "uri": "Legs_Whole_WCrimson_Heavy.bin",
      "byteLength": 160748
    }
  ],
  "bufferViews": [
    {
      "buffer": 0,
      "byteOffset": 0,
      "byteLength": 43512,
      "target": 34962
    },
    {
      "buffer": 0,
      "byteOffset": 43512,
      "byteLength": 43512,
      "target": 34962
    },
    {
      "buffer": 0,
      "byteOffset": 87024,
      "byteLength": 29008,
      "target": 34962
    },
    {
      "buffer": 0,
      "byteOffset": 116032,
      "byteLength": 29008,
      "target": 34962
    },
    {
      "buffer": 0,
      "byteOffset": 145040,
      "byteLength": 15708,
      "target": 34963
    }
  ],
  "accessors": [
    {
      "bufferView": 0,
      "componentType": 5126,
      "count": 3626,
      "type": "VEC3",
      "min": [
        -0.40673828125,
        0.08514404296875,
        -0.1431884765625
      ],
      "max": [
        0.40673828125,
        1.2763671875,
        0.262451171875
      ]
    },
    {
      "bufferView": 1,
      "componentType": 5126,
      "count": 3626,
      "type": "VEC3",
      "min": [
        -0.5019607843137255,
        -0.5019607843137255,
        -0.5019607843137255
      ],
      "max": [
        1,
        1,
        1
      ]
    },
    {
      "bufferView": 2,
      "componentType": 5126,
      "count": 3626,
      "type": "VEC2",
      "min": [
        0.053070068359375,
        0.224609375
      ],
      "max": [
        0.86376953125,
        0.8623046875
      ]
    },
    {
      "bufferView": 3,
      "componentType": 5126,
      "count": 3626,
      "type": "VEC2",
      "min": [
        0.04644775390625,
        0.115234375
      ],
      "max": [
        0.94677734375,
        0.96923828125
      ]
    },
    {
      "bufferView": 4,
      "componentType": 5123,
      "count": 7854,
      "type": "SCALAR",
      "min": [
        0
      ],
      "max": [
        3625
      ]
    }
  ],
  "extras": {
    "manifest": "Legs_Whole_WCrimson_Heavy.materials.json"
  }
}