{
  "asset": {
    "version": "2.0",
    "generator": "prefab-to-gltf"
  },
  "scene": 0,
  "scenes": [
    {
      "name": "Legs_Shin_WCrimson_Light",
      "nodes": [
        0
      ]
    }
  ],
  "nodes": [
    {
      "name": "Legs_R1CrimsonR_WizCle_N",
      "translation": [
        0,
        0,
        0
      ],
      "rotation": [
        0,
        0,
        0,
        1
      ],
      "scale": [
        1,
        1,
        1
      ],
      "mesh": 0
    }
  ],
  "meshes": [
    {
      "name": "Legs_R1CrimsonR_WizCle_N",
      "primitives": [
        {
          "attributes": {
            "POSITION": 0,
            "NORMAL": 1,
            "TEXCOORD_0": 2,
            "TEXCOORD_1": 3
          },
          "indices": 4,
          "material": 0,
          "mode": 4
        }
      ]
    }
  ],
  "materials": [
    {
      "name": "GradMat_Body",
      "pbrMetallicRoughness": {
        "baseColorFactor": [
          1,
          1,
          1,
          1
        ],
        "metallicFactor": 0,
        "roughnessFactor": 1
      },
      "doubleSided": true,
      "extras": {
        "diffuseTexture": "Character/Common/Texture/CustomGradient_BasicGuy.png",
        "specularTexture": null,
        "normalMap": null
      }
    }
  ],
  "buffers": [
    {
      "uri": "Legs_Shin_WCrimson_Light.bin",
      "byteLength": 205436
    }
  ],
  "bufferViews": [
    {
      "buffer": 0,
      "byteOffset": 0,
      "byteLength": 55608,
      "target": 34962
    },
    {
      "buffer": 0,
      "byteOffset": 55608,
      "byteLength": 55608,
      "target": 34962
    },
    {
      "buffer": 0,
      "byteOffset": 111216,
      "byteLength": 37072,
      "target": 34962
    },
    {
      "buffer": 0,
      "byteOffset": 148288,
      "byteLength": 37072,
      "target": 34962
    },
    {
      "buffer": 0,
      "byteOffset": 185360,
      "byteLength": 20076,
      "target": 34963
    }
  ],
  "accessors": [
    {
      "bufferView": 0,
      "componentType": 5126,
      "count": 4634,
      "type": "VEC3",
      "min": [
        -0.42578125,
        0.08514404296875,
        -0.1103515625
      ],
      "max": [
        0.42578125,
        1.2763671875,
        0.2364501953125
      ]
    },
    {
      "bufferView": 1,
      "componentType": 5126,
      "count": 4634,
      "type": "VEC3",
      "min": [
        -0.5019607843137255,
        -0.5019607843137255,
        -0.5019607843137255
      ],
      "max": [
        1,
        1,
        1
      ]
    },
    {
      "bufferView": 2,
      "componentType": 5126,
      "count": 4634,
      "type": "VEC2",
      "min": [
        0.05267333984375,
        0.27587890625
      ],
      "max": [
        0.859375,
        0.98779296875
      ]
    },
    {
      "bufferView": 3,
      "componentType": 5126,
      "count": 4634,
      "type": "VEC2",
      "min": [
        0,
        0.316162109375
      ],
      "max": [
        0.94287109375,
        1
      ]
    },
    {
      "bufferView": 4,
      "componentType": 5123,
      "count": 10038,
      "type": "SCALAR",
      "min": [
        0
      ],
      "max": [
        4633
      ]
    }
  ],
  "extras": {
    "manifest": "Legs_Shin_WCrimson_Light.materials.json"
  }
}