{
  "asset": {
    "version": "2.0",
    "generator": "prefab-to-gltf"
  },
  "scene": 0,
  "scenes": [
    {
      "name": "Legs_Shin_WCrimson_Medium",
      "nodes": [
        0
      ]
    }
  ],
  "nodes": [
    {
      "name": "Legs_R1Tomb_AssCle_N",
      "translation": [
        0,
        0,
        0
      ],
      "rotation": [
        0,
        0,
        0,
        1
      ],
      "scale": [
        1,
        1,
        1
      ],
      "mesh": 0
    }
  ],
  "meshes": [
    {
      "name": "Legs_R1Tomb_AssCle_N",
      "primitives": [
        {
          "attributes": {
            "POSITION": 0,
            "NORMAL": 1,
            "TEXCOORD_0": 2,
            "TEXCOORD_1": 3
          },
          "indices": 4,
          "material": 0,
          "mode": 4
        }
      ]
    }
  ],
  "materials": [
    {
      "name": "GradMat_Body",
      "pbrMetallicRoughness": {
        "baseColorFactor": [
          1,
          1,
          1,
          1
        ],
        "metallicFactor": 0,
        "roughnessFactor": 1
      },
      "doubleSided": true,
      "extras": {
        "diffuseTexture": "Character/Common/Texture/CustomGradient_RobinHoof.png",
        "specularTexture": null,
        "normalMap": null
      }
    }
  ],
  "buffers": [
    {
      "uri": "Legs_Shin_WCrimson_Medium.bin",
      "byteLength": 173024
    }
  ],
  "bufferViews": [
    {
      "buffer": 0,
      "byteOffset": 0,
      "byteLength": 46716,
      "target": 34962
    },
    {
      "buffer": 0,
      "byteOffset": 46716,
      "byteLength": 46716,
      "target": 34962
    },
    {
      "buffer": 0,
      "byteOffset": 93432,
      "byteLength": 31144,
      "target": 34962
    },
    {
      "buffer": 0,
      "byteOffset": 124576,
      "byteLength": 31144,
      "target": 34962
    },
    {
      "buffer": 0,
      "byteOffset": 155720,
      "byteLength": 17304,
      "target": 34963
    }
  ],
  "accessors": [
    {
      "bufferView": 0,
      "componentType": 5126,
      "count": 3893,
      "type": "VEC3",
      "min": [
        -0.36962890625,
        0.08514404296875,
        -0.08807373046875
      ],
      "max": [
        0.36962890625,
        1.2763671875,
        0.239501953125
      ]
    },
    {
      "bufferView": 1,
      "componentType": 5126,
      "count": 3893,
      "type": "VEC3",
      "min": [
        -0.5019607843137255,
        -0.5019607843137255,
        -0.5019607843137255
      ],
      "max": [
        1,
        1,
        1
      ]
    },
    {
      "bufferView": 2,
      "componentType": 5126,
      "count": 3893,
      "type": "VEC2",
      "min": [
        0.053192138671875,
        0.1861572265625
      ],
      "max": [
        0.9677734375,
        0.9521484375
      ]
    },
    {
      "bufferView": 3,
      "componentType": 5126,
      "count": 3893,
      "type": "VEC2",
      "min": [
        0,
        0.121826171875
      ],
      "max": [
        0.9443359375,
        1
      ]
    },
    {
      "bufferView": 4,
      "componentType": 5123,
      "count": 8652,
      "type": "SCALAR",
      "min": [
        0
      ],
      "max": [
        3892
      ]
    }
  ],
  "extras": {
    "manifest": "Legs_Shin_WCrimson_Medium.materials.json"
  }
}