{
  "asset": {
    "version": "2.0",
    "generator": "prefab-to-gltf"
  },
  "scene": 0,
  "scenes": [
    {
      "name": "Waist_Medium_WCrimson_Heavy",
      "nodes": [
        0
      ]
    }
  ],
  "nodes": [
    {
      "name": "Waist_R1Tomb_FigWiz_N",
      "translation": [
        0,
        0,
        0
      ],
      "rotation": [
        0,
        0,
        0,
        1
      ],
      "scale": [
        1,
        1,
        1
      ],
      "mesh": 0
    }
  ],
  "meshes": [
    {
      "name": "Waist_R1Tomb_FigWiz_N",
      "primitives": [
        {
          "attributes": {
            "POSITION": 0,
            "NORMAL": 1,
            "TEXCOORD_0": 2,
            "TEXCOORD_1": 3
          },
          "indices": 4,
          "material": 0,
          "mode": 4
        }
      ]
    }
  ],
  "materials": [
    {
      "name": "Gradmat_Weapon",
      "pbrMetallicRoughness": {
        "baseColorFactor": [
          1,
          1,
          1,
          1
        ],
        "metallicFactor": 0,
        "roughnessFactor": 1
      },
      "doubleSided": true,
      "extras": {
        "diffuseTexture": "Character/Common/Texture/CustomGradient_WeaponALL.png",
        "specularTexture": null,
        "normalMap": null
      }
    }
  ],
  "buffers": [
    {
      "uri": "Waist_Medium_WCrimson_Heavy.bin",
      "byteLength": 97296
    }
  ],
  "bufferViews": [
    {
      "buffer": 0,
      "byteOffset": 0,
      "byteLength": 25776,
      "target": 34962
    },
    {
      "buffer": 0,
      "byteOffset": 25776,
      "byteLength": 25776,
      "target": 34962
    },
    {
      "buffer": 0,
      "byteOffset": 51552,
      "byteLength": 17184,
      "target": 34962
    },
    {
      "buffer": 0,
      "byteOffset": 68736,
      "byteLength": 17184,
      "target": 34962
    },
    {
      "buffer": 0,
      "byteOffset": 85920,
      "byteLength": 11376,
      "target": 34963
    }
  ],
  "accessors": [
    {
      "bufferView": 0,
      "componentType": 5126,
      "count": 2148,
      "type": "VEC3",
      "min": [
        -0.2369384765625,
        1.14453125,
        -0.087158203125
      ],
      "max": [
        0.238037109375,
        1.3193359375,
        0.295654296875
      ]
    },
    {
      "bufferView": 1,
      "componentType": 5126,
      "count": 2148,
      "type": "VEC3",
      "min": [
        -0.5019607843137255,
        -0.5019607843137255,
        -0.5019607843137255
      ],
      "max": [
        1,
        1,
        1
      ]
    },
    {
      "bufferView": 2,
      "componentType": 5126,
      "count": 2148,
      "type": "VEC2",
      "min": [
        0.1612548828125,
        0.238525390625
      ],
      "max": [
        0.70556640625,
        0.9755859375
      ]
    },
    {
      "bufferView": 3,
      "componentType": 5126,
      "count": 2148,
      "type": "VEC2",
      "min": [
        0,
        0.0963134765625
      ],
      "max": [
        0.912109375,
        1
      ]
    },
    {
      "bufferView": 4,
      "componentType": 5123,
      "count": 5688,
      "type": "SCALAR",
      "min": [
        0
      ],
      "max": [
        2147
      ]
    }
  ],
  "extras": {
    "manifest": "Waist_Medium_WCrimson_Heavy.materials.json"
  }
}