{
  "asset": {
    "version": "2.0",
    "generator": "prefab-to-gltf"
  },
  "scene": 0,
  "scenes": [
    {
      "name": "Beard_Full_01",
      "nodes": [
        0
      ]
    }
  ],
  "nodes": [
    {
      "name": "Beard_Full_01",
      "translation": [
        0,
        0,
        0
      ],
      "rotation": [
        0,
        0,
        0,
        1
      ],
      "scale": [
        1,
        1,
        1
      ],
      "mesh": 0
    }
  ],
  "meshes": [
    {
      "name": "Beard_Full_01",
      "primitives": [
        {
          "attributes": {
            "POSITION": 0,
            "NORMAL": 1,
            "TEXCOORD_0": 2,
            "TEXCOORD_1": 3,
            "COLOR_0": 4
          },
          "indices": 5,
          "material": 0,
          "mode": 4
        }
      ]
    }
  ],
  "materials": [
    {
      "name": "Gradmat_Weapon",
      "pbrMetallicRoughness": {
        "baseColorFactor": [
          1,
          1,
          1,
          1
        ],
        "metallicFactor": 0,
        "roughnessFactor": 1
      },
      "doubleSided": true,
      "extras": {
        "diffuseTexture": "Character/Common/Texture/CustomGradient_Hero_Clothes.png",
        "specularTexture": null,
        "normalMap": null
      }
    }
  ],
  "buffers": [
    {
      "uri": "Beard_Full_01.bin",
      "byteLength": 96624
    }
  ],
  "bufferViews": [
    {
      "buffer": 0,
      "byteOffset": 0,
      "byteLength": 21384,
      "target": 34962
    },
    {
      "buffer": 0,
      "byteOffset": 21384,
      "byteLength": 21384,
      "target": 34962
    },
    {
      "buffer": 0,
      "byteOffset": 42768,
      "byteLength": 14256,
      "target": 34962
    },
    {
      "buffer": 0,
      "byteOffset": 57024,
      "byteLength": 14256,
      "target": 34962
    },
    {
      "buffer": 0,
      "byteOffset": 71280,
      "byteLength": 21384,
      "target": 34962
    },
    {
      "buffer": 0,
      "byteOffset": 92664,
      "byteLength": 3960,
      "target": 34963
    }
  ],
  "accessors": [
    {
      "bufferView": 0,
      "componentType": 5126,
      "count": 1782,
      "type": "VEC3",
      "min": [
        -0.133651003241539,
        1.7786396741867065,
        0.06256602704524994
      ],
      "max": [
        0.13593512773513794,
        2.01313853263855,
        0.2552715241909027
      ]
    },
    {
      "bufferView": 1,
      "componentType": 5126,
      "count": 1782,
      "type": "VEC3",
      "min": [
        -0.9952258467674255,
        -0.9919860363006592,
        -0.9603269696235657
      ],
      "max": [
        0.9923200011253357,
        0.9548411965370178,
        0.9999751448631287
      ]
    },
    {
      "bufferView": 2,
      "componentType": 5126,
      "count": 1782,
      "type": "VEC2",
      "min": [
        0.14359882473945618,
        0.5514609217643738
      ],
      "max": [
        0.18691688776016235,
        0.8403092622756958
      ]
    },
    {
      "bufferView": 3,
      "componentType": 5126,
      "count": 1782,
      "type": "VEC2",
      "min": [
        0.049026958644390106,
        0.9125451445579529
      ],
      "max": [
        0.07537397742271423,
        0.9507126808166504
      ]
    },
    {
      "bufferView": 4,
      "componentType": 5126,
      "count": 1336.5,
      "type": "VEC4",
      "min": [
        0,
        0,
        0,
        0
      ],
      "max": [
        0.5,
        0.5,
        0.5,
        0.5
      ]
    },
    {
      "bufferView": 5,
      "componentType": 5123,
      "count": 1980,
      "type": "SCALAR",
      "min": [
        0
      ],
      "max": [
        1781
      ]
    }
  ],
  "extras": {
    "manifest": "Beard_Full_01.materials.json"
  }
}