{
  "asset": {
    "version": "2.0",
    "generator": "prefab-to-gltf"
  },
  "scene": 0,
  "scenes": [
    {
      "name": "Beard_Goatee_02",
      "nodes": [
        0
      ]
    }
  ],
  "nodes": [
    {
      "name": "Beard_Gotee_02",
      "translation": [
        0,
        0,
        0
      ],
      "rotation": [
        0,
        0,
        0,
        1
      ],
      "scale": [
        1,
        1,
        1
      ],
      "mesh": 0
    }
  ],
  "meshes": [
    {
      "name": "Beard_Gotee_02",
      "primitives": [
        {
          "attributes": {
            "POSITION": 0,
            "NORMAL": 1,
            "TEXCOORD_0": 2,
            "TEXCOORD_1": 3,
            "COLOR_0": 4
          },
          "indices": 5,
          "material": 0,
          "mode": 4
        }
      ]
    }
  ],
  "materials": [
    {
      "name": "Gradmat_Weapon",
      "pbrMetallicRoughness": {
        "baseColorFactor": [
          1,
          1,
          1,
          1
        ],
        "metallicFactor": 0,
        "roughnessFactor": 1
      },
      "doubleSided": true,
      "extras": {
        "diffuseTexture": "Character/Common/Texture/CustomGradient_Hero_Clothes.png",
        "specularTexture": null,
        "normalMap": null
      }
    }
  ],
  "buffers": [
    {
      "uri": "Beard_Goatee_02.bin",
      "byteLength": 30868
    }
  ],
  "bufferViews": [
    {
      "buffer": 0,
      "byteOffset": 0,
      "byteLength": 6744,
      "target": 34962
    },
    {
      "buffer": 0,
      "byteOffset": 6744,
      "byteLength": 6744,
      "target": 34962
    },
    {
      "buffer": 0,
      "byteOffset": 13488,
      "byteLength": 4496,
      "target": 34962
    },
    {
      "buffer": 0,
      "byteOffset": 17984,
      "byteLength": 4496,
      "target": 34962
    },
    {
      "buffer": 0,
      "byteOffset": 22480,
      "byteLength": 6744,
      "target": 34962
    },
    {
      "buffer": 0,
      "byteOffset": 29224,
      "byteLength": 1644,
      "target": 34963
    }
  ],
  "accessors": [
    {
      "bufferView": 0,
      "componentType": 5126,
      "count": 562,
      "type": "VEC3",
      "min": [
        -0.06166401505470276,
        1.8015892505645752,
        0.16693606972694397
      ],
      "max": [
        0.062403690069913864,
        1.9167370796203613,
        0.2552715241909027
      ]
    },
    {
      "bufferView": 1,
      "componentType": 5126,
      "count": 562,
      "type": "VEC3",
      "min": [
        -0.9884055852890015,
        -0.9975385665893555,
        -0.43696266412734985
      ],
      "max": [
        0.9996607899665833,
        0.9548411965370178,
        0.9973739981651306
      ]
    },
    {
      "bufferView": 2,
      "componentType": 5126,
      "count": 562,
      "type": "VEC2",
      "min": [
        0.14359882473945618,
        0.48644590377807617
      ],
      "max": [
        0.22744613885879517,
        0.7615534067153931
      ]
    },
    {
      "bufferView": 3,
      "componentType": 5126,
      "count": 562,
      "type": "VEC2",
      "min": [
        0.048754386603832245,
        0.9265115857124329
      ],
      "max": [
        0.06494298577308655,
        0.9505692720413208
      ]
    },
    {
      "bufferView": 4,
      "componentType": 5126,
      "count": 421.5,
      "type": "VEC4",
      "min": [
        0,
        0,
        0,
        0
      ],
      "max": [
        0.9999715685844421,
        0.9999715685844421,
        0.9999715685844421,
        0.9999715685844421
      ]
    },
    {
      "bufferView": 5,
      "componentType": 5123,
      "count": 822,
      "type": "SCALAR",
      "min": [
        0
      ],
      "max": [
        561
      ]
    }
  ],
  "extras": {
    "manifest": "Beard_Goatee_02.materials.json"
  }
}