{
  "asset": {
    "version": "2.0",
    "generator": "prefab-to-gltf"
  },
  "scene": 0,
  "scenes": [
    {
      "name": "Beard_Goatee_01",
      "nodes": [
        0
      ]
    }
  ],
  "nodes": [
    {
      "name": "Beard_Gotee",
      "translation": [
        0,
        0,
        0
      ],
      "rotation": [
        0,
        0,
        0,
        1
      ],
      "scale": [
        1,
        1,
        1
      ],
      "mesh": 0
    }
  ],
  "meshes": [
    {
      "name": "Beard_Gotee",
      "primitives": [
        {
          "attributes": {
            "POSITION": 0,
            "NORMAL": 1,
            "TEXCOORD_0": 2,
            "TEXCOORD_1": 3,
            "COLOR_0": 4
          },
          "indices": 5,
          "material": 0,
          "mode": 4
        }
      ]
    }
  ],
  "materials": [
    {
      "name": "Gradmat_Weapon",
      "pbrMetallicRoughness": {
        "baseColorFactor": [
          1,
          1,
          1,
          1
        ],
        "metallicFactor": 0,
        "roughnessFactor": 1
      },
      "doubleSided": true,
      "extras": {
        "diffuseTexture": "Character/Common/Texture/CustomGradient_Hero_Clothes.png",
        "specularTexture": null,
        "normalMap": null
      }
    }
  ],
  "buffers": [
    {
      "uri": "Beard_Goatee_01.bin",
      "byteLength": 21060
    }
  ],
  "bufferViews": [
    {
      "buffer": 0,
      "byteOffset": 0,
      "byteLength": 4680,
      "target": 34962
    },
    {
      "buffer": 0,
      "byteOffset": 4680,
      "byteLength": 4680,
      "target": 34962
    },
    {
      "buffer": 0,
      "byteOffset": 9360,
      "byteLength": 3120,
      "target": 34962
    },
    {
      "buffer": 0,
      "byteOffset": 12480,
      "byteLength": 3120,
      "target": 34962
    },
    {
      "buffer": 0,
      "byteOffset": 15600,
      "byteLength": 4680,
      "target": 34962
    },
    {
      "buffer": 0,
      "byteOffset": 20280,
      "byteLength": 780,
      "target": 34963
    }
  ],
  "accessors": [
    {
      "bufferView": 0,
      "componentType": 5126,
      "count": 390,
      "type": "VEC3",
      "min": [
        -0.04100466147065163,
        1.8015892505645752,
        0.16693606972694397
      ],
      "max": [
        0.04273711144924164,
        1.8602757453918457,
        0.24273990094661713
      ]
    },
    {
      "bufferView": 1,
      "componentType": 5126,
      "count": 390,
      "type": "VEC3",
      "min": [
        -0.9884055852890015,
        -0.9975385665893555,
        -0.43696266412734985
      ],
      "max": [
        0.9996607899665833,
        0.6497124433517456,
        0.9973739981651306
      ]
    },
    {
      "bufferView": 2,
      "componentType": 5126,
      "count": 390,
      "type": "VEC2",
      "min": [
        0.1631242334842682,
        0.48644590377807617
      ],
      "max": [
        0.22744613885879517,
        0.7549542188644409
      ]
    },
    {
      "bufferView": 3,
      "componentType": 5126,
      "count": 390,
      "type": "VEC2",
      "min": [
        0.048754386603832245,
        0.9369153380393982
      ],
      "max": [
        0.061497077345848083,
        0.9505692720413208
      ]
    },
    {
      "bufferView": 4,
      "componentType": 5126,
      "count": 292.5,
      "type": "VEC4",
      "min": [
        0,
        0,
        0,
        0
      ],
      "max": [
        0.9999715685844421,
        0.9999715685844421,
        0.9999715685844421,
        0.9999715685844421
      ]
    },
    {
      "bufferView": 5,
      "componentType": 5123,
      "count": 390,
      "type": "SCALAR",
      "min": [
        0
      ],
      "max": [
        389
      ]
    }
  ],
  "extras": {
    "manifest": "Beard_Goatee_01.materials.json"
  }
}