{
  "asset": {
    "version": "2.0",
    "generator": "prefab-to-gltf"
  },
  "scene": 0,
  "scenes": [
    {
      "name": "Beard_Full_02",
      "nodes": [
        0
      ]
    }
  ],
  "nodes": [
    {
      "name": "Beard_Full_02",
      "translation": [
        0,
        0,
        0
      ],
      "rotation": [
        0,
        0,
        0,
        1
      ],
      "scale": [
        1,
        1,
        1
      ],
      "mesh": 0
    }
  ],
  "meshes": [
    {
      "name": "Beard_Full_02",
      "primitives": [
        {
          "attributes": {
            "POSITION": 0,
            "NORMAL": 1,
            "TEXCOORD_0": 2,
            "TEXCOORD_1": 3,
            "COLOR_0": 4
          },
          "indices": 5,
          "material": 0,
          "mode": 4
        }
      ]
    }
  ],
  "materials": [
    {
      "name": "standardSurface1",
      "pbrMetallicRoughness": {
        "baseColorFactor": [
          1,
          1,
          1,
          1
        ],
        "metallicFactor": 0,
        "roughnessFactor": 1
      },
      "doubleSided": true,
      "extras": {
        "diffuseTexture": null,
        "specularTexture": null,
        "normalMap": null
      }
    }
  ],
  "buffers": [
    {
      "uri": "Beard_Full_02.bin",
      "byteLength": 106624
    }
  ],
  "bufferViews": [
    {
      "buffer": 0,
      "byteOffset": 0,
      "byteLength": 23448,
      "target": 34962
    },
    {
      "buffer": 0,
      "byteOffset": 23448,
      "byteLength": 23448,
      "target": 34962
    },
    {
      "buffer": 0,
      "byteOffset": 46896,
      "byteLength": 15632,
      "target": 34962
    },
    {
      "buffer": 0,
      "byteOffset": 62528,
      "byteLength": 15632,
      "target": 34962
    },
    {
      "buffer": 0,
      "byteOffset": 78160,
      "byteLength": 23448,
      "target": 34962
    },
    {
      "buffer": 0,
      "byteOffset": 101608,
      "byteLength": 5016,
      "target": 34963
    }
  ],
  "accessors": [
    {
      "bufferView": 0,
      "componentType": 5126,
      "count": 1954,
      "type": "VEC3",
      "min": [
        -0.1326642483472824,
        1.758162021636963,
        0.059746891260147095
      ],
      "max": [
        0.1326642483472824,
        1.9955029487609863,
        0.26431626081466675
      ]
    },
    {
      "bufferView": 1,
      "componentType": 5126,
      "count": 1954,
      "type": "VEC3",
      "min": [
        -0.9997230768203735,
        -0.9998785257339478,
        -0.9993358254432678
      ],
      "max": [
        0.9997230768203735,
        0.9948887825012207,
        0.9992460608482361
      ]
    },
    {
      "bufferView": 2,
      "componentType": 5126,
      "count": 1954,
      "type": "VEC2",
      "min": [
        0.2815145254135132,
        0.6225426197052002
      ],
      "max": [
        0.34914466738700867,
        0.9102563858032227
      ]
    },
    {
      "bufferView": 3,
      "componentType": 5126,
      "count": 1954,
      "type": "VEC2",
      "min": [
        0.0869838148355484,
        0.8534157872200012
      ],
      "max": [
        0.9587246179580688,
        0.9687986373901367
      ]
    },
    {
      "bufferView": 4,
      "componentType": 5126,
      "count": 1465.5,
      "type": "VEC4",
      "min": [
        0,
        0,
        0,
        0
      ],
      "max": [
        0.9999715685844421,
        0.9999715685844421,
        0.9999715685844421,
        0.9999715685844421
      ]
    },
    {
      "bufferView": 5,
      "componentType": 5123,
      "count": 2508,
      "type": "SCALAR",
      "min": [
        0
      ],
      "max": [
        1953
      ]
    }
  ],
  "extras": {
    "manifest": "Beard_Full_02.materials.json"
  }
}