{
  "asset": {
    "version": "2.0",
    "generator": "prefab-to-gltf"
  },
  "scene": 0,
  "scenes": [
    {
      "name": "Mace_Kobold",
      "nodes": [
        0
      ]
    }
  ],
  "nodes": [
    {
      "name": "model_0",
      "translation": [
        0,
        0,
        0
      ],
      "rotation": [
        0,
        0,
        0,
        1
      ],
      "scale": [
        1,
        1,
        1
      ],
      "children": [
        1,
        2,
        3,
        4
      ]
    },
    {
      "name": "Mace_Kobold",
      "translation": [
        0,
        0,
        0
      ],
      "rotation": [
        0,
        0,
        0.7071056365966797,
        0.7071079257745626
      ],
      "scale": [
        1,
        1,
        1
      ],
      "mesh": 0
    },
    {
      "name": "Mace_Kobold_002",
      "translation": [
        0,
        0,
        0.47388458251953125
      ],
      "rotation": [
        0,
        0,
        0.7071056365966797,
        0.7071079257745626
      ],
      "scale": [
        1,
        1,
        1
      ],
      "mesh": 1
    },
    {
      "name": "Mace_Kobold_001",
      "translation": [
        0,
        0,
        -0.0002899169921875
      ],
      "rotation": [
        0,
        0,
        0.7071056365966797,
        0.7071079257745626
      ],
      "scale": [
        1,
        1,
        1
      ],
      "mesh": 2
    },
    {
      "name": "Mace_Kobold_003",
      "translation": [
        0,
        0,
        0
      ],
      "rotation": [
        0,
        0,
        0.7071056365966797,
        0.7071079257745626
      ],
      "scale": [
        1,
        1,
        1
      ],
      "mesh": 3
    }
  ],
  "meshes": [
    {
      "name": "Mace_Kobold",
      "primitives": [
        {
          "attributes": {
            "POSITION": 0,
            "NORMAL": 1,
            "TEXCOORD_0": 2,
            "TEXCOORD_1": 3
          },
          "indices": 4,
          "material": 0,
          "mode": 4
        }
      ]
    },
    {
      "name": "Mace_Kobold_002",
      "primitives": [
        {
          "attributes": {
            "POSITION": 5,
            "NORMAL": 6,
            "TEXCOORD_0": 7,
            "TEXCOORD_1": 8
          },
          "indices": 9,
          "material": 0,
          "mode": 4
        }
      ]
    },
    {
      "name": "Mace_Kobold_001",
      "primitives": [
        {
          "attributes": {
            "POSITION": 10,
            "NORMAL": 11,
            "TEXCOORD_0": 12,
            "TEXCOORD_1": 13
          },
          "indices": 14,
          "material": 0,
          "mode": 4
        }
      ]
    },
    {
      "name": "Mace_Kobold_003",
      "primitives": [
        {
          "attributes": {
            "POSITION": 15,
            "NORMAL": 16,
            "TEXCOORD_0": 17,
            "TEXCOORD_1": 18
          },
          "indices": 19,
          "material": 0,
          "mode": 4
        }
      ]
    }
  ],
  "materials": [
    {
      "name": "MatSlots_WEAPONS_001",
      "pbrMetallicRoughness": {
        "baseColorFactor": [
          1,
          1,
          1,
          1
        ],
        "metallicFactor": 0,
        "roughnessFactor": 1
      },
      "doubleSided": true,
      "extras": {
        "diffuseTexture": null,
        "specularTexture": null,
        "normalMap": null
      }
    },
    {
      "name": "Outline_001",
      "pbrMetallicRoughness": {
        "baseColorFactor": [
          1,
          1,
          1,
          1
        ],
        "metallicFactor": 0,
        "roughnessFactor": 1
      },
      "doubleSided": true,
      "extras": {
        "diffuseTexture": null,
        "specularTexture": null,
        "normalMap": null
      }
    }
  ],
  "buffers": [
    {
      "uri": "Mace_Kobold.bin",
      "byteLength": 151396
    }
  ],
  "bufferViews": [
    {
      "buffer": 0,
      "byteOffset": 0,
      "byteLength": 9528,
      "target": 34962
    },
    {
      "buffer": 0,
      "byteOffset": 9528,
      "byteLength": 9528,
      "target": 34962
    },
    {
      "buffer": 0,
      "byteOffset": 19056,
      "byteLength": 6352,
      "target": 34962
    },
    {
      "buffer": 0,
      "byteOffset": 25408,
      "byteLength": 6352,
      "target": 34962
    },
    {
      "buffer": 0,
      "byteOffset": 31760,
      "byteLength": 2880,
      "target": 34963
    },
    {
      "buffer": 0,
      "byteOffset": 34640,
      "byteLength": 3000,
      "target": 34962
    },
    {
      "buffer": 0,
      "byteOffset": 37640,
      "byteLength": 3000,
      "target": 34962
    },
    {
      "buffer": 0,
      "byteOffset": 40640,
      "byteLength": 2000,
      "target": 34962
    },
    {
      "buffer": 0,
      "byteOffset": 42640,
      "byteLength": 2000,
      "target": 34962
    },
    {
      "buffer": 0,
      "byteOffset": 44640,
      "byteLength": 2844,
      "target": 34963
    },
    {
      "buffer": 0,
      "byteOffset": 47484,
      "byteLength": 1932,
      "target": 34962
    },
    {
      "buffer": 0,
      "byteOffset": 49416,
      "byteLength": 1932,
      "target": 34962
    },
    {
      "buffer": 0,
      "byteOffset": 51348,
      "byteLength": 1288,
      "target": 34962
    },
    {
      "buffer": 0,
      "byteOffset": 52636,
      "byteLength": 1288,
      "target": 34962
    },
    {
      "buffer": 0,
      "byteOffset": 53924,
      "byteLength": 1908,
      "target": 34963
    },
    {
      "buffer": 0,
      "byteOffset": 55832,
      "byteLength": 25080,
      "target": 34962
    },
    {
      "buffer": 0,
      "byteOffset": 80912,
      "byteLength": 25080,
      "target": 34962
    },
    {
      "buffer": 0,
      "byteOffset": 105992,
      "byteLength": 16720,
      "target": 34962
    },
    {
      "buffer": 0,
      "byteOffset": 122712,
      "byteLength": 16720,
      "target": 34962
    },
    {
      "buffer": 0,
      "byteOffset": 139432,
      "byteLength": 11964,
      "target": 34963
    }
  ],
  "accessors": [
    {
      "bufferView": 0,
      "componentType": 5126,
      "count": 794,
      "type": "VEC3",
      "min": [
        -0.032649409025907516,
        -0.03285175934433937,
        -0.22119063138961792
      ],
      "max": [
        0.032675277441740036,
        0.03228001669049263,
        0.2182723581790924
      ]
    },
    {
      "bufferView": 1,
      "componentType": 5126,
      "count": 794,
      "type": "VEC3",
      "min": [
        -0.9999939799308777,
        -0.9999831318855286,
        -0.6089819669723511
      ],
      "max": [
        0.9999492168426514,
        0.9999850988388062,
        0.11841950565576553
      ]
    },
    {
      "bufferView": 2,
      "componentType": 5126,
      "count": 794,
      "type": "VEC2",
      "min": [
        0.038333386182785034,
        0.6099027991294861
      ],
      "max": [
        0.3493748605251312,
        0.8939852714538574
      ]
    },
    {
      "bufferView": 3,
      "componentType": 5126,
      "count": 794,
      "type": "VEC2",
      "min": [
        0.7373611330986023,
        0.254347562789917
      ],
      "max": [
        0.8384626507759094,
        0.27812057733535767
      ]
    },
    {
      "bufferView": 4,
      "componentType": 5123,
      "count": 1440,
      "type": "SCALAR",
      "min": [
        0
      ],
      "max": [
        793
      ]
    },
    {
      "bufferView": 5,
      "componentType": 5126,
      "count": 250,
      "type": "VEC3",
      "min": [
        -0.1801380217075348,
        -0.17634744942188263,
        -0.2691623270511627
      ],
      "max": [
        0.17580324411392212,
        0.17456664144992828,
        0.18462572991847992
      ]
    },
    {
      "bufferView": 6,
      "componentType": 5126,
      "count": 250,
      "type": "VEC3",
      "min": [
        -0.9998125433921814,
        -0.9998162984848022,
        -0.9995203018188477
      ],
      "max": [
        0.9999914169311523,
        1,
        0.9966093301773071
      ]
    },
    {
      "bufferView": 7,
      "componentType": 5126,
      "count": 250,
      "type": "VEC2",
      "min": [
        0.15942788124084473,
        0.523673415184021
      ],
      "max": [
        0.2269451916217804,
        0.7645465135574341
      ]
    },
    {
      "bufferView": 8,
      "componentType": 5126,
      "count": 250,
      "type": "VEC2",
      "min": [
        0,
        1
      ],
      "max": [
        0,
        1
      ]
    },
    {
      "bufferView": 9,
      "componentType": 5123,
      "count": 1422,
      "type": "SCALAR",
      "min": [
        0
      ],
      "max": [
        249
      ]
    },
    {
      "bufferView": 10,
      "componentType": 5126,
      "count": 161,
      "type": "VEC3",
      "min": [
        -0.059499431401491165,
        -0.060210708528757095,
        -0.31031230092048645
      ],
      "max": [
        0.05949941650032997,
        0.06700600683689117,
        -0.2146398276090622
      ]
    },
    {
      "bufferView": 11,
      "componentType": 5126,
      "count": 161,
      "type": "VEC3",
      "min": [
        -0.9381726384162903,
        -0.9413054585456848,
        -0.9999866485595703
      ],
      "max": [
        0.922586977481842,
        0.941258430480957,
        0.999742865562439
      ]
    },
    {
      "bufferView": 12,
      "componentType": 5126,
      "count": 161,
      "type": "VEC2",
      "min": [
        0.18021845817565918,
        0.506938099861145
      ],
      "max": [
        0.20615464448928833,
        0.7609071731567383
      ]
    },
    {
      "bufferView": 13,
      "componentType": 5126,
      "count": 161,
      "type": "VEC2",
      "min": [
        0,
        1
      ],
      "max": [
        0,
        1
      ]
    },
    {
      "bufferView": 14,
      "componentType": 5123,
      "count": 954,
      "type": "SCALAR",
      "min": [
        0
      ],
      "max": [
        160
      ]
    },
    {
      "bufferView": 15,
      "componentType": 5126,
      "count": 2090,
      "type": "VEC3",
      "min": [
        -0.16007012128829956,
        -0.16007013618946075,
        0.2438560426235199
      ],
      "max": [
        0.16007013618946075,
        0.16007012128829956,
        0.6337803602218628
      ]
    },
    {
      "bufferView": 16,
      "componentType": 5126,
      "count": 2090,
      "type": "VEC3",
      "min": [
        -0.9998559951782227,
        -0.999993085861206,
        -1
      ],
      "max": [
        0.9997203350067139,
        0.9999001026153564,
        1
      ]
    },
    {
      "bufferView": 17,
      "componentType": 5126,
      "count": 2090,
      "type": "VEC2",
      "min": [
        0.025807946920394897,
        0.27536022663116455
      ],
      "max": [
        0.10892638564109802,
        0.8833004832267761
      ]
    },
    {
      "bufferView": 18,
      "componentType": 5126,
      "count": 2090,
      "type": "VEC2",
      "min": [
        0,
        1
      ],
      "max": [
        0,
        1
      ]
    },
    {
      "bufferView": 19,
      "componentType": 5123,
      "count": 5982,
      "type": "SCALAR",
      "min": [
        0
      ],
      "max": [
        2089
      ]
    }
  ],
  "extras": {
    "manifest": "Mace_Kobold.materials.json"
  }
}