{
  "asset": {
    "version": "2.0",
    "generator": "prefab-to-gltf"
  },
  "scene": 0,
  "scenes": [
    {
      "name": "Hands_Wrist_Z1U1_Fig",
      "nodes": [
        0
      ]
    }
  ],
  "nodes": [
    {
      "name": "Hands_R1Craft_Fig_01_N",
      "translation": [
        0,
        0,
        0
      ],
      "rotation": [
        0,
        0,
        0,
        1
      ],
      "scale": [
        1,
        1,
        1
      ],
      "mesh": 0
    }
  ],
  "meshes": [
    {
      "name": "Hands_R1Craft_Fig_01_N",
      "primitives": [
        {
          "attributes": {
            "POSITION": 0,
            "NORMAL": 1,
            "TEXCOORD_0": 2,
            "TEXCOORD_1": 3
          },
          "indices": 4,
          "material": 0,
          "mode": 4
        }
      ]
    }
  ],
  "materials": [
    {
      "name": "GradMat_Body",
      "pbrMetallicRoughness": {
        "baseColorFactor": [
          1,
          1,
          1,
          1
        ],
        "metallicFactor": 0,
        "roughnessFactor": 1
      },
      "doubleSided": true,
      "extras": {
        "diffuseTexture": "Character/Common/Texture/CustomGradient_BasicGuy.png",
        "specularTexture": null,
        "normalMap": null
      }
    }
  ],
  "buffers": [
    {
      "uri": "Hands_Wrist_Z1U1_Fig.bin",
      "byteLength": 149496
    }
  ],
  "bufferViews": [
    {
      "buffer": 0,
      "byteOffset": 0,
      "byteLength": 39672,
      "target": 34962
    },
    {
      "buffer": 0,
      "byteOffset": 39672,
      "byteLength": 39672,
      "target": 34962
    },
    {
      "buffer": 0,
      "byteOffset": 79344,
      "byteLength": 26448,
      "target": 34962
    },
    {
      "buffer": 0,
      "byteOffset": 105792,
      "byteLength": 26448,
      "target": 34962
    },
    {
      "buffer": 0,
      "byteOffset": 132240,
      "byteLength": 17256,
      "target": 34963
    }
  ],
  "accessors": [
    {
      "bufferView": 0,
      "componentType": 5126,
      "count": 3306,
      "type": "VEC3",
      "min": [
        -0.81201171875,
        0.9814453125,
        0.07012939453125
      ],
      "max": [
        0.81201171875,
        1.2666015625,
        0.337646484375
      ]
    },
    {
      "bufferView": 1,
      "componentType": 5126,
      "count": 3306,
      "type": "VEC3",
      "min": [
        -0.5019607843137255,
        -0.5019607843137255,
        -0.5019607843137255
      ],
      "max": [
        1,
        1,
        1
      ]
    },
    {
      "bufferView": 2,
      "componentType": 5126,
      "count": 3306,
      "type": "VEC2",
      "min": [
        0.302734375,
        0.494873046875
      ],
      "max": [
        0.45703125,
        0.70947265625
      ]
    },
    {
      "bufferView": 3,
      "componentType": 5126,
      "count": 3306,
      "type": "VEC2",
      "min": [
        0.032867431640625,
        0.11224365234375
      ],
      "max": [
        0.90283203125,
        0.9501953125
      ]
    },
    {
      "bufferView": 4,
      "componentType": 5123,
      "count": 8628,
      "type": "SCALAR",
      "min": [
        0
      ],
      "max": [
        3305
      ]
    }
  ],
  "extras": {
    "manifest": "Hands_Wrist_Z1U1_Fig.materials.json"
  }
}