{
  "asset": {
    "version": "2.0",
    "generator": "prefab-to-gltf"
  },
  "scene": 0,
  "scenes": [
    {
      "name": "Feet_High_Z1U2_AssCle",
      "nodes": [
        0
      ]
    }
  ],
  "nodes": [
    {
      "name": "Feet_R1S1_Ass_N",
      "translation": [
        0,
        0,
        0
      ],
      "rotation": [
        0,
        0,
        0,
        1
      ],
      "scale": [
        1,
        1,
        1
      ],
      "mesh": 0
    }
  ],
  "meshes": [
    {
      "name": "Feet_R1S1_Ass_N",
      "primitives": [
        {
          "attributes": {
            "POSITION": 0,
            "NORMAL": 1,
            "TEXCOORD_0": 2,
            "TEXCOORD_1": 3
          },
          "indices": 4,
          "material": 0,
          "mode": 4
        }
      ]
    }
  ],
  "materials": [
    {
      "name": "GradMat_Body",
      "pbrMetallicRoughness": {
        "baseColorFactor": [
          1,
          1,
          1,
          1
        ],
        "metallicFactor": 0,
        "roughnessFactor": 1
      },
      "doubleSided": true,
      "extras": {
        "diffuseTexture": "Character/Common/Texture/CustomGradient_BasicGuy.png",
        "specularTexture": null,
        "normalMap": null
      }
    }
  ],
  "buffers": [
    {
      "uri": "Feet_High_Z1U2_AssCle.bin",
      "byteLength": 82112
    }
  ],
  "bufferViews": [
    {
      "buffer": 0,
      "byteOffset": 0,
      "byteLength": 21840,
      "target": 34962
    },
    {
      "buffer": 0,
      "byteOffset": 21840,
      "byteLength": 21840,
      "target": 34962
    },
    {
      "buffer": 0,
      "byteOffset": 43680,
      "byteLength": 14560,
      "target": 34962
    },
    {
      "buffer": 0,
      "byteOffset": 58240,
      "byteLength": 14560,
      "target": 34962
    },
    {
      "buffer": 0,
      "byteOffset": 72800,
      "byteLength": 9312,
      "target": 34963
    }
  ],
  "accessors": [
    {
      "bufferView": 0,
      "componentType": 5126,
      "count": 1820,
      "type": "VEC3",
      "min": [
        -0.4150390625,
        -0.007537841796875,
        -0.11822509765625
      ],
      "max": [
        0.4150390625,
        0.529296875,
        0.326171875
      ]
    },
    {
      "bufferView": 1,
      "componentType": 5126,
      "count": 1820,
      "type": "VEC3",
      "min": [
        -0.5019607843137255,
        -0.5019607843137255,
        -0.5019607843137255
      ],
      "max": [
        1,
        1,
        1
      ]
    },
    {
      "bufferView": 2,
      "componentType": 5126,
      "count": 1820,
      "type": "VEC2",
      "min": [
        0.1441650390625,
        0.4375
      ],
      "max": [
        0.724609375,
        0.99169921875
      ]
    },
    {
      "bufferView": 3,
      "componentType": 5126,
      "count": 1820,
      "type": "VEC2",
      "min": [
        0.060821533203125,
        0.11614990234375
      ],
      "max": [
        0.84228515625,
        0.9501953125
      ]
    },
    {
      "bufferView": 4,
      "componentType": 5123,
      "count": 4656,
      "type": "SCALAR",
      "min": [
        0
      ],
      "max": [
        1819
      ]
    }
  ],
  "extras": {
    "manifest": "Feet_High_Z1U2_AssCle.materials.json"
  }
}