{
  "asset": {
    "version": "2.0",
    "generator": "prefab-to-gltf"
  },
  "scene": 0,
  "scenes": [
    {
      "name": "Bat_Swarowl_Grey_01",
      "nodes": [
        0
      ]
    }
  ],
  "nodes": [
    {
      "name": "Bat_Swarowl_01",
      "translation": [
        0,
        0,
        0
      ],
      "rotation": [
        0,
        0,
        0,
        1
      ],
      "scale": [
        1,
        1,
        1
      ],
      "mesh": 0
    }
  ],
  "meshes": [
    {
      "name": "Bat_Swarowl_01",
      "primitives": [
        {
          "attributes": {
            "POSITION": 0,
            "NORMAL": 1,
            "TEXCOORD_0": 2,
            "TEXCOORD_1": 3,
            "COLOR_0": 4
          },
          "indices": 5,
          "material": 0,
          "mode": 4
        }
      ]
    }
  ],
  "materials": [
    {
      "name": "Gradmat",
      "pbrMetallicRoughness": {
        "baseColorFactor": [
          1,
          1,
          1,
          1
        ],
        "metallicFactor": 0,
        "roughnessFactor": 1
      },
      "doubleSided": true,
      "extras": {
        "diffuseTexture": "Character/Common/Texture/CustomGradient_Swarowls.png",
        "specularTexture": null,
        "normalMap": null
      }
    }
  ],
  "buffers": [
    {
      "uri": "Bat_Swarowl_Grey_01.bin",
      "byteLength": 808540
    }
  ],
  "bufferViews": [
    {
      "buffer": 0,
      "byteOffset": 0,
      "byteLength": 157188,
      "target": 34962
    },
    {
      "buffer": 0,
      "byteOffset": 157188,
      "byteLength": 157188,
      "target": 34962
    },
    {
      "buffer": 0,
      "byteOffset": 314376,
      "byteLength": 104792,
      "target": 34962
    },
    {
      "buffer": 0,
      "byteOffset": 419168,
      "byteLength": 104792,
      "target": 34962
    },
    {
      "buffer": 0,
      "byteOffset": 523960,
      "byteLength": 157188,
      "target": 34962
    },
    {
      "buffer": 0,
      "byteOffset": 681148,
      "byteLength": 127392,
      "target": 34963
    }
  ],
  "accessors": [
    {
      "bufferView": 0,
      "componentType": 5126,
      "count": 13099,
      "type": "VEC3",
      "min": [
        -2.802616834640503,
        -0.10805241763591766,
        -2.385765790939331
      ],
      "max": [
        2.802616834640503,
        3.3092756271362305,
        1.7775170803070068
      ]
    },
    {
      "bufferView": 1,
      "componentType": 5126,
      "count": 13099,
      "type": "VEC3",
      "min": [
        -0.9995591640472412,
        -0.9999945759773254,
        -0.9999520778656006
      ],
      "max": [
        0.9995591640472412,
        0.9998234510421753,
        0.9998359680175781
      ]
    },
    {
      "bufferView": 2,
      "componentType": 5126,
      "count": 13099,
      "type": "VEC2",
      "min": [
        0.011468172073364258,
        0.10947275161743164
      ],
      "max": [
        0.859384298324585,
        0.9886266589164734
      ]
    },
    {
      "bufferView": 3,
      "componentType": 5126,
      "count": 13099,
      "type": "VEC2",
      "min": [
        0.05057216435670853,
        0.9528688192367554
      ],
      "max": [
        0.050572507083415985,
        0.952869176864624
      ]
    },
    {
      "bufferView": 4,
      "componentType": 5126,
      "count": 9824.25,
      "type": "VEC4",
      "min": [
        0,
        0,
        0,
        0
      ],
      "max": [
        1,
        1,
        1,
        1
      ]
    },
    {
      "bufferView": 5,
      "componentType": 5123,
      "count": 63696,
      "type": "SCALAR",
      "min": [
        0
      ],
      "max": [
        13098
      ]
    }
  ],
  "extras": {
    "manifest": "Bat_Swarowl_Grey_01.materials.json"
  }
}