{
  "asset": {
    "version": "2.0",
    "generator": "prefab-to-gltf"
  },
  "scene": 0,
  "scenes": [
    {
      "name": "Faerie_RoyalGuard",
      "nodes": [
        0
      ]
    }
  ],
  "nodes": [
    {
      "name": "Faerie_RoyalGuard",
      "translation": [
        0,
        0,
        0
      ],
      "rotation": [
        0,
        0,
        0,
        1
      ],
      "scale": [
        1,
        1,
        1
      ],
      "mesh": 0
    }
  ],
  "meshes": [
    {
      "name": "Faerie_RoyalGuard",
      "primitives": [
        {
          "attributes": {
            "POSITION": 0,
            "NORMAL": 1,
            "TEXCOORD_0": 2,
            "TEXCOORD_1": 3,
            "COLOR_0": 4
          },
          "indices": 5,
          "material": 0,
          "mode": 4
        }
      ]
    }
  ],
  "materials": [
    {
      "name": "GradMat",
      "pbrMetallicRoughness": {
        "baseColorFactor": [
          1,
          1,
          1,
          1
        ],
        "metallicFactor": 0,
        "roughnessFactor": 1
      },
      "doubleSided": true,
      "extras": {
        "diffuseTexture": "Character/Common/Texture/CustomGradient_WeaponALL.png",
        "specularTexture": null,
        "normalMap": null
      }
    }
  ],
  "buffers": [
    {
      "uri": "Faerie_RoyalGuard.bin",
      "byteLength": 518728
    }
  ],
  "bufferViews": [
    {
      "buffer": 0,
      "byteOffset": 0,
      "byteLength": 105456,
      "target": 34962
    },
    {
      "buffer": 0,
      "byteOffset": 105456,
      "byteLength": 105456,
      "target": 34962
    },
    {
      "buffer": 0,
      "byteOffset": 210912,
      "byteLength": 70304,
      "target": 34962
    },
    {
      "buffer": 0,
      "byteOffset": 281216,
      "byteLength": 70304,
      "target": 34962
    },
    {
      "buffer": 0,
      "byteOffset": 351520,
      "byteLength": 105456,
      "target": 34962
    },
    {
      "buffer": 0,
      "byteOffset": 456976,
      "byteLength": 61752,
      "target": 34963
    }
  ],
  "accessors": [
    {
      "bufferView": 0,
      "componentType": 5126,
      "count": 8788,
      "type": "VEC3",
      "min": [
        -1.1099867820739746,
        0.009502830915153027,
        -1.0448963642120361
      ],
      "max": [
        1.1099867820739746,
        3.2006053924560547,
        0.5505021810531616
      ]
    },
    {
      "bufferView": 1,
      "componentType": 5126,
      "count": 8788,
      "type": "VEC3",
      "min": [
        -0.9997447729110718,
        -0.9999816417694092,
        -0.9999399185180664
      ],
      "max": [
        0.9997447729110718,
        0.9992174506187439,
        0.9999999403953552
      ]
    },
    {
      "bufferView": 2,
      "componentType": 5126,
      "count": 8788,
      "type": "VEC2",
      "min": [
        0.01363920234143734,
        0.008063971996307373
      ],
      "max": [
        0.9869428277015686,
        0.9812678098678589
      ]
    },
    {
      "bufferView": 3,
      "componentType": 5126,
      "count": 8788,
      "type": "VEC2",
      "min": [
        0,
        0.09633350372314453
      ],
      "max": [
        0.9527268409729004,
        1
      ]
    },
    {
      "bufferView": 4,
      "componentType": 5126,
      "count": 6591,
      "type": "VEC4",
      "min": [
        0,
        0,
        0,
        0
      ],
      "max": [
        1,
        1,
        1,
        1
      ]
    },
    {
      "bufferView": 5,
      "componentType": 5123,
      "count": 30876,
      "type": "SCALAR",
      "min": [
        0
      ],
      "max": [
        8787
      ]
    }
  ],
  "extras": {
    "manifest": "Faerie_RoyalGuard.materials.json"
  }
}