{
  "asset": {
    "version": "2.0",
    "generator": "prefab-to-gltf"
  },
  "scene": 0,
  "scenes": [
    {
      "name": "Back_Long_XSwarowls_01_Heavy",
      "nodes": [
        0
      ]
    }
  ],
  "nodes": [
    {
      "name": "Back_RSwarowls_Heavy_N",
      "translation": [
        0,
        0,
        0
      ],
      "rotation": [
        0,
        0,
        0,
        1
      ],
      "scale": [
        1,
        1,
        1
      ],
      "mesh": 0
    }
  ],
  "meshes": [
    {
      "name": "Back_RSwarowls_Heavy_N",
      "primitives": [
        {
          "attributes": {
            "POSITION": 0,
            "NORMAL": 1,
            "TEXCOORD_0": 2,
            "TEXCOORD_1": 3,
            "COLOR_0": 4
          },
          "indices": 5,
          "material": 0,
          "mode": 4
        }
      ]
    }
  ],
  "materials": [
    {
      "name": "standardSurface1",
      "pbrMetallicRoughness": {
        "baseColorFactor": [
          1,
          1,
          1,
          1
        ],
        "metallicFactor": 0,
        "roughnessFactor": 1
      },
      "doubleSided": true,
      "extras": {
        "diffuseTexture": null,
        "specularTexture": null,
        "normalMap": null
      }
    }
  ],
  "buffers": [
    {
      "uri": "Back_Long_XSwarowls_01_Heavy.bin",
      "byteLength": 126036
    }
  ],
  "bufferViews": [
    {
      "buffer": 0,
      "byteOffset": 0,
      "byteLength": 26100,
      "target": 34962
    },
    {
      "buffer": 0,
      "byteOffset": 26100,
      "byteLength": 26100,
      "target": 34962
    },
    {
      "buffer": 0,
      "byteOffset": 52200,
      "byteLength": 17400,
      "target": 34962
    },
    {
      "buffer": 0,
      "byteOffset": 69600,
      "byteLength": 17400,
      "target": 34962
    },
    {
      "buffer": 0,
      "byteOffset": 87000,
      "byteLength": 26100,
      "target": 34962
    },
    {
      "buffer": 0,
      "byteOffset": 113100,
      "byteLength": 12936,
      "target": 34963
    }
  ],
  "accessors": [
    {
      "bufferView": 0,
      "componentType": 5126,
      "count": 2175,
      "type": "VEC3",
      "min": [
        -0.4636937379837036,
        0.4479063153266907,
        -0.25725144147872925
      ],
      "max": [
        0.4636937379837036,
        1.7623534202575684,
        -0.06876572966575623
      ]
    },
    {
      "bufferView": 1,
      "componentType": 5126,
      "count": 2175,
      "type": "VEC3",
      "min": [
        -0.9953033924102783,
        -0.9914880394935608,
        -0.9983018040657043
      ],
      "max": [
        0.9953058362007141,
        0.9999802112579346,
        0.9909123182296753
      ]
    },
    {
      "bufferView": 2,
      "componentType": 5126,
      "count": 2175,
      "type": "VEC2",
      "min": [
        0.09665703773498535,
        0.26599693298339844
      ],
      "max": [
        0.7469168305397034,
        0.801042377948761
      ]
    },
    {
      "bufferView": 3,
      "componentType": 5126,
      "count": 2175,
      "type": "VEC2",
      "min": [
        0,
        0.11819440126419067
      ],
      "max": [
        0.9509526491165161,
        1
      ]
    },
    {
      "bufferView": 4,
      "componentType": 5126,
      "count": 1631.25,
      "type": "VEC4",
      "min": [
        0,
        0,
        0,
        0
      ],
      "max": [
        1,
        1,
        1,
        1
      ]
    },
    {
      "bufferView": 5,
      "componentType": 5123,
      "count": 6468,
      "type": "SCALAR",
      "min": [
        0
      ],
      "max": [
        2174
      ]
    }
  ],
  "extras": {
    "manifest": "Back_Long_XSwarowls_01_Heavy.materials.json"
  }
}