{
  "asset": {
    "version": "2.0",
    "generator": "prefab-to-gltf"
  },
  "scene": 0,
  "scenes": [
    {
      "name": "Back_Long_XSwarowls_01_Medium",
      "nodes": [
        0
      ]
    }
  ],
  "nodes": [
    {
      "name": "Back_Z3RSwarowls_Medium_N",
      "translation": [
        0,
        0,
        0
      ],
      "rotation": [
        0,
        0,
        0,
        1
      ],
      "scale": [
        1,
        1,
        1
      ],
      "mesh": 0
    }
  ],
  "meshes": [
    {
      "name": "Back_Z3RSwarowls_Medium_N",
      "primitives": [
        {
          "attributes": {
            "POSITION": 0,
            "NORMAL": 1,
            "TEXCOORD_0": 2,
            "TEXCOORD_1": 3,
            "COLOR_0": 4
          },
          "indices": 5,
          "material": 0,
          "mode": 4
        }
      ]
    }
  ],
  "materials": [
    {
      "name": "Gradmat_Weapon",
      "pbrMetallicRoughness": {
        "baseColorFactor": [
          1,
          1,
          1,
          1
        ],
        "metallicFactor": 0,
        "roughnessFactor": 1
      },
      "doubleSided": true,
      "extras": {
        "diffuseTexture": "Character/Common/Texture/CustomGradient_Hero_Clothes.png",
        "specularTexture": null,
        "normalMap": null
      }
    }
  ],
  "buffers": [
    {
      "uri": "Back_Long_XSwarowls_01_Medium.bin",
      "byteLength": 89504
    }
  ],
  "bufferViews": [
    {
      "buffer": 0,
      "byteOffset": 0,
      "byteLength": 18276,
      "target": 34962
    },
    {
      "buffer": 0,
      "byteOffset": 18276,
      "byteLength": 18276,
      "target": 34962
    },
    {
      "buffer": 0,
      "byteOffset": 36552,
      "byteLength": 12184,
      "target": 34962
    },
    {
      "buffer": 0,
      "byteOffset": 48736,
      "byteLength": 12184,
      "target": 34962
    },
    {
      "buffer": 0,
      "byteOffset": 60920,
      "byteLength": 18276,
      "target": 34962
    },
    {
      "buffer": 0,
      "byteOffset": 79196,
      "byteLength": 10308,
      "target": 34963
    }
  ],
  "accessors": [
    {
      "bufferView": 0,
      "componentType": 5126,
      "count": 1523,
      "type": "VEC3",
      "min": [
        -0.3592948913574219,
        0.19205115735530853,
        -0.3263285160064697
      ],
      "max": [
        0.3681647777557373,
        1.7859127521514893,
        -0.06029856577515602
      ]
    },
    {
      "bufferView": 1,
      "componentType": 5126,
      "count": 1523,
      "type": "VEC3",
      "min": [
        -0.9991304874420166,
        -0.9837332963943481,
        -0.9996851086616516
      ],
      "max": [
        0.9991700649261475,
        0.9962159395217896,
        0.9998530149459839
      ]
    },
    {
      "bufferView": 2,
      "componentType": 5126,
      "count": 1523,
      "type": "VEC2",
      "min": [
        0.10858558118343353,
        0.3441873788833618
      ],
      "max": [
        0.38772153854370117,
        0.8472301363945007
      ]
    },
    {
      "bufferView": 3,
      "componentType": 5126,
      "count": 1523,
      "type": "VEC2",
      "min": [
        0.045396603643894196,
        0.31291908025741577
      ],
      "max": [
        0.9464887380599976,
        0.9721217155456543
      ]
    },
    {
      "bufferView": 4,
      "componentType": 5126,
      "count": 1142.25,
      "type": "VEC4",
      "min": [
        0,
        0,
        0,
        0
      ],
      "max": [
        1,
        1,
        1,
        1
      ]
    },
    {
      "bufferView": 5,
      "componentType": 5123,
      "count": 5154,
      "type": "SCALAR",
      "min": [
        0
      ],
      "max": [
        1522
      ]
    }
  ],
  "extras": {
    "manifest": "Back_Long_XSwarowls_01_Medium.materials.json"
  }
}