{
  "asset": {
    "version": "2.0",
    "generator": "prefab-to-gltf"
  },
  "scene": 0,
  "scenes": [
    {
      "name": "Feet_Low_XSwarowls_01_Medium",
      "nodes": [
        0
      ]
    }
  ],
  "nodes": [
    {
      "name": "Feet_Z3RSwarowls_Medium_N",
      "translation": [
        0,
        0,
        0
      ],
      "rotation": [
        0,
        0,
        0,
        1
      ],
      "scale": [
        1,
        1,
        1
      ],
      "mesh": 0
    }
  ],
  "meshes": [
    {
      "name": "Feet_Z3RSwarowls_Medium_N",
      "primitives": [
        {
          "attributes": {
            "POSITION": 0,
            "NORMAL": 1,
            "TEXCOORD_0": 2,
            "TEXCOORD_1": 3,
            "COLOR_0": 4
          },
          "indices": 5,
          "material": 0,
          "mode": 4
        }
      ]
    }
  ],
  "materials": [
    {
      "name": "Gradmat_Weapon",
      "pbrMetallicRoughness": {
        "baseColorFactor": [
          1,
          1,
          1,
          1
        ],
        "metallicFactor": 0,
        "roughnessFactor": 1
      },
      "doubleSided": true,
      "extras": {
        "diffuseTexture": "Character/Common/Texture/CustomGradient_Hero_Clothes.png",
        "specularTexture": null,
        "normalMap": null
      }
    }
  ],
  "buffers": [
    {
      "uri": "Feet_Low_XSwarowls_01_Medium.bin",
      "byteLength": 109384
    }
  ],
  "bufferViews": [
    {
      "buffer": 0,
      "byteOffset": 0,
      "byteLength": 22944,
      "target": 34962
    },
    {
      "buffer": 0,
      "byteOffset": 22944,
      "byteLength": 22944,
      "target": 34962
    },
    {
      "buffer": 0,
      "byteOffset": 45888,
      "byteLength": 15296,
      "target": 34962
    },
    {
      "buffer": 0,
      "byteOffset": 61184,
      "byteLength": 15296,
      "target": 34962
    },
    {
      "buffer": 0,
      "byteOffset": 76480,
      "byteLength": 22944,
      "target": 34962
    },
    {
      "buffer": 0,
      "byteOffset": 99424,
      "byteLength": 9960,
      "target": 34963
    }
  ],
  "accessors": [
    {
      "bufferView": 0,
      "componentType": 5126,
      "count": 1912,
      "type": "VEC3",
      "min": [
        -0.4296039938926697,
        -0.003560911398380995,
        -0.11553104221820831
      ],
      "max": [
        0.4296039938926697,
        0.3408766984939575,
        0.3409178555011749
      ]
    },
    {
      "bufferView": 1,
      "componentType": 5126,
      "count": 1912,
      "type": "VEC3",
      "min": [
        -0.9997736811637878,
        -1,
        -0.9985315203666687
      ],
      "max": [
        0.9997736811637878,
        0.9985588788986206,
        0.9981459379196167
      ]
    },
    {
      "bufferView": 2,
      "componentType": 5126,
      "count": 1912,
      "type": "VEC2",
      "min": [
        0.09966648370027542,
        0.4241313934326172
      ],
      "max": [
        0.3954992890357971,
        0.8988343477249146
      ]
    },
    {
      "bufferView": 3,
      "componentType": 5126,
      "count": 1912,
      "type": "VEC2",
      "min": [
        0.030116261914372444,
        0.25509506464004517
      ],
      "max": [
        0.9410300254821777,
        0.9654630422592163
      ]
    },
    {
      "bufferView": 4,
      "componentType": 5126,
      "count": 1434,
      "type": "VEC4",
      "min": [
        0,
        0,
        0,
        0
      ],
      "max": [
        1,
        1,
        1,
        1
      ]
    },
    {
      "bufferView": 5,
      "componentType": 5123,
      "count": 4980,
      "type": "SCALAR",
      "min": [
        0
      ],
      "max": [
        1911
      ]
    }
  ],
  "extras": {
    "manifest": "Feet_Low_XSwarowls_01_Medium.materials.json"
  }
}