{
  "asset": {
    "version": "2.0",
    "generator": "prefab-to-gltf"
  },
  "scene": 0,
  "scenes": [
    {
      "name": "Head_Headband_XSwarowls_01_Medium",
      "nodes": [
        0
      ]
    }
  ],
  "nodes": [
    {
      "name": "Head_Z3RSwarowls_Medium_N",
      "translation": [
        0,
        0,
        0
      ],
      "rotation": [
        0,
        0,
        0,
        1
      ],
      "scale": [
        1,
        1,
        1
      ],
      "mesh": 0
    }
  ],
  "meshes": [
    {
      "name": "Head_Z3RSwarowls_Medium_N",
      "primitives": [
        {
          "attributes": {
            "POSITION": 0,
            "NORMAL": 1,
            "TEXCOORD_0": 2,
            "TEXCOORD_1": 3,
            "COLOR_0": 4
          },
          "indices": 5,
          "material": 0,
          "mode": 4
        }
      ]
    }
  ],
  "materials": [
    {
      "name": "Gradmat_Weapon",
      "pbrMetallicRoughness": {
        "baseColorFactor": [
          1,
          1,
          1,
          1
        ],
        "metallicFactor": 0,
        "roughnessFactor": 1
      },
      "doubleSided": true,
      "extras": {
        "diffuseTexture": "Character/Common/Texture/CustomGradient_Hero_Clothes.png",
        "specularTexture": null,
        "normalMap": null
      }
    }
  ],
  "buffers": [
    {
      "uri": "Head_Headband_XSwarowls_01_Medium.bin",
      "byteLength": 90304
    }
  ],
  "bufferViews": [
    {
      "buffer": 0,
      "byteOffset": 0,
      "byteLength": 18840,
      "target": 34962
    },
    {
      "buffer": 0,
      "byteOffset": 18840,
      "byteLength": 18840,
      "target": 34962
    },
    {
      "buffer": 0,
      "byteOffset": 37680,
      "byteLength": 12560,
      "target": 34962
    },
    {
      "buffer": 0,
      "byteOffset": 50240,
      "byteLength": 12560,
      "target": 34962
    },
    {
      "buffer": 0,
      "byteOffset": 62800,
      "byteLength": 18840,
      "target": 34962
    },
    {
      "buffer": 0,
      "byteOffset": 81640,
      "byteLength": 8664,
      "target": 34963
    }
  ],
  "accessors": [
    {
      "bufferView": 0,
      "componentType": 5126,
      "count": 1570,
      "type": "VEC3",
      "min": [
        -0.1665949821472168,
        1.9025542736053467,
        -0.08638597279787064
      ],
      "max": [
        0.1665949821472168,
        2.1351242065429688,
        0.30007803440093994
      ]
    },
    {
      "bufferView": 1,
      "componentType": 5126,
      "count": 1570,
      "type": "VEC3",
      "min": [
        -0.9990021586418152,
        -1,
        -0.9984163045883179
      ],
      "max": [
        0.9990023374557495,
        0.9986241459846497,
        0.9999889731407166
      ]
    },
    {
      "bufferView": 2,
      "componentType": 5126,
      "count": 1570,
      "type": "VEC2",
      "min": [
        0.10765641927719116,
        0.28389567136764526
      ],
      "max": [
        0.49130457639694214,
        0.8052608370780945
      ]
    },
    {
      "bufferView": 3,
      "componentType": 5126,
      "count": 1570,
      "type": "VEC2",
      "min": [
        0.02941003255546093,
        0.25927478075027466
      ],
      "max": [
        0.9405320286750793,
        0.98046875
      ]
    },
    {
      "bufferView": 4,
      "componentType": 5126,
      "count": 1177.5,
      "type": "VEC4",
      "min": [
        0,
        0,
        0,
        0
      ],
      "max": [
        1,
        1,
        1,
        1
      ]
    },
    {
      "bufferView": 5,
      "componentType": 5123,
      "count": 4332,
      "type": "SCALAR",
      "min": [
        0
      ],
      "max": [
        1569
      ]
    }
  ],
  "extras": {
    "manifest": "Head_Headband_XSwarowls_01_Medium.materials.json"
  }
}