{
  "asset": {
    "version": "2.0",
    "generator": "prefab-to-gltf"
  },
  "scene": 0,
  "scenes": [
    {
      "name": "Legs_Whole_XSwarowls_01_Light",
      "nodes": [
        0
      ]
    }
  ],
  "nodes": [
    {
      "name": "Legs_Z3RSwarowls_Light_N",
      "translation": [
        0,
        0,
        0
      ],
      "rotation": [
        0,
        0,
        0,
        1
      ],
      "scale": [
        1,
        1,
        1
      ],
      "mesh": 0
    }
  ],
  "meshes": [
    {
      "name": "Legs_Z3RSwarowls_Light_N",
      "primitives": [
        {
          "attributes": {
            "POSITION": 0,
            "NORMAL": 1,
            "TEXCOORD_0": 2,
            "TEXCOORD_1": 3
          },
          "indices": 4,
          "material": 0,
          "mode": 4
        }
      ]
    }
  ],
  "materials": [
    {
      "name": "GradMat_Body",
      "pbrMetallicRoughness": {
        "baseColorFactor": [
          1,
          1,
          1,
          1
        ],
        "metallicFactor": 0,
        "roughnessFactor": 1
      },
      "doubleSided": true,
      "extras": {
        "diffuseTexture": "Character/Common/Texture/CustomGradient_RobinHoof.png",
        "specularTexture": null,
        "normalMap": null
      }
    }
  ],
  "buffers": [
    {
      "uri": "Legs_Whole_XSwarowls_01_Light.bin",
      "byteLength": 95876
    }
  ],
  "bufferViews": [
    {
      "buffer": 0,
      "byteOffset": 0,
      "byteLength": 24756,
      "target": 34962
    },
    {
      "buffer": 0,
      "byteOffset": 24756,
      "byteLength": 24756,
      "target": 34962
    },
    {
      "buffer": 0,
      "byteOffset": 49512,
      "byteLength": 16504,
      "target": 34962
    },
    {
      "buffer": 0,
      "byteOffset": 66016,
      "byteLength": 16504,
      "target": 34962
    },
    {
      "buffer": 0,
      "byteOffset": 82520,
      "byteLength": 13356,
      "target": 34963
    }
  ],
  "accessors": [
    {
      "bufferView": 0,
      "componentType": 5126,
      "count": 2063,
      "type": "VEC3",
      "min": [
        -0.37084171175956726,
        0.0851835310459137,
        -0.10287430137395859
      ],
      "max": [
        0.37084171175956726,
        1.277111291885376,
        0.23483745753765106
      ]
    },
    {
      "bufferView": 1,
      "componentType": 5126,
      "count": 2063,
      "type": "VEC3",
      "min": [
        -0.999679446220398,
        -0.9985557198524475,
        -0.9998974800109863
      ],
      "max": [
        0.9996793270111084,
        0.9926065802574158,
        0.9999980330467224
      ]
    },
    {
      "bufferView": 2,
      "componentType": 5126,
      "count": 2063,
      "type": "VEC2",
      "min": [
        0.009557340294122696,
        0.32739120721817017
      ],
      "max": [
        0.5543073415756226,
        0.9588801860809326
      ]
    },
    {
      "bufferView": 3,
      "componentType": 5126,
      "count": 2063,
      "type": "VEC2",
      "min": [
        0.06717255711555481,
        0.24895483255386353
      ],
      "max": [
        0.9392135143280029,
        0.9824260473251343
      ]
    },
    {
      "bufferView": 4,
      "componentType": 5123,
      "count": 6678,
      "type": "SCALAR",
      "min": [
        0
      ],
      "max": [
        2062
      ]
    }
  ],
  "extras": {
    "manifest": "Legs_Whole_XSwarowls_01_Light.materials.json"
  }
}