{
  "asset": {
    "version": "2.0",
    "generator": "prefab-to-gltf"
  },
  "scene": 0,
  "scenes": [
    {
      "name": "Waist_Medium_XSwarowls_01_Light",
      "nodes": [
        0
      ]
    }
  ],
  "nodes": [
    {
      "name": "Waist_Z3RSwarowls_Light_N",
      "translation": [
        0,
        0,
        0
      ],
      "rotation": [
        0,
        0,
        0,
        1
      ],
      "scale": [
        1,
        1,
        1
      ],
      "mesh": 0
    }
  ],
  "meshes": [
    {
      "name": "Waist_Z3RSwarowls_Light_N",
      "primitives": [
        {
          "attributes": {
            "POSITION": 0,
            "NORMAL": 1,
            "TEXCOORD_0": 2,
            "TEXCOORD_1": 3,
            "COLOR_0": 4
          },
          "indices": 5,
          "material": 0,
          "mode": 4
        }
      ]
    }
  ],
  "materials": [
    {
      "name": "GradMat_Body",
      "pbrMetallicRoughness": {
        "baseColorFactor": [
          1,
          1,
          1,
          1
        ],
        "metallicFactor": 0,
        "roughnessFactor": 1
      },
      "doubleSided": true,
      "extras": {
        "diffuseTexture": "Character/Common/Texture/CustomGradient_RobinHoof.png",
        "specularTexture": null,
        "normalMap": null
      }
    }
  ],
  "buffers": [
    {
      "uri": "Waist_Medium_XSwarowls_01_Light.bin",
      "byteLength": 62236
    }
  ],
  "bufferViews": [
    {
      "buffer": 0,
      "byteOffset": 0,
      "byteLength": 12864,
      "target": 34962
    },
    {
      "buffer": 0,
      "byteOffset": 12864,
      "byteLength": 12864,
      "target": 34962
    },
    {
      "buffer": 0,
      "byteOffset": 25728,
      "byteLength": 8576,
      "target": 34962
    },
    {
      "buffer": 0,
      "byteOffset": 34304,
      "byteLength": 8576,
      "target": 34962
    },
    {
      "buffer": 0,
      "byteOffset": 42880,
      "byteLength": 12864,
      "target": 34962
    },
    {
      "buffer": 0,
      "byteOffset": 55744,
      "byteLength": 6492,
      "target": 34963
    }
  ],
  "accessors": [
    {
      "bufferView": 0,
      "componentType": 5126,
      "count": 1072,
      "type": "VEC3",
      "min": [
        -0.22166672348976135,
        1.1557615995407104,
        -0.07203733175992966
      ],
      "max": [
        0.22166672348976135,
        1.3314309120178223,
        0.29338935017585754
      ]
    },
    {
      "bufferView": 1,
      "componentType": 5126,
      "count": 1072,
      "type": "VEC3",
      "min": [
        -0.9968602657318115,
        -0.9971154928207397,
        -0.9991421103477478
      ],
      "max": [
        0.9952284097671509,
        0.9999940991401672,
        0.9995283484458923
      ]
    },
    {
      "bufferView": 2,
      "componentType": 5126,
      "count": 1072,
      "type": "VEC2",
      "min": [
        0.014764697290956974,
        0.3824004530906677
      ],
      "max": [
        0.41395261883735657,
        0.9379921555519104
      ]
    },
    {
      "bufferView": 3,
      "componentType": 5126,
      "count": 1072,
      "type": "VEC2",
      "min": [
        0.04656113311648369,
        0.3150104880332947
      ],
      "max": [
        0.9388076663017273,
        0.9498587846755981
      ]
    },
    {
      "bufferView": 4,
      "componentType": 5126,
      "count": 804,
      "type": "VEC4",
      "min": [
        0,
        0,
        0,
        0
      ],
      "max": [
        1,
        1,
        1,
        1
      ]
    },
    {
      "bufferView": 5,
      "componentType": 5123,
      "count": 3246,
      "type": "SCALAR",
      "min": [
        0
      ],
      "max": [
        1071
      ]
    }
  ],
  "extras": {
    "manifest": "Waist_Medium_XSwarowls_01_Light.materials.json"
  }
}