{
  "asset": {
    "version": "2.0",
    "generator": "prefab-to-gltf"
  },
  "scene": 0,
  "scenes": [
    {
      "name": "Sword_Faerie_Bee",
      "nodes": [
        0
      ]
    }
  ],
  "nodes": [
    {
      "name": "Sword_Faerie_Bee",
      "translation": [
        0,
        0,
        0
      ],
      "rotation": [
        0,
        0,
        0.7071056365966797,
        0.7071079257745626
      ],
      "scale": [
        1,
        1,
        1
      ],
      "mesh": 0
    }
  ],
  "meshes": [
    {
      "name": "Sword_Faerie_Bee",
      "primitives": [
        {
          "attributes": {
            "POSITION": 0,
            "NORMAL": 1,
            "TEXCOORD_0": 2,
            "TEXCOORD_1": 3
          },
          "indices": 4,
          "material": 0,
          "mode": 4
        }
      ]
    }
  ],
  "materials": [
    {
      "name": "MatSlots_WEAPONS_001",
      "pbrMetallicRoughness": {
        "baseColorFactor": [
          1,
          1,
          1,
          1
        ],
        "metallicFactor": 0,
        "roughnessFactor": 1
      },
      "doubleSided": true,
      "extras": {
        "diffuseTexture": null,
        "specularTexture": null,
        "normalMap": null
      }
    },
    {
      "name": "Outline_001",
      "pbrMetallicRoughness": {
        "baseColorFactor": [
          1,
          1,
          1,
          1
        ],
        "metallicFactor": 0,
        "roughnessFactor": 1
      },
      "doubleSided": true,
      "extras": {
        "diffuseTexture": null,
        "specularTexture": null,
        "normalMap": null
      }
    }
  ],
  "buffers": [
    {
      "uri": "Sword_Faerie_Bee.bin",
      "byteLength": 68472
    }
  ],
  "bufferViews": [
    {
      "buffer": 0,
      "byteOffset": 0,
      "byteLength": 17532,
      "target": 34962
    },
    {
      "buffer": 0,
      "byteOffset": 17532,
      "byteLength": 17532,
      "target": 34962
    },
    {
      "buffer": 0,
      "byteOffset": 35064,
      "byteLength": 11688,
      "target": 34962
    },
    {
      "buffer": 0,
      "byteOffset": 46752,
      "byteLength": 11688,
      "target": 34962
    },
    {
      "buffer": 0,
      "byteOffset": 58440,
      "byteLength": 10032,
      "target": 34963
    }
  ],
  "accessors": [
    {
      "bufferView": 0,
      "componentType": 5126,
      "count": 1461,
      "type": "VEC3",
      "min": [
        -0.14966657757759094,
        -0.07515385746955872,
        -0.3788284659385681
      ],
      "max": [
        0.14966657757759094,
        0.07515385746955872,
        1.1666604280471802
      ]
    },
    {
      "bufferView": 1,
      "componentType": 5126,
      "count": 1461,
      "type": "VEC3",
      "min": [
        -1,
        -1,
        -1
      ],
      "max": [
        1,
        1,
        0.9764345288276672
      ]
    },
    {
      "bufferView": 2,
      "componentType": 5126,
      "count": 1461,
      "type": "VEC2",
      "min": [
        0.006420314311981201,
        0.17399615049362183
      ],
      "max": [
        0.458585262298584,
        0.8112930059432983
      ]
    },
    {
      "bufferView": 3,
      "componentType": 5126,
      "count": 1461,
      "type": "VEC2",
      "min": [
        0.5609728097915649,
        0.15800541639328003
      ],
      "max": [
        0.9843091368675232,
        0.49077916145324707
      ]
    },
    {
      "bufferView": 4,
      "componentType": 5123,
      "count": 5016,
      "type": "SCALAR",
      "min": [
        0
      ],
      "max": [
        1460
      ]
    }
  ],
  "extras": {
    "manifest": "Sword_Faerie_Bee.materials.json"
  }
}