{
  "asset": {
    "version": "2.0",
    "generator": "prefab-to-gltf"
  },
  "scene": 0,
  "scenes": [
    {
      "name": "Equid_Goat_05",
      "nodes": [
        0
      ]
    }
  ],
  "nodes": [
    {
      "name": "Equid_Goat_01",
      "translation": [
        0,
        0,
        0
      ],
      "rotation": [
        0,
        0,
        0,
        1
      ],
      "scale": [
        1,
        1,
        1
      ],
      "mesh": 0
    }
  ],
  "meshes": [
    {
      "name": "Equid_Goat_01",
      "primitives": [
        {
          "attributes": {
            "POSITION": 0,
            "NORMAL": 1,
            "TEXCOORD_0": 2,
            "TEXCOORD_1": 3,
            "COLOR_0": 4
          },
          "indices": 5,
          "material": 0,
          "mode": 4
        },
        {
          "attributes": {
            "POSITION": 6,
            "NORMAL": 7,
            "TEXCOORD_0": 8,
            "TEXCOORD_1": 9,
            "COLOR_0": 10
          },
          "indices": 11,
          "material": 1,
          "mode": 4
        }
      ]
    }
  ],
  "materials": [
    {
      "name": "Gradmat_Saddle",
      "pbrMetallicRoughness": {
        "baseColorFactor": [
          1,
          1,
          1,
          1
        ],
        "metallicFactor": 0,
        "roughnessFactor": 1
      },
      "doubleSided": true,
      "extras": {
        "diffuseTexture": "Character/Common/Texture/CustomGradient_Guard.png",
        "specularTexture": null,
        "normalMap": null
      }
    },
    {
      "name": "Gradmat_Body",
      "pbrMetallicRoughness": {
        "baseColorFactor": [
          1,
          1,
          1,
          1
        ],
        "metallicFactor": 0,
        "roughnessFactor": 1
      },
      "doubleSided": true,
      "extras": {
        "diffuseTexture": "Character/Common/Texture/CustomGradient_WeaponALL.png",
        "specularTexture": null,
        "normalMap": null
      }
    }
  ],
  "buffers": [
    {
      "uri": "Equid_Goat_05.bin",
      "byteLength": 1541716
    }
  ],
  "bufferViews": [
    {
      "buffer": 0,
      "byteOffset": 0,
      "byteLength": 165228,
      "target": 34962
    },
    {
      "buffer": 0,
      "byteOffset": 165228,
      "byteLength": 165228,
      "target": 34962
    },
    {
      "buffer": 0,
      "byteOffset": 330456,
      "byteLength": 110152,
      "target": 34962
    },
    {
      "buffer": 0,
      "byteOffset": 440608,
      "byteLength": 110152,
      "target": 34962
    },
    {
      "buffer": 0,
      "byteOffset": 550760,
      "byteLength": 165228,
      "target": 34962
    },
    {
      "buffer": 0,
      "byteOffset": 715988,
      "byteLength": 43152,
      "target": 34963
    },
    {
      "buffer": 0,
      "byteOffset": 759140,
      "byteLength": 165228,
      "target": 34962
    },
    {
      "buffer": 0,
      "byteOffset": 924368,
      "byteLength": 165228,
      "target": 34962
    },
    {
      "buffer": 0,
      "byteOffset": 1089596,
      "byteLength": 110152,
      "target": 34962
    },
    {
      "buffer": 0,
      "byteOffset": 1199748,
      "byteLength": 110152,
      "target": 34962
    },
    {
      "buffer": 0,
      "byteOffset": 1309900,
      "byteLength": 165228,
      "target": 34962
    },
    {
      "buffer": 0,
      "byteOffset": 1475128,
      "byteLength": 66588,
      "target": 34963
    }
  ],
  "accessors": [
    {
      "bufferView": 0,
      "componentType": 5126,
      "count": 13769,
      "type": "VEC3",
      "min": [
        -0.6865078210830688,
        0.00254794186912477,
        -1.3226728439331055
      ],
      "max": [
        0.6865078210830688,
        3.485689163208008,
        1.7075117826461792
      ]
    },
    {
      "bufferView": 1,
      "componentType": 5126,
      "count": 13769,
      "type": "VEC3",
      "min": [
        -0.9999651908874512,
        -0.9999995827674866,
        -0.9999924302101135
      ],
      "max": [
        0.9999651312828064,
        0.9999432563781738,
        0.9998594522476196
      ]
    },
    {
      "bufferView": 2,
      "componentType": 5126,
      "count": 13769,
      "type": "VEC2",
      "min": [
        0.025919554755091667,
        0.07804703712463379
      ],
      "max": [
        0.971535325050354,
        0.9959312677383423
      ]
    },
    {
      "bufferView": 3,
      "componentType": 5126,
      "count": 13769,
      "type": "VEC2",
      "min": [
        0,
        0.09653067588806152
      ],
      "max": [
        0.9570190906524658,
        1
      ]
    },
    {
      "bufferView": 4,
      "componentType": 5126,
      "count": 10326.75,
      "type": "VEC4",
      "min": [
        0,
        0,
        0,
        0
      ],
      "max": [
        1,
        1,
        1,
        1
      ]
    },
    {
      "bufferView": 5,
      "componentType": 5123,
      "count": 21576,
      "type": "SCALAR",
      "min": [
        0
      ],
      "max": [
        5626
      ]
    },
    {
      "bufferView": 6,
      "componentType": 5126,
      "count": 13769,
      "type": "VEC3",
      "min": [
        -0.6865078210830688,
        0.00254794186912477,
        -1.3226728439331055
      ],
      "max": [
        0.6865078210830688,
        3.485689163208008,
        1.7075117826461792
      ]
    },
    {
      "bufferView": 7,
      "componentType": 5126,
      "count": 13769,
      "type": "VEC3",
      "min": [
        -0.9999651908874512,
        -0.9999995827674866,
        -0.9999924302101135
      ],
      "max": [
        0.9999651312828064,
        0.9999432563781738,
        0.9998594522476196
      ]
    },
    {
      "bufferView": 8,
      "componentType": 5126,
      "count": 13769,
      "type": "VEC2",
      "min": [
        0.025919554755091667,
        0.07804703712463379
      ],
      "max": [
        0.971535325050354,
        0.9959312677383423
      ]
    },
    {
      "bufferView": 9,
      "componentType": 5126,
      "count": 13769,
      "type": "VEC2",
      "min": [
        0,
        0.09653067588806152
      ],
      "max": [
        0.9570190906524658,
        1
      ]
    },
    {
      "bufferView": 10,
      "componentType": 5126,
      "count": 10326.75,
      "type": "VEC4",
      "min": [
        0,
        0,
        0,
        0
      ],
      "max": [
        1,
        1,
        1,
        1
      ]
    },
    {
      "bufferView": 11,
      "componentType": 5123,
      "count": 33294,
      "type": "SCALAR",
      "min": [
        0
      ],
      "max": [
        13768
      ]
    }
  ],
  "extras": {
    "manifest": "Equid_Goat_05.materials.json"
  }
}