{
  "asset": {
    "version": "2.0",
    "generator": "prefab-to-gltf"
  },
  "scene": 0,
  "scenes": [
    {
      "name": "Sparkling_Lava_Black",
      "nodes": [
        0
      ]
    }
  ],
  "nodes": [
    {
      "name": "SparklingLava01",
      "translation": [
        0,
        0,
        0
      ],
      "rotation": [
        0,
        0,
        0,
        1
      ],
      "scale": [
        1,
        1,
        1
      ],
      "mesh": 0
    }
  ],
  "meshes": [
    {
      "name": "SparklingLava01",
      "primitives": [
        {
          "attributes": {
            "POSITION": 0,
            "NORMAL": 1,
            "TEXCOORD_0": 2,
            "TEXCOORD_1": 3
          },
          "indices": 4,
          "material": 0,
          "mode": 4
        }
      ]
    }
  ],
  "materials": [
    {
      "name": "GradMat",
      "pbrMetallicRoughness": {
        "baseColorFactor": [
          1,
          1,
          1,
          1
        ],
        "metallicFactor": 0,
        "roughnessFactor": 1
      },
      "doubleSided": true,
      "extras": {
        "diffuseTexture": "Character/Common/Texture/CustomGradient_WeaponALL.png",
        "specularTexture": null,
        "normalMap": null
      }
    }
  ],
  "buffers": [
    {
      "uri": "Sparkling_Lava_Black.bin",
      "byteLength": 64652
    }
  ],
  "bufferViews": [
    {
      "buffer": 0,
      "byteOffset": 0,
      "byteLength": 17628,
      "target": 34962
    },
    {
      "buffer": 0,
      "byteOffset": 17628,
      "byteLength": 17628,
      "target": 34962
    },
    {
      "buffer": 0,
      "byteOffset": 35256,
      "byteLength": 11752,
      "target": 34962
    },
    {
      "buffer": 0,
      "byteOffset": 47008,
      "byteLength": 11752,
      "target": 34962
    },
    {
      "buffer": 0,
      "byteOffset": 58760,
      "byteLength": 5892,
      "target": 34963
    }
  ],
  "accessors": [
    {
      "bufferView": 0,
      "componentType": 5126,
      "count": 1469,
      "type": "VEC3",
      "min": [
        -0.9280441403388977,
        -0.6968334913253784,
        -0.9540581703186035
      ],
      "max": [
        0.923380970954895,
        1.0096182823181152,
        0.547188401222229
      ]
    },
    {
      "bufferView": 1,
      "componentType": 5126,
      "count": 1469,
      "type": "VEC3",
      "min": [
        -0.9836328029632568,
        -0.9958968758583069,
        -0.9821594953536987
      ],
      "max": [
        0.9907525777816772,
        0.9964659810066223,
        0.9863128662109375
      ]
    },
    {
      "bufferView": 2,
      "componentType": 5126,
      "count": 1469,
      "type": "VEC2",
      "min": [
        0.024388179183006287,
        0.10596120357513428
      ],
      "max": [
        0.09555292874574661,
        0.9475544095039368
      ]
    },
    {
      "bufferView": 3,
      "componentType": 5126,
      "count": 1469,
      "type": "VEC2",
      "min": [
        0,
        0.12925875186920166
      ],
      "max": [
        0.940189003944397,
        1
      ]
    },
    {
      "bufferView": 4,
      "componentType": 5123,
      "count": 2946,
      "type": "SCALAR",
      "min": [
        0
      ],
      "max": [
        1468
      ]
    }
  ],
  "extras": {
    "manifest": "Sparkling_Lava_Black.materials.json"
  }
}