{
  "asset": {
    "version": "2.0",
    "generator": "prefab-to-gltf"
  },
  "scene": 0,
  "scenes": [
    {
      "name": "Chest_ShortSleeves_Z3U2_Cle",
      "nodes": [
        0
      ]
    }
  ],
  "nodes": [
    {
      "name": "Chest_Z1U1_WizCle_N",
      "translation": [
        0,
        0,
        0
      ],
      "rotation": [
        0,
        0,
        0,
        1
      ],
      "scale": [
        1,
        1,
        1
      ],
      "mesh": 0
    }
  ],
  "meshes": [
    {
      "name": "Chest_Z1U1_WizCle_N",
      "primitives": [
        {
          "attributes": {
            "POSITION": 0,
            "NORMAL": 1,
            "TEXCOORD_0": 2,
            "TEXCOORD_1": 3,
            "COLOR_0": 4
          },
          "indices": 5,
          "material": 0,
          "mode": 4
        }
      ]
    }
  ],
  "materials": [
    {
      "name": "GradMat_Body",
      "pbrMetallicRoughness": {
        "baseColorFactor": [
          1,
          1,
          1,
          1
        ],
        "metallicFactor": 0,
        "roughnessFactor": 1
      },
      "doubleSided": true,
      "extras": {
        "diffuseTexture": "Character/Common/Texture/CustomGradient_RobinHoof.png",
        "specularTexture": null,
        "normalMap": null
      }
    }
  ],
  "buffers": [
    {
      "uri": "Chest_ShortSleeves_Z3U2_Cle.bin",
      "byteLength": 636872
    }
  ],
  "bufferViews": [
    {
      "buffer": 0,
      "byteOffset": 0,
      "byteLength": 134844,
      "target": 34962
    },
    {
      "buffer": 0,
      "byteOffset": 134844,
      "byteLength": 134844,
      "target": 34962
    },
    {
      "buffer": 0,
      "byteOffset": 269688,
      "byteLength": 89896,
      "target": 34962
    },
    {
      "buffer": 0,
      "byteOffset": 359584,
      "byteLength": 89896,
      "target": 34962
    },
    {
      "buffer": 0,
      "byteOffset": 449480,
      "byteLength": 134844,
      "target": 34962
    },
    {
      "buffer": 0,
      "byteOffset": 584324,
      "byteLength": 52548,
      "target": 34963
    }
  ],
  "accessors": [
    {
      "bufferView": 0,
      "componentType": 5126,
      "count": 11237,
      "type": "VEC3",
      "min": [
        -0.66650390625,
        0.08514404296875,
        -0.2763671875
      ],
      "max": [
        0.66650390625,
        1.9326171875,
        0.37890625
      ]
    },
    {
      "bufferView": 1,
      "componentType": 5126,
      "count": 11237,
      "type": "VEC3",
      "min": [
        -0.5019607843137255,
        -0.5019607843137255,
        -0.5019607843137255
      ],
      "max": [
        1,
        1,
        1
      ]
    },
    {
      "bufferView": 2,
      "componentType": 5126,
      "count": 11237,
      "type": "VEC2",
      "min": [
        0.0093841552734375,
        0.1707763671875
      ],
      "max": [
        0.97607421875,
        0.9501953125
      ]
    },
    {
      "bufferView": 3,
      "componentType": 5126,
      "count": 11237,
      "type": "VEC2",
      "min": [
        0,
        0.259033203125
      ],
      "max": [
        0.947265625,
        1
      ]
    },
    {
      "bufferView": 4,
      "componentType": 5126,
      "count": 8427.75,
      "type": "VEC4",
      "min": [
        0,
        0,
        0,
        0
      ],
      "max": [
        1,
        1,
        1,
        1
      ]
    },
    {
      "bufferView": 5,
      "componentType": 5123,
      "count": 26274,
      "type": "SCALAR",
      "min": [
        0
      ],
      "max": [
        11236
      ]
    }
  ],
  "extras": {
    "manifest": "Chest_ShortSleeves_Z3U2_Cle.materials.json"
  }
}