{
  "asset": {
    "version": "2.0",
    "generator": "prefab-to-gltf"
  },
  "scene": 0,
  "scenes": [
    {
      "name": "Hands_Forearm_Z3U2_Cle",
      "nodes": [
        0
      ]
    }
  ],
  "nodes": [
    {
      "name": "Hands_R1S1_WizCle_N",
      "translation": [
        0,
        0,
        0
      ],
      "rotation": [
        0,
        0,
        0,
        1
      ],
      "scale": [
        1,
        1,
        1
      ],
      "mesh": 0
    }
  ],
  "meshes": [
    {
      "name": "Hands_R1S1_WizCle_N",
      "primitives": [
        {
          "attributes": {
            "POSITION": 0,
            "NORMAL": 1,
            "TEXCOORD_0": 2,
            "TEXCOORD_1": 3
          },
          "indices": 4,
          "material": 0,
          "mode": 4
        }
      ]
    }
  ],
  "materials": [
    {
      "name": "GradMat_Body",
      "pbrMetallicRoughness": {
        "baseColorFactor": [
          1,
          1,
          1,
          1
        ],
        "metallicFactor": 0,
        "roughnessFactor": 1
      },
      "doubleSided": true,
      "extras": {
        "diffuseTexture": "Character/Common/Texture/CustomGradient_BasicGuy.png",
        "specularTexture": null,
        "normalMap": null
      }
    }
  ],
  "buffers": [
    {
      "uri": "Hands_Forearm_Z3U2_Cle.bin",
      "byteLength": 233576
    }
  ],
  "bufferViews": [
    {
      "buffer": 0,
      "byteOffset": 0,
      "byteLength": 61584,
      "target": 34962
    },
    {
      "buffer": 0,
      "byteOffset": 61584,
      "byteLength": 61584,
      "target": 34962
    },
    {
      "buffer": 0,
      "byteOffset": 123168,
      "byteLength": 41056,
      "target": 34962
    },
    {
      "buffer": 0,
      "byteOffset": 164224,
      "byteLength": 41056,
      "target": 34962
    },
    {
      "buffer": 0,
      "byteOffset": 205280,
      "byteLength": 28296,
      "target": 34963
    }
  ],
  "accessors": [
    {
      "bufferView": 0,
      "componentType": 5126,
      "count": 5132,
      "type": "VEC3",
      "min": [
        -0.81201171875,
        0.9814453125,
        -0.07757568359375
      ],
      "max": [
        0.81201171875,
        1.5234375,
        0.337646484375
      ]
    },
    {
      "bufferView": 1,
      "componentType": 5126,
      "count": 5132,
      "type": "VEC3",
      "min": [
        -0.5019607843137255,
        -0.5019607843137255,
        -0.5019607843137255
      ],
      "max": [
        1,
        1,
        1
      ]
    },
    {
      "bufferView": 2,
      "componentType": 5126,
      "count": 5132,
      "type": "VEC2",
      "min": [
        0.0190582275390625,
        0.1739501953125
      ],
      "max": [
        0.9794921875,
        0.99560546875
      ]
    },
    {
      "bufferView": 3,
      "componentType": 5126,
      "count": 5132,
      "type": "VEC2",
      "min": [
        0,
        0.259765625
      ],
      "max": [
        0.94482421875,
        1
      ]
    },
    {
      "bufferView": 4,
      "componentType": 5123,
      "count": 14148,
      "type": "SCALAR",
      "min": [
        0
      ],
      "max": [
        5131
      ]
    }
  ],
  "extras": {
    "manifest": "Hands_Forearm_Z3U2_Cle.materials.json"
  }
}