{
  "asset": {
    "version": "2.0",
    "generator": "prefab-to-gltf"
  },
  "scene": 0,
  "scenes": [
    {
      "name": "Mace_Faerie_Bee",
      "nodes": [
        0
      ]
    }
  ],
  "nodes": [
    {
      "name": "Mace_Faerie_Bee",
      "translation": [
        0,
        0,
        0
      ],
      "rotation": [
        0,
        0,
        0.7071056365966797,
        0.7071079257745626
      ],
      "scale": [
        1,
        1,
        1
      ],
      "mesh": 0
    }
  ],
  "meshes": [
    {
      "name": "Mace_Faerie_Bee",
      "primitives": [
        {
          "attributes": {
            "POSITION": 0,
            "NORMAL": 1,
            "TEXCOORD_0": 2,
            "TEXCOORD_1": 3
          },
          "indices": 4,
          "material": 0,
          "mode": 4
        }
      ]
    }
  ],
  "materials": [
    {
      "name": "MatSlots_WEAPONS_001",
      "pbrMetallicRoughness": {
        "baseColorFactor": [
          1,
          1,
          1,
          1
        ],
        "metallicFactor": 0,
        "roughnessFactor": 1
      },
      "doubleSided": true,
      "extras": {
        "diffuseTexture": null,
        "specularTexture": null,
        "normalMap": null
      }
    },
    {
      "name": "Outline_001",
      "pbrMetallicRoughness": {
        "baseColorFactor": [
          1,
          1,
          1,
          1
        ],
        "metallicFactor": 0,
        "roughnessFactor": 1
      },
      "doubleSided": true,
      "extras": {
        "diffuseTexture": null,
        "specularTexture": null,
        "normalMap": null
      }
    }
  ],
  "buffers": [
    {
      "uri": "Mace_Faerie_Bee.bin",
      "byteLength": 69456
    }
  ],
  "bufferViews": [
    {
      "buffer": 0,
      "byteOffset": 0,
      "byteLength": 17784,
      "target": 34962
    },
    {
      "buffer": 0,
      "byteOffset": 17784,
      "byteLength": 17784,
      "target": 34962
    },
    {
      "buffer": 0,
      "byteOffset": 35568,
      "byteLength": 11856,
      "target": 34962
    },
    {
      "buffer": 0,
      "byteOffset": 47424,
      "byteLength": 11856,
      "target": 34962
    },
    {
      "buffer": 0,
      "byteOffset": 59280,
      "byteLength": 10176,
      "target": 34963
    }
  ],
  "accessors": [
    {
      "bufferView": 0,
      "componentType": 5126,
      "count": 1482,
      "type": "VEC3",
      "min": [
        -0.1816016584634781,
        -0.1816016137599945,
        -0.317309707403183
      ],
      "max": [
        0.18160156905651093,
        0.1816016137599945,
        0.6777673959732056
      ]
    },
    {
      "bufferView": 1,
      "componentType": 5126,
      "count": 1482,
      "type": "VEC3",
      "min": [
        -1,
        -1,
        -1
      ],
      "max": [
        1,
        1,
        1
      ]
    },
    {
      "bufferView": 2,
      "componentType": 5126,
      "count": 1482,
      "type": "VEC2",
      "min": [
        0.01218879222869873,
        0.1694868803024292
      ],
      "max": [
        0.48026955127716064,
        0.8701114654541016
      ]
    },
    {
      "bufferView": 3,
      "componentType": 5126,
      "count": 1482,
      "type": "VEC2",
      "min": [
        0.5558947324752808,
        0.19037789106369019
      ],
      "max": [
        0.9454264640808105,
        0.8968740105628967
      ]
    },
    {
      "bufferView": 4,
      "componentType": 5123,
      "count": 5088,
      "type": "SCALAR",
      "min": [
        0
      ],
      "max": [
        1481
      ]
    }
  ],
  "extras": {
    "manifest": "Mace_Faerie_Bee.materials.json"
  }
}