{
  "asset": {
    "version": "2.0",
    "generator": "prefab-to-gltf"
  },
  "scene": 0,
  "scenes": [
    {
      "name": "Chrysalid_HiveChampion",
      "nodes": [
        0
      ]
    }
  ],
  "nodes": [
    {
      "name": "Chrysalid_HiveChampion",
      "translation": [
        0,
        0,
        0
      ],
      "rotation": [
        0,
        0,
        0,
        1
      ],
      "scale": [
        1,
        1,
        1
      ],
      "mesh": 0
    }
  ],
  "meshes": [
    {
      "name": "Chrysalid_HiveChampion",
      "primitives": [
        {
          "attributes": {
            "POSITION": 0,
            "NORMAL": 1,
            "TEXCOORD_0": 2,
            "TEXCOORD_1": 3
          },
          "indices": 4,
          "material": 0,
          "mode": 4
        }
      ]
    }
  ],
  "materials": [
    {
      "name": "Gradmat",
      "pbrMetallicRoughness": {
        "baseColorFactor": [
          1,
          1,
          1,
          1
        ],
        "metallicFactor": 0,
        "roughnessFactor": 1
      },
      "doubleSided": true,
      "extras": {
        "diffuseTexture": null,
        "specularTexture": null,
        "normalMap": null
      }
    },
    {
      "name": "Outline",
      "pbrMetallicRoughness": {
        "baseColorFactor": [
          1,
          1,
          1,
          1
        ],
        "metallicFactor": 0,
        "roughnessFactor": 1
      },
      "doubleSided": true,
      "extras": {
        "diffuseTexture": null,
        "specularTexture": null,
        "normalMap": null
      }
    }
  ],
  "buffers": [
    {
      "uri": "Chrysalid_HiveChampion.bin",
      "byteLength": 84820
    }
  ],
  "bufferViews": [
    {
      "buffer": 0,
      "byteOffset": 0,
      "byteLength": 23196,
      "target": 34962
    },
    {
      "buffer": 0,
      "byteOffset": 23196,
      "byteLength": 23196,
      "target": 34962
    },
    {
      "buffer": 0,
      "byteOffset": 46392,
      "byteLength": 15464,
      "target": 34962
    },
    {
      "buffer": 0,
      "byteOffset": 61856,
      "byteLength": 15464,
      "target": 34962
    },
    {
      "buffer": 0,
      "byteOffset": 77320,
      "byteLength": 7500,
      "target": 34963
    }
  ],
  "accessors": [
    {
      "bufferView": 0,
      "componentType": 5126,
      "count": 1933,
      "type": "VEC3",
      "min": [
        -0.9838328957557678,
        -1.2912468910217285,
        -0.8268167972564697
      ],
      "max": [
        0.9468573927879333,
        0.40207284688949585,
        2.238985061645508
      ]
    },
    {
      "bufferView": 1,
      "componentType": 5126,
      "count": 1933,
      "type": "VEC3",
      "min": [
        -0.9995929002761841,
        -0.9991787075996399,
        -0.857700765132904
      ],
      "max": [
        0.9995929002761841,
        0.9994935393333435,
        0.9995771646499634
      ]
    },
    {
      "bufferView": 2,
      "componentType": 5126,
      "count": 1933,
      "type": "VEC2",
      "min": [
        0.037604015320539474,
        0.7335129380226135
      ],
      "max": [
        0.225538969039917,
        0.9821188449859619
      ]
    },
    {
      "bufferView": 3,
      "componentType": 5126,
      "count": 1933,
      "type": "VEC2",
      "min": [
        0.04274994134902954,
        0.19919395446777344
      ],
      "max": [
        0.945212721824646,
        0.9824425578117371
      ]
    },
    {
      "bufferView": 4,
      "componentType": 5123,
      "count": 3750,
      "type": "SCALAR",
      "min": [
        0
      ],
      "max": [
        1932
      ]
    }
  ],
  "extras": {
    "manifest": "Chrysalid_HiveChampion.materials.json"
  }
}