{
  "asset": {
    "version": "2.0",
    "generator": "prefab-to-gltf"
  },
  "scene": 0,
  "scenes": [
    {
      "name": "Faerie_HiveChampion",
      "nodes": [
        0
      ]
    }
  ],
  "nodes": [
    {
      "name": "Faerie_HiveChampion",
      "translation": [
        0,
        0,
        0
      ],
      "rotation": [
        0,
        0,
        0,
        1
      ],
      "scale": [
        1,
        1,
        1
      ],
      "mesh": 0
    }
  ],
  "meshes": [
    {
      "name": "Faerie_HiveChampion",
      "primitives": [
        {
          "attributes": {
            "POSITION": 0,
            "NORMAL": 1,
            "TEXCOORD_0": 2,
            "TEXCOORD_1": 3,
            "COLOR_0": 4
          },
          "indices": 5,
          "material": 0,
          "mode": 4
        }
      ]
    }
  ],
  "materials": [
    {
      "name": "GradMat",
      "pbrMetallicRoughness": {
        "baseColorFactor": [
          1,
          1,
          1,
          1
        ],
        "metallicFactor": 0,
        "roughnessFactor": 1
      },
      "doubleSided": true,
      "extras": {
        "diffuseTexture": "Character/Common/Texture/CustomGradient_WeaponALL.png",
        "specularTexture": null,
        "normalMap": null
      }
    }
  ],
  "buffers": [
    {
      "uri": "Faerie_HiveChampion.bin",
      "byteLength": 553444
    }
  ],
  "bufferViews": [
    {
      "buffer": 0,
      "byteOffset": 0,
      "byteLength": 112908,
      "target": 34962
    },
    {
      "buffer": 0,
      "byteOffset": 112908,
      "byteLength": 112908,
      "target": 34962
    },
    {
      "buffer": 0,
      "byteOffset": 225816,
      "byteLength": 75272,
      "target": 34962
    },
    {
      "buffer": 0,
      "byteOffset": 301088,
      "byteLength": 75272,
      "target": 34962
    },
    {
      "buffer": 0,
      "byteOffset": 376360,
      "byteLength": 112908,
      "target": 34962
    },
    {
      "buffer": 0,
      "byteOffset": 489268,
      "byteLength": 64176,
      "target": 34963
    }
  ],
  "accessors": [
    {
      "bufferView": 0,
      "componentType": 5126,
      "count": 9409,
      "type": "VEC3",
      "min": [
        -1.1099867820739746,
        0.0017515248619019985,
        -1.569507122039795
      ],
      "max": [
        1.1099867820739746,
        3.360774517059326,
        0.6624098420143127
      ]
    },
    {
      "bufferView": 1,
      "componentType": 5126,
      "count": 9409,
      "type": "VEC3",
      "min": [
        -0.9996368885040283,
        -0.9999646544456482,
        -0.9999897480010986
      ],
      "max": [
        0.9996368288993835,
        0.9996441006660461,
        0.9999998807907104
      ]
    },
    {
      "bufferView": 2,
      "componentType": 5126,
      "count": 9409,
      "type": "VEC2",
      "min": [
        0.013639207929372787,
        0.023169338703155518
      ],
      "max": [
        0.8271930813789368,
        0.9933533668518066
      ]
    },
    {
      "bufferView": 3,
      "componentType": 5126,
      "count": 9409,
      "type": "VEC2",
      "min": [
        0,
        0.023169338703155518
      ],
      "max": [
        0.9527268409729004,
        1
      ]
    },
    {
      "bufferView": 4,
      "componentType": 5126,
      "count": 7056.75,
      "type": "VEC4",
      "min": [
        0,
        0,
        0,
        0
      ],
      "max": [
        1,
        1,
        1,
        1
      ]
    },
    {
      "bufferView": 5,
      "componentType": 5123,
      "count": 32088,
      "type": "SCALAR",
      "min": [
        0
      ],
      "max": [
        9408
      ]
    }
  ],
  "extras": {
    "manifest": "Faerie_HiveChampion.materials.json"
  }
}