{
  "asset": {
    "version": "2.0",
    "generator": "prefab-to-gltf"
  },
  "scene": 0,
  "scenes": [
    {
      "name": "Back_Short_Z2U2_Fig",
      "nodes": [
        0
      ]
    }
  ],
  "nodes": [
    {
      "name": "Back_R1S1_FigCle_N",
      "translation": [
        0,
        0,
        0
      ],
      "rotation": [
        0,
        0,
        0,
        1
      ],
      "scale": [
        1,
        1,
        1
      ],
      "mesh": 0
    }
  ],
  "meshes": [
    {
      "name": "Back_R1S1_FigCle_N",
      "primitives": [
        {
          "attributes": {
            "POSITION": 0,
            "NORMAL": 1,
            "TEXCOORD_0": 2,
            "TEXCOORD_1": 3
          },
          "indices": 4,
          "material": 0,
          "mode": 4
        }
      ]
    }
  ],
  "materials": [
    {
      "name": "Gradmat_Weapon1",
      "pbrMetallicRoughness": {
        "baseColorFactor": [
          1,
          1,
          1,
          1
        ],
        "metallicFactor": 0,
        "roughnessFactor": 1
      },
      "doubleSided": true,
      "extras": {
        "diffuseTexture": "Character/Common/Texture/CustomGradient_WeaponALL.png",
        "specularTexture": null,
        "normalMap": null
      }
    }
  ],
  "buffers": [
    {
      "uri": "Back_Short_Z2U2_Fig.bin",
      "byteLength": 38468
    }
  ],
  "bufferViews": [
    {
      "buffer": 0,
      "byteOffset": 0,
      "byteLength": 10212,
      "target": 34962
    },
    {
      "buffer": 0,
      "byteOffset": 10212,
      "byteLength": 10212,
      "target": 34962
    },
    {
      "buffer": 0,
      "byteOffset": 20424,
      "byteLength": 6808,
      "target": 34962
    },
    {
      "buffer": 0,
      "byteOffset": 27232,
      "byteLength": 6808,
      "target": 34962
    },
    {
      "buffer": 0,
      "byteOffset": 34040,
      "byteLength": 4428,
      "target": 34963
    }
  ],
  "accessors": [
    {
      "bufferView": 0,
      "componentType": 5126,
      "count": 851,
      "type": "VEC3",
      "min": [
        -0.261474609375,
        1.2822265625,
        -0.1524658203125
      ],
      "max": [
        0.261474609375,
        1.89453125,
        0.28759765625
      ]
    },
    {
      "bufferView": 1,
      "componentType": 5126,
      "count": 851,
      "type": "VEC3",
      "min": [
        -0.5019607843137255,
        -0.47058823529411764,
        -0.5019607843137255
      ],
      "max": [
        1,
        1,
        0.48627450980392156
      ]
    },
    {
      "bufferView": 2,
      "componentType": 5126,
      "count": 851,
      "type": "VEC2",
      "min": [
        0.1474609375,
        0.11614990234375
      ],
      "max": [
        0.70166015625,
        0.810546875
      ]
    },
    {
      "bufferView": 3,
      "componentType": 5126,
      "count": 851,
      "type": "VEC2",
      "min": [
        0.050811767578125,
        0.114990234375
      ],
      "max": [
        0.94287109375,
        0.9453125
      ]
    },
    {
      "bufferView": 4,
      "componentType": 5123,
      "count": 2214,
      "type": "SCALAR",
      "min": [
        0
      ],
      "max": [
        850
      ]
    }
  ],
  "extras": {
    "manifest": "Back_Short_Z2U2_Fig.materials.json"
  }
}