{
  "asset": {
    "version": "2.0",
    "generator": "prefab-to-gltf"
  },
  "scene": 0,
  "scenes": [
    {
      "name": "Chest_LongSleeves_Z2U1_Fig",
      "nodes": [
        0
      ]
    }
  ],
  "nodes": [
    {
      "name": "Chest_Z1U1_FigCle_N",
      "translation": [
        0,
        0,
        0
      ],
      "rotation": [
        0,
        0,
        0,
        1
      ],
      "scale": [
        1,
        1,
        1
      ],
      "mesh": 0
    }
  ],
  "meshes": [
    {
      "name": "Chest_Z1U1_FigCle_N",
      "primitives": [
        {
          "attributes": {
            "POSITION": 0,
            "NORMAL": 1,
            "TEXCOORD_0": 2,
            "TEXCOORD_1": 3,
            "COLOR_0": 4
          },
          "indices": 5,
          "material": 0,
          "mode": 4
        }
      ]
    }
  ],
  "materials": [
    {
      "name": "GradMat_Body",
      "pbrMetallicRoughness": {
        "baseColorFactor": [
          1,
          1,
          1,
          1
        ],
        "metallicFactor": 0,
        "roughnessFactor": 1
      },
      "doubleSided": true,
      "extras": {
        "diffuseTexture": "Character/Common/Texture/CustomGradient_RobinHoof.png",
        "specularTexture": null,
        "normalMap": null
      }
    }
  ],
  "buffers": [
    {
      "uri": "Chest_LongSleeves_Z2U1_Fig.bin",
      "byteLength": 264312
    }
  ],
  "bufferViews": [
    {
      "buffer": 0,
      "byteOffset": 0,
      "byteLength": 55620,
      "target": 34962
    },
    {
      "buffer": 0,
      "byteOffset": 55620,
      "byteLength": 55620,
      "target": 34962
    },
    {
      "buffer": 0,
      "byteOffset": 111240,
      "byteLength": 37080,
      "target": 34962
    },
    {
      "buffer": 0,
      "byteOffset": 148320,
      "byteLength": 37080,
      "target": 34962
    },
    {
      "buffer": 0,
      "byteOffset": 185400,
      "byteLength": 55620,
      "target": 34962
    },
    {
      "buffer": 0,
      "byteOffset": 241020,
      "byteLength": 23292,
      "target": 34963
    }
  ],
  "accessors": [
    {
      "bufferView": 0,
      "componentType": 5126,
      "count": 4635,
      "type": "VEC3",
      "min": [
        -0.66943359375,
        0.427001953125,
        -0.376220703125
      ],
      "max": [
        0.66943359375,
        1.9326171875,
        0.2724609375
      ]
    },
    {
      "bufferView": 1,
      "componentType": 5126,
      "count": 4635,
      "type": "VEC3",
      "min": [
        -0.5019607843137255,
        -0.5019607843137255,
        -0.5019607843137255
      ],
      "max": [
        1,
        1,
        1
      ]
    },
    {
      "bufferView": 2,
      "componentType": 5126,
      "count": 4635,
      "type": "VEC2",
      "min": [
        0.0272979736328125,
        0.2293701171875
      ],
      "max": [
        0.9765625,
        0.96533203125
      ]
    },
    {
      "bufferView": 3,
      "componentType": 5126,
      "count": 4635,
      "type": "VEC2",
      "min": [
        0.023529052734375,
        0.11456298828125
      ],
      "max": [
        0.99365234375,
        0.9716796875
      ]
    },
    {
      "bufferView": 4,
      "componentType": 5126,
      "count": 3476.25,
      "type": "VEC4",
      "min": [
        0,
        0,
        0,
        0
      ],
      "max": [
        1,
        1,
        1,
        1
      ]
    },
    {
      "bufferView": 5,
      "componentType": 5123,
      "count": 11646,
      "type": "SCALAR",
      "min": [
        0
      ],
      "max": [
        4634
      ]
    }
  ],
  "extras": {
    "manifest": "Chest_LongSleeves_Z2U1_Fig.materials.json"
  }
}