{
  "asset": {
    "version": "2.0",
    "generator": "prefab-to-gltf"
  },
  "scene": 0,
  "scenes": [
    {
      "name": "Hair_Long_Bun_01",
      "nodes": [
        0
      ]
    }
  ],
  "nodes": [
    {
      "name": "Hair_Long_Bun_01",
      "translation": [
        0,
        0,
        0
      ],
      "rotation": [
        0,
        0,
        0,
        1
      ],
      "scale": [
        1,
        1,
        1
      ],
      "mesh": 0
    }
  ],
  "meshes": [
    {
      "name": "Hair_Long_Bun_01",
      "primitives": [
        {
          "attributes": {
            "POSITION": 0,
            "NORMAL": 1,
            "TEXCOORD_0": 2,
            "TEXCOORD_1": 3
          },
          "indices": 4,
          "material": 0,
          "mode": 4
        }
      ]
    }
  ],
  "materials": [
    {
      "name": "Gradmat_Weapon",
      "pbrMetallicRoughness": {
        "baseColorFactor": [
          1,
          1,
          1,
          1
        ],
        "metallicFactor": 0,
        "roughnessFactor": 1
      },
      "doubleSided": true,
      "extras": {
        "diffuseTexture": "Character/Common/Texture/CustomGradient_Hero_Clothes.png",
        "specularTexture": null,
        "normalMap": null
      }
    }
  ],
  "buffers": [
    {
      "uri": "Hair_Long_Bun_01.bin",
      "byteLength": 87968
    }
  ],
  "bufferViews": [
    {
      "buffer": 0,
      "byteOffset": 0,
      "byteLength": 22524,
      "target": 34962
    },
    {
      "buffer": 0,
      "byteOffset": 22524,
      "byteLength": 22524,
      "target": 34962
    },
    {
      "buffer": 0,
      "byteOffset": 45048,
      "byteLength": 15016,
      "target": 34962
    },
    {
      "buffer": 0,
      "byteOffset": 60064,
      "byteLength": 15016,
      "target": 34962
    },
    {
      "buffer": 0,
      "byteOffset": 75080,
      "byteLength": 12888,
      "target": 34963
    }
  ],
  "accessors": [
    {
      "bufferView": 0,
      "componentType": 5126,
      "count": 1877,
      "type": "VEC3",
      "min": [
        -0.18744425475597382,
        1.6800274848937988,
        -0.3110123574733734
      ],
      "max": [
        0.15974070131778717,
        2.209170341491699,
        0.23011866211891174
      ]
    },
    {
      "bufferView": 1,
      "componentType": 5126,
      "count": 1877,
      "type": "VEC3",
      "min": [
        -0.9994745254516602,
        -0.999832034111023,
        -0.9965448975563049
      ],
      "max": [
        0.9999926686286926,
        0.9984070658683777,
        0.999931812286377
      ]
    },
    {
      "bufferView": 2,
      "componentType": 5126,
      "count": 1877,
      "type": "VEC2",
      "min": [
        0.1360616832971573,
        0.04042017459869385
      ],
      "max": [
        0.4383653700351715,
        0.8014845848083496
      ]
    },
    {
      "bufferView": 3,
      "componentType": 5126,
      "count": 1877,
      "type": "VEC2",
      "min": [
        0.0187804214656353,
        0.01088106632232666
      ],
      "max": [
        0.6410461664199829,
        0.9821602702140808
      ]
    },
    {
      "bufferView": 4,
      "componentType": 5123,
      "count": 6444,
      "type": "SCALAR",
      "min": [
        0
      ],
      "max": [
        1876
      ]
    }
  ],
  "extras": {
    "manifest": "Hair_Long_Bun_01.materials.json"
  }
}