{
  "asset": {
    "version": "2.0",
    "generator": "prefab-to-gltf"
  },
  "scene": 0,
  "scenes": [
    {
      "name": "Hair_Long_DoubleBun_02",
      "nodes": [
        0
      ]
    }
  ],
  "nodes": [
    {
      "name": "Hair_Long_DoubleBlun_02",
      "translation": [
        0,
        0,
        0
      ],
      "rotation": [
        0,
        0,
        0,
        1
      ],
      "scale": [
        1,
        1,
        1
      ],
      "mesh": 0
    }
  ],
  "meshes": [
    {
      "name": "Hair_Long_DoubleBlun_02",
      "primitives": [
        {
          "attributes": {
            "POSITION": 0,
            "NORMAL": 1,
            "TEXCOORD_0": 2,
            "TEXCOORD_1": 3,
            "COLOR_0": 4
          },
          "indices": 5,
          "material": 0,
          "mode": 4
        }
      ]
    }
  ],
  "materials": [
    {
      "name": "Gradmat_Weapon",
      "pbrMetallicRoughness": {
        "baseColorFactor": [
          1,
          1,
          1,
          1
        ],
        "metallicFactor": 0,
        "roughnessFactor": 1
      },
      "doubleSided": true,
      "extras": {
        "diffuseTexture": "Character/Common/Texture/CustomGradient_Hero_Clothes.png",
        "specularTexture": null,
        "normalMap": null
      }
    }
  ],
  "buffers": [
    {
      "uri": "Hair_Long_DoubleBun_02.bin",
      "byteLength": 138760
    }
  ],
  "bufferViews": [
    {
      "buffer": 0,
      "byteOffset": 0,
      "byteLength": 28164,
      "target": 34962
    },
    {
      "buffer": 0,
      "byteOffset": 28164,
      "byteLength": 28164,
      "target": 34962
    },
    {
      "buffer": 0,
      "byteOffset": 56328,
      "byteLength": 18776,
      "target": 34962
    },
    {
      "buffer": 0,
      "byteOffset": 75104,
      "byteLength": 18776,
      "target": 34962
    },
    {
      "buffer": 0,
      "byteOffset": 93880,
      "byteLength": 28164,
      "target": 34962
    },
    {
      "buffer": 0,
      "byteOffset": 122044,
      "byteLength": 16716,
      "target": 34963
    }
  ],
  "accessors": [
    {
      "bufferView": 0,
      "componentType": 5126,
      "count": 2347,
      "type": "VEC3",
      "min": [
        -0.27163177728652954,
        1.884078860282898,
        -0.10179667174816132
      ],
      "max": [
        0.27163177728652954,
        2.2704226970672607,
        0.26907142996788025
      ]
    },
    {
      "bufferView": 1,
      "componentType": 5126,
      "count": 2347,
      "type": "VEC3",
      "min": [
        -0.9999465942382812,
        -0.9996103048324585,
        -0.9950959086418152
      ],
      "max": [
        0.9999465942382812,
        0.9996566772460938,
        0.9974597096443176
      ]
    },
    {
      "bufferView": 2,
      "componentType": 5126,
      "count": 2347,
      "type": "VEC2",
      "min": [
        0.14248797297477722,
        -0.06503868103027344
      ],
      "max": [
        0.3560364246368408,
        0.876796543598175
      ]
    },
    {
      "bufferView": 3,
      "componentType": 5126,
      "count": 2347,
      "type": "VEC2",
      "min": [
        0.057261548936367035,
        0.007310628890991211
      ],
      "max": [
        0.8383970260620117,
        0.06255972385406494
      ]
    },
    {
      "bufferView": 4,
      "componentType": 5126,
      "count": 1760.25,
      "type": "VEC4",
      "min": [
        0,
        0,
        0,
        0
      ],
      "max": [
        1,
        1,
        1,
        1
      ]
    },
    {
      "bufferView": 5,
      "componentType": 5123,
      "count": 8358,
      "type": "SCALAR",
      "min": [
        0
      ],
      "max": [
        2346
      ]
    }
  ],
  "extras": {
    "manifest": "Hair_Long_DoubleBun_02.materials.json"
  }
}