{
  "asset": {
    "version": "2.0",
    "generator": "prefab-to-gltf"
  },
  "scene": 0,
  "scenes": [
    {
      "name": "Hair_Long_Wavy",
      "nodes": [
        0
      ]
    }
  ],
  "nodes": [
    {
      "name": "Hair_Long_Wavy",
      "translation": [
        0,
        0,
        0
      ],
      "rotation": [
        0,
        0,
        0,
        1
      ],
      "scale": [
        1,
        1,
        1
      ],
      "mesh": 0
    }
  ],
  "meshes": [
    {
      "name": "Hair_Long_Wavy",
      "primitives": [
        {
          "attributes": {
            "POSITION": 0,
            "NORMAL": 1,
            "TEXCOORD_0": 2,
            "TEXCOORD_1": 3
          },
          "indices": 4,
          "material": 0,
          "mode": 4
        }
      ]
    }
  ],
  "materials": [
    {
      "name": "GradMat_Body",
      "pbrMetallicRoughness": {
        "baseColorFactor": [
          1,
          1,
          1,
          1
        ],
        "metallicFactor": 0,
        "roughnessFactor": 1
      },
      "doubleSided": true,
      "extras": {
        "diffuseTexture": "Character/Common/Texture/CustomGradient_RobinHoof.png",
        "specularTexture": null,
        "normalMap": null
      }
    }
  ],
  "buffers": [
    {
      "uri": "Hair_Long_Wavy.bin",
      "byteLength": 95622
    }
  ],
  "bufferViews": [
    {
      "buffer": 0,
      "byteOffset": 0,
      "byteLength": 24552,
      "target": 34962
    },
    {
      "buffer": 0,
      "byteOffset": 24552,
      "byteLength": 24552,
      "target": 34962
    },
    {
      "buffer": 0,
      "byteOffset": 49104,
      "byteLength": 16368,
      "target": 34962
    },
    {
      "buffer": 0,
      "byteOffset": 65472,
      "byteLength": 16368,
      "target": 34962
    },
    {
      "buffer": 0,
      "byteOffset": 81840,
      "byteLength": 13782,
      "target": 34963
    }
  ],
  "accessors": [
    {
      "bufferView": 0,
      "componentType": 5126,
      "count": 2046,
      "type": "VEC3",
      "min": [
        -0.002509300597012043,
        -0.0025347149930894375,
        0.016880637034773827
      ],
      "max": [
        0.002211629180237651,
        0.002138535026460886,
        0.022062242031097412
      ]
    },
    {
      "bufferView": 1,
      "componentType": 5126,
      "count": 2046,
      "type": "VEC3",
      "min": [
        -0.9973292350769043,
        -0.9996793866157532,
        -0.9977805018424988
      ],
      "max": [
        0.9998442530632019,
        0.9983186721801758,
        0.9978920817375183
      ]
    },
    {
      "bufferView": 2,
      "componentType": 5126,
      "count": 2046,
      "type": "VEC2",
      "min": [
        0.1371985673904419,
        0.13944095373153687
      ],
      "max": [
        0.3703383505344391,
        0.83708655834198
      ]
    },
    {
      "bufferView": 3,
      "componentType": 5126,
      "count": 2046,
      "type": "VEC2",
      "min": [
        0.08890967071056366,
        0.0018877983093261719
      ],
      "max": [
        0.6804806590080261,
        0.04489260911941528
      ]
    },
    {
      "bufferView": 4,
      "componentType": 5123,
      "count": 6891,
      "type": "SCALAR",
      "min": [
        0
      ],
      "max": [
        2045
      ]
    }
  ],
  "extras": {
    "manifest": "Hair_Long_Wavy.materials.json"
  }
}