{
  "asset": {
    "version": "2.0",
    "generator": "prefab-to-gltf"
  },
  "scene": 0,
  "scenes": [
    {
      "name": "Hair_Long_DoubleBun_01",
      "nodes": [
        0
      ]
    }
  ],
  "nodes": [
    {
      "name": "Hair_Long_DoubleBun",
      "translation": [
        0,
        0,
        0
      ],
      "rotation": [
        0,
        0,
        0,
        1
      ],
      "scale": [
        1,
        1,
        1
      ],
      "mesh": 0
    }
  ],
  "meshes": [
    {
      "name": "Hair_Long_DoubleBun",
      "primitives": [
        {
          "attributes": {
            "POSITION": 0,
            "NORMAL": 1,
            "TEXCOORD_0": 2,
            "TEXCOORD_1": 3,
            "COLOR_0": 4
          },
          "indices": 5,
          "material": 0,
          "mode": 4
        }
      ]
    }
  ],
  "materials": [
    {
      "name": "Gradmat_Weapon",
      "pbrMetallicRoughness": {
        "baseColorFactor": [
          1,
          1,
          1,
          1
        ],
        "metallicFactor": 0,
        "roughnessFactor": 1
      },
      "doubleSided": true,
      "extras": {
        "diffuseTexture": "Character/Common/Texture/CustomGradient_Hero_Clothes.png",
        "specularTexture": null,
        "normalMap": null
      }
    }
  ],
  "buffers": [
    {
      "uri": "Hair_Long_DoubleBun_01.bin",
      "byteLength": 167582
    }
  ],
  "bufferViews": [
    {
      "buffer": 0,
      "byteOffset": 0,
      "byteLength": 34008,
      "target": 34962
    },
    {
      "buffer": 0,
      "byteOffset": 34008,
      "byteLength": 34008,
      "target": 34962
    },
    {
      "buffer": 0,
      "byteOffset": 68016,
      "byteLength": 22672,
      "target": 34962
    },
    {
      "buffer": 0,
      "byteOffset": 90688,
      "byteLength": 22672,
      "target": 34962
    },
    {
      "buffer": 0,
      "byteOffset": 113360,
      "byteLength": 34008,
      "target": 34962
    },
    {
      "buffer": 0,
      "byteOffset": 147368,
      "byteLength": 20214,
      "target": 34963
    }
  ],
  "accessors": [
    {
      "bufferView": 0,
      "componentType": 5126,
      "count": 2834,
      "type": "VEC3",
      "min": [
        -0.27163177728652954,
        1.8696178197860718,
        -0.10179667174816132
      ],
      "max": [
        0.27163177728652954,
        2.2704226970672607,
        0.30023300647735596
      ]
    },
    {
      "bufferView": 1,
      "componentType": 5126,
      "count": 2834,
      "type": "VEC3",
      "min": [
        -0.9999465942382812,
        -0.9964434504508972,
        -0.9949926137924194
      ],
      "max": [
        0.9999465942382812,
        0.999656617641449,
        0.9976809024810791
      ]
    },
    {
      "bufferView": 2,
      "componentType": 5126,
      "count": 2834,
      "type": "VEC2",
      "min": [
        0.14215609431266785,
        -0.06503868103027344
      ],
      "max": [
        0.359483003616333,
        0.876796543598175
      ]
    },
    {
      "bufferView": 3,
      "componentType": 5126,
      "count": 2834,
      "type": "VEC2",
      "min": [
        0.035046860575675964,
        0.00015801191329956055
      ],
      "max": [
        0.7047335505485535,
        0.9568244814872742
      ]
    },
    {
      "bufferView": 4,
      "componentType": 5126,
      "count": 2125.5,
      "type": "VEC4",
      "min": [
        0,
        0,
        0,
        0
      ],
      "max": [
        1,
        1,
        1,
        1
      ]
    },
    {
      "bufferView": 5,
      "componentType": 5123,
      "count": 10107,
      "type": "SCALAR",
      "min": [
        0
      ],
      "max": [
        2833
      ]
    }
  ],
  "extras": {
    "manifest": "Hair_Long_DoubleBun_01.materials.json"
  }
}