{
  "asset": {
    "version": "2.0",
    "generator": "prefab-to-gltf"
  },
  "scene": 0,
  "scenes": [
    {
      "name": "Hair_Long_PonyTail_01",
      "nodes": [
        0
      ]
    }
  ],
  "nodes": [
    {
      "name": "Hair_Long_PoneyTails_01",
      "translation": [
        0,
        0,
        0
      ],
      "rotation": [
        0,
        0,
        0,
        1
      ],
      "scale": [
        1,
        1,
        1
      ],
      "mesh": 0
    }
  ],
  "meshes": [
    {
      "name": "Hair_Long_PoneyTails_01",
      "primitives": [
        {
          "attributes": {
            "POSITION": 0,
            "NORMAL": 1,
            "TEXCOORD_0": 2,
            "TEXCOORD_1": 3,
            "COLOR_0": 4
          },
          "indices": 5,
          "material": 0,
          "mode": 4
        }
      ]
    }
  ],
  "materials": [
    {
      "name": "Gradmat_Weapon",
      "pbrMetallicRoughness": {
        "baseColorFactor": [
          1,
          1,
          1,
          1
        ],
        "metallicFactor": 0,
        "roughnessFactor": 1
      },
      "doubleSided": true,
      "extras": {
        "diffuseTexture": "Character/Common/Texture/CustomGradient_Hero_Clothes.png",
        "specularTexture": null,
        "normalMap": null
      }
    }
  ],
  "buffers": [
    {
      "uri": "Hair_Long_PonyTail_01.bin",
      "byteLength": 117804
    }
  ],
  "bufferViews": [
    {
      "buffer": 0,
      "byteOffset": 0,
      "byteLength": 24192,
      "target": 34962
    },
    {
      "buffer": 0,
      "byteOffset": 24192,
      "byteLength": 24192,
      "target": 34962
    },
    {
      "buffer": 0,
      "byteOffset": 48384,
      "byteLength": 16128,
      "target": 34962
    },
    {
      "buffer": 0,
      "byteOffset": 64512,
      "byteLength": 16128,
      "target": 34962
    },
    {
      "buffer": 0,
      "byteOffset": 80640,
      "byteLength": 24192,
      "target": 34962
    },
    {
      "buffer": 0,
      "byteOffset": 104832,
      "byteLength": 12972,
      "target": 34963
    }
  ],
  "accessors": [
    {
      "bufferView": 0,
      "componentType": 5126,
      "count": 2016,
      "type": "VEC3",
      "min": [
        -0.16611970961093903,
        1.715928316116333,
        -0.40720149874687195
      ],
      "max": [
        0.1590924859046936,
        2.268341541290283,
        0.22624735534191132
      ]
    },
    {
      "bufferView": 1,
      "componentType": 5126,
      "count": 2016,
      "type": "VEC3",
      "min": [
        -0.99928218126297,
        -0.9961522221565247,
        -0.9996322989463806
      ],
      "max": [
        0.9998895525932312,
        0.9977240562438965,
        0.9954559206962585
      ]
    },
    {
      "bufferView": 2,
      "componentType": 5126,
      "count": 2016,
      "type": "VEC2",
      "min": [
        0.13191917538642883,
        0.02160489559173584
      ],
      "max": [
        0.4578120708465576,
        0.8672561049461365
      ]
    },
    {
      "bufferView": 3,
      "componentType": 5126,
      "count": 2016,
      "type": "VEC2",
      "min": [
        0.07545009255409241,
        0.012639403343200684
      ],
      "max": [
        0.6437488794326782,
        0.9556209444999695
      ]
    },
    {
      "bufferView": 4,
      "componentType": 5126,
      "count": 1512,
      "type": "VEC4",
      "min": [
        0,
        0,
        0,
        0
      ],
      "max": [
        0.9999715685844421,
        0.9999715685844421,
        0.9999715685844421,
        0.9999715685844421
      ]
    },
    {
      "bufferView": 5,
      "componentType": 5123,
      "count": 6486,
      "type": "SCALAR",
      "min": [
        0
      ],
      "max": [
        2015
      ]
    }
  ],
  "extras": {
    "manifest": "Hair_Long_PonyTail_01.materials.json"
  }
}