{
  "asset": {
    "version": "2.0",
    "generator": "prefab-to-gltf"
  },
  "scene": 0,
  "scenes": [
    {
      "name": "Hair_Long_UnderGear",
      "nodes": [
        0
      ]
    }
  ],
  "nodes": [
    {
      "name": "Hair_Long_UnderGear",
      "translation": [
        0,
        0,
        0
      ],
      "rotation": [
        0,
        0,
        0,
        1
      ],
      "scale": [
        1,
        1,
        1
      ],
      "mesh": 0
    }
  ],
  "meshes": [
    {
      "name": "Hair_Long_UnderGear",
      "primitives": [
        {
          "attributes": {
            "POSITION": 0,
            "NORMAL": 1,
            "TEXCOORD_0": 2,
            "TEXCOORD_1": 3
          },
          "indices": 4,
          "material": 0,
          "mode": 4
        }
      ]
    }
  ],
  "materials": [
    {
      "name": "Gradmat_Weapon",
      "pbrMetallicRoughness": {
        "baseColorFactor": [
          1,
          1,
          1,
          1
        ],
        "metallicFactor": 0,
        "roughnessFactor": 1
      },
      "doubleSided": true,
      "extras": {
        "diffuseTexture": "Character/Common/Texture/CustomGradient_Hero_Clothes.png",
        "specularTexture": null,
        "normalMap": null
      }
    }
  ],
  "buffers": [
    {
      "uri": "Hair_Long_UnderGear.bin",
      "byteLength": 21244
    }
  ],
  "bufferViews": [
    {
      "buffer": 0,
      "byteOffset": 0,
      "byteLength": 5268,
      "target": 34962
    },
    {
      "buffer": 0,
      "byteOffset": 5268,
      "byteLength": 5268,
      "target": 34962
    },
    {
      "buffer": 0,
      "byteOffset": 10536,
      "byteLength": 3512,
      "target": 34962
    },
    {
      "buffer": 0,
      "byteOffset": 14048,
      "byteLength": 3512,
      "target": 34962
    },
    {
      "buffer": 0,
      "byteOffset": 17560,
      "byteLength": 3684,
      "target": 34963
    }
  ],
  "accessors": [
    {
      "bufferView": 0,
      "componentType": 5126,
      "count": 439,
      "type": "VEC3",
      "min": [
        -0.1400895118713379,
        1.8308643102645874,
        -0.08136465400457382
      ],
      "max": [
        0.14111916720867157,
        2.1025731563568115,
        0.12804602086544037
      ]
    },
    {
      "bufferView": 1,
      "componentType": 5126,
      "count": 439,
      "type": "VEC3",
      "min": [
        -0.9989592432975769,
        -0.9998002052307129,
        -0.9973430633544922
      ],
      "max": [
        0.9988360404968262,
        0.7229090929031372,
        0.9985575675964355
      ]
    },
    {
      "bufferView": 2,
      "componentType": 5126,
      "count": 439,
      "type": "VEC2",
      "min": [
        0.14048592746257782,
        0.3024910092353821
      ],
      "max": [
        0.2173829972743988,
        0.8290406465530396
      ]
    },
    {
      "bufferView": 3,
      "componentType": 5126,
      "count": 439,
      "type": "VEC2",
      "min": [
        0.062243834137916565,
        0.9750305414199829
      ],
      "max": [
        0.06224394589662552,
        0.9750305414199829
      ]
    },
    {
      "bufferView": 4,
      "componentType": 5123,
      "count": 1842,
      "type": "SCALAR",
      "min": [
        0
      ],
      "max": [
        438
      ]
    }
  ],
  "extras": {
    "manifest": "Hair_Long_UnderGear.materials.json"
  }
}