{
  "asset": {
    "version": "2.0",
    "generator": "prefab-to-gltf"
  },
  "scene": 0,
  "scenes": [
    {
      "name": "Hair_Long_PonyTail_02",
      "nodes": [
        0
      ]
    }
  ],
  "nodes": [
    {
      "name": "Hair_Long_PoneyTails_02",
      "translation": [
        0,
        0,
        0
      ],
      "rotation": [
        0,
        0,
        0,
        1
      ],
      "scale": [
        1,
        1,
        1
      ],
      "mesh": 0
    }
  ],
  "meshes": [
    {
      "name": "Hair_Long_PoneyTails_02",
      "primitives": [
        {
          "attributes": {
            "POSITION": 0,
            "NORMAL": 1,
            "TEXCOORD_0": 2,
            "TEXCOORD_1": 3,
            "COLOR_0": 4
          },
          "indices": 5,
          "material": 0,
          "mode": 4
        }
      ]
    }
  ],
  "materials": [
    {
      "name": "Gradmat_Weapon",
      "pbrMetallicRoughness": {
        "baseColorFactor": [
          1,
          1,
          1,
          1
        ],
        "metallicFactor": 0,
        "roughnessFactor": 1
      },
      "doubleSided": true,
      "extras": {
        "diffuseTexture": "Character/Common/Texture/CustomGradient_Hero_Clothes.png",
        "specularTexture": null,
        "normalMap": null
      }
    }
  ],
  "buffers": [
    {
      "uri": "Hair_Long_PonyTail_02.bin",
      "byteLength": 152358
    }
  ],
  "bufferViews": [
    {
      "buffer": 0,
      "byteOffset": 0,
      "byteLength": 31212,
      "target": 34962
    },
    {
      "buffer": 0,
      "byteOffset": 31212,
      "byteLength": 31212,
      "target": 34962
    },
    {
      "buffer": 0,
      "byteOffset": 62424,
      "byteLength": 20808,
      "target": 34962
    },
    {
      "buffer": 0,
      "byteOffset": 83232,
      "byteLength": 20808,
      "target": 34962
    },
    {
      "buffer": 0,
      "byteOffset": 104040,
      "byteLength": 31212,
      "target": 34962
    },
    {
      "buffer": 0,
      "byteOffset": 135252,
      "byteLength": 17106,
      "target": 34963
    }
  ],
  "accessors": [
    {
      "bufferView": 0,
      "componentType": 5126,
      "count": 2601,
      "type": "VEC3",
      "min": [
        -0.16611970961093903,
        1.715928316116333,
        -0.40720149874687195
      ],
      "max": [
        0.16500146687030792,
        2.268341541290283,
        0.31937921047210693
      ]
    },
    {
      "bufferView": 1,
      "componentType": 5126,
      "count": 2601,
      "type": "VEC3",
      "min": [
        -0.99928218126297,
        -0.9961522221565247,
        -0.9996323585510254
      ],
      "max": [
        0.9998894929885864,
        0.9977239966392517,
        0.9954559206962585
      ]
    },
    {
      "bufferView": 2,
      "componentType": 5126,
      "count": 2601,
      "type": "VEC2",
      "min": [
        0.13191917538642883,
        0.02160489559173584
      ],
      "max": [
        0.4578120708465576,
        0.8672561049461365
      ]
    },
    {
      "bufferView": 3,
      "componentType": 5126,
      "count": 2601,
      "type": "VEC2",
      "min": [
        0.0640624463558197,
        0.00863581895828247
      ],
      "max": [
        0.6437488794326782,
        0.9673718810081482
      ]
    },
    {
      "bufferView": 4,
      "componentType": 5126,
      "count": 1950.75,
      "type": "VEC4",
      "min": [
        0,
        0,
        0,
        0
      ],
      "max": [
        0.9999715685844421,
        0.9999715685844421,
        0.9999715685844421,
        0.9999715685844421
      ]
    },
    {
      "bufferView": 5,
      "componentType": 5123,
      "count": 8553,
      "type": "SCALAR",
      "min": [
        0
      ],
      "max": [
        2600
      ]
    }
  ],
  "extras": {
    "manifest": "Hair_Long_PonyTail_02.materials.json"
  }
}