{
  "asset": {
    "version": "2.0",
    "generator": "prefab-to-gltf"
  },
  "scene": 0,
  "scenes": [
    {
      "name": "Hair_Long_SideTail",
      "nodes": [
        0
      ]
    }
  ],
  "nodes": [
    {
      "name": "Hair_Long_SideTail",
      "translation": [
        0,
        0,
        0
      ],
      "rotation": [
        0,
        0,
        0,
        1
      ],
      "scale": [
        1,
        1,
        1
      ],
      "mesh": 0
    }
  ],
  "meshes": [
    {
      "name": "Hair_Long_SideTail",
      "primitives": [
        {
          "attributes": {
            "POSITION": 0,
            "NORMAL": 1,
            "TEXCOORD_0": 2,
            "TEXCOORD_1": 3,
            "COLOR_0": 4
          },
          "indices": 5,
          "material": 0,
          "mode": 4
        }
      ]
    }
  ],
  "materials": [
    {
      "name": "GradMat_Body",
      "pbrMetallicRoughness": {
        "baseColorFactor": [
          1,
          1,
          1,
          1
        ],
        "metallicFactor": 0,
        "roughnessFactor": 1
      },
      "doubleSided": true,
      "extras": {
        "diffuseTexture": "Character/Common/Texture/CustomGradient_RobinHoof.png",
        "specularTexture": null,
        "normalMap": null
      }
    }
  ],
  "buffers": [
    {
      "uri": "Hair_Long_SideTail.bin",
      "byteLength": 108766
    }
  ],
  "bufferViews": [
    {
      "buffer": 0,
      "byteOffset": 0,
      "byteLength": 21900,
      "target": 34962
    },
    {
      "buffer": 0,
      "byteOffset": 21900,
      "byteLength": 21900,
      "target": 34962
    },
    {
      "buffer": 0,
      "byteOffset": 43800,
      "byteLength": 14600,
      "target": 34962
    },
    {
      "buffer": 0,
      "byteOffset": 58400,
      "byteLength": 14600,
      "target": 34962
    },
    {
      "buffer": 0,
      "byteOffset": 73000,
      "byteLength": 21900,
      "target": 34962
    },
    {
      "buffer": 0,
      "byteOffset": 94900,
      "byteLength": 13866,
      "target": 34963
    }
  ],
  "accessors": [
    {
      "bufferView": 0,
      "componentType": 5126,
      "count": 1825,
      "type": "VEC3",
      "min": [
        -0.0018133851699531078,
        0.014447450637817383,
        -0.0018026256002485752
      ],
      "max": [
        0.002861239016056061,
        0.020381886512041092,
        0.002693276619538665
      ]
    },
    {
      "bufferView": 1,
      "componentType": 5126,
      "count": 1825,
      "type": "VEC3",
      "min": [
        -0.9994693398475647,
        -0.9997177124023438,
        -0.9999039173126221
      ],
      "max": [
        0.9994595050811768,
        0.999437689781189,
        0.9999474287033081
      ]
    },
    {
      "bufferView": 2,
      "componentType": 5126,
      "count": 1825,
      "type": "VEC2",
      "min": [
        0.13953369855880737,
        0.0016666650772094727
      ],
      "max": [
        0.46520209312438965,
        0.8163518309593201
      ]
    },
    {
      "bufferView": 3,
      "componentType": 5126,
      "count": 1825,
      "type": "VEC2",
      "min": [
        0.016642052680253983,
        0.03506821393966675
      ],
      "max": [
        0.614242434501648,
        0.9703875780105591
      ]
    },
    {
      "bufferView": 4,
      "componentType": 5126,
      "count": 1368.75,
      "type": "VEC4",
      "min": [
        0,
        0,
        0,
        0
      ],
      "max": [
        1,
        1,
        1,
        1
      ]
    },
    {
      "bufferView": 5,
      "componentType": 5123,
      "count": 6933,
      "type": "SCALAR",
      "min": [
        0
      ],
      "max": [
        1824
      ]
    }
  ],
  "extras": {
    "manifest": "Hair_Long_SideTail.materials.json"
  }
}