{
  "asset": {
    "version": "2.0",
    "generator": "prefab-to-gltf"
  },
  "scene": 0,
  "scenes": [
    {
      "name": "Hair_Long_Dread_01",
      "nodes": [
        0
      ]
    }
  ],
  "nodes": [
    {
      "name": "Hair_Long_Dread_01",
      "translation": [
        0,
        0,
        0
      ],
      "rotation": [
        0,
        0,
        0,
        1
      ],
      "scale": [
        1,
        1,
        1
      ],
      "mesh": 0
    }
  ],
  "meshes": [
    {
      "name": "Hair_Long_Dread_01",
      "primitives": [
        {
          "attributes": {
            "POSITION": 0,
            "NORMAL": 1,
            "TEXCOORD_0": 2,
            "TEXCOORD_1": 3
          },
          "indices": 4,
          "material": 0,
          "mode": 4
        }
      ]
    }
  ],
  "materials": [
    {
      "name": "GradMat_Body",
      "pbrMetallicRoughness": {
        "baseColorFactor": [
          1,
          1,
          1,
          1
        ],
        "metallicFactor": 0,
        "roughnessFactor": 1
      },
      "doubleSided": true,
      "extras": {
        "diffuseTexture": "Character/Common/Texture/CustomGradient_BasicGuy.png",
        "specularTexture": null,
        "normalMap": null
      }
    }
  ],
  "buffers": [
    {
      "uri": "Hair_Long_Dread_01.bin",
      "byteLength": 92250
    }
  ],
  "bufferViews": [
    {
      "buffer": 0,
      "byteOffset": 0,
      "byteLength": 22104,
      "target": 34962
    },
    {
      "buffer": 0,
      "byteOffset": 22104,
      "byteLength": 22104,
      "target": 34962
    },
    {
      "buffer": 0,
      "byteOffset": 44208,
      "byteLength": 14736,
      "target": 34962
    },
    {
      "buffer": 0,
      "byteOffset": 58944,
      "byteLength": 14736,
      "target": 34962
    },
    {
      "buffer": 0,
      "byteOffset": 73680,
      "byteLength": 18570,
      "target": 34963
    }
  ],
  "accessors": [
    {
      "bufferView": 0,
      "componentType": 5126,
      "count": 1842,
      "type": "VEC3",
      "min": [
        -0.1809612512588501,
        1.7032893896102905,
        -0.31664687395095825
      ],
      "max": [
        0.19018636643886566,
        2.1988964080810547,
        0.2537885904312134
      ]
    },
    {
      "bufferView": 1,
      "componentType": 5126,
      "count": 1842,
      "type": "VEC3",
      "min": [
        -0.9999291300773621,
        -0.9991353154182434,
        -0.999052107334137
      ],
      "max": [
        0.999976396560669,
        0.9997334480285645,
        0.9994601011276245
      ]
    },
    {
      "bufferView": 2,
      "componentType": 5126,
      "count": 1842,
      "type": "VEC2",
      "min": [
        0.14701227843761444,
        0.12709707021713257
      ],
      "max": [
        0.46869754791259766,
        0.8668023943901062
      ]
    },
    {
      "bufferView": 3,
      "componentType": 5126,
      "count": 1842,
      "type": "VEC2",
      "min": [
        0.04646784067153931,
        0.5514041185379028
      ],
      "max": [
        0.8620240688323975,
        0.9337849020957947
      ]
    },
    {
      "bufferView": 4,
      "componentType": 5123,
      "count": 9285,
      "type": "SCALAR",
      "min": [
        0
      ],
      "max": [
        1841
      ]
    }
  ],
  "extras": {
    "manifest": "Hair_Long_Dread_01.materials.json"
  }
}