{
  "asset": {
    "version": "2.0",
    "generator": "prefab-to-gltf"
  },
  "scene": 0,
  "scenes": [
    {
      "name": "Hair_Long_DoublePoneyTail_01",
      "nodes": [
        0
      ]
    }
  ],
  "nodes": [
    {
      "name": "Hair_Long_DoublePoneyTail_01",
      "translation": [
        0,
        0,
        0
      ],
      "rotation": [
        0,
        0,
        0,
        1
      ],
      "scale": [
        1,
        1,
        1
      ],
      "mesh": 0
    }
  ],
  "meshes": [
    {
      "name": "Hair_Long_DoublePoneyTail_01",
      "primitives": [
        {
          "attributes": {
            "POSITION": 0,
            "NORMAL": 1,
            "TEXCOORD_0": 2,
            "TEXCOORD_1": 3
          },
          "indices": 4,
          "material": 0,
          "mode": 4
        }
      ]
    }
  ],
  "materials": [
    {
      "name": "Gradmat_Weapon",
      "pbrMetallicRoughness": {
        "baseColorFactor": [
          1,
          1,
          1,
          1
        ],
        "metallicFactor": 0,
        "roughnessFactor": 1
      },
      "doubleSided": true,
      "extras": {
        "diffuseTexture": "Character/Common/Texture/CustomGradient_Hero_Clothes.png",
        "specularTexture": null,
        "normalMap": null
      }
    }
  ],
  "buffers": [
    {
      "uri": "Hair_Long_DoublePoneyTail_01.bin",
      "byteLength": 102158
    }
  ],
  "bufferViews": [
    {
      "buffer": 0,
      "byteOffset": 0,
      "byteLength": 26448,
      "target": 34962
    },
    {
      "buffer": 0,
      "byteOffset": 26448,
      "byteLength": 26448,
      "target": 34962
    },
    {
      "buffer": 0,
      "byteOffset": 52896,
      "byteLength": 17632,
      "target": 34962
    },
    {
      "buffer": 0,
      "byteOffset": 70528,
      "byteLength": 17632,
      "target": 34962
    },
    {
      "buffer": 0,
      "byteOffset": 88160,
      "byteLength": 13998,
      "target": 34963
    }
  ],
  "accessors": [
    {
      "bufferView": 0,
      "componentType": 5126,
      "count": 2204,
      "type": "VEC3",
      "min": [
        -0.2436341643333435,
        1.5957331657409668,
        -0.3077499270439148
      ],
      "max": [
        0.2436341643333435,
        2.2003438472747803,
        0.2674691379070282
      ]
    },
    {
      "bufferView": 1,
      "componentType": 5126,
      "count": 2204,
      "type": "VEC3",
      "min": [
        -0.9993894696235657,
        -0.994797945022583,
        -0.993444561958313
      ],
      "max": [
        0.9993894696235657,
        0.9981910586357117,
        0.9960598349571228
      ]
    },
    {
      "bufferView": 2,
      "componentType": 5126,
      "count": 2204,
      "type": "VEC2",
      "min": [
        0.14530014991760254,
        0.24101513624191284
      ],
      "max": [
        0.4422767162322998,
        0.8367092609405518
      ]
    },
    {
      "bufferView": 3,
      "componentType": 5126,
      "count": 2204,
      "type": "VEC2",
      "min": [
        0.04348656162619591,
        0.01818370819091797
      ],
      "max": [
        0.6005760431289673,
        0.9514005780220032
      ]
    },
    {
      "bufferView": 4,
      "componentType": 5123,
      "count": 6999,
      "type": "SCALAR",
      "min": [
        0
      ],
      "max": [
        2203
      ]
    }
  ],
  "extras": {
    "manifest": "Hair_Long_DoublePoneyTail_01.materials.json"
  }
}