{
  "asset": {
    "version": "2.0",
    "generator": "prefab-to-gltf"
  },
  "scene": 0,
  "scenes": [
    {
      "name": "Pork_MountSkunk_04",
      "nodes": [
        0
      ]
    }
  ],
  "nodes": [
    {
      "name": "Pork_MountSkunk",
      "translation": [
        0,
        0,
        0
      ],
      "rotation": [
        0,
        0,
        0,
        1
      ],
      "scale": [
        1,
        1,
        1
      ],
      "mesh": 0
    }
  ],
  "meshes": [
    {
      "name": "Pork_MountSkunk",
      "primitives": [
        {
          "attributes": {
            "POSITION": 0,
            "NORMAL": 1,
            "TEXCOORD_0": 2,
            "TEXCOORD_1": 3,
            "COLOR_0": 4
          },
          "indices": 5,
          "material": 0,
          "mode": 4
        }
      ]
    }
  ],
  "materials": [
    {
      "name": "standardSurface1",
      "pbrMetallicRoughness": {
        "baseColorFactor": [
          1,
          1,
          1,
          1
        ],
        "metallicFactor": 0,
        "roughnessFactor": 1
      },
      "doubleSided": true,
      "extras": {
        "diffuseTexture": null,
        "specularTexture": null,
        "normalMap": null
      }
    }
  ],
  "buffers": [
    {
      "uri": "Pork_MountSkunk_04.bin",
      "byteLength": 739402
    }
  ],
  "bufferViews": [
    {
      "buffer": 0,
      "byteOffset": 0,
      "byteLength": 151392,
      "target": 34962
    },
    {
      "buffer": 0,
      "byteOffset": 151392,
      "byteLength": 151392,
      "target": 34962
    },
    {
      "buffer": 0,
      "byteOffset": 302784,
      "byteLength": 100928,
      "target": 34962
    },
    {
      "buffer": 0,
      "byteOffset": 403712,
      "byteLength": 100928,
      "target": 34962
    },
    {
      "buffer": 0,
      "byteOffset": 504640,
      "byteLength": 151392,
      "target": 34962
    },
    {
      "buffer": 0,
      "byteOffset": 656032,
      "byteLength": 83370,
      "target": 34963
    }
  ],
  "accessors": [
    {
      "bufferView": 0,
      "componentType": 5126,
      "count": 12616,
      "type": "VEC3",
      "min": [
        -0.8975110650062561,
        -0.021152425557374954,
        -2.1053645610809326
      ],
      "max": [
        0.9009983539581299,
        2.416008710861206,
        2.186203956604004
      ]
    },
    {
      "bufferView": 1,
      "componentType": 5126,
      "count": 12616,
      "type": "VEC3",
      "min": [
        -0.9998982548713684,
        -0.9999707937240601,
        -0.9997895359992981
      ],
      "max": [
        0.9998982548713684,
        0.9999995827674866,
        0.9998880624771118
      ]
    },
    {
      "bufferView": 2,
      "componentType": 5126,
      "count": 12616,
      "type": "VEC2",
      "min": [
        0.009763100184500217,
        0.061267733573913574
      ],
      "max": [
        0.9039907455444336,
        0.9877899885177612
      ]
    },
    {
      "bufferView": 3,
      "componentType": 5126,
      "count": 12616,
      "type": "VEC2",
      "min": [
        0.03808344528079033,
        0.10786867141723633
      ],
      "max": [
        0.9450502395629883,
        0.9615513682365417
      ]
    },
    {
      "bufferView": 4,
      "componentType": 5126,
      "count": 9462,
      "type": "VEC4",
      "min": [
        0,
        0,
        0,
        0
      ],
      "max": [
        1,
        1,
        1,
        1
      ]
    },
    {
      "bufferView": 5,
      "componentType": 5123,
      "count": 41685,
      "type": "SCALAR",
      "min": [
        0
      ],
      "max": [
        12615
      ]
    }
  ],
  "extras": {
    "manifest": "Pork_MountSkunk_04.materials.json"
  }
}