{
  "asset": {
    "version": "2.0",
    "generator": "prefab-to-gltf"
  },
  "scene": 0,
  "scenes": [
    {
      "name": "Pork_MountBoar_02",
      "nodes": [
        0
      ]
    }
  ],
  "nodes": [
    {
      "name": "Pork_MountBoar",
      "translation": [
        0,
        0,
        0
      ],
      "rotation": [
        0,
        0,
        0,
        1
      ],
      "scale": [
        1,
        1,
        1
      ],
      "mesh": 0
    }
  ],
  "meshes": [
    {
      "name": "Pork_MountBoar",
      "primitives": [
        {
          "attributes": {
            "POSITION": 0,
            "NORMAL": 1,
            "TEXCOORD_0": 2,
            "TEXCOORD_1": 3,
            "COLOR_0": 4
          },
          "indices": 5,
          "material": 0,
          "mode": 4
        },
        {
          "attributes": {
            "POSITION": 6,
            "NORMAL": 7,
            "TEXCOORD_0": 8,
            "TEXCOORD_1": 9,
            "COLOR_0": 10
          },
          "indices": 11,
          "material": 1,
          "mode": 4
        }
      ]
    }
  ],
  "materials": [
    {
      "name": "GradMat_Saddle",
      "pbrMetallicRoughness": {
        "baseColorFactor": [
          1,
          1,
          1,
          1
        ],
        "metallicFactor": 0,
        "roughnessFactor": 1
      },
      "doubleSided": true,
      "extras": {
        "diffuseTexture": "Character/Common/Texture/CustomGradient_Hero_Clothes.png",
        "specularTexture": null,
        "normalMap": null
      }
    },
    {
      "name": "Gradmat_Body",
      "pbrMetallicRoughness": {
        "baseColorFactor": [
          1,
          1,
          1,
          1
        ],
        "metallicFactor": 0,
        "roughnessFactor": 1
      },
      "doubleSided": true,
      "extras": {
        "diffuseTexture": "Character/Common/Texture/CustomGradient_WeaponALL.png",
        "specularTexture": null,
        "normalMap": null
      }
    }
  ],
  "buffers": [
    {
      "uri": "Pork_MountBoar_02.bin",
      "byteLength": 1329460
    }
  ],
  "bufferViews": [
    {
      "buffer": 0,
      "byteOffset": 0,
      "byteLength": 143736,
      "target": 34962
    },
    {
      "buffer": 0,
      "byteOffset": 143736,
      "byteLength": 143736,
      "target": 34962
    },
    {
      "buffer": 0,
      "byteOffset": 287472,
      "byteLength": 95824,
      "target": 34962
    },
    {
      "buffer": 0,
      "byteOffset": 383296,
      "byteLength": 95824,
      "target": 34962
    },
    {
      "buffer": 0,
      "byteOffset": 479120,
      "byteLength": 143736,
      "target": 34962
    },
    {
      "buffer": 0,
      "byteOffset": 622856,
      "byteLength": 41328,
      "target": 34963
    },
    {
      "buffer": 0,
      "byteOffset": 664184,
      "byteLength": 143736,
      "target": 34962
    },
    {
      "buffer": 0,
      "byteOffset": 807920,
      "byteLength": 143736,
      "target": 34962
    },
    {
      "buffer": 0,
      "byteOffset": 951656,
      "byteLength": 95824,
      "target": 34962
    },
    {
      "buffer": 0,
      "byteOffset": 1047480,
      "byteLength": 95824,
      "target": 34962
    },
    {
      "buffer": 0,
      "byteOffset": 1143304,
      "byteLength": 143736,
      "target": 34962
    },
    {
      "buffer": 0,
      "byteOffset": 1287040,
      "byteLength": 42420,
      "target": 34963
    }
  ],
  "accessors": [
    {
      "bufferView": 0,
      "componentType": 5126,
      "count": 11978,
      "type": "VEC3",
      "min": [
        -0.8923746347427368,
        -0.003978312015533447,
        -1.734756350517273
      ],
      "max": [
        0.8923746347427368,
        2.7809414863586426,
        2.6233527660369873
      ]
    },
    {
      "bufferView": 1,
      "componentType": 5126,
      "count": 11978,
      "type": "VEC3",
      "min": [
        -0.99982750415802,
        -1,
        -0.9999969601631165
      ],
      "max": [
        0.9999157786369324,
        0.9999988675117493,
        0.9996299743652344
      ]
    },
    {
      "bufferView": 2,
      "componentType": 5126,
      "count": 11978,
      "type": "VEC2",
      "min": [
        0.0035726837813854218,
        0.061267733573913574
      ],
      "max": [
        0.9885122776031494,
        0.9877899885177612
      ]
    },
    {
      "bufferView": 3,
      "componentType": 5126,
      "count": 11978,
      "type": "VEC2",
      "min": [
        0.03759303689002991,
        0.11104053258895874
      ],
      "max": [
        0.9450502395629883,
        0.9786768555641174
      ]
    },
    {
      "bufferView": 4,
      "componentType": 5126,
      "count": 8983.5,
      "type": "VEC4",
      "min": [
        0,
        0,
        0,
        0
      ],
      "max": [
        1,
        1,
        1,
        1
      ]
    },
    {
      "bufferView": 5,
      "componentType": 5123,
      "count": 20664,
      "type": "SCALAR",
      "min": [
        0
      ],
      "max": [
        11977
      ]
    },
    {
      "bufferView": 6,
      "componentType": 5126,
      "count": 11978,
      "type": "VEC3",
      "min": [
        -0.8923746347427368,
        -0.003978312015533447,
        -1.734756350517273
      ],
      "max": [
        0.8923746347427368,
        2.7809414863586426,
        2.6233527660369873
      ]
    },
    {
      "bufferView": 7,
      "componentType": 5126,
      "count": 11978,
      "type": "VEC3",
      "min": [
        -0.99982750415802,
        -1,
        -0.9999969601631165
      ],
      "max": [
        0.9999157786369324,
        0.9999988675117493,
        0.9996299743652344
      ]
    },
    {
      "bufferView": 8,
      "componentType": 5126,
      "count": 11978,
      "type": "VEC2",
      "min": [
        0.0035726837813854218,
        0.061267733573913574
      ],
      "max": [
        0.9885122776031494,
        0.9877899885177612
      ]
    },
    {
      "bufferView": 9,
      "componentType": 5126,
      "count": 11978,
      "type": "VEC2",
      "min": [
        0.03759303689002991,
        0.11104053258895874
      ],
      "max": [
        0.9450502395629883,
        0.9786768555641174
      ]
    },
    {
      "bufferView": 10,
      "componentType": 5126,
      "count": 8983.5,
      "type": "VEC4",
      "min": [
        0,
        0,
        0,
        0
      ],
      "max": [
        1,
        1,
        1,
        1
      ]
    },
    {
      "bufferView": 11,
      "componentType": 5123,
      "count": 21210,
      "type": "SCALAR",
      "min": [
        0
      ],
      "max": [
        11223
      ]
    }
  ],
  "extras": {
    "manifest": "Pork_MountBoar_02.materials.json"
  }
}