{
  "asset": {
    "version": "2.0",
    "generator": "prefab-to-gltf"
  },
  "scene": 0,
  "scenes": [
    {
      "name": "Shield_Kobold",
      "nodes": [
        0
      ]
    }
  ],
  "nodes": [
    {
      "name": "Shield_Kobold",
      "translation": [
        0,
        0,
        0
      ],
      "rotation": [
        0,
        0,
        0.7071056365966797,
        0.7071079257745626
      ],
      "scale": [
        1,
        1,
        1
      ],
      "mesh": 0
    }
  ],
  "meshes": [
    {
      "name": "Shield_Kobold",
      "primitives": [
        {
          "attributes": {
            "POSITION": 0,
            "NORMAL": 1,
            "TEXCOORD_0": 2,
            "TEXCOORD_1": 3
          },
          "indices": 4,
          "material": 0,
          "mode": 4
        }
      ]
    }
  ],
  "materials": [
    {
      "name": "MatSlots_WEAPONS_001",
      "pbrMetallicRoughness": {
        "baseColorFactor": [
          1,
          1,
          1,
          1
        ],
        "metallicFactor": 0,
        "roughnessFactor": 1
      },
      "doubleSided": true,
      "extras": {
        "diffuseTexture": null,
        "specularTexture": null,
        "normalMap": null
      }
    },
    {
      "name": "Outline_001",
      "pbrMetallicRoughness": {
        "baseColorFactor": [
          1,
          1,
          1,
          1
        ],
        "metallicFactor": 0,
        "roughnessFactor": 1
      },
      "doubleSided": true,
      "extras": {
        "diffuseTexture": null,
        "specularTexture": null,
        "normalMap": null
      }
    }
  ],
  "buffers": [
    {
      "uri": "Shield_Kobold.bin",
      "byteLength": 42500
    }
  ],
  "bufferViews": [
    {
      "buffer": 0,
      "byteOffset": 0,
      "byteLength": 10860,
      "target": 34962
    },
    {
      "buffer": 0,
      "byteOffset": 10860,
      "byteLength": 10860,
      "target": 34962
    },
    {
      "buffer": 0,
      "byteOffset": 21720,
      "byteLength": 7240,
      "target": 34962
    },
    {
      "buffer": 0,
      "byteOffset": 28960,
      "byteLength": 7240,
      "target": 34962
    },
    {
      "buffer": 0,
      "byteOffset": 36200,
      "byteLength": 6300,
      "target": 34963
    }
  ],
  "accessors": [
    {
      "bufferView": 0,
      "componentType": 5126,
      "count": 905,
      "type": "VEC3",
      "min": [
        -0.18119552731513977,
        -0.4406866133213043,
        -0.442120760679245
      ],
      "max": [
        0.15763644874095917,
        0.43531808257102966,
        0.44175001978874207
      ]
    },
    {
      "bufferView": 1,
      "componentType": 5126,
      "count": 905,
      "type": "VEC3",
      "min": [
        -1,
        -0.9998519420623779,
        -0.9996282458305359
      ],
      "max": [
        1,
        0.9998821020126343,
        0.999273419380188
      ]
    },
    {
      "bufferView": 2,
      "componentType": 5126,
      "count": 905,
      "type": "VEC2",
      "min": [
        0.025264691561460495,
        0.2764075994491577
      ],
      "max": [
        0.3199581205844879,
        0.8503744602203369
      ]
    },
    {
      "bufferView": 3,
      "componentType": 5126,
      "count": 905,
      "type": "VEC2",
      "min": [
        0,
        0.13612401485443115
      ],
      "max": [
        0.991698145866394,
        1
      ]
    },
    {
      "bufferView": 4,
      "componentType": 5123,
      "count": 3150,
      "type": "SCALAR",
      "min": [
        0
      ],
      "max": [
        904
      ]
    }
  ],
  "extras": {
    "manifest": "Shield_Kobold.materials.json"
  }
}