{
  "asset": {
    "version": "2.0",
    "generator": "prefab-to-gltf"
  },
  "scene": 0,
  "scenes": [
    {
      "name": "Relic_Manfish_CrystalBall_01",
      "nodes": [
        0
      ]
    }
  ],
  "nodes": [
    {
      "name": "Relic_Manfish_CrystalBall_01",
      "translation": [
        0,
        0,
        0
      ],
      "rotation": [
        0,
        0,
        0,
        1
      ],
      "scale": [
        1,
        1,
        1
      ],
      "mesh": 0
    }
  ],
  "meshes": [
    {
      "name": "Relic_Manfish_CrystalBall_01",
      "primitives": [
        {
          "attributes": {
            "POSITION": 0,
            "NORMAL": 1,
            "TEXCOORD_0": 2,
            "TEXCOORD_1": 3
          },
          "indices": 4,
          "material": 0,
          "mode": 4
        },
        {
          "attributes": {
            "POSITION": 5,
            "NORMAL": 6,
            "TEXCOORD_0": 7,
            "TEXCOORD_1": 8
          },
          "indices": 9,
          "material": 1,
          "mode": 4
        }
      ]
    }
  ],
  "materials": [
    {
      "name": "Default_Material",
      "pbrMetallicRoughness": {
        "baseColorFactor": [
          1,
          1,
          1,
          1
        ],
        "metallicFactor": 0,
        "roughnessFactor": 1
      },
      "doubleSided": true,
      "extras": {
        "diffuseTexture": null,
        "specularTexture": null,
        "normalMap": null
      }
    },
    {
      "name": "MatSlots",
      "pbrMetallicRoughness": {
        "baseColorFactor": [
          1,
          1,
          1,
          1
        ],
        "metallicFactor": 0,
        "roughnessFactor": 1
      },
      "doubleSided": true,
      "extras": {
        "diffuseTexture": "Character/Common/Texture/CustomGradient_WeaponALL.png",
        "specularTexture": null,
        "normalMap": null
      }
    }
  ],
  "buffers": [
    {
      "uri": "Relic_Manfish_CrystalBall_01.bin",
      "byteLength": 211648
    }
  ],
  "bufferViews": [
    {
      "buffer": 0,
      "byteOffset": 0,
      "byteLength": 29184,
      "target": 34962
    },
    {
      "buffer": 0,
      "byteOffset": 29184,
      "byteLength": 29184,
      "target": 34962
    },
    {
      "buffer": 0,
      "byteOffset": 58368,
      "byteLength": 19456,
      "target": 34962
    },
    {
      "buffer": 0,
      "byteOffset": 77824,
      "byteLength": 19456,
      "target": 34962
    },
    {
      "buffer": 0,
      "byteOffset": 97280,
      "byteLength": 1152,
      "target": 34963
    },
    {
      "buffer": 0,
      "byteOffset": 98432,
      "byteLength": 29184,
      "target": 34962
    },
    {
      "buffer": 0,
      "byteOffset": 127616,
      "byteLength": 29184,
      "target": 34962
    },
    {
      "buffer": 0,
      "byteOffset": 156800,
      "byteLength": 19456,
      "target": 34962
    },
    {
      "buffer": 0,
      "byteOffset": 176256,
      "byteLength": 19456,
      "target": 34962
    },
    {
      "buffer": 0,
      "byteOffset": 195712,
      "byteLength": 15936,
      "target": 34963
    }
  ],
  "accessors": [
    {
      "bufferView": 0,
      "componentType": 5126,
      "count": 2432,
      "type": "VEC3",
      "min": [
        -0.2931724786758423,
        -1.0705827474594116,
        -0.28237590193748474
      ],
      "max": [
        0.28350383043289185,
        0.11535743623971939,
        0.28237617015838623
      ]
    },
    {
      "bufferView": 1,
      "componentType": 5126,
      "count": 2432,
      "type": "VEC3",
      "min": [
        -1,
        -1,
        -1
      ],
      "max": [
        1,
        1,
        1
      ]
    },
    {
      "bufferView": 2,
      "componentType": 5126,
      "count": 2432,
      "type": "VEC2",
      "min": [
        0.16628649830818176,
        0.22695046663284302
      ],
      "max": [
        0.3336468040943146,
        0.894077718257904
      ]
    },
    {
      "bufferView": 3,
      "componentType": 5126,
      "count": 2432,
      "type": "VEC2",
      "min": [
        0.0854477733373642,
        0.10284674167633057
      ],
      "max": [
        0.5004377961158752,
        0.9502048492431641
      ]
    },
    {
      "bufferView": 4,
      "componentType": 5123,
      "count": 576,
      "type": "SCALAR",
      "min": [
        0
      ],
      "max": [
        97
      ]
    },
    {
      "bufferView": 5,
      "componentType": 5126,
      "count": 2432,
      "type": "VEC3",
      "min": [
        -0.2931724786758423,
        -1.0705827474594116,
        -0.28237590193748474
      ],
      "max": [
        0.28350383043289185,
        0.11535743623971939,
        0.28237617015838623
      ]
    },
    {
      "bufferView": 6,
      "componentType": 5126,
      "count": 2432,
      "type": "VEC3",
      "min": [
        -1,
        -1,
        -1
      ],
      "max": [
        1,
        1,
        1
      ]
    },
    {
      "bufferView": 7,
      "componentType": 5126,
      "count": 2432,
      "type": "VEC2",
      "min": [
        0.16628649830818176,
        0.22695046663284302
      ],
      "max": [
        0.3336468040943146,
        0.894077718257904
      ]
    },
    {
      "bufferView": 8,
      "componentType": 5126,
      "count": 2432,
      "type": "VEC2",
      "min": [
        0.0854477733373642,
        0.10284674167633057
      ],
      "max": [
        0.5004377961158752,
        0.9502048492431641
      ]
    },
    {
      "bufferView": 9,
      "componentType": 5123,
      "count": 7968,
      "type": "SCALAR",
      "min": [
        0
      ],
      "max": [
        2431
      ]
    }
  ],
  "extras": {
    "manifest": "Relic_Manfish_CrystalBall_01.materials.json"
  }
}