{
  "asset": {
    "version": "2.0",
    "generator": "prefab-to-gltf"
  },
  "scene": 0,
  "scenes": [
    {
      "name": "Chest_NoSleeves_RKobold_Medium",
      "nodes": [
        0
      ]
    }
  ],
  "nodes": [
    {
      "name": "Chest_Z1RKobold_Medium_N",
      "translation": [
        0,
        0,
        0
      ],
      "rotation": [
        0,
        0,
        0,
        1
      ],
      "scale": [
        1,
        1,
        1
      ],
      "mesh": 0
    }
  ],
  "meshes": [
    {
      "name": "Chest_Z1RKobold_Medium_N",
      "primitives": [
        {
          "attributes": {
            "POSITION": 0,
            "NORMAL": 1,
            "TEXCOORD_0": 2,
            "TEXCOORD_1": 3,
            "COLOR_0": 4
          },
          "indices": 5,
          "material": 0,
          "mode": 4
        }
      ]
    }
  ],
  "materials": [
    {
      "name": "GradMat_Body",
      "pbrMetallicRoughness": {
        "baseColorFactor": [
          1,
          1,
          1,
          1
        ],
        "metallicFactor": 0,
        "roughnessFactor": 1
      },
      "doubleSided": true,
      "extras": {
        "diffuseTexture": "Character/Common/Texture/CustomGradient_BasicGuy.png",
        "specularTexture": null,
        "normalMap": null
      }
    }
  ],
  "buffers": [
    {
      "uri": "Chest_NoSleeves_RKobold_Medium.bin",
      "byteLength": 259602
    }
  ],
  "bufferViews": [
    {
      "buffer": 0,
      "byteOffset": 0,
      "byteLength": 54540,
      "target": 34962
    },
    {
      "buffer": 0,
      "byteOffset": 54540,
      "byteLength": 54540,
      "target": 34962
    },
    {
      "buffer": 0,
      "byteOffset": 109080,
      "byteLength": 36360,
      "target": 34962
    },
    {
      "buffer": 0,
      "byteOffset": 145440,
      "byteLength": 36360,
      "target": 34962
    },
    {
      "buffer": 0,
      "byteOffset": 181800,
      "byteLength": 54540,
      "target": 34962
    },
    {
      "buffer": 0,
      "byteOffset": 236340,
      "byteLength": 23262,
      "target": 34963
    }
  ],
  "accessors": [
    {
      "bufferView": 0,
      "componentType": 5126,
      "count": 4545,
      "type": "VEC3",
      "min": [
        -0.66650390625,
        1.173828125,
        -0.11346435546875
      ],
      "max": [
        0.66650390625,
        1.9326171875,
        0.259521484375
      ]
    },
    {
      "bufferView": 1,
      "componentType": 5126,
      "count": 4545,
      "type": "VEC3",
      "min": [
        -0.5019607843137255,
        -0.5019607843137255,
        -0.5019607843137255
      ],
      "max": [
        1,
        1,
        1
      ]
    },
    {
      "bufferView": 2,
      "componentType": 5126,
      "count": 4545,
      "type": "VEC2",
      "min": [
        0.01812744140625,
        0.12017822265625
      ],
      "max": [
        0.94873046875,
        0.953125
      ]
    },
    {
      "bufferView": 3,
      "componentType": 5126,
      "count": 4545,
      "type": "VEC2",
      "min": [
        0,
        0.09613037109375
      ],
      "max": [
        0.9482421875,
        1
      ]
    },
    {
      "bufferView": 4,
      "componentType": 5126,
      "count": 3408.75,
      "type": "VEC4",
      "min": [
        0.3607843220233917,
        0.3607843220233917,
        0.3607843220233917,
        0.3607843220233917
      ],
      "max": [
        1,
        1,
        1,
        1
      ]
    },
    {
      "bufferView": 5,
      "componentType": 5123,
      "count": 11631,
      "type": "SCALAR",
      "min": [
        0
      ],
      "max": [
        4544
      ]
    }
  ],
  "extras": {
    "manifest": "Chest_NoSleeves_RKobold_Medium.materials.json"
  }
}