{
  "asset": {
    "version": "2.0",
    "generator": "prefab-to-gltf"
  },
  "scene": 0,
  "scenes": [
    {
      "name": "Hands_Wrist_RKobold_Medium",
      "nodes": [
        0
      ]
    }
  ],
  "nodes": [
    {
      "name": "Hands_Z1RKobold_Medium_N",
      "translation": [
        0,
        0,
        0
      ],
      "rotation": [
        0,
        0,
        0,
        1
      ],
      "scale": [
        1,
        1,
        1
      ],
      "mesh": 0
    }
  ],
  "meshes": [
    {
      "name": "Hands_Z1RKobold_Medium_N",
      "primitives": [
        {
          "attributes": {
            "POSITION": 0,
            "NORMAL": 1,
            "TEXCOORD_0": 2,
            "TEXCOORD_1": 3
          },
          "indices": 4,
          "material": 0,
          "mode": 4
        }
      ]
    }
  ],
  "materials": [
    {
      "name": "GradMat_Body",
      "pbrMetallicRoughness": {
        "baseColorFactor": [
          1,
          1,
          1,
          1
        ],
        "metallicFactor": 0,
        "roughnessFactor": 1
      },
      "doubleSided": true,
      "extras": {
        "diffuseTexture": "Character/Common/Texture/CustomGradient_BasicGuy.png",
        "specularTexture": null,
        "normalMap": null
      }
    }
  ],
  "buffers": [
    {
      "uri": "Hands_Wrist_RKobold_Medium.bin",
      "byteLength": 184464
    }
  ],
  "bufferViews": [
    {
      "buffer": 0,
      "byteOffset": 0,
      "byteLength": 48240,
      "target": 34962
    },
    {
      "buffer": 0,
      "byteOffset": 48240,
      "byteLength": 48240,
      "target": 34962
    },
    {
      "buffer": 0,
      "byteOffset": 96480,
      "byteLength": 32160,
      "target": 34962
    },
    {
      "buffer": 0,
      "byteOffset": 128640,
      "byteLength": 32160,
      "target": 34962
    },
    {
      "buffer": 0,
      "byteOffset": 160800,
      "byteLength": 23664,
      "target": 34963
    }
  ],
  "accessors": [
    {
      "bufferView": 0,
      "componentType": 5126,
      "count": 4020,
      "type": "VEC3",
      "min": [
        -0.81201171875,
        0.9814453125,
        0.021697998046875
      ],
      "max": [
        0.81201171875,
        1.349609375,
        0.337646484375
      ]
    },
    {
      "bufferView": 1,
      "componentType": 5126,
      "count": 4020,
      "type": "VEC3",
      "min": [
        -0.5019607843137255,
        -0.5019607843137255,
        -0.5019607843137255
      ],
      "max": [
        1,
        1,
        1
      ]
    },
    {
      "bufferView": 2,
      "componentType": 5126,
      "count": 4020,
      "type": "VEC2",
      "min": [
        0.0190582275390625,
        0.1739501953125
      ],
      "max": [
        0.845703125,
        0.982421875
      ]
    },
    {
      "bufferView": 3,
      "componentType": 5126,
      "count": 4020,
      "type": "VEC2",
      "min": [
        0.029022216796875,
        0.10711669921875
      ],
      "max": [
        0.9482421875,
        1.0009765625
      ]
    },
    {
      "bufferView": 4,
      "componentType": 5123,
      "count": 11832,
      "type": "SCALAR",
      "min": [
        0
      ],
      "max": [
        4019
      ]
    }
  ],
  "extras": {
    "manifest": "Hands_Wrist_RKobold_Medium.materials.json"
  }
}