{
  "asset": {
    "version": "2.0",
    "generator": "prefab-to-gltf"
  },
  "scene": 0,
  "scenes": [
    {
      "name": "Legs_Shin_RKobold_Light",
      "nodes": [
        0
      ]
    }
  ],
  "nodes": [
    {
      "name": "Legs_Z1RKobold_Light_N",
      "translation": [
        0,
        0,
        0
      ],
      "rotation": [
        0,
        0,
        0,
        1
      ],
      "scale": [
        1,
        1,
        1
      ],
      "mesh": 0
    }
  ],
  "meshes": [
    {
      "name": "Legs_Z1RKobold_Light_N",
      "primitives": [
        {
          "attributes": {
            "POSITION": 0,
            "NORMAL": 1,
            "TEXCOORD_0": 2,
            "TEXCOORD_1": 3
          },
          "indices": 4,
          "material": 0,
          "mode": 4
        }
      ]
    }
  ],
  "materials": [
    {
      "name": "GradMat_Body",
      "pbrMetallicRoughness": {
        "baseColorFactor": [
          1,
          1,
          1,
          1
        ],
        "metallicFactor": 0,
        "roughnessFactor": 1
      },
      "doubleSided": true,
      "extras": {
        "diffuseTexture": "Character/Common/Texture/CustomGradient_BasicGuy.png",
        "specularTexture": null,
        "normalMap": null
      }
    }
  ],
  "buffers": [
    {
      "uri": "Legs_Shin_RKobold_Light.bin",
      "byteLength": 127060
    }
  ],
  "bufferViews": [
    {
      "buffer": 0,
      "byteOffset": 0,
      "byteLength": 34392,
      "target": 34962
    },
    {
      "buffer": 0,
      "byteOffset": 34392,
      "byteLength": 34392,
      "target": 34962
    },
    {
      "buffer": 0,
      "byteOffset": 68784,
      "byteLength": 22928,
      "target": 34962
    },
    {
      "buffer": 0,
      "byteOffset": 91712,
      "byteLength": 22928,
      "target": 34962
    },
    {
      "buffer": 0,
      "byteOffset": 114640,
      "byteLength": 12420,
      "target": 34963
    }
  ],
  "accessors": [
    {
      "bufferView": 0,
      "componentType": 5126,
      "count": 2866,
      "type": "VEC3",
      "min": [
        -0.385009765625,
        0.08514404296875,
        -0.10699462890625
      ],
      "max": [
        0.385009765625,
        1.2763671875,
        0.2286376953125
      ]
    },
    {
      "bufferView": 1,
      "componentType": 5126,
      "count": 2866,
      "type": "VEC3",
      "min": [
        -0.5019607843137255,
        -0.5019607843137255,
        -0.5019607843137255
      ],
      "max": [
        1,
        1,
        1
      ]
    },
    {
      "bufferView": 2,
      "componentType": 5126,
      "count": 2866,
      "type": "VEC2",
      "min": [
        0.0295562744140625,
        0.11090087890625
      ],
      "max": [
        0.974609375,
        0.93701171875
      ]
    },
    {
      "bufferView": 3,
      "componentType": 5126,
      "count": 2866,
      "type": "VEC2",
      "min": [
        0.015380859375,
        0.11572265625
      ],
      "max": [
        0.94140625,
        0.96630859375
      ]
    },
    {
      "bufferView": 4,
      "componentType": 5123,
      "count": 6210,
      "type": "SCALAR",
      "min": [
        0
      ],
      "max": [
        2865
      ]
    }
  ],
  "extras": {
    "manifest": "Legs_Shin_RKobold_Light.materials.json"
  }
}