{
  "asset": {
    "version": "2.0",
    "generator": "prefab-to-gltf"
  },
  "scene": 0,
  "scenes": [
    {
      "name": "Chest_LongSleeves_Starter_Cle",
      "nodes": [
        0
      ]
    }
  ],
  "nodes": [
    {
      "name": "Chest_Starter_Cle_01_N",
      "translation": [
        0,
        0,
        0
      ],
      "rotation": [
        0,
        0,
        0,
        1
      ],
      "scale": [
        1,
        1,
        1
      ],
      "mesh": 0
    }
  ],
  "meshes": [
    {
      "name": "Chest_Starter_Cle_01_N",
      "primitives": [
        {
          "attributes": {
            "POSITION": 0,
            "NORMAL": 1,
            "TEXCOORD_0": 2,
            "TEXCOORD_1": 3,
            "COLOR_0": 4
          },
          "indices": 5,
          "material": 0,
          "mode": 4
        }
      ]
    }
  ],
  "materials": [
    {
      "name": "Gradmat_Weapon",
      "pbrMetallicRoughness": {
        "baseColorFactor": [
          1,
          1,
          1,
          1
        ],
        "metallicFactor": 0,
        "roughnessFactor": 1
      },
      "doubleSided": true,
      "extras": {
        "diffuseTexture": "Character/Common/Texture/CustomGradient_Hero_Clothes.png",
        "specularTexture": null,
        "normalMap": null
      }
    }
  ],
  "buffers": [
    {
      "uri": "Chest_LongSleeves_Starter_Cle.bin",
      "byteLength": 269528
    }
  ],
  "bufferViews": [
    {
      "buffer": 0,
      "byteOffset": 0,
      "byteLength": 55068,
      "target": 34962
    },
    {
      "buffer": 0,
      "byteOffset": 55068,
      "byteLength": 55068,
      "target": 34962
    },
    {
      "buffer": 0,
      "byteOffset": 110136,
      "byteLength": 36712,
      "target": 34962
    },
    {
      "buffer": 0,
      "byteOffset": 146848,
      "byteLength": 36712,
      "target": 34962
    },
    {
      "buffer": 0,
      "byteOffset": 183560,
      "byteLength": 55068,
      "target": 34962
    },
    {
      "buffer": 0,
      "byteOffset": 238628,
      "byteLength": 30900,
      "target": 34963
    }
  ],
  "accessors": [
    {
      "bufferView": 0,
      "componentType": 5126,
      "count": 4589,
      "type": "VEC3",
      "min": [
        -0.6669848561286926,
        0.0851835310459137,
        -0.18017353117465973
      ],
      "max": [
        0.6669848561286926,
        1.9331179857254028,
        0.327353298664093
      ]
    },
    {
      "bufferView": 1,
      "componentType": 5126,
      "count": 4589,
      "type": "VEC3",
      "min": [
        -0.9993869066238403,
        -0.9999861717224121,
        -0.9999983310699463
      ],
      "max": [
        0.9993863701820374,
        0.9990420937538147,
        0.9999508261680603
      ]
    },
    {
      "bufferView": 2,
      "componentType": 5126,
      "count": 4589,
      "type": "VEC2",
      "min": [
        0.027306729927659035,
        0.19392812252044678
      ],
      "max": [
        0.5719894170761108,
        0.9061709642410278
      ]
    },
    {
      "bufferView": 3,
      "componentType": 5126,
      "count": 4589,
      "type": "VEC2",
      "min": [
        0,
        0.10849255323410034
      ],
      "max": [
        0.48892682790756226,
        1
      ]
    },
    {
      "bufferView": 4,
      "componentType": 5126,
      "count": 3441.75,
      "type": "VEC4",
      "min": [
        0.3607843220233917,
        0.3607843220233917,
        0.38823530077934265,
        0.3607843220233917
      ],
      "max": [
        1,
        1,
        1,
        1
      ]
    },
    {
      "bufferView": 5,
      "componentType": 5123,
      "count": 15450,
      "type": "SCALAR",
      "min": [
        0
      ],
      "max": [
        4588
      ]
    }
  ],
  "extras": {
    "manifest": "Chest_LongSleeves_Starter_Cle.materials.json"
  }
}