{
  "asset": {
    "version": "2.0",
    "generator": "prefab-to-gltf"
  },
  "scene": 0,
  "scenes": [
    {
      "name": "Feet_Low_Starter_Cle",
      "nodes": [
        0
      ]
    }
  ],
  "nodes": [
    {
      "name": "Feet_Starter_Cle_01_N",
      "translation": [
        0,
        0,
        0
      ],
      "rotation": [
        0,
        0,
        0,
        1
      ],
      "scale": [
        1,
        1,
        1
      ],
      "mesh": 0
    }
  ],
  "meshes": [
    {
      "name": "Feet_Starter_Cle_01_N",
      "primitives": [
        {
          "attributes": {
            "POSITION": 0,
            "NORMAL": 1,
            "TEXCOORD_0": 2,
            "TEXCOORD_1": 3,
            "COLOR_0": 4
          },
          "indices": 5,
          "material": 0,
          "mode": 4
        }
      ]
    }
  ],
  "materials": [
    {
      "name": "Gradmat_Weapon",
      "pbrMetallicRoughness": {
        "baseColorFactor": [
          1,
          1,
          1,
          1
        ],
        "metallicFactor": 0,
        "roughnessFactor": 1
      },
      "doubleSided": true,
      "extras": {
        "diffuseTexture": "Character/Common/Texture/CustomGradient_Hero_Clothes.png",
        "specularTexture": null,
        "normalMap": null
      }
    }
  ],
  "buffers": [
    {
      "uri": "Feet_Low_Starter_Cle.bin",
      "byteLength": 113396
    }
  ],
  "bufferViews": [
    {
      "buffer": 0,
      "byteOffset": 0,
      "byteLength": 23496,
      "target": 34962
    },
    {
      "buffer": 0,
      "byteOffset": 23496,
      "byteLength": 23496,
      "target": 34962
    },
    {
      "buffer": 0,
      "byteOffset": 46992,
      "byteLength": 15664,
      "target": 34962
    },
    {
      "buffer": 0,
      "byteOffset": 62656,
      "byteLength": 15664,
      "target": 34962
    },
    {
      "buffer": 0,
      "byteOffset": 78320,
      "byteLength": 23496,
      "target": 34962
    },
    {
      "buffer": 0,
      "byteOffset": 101816,
      "byteLength": 11580,
      "target": 34963
    }
  ],
  "accessors": [
    {
      "bufferView": 0,
      "componentType": 5126,
      "count": 1958,
      "type": "VEC3",
      "min": [
        -0.4142295718193054,
        -0.0075011467561125755,
        -0.06465834379196167
      ],
      "max": [
        0.4142295718193054,
        0.15910722315311432,
        0.3135227560997009
      ]
    },
    {
      "bufferView": 1,
      "componentType": 5126,
      "count": 1958,
      "type": "VEC3",
      "min": [
        -0.9996901154518127,
        -1,
        -0.9992011785507202
      ],
      "max": [
        0.9996901154518127,
        1,
        0.9984733462333679
      ]
    },
    {
      "bufferView": 2,
      "componentType": 5126,
      "count": 1958,
      "type": "VEC2",
      "min": [
        0.02590879425406456,
        0.231356680393219
      ],
      "max": [
        0.45020610094070435,
        0.8134363293647766
      ]
    },
    {
      "bufferView": 3,
      "componentType": 5126,
      "count": 1958,
      "type": "VEC2",
      "min": [
        0.05045896768569946,
        0.32302212715148926
      ],
      "max": [
        0.9466297030448914,
        0.9664919376373291
      ]
    },
    {
      "bufferView": 4,
      "componentType": 5126,
      "count": 1468.5,
      "type": "VEC4",
      "min": [
        0,
        0,
        0,
        0
      ],
      "max": [
        1,
        1,
        1,
        1
      ]
    },
    {
      "bufferView": 5,
      "componentType": 5123,
      "count": 5790,
      "type": "SCALAR",
      "min": [
        0
      ],
      "max": [
        1957
      ]
    }
  ],
  "extras": {
    "manifest": "Feet_Low_Starter_Cle.materials.json"
  }
}