{
  "asset": {
    "version": "2.0",
    "generator": "prefab-to-gltf"
  },
  "scene": 0,
  "scenes": [
    {
      "name": "Chest_NoSleeves_Starter_Ass",
      "nodes": [
        0
      ]
    }
  ],
  "nodes": [
    {
      "name": "Chest_Starter_Ass_01_N",
      "translation": [
        0,
        0,
        0
      ],
      "rotation": [
        0,
        0,
        0,
        1
      ],
      "scale": [
        1,
        1,
        1
      ],
      "mesh": 0
    }
  ],
  "meshes": [
    {
      "name": "Chest_Starter_Ass_01_N",
      "primitives": [
        {
          "attributes": {
            "POSITION": 0,
            "NORMAL": 1,
            "TEXCOORD_0": 2,
            "TEXCOORD_1": 3,
            "COLOR_0": 4
          },
          "indices": 5,
          "material": 0,
          "mode": 4
        }
      ]
    }
  ],
  "materials": [
    {
      "name": "Gradmat_Weapon",
      "pbrMetallicRoughness": {
        "baseColorFactor": [
          1,
          1,
          1,
          1
        ],
        "metallicFactor": 0,
        "roughnessFactor": 1
      },
      "doubleSided": true,
      "extras": {
        "diffuseTexture": "Character/Common/Texture/CustomGradient_Hero_Clothes.png",
        "specularTexture": null,
        "normalMap": null
      }
    }
  ],
  "buffers": [
    {
      "uri": "Chest_NoSleeves_Starter_Ass.bin",
      "byteLength": 100904
    }
  ],
  "bufferViews": [
    {
      "buffer": 0,
      "byteOffset": 0,
      "byteLength": 20184,
      "target": 34962
    },
    {
      "buffer": 0,
      "byteOffset": 20184,
      "byteLength": 20184,
      "target": 34962
    },
    {
      "buffer": 0,
      "byteOffset": 40368,
      "byteLength": 13456,
      "target": 34962
    },
    {
      "buffer": 0,
      "byteOffset": 53824,
      "byteLength": 13456,
      "target": 34962
    },
    {
      "buffer": 0,
      "byteOffset": 67280,
      "byteLength": 20184,
      "target": 34962
    },
    {
      "buffer": 0,
      "byteOffset": 87464,
      "byteLength": 13440,
      "target": 34963
    }
  ],
  "accessors": [
    {
      "bufferView": 0,
      "componentType": 5126,
      "count": 1682,
      "type": "VEC3",
      "min": [
        -0.6669848561286926,
        1.1743311882019043,
        -0.09134800732135773
      ],
      "max": [
        0.6669848561286926,
        1.9331179857254028,
        0.22881700098514557
      ]
    },
    {
      "bufferView": 1,
      "componentType": 5126,
      "count": 1682,
      "type": "VEC3",
      "min": [
        -0.9982870817184448,
        -0.9781524538993835,
        -0.9999445676803589
      ],
      "max": [
        0.9982861876487732,
        0.9991447329521179,
        0.9999843239784241
      ]
    },
    {
      "bufferView": 2,
      "componentType": 5126,
      "count": 1682,
      "type": "VEC2",
      "min": [
        0.018141616135835648,
        0.1708051562309265
      ],
      "max": [
        0.33656197786331177,
        0.7228261828422546
      ]
    },
    {
      "bufferView": 3,
      "componentType": 5126,
      "count": 1682,
      "type": "VEC2",
      "min": [
        0.015499895438551903,
        0.11503744125366211
      ],
      "max": [
        0.46290767192840576,
        0.9705962538719177
      ]
    },
    {
      "bufferView": 4,
      "componentType": 5126,
      "count": 1261.5,
      "type": "VEC4",
      "min": [
        0.3607843220233917,
        0.38823530077934265,
        0.3607843220233917,
        0.3607843220233917
      ],
      "max": [
        1,
        1,
        1,
        1
      ]
    },
    {
      "bufferView": 5,
      "componentType": 5123,
      "count": 6720,
      "type": "SCALAR",
      "min": [
        0
      ],
      "max": [
        1681
      ]
    }
  ],
  "extras": {
    "manifest": "Chest_NoSleeves_Starter_Ass.materials.json"
  }
}