{
  "asset": {
    "version": "2.0",
    "generator": "prefab-to-gltf"
  },
  "scene": 0,
  "scenes": [
    {
      "name": "BaseNPC_01",
      "nodes": [
        0
      ]
    }
  ],
  "nodes": [
    {
      "name": "BaseNPC_01",
      "translation": [
        0,
        0,
        0
      ],
      "rotation": [
        0,
        0,
        0,
        1
      ],
      "scale": [
        1,
        1,
        1
      ],
      "mesh": 0
    }
  ],
  "meshes": [
    {
      "name": "BaseNPC_01",
      "primitives": [
        {
          "attributes": {
            "POSITION": 0,
            "NORMAL": 1,
            "TEXCOORD_0": 2,
            "TEXCOORD_1": 3,
            "COLOR_0": 4
          },
          "indices": 5,
          "material": 0,
          "mode": 4
        },
        {
          "attributes": {
            "POSITION": 6,
            "NORMAL": 7,
            "TEXCOORD_0": 8,
            "TEXCOORD_1": 9,
            "COLOR_0": 10
          },
          "indices": 11,
          "material": 1,
          "mode": 4
        }
      ]
    }
  ],
  "materials": [
    {
      "name": "Gradmat_12Slots",
      "pbrMetallicRoughness": {
        "baseColorFactor": [
          1,
          1,
          1,
          1
        ],
        "metallicFactor": 0,
        "roughnessFactor": 1
      },
      "doubleSided": true,
      "extras": {
        "diffuseTexture": "Character/Common/Texture/CustomGradient_RobinHoof.png",
        "specularTexture": null,
        "normalMap": null
      }
    },
    {
      "name": "Glasses",
      "pbrMetallicRoughness": {
        "baseColorFactor": [
          1,
          1,
          1,
          1
        ],
        "metallicFactor": 0,
        "roughnessFactor": 1
      },
      "doubleSided": true,
      "extras": {
        "diffuseTexture": null,
        "specularTexture": null,
        "normalMap": null
      }
    }
  ],
  "buffers": [
    {
      "uri": "BaseNPC_01.bin",
      "byteLength": 1686312
    }
  ],
  "bufferViews": [
    {
      "buffer": 0,
      "byteOffset": 0,
      "byteLength": 182088,
      "target": 34962
    },
    {
      "buffer": 0,
      "byteOffset": 182088,
      "byteLength": 182088,
      "target": 34962
    },
    {
      "buffer": 0,
      "byteOffset": 364176,
      "byteLength": 121392,
      "target": 34962
    },
    {
      "buffer": 0,
      "byteOffset": 485568,
      "byteLength": 121392,
      "target": 34962
    },
    {
      "buffer": 0,
      "byteOffset": 606960,
      "byteLength": 182088,
      "target": 34962
    },
    {
      "buffer": 0,
      "byteOffset": 789048,
      "byteLength": 107496,
      "target": 34963
    },
    {
      "buffer": 0,
      "byteOffset": 896544,
      "byteLength": 182088,
      "target": 34962
    },
    {
      "buffer": 0,
      "byteOffset": 1078632,
      "byteLength": 182088,
      "target": 34962
    },
    {
      "buffer": 0,
      "byteOffset": 1260720,
      "byteLength": 121392,
      "target": 34962
    },
    {
      "buffer": 0,
      "byteOffset": 1382112,
      "byteLength": 121392,
      "target": 34962
    },
    {
      "buffer": 0,
      "byteOffset": 1503504,
      "byteLength": 182088,
      "target": 34962
    },
    {
      "buffer": 0,
      "byteOffset": 1685592,
      "byteLength": 720,
      "target": 34963
    }
  ],
  "accessors": [
    {
      "bufferView": 0,
      "componentType": 5126,
      "count": 15174,
      "type": "VEC3",
      "min": [
        -0.8123599886894226,
        -0.003920727875083685,
        -0.23435325920581818
      ],
      "max": [
        0.8123599886894226,
        2.2464866638183594,
        0.3517897427082062
      ]
    },
    {
      "bufferView": 1,
      "componentType": 5126,
      "count": 15174,
      "type": "VEC3",
      "min": [
        -0.999993085861206,
        -0.9999834299087524,
        -0.9997903108596802
      ],
      "max": [
        0.9998518824577332,
        0.999977171421051,
        0.9999992251396179
      ]
    },
    {
      "bufferView": 2,
      "componentType": 5126,
      "count": 15174,
      "type": "VEC2",
      "min": [
        0.02418111450970173,
        0.05272221565246582
      ],
      "max": [
        0.8040094971656799,
        0.976630687713623
      ]
    },
    {
      "bufferView": 3,
      "componentType": 5126,
      "count": 15174,
      "type": "VEC2",
      "min": [
        0,
        0.02668595314025879
      ],
      "max": [
        0.9915549755096436,
        1
      ]
    },
    {
      "bufferView": 4,
      "componentType": 5126,
      "count": 11380.5,
      "type": "VEC4",
      "min": [
        0,
        0,
        0,
        0
      ],
      "max": [
        0.9999715685844421,
        0.9999715685844421,
        0.9999715685844421,
        0.9999715685844421
      ]
    },
    {
      "bufferView": 5,
      "componentType": 5123,
      "count": 53748,
      "type": "SCALAR",
      "min": [
        0
      ],
      "max": [
        15173
      ]
    },
    {
      "bufferView": 6,
      "componentType": 5126,
      "count": 15174,
      "type": "VEC3",
      "min": [
        -0.8123599886894226,
        -0.003920727875083685,
        -0.23435325920581818
      ],
      "max": [
        0.8123599886894226,
        2.2464866638183594,
        0.3517897427082062
      ]
    },
    {
      "bufferView": 7,
      "componentType": 5126,
      "count": 15174,
      "type": "VEC3",
      "min": [
        -0.999993085861206,
        -0.9999834299087524,
        -0.9997903108596802
      ],
      "max": [
        0.9998518824577332,
        0.999977171421051,
        0.9999992251396179
      ]
    },
    {
      "bufferView": 8,
      "componentType": 5126,
      "count": 15174,
      "type": "VEC2",
      "min": [
        0.02418111450970173,
        0.05272221565246582
      ],
      "max": [
        0.8040094971656799,
        0.976630687713623
      ]
    },
    {
      "bufferView": 9,
      "componentType": 5126,
      "count": 15174,
      "type": "VEC2",
      "min": [
        0,
        0.02668595314025879
      ],
      "max": [
        0.9915549755096436,
        1
      ]
    },
    {
      "bufferView": 10,
      "componentType": 5126,
      "count": 11380.5,
      "type": "VEC4",
      "min": [
        0,
        0,
        0,
        0
      ],
      "max": [
        0.9999715685844421,
        0.9999715685844421,
        0.9999715685844421,
        0.9999715685844421
      ]
    },
    {
      "bufferView": 11,
      "componentType": 5123,
      "count": 360,
      "type": "SCALAR",
      "min": [
        0
      ],
      "max": [
        14968
      ]
    }
  ],
  "extras": {
    "manifest": "BaseNPC_01.materials.json"
  }
}