{
  "asset": {
    "version": "2.0",
    "generator": "prefab-to-gltf"
  },
  "scene": 0,
  "scenes": [
    {
      "name": "Faerie_PollincessMokshi",
      "nodes": [
        0
      ]
    }
  ],
  "nodes": [
    {
      "name": "Faerie_PollincessMokshi",
      "translation": [
        0,
        0,
        0
      ],
      "rotation": [
        0,
        0,
        0,
        1
      ],
      "scale": [
        1,
        1,
        1
      ],
      "mesh": 0
    }
  ],
  "meshes": [
    {
      "name": "Faerie_PollincessMokshi",
      "primitives": [
        {
          "attributes": {
            "POSITION": 0,
            "NORMAL": 1,
            "TEXCOORD_0": 2,
            "TEXCOORD_1": 3,
            "COLOR_0": 4
          },
          "indices": 5,
          "material": 0,
          "mode": 4
        }
      ]
    }
  ],
  "materials": [
    {
      "name": "GradMat",
      "pbrMetallicRoughness": {
        "baseColorFactor": [
          1,
          1,
          1,
          1
        ],
        "metallicFactor": 0,
        "roughnessFactor": 1
      },
      "doubleSided": true,
      "extras": {
        "diffuseTexture": "Character/Common/Texture/CustomGradient_WeaponALL.png",
        "specularTexture": null,
        "normalMap": null
      }
    }
  ],
  "buffers": [
    {
      "uri": "Faerie_PollincessMokshi.bin",
      "byteLength": 731378
    }
  ],
  "bufferViews": [
    {
      "buffer": 0,
      "byteOffset": 0,
      "byteLength": 150072,
      "target": 34962
    },
    {
      "buffer": 0,
      "byteOffset": 150072,
      "byteLength": 150072,
      "target": 34962
    },
    {
      "buffer": 0,
      "byteOffset": 300144,
      "byteLength": 100048,
      "target": 34962
    },
    {
      "buffer": 0,
      "byteOffset": 400192,
      "byteLength": 100048,
      "target": 34962
    },
    {
      "buffer": 0,
      "byteOffset": 500240,
      "byteLength": 150072,
      "target": 34962
    },
    {
      "buffer": 0,
      "byteOffset": 650312,
      "byteLength": 81066,
      "target": 34963
    }
  ],
  "accessors": [
    {
      "bufferView": 0,
      "componentType": 5126,
      "count": 12506,
      "type": "VEC3",
      "min": [
        -1.1099867820739746,
        0.01441524364054203,
        -1.1935337781906128
      ],
      "max": [
        1.1099867820739746,
        3.474707841873169,
        0.35852307081222534
      ]
    },
    {
      "bufferView": 1,
      "componentType": 5126,
      "count": 12506,
      "type": "VEC3",
      "min": [
        -0.999744713306427,
        -0.9999816417694092,
        -0.9999399185180664
      ],
      "max": [
        0.999744713306427,
        0.9997832775115967,
        0.9999990463256836
      ]
    },
    {
      "bufferView": 2,
      "componentType": 5126,
      "count": 12506,
      "type": "VEC2",
      "min": [
        0.013106275349855423,
        0.00979006290435791
      ],
      "max": [
        0.9658961296081543,
        1.0080004930496216
      ]
    },
    {
      "bufferView": 3,
      "componentType": 5126,
      "count": 12506,
      "type": "VEC2",
      "min": [
        0.03952553868293762,
        0.09633350372314453
      ],
      "max": [
        0.9866570234298706,
        0.9862818717956543
      ]
    },
    {
      "bufferView": 4,
      "componentType": 5126,
      "count": 9379.5,
      "type": "VEC4",
      "min": [
        0,
        0,
        0,
        0
      ],
      "max": [
        1,
        1,
        1,
        1
      ]
    },
    {
      "bufferView": 5,
      "componentType": 5123,
      "count": 40533,
      "type": "SCALAR",
      "min": [
        0
      ],
      "max": [
        12505
      ]
    }
  ],
  "extras": {
    "manifest": "Faerie_PollincessMokshi.materials.json"
  }
}