{
  "asset": {
    "version": "2.0",
    "generator": "prefab-to-gltf"
  },
  "scene": 0,
  "scenes": [
    {
      "name": "Glider_Dragon_Yellow",
      "nodes": [
        0
      ]
    }
  ],
  "nodes": [
    {
      "name": "Glider_Dragon",
      "translation": [
        0,
        0,
        0
      ],
      "rotation": [
        0,
        0,
        0,
        1
      ],
      "scale": [
        1,
        1,
        1
      ],
      "mesh": 0
    }
  ],
  "meshes": [
    {
      "name": "Glider_Dragon",
      "primitives": [
        {
          "attributes": {
            "POSITION": 0,
            "NORMAL": 1,
            "TEXCOORD_0": 2,
            "TEXCOORD_1": 3
          },
          "indices": 4,
          "material": 0,
          "mode": 4
        }
      ]
    }
  ],
  "materials": [
    {
      "name": "Gradmat",
      "pbrMetallicRoughness": {
        "baseColorFactor": [
          1,
          1,
          1,
          1
        ],
        "metallicFactor": 0,
        "roughnessFactor": 1
      },
      "doubleSided": true,
      "extras": {
        "diffuseTexture": "Character/Common/Texture/CustomGradient_BasicGuy.png",
        "specularTexture": null,
        "normalMap": null
      }
    }
  ],
  "buffers": [
    {
      "uri": "Glider_Dragon_Yellow.bin",
      "byteLength": 286572
    }
  ],
  "bufferViews": [
    {
      "buffer": 0,
      "byteOffset": 0,
      "byteLength": 72792,
      "target": 34962
    },
    {
      "buffer": 0,
      "byteOffset": 72792,
      "byteLength": 72792,
      "target": 34962
    },
    {
      "buffer": 0,
      "byteOffset": 145584,
      "byteLength": 48528,
      "target": 34962
    },
    {
      "buffer": 0,
      "byteOffset": 194112,
      "byteLength": 48528,
      "target": 34962
    },
    {
      "buffer": 0,
      "byteOffset": 242640,
      "byteLength": 43932,
      "target": 34963
    }
  ],
  "accessors": [
    {
      "bufferView": 0,
      "componentType": 5126,
      "count": 6066,
      "type": "VEC3",
      "min": [
        -2.0701825618743896,
        0.24132056534290314,
        -2.017756938934326
      ],
      "max": [
        2.0701825618743896,
        1.153128743171692,
        1.3852012157440186
      ]
    },
    {
      "bufferView": 1,
      "componentType": 5126,
      "count": 6066,
      "type": "VEC3",
      "min": [
        -0.9996359944343567,
        -0.9999910593032837,
        -0.9990647435188293
      ],
      "max": [
        0.9996359944343567,
        0.9999992251396179,
        0.9996863007545471
      ]
    },
    {
      "bufferView": 2,
      "componentType": 5126,
      "count": 6066,
      "type": "VEC2",
      "min": [
        0.03079270012676716,
        0.0034030675888061523
      ],
      "max": [
        0.805375337600708,
        0.9775781035423279
      ]
    },
    {
      "bufferView": 3,
      "componentType": 5126,
      "count": 6066,
      "type": "VEC2",
      "min": [
        0.0579642653465271,
        0.01601475477218628
      ],
      "max": [
        0.9447354078292847,
        0.9755104780197144
      ]
    },
    {
      "bufferView": 4,
      "componentType": 5123,
      "count": 21966,
      "type": "SCALAR",
      "min": [
        0
      ],
      "max": [
        6065
      ]
    }
  ],
  "extras": {
    "manifest": "Glider_Dragon_Yellow.materials.json"
  }
}