{
  "asset": {
    "version": "2.0",
    "generator": "prefab-to-gltf"
  },
  "scene": 0,
  "scenes": [
    {
      "name": "Chest_ShortSleeves_Z2U1_AssCle",
      "nodes": [
        0
      ]
    }
  ],
  "nodes": [
    {
      "name": "Chest_Z1U1_AssCle_N",
      "translation": [
        0,
        0,
        0
      ],
      "rotation": [
        0,
        0,
        0,
        1
      ],
      "scale": [
        1,
        1,
        1
      ],
      "mesh": 0
    }
  ],
  "meshes": [
    {
      "name": "Chest_Z1U1_AssCle_N",
      "primitives": [
        {
          "attributes": {
            "POSITION": 0,
            "NORMAL": 1,
            "TEXCOORD_0": 2,
            "TEXCOORD_1": 3,
            "COLOR_0": 4
          },
          "indices": 5,
          "material": 0,
          "mode": 4
        }
      ]
    }
  ],
  "materials": [
    {
      "name": "GradMat_Body",
      "pbrMetallicRoughness": {
        "baseColorFactor": [
          1,
          1,
          1,
          1
        ],
        "metallicFactor": 0,
        "roughnessFactor": 1
      },
      "doubleSided": true,
      "extras": {
        "diffuseTexture": "Character/Common/Texture/CustomGradient_RobinHoof.png",
        "specularTexture": null,
        "normalMap": null
      }
    }
  ],
  "buffers": [
    {
      "uri": "Chest_ShortSleeves_Z2U1_AssCle.bin",
      "byteLength": 409410
    }
  ],
  "bufferViews": [
    {
      "buffer": 0,
      "byteOffset": 0,
      "byteLength": 86292,
      "target": 34962
    },
    {
      "buffer": 0,
      "byteOffset": 86292,
      "byteLength": 86292,
      "target": 34962
    },
    {
      "buffer": 0,
      "byteOffset": 172584,
      "byteLength": 57528,
      "target": 34962
    },
    {
      "buffer": 0,
      "byteOffset": 230112,
      "byteLength": 57528,
      "target": 34962
    },
    {
      "buffer": 0,
      "byteOffset": 287640,
      "byteLength": 86292,
      "target": 34962
    },
    {
      "buffer": 0,
      "byteOffset": 373932,
      "byteLength": 35478,
      "target": 34963
    }
  ],
  "accessors": [
    {
      "bufferView": 0,
      "componentType": 5126,
      "count": 7191,
      "type": "VEC3",
      "min": [
        -0.66650390625,
        0.47607421875,
        -0.19873046875
      ],
      "max": [
        0.66650390625,
        1.9326171875,
        0.334228515625
      ]
    },
    {
      "bufferView": 1,
      "componentType": 5126,
      "count": 7191,
      "type": "VEC3",
      "min": [
        -0.5019607843137255,
        -0.5019607843137255,
        -0.5019607843137255
      ],
      "max": [
        1,
        1,
        1
      ]
    },
    {
      "bufferView": 2,
      "componentType": 5126,
      "count": 7191,
      "type": "VEC2",
      "min": [
        0.0093841552734375,
        0.1707763671875
      ],
      "max": [
        0.95458984375,
        0.994140625
      ]
    },
    {
      "bufferView": 3,
      "componentType": 5126,
      "count": 7191,
      "type": "VEC2",
      "min": [
        0,
        0.118896484375
      ],
      "max": [
        0.94189453125,
        1
      ]
    },
    {
      "bufferView": 4,
      "componentType": 5126,
      "count": 5393.25,
      "type": "VEC4",
      "min": [
        0,
        0,
        0,
        0
      ],
      "max": [
        1,
        1,
        1,
        1
      ]
    },
    {
      "bufferView": 5,
      "componentType": 5123,
      "count": 17739,
      "type": "SCALAR",
      "min": [
        0
      ],
      "max": [
        7190
      ]
    }
  ],
  "extras": {
    "manifest": "Chest_ShortSleeves_Z2U1_AssCle.materials.json"
  }
}