{
  "asset": {
    "version": "2.0",
    "generator": "prefab-to-gltf"
  },
  "scene": 0,
  "scenes": [
    {
      "name": "Head_Headband_Z2U1_AssCle",
      "nodes": [
        0
      ]
    }
  ],
  "nodes": [
    {
      "name": "Head_Z2U_Medium_N",
      "translation": [
        0,
        0,
        0
      ],
      "rotation": [
        0,
        0,
        0,
        1
      ],
      "scale": [
        1,
        1,
        1
      ],
      "mesh": 0
    }
  ],
  "meshes": [
    {
      "name": "Head_Z2U_Medium_N",
      "primitives": [
        {
          "attributes": {
            "POSITION": 0,
            "NORMAL": 1,
            "TEXCOORD_0": 2,
            "TEXCOORD_1": 3,
            "COLOR_0": 4
          },
          "indices": 5,
          "material": 0,
          "mode": 4
        }
      ]
    }
  ],
  "materials": [
    {
      "name": "GradMat_Body",
      "pbrMetallicRoughness": {
        "baseColorFactor": [
          1,
          1,
          1,
          1
        ],
        "metallicFactor": 0,
        "roughnessFactor": 1
      },
      "doubleSided": true,
      "extras": {
        "diffuseTexture": "Character/Common/Texture/CustomGradient_Hero_Clothes.png",
        "specularTexture": null,
        "normalMap": null
      }
    }
  ],
  "buffers": [
    {
      "uri": "Head_Headband_Z2U1_AssCle.bin",
      "byteLength": 89956
    }
  ],
  "bufferViews": [
    {
      "buffer": 0,
      "byteOffset": 0,
      "byteLength": 18912,
      "target": 34962
    },
    {
      "buffer": 0,
      "byteOffset": 18912,
      "byteLength": 18912,
      "target": 34962
    },
    {
      "buffer": 0,
      "byteOffset": 37824,
      "byteLength": 12608,
      "target": 34962
    },
    {
      "buffer": 0,
      "byteOffset": 50432,
      "byteLength": 12608,
      "target": 34962
    },
    {
      "buffer": 0,
      "byteOffset": 63040,
      "byteLength": 18912,
      "target": 34962
    },
    {
      "buffer": 0,
      "byteOffset": 81952,
      "byteLength": 8004,
      "target": 34963
    }
  ],
  "accessors": [
    {
      "bufferView": 0,
      "componentType": 5126,
      "count": 1576,
      "type": "VEC3",
      "min": [
        -0.171630859375,
        1.48046875,
        -0.54052734375
      ],
      "max": [
        0.186767578125,
        2.1953125,
        0.25830078125
      ]
    },
    {
      "bufferView": 1,
      "componentType": 5126,
      "count": 1576,
      "type": "VEC3",
      "min": [
        -0.5019607843137255,
        -0.5019607843137255,
        -0.5019607843137255
      ],
      "max": [
        1,
        1,
        1
      ]
    },
    {
      "bufferView": 2,
      "componentType": 5126,
      "count": 1576,
      "type": "VEC2",
      "min": [
        0.1363525390625,
        0.343505859375
      ],
      "max": [
        0.58740234375,
        0.94287109375
      ]
    },
    {
      "bufferView": 3,
      "componentType": 5126,
      "count": 1576,
      "type": "VEC2",
      "min": [
        0,
        0.1192626953125
      ],
      "max": [
        0.951171875,
        1
      ]
    },
    {
      "bufferView": 4,
      "componentType": 5126,
      "count": 1182,
      "type": "VEC4",
      "min": [
        0,
        0,
        0,
        0
      ],
      "max": [
        1,
        1,
        1,
        1
      ]
    },
    {
      "bufferView": 5,
      "componentType": 5123,
      "count": 4002,
      "type": "SCALAR",
      "min": [
        0
      ],
      "max": [
        1575
      ]
    }
  ],
  "extras": {
    "manifest": "Head_Headband_Z2U1_AssCle.materials.json"
  }
}