{
  "asset": {
    "version": "2.0",
    "generator": "prefab-to-gltf"
  },
  "scene": 0,
  "scenes": [
    {
      "name": "Legs_Shin_Z2U2_AssCle",
      "nodes": [
        0
      ]
    }
  ],
  "nodes": [
    {
      "name": "Legs_Z1U1_AssCle_N",
      "translation": [
        0,
        0,
        0
      ],
      "rotation": [
        0,
        0,
        0,
        1
      ],
      "scale": [
        1,
        1,
        1
      ],
      "mesh": 0
    }
  ],
  "meshes": [
    {
      "name": "Legs_Z1U1_AssCle_N",
      "primitives": [
        {
          "attributes": {
            "POSITION": 0,
            "NORMAL": 1,
            "TEXCOORD_0": 2,
            "TEXCOORD_1": 3,
            "COLOR_0": 4
          },
          "indices": 5,
          "material": 0,
          "mode": 4
        }
      ]
    }
  ],
  "materials": [
    {
      "name": "GradMat_Body",
      "pbrMetallicRoughness": {
        "baseColorFactor": [
          1,
          1,
          1,
          1
        ],
        "metallicFactor": 0,
        "roughnessFactor": 1
      },
      "doubleSided": true,
      "extras": {
        "diffuseTexture": "Character/Common/Texture/CustomGradient_RobinHoof.png",
        "specularTexture": null,
        "normalMap": null
      }
    }
  ],
  "buffers": [
    {
      "uri": "Legs_Shin_Z2U2_AssCle.bin",
      "byteLength": 136768
    }
  ],
  "bufferViews": [
    {
      "buffer": 0,
      "byteOffset": 0,
      "byteLength": 28704,
      "target": 34962
    },
    {
      "buffer": 0,
      "byteOffset": 28704,
      "byteLength": 28704,
      "target": 34962
    },
    {
      "buffer": 0,
      "byteOffset": 57408,
      "byteLength": 19136,
      "target": 34962
    },
    {
      "buffer": 0,
      "byteOffset": 76544,
      "byteLength": 19136,
      "target": 34962
    },
    {
      "buffer": 0,
      "byteOffset": 95680,
      "byteLength": 28704,
      "target": 34962
    },
    {
      "buffer": 0,
      "byteOffset": 124384,
      "byteLength": 12384,
      "target": 34963
    }
  ],
  "accessors": [
    {
      "bufferView": 0,
      "componentType": 5126,
      "count": 2392,
      "type": "VEC3",
      "min": [
        -0.37109375,
        0.08514404296875,
        -0.117431640625
      ],
      "max": [
        0.37109375,
        1.2763671875,
        0.2454833984375
      ]
    },
    {
      "bufferView": 1,
      "componentType": 5126,
      "count": 2392,
      "type": "VEC3",
      "min": [
        -0.5019607843137255,
        -0.5019607843137255,
        -0.5019607843137255
      ],
      "max": [
        1,
        1,
        1
      ]
    },
    {
      "bufferView": 2,
      "componentType": 5126,
      "count": 2392,
      "type": "VEC2",
      "min": [
        0.039886474609375,
        0.229736328125
      ],
      "max": [
        0.56201171875,
        0.9365234375
      ]
    },
    {
      "bufferView": 3,
      "componentType": 5126,
      "count": 2392,
      "type": "VEC2",
      "min": [
        0.050628662109375,
        0.261474609375
      ],
      "max": [
        0.9384765625,
        0.96630859375
      ]
    },
    {
      "bufferView": 4,
      "componentType": 5126,
      "count": 1794,
      "type": "VEC4",
      "min": [
        0,
        0,
        0,
        0
      ],
      "max": [
        1,
        1,
        1,
        1
      ]
    },
    {
      "bufferView": 5,
      "componentType": 5123,
      "count": 6192,
      "type": "SCALAR",
      "min": [
        0
      ],
      "max": [
        2391
      ]
    }
  ],
  "extras": {
    "manifest": "Legs_Shin_Z2U2_AssCle.materials.json"
  }
}