{
  "asset": {
    "version": "2.0",
    "generator": "prefab-to-gltf"
  },
  "scene": 0,
  "scenes": [
    {
      "name": "Waist_Medium_Z2U1_AssCle",
      "nodes": [
        0
      ]
    }
  ],
  "nodes": [
    {
      "name": "Waist_R1S1_AssCle_N",
      "translation": [
        0,
        0,
        0
      ],
      "rotation": [
        0,
        0,
        0,
        1
      ],
      "scale": [
        1,
        1,
        1
      ],
      "mesh": 0
    }
  ],
  "meshes": [
    {
      "name": "Waist_R1S1_AssCle_N",
      "primitives": [
        {
          "attributes": {
            "POSITION": 0,
            "NORMAL": 1,
            "TEXCOORD_0": 2,
            "TEXCOORD_1": 3
          },
          "indices": 4,
          "material": 0,
          "mode": 4
        }
      ]
    }
  ],
  "materials": [
    {
      "name": "GradMat_Body",
      "pbrMetallicRoughness": {
        "baseColorFactor": [
          1,
          1,
          1,
          1
        ],
        "metallicFactor": 0,
        "roughnessFactor": 1
      },
      "doubleSided": true,
      "extras": {
        "diffuseTexture": "Character/Common/Texture/CustomGradient_BasicGuy.png",
        "specularTexture": null,
        "normalMap": null
      }
    }
  ],
  "buffers": [
    {
      "uri": "Waist_Medium_Z2U1_AssCle.bin",
      "byteLength": 56744
    }
  ],
  "bufferViews": [
    {
      "buffer": 0,
      "byteOffset": 0,
      "byteLength": 15288,
      "target": 34962
    },
    {
      "buffer": 0,
      "byteOffset": 15288,
      "byteLength": 15288,
      "target": 34962
    },
    {
      "buffer": 0,
      "byteOffset": 30576,
      "byteLength": 10192,
      "target": 34962
    },
    {
      "buffer": 0,
      "byteOffset": 40768,
      "byteLength": 10192,
      "target": 34962
    },
    {
      "buffer": 0,
      "byteOffset": 50960,
      "byteLength": 5784,
      "target": 34963
    }
  ],
  "accessors": [
    {
      "bufferView": 0,
      "componentType": 5126,
      "count": 1274,
      "type": "VEC3",
      "min": [
        -0.2454833984375,
        1.166015625,
        -0.08807373046875
      ],
      "max": [
        0.244140625,
        1.3251953125,
        0.264404296875
      ]
    },
    {
      "bufferView": 1,
      "componentType": 5126,
      "count": 1274,
      "type": "VEC3",
      "min": [
        -0.5019607843137255,
        -0.5019607843137255,
        -0.5019607843137255
      ],
      "max": [
        1,
        1,
        1
      ]
    },
    {
      "bufferView": 2,
      "componentType": 5126,
      "count": 1274,
      "type": "VEC2",
      "min": [
        0.18212890625,
        0.37548828125
      ],
      "max": [
        0.56640625,
        0.9423828125
      ]
    },
    {
      "bufferView": 3,
      "componentType": 5126,
      "count": 1274,
      "type": "VEC2",
      "min": [
        0,
        0.2548828125
      ],
      "max": [
        0.939453125,
        1
      ]
    },
    {
      "bufferView": 4,
      "componentType": 5123,
      "count": 2892,
      "type": "SCALAR",
      "min": [
        0
      ],
      "max": [
        1273
      ]
    }
  ],
  "extras": {
    "manifest": "Waist_Medium_Z2U1_AssCle.materials.json"
  }
}