{
  "asset": {
    "version": "2.0",
    "generator": "prefab-to-gltf"
  },
  "scene": 0,
  "scenes": [
    {
      "name": "Chest_LongSleeves_Z3U1_Ass",
      "nodes": [
        0
      ]
    }
  ],
  "nodes": [
    {
      "name": "Chest_Z3U_Medium_N",
      "translation": [
        0,
        0,
        0
      ],
      "rotation": [
        0,
        0,
        0,
        1
      ],
      "scale": [
        1,
        1,
        1
      ],
      "mesh": 0
    }
  ],
  "meshes": [
    {
      "name": "Chest_Z3U_Medium_N",
      "primitives": [
        {
          "attributes": {
            "POSITION": 0,
            "NORMAL": 1,
            "TEXCOORD_0": 2,
            "TEXCOORD_1": 3,
            "COLOR_0": 4
          },
          "indices": 5,
          "material": 0,
          "mode": 4
        }
      ]
    }
  ],
  "materials": [
    {
      "name": "Gradmat_Weapon",
      "pbrMetallicRoughness": {
        "baseColorFactor": [
          1,
          1,
          1,
          1
        ],
        "metallicFactor": 0,
        "roughnessFactor": 1
      },
      "doubleSided": true,
      "extras": {
        "diffuseTexture": "Character/Common/Texture/CustomGradient_WeaponALL.png",
        "specularTexture": null,
        "normalMap": null
      }
    }
  ],
  "buffers": [
    {
      "uri": "Chest_LongSleeves_Z3U1_Ass.bin",
      "byteLength": 442912
    }
  ],
  "bufferViews": [
    {
      "buffer": 0,
      "byteOffset": 0,
      "byteLength": 93576,
      "target": 34962
    },
    {
      "buffer": 0,
      "byteOffset": 93576,
      "byteLength": 93576,
      "target": 34962
    },
    {
      "buffer": 0,
      "byteOffset": 187152,
      "byteLength": 62384,
      "target": 34962
    },
    {
      "buffer": 0,
      "byteOffset": 249536,
      "byteLength": 62384,
      "target": 34962
    },
    {
      "buffer": 0,
      "byteOffset": 311920,
      "byteLength": 93576,
      "target": 34962
    },
    {
      "buffer": 0,
      "byteOffset": 405496,
      "byteLength": 37416,
      "target": 34963
    }
  ],
  "accessors": [
    {
      "bufferView": 0,
      "componentType": 5126,
      "count": 7798,
      "type": "VEC3",
      "min": [
        -0.66650390625,
        0.400146484375,
        -0.343505859375
      ],
      "max": [
        0.66650390625,
        1.9326171875,
        0.340087890625
      ]
    },
    {
      "bufferView": 1,
      "componentType": 5126,
      "count": 7798,
      "type": "VEC3",
      "min": [
        -0.5019607843137255,
        -0.5019607843137255,
        -0.5019607843137255
      ],
      "max": [
        1,
        1,
        1
      ]
    },
    {
      "bufferView": 2,
      "componentType": 5126,
      "count": 7798,
      "type": "VEC2",
      "min": [
        0.0272979736328125,
        0.032470703125
      ],
      "max": [
        0.97265625,
        0.99658203125
      ]
    },
    {
      "bufferView": 3,
      "componentType": 5126,
      "count": 7798,
      "type": "VEC2",
      "min": [
        0,
        0.111572265625
      ],
      "max": [
        0.94580078125,
        1
      ]
    },
    {
      "bufferView": 4,
      "componentType": 5126,
      "count": 5848.5,
      "type": "VEC4",
      "min": [
        0,
        0,
        0,
        0
      ],
      "max": [
        1,
        1,
        1,
        1
      ]
    },
    {
      "bufferView": 5,
      "componentType": 5123,
      "count": 18708,
      "type": "SCALAR",
      "min": [
        0
      ],
      "max": [
        7797
      ]
    }
  ],
  "extras": {
    "manifest": "Chest_LongSleeves_Z3U1_Ass.materials.json"
  }
}