{
  "asset": {
    "version": "2.0",
    "generator": "prefab-to-gltf"
  },
  "scene": 0,
  "scenes": [
    {
      "name": "Spear_Kobold_Lava_01",
      "nodes": [
        0
      ]
    }
  ],
  "nodes": [
    {
      "name": "Cylinder",
      "translation": [
        0,
        0,
        0
      ],
      "rotation": [
        0,
        0,
        0,
        1
      ],
      "scale": [
        1,
        1,
        1
      ],
      "mesh": 0
    }
  ],
  "meshes": [
    {
      "name": "Cylinder",
      "primitives": [
        {
          "attributes": {
            "POSITION": 0,
            "NORMAL": 1,
            "TEXCOORD_0": 2,
            "TEXCOORD_1": 3
          },
          "indices": 4,
          "material": 0,
          "mode": 4
        }
      ]
    }
  ],
  "materials": [
    {
      "name": "MatSlots_WEAPONS",
      "pbrMetallicRoughness": {
        "baseColorFactor": [
          1,
          1,
          1,
          1
        ],
        "metallicFactor": 0,
        "roughnessFactor": 1
      },
      "doubleSided": true,
      "extras": {
        "diffuseTexture": null,
        "specularTexture": null,
        "normalMap": null
      }
    },
    {
      "name": "Outline",
      "pbrMetallicRoughness": {
        "baseColorFactor": [
          1,
          1,
          1,
          1
        ],
        "metallicFactor": 0,
        "roughnessFactor": 1
      },
      "doubleSided": true,
      "extras": {
        "diffuseTexture": null,
        "specularTexture": null,
        "normalMap": null
      }
    }
  ],
  "buffers": [
    {
      "uri": "Spear_Kobold_Lava_01.bin",
      "byteLength": 53500
    }
  ],
  "bufferViews": [
    {
      "buffer": 0,
      "byteOffset": 0,
      "byteLength": 13908,
      "target": 34962
    },
    {
      "buffer": 0,
      "byteOffset": 13908,
      "byteLength": 13908,
      "target": 34962
    },
    {
      "buffer": 0,
      "byteOffset": 27816,
      "byteLength": 9272,
      "target": 34962
    },
    {
      "buffer": 0,
      "byteOffset": 37088,
      "byteLength": 9272,
      "target": 34962
    },
    {
      "buffer": 0,
      "byteOffset": 46360,
      "byteLength": 7140,
      "target": 34963
    }
  ],
  "accessors": [
    {
      "bufferView": 0,
      "componentType": 5126,
      "count": 1159,
      "type": "VEC3",
      "min": [
        -0.06572770327329636,
        -0.1225949302315712,
        -0.6446921825408936
      ],
      "max": [
        0.07815215736627579,
        0.15641243755817413,
        1.841592788696289
      ]
    },
    {
      "bufferView": 1,
      "componentType": 5126,
      "count": 1159,
      "type": "VEC3",
      "min": [
        -1,
        -0.999989926815033,
        -0.9997262954711914
      ],
      "max": [
        1,
        1,
        0.9892318248748779
      ]
    },
    {
      "bufferView": 2,
      "componentType": 5126,
      "count": 1159,
      "type": "VEC2",
      "min": [
        0.03087608329951763,
        0.03526026010513306
      ],
      "max": [
        0.2230011224746704,
        0.9947443008422852
      ]
    },
    {
      "bufferView": 3,
      "componentType": 5126,
      "count": 1159,
      "type": "VEC2",
      "min": [
        0.057184848934412,
        0.20225882530212402
      ],
      "max": [
        0.9685865044593811,
        0.9649034738540649
      ]
    },
    {
      "bufferView": 4,
      "componentType": 5123,
      "count": 3570,
      "type": "SCALAR",
      "min": [
        0
      ],
      "max": [
        1158
      ]
    }
  ],
  "extras": {
    "manifest": "Spear_Kobold_Lava_01.materials.json"
  }
}