{
  "asset": {
    "version": "2.0",
    "generator": "prefab-to-gltf"
  },
  "scene": 0,
  "scenes": [
    {
      "name": "Canine_MountHound_06",
      "nodes": [
        0
      ]
    }
  ],
  "nodes": [
    {
      "name": "Canine_MountDog_01",
      "translation": [
        0,
        0,
        0
      ],
      "rotation": [
        0,
        0,
        0,
        1
      ],
      "scale": [
        1,
        1,
        1
      ],
      "mesh": 0
    }
  ],
  "meshes": [
    {
      "name": "Canine_MountDog_01",
      "primitives": [
        {
          "attributes": {
            "POSITION": 0,
            "NORMAL": 1,
            "TEXCOORD_0": 2,
            "TEXCOORD_1": 3,
            "COLOR_0": 4
          },
          "indices": 5,
          "material": 0,
          "mode": 4
        }
      ]
    }
  ],
  "materials": [
    {
      "name": "standardSurface1",
      "pbrMetallicRoughness": {
        "baseColorFactor": [
          1,
          1,
          1,
          1
        ],
        "metallicFactor": 0,
        "roughnessFactor": 1
      },
      "doubleSided": true,
      "extras": {
        "diffuseTexture": null,
        "specularTexture": null,
        "normalMap": null
      }
    }
  ],
  "buffers": [
    {
      "uri": "Canine_MountHound_06.bin",
      "byteLength": 804334
    }
  ],
  "bufferViews": [
    {
      "buffer": 0,
      "byteOffset": 0,
      "byteLength": 163344,
      "target": 34962
    },
    {
      "buffer": 0,
      "byteOffset": 163344,
      "byteLength": 163344,
      "target": 34962
    },
    {
      "buffer": 0,
      "byteOffset": 326688,
      "byteLength": 108896,
      "target": 34962
    },
    {
      "buffer": 0,
      "byteOffset": 435584,
      "byteLength": 108896,
      "target": 34962
    },
    {
      "buffer": 0,
      "byteOffset": 544480,
      "byteLength": 163344,
      "target": 34962
    },
    {
      "buffer": 0,
      "byteOffset": 707824,
      "byteLength": 96510,
      "target": 34963
    }
  ],
  "accessors": [
    {
      "bufferView": 0,
      "componentType": 5126,
      "count": 13612,
      "type": "VEC3",
      "min": [
        -0.5507522821426392,
        -0.009761784225702286,
        -1.1610623598098755
      ],
      "max": [
        0.6337530016899109,
        2.050969123840332,
        1.4119731187820435
      ]
    },
    {
      "bufferView": 1,
      "componentType": 5126,
      "count": 13612,
      "type": "VEC3",
      "min": [
        -0.9998062252998352,
        -0.9999821782112122,
        -0.999891459941864
      ],
      "max": [
        0.9998061656951904,
        0.9999904632568359,
        0.9999635815620422
      ]
    },
    {
      "bufferView": 2,
      "componentType": 5126,
      "count": 13612,
      "type": "VEC2",
      "min": [
        0.010675392113626003,
        0.15190744400024414
      ],
      "max": [
        0.8163148164749146,
        0.9917886257171631
      ]
    },
    {
      "bufferView": 3,
      "componentType": 5126,
      "count": 13612,
      "type": "VEC2",
      "min": [
        0,
        0.056771159172058105
      ],
      "max": [
        0.9608768820762634,
        1
      ]
    },
    {
      "bufferView": 4,
      "componentType": 5126,
      "count": 10209,
      "type": "VEC4",
      "min": [
        0,
        0,
        0,
        0
      ],
      "max": [
        0.9999715685844421,
        0.9999715685844421,
        0.9999715685844421,
        0.9999715685844421
      ]
    },
    {
      "bufferView": 5,
      "componentType": 5123,
      "count": 48255,
      "type": "SCALAR",
      "min": [
        0
      ],
      "max": [
        13611
      ]
    }
  ],
  "extras": {
    "manifest": "Canine_MountHound_06.materials.json"
  }
}