{
  "asset": {
    "version": "2.0",
    "generator": "prefab-to-gltf"
  },
  "scene": 0,
  "scenes": [
    {
      "name": "LadyBug_Greenland_01",
      "nodes": [
        0
      ]
    }
  ],
  "nodes": [
    {
      "name": "LadyBug",
      "translation": [
        0,
        0,
        0
      ],
      "rotation": [
        0,
        0,
        0,
        1
      ],
      "scale": [
        1,
        1,
        1
      ],
      "mesh": 0
    }
  ],
  "meshes": [
    {
      "name": "LadyBug",
      "primitives": [
        {
          "attributes": {
            "POSITION": 0,
            "NORMAL": 1,
            "TEXCOORD_0": 2,
            "TEXCOORD_1": 3
          },
          "indices": 4,
          "material": 0,
          "mode": 4
        }
      ]
    }
  ],
  "materials": [
    {
      "name": "MatSlots_001",
      "pbrMetallicRoughness": {
        "baseColorFactor": [
          1,
          1,
          1,
          1
        ],
        "metallicFactor": 0,
        "roughnessFactor": 1
      },
      "doubleSided": true,
      "extras": {
        "diffuseTexture": "Character/Common/Texture/CustomGradient_Guard.png",
        "specularTexture": null,
        "normalMap": null
      }
    }
  ],
  "buffers": [
    {
      "uri": "LadyBug_Greenland_01.bin",
      "byteLength": 68168
    }
  ],
  "bufferViews": [
    {
      "buffer": 0,
      "byteOffset": 0,
      "byteLength": 16980,
      "target": 34962
    },
    {
      "buffer": 0,
      "byteOffset": 16980,
      "byteLength": 16980,
      "target": 34962
    },
    {
      "buffer": 0,
      "byteOffset": 33960,
      "byteLength": 11320,
      "target": 34962
    },
    {
      "buffer": 0,
      "byteOffset": 45280,
      "byteLength": 11320,
      "target": 34962
    },
    {
      "buffer": 0,
      "byteOffset": 56600,
      "byteLength": 11568,
      "target": 34963
    }
  ],
  "accessors": [
    {
      "bufferView": 0,
      "componentType": 5126,
      "count": 1415,
      "type": "VEC3",
      "min": [
        -0.40460696816444397,
        0.00287468614988029,
        -0.291586697101593
      ],
      "max": [
        0.40460696816444397,
        0.4828543961048126,
        0.4088784456253052
      ]
    },
    {
      "bufferView": 1,
      "componentType": 5126,
      "count": 1415,
      "type": "VEC3",
      "min": [
        -0.9985222220420837,
        -0.999968409538269,
        -0.9972615242004395
      ],
      "max": [
        0.9985222220420837,
        0.9991751909255981,
        0.9980170130729675
      ]
    },
    {
      "bufferView": 2,
      "componentType": 5126,
      "count": 1415,
      "type": "VEC2",
      "min": [
        0.04348757863044739,
        0.13914483785629272
      ],
      "max": [
        0.48093557357788086,
        0.9923473000526428
      ]
    },
    {
      "bufferView": 3,
      "componentType": 5126,
      "count": 1415,
      "type": "VEC2",
      "min": [
        0,
        0.19565045833587646
      ],
      "max": [
        0.9406606554985046,
        1
      ]
    },
    {
      "bufferView": 4,
      "componentType": 5123,
      "count": 5784,
      "type": "SCALAR",
      "min": [
        0
      ],
      "max": [
        1414
      ]
    }
  ],
  "extras": {
    "manifest": "LadyBug_Greenland_01.materials.json"
  }
}