{
  "asset": {
    "version": "2.0",
    "generator": "prefab-to-gltf"
  },
  "scene": 0,
  "scenes": [
    {
      "name": "Hair_Medium_UnderGear",
      "nodes": [
        0
      ]
    }
  ],
  "nodes": [
    {
      "name": "Hair_Medium_UnderGear",
      "translation": [
        0,
        0,
        0
      ],
      "rotation": [
        0,
        0,
        0,
        1
      ],
      "scale": [
        1,
        1,
        1
      ],
      "mesh": 0
    }
  ],
  "meshes": [
    {
      "name": "Hair_Medium_UnderGear",
      "primitives": [
        {
          "attributes": {
            "POSITION": 0,
            "NORMAL": 1,
            "TEXCOORD_0": 2,
            "TEXCOORD_1": 3
          },
          "indices": 4,
          "material": 0,
          "mode": 4
        }
      ]
    }
  ],
  "materials": [
    {
      "name": "Gradmat_Weapon",
      "pbrMetallicRoughness": {
        "baseColorFactor": [
          1,
          1,
          1,
          1
        ],
        "metallicFactor": 0,
        "roughnessFactor": 1
      },
      "doubleSided": true,
      "extras": {
        "diffuseTexture": "Character/Common/Texture/CustomGradient_Hero_Clothes.png",
        "specularTexture": null,
        "normalMap": null
      }
    }
  ],
  "buffers": [
    {
      "uri": "Hair_Medium_UnderGear.bin",
      "byteLength": 18700
    }
  ],
  "bufferViews": [
    {
      "buffer": 0,
      "byteOffset": 0,
      "byteLength": 4656,
      "target": 34962
    },
    {
      "buffer": 0,
      "byteOffset": 4656,
      "byteLength": 4656,
      "target": 34962
    },
    {
      "buffer": 0,
      "byteOffset": 9312,
      "byteLength": 3104,
      "target": 34962
    },
    {
      "buffer": 0,
      "byteOffset": 12416,
      "byteLength": 3104,
      "target": 34962
    },
    {
      "buffer": 0,
      "byteOffset": 15520,
      "byteLength": 3180,
      "target": 34963
    }
  ],
  "accessors": [
    {
      "bufferView": 0,
      "componentType": 5126,
      "count": 388,
      "type": "VEC3",
      "min": [
        -0.1400895118713379,
        1.8741486072540283,
        -0.08086027204990387
      ],
      "max": [
        0.14111916720867157,
        2.1025731563568115,
        0.12804602086544037
      ]
    },
    {
      "bufferView": 1,
      "componentType": 5126,
      "count": 388,
      "type": "VEC3",
      "min": [
        -0.9989593029022217,
        -0.9850537180900574,
        -0.997592031955719
      ],
      "max": [
        0.9988360404968262,
        0.7229090929031372,
        0.9992430806159973
      ]
    },
    {
      "bufferView": 2,
      "componentType": 5126,
      "count": 388,
      "type": "VEC2",
      "min": [
        0.14048592746257782,
        0.3024910092353821
      ],
      "max": [
        0.2173830270767212,
        0.8290406465530396
      ]
    },
    {
      "bufferView": 3,
      "componentType": 5126,
      "count": 388,
      "type": "VEC2",
      "min": [
        0.06224384158849716,
        0.9750305414199829
      ],
      "max": [
        0.06224391609430313,
        0.9750305414199829
      ]
    },
    {
      "bufferView": 4,
      "componentType": 5123,
      "count": 1590,
      "type": "SCALAR",
      "min": [
        0
      ],
      "max": [
        387
      ]
    }
  ],
  "extras": {
    "manifest": "Hair_Medium_UnderGear.materials.json"
  }
}