{
  "asset": {
    "version": "2.0",
    "generator": "prefab-to-gltf"
  },
  "scene": 0,
  "scenes": [
    {
      "name": "Hair_Medium_Dread_01",
      "nodes": [
        0
      ]
    }
  ],
  "nodes": [
    {
      "name": "Hair_Medium_Dread_01",
      "translation": [
        0,
        0,
        0
      ],
      "rotation": [
        0,
        0,
        0,
        1
      ],
      "scale": [
        1,
        1,
        1
      ],
      "mesh": 0
    }
  ],
  "meshes": [
    {
      "name": "Hair_Medium_Dread_01",
      "primitives": [
        {
          "attributes": {
            "POSITION": 0,
            "NORMAL": 1,
            "TEXCOORD_0": 2,
            "TEXCOORD_1": 3
          },
          "indices": 4,
          "material": 0,
          "mode": 4
        }
      ]
    }
  ],
  "materials": [
    {
      "name": "GradMat_Body",
      "pbrMetallicRoughness": {
        "baseColorFactor": [
          1,
          1,
          1,
          1
        ],
        "metallicFactor": 0,
        "roughnessFactor": 1
      },
      "doubleSided": true,
      "extras": {
        "diffuseTexture": "Character/Common/Texture/CustomGradient_BasicGuy.png",
        "specularTexture": null,
        "normalMap": null
      }
    }
  ],
  "buffers": [
    {
      "uri": "Hair_Medium_Dread_01.bin",
      "byteLength": 54090
    }
  ],
  "bufferViews": [
    {
      "buffer": 0,
      "byteOffset": 0,
      "byteLength": 13068,
      "target": 34962
    },
    {
      "buffer": 0,
      "byteOffset": 13068,
      "byteLength": 13068,
      "target": 34962
    },
    {
      "buffer": 0,
      "byteOffset": 26136,
      "byteLength": 8712,
      "target": 34962
    },
    {
      "buffer": 0,
      "byteOffset": 34848,
      "byteLength": 8712,
      "target": 34962
    },
    {
      "buffer": 0,
      "byteOffset": 43560,
      "byteLength": 10530,
      "target": 34963
    }
  ],
  "accessors": [
    {
      "bufferView": 0,
      "componentType": 5126,
      "count": 1089,
      "type": "VEC3",
      "min": [
        -0.1464555710554123,
        1.9339935779571533,
        -0.31531500816345215
      ],
      "max": [
        0.172387033700943,
        2.250208616256714,
        0.2359633445739746
      ]
    },
    {
      "bufferView": 1,
      "componentType": 5126,
      "count": 1089,
      "type": "VEC3",
      "min": [
        -0.9964697957038879,
        -0.9974157214164734,
        -0.9999491572380066
      ],
      "max": [
        0.9998571872711182,
        0.9982383251190186,
        0.9964777231216431
      ]
    },
    {
      "bufferView": 2,
      "componentType": 5126,
      "count": 1089,
      "type": "VEC2",
      "min": [
        0.14424291253089905,
        0.10517990589141846
      ],
      "max": [
        0.47059166431427,
        0.9488620162010193
      ]
    },
    {
      "bufferView": 3,
      "componentType": 5126,
      "count": 1089,
      "type": "VEC2",
      "min": [
        0.03953331708908081,
        0.5669676661491394
      ],
      "max": [
        0.9520561695098877,
        0.966731607913971
      ]
    },
    {
      "bufferView": 4,
      "componentType": 5123,
      "count": 5265,
      "type": "SCALAR",
      "min": [
        0
      ],
      "max": [
        1088
      ]
    }
  ],
  "extras": {
    "manifest": "Hair_Medium_Dread_01.materials.json"
  }
}