{
  "asset": {
    "version": "2.0",
    "generator": "prefab-to-gltf"
  },
  "scene": 0,
  "scenes": [
    {
      "name": "Hair_Medium_Bowl_02",
      "nodes": [
        0
      ]
    }
  ],
  "nodes": [
    {
      "name": "Hair_Medium_Bowl_02",
      "translation": [
        0,
        0,
        0
      ],
      "rotation": [
        0,
        0,
        0,
        1
      ],
      "scale": [
        1,
        1,
        1
      ],
      "mesh": 0
    }
  ],
  "meshes": [
    {
      "name": "Hair_Medium_Bowl_02",
      "primitives": [
        {
          "attributes": {
            "POSITION": 0,
            "NORMAL": 1,
            "TEXCOORD_0": 2,
            "TEXCOORD_1": 3,
            "COLOR_0": 4
          },
          "indices": 5,
          "material": 0,
          "mode": 4
        }
      ]
    }
  ],
  "materials": [
    {
      "name": "Gradmat_Weapon",
      "pbrMetallicRoughness": {
        "baseColorFactor": [
          1,
          1,
          1,
          1
        ],
        "metallicFactor": 0,
        "roughnessFactor": 1
      },
      "doubleSided": true,
      "extras": {
        "diffuseTexture": "Character/Common/Texture/CustomGradient_Hero_Clothes.png",
        "specularTexture": null,
        "normalMap": null
      }
    }
  ],
  "buffers": [
    {
      "uri": "Hair_Medium_Bowl_02.bin",
      "byteLength": 131810
    }
  ],
  "bufferViews": [
    {
      "buffer": 0,
      "byteOffset": 0,
      "byteLength": 26592,
      "target": 34962
    },
    {
      "buffer": 0,
      "byteOffset": 26592,
      "byteLength": 26592,
      "target": 34962
    },
    {
      "buffer": 0,
      "byteOffset": 53184,
      "byteLength": 17728,
      "target": 34962
    },
    {
      "buffer": 0,
      "byteOffset": 70912,
      "byteLength": 17728,
      "target": 34962
    },
    {
      "buffer": 0,
      "byteOffset": 88640,
      "byteLength": 26592,
      "target": 34962
    },
    {
      "buffer": 0,
      "byteOffset": 115232,
      "byteLength": 16578,
      "target": 34963
    }
  ],
  "accessors": [
    {
      "bufferView": 0,
      "componentType": 5126,
      "count": 2216,
      "type": "VEC3",
      "min": [
        -0.2776479125022888,
        1.790278434753418,
        -0.22736650705337524
      ],
      "max": [
        0.25328606367111206,
        2.239595651626587,
        0.2627849280834198
      ]
    },
    {
      "bufferView": 1,
      "componentType": 5126,
      "count": 2216,
      "type": "VEC3",
      "min": [
        -0.9999927282333374,
        -0.9970894455909729,
        -0.9999604225158691
      ],
      "max": [
        0.999878466129303,
        0.9990982413291931,
        0.9997745156288147
      ]
    },
    {
      "bufferView": 2,
      "componentType": 5126,
      "count": 2216,
      "type": "VEC2",
      "min": [
        0.15860576927661896,
        0.09376311302185059
      ],
      "max": [
        0.35173919796943665,
        0.8498839735984802
      ]
    },
    {
      "bufferView": 3,
      "componentType": 5126,
      "count": 2216,
      "type": "VEC2",
      "min": [
        0.07119888067245483,
        0.017042100429534912
      ],
      "max": [
        0.6682355999946594,
        0.9487918019294739
      ]
    },
    {
      "bufferView": 4,
      "componentType": 5126,
      "count": 1662,
      "type": "VEC4",
      "min": [
        0,
        0,
        0,
        0
      ],
      "max": [
        0.9999715685844421,
        0.9999715685844421,
        0.9999715685844421,
        0.9999715685844421
      ]
    },
    {
      "bufferView": 5,
      "componentType": 5123,
      "count": 8289,
      "type": "SCALAR",
      "min": [
        0
      ],
      "max": [
        2215
      ]
    }
  ],
  "extras": {
    "manifest": "Hair_Medium_Bowl_02.materials.json"
  }
}