{
  "asset": {
    "version": "2.0",
    "generator": "prefab-to-gltf"
  },
  "scene": 0,
  "scenes": [
    {
      "name": "Hair_Medium_Square",
      "nodes": [
        0
      ]
    }
  ],
  "nodes": [
    {
      "name": "Hair_Medium_Square",
      "translation": [
        0,
        0,
        0
      ],
      "rotation": [
        0,
        0,
        0,
        1
      ],
      "scale": [
        1,
        1,
        1
      ],
      "mesh": 0
    }
  ],
  "meshes": [
    {
      "name": "Hair_Medium_Square",
      "primitives": [
        {
          "attributes": {
            "POSITION": 0,
            "NORMAL": 1,
            "TEXCOORD_0": 2,
            "TEXCOORD_1": 3
          },
          "indices": 4,
          "material": 0,
          "mode": 4
        }
      ]
    }
  ],
  "materials": [
    {
      "name": "GradMat_Body",
      "pbrMetallicRoughness": {
        "baseColorFactor": [
          1,
          1,
          1,
          1
        ],
        "metallicFactor": 0,
        "roughnessFactor": 1
      },
      "doubleSided": true,
      "extras": {
        "diffuseTexture": "Character/Common/Texture/CustomGradient_RobinHoof.png",
        "specularTexture": null,
        "normalMap": null
      }
    }
  ],
  "buffers": [
    {
      "uri": "Hair_Medium_Square.bin",
      "byteLength": 79364
    }
  ],
  "bufferViews": [
    {
      "buffer": 0,
      "byteOffset": 0,
      "byteLength": 20436,
      "target": 34962
    },
    {
      "buffer": 0,
      "byteOffset": 20436,
      "byteLength": 20436,
      "target": 34962
    },
    {
      "buffer": 0,
      "byteOffset": 40872,
      "byteLength": 13624,
      "target": 34962
    },
    {
      "buffer": 0,
      "byteOffset": 54496,
      "byteLength": 13624,
      "target": 34962
    },
    {
      "buffer": 0,
      "byteOffset": 68120,
      "byteLength": 11244,
      "target": 34963
    }
  ],
  "accessors": [
    {
      "bufferView": 0,
      "componentType": 5126,
      "count": 1703,
      "type": "VEC3",
      "min": [
        -0.001848597195930779,
        -0.0028238974045962095,
        0.017967432737350464
      ],
      "max": [
        0.0019424635684117675,
        0.0016701699933037162,
        0.022054214030504227
      ]
    },
    {
      "bufferView": 1,
      "componentType": 5126,
      "count": 1703,
      "type": "VEC3",
      "min": [
        -0.9988948702812195,
        -0.9996156096458435,
        -0.9981989860534668
      ],
      "max": [
        0.9988585710525513,
        0.9990326762199402,
        0.9998798370361328
      ]
    },
    {
      "bufferView": 2,
      "componentType": 5126,
      "count": 1703,
      "type": "VEC2",
      "min": [
        0.1297692060470581,
        0.17026782035827637
      ],
      "max": [
        0.36562907695770264,
        0.7819463610649109
      ]
    },
    {
      "bufferView": 3,
      "componentType": 5126,
      "count": 1703,
      "type": "VEC2",
      "min": [
        0.2002425491809845,
        0.010841965675354004
      ],
      "max": [
        0.7412110567092896,
        0.9454376697540283
      ]
    },
    {
      "bufferView": 4,
      "componentType": 5123,
      "count": 5622,
      "type": "SCALAR",
      "min": [
        0
      ],
      "max": [
        1702
      ]
    }
  ],
  "extras": {
    "manifest": "Hair_Medium_Square.materials.json"
  }
}