{
  "asset": {
    "version": "2.0",
    "generator": "prefab-to-gltf"
  },
  "scene": 0,
  "scenes": [
    {
      "name": "Polearm_EcarlateGuard_Rare",
      "nodes": [
        0
      ]
    }
  ],
  "nodes": [
    {
      "name": "Polearm_EcarlateGuard_Rare",
      "translation": [
        0,
        0,
        0
      ],
      "rotation": [
        0.7071056365966797,
        0,
        0,
        0.7071079257745626
      ],
      "scale": [
        1,
        1,
        1
      ],
      "mesh": 0
    }
  ],
  "meshes": [
    {
      "name": "Polearm_EcarlateGuard_Rare",
      "primitives": [
        {
          "attributes": {
            "POSITION": 0,
            "NORMAL": 1,
            "TEXCOORD_0": 2,
            "TEXCOORD_1": 3
          },
          "indices": 4,
          "material": 0,
          "mode": 4
        }
      ]
    }
  ],
  "materials": [
    {
      "name": "lambert1",
      "pbrMetallicRoughness": {
        "baseColorFactor": [
          1,
          1,
          1,
          1
        ],
        "metallicFactor": 0,
        "roughnessFactor": 1
      },
      "doubleSided": true,
      "extras": {
        "diffuseTexture": null,
        "specularTexture": null,
        "normalMap": null
      }
    }
  ],
  "buffers": [
    {
      "uri": "Polearm_EcarlateGuard_Rare.bin",
      "byteLength": 77692
    }
  ],
  "bufferViews": [
    {
      "buffer": 0,
      "byteOffset": 0,
      "byteLength": 20676,
      "target": 34962
    },
    {
      "buffer": 0,
      "byteOffset": 20676,
      "byteLength": 20676,
      "target": 34962
    },
    {
      "buffer": 0,
      "byteOffset": 41352,
      "byteLength": 13784,
      "target": 34962
    },
    {
      "buffer": 0,
      "byteOffset": 55136,
      "byteLength": 13784,
      "target": 34962
    },
    {
      "buffer": 0,
      "byteOffset": 68920,
      "byteLength": 8772,
      "target": 34963
    }
  ],
  "accessors": [
    {
      "bufferView": 0,
      "componentType": 5126,
      "count": 1723,
      "type": "VEC3",
      "min": [
        -0.11156652122735977,
        -1.624333381652832,
        -0.4693905711174011
      ],
      "max": [
        0.11483832448720932,
        1.4114346504211426,
        0.42501235008239746
      ]
    },
    {
      "bufferView": 1,
      "componentType": 5126,
      "count": 1723,
      "type": "VEC3",
      "min": [
        -0.9999995231628418,
        -1,
        -0.9999992251396179
      ],
      "max": [
        0.9999995827674866,
        0.9999970197677612,
        0.9999992251396179
      ]
    },
    {
      "bufferView": 2,
      "componentType": 5126,
      "count": 1723,
      "type": "VEC2",
      "min": [
        0.05521094799041748,
        0.11023104190826416
      ],
      "max": [
        0.8428382277488708,
        0.8580254316329956
      ]
    },
    {
      "bufferView": 3,
      "componentType": 5126,
      "count": 1723,
      "type": "VEC2",
      "min": [
        0,
        0.08969688415527344
      ],
      "max": [
        0.9560406804084778,
        1
      ]
    },
    {
      "bufferView": 4,
      "componentType": 5123,
      "count": 4386,
      "type": "SCALAR",
      "min": [
        0
      ],
      "max": [
        1722
      ]
    }
  ],
  "extras": {
    "manifest": "Polearm_EcarlateGuard_Rare.materials.json"
  }
}