{
  "asset": {
    "version": "2.0",
    "generator": "prefab-to-gltf"
  },
  "scene": 0,
  "scenes": [
    {
      "name": "Polearm_EcarlateGuard_Common",
      "nodes": [
        0
      ]
    }
  ],
  "nodes": [
    {
      "name": "Polearm_EcarlateGuard_Common",
      "translation": [
        0,
        0,
        0
      ],
      "rotation": [
        0.7071056365966797,
        0,
        0,
        0.7071079257745626
      ],
      "scale": [
        1,
        1,
        1
      ],
      "mesh": 0
    }
  ],
  "meshes": [
    {
      "name": "Polearm_EcarlateGuard_Common",
      "primitives": [
        {
          "attributes": {
            "POSITION": 0,
            "NORMAL": 1,
            "TEXCOORD_0": 2,
            "TEXCOORD_1": 3
          },
          "indices": 4,
          "material": 0,
          "mode": 4
        }
      ]
    }
  ],
  "materials": [
    {
      "name": "lambert1",
      "pbrMetallicRoughness": {
        "baseColorFactor": [
          1,
          1,
          1,
          1
        ],
        "metallicFactor": 0,
        "roughnessFactor": 1
      },
      "doubleSided": true,
      "extras": {
        "diffuseTexture": null,
        "specularTexture": null,
        "normalMap": null
      }
    }
  ],
  "buffers": [
    {
      "uri": "Polearm_EcarlateGuard_Common.bin",
      "byteLength": 32592
    }
  ],
  "bufferViews": [
    {
      "buffer": 0,
      "byteOffset": 0,
      "byteLength": 8712,
      "target": 34962
    },
    {
      "buffer": 0,
      "byteOffset": 8712,
      "byteLength": 8712,
      "target": 34962
    },
    {
      "buffer": 0,
      "byteOffset": 17424,
      "byteLength": 5808,
      "target": 34962
    },
    {
      "buffer": 0,
      "byteOffset": 23232,
      "byteLength": 5808,
      "target": 34962
    },
    {
      "buffer": 0,
      "byteOffset": 29040,
      "byteLength": 3552,
      "target": 34963
    }
  ],
  "accessors": [
    {
      "bufferView": 0,
      "componentType": 5126,
      "count": 726,
      "type": "VEC3",
      "min": [
        -0.07151958346366882,
        -1.6214557886123657,
        -0.17572012543678284
      ],
      "max": [
        0.06948088854551315,
        1.240788459777832,
        0.3899497985839844
      ]
    },
    {
      "bufferView": 1,
      "componentType": 5126,
      "count": 726,
      "type": "VEC3",
      "min": [
        -1,
        -1,
        -0.9999998211860657
      ],
      "max": [
        1,
        0.9993368983268738,
        0.9999958872795105
      ]
    },
    {
      "bufferView": 2,
      "componentType": 5126,
      "count": 726,
      "type": "VEC2",
      "min": [
        0.02947714552283287,
        0.11152142286300659
      ],
      "max": [
        0.23303775489330292,
        0.8195121884346008
      ]
    },
    {
      "bufferView": 3,
      "componentType": 5126,
      "count": 726,
      "type": "VEC2",
      "min": [
        0.01563325524330139,
        0.026240825653076172
      ],
      "max": [
        0.9005874991416931,
        0.9700095653533936
      ]
    },
    {
      "bufferView": 4,
      "componentType": 5123,
      "count": 1776,
      "type": "SCALAR",
      "min": [
        0
      ],
      "max": [
        725
      ]
    }
  ],
  "extras": {
    "manifest": "Polearm_EcarlateGuard_Common.materials.json"
  }
}