{
  "asset": {
    "version": "2.0",
    "generator": "prefab-to-gltf"
  },
  "scene": 0,
  "scenes": [
    {
      "name": "Polearm_EcarlateGuard_Epic01",
      "nodes": [
        0
      ]
    }
  ],
  "nodes": [
    {
      "name": "Polearm_EcarlateGuard_Epic",
      "translation": [
        0,
        0,
        0
      ],
      "rotation": [
        0.7071056365966797,
        0,
        0,
        0.7071079257745626
      ],
      "scale": [
        1,
        1,
        1
      ],
      "mesh": 0
    }
  ],
  "meshes": [
    {
      "name": "Polearm_EcarlateGuard_Epic",
      "primitives": [
        {
          "attributes": {
            "POSITION": 0,
            "NORMAL": 1,
            "TEXCOORD_0": 2,
            "TEXCOORD_1": 3
          },
          "indices": 4,
          "material": 0,
          "mode": 4
        }
      ]
    }
  ],
  "materials": [
    {
      "name": "lambert1",
      "pbrMetallicRoughness": {
        "baseColorFactor": [
          1,
          1,
          1,
          1
        ],
        "metallicFactor": 0,
        "roughnessFactor": 1
      },
      "doubleSided": true,
      "extras": {
        "diffuseTexture": null,
        "specularTexture": null,
        "normalMap": null
      }
    }
  ],
  "buffers": [
    {
      "uri": "Polearm_EcarlateGuard_Epic01.bin",
      "byteLength": 211298
    }
  ],
  "bufferViews": [
    {
      "buffer": 0,
      "byteOffset": 0,
      "byteLength": 56040,
      "target": 34962
    },
    {
      "buffer": 0,
      "byteOffset": 56040,
      "byteLength": 56040,
      "target": 34962
    },
    {
      "buffer": 0,
      "byteOffset": 112080,
      "byteLength": 37360,
      "target": 34962
    },
    {
      "buffer": 0,
      "byteOffset": 149440,
      "byteLength": 37360,
      "target": 34962
    },
    {
      "buffer": 0,
      "byteOffset": 186800,
      "byteLength": 24498,
      "target": 34963
    }
  ],
  "accessors": [
    {
      "bufferView": 0,
      "componentType": 5126,
      "count": 4670,
      "type": "VEC3",
      "min": [
        -0.3365936279296875,
        -1.6687489748001099,
        -0.6105318665504456
      ],
      "max": [
        0.3365936279296875,
        1.4061931371688843,
        0.4861040413379669
      ]
    },
    {
      "bufferView": 1,
      "componentType": 5126,
      "count": 4670,
      "type": "VEC3",
      "min": [
        -1,
        -1,
        -1
      ],
      "max": [
        1,
        1,
        1
      ]
    },
    {
      "bufferView": 2,
      "componentType": 5126,
      "count": 4670,
      "type": "VEC2",
      "min": [
        0.15297865867614746,
        0.07124292850494385
      ],
      "max": [
        0.9560412168502808,
        0.9906535148620605
      ]
    },
    {
      "bufferView": 3,
      "componentType": 5126,
      "count": 4670,
      "type": "VEC2",
      "min": [
        0,
        0.03645801544189453
      ],
      "max": [
        0.9659559726715088,
        1
      ]
    },
    {
      "bufferView": 4,
      "componentType": 5123,
      "count": 12249,
      "type": "SCALAR",
      "min": [
        0
      ],
      "max": [
        4669
      ]
    }
  ],
  "extras": {
    "manifest": "Polearm_EcarlateGuard_Epic01.materials.json"
  }
}