{
  "asset": {
    "version": "2.0",
    "generator": "prefab-to-gltf"
  },
  "scene": 0,
  "scenes": [
    {
      "name": "DS_R9_R1CrimsonR_FigAss",
      "nodes": [
        0
      ]
    }
  ],
  "nodes": [
    {
      "name": "DS_R9_R1CrimsonR_FigAss",
      "translation": [
        0,
        0,
        0
      ],
      "rotation": [
        0,
        0,
        0,
        1
      ],
      "scale": [
        1,
        1,
        1
      ],
      "mesh": 0
    }
  ],
  "meshes": [
    {
      "name": "DS_R9_R1CrimsonR_FigAss",
      "primitives": [
        {
          "attributes": {
            "POSITION": 0,
            "NORMAL": 1,
            "TEXCOORD_0": 2,
            "TEXCOORD_1": 3,
            "COLOR_0": 4
          },
          "indices": 5,
          "material": 0,
          "mode": 4
        }
      ]
    }
  ],
  "materials": [
    {
      "name": "Gradmat",
      "pbrMetallicRoughness": {
        "baseColorFactor": [
          1,
          1,
          1,
          1
        ],
        "metallicFactor": 0,
        "roughnessFactor": 1
      },
      "doubleSided": true,
      "extras": {
        "diffuseTexture": null,
        "specularTexture": null,
        "normalMap": null
      }
    },
    {
      "name": "Outline_001",
      "pbrMetallicRoughness": {
        "baseColorFactor": [
          1,
          1,
          1,
          1
        ],
        "metallicFactor": 0,
        "roughnessFactor": 1
      },
      "doubleSided": true,
      "extras": {
        "diffuseTexture": null,
        "specularTexture": null,
        "normalMap": null
      }
    }
  ],
  "buffers": [
    {
      "uri": "DS_R9_R1CrimsonR_FigAss.bin",
      "byteLength": 101724
    }
  ],
  "bufferViews": [
    {
      "buffer": 0,
      "byteOffset": 0,
      "byteLength": 21420,
      "target": 34962
    },
    {
      "buffer": 0,
      "byteOffset": 21420,
      "byteLength": 21420,
      "target": 34962
    },
    {
      "buffer": 0,
      "byteOffset": 42840,
      "byteLength": 14280,
      "target": 34962
    },
    {
      "buffer": 0,
      "byteOffset": 57120,
      "byteLength": 14280,
      "target": 34962
    },
    {
      "buffer": 0,
      "byteOffset": 71400,
      "byteLength": 21420,
      "target": 34962
    },
    {
      "buffer": 0,
      "byteOffset": 92820,
      "byteLength": 8904,
      "target": 34963
    }
  ],
  "accessors": [
    {
      "bufferView": 0,
      "componentType": 5126,
      "count": 1785,
      "type": "VEC3",
      "min": [
        -0.1629403978586197,
        -0.06042187288403511,
        -0.35311514139175415
      ],
      "max": [
        0.1629403978586197,
        0.06042187288403511,
        1.3482670783996582
      ]
    },
    {
      "bufferView": 1,
      "componentType": 5126,
      "count": 1785,
      "type": "VEC3",
      "min": [
        -0.9999914765357971,
        -1,
        -1
      ],
      "max": [
        0.9999902248382568,
        1,
        0.966685950756073
      ]
    },
    {
      "bufferView": 2,
      "componentType": 5126,
      "count": 1785,
      "type": "VEC2",
      "min": [
        0.030008479952812195,
        0.22259104251861572
      ],
      "max": [
        0.47700443863868713,
        0.9341103434562683
      ]
    },
    {
      "bufferView": 3,
      "componentType": 5126,
      "count": 1785,
      "type": "VEC2",
      "min": [
        0,
        0.18582367897033691
      ],
      "max": [
        0.963819146156311,
        1
      ]
    },
    {
      "bufferView": 4,
      "componentType": 5126,
      "count": 1338.75,
      "type": "VEC4",
      "min": [
        0,
        0,
        0,
        0
      ],
      "max": [
        1,
        1,
        1,
        1
      ]
    },
    {
      "bufferView": 5,
      "componentType": 5123,
      "count": 4452,
      "type": "SCALAR",
      "min": [
        0
      ],
      "max": [
        1784
      ]
    }
  ],
  "extras": {
    "manifest": "DS_R9_R1CrimsonR_FigAss.materials.json"
  }
}