{
  "asset": {
    "version": "2.0",
    "generator": "prefab-to-gltf"
  },
  "scene": 0,
  "scenes": [
    {
      "name": "GS_Kobold_SerratedKnife",
      "nodes": [
        0
      ]
    }
  ],
  "nodes": [
    {
      "name": "GreatSword_SerratedKnife",
      "translation": [
        0,
        0,
        0
      ],
      "rotation": [
        0,
        0,
        0,
        1
      ],
      "scale": [
        1,
        1,
        1
      ],
      "mesh": 0
    }
  ],
  "meshes": [
    {
      "name": "GreatSword_SerratedKnife",
      "primitives": [
        {
          "attributes": {
            "POSITION": 0,
            "NORMAL": 1,
            "TEXCOORD_0": 2,
            "TEXCOORD_1": 3
          },
          "indices": 4,
          "material": 0,
          "mode": 4
        }
      ]
    }
  ],
  "materials": [
    {
      "name": "MatSlots_WEAPONS",
      "pbrMetallicRoughness": {
        "baseColorFactor": [
          1,
          1,
          1,
          1
        ],
        "metallicFactor": 0,
        "roughnessFactor": 1
      },
      "doubleSided": true,
      "extras": {
        "diffuseTexture": null,
        "specularTexture": null,
        "normalMap": null
      }
    },
    {
      "name": "Outline",
      "pbrMetallicRoughness": {
        "baseColorFactor": [
          1,
          1,
          1,
          1
        ],
        "metallicFactor": 0,
        "roughnessFactor": 1
      },
      "doubleSided": true,
      "extras": {
        "diffuseTexture": null,
        "specularTexture": null,
        "normalMap": null
      }
    }
  ],
  "buffers": [
    {
      "uri": "GS_Kobold_SerratedKnife.bin",
      "byteLength": 180288
    }
  ],
  "bufferViews": [
    {
      "buffer": 0,
      "byteOffset": 0,
      "byteLength": 47124,
      "target": 34962
    },
    {
      "buffer": 0,
      "byteOffset": 47124,
      "byteLength": 47124,
      "target": 34962
    },
    {
      "buffer": 0,
      "byteOffset": 94248,
      "byteLength": 31416,
      "target": 34962
    },
    {
      "buffer": 0,
      "byteOffset": 125664,
      "byteLength": 31416,
      "target": 34962
    },
    {
      "buffer": 0,
      "byteOffset": 157080,
      "byteLength": 23208,
      "target": 34963
    }
  ],
  "accessors": [
    {
      "bufferView": 0,
      "componentType": 5126,
      "count": 3927,
      "type": "VEC3",
      "min": [
        -0.1428428441286087,
        -0.5080150365829468,
        -0.8505762815475464
      ],
      "max": [
        0.1428428441286087,
        0.34323906898498535,
        2.0012383460998535
      ]
    },
    {
      "bufferView": 1,
      "componentType": 5126,
      "count": 3927,
      "type": "VEC3",
      "min": [
        -1,
        -0.9999999403953552,
        -0.9964386820793152
      ],
      "max": [
        1,
        0.9999999403953552,
        1
      ]
    },
    {
      "bufferView": 2,
      "componentType": 5126,
      "count": 3927,
      "type": "VEC2",
      "min": [
        0.02856808342039585,
        0.006322979927062988
      ],
      "max": [
        0.4675251543521881,
        0.8758573532104492
      ]
    },
    {
      "bufferView": 3,
      "componentType": 5126,
      "count": 3927,
      "type": "VEC2",
      "min": [
        0,
        0.11004316806793213
      ],
      "max": [
        0.9663841128349304,
        1
      ]
    },
    {
      "bufferView": 4,
      "componentType": 5123,
      "count": 11604,
      "type": "SCALAR",
      "min": [
        0
      ],
      "max": [
        3926
      ]
    }
  ],
  "extras": {
    "manifest": "GS_Kobold_SerratedKnife.materials.json"
  }
}