{
  "asset": {
    "version": "2.0",
    "generator": "prefab-to-gltf"
  },
  "scene": 0,
  "scenes": [
    {
      "name": "GS_R3_R1Mines_Fig",
      "nodes": [
        0
      ]
    }
  ],
  "nodes": [
    {
      "name": "GS_R3_R1Mines_Fig",
      "translation": [
        0,
        0,
        0
      ],
      "rotation": [
        0,
        0,
        0,
        1
      ],
      "scale": [
        1,
        1,
        1
      ],
      "mesh": 0
    }
  ],
  "meshes": [
    {
      "name": "GS_R3_R1Mines_Fig",
      "primitives": [
        {
          "attributes": {
            "POSITION": 0,
            "NORMAL": 1,
            "TEXCOORD_0": 2,
            "TEXCOORD_1": 3
          },
          "indices": 4,
          "material": 0,
          "mode": 4
        }
      ]
    }
  ],
  "materials": [
    {
      "name": "standardSurface1",
      "pbrMetallicRoughness": {
        "baseColorFactor": [
          1,
          1,
          1,
          1
        ],
        "metallicFactor": 0,
        "roughnessFactor": 1
      },
      "doubleSided": true,
      "extras": {
        "diffuseTexture": null,
        "specularTexture": null,
        "normalMap": null
      }
    }
  ],
  "buffers": [
    {
      "uri": "GS_R3_R1Mines_Fig.bin",
      "byteLength": 42812
    }
  ],
  "bufferViews": [
    {
      "buffer": 0,
      "byteOffset": 0,
      "byteLength": 11400,
      "target": 34962
    },
    {
      "buffer": 0,
      "byteOffset": 11400,
      "byteLength": 11400,
      "target": 34962
    },
    {
      "buffer": 0,
      "byteOffset": 22800,
      "byteLength": 7600,
      "target": 34962
    },
    {
      "buffer": 0,
      "byteOffset": 30400,
      "byteLength": 7600,
      "target": 34962
    },
    {
      "buffer": 0,
      "byteOffset": 38000,
      "byteLength": 4812,
      "target": 34963
    }
  ],
  "accessors": [
    {
      "bufferView": 0,
      "componentType": 5126,
      "count": 950,
      "type": "VEC3",
      "min": [
        -0.14955399930477142,
        -0.8157481551170349,
        -0.3261357545852661
      ],
      "max": [
        0.15144456923007965,
        1.9270094633102417,
        0.2952125072479248
      ]
    },
    {
      "bufferView": 1,
      "componentType": 5126,
      "count": 950,
      "type": "VEC3",
      "min": [
        -0.9999710917472839,
        -1,
        -0.9999850988388062
      ],
      "max": [
        0.9998281598091125,
        0.9999697804450989,
        0.9999957084655762
      ]
    },
    {
      "bufferView": 2,
      "componentType": 5126,
      "count": 950,
      "type": "VEC2",
      "min": [
        0.0194360613822937,
        0.11028021574020386
      ],
      "max": [
        0.3310519754886627,
        0.8931927680969238
      ]
    },
    {
      "bufferView": 3,
      "componentType": 5126,
      "count": 950,
      "type": "VEC2",
      "min": [
        0,
        0.37731969356536865
      ],
      "max": [
        0.9512834548950195,
        1
      ]
    },
    {
      "bufferView": 4,
      "componentType": 5123,
      "count": 2406,
      "type": "SCALAR",
      "min": [
        0
      ],
      "max": [
        949
      ]
    }
  ],
  "extras": {
    "manifest": "GS_R3_R1Mines_Fig.materials.json"
  }
}