{
  "asset": {
    "version": "2.0",
    "generator": "prefab-to-gltf"
  },
  "scene": 0,
  "scenes": [
    {
      "name": "Shield_Kobold_Lava_01",
      "nodes": [
        0
      ]
    }
  ],
  "nodes": [
    {
      "name": "Shield_LavaKobold_01",
      "translation": [
        0,
        0,
        0
      ],
      "rotation": [
        0,
        0,
        0,
        1
      ],
      "scale": [
        1,
        1,
        1
      ],
      "mesh": 0
    }
  ],
  "meshes": [
    {
      "name": "Shield_LavaKobold_01",
      "primitives": [
        {
          "attributes": {
            "POSITION": 0,
            "NORMAL": 1,
            "TEXCOORD_0": 2,
            "TEXCOORD_1": 3
          },
          "indices": 4,
          "material": 0,
          "mode": 4
        },
        {
          "attributes": {
            "POSITION": 5,
            "NORMAL": 6,
            "TEXCOORD_0": 7,
            "TEXCOORD_1": 8
          },
          "indices": 9,
          "material": 1,
          "mode": 4
        }
      ]
    }
  ],
  "materials": [
    {
      "name": "GradMat",
      "pbrMetallicRoughness": {
        "baseColorFactor": [
          1,
          1,
          1,
          1
        ],
        "metallicFactor": 0,
        "roughnessFactor": 1
      },
      "doubleSided": true,
      "extras": {
        "diffuseTexture": null,
        "specularTexture": null,
        "normalMap": null
      }
    },
    {
      "name": "Outline",
      "pbrMetallicRoughness": {
        "baseColorFactor": [
          1,
          1,
          1,
          1
        ],
        "metallicFactor": 0,
        "roughnessFactor": 1
      },
      "doubleSided": true,
      "extras": {
        "diffuseTexture": null,
        "specularTexture": null,
        "normalMap": null
      }
    }
  ],
  "buffers": [
    {
      "uri": "Shield_Kobold_Lava_01.bin",
      "byteLength": 330656
    }
  ],
  "bufferViews": [
    {
      "buffer": 0,
      "byteOffset": 0,
      "byteLength": 45120,
      "target": 34962
    },
    {
      "buffer": 0,
      "byteOffset": 45120,
      "byteLength": 45120,
      "target": 34962
    },
    {
      "buffer": 0,
      "byteOffset": 90240,
      "byteLength": 30080,
      "target": 34962
    },
    {
      "buffer": 0,
      "byteOffset": 120320,
      "byteLength": 30080,
      "target": 34962
    },
    {
      "buffer": 0,
      "byteOffset": 150400,
      "byteLength": 14928,
      "target": 34963
    },
    {
      "buffer": 0,
      "byteOffset": 165328,
      "byteLength": 45120,
      "target": 34962
    },
    {
      "buffer": 0,
      "byteOffset": 210448,
      "byteLength": 45120,
      "target": 34962
    },
    {
      "buffer": 0,
      "byteOffset": 255568,
      "byteLength": 30080,
      "target": 34962
    },
    {
      "buffer": 0,
      "byteOffset": 285648,
      "byteLength": 30080,
      "target": 34962
    },
    {
      "buffer": 0,
      "byteOffset": 315728,
      "byteLength": 14928,
      "target": 34963
    }
  ],
  "accessors": [
    {
      "bufferView": 0,
      "componentType": 5126,
      "count": 3760,
      "type": "VEC3",
      "min": [
        -0.4675516188144684,
        -0.17040470242500305,
        -0.7265622019767761
      ],
      "max": [
        0.46337100863456726,
        0.15514124929904938,
        0.5324002504348755
      ]
    },
    {
      "bufferView": 1,
      "componentType": 5126,
      "count": 3760,
      "type": "VEC3",
      "min": [
        -0.9991336464881897,
        -0.999843955039978,
        -0.9998608827590942
      ],
      "max": [
        0.9987392425537109,
        0.999891996383667,
        0.9998875856399536
      ]
    },
    {
      "bufferView": 2,
      "componentType": 5126,
      "count": 3760,
      "type": "VEC2",
      "min": [
        0.022982601076364517,
        0.46455907821655273
      ],
      "max": [
        0.18551726639270782,
        0.9944056272506714
      ]
    },
    {
      "bufferView": 3,
      "componentType": 5126,
      "count": 3760,
      "type": "VEC2",
      "min": [
        0.021289190277457237,
        0.09808468818664551
      ],
      "max": [
        0.46825820207595825,
        0.9589552283287048
      ]
    },
    {
      "bufferView": 4,
      "componentType": 5123,
      "count": 7464,
      "type": "SCALAR",
      "min": [
        0
      ],
      "max": [
        3694
      ]
    },
    {
      "bufferView": 5,
      "componentType": 5126,
      "count": 3760,
      "type": "VEC3",
      "min": [
        -0.4675516188144684,
        -0.17040470242500305,
        -0.7265622019767761
      ],
      "max": [
        0.46337100863456726,
        0.15514124929904938,
        0.5324002504348755
      ]
    },
    {
      "bufferView": 6,
      "componentType": 5126,
      "count": 3760,
      "type": "VEC3",
      "min": [
        -0.9991336464881897,
        -0.999843955039978,
        -0.9998608827590942
      ],
      "max": [
        0.9987392425537109,
        0.999891996383667,
        0.9998875856399536
      ]
    },
    {
      "bufferView": 7,
      "componentType": 5126,
      "count": 3760,
      "type": "VEC2",
      "min": [
        0.022982601076364517,
        0.46455907821655273
      ],
      "max": [
        0.18551726639270782,
        0.9944056272506714
      ]
    },
    {
      "bufferView": 8,
      "componentType": 5126,
      "count": 3760,
      "type": "VEC2",
      "min": [
        0.021289190277457237,
        0.09808468818664551
      ],
      "max": [
        0.46825820207595825,
        0.9589552283287048
      ]
    },
    {
      "bufferView": 9,
      "componentType": 5123,
      "count": 7464,
      "type": "SCALAR",
      "min": [
        0
      ],
      "max": [
        3759
      ]
    }
  ],
  "extras": {
    "manifest": "Shield_Kobold_Lava_01.materials.json"
  }
}