{
  "asset": {
    "version": "2.0",
    "generator": "prefab-to-gltf"
  },
  "scene": 0,
  "scenes": [
    {
      "name": "Shield_RX_R1Crabgantua",
      "nodes": [
        0
      ]
    }
  ],
  "nodes": [
    {
      "name": "Shield_RX_R1Crabgantua",
      "translation": [
        0,
        0,
        0
      ],
      "rotation": [
        0,
        0,
        0,
        1
      ],
      "scale": [
        1,
        1,
        1
      ],
      "mesh": 0
    }
  ],
  "meshes": [
    {
      "name": "Shield_RX_R1Crabgantua",
      "primitives": [
        {
          "attributes": {
            "POSITION": 0,
            "NORMAL": 1,
            "TEXCOORD_0": 2,
            "TEXCOORD_1": 3
          },
          "indices": 4,
          "material": 0,
          "mode": 4
        }
      ]
    }
  ],
  "materials": [
    {
      "name": "MatSlots_WEAPONS",
      "pbrMetallicRoughness": {
        "baseColorFactor": [
          1,
          1,
          1,
          1
        ],
        "metallicFactor": 0,
        "roughnessFactor": 1
      },
      "doubleSided": true,
      "extras": {
        "diffuseTexture": null,
        "specularTexture": null,
        "normalMap": null
      }
    },
    {
      "name": "Outline",
      "pbrMetallicRoughness": {
        "baseColorFactor": [
          1,
          1,
          1,
          1
        ],
        "metallicFactor": 0,
        "roughnessFactor": 1
      },
      "doubleSided": true,
      "extras": {
        "diffuseTexture": null,
        "specularTexture": null,
        "normalMap": null
      }
    }
  ],
  "buffers": [
    {
      "uri": "Shield_RX_R1Crabgantua.bin",
      "byteLength": 158096
    }
  ],
  "bufferViews": [
    {
      "buffer": 0,
      "byteOffset": 0,
      "byteLength": 40740,
      "target": 34962
    },
    {
      "buffer": 0,
      "byteOffset": 40740,
      "byteLength": 40740,
      "target": 34962
    },
    {
      "buffer": 0,
      "byteOffset": 81480,
      "byteLength": 27160,
      "target": 34962
    },
    {
      "buffer": 0,
      "byteOffset": 108640,
      "byteLength": 27160,
      "target": 34962
    },
    {
      "buffer": 0,
      "byteOffset": 135800,
      "byteLength": 22296,
      "target": 34963
    }
  ],
  "accessors": [
    {
      "bufferView": 0,
      "componentType": 5126,
      "count": 3395,
      "type": "VEC3",
      "min": [
        -0.5010069012641907,
        -0.16114990413188934,
        -0.752460777759552
      ],
      "max": [
        0.5123389959335327,
        0.33444955945014954,
        0.6747102737426758
      ]
    },
    {
      "bufferView": 1,
      "componentType": 5126,
      "count": 3395,
      "type": "VEC3",
      "min": [
        -0.9992775321006775,
        -0.9999701976776123,
        -0.9994946122169495
      ],
      "max": [
        0.9993789792060852,
        0.999970018863678,
        0.998785674571991
      ]
    },
    {
      "bufferView": 2,
      "componentType": 5126,
      "count": 3395,
      "type": "VEC2",
      "min": [
        0.014275193214416504,
        0.3286270499229431
      ],
      "max": [
        0.7169052362442017,
        0.9675201773643494
      ]
    },
    {
      "bufferView": 3,
      "componentType": 5126,
      "count": 3395,
      "type": "VEC2",
      "min": [
        0,
        0.04615598917007446
      ],
      "max": [
        0.9402500987052917,
        1
      ]
    },
    {
      "bufferView": 4,
      "componentType": 5123,
      "count": 11148,
      "type": "SCALAR",
      "min": [
        0
      ],
      "max": [
        3394
      ]
    }
  ],
  "extras": {
    "manifest": "Shield_RX_R1Crabgantua.materials.json"
  }
}