{
  "asset": {
    "version": "2.0",
    "generator": "prefab-to-gltf"
  },
  "scene": 0,
  "scenes": [
    {
      "name": "Shield_Guard_Basic_01",
      "nodes": [
        0
      ]
    }
  ],
  "nodes": [
    {
      "name": "Guard_Shield",
      "translation": [
        0,
        0,
        0
      ],
      "rotation": [
        0.7071056365966797,
        0,
        0,
        0.7071079257745626
      ],
      "scale": [
        1,
        1,
        1
      ],
      "mesh": 0
    }
  ],
  "meshes": [
    {
      "name": "Guard_Shield",
      "primitives": [
        {
          "attributes": {
            "POSITION": 0,
            "NORMAL": 1,
            "TEXCOORD_0": 2,
            "TEXCOORD_1": 3
          },
          "indices": 4,
          "material": 0,
          "mode": 4
        }
      ]
    }
  ],
  "materials": [
    {
      "name": "MatSlots_Weapons",
      "pbrMetallicRoughness": {
        "baseColorFactor": [
          1,
          1,
          1,
          1
        ],
        "metallicFactor": 0,
        "roughnessFactor": 1
      },
      "doubleSided": true,
      "extras": {
        "diffuseTexture": "Character/Common/Texture/CustomGradient_WeaponALL.png",
        "specularTexture": null,
        "normalMap": null
      }
    }
  ],
  "buffers": [
    {
      "uri": "Shield_Guard_Basic_01.bin",
      "byteLength": 68720
    }
  ],
  "bufferViews": [
    {
      "buffer": 0,
      "byteOffset": 0,
      "byteLength": 18240,
      "target": 34962
    },
    {
      "buffer": 0,
      "byteOffset": 18240,
      "byteLength": 18240,
      "target": 34962
    },
    {
      "buffer": 0,
      "byteOffset": 36480,
      "byteLength": 12160,
      "target": 34962
    },
    {
      "buffer": 0,
      "byteOffset": 48640,
      "byteLength": 12160,
      "target": 34962
    },
    {
      "buffer": 0,
      "byteOffset": 60800,
      "byteLength": 7920,
      "target": 34963
    }
  ],
  "accessors": [
    {
      "bufferView": 0,
      "componentType": 5126,
      "count": 1520,
      "type": "VEC3",
      "min": [
        -0.5206208825111389,
        -0.39451301097869873,
        -0.11952225863933563
      ],
      "max": [
        0.5206208825111389,
        0.38913318514823914,
        0.20594827830791473
      ]
    },
    {
      "bufferView": 1,
      "componentType": 5126,
      "count": 1520,
      "type": "VEC3",
      "min": [
        -0.9997326731681824,
        -0.9989450573921204,
        -0.9999983310699463
      ],
      "max": [
        0.9965499639511108,
        0.999711275100708,
        0.9999998807907104
      ]
    },
    {
      "bufferView": 2,
      "componentType": 5126,
      "count": 1520,
      "type": "VEC2",
      "min": [
        0.04515635967254639,
        0.220816969871521
      ],
      "max": [
        0.47840186953544617,
        0.8965330123901367
      ]
    },
    {
      "bufferView": 3,
      "componentType": 5126,
      "count": 1520,
      "type": "VEC2",
      "min": [
        0.029663175344467163,
        0.10817897319793701
      ],
      "max": [
        0.9311709403991699,
        0.9675844311714172
      ]
    },
    {
      "bufferView": 4,
      "componentType": 5123,
      "count": 3960,
      "type": "SCALAR",
      "min": [
        0
      ],
      "max": [
        1519
      ]
    }
  ],
  "extras": {
    "manifest": "Shield_Guard_Basic_01.materials.json"
  }
}