{
  "asset": {
    "version": "2.0",
    "generator": "prefab-to-gltf"
  },
  "scene": 0,
  "scenes": [
    {
      "name": "Shield_R4_R1Craft_Fig",
      "nodes": [
        0
      ]
    }
  ],
  "nodes": [
    {
      "name": "Shield_R4_R1Craft_Fig",
      "translation": [
        0,
        0,
        0
      ],
      "rotation": [
        0,
        0,
        0,
        1
      ],
      "scale": [
        1,
        1,
        1
      ],
      "mesh": 0
    }
  ],
  "meshes": [
    {
      "name": "Shield_R4_R1Craft_Fig",
      "primitives": [
        {
          "attributes": {
            "POSITION": 0,
            "NORMAL": 1,
            "TEXCOORD_0": 2,
            "TEXCOORD_1": 3,
            "COLOR_0": 4
          },
          "indices": 5,
          "material": 0,
          "mode": 4
        }
      ]
    }
  ],
  "materials": [
    {
      "name": "MatSlots_WEAPONS",
      "pbrMetallicRoughness": {
        "baseColorFactor": [
          1,
          1,
          1,
          1
        ],
        "metallicFactor": 0,
        "roughnessFactor": 1
      },
      "doubleSided": true,
      "extras": {
        "diffuseTexture": null,
        "specularTexture": null,
        "normalMap": null
      }
    },
    {
      "name": "Outline",
      "pbrMetallicRoughness": {
        "baseColorFactor": [
          1,
          1,
          1,
          1
        ],
        "metallicFactor": 0,
        "roughnessFactor": 1
      },
      "doubleSided": true,
      "extras": {
        "diffuseTexture": null,
        "specularTexture": null,
        "normalMap": null
      }
    }
  ],
  "buffers": [
    {
      "uri": "Shield_R4_R1Craft_Fig.bin",
      "byteLength": 114652
    }
  ],
  "bufferViews": [
    {
      "buffer": 0,
      "byteOffset": 0,
      "byteLength": 23736,
      "target": 34962
    },
    {
      "buffer": 0,
      "byteOffset": 23736,
      "byteLength": 23736,
      "target": 34962
    },
    {
      "buffer": 0,
      "byteOffset": 47472,
      "byteLength": 15824,
      "target": 34962
    },
    {
      "buffer": 0,
      "byteOffset": 63296,
      "byteLength": 15824,
      "target": 34962
    },
    {
      "buffer": 0,
      "byteOffset": 79120,
      "byteLength": 23736,
      "target": 34962
    },
    {
      "buffer": 0,
      "byteOffset": 102856,
      "byteLength": 11796,
      "target": 34963
    }
  ],
  "accessors": [
    {
      "bufferView": 0,
      "componentType": 5126,
      "count": 1978,
      "type": "VEC3",
      "min": [
        -0.41660210490226746,
        -0.20634818077087402,
        -0.5723501443862915
      ],
      "max": [
        0.4852326214313507,
        0.23801776766777039,
        0.5892136096954346
      ]
    },
    {
      "bufferView": 1,
      "componentType": 5126,
      "count": 1978,
      "type": "VEC3",
      "min": [
        -0.9999740719795227,
        -0.9999510645866394,
        -0.9999956488609314
      ],
      "max": [
        0.9987788200378418,
        0.9999328255653381,
        0.9999627470970154
      ]
    },
    {
      "bufferView": 2,
      "componentType": 5126,
      "count": 1978,
      "type": "VEC2",
      "min": [
        0.024122484028339386,
        0.260448157787323
      ],
      "max": [
        0.4718833565711975,
        0.9173519015312195
      ]
    },
    {
      "bufferView": 3,
      "componentType": 5126,
      "count": 1978,
      "type": "VEC2",
      "min": [
        0,
        0.11935722827911377
      ],
      "max": [
        0.9502975940704346,
        1
      ]
    },
    {
      "bufferView": 4,
      "componentType": 5126,
      "count": 1483.5,
      "type": "VEC4",
      "min": [
        0,
        0,
        0,
        0
      ],
      "max": [
        1,
        1,
        1,
        1
      ]
    },
    {
      "bufferView": 5,
      "componentType": 5123,
      "count": 5898,
      "type": "SCALAR",
      "min": [
        0
      ],
      "max": [
        1977
      ]
    }
  ],
  "extras": {
    "manifest": "Shield_R4_R1Craft_Fig.materials.json"
  }
}