{
  "asset": {
    "version": "2.0",
    "generator": "prefab-to-gltf"
  },
  "scene": 0,
  "scenes": [
    {
      "name": "Back_Long_Endgame_AssCle",
      "nodes": [
        0
      ]
    }
  ],
  "nodes": [
    {
      "name": "Back_Endgame_Ass_N",
      "translation": [
        0,
        0,
        0
      ],
      "rotation": [
        0,
        0,
        0,
        1
      ],
      "scale": [
        1,
        1,
        1
      ],
      "mesh": 0,
      "children": [
        1
      ]
    },
    {
      "name": "ASS_ENDGAME",
      "translation": [
        0,
        0,
        0
      ],
      "rotation": [
        0.7071067690849304,
        0,
        0,
        0.7071067932881644
      ],
      "scale": [
        1,
        1,
        1
      ]
    }
  ],
  "meshes": [
    {
      "name": "Back_Endgame_Ass_N",
      "primitives": [
        {
          "attributes": {
            "POSITION": 0,
            "NORMAL": 1,
            "TEXCOORD_0": 2,
            "TEXCOORD_1": 3
          },
          "indices": 4,
          "material": 0,
          "mode": 4
        }
      ]
    }
  ],
  "materials": [
    {
      "name": "GradMat_Body",
      "pbrMetallicRoughness": {
        "baseColorFactor": [
          1,
          1,
          1,
          1
        ],
        "metallicFactor": 0,
        "roughnessFactor": 1
      },
      "doubleSided": true,
      "extras": {
        "diffuseTexture": "Character/Common/Texture/CustomGradient_RobinHoof.png",
        "specularTexture": null,
        "normalMap": null
      }
    }
  ],
  "buffers": [
    {
      "uri": "Back_Long_Endgame_AssCle.bin",
      "byteLength": 81024
    }
  ],
  "bufferViews": [
    {
      "buffer": 0,
      "byteOffset": 0,
      "byteLength": 21492,
      "target": 34962
    },
    {
      "buffer": 0,
      "byteOffset": 21492,
      "byteLength": 21492,
      "target": 34962
    },
    {
      "buffer": 0,
      "byteOffset": 42984,
      "byteLength": 14328,
      "target": 34962
    },
    {
      "buffer": 0,
      "byteOffset": 57312,
      "byteLength": 14328,
      "target": 34962
    },
    {
      "buffer": 0,
      "byteOffset": 71640,
      "byteLength": 9384,
      "target": 34963
    }
  ],
  "accessors": [
    {
      "bufferView": 0,
      "componentType": 5126,
      "count": 1791,
      "type": "VEC3",
      "min": [
        -0.4111328125,
        0.430908203125,
        -0.261474609375
      ],
      "max": [
        0.427490234375,
        1.876953125,
        0.2471923828125
      ]
    },
    {
      "bufferView": 1,
      "componentType": 5126,
      "count": 1791,
      "type": "VEC3",
      "min": [
        -0.5019607843137255,
        -0.5019607843137255,
        -0.5019607843137255
      ],
      "max": [
        1,
        1,
        1
      ]
    },
    {
      "bufferView": 2,
      "componentType": 5126,
      "count": 1791,
      "type": "VEC2",
      "min": [
        0.13525390625,
        0.39501953125
      ],
      "max": [
        0.56689453125,
        0.998046875
      ]
    },
    {
      "bufferView": 3,
      "componentType": 5126,
      "count": 1791,
      "type": "VEC2",
      "min": [
        0,
        0.2486572265625
      ],
      "max": [
        0.93896484375,
        1
      ]
    },
    {
      "bufferView": 4,
      "componentType": 5123,
      "count": 4692,
      "type": "SCALAR",
      "min": [
        0
      ],
      "max": [
        1790
      ]
    }
  ],
  "extras": {
    "manifest": "Back_Long_Endgame_AssCle.materials.json"
  }
}