{
  "asset": {
    "version": "2.0",
    "generator": "prefab-to-gltf"
  },
  "scene": 0,
  "scenes": [
    {
      "name": "Hands_Forearm_Endgame_AssCle",
      "nodes": [
        0
      ]
    }
  ],
  "nodes": [
    {
      "name": "Hands_Endgame_Ass_N",
      "translation": [
        0,
        0,
        0
      ],
      "rotation": [
        0,
        0,
        0,
        1
      ],
      "scale": [
        1,
        1,
        1
      ],
      "mesh": 0
    }
  ],
  "meshes": [
    {
      "name": "Hands_Endgame_Ass_N",
      "primitives": [
        {
          "attributes": {
            "POSITION": 0,
            "NORMAL": 1,
            "TEXCOORD_0": 2,
            "TEXCOORD_1": 3
          },
          "indices": 4,
          "material": 0,
          "mode": 4
        }
      ]
    }
  ],
  "materials": [
    {
      "name": "MatSlots_FIGCLE",
      "pbrMetallicRoughness": {
        "baseColorFactor": [
          1,
          1,
          1,
          1
        ],
        "metallicFactor": 0,
        "roughnessFactor": 1
      },
      "doubleSided": true,
      "extras": {
        "diffuseTexture": null,
        "specularTexture": null,
        "normalMap": null
      }
    }
  ],
  "buffers": [
    {
      "uri": "Hands_Forearm_Endgame_AssCle.bin",
      "byteLength": 233800
    }
  ],
  "bufferViews": [
    {
      "buffer": 0,
      "byteOffset": 0,
      "byteLength": 62040,
      "target": 34962
    },
    {
      "buffer": 0,
      "byteOffset": 62040,
      "byteLength": 62040,
      "target": 34962
    },
    {
      "buffer": 0,
      "byteOffset": 124080,
      "byteLength": 41360,
      "target": 34962
    },
    {
      "buffer": 0,
      "byteOffset": 165440,
      "byteLength": 41360,
      "target": 34962
    },
    {
      "buffer": 0,
      "byteOffset": 206800,
      "byteLength": 27000,
      "target": 34963
    }
  ],
  "accessors": [
    {
      "bufferView": 0,
      "componentType": 5126,
      "count": 5170,
      "type": "VEC3",
      "min": [
        -0.81201171875,
        0.9814453125,
        -0.046539306640625
      ],
      "max": [
        0.81201171875,
        1.5556640625,
        0.337646484375
      ]
    },
    {
      "bufferView": 1,
      "componentType": 5126,
      "count": 5170,
      "type": "VEC3",
      "min": [
        -0.5019607843137255,
        -0.5019607843137255,
        -0.5019607843137255
      ],
      "max": [
        1,
        1,
        1
      ]
    },
    {
      "bufferView": 2,
      "componentType": 5126,
      "count": 5170,
      "type": "VEC2",
      "min": [
        0.1689453125,
        0.51513671875
      ],
      "max": [
        0.484130859375,
        0.974609375
      ]
    },
    {
      "bufferView": 3,
      "componentType": 5126,
      "count": 5170,
      "type": "VEC2",
      "min": [
        0,
        0.09991455078125
      ],
      "max": [
        0.94970703125,
        1.0009765625
      ]
    },
    {
      "bufferView": 4,
      "componentType": 5123,
      "count": 13500,
      "type": "SCALAR",
      "min": [
        0
      ],
      "max": [
        5169
      ]
    }
  ],
  "extras": {
    "manifest": "Hands_Forearm_Endgame_AssCle.materials.json"
  }
}