{
  "asset": {
    "version": "2.0",
    "generator": "prefab-to-gltf"
  },
  "scene": 0,
  "scenes": [
    {
      "name": "Legs_Whole_Endgame_AssCle",
      "nodes": [
        0
      ]
    }
  ],
  "nodes": [
    {
      "name": "Legs_Endgame_Ass_N",
      "translation": [
        0,
        0,
        0
      ],
      "rotation": [
        0,
        0,
        0,
        1
      ],
      "scale": [
        1,
        1,
        1
      ],
      "mesh": 0
    }
  ],
  "meshes": [
    {
      "name": "Legs_Endgame_Ass_N",
      "primitives": [
        {
          "attributes": {
            "POSITION": 0,
            "NORMAL": 1,
            "TEXCOORD_0": 2,
            "TEXCOORD_1": 3
          },
          "indices": 4,
          "material": 0,
          "mode": 4
        }
      ]
    }
  ],
  "materials": [
    {
      "name": "GradMat_Body",
      "pbrMetallicRoughness": {
        "baseColorFactor": [
          1,
          1,
          1,
          1
        ],
        "metallicFactor": 0,
        "roughnessFactor": 1
      },
      "doubleSided": true,
      "extras": {
        "diffuseTexture": "Character/Common/Texture/CustomGradient_RobinHoof.png",
        "specularTexture": null,
        "normalMap": null
      }
    }
  ],
  "buffers": [
    {
      "uri": "Legs_Whole_Endgame_AssCle.bin",
      "byteLength": 173432
    }
  ],
  "bufferViews": [
    {
      "buffer": 0,
      "byteOffset": 0,
      "byteLength": 46824,
      "target": 34962
    },
    {
      "buffer": 0,
      "byteOffset": 46824,
      "byteLength": 46824,
      "target": 34962
    },
    {
      "buffer": 0,
      "byteOffset": 93648,
      "byteLength": 31216,
      "target": 34962
    },
    {
      "buffer": 0,
      "byteOffset": 124864,
      "byteLength": 31216,
      "target": 34962
    },
    {
      "buffer": 0,
      "byteOffset": 156080,
      "byteLength": 17352,
      "target": 34963
    }
  ],
  "accessors": [
    {
      "bufferView": 0,
      "componentType": 5126,
      "count": 3902,
      "type": "VEC3",
      "min": [
        -0.370361328125,
        0.08514404296875,
        -0.09075927734375
      ],
      "max": [
        0.370361328125,
        1.2763671875,
        0.253173828125
      ]
    },
    {
      "bufferView": 1,
      "componentType": 5126,
      "count": 3902,
      "type": "VEC3",
      "min": [
        -0.5019607843137255,
        -0.5019607843137255,
        -0.5019607843137255
      ],
      "max": [
        1,
        1,
        1
      ]
    },
    {
      "bufferView": 2,
      "componentType": 5126,
      "count": 3902,
      "type": "VEC2",
      "min": [
        0.07232666015625,
        0.348876953125
      ],
      "max": [
        0.93310546875,
        0.99853515625
      ]
    },
    {
      "bufferView": 3,
      "componentType": 5126,
      "count": 3902,
      "type": "VEC2",
      "min": [
        0,
        0.120361328125
      ],
      "max": [
        0.94287109375,
        1
      ]
    },
    {
      "bufferView": 4,
      "componentType": 5123,
      "count": 8676,
      "type": "SCALAR",
      "min": [
        0
      ],
      "max": [
        3901
      ]
    }
  ],
  "extras": {
    "manifest": "Legs_Whole_Endgame_AssCle.materials.json"
  }
}