{
  "asset": {
    "version": "2.0",
    "generator": "prefab-to-gltf"
  },
  "scene": 0,
  "scenes": [
    {
      "name": "Waist_Medium_Endgame_AssCle",
      "nodes": [
        0
      ]
    }
  ],
  "nodes": [
    {
      "name": "Waist_Endgame_Ass_N",
      "translation": [
        0,
        0,
        0
      ],
      "rotation": [
        0,
        0,
        0,
        1
      ],
      "scale": [
        1,
        1,
        1
      ],
      "mesh": 0
    }
  ],
  "meshes": [
    {
      "name": "Waist_Endgame_Ass_N",
      "primitives": [
        {
          "attributes": {
            "POSITION": 0,
            "NORMAL": 1,
            "TEXCOORD_0": 2,
            "TEXCOORD_1": 3
          },
          "indices": 4,
          "material": 0,
          "mode": 4
        }
      ]
    }
  ],
  "materials": [
    {
      "name": "GradMat_Body",
      "pbrMetallicRoughness": {
        "baseColorFactor": [
          1,
          1,
          1,
          1
        ],
        "metallicFactor": 0,
        "roughnessFactor": 1
      },
      "doubleSided": true,
      "extras": {
        "diffuseTexture": "Character/Common/Texture/CustomGradient_RobinHoof.png",
        "specularTexture": null,
        "normalMap": null
      }
    }
  ],
  "buffers": [
    {
      "uri": "Waist_Medium_Endgame_AssCle.bin",
      "byteLength": 64884
    }
  ],
  "bufferViews": [
    {
      "buffer": 0,
      "byteOffset": 0,
      "byteLength": 17352,
      "target": 34962
    },
    {
      "buffer": 0,
      "byteOffset": 17352,
      "byteLength": 17352,
      "target": 34962
    },
    {
      "buffer": 0,
      "byteOffset": 34704,
      "byteLength": 11568,
      "target": 34962
    },
    {
      "buffer": 0,
      "byteOffset": 46272,
      "byteLength": 11568,
      "target": 34962
    },
    {
      "buffer": 0,
      "byteOffset": 57840,
      "byteLength": 7044,
      "target": 34963
    }
  ],
  "accessors": [
    {
      "bufferView": 0,
      "componentType": 5126,
      "count": 1446,
      "type": "VEC3",
      "min": [
        -0.2213134765625,
        1.16015625,
        -0.07177734375
      ],
      "max": [
        0.2213134765625,
        1.310546875,
        0.280517578125
      ]
    },
    {
      "bufferView": 1,
      "componentType": 5126,
      "count": 1446,
      "type": "VEC3",
      "min": [
        -0.5019607843137255,
        -0.49411764705882355,
        -0.5019607843137255
      ],
      "max": [
        1,
        1,
        1
      ]
    },
    {
      "bufferView": 2,
      "componentType": 5126,
      "count": 1446,
      "type": "VEC2",
      "min": [
        0.1424560546875,
        0.59716796875
      ],
      "max": [
        0.9345703125,
        0.98388671875
      ]
    },
    {
      "bufferView": 3,
      "componentType": 5126,
      "count": 1446,
      "type": "VEC2",
      "min": [
        0,
        0.387451171875
      ],
      "max": [
        0.93798828125,
        1
      ]
    },
    {
      "bufferView": 4,
      "componentType": 5123,
      "count": 3522,
      "type": "SCALAR",
      "min": [
        0
      ],
      "max": [
        1445
      ]
    }
  ],
  "extras": {
    "manifest": "Waist_Medium_Endgame_AssCle.materials.json"
  }
}