{
  "asset": {
    "version": "2.0",
    "generator": "prefab-to-gltf"
  },
  "scene": 0,
  "scenes": [
    {
      "name": "HumanBeast_Demon_Elite",
      "nodes": [
        0
      ]
    }
  ],
  "nodes": [
    {
      "name": "HumanBeast_Demon_Elite",
      "translation": [
        0,
        0,
        0
      ],
      "rotation": [
        0,
        0,
        0,
        1
      ],
      "scale": [
        1,
        1,
        1
      ],
      "mesh": 0
    }
  ],
  "meshes": [
    {
      "name": "HumanBeast_Demon_Elite",
      "primitives": [
        {
          "attributes": {
            "POSITION": 0,
            "NORMAL": 1,
            "TEXCOORD_0": 2,
            "TEXCOORD_1": 3
          },
          "indices": 4,
          "material": 0,
          "mode": 4
        }
      ]
    }
  ],
  "materials": [
    {
      "name": "standardSurface1",
      "pbrMetallicRoughness": {
        "baseColorFactor": [
          1,
          1,
          1,
          1
        ],
        "metallicFactor": 0,
        "roughnessFactor": 1
      },
      "doubleSided": true,
      "extras": {
        "diffuseTexture": null,
        "specularTexture": null,
        "normalMap": null
      }
    }
  ],
  "buffers": [
    {
      "uri": "HumanBeast_Demon_Elite.bin",
      "byteLength": 354024
    }
  ],
  "bufferViews": [
    {
      "buffer": 0,
      "byteOffset": 0,
      "byteLength": 91332,
      "target": 34962
    },
    {
      "buffer": 0,
      "byteOffset": 91332,
      "byteLength": 91332,
      "target": 34962
    },
    {
      "buffer": 0,
      "byteOffset": 182664,
      "byteLength": 60888,
      "target": 34962
    },
    {
      "buffer": 0,
      "byteOffset": 243552,
      "byteLength": 60888,
      "target": 34962
    },
    {
      "buffer": 0,
      "byteOffset": 304440,
      "byteLength": 49584,
      "target": 34963
    }
  ],
  "accessors": [
    {
      "bufferView": 0,
      "componentType": 5126,
      "count": 7611,
      "type": "VEC3",
      "min": [
        -0.870602548122406,
        -0.003918500617146492,
        -2.972641706466675
      ],
      "max": [
        0.870602548122406,
        2.455939292907715,
        0.5237371325492859
      ]
    },
    {
      "bufferView": 1,
      "componentType": 5126,
      "count": 7611,
      "type": "VEC3",
      "min": [
        -1,
        -0.9999988079071045,
        -0.9999781847000122
      ],
      "max": [
        1,
        0.9992491602897644,
        1
      ]
    },
    {
      "bufferView": 2,
      "componentType": 5126,
      "count": 7611,
      "type": "VEC2",
      "min": [
        0.0071542346850037575,
        0.037201762199401855
      ],
      "max": [
        0.6145431399345398,
        0.9940038323402405
      ]
    },
    {
      "bufferView": 3,
      "componentType": 5126,
      "count": 7611,
      "type": "VEC2",
      "min": [
        0,
        0.09164315462112427
      ],
      "max": [
        0.9498879909515381,
        1
      ]
    },
    {
      "bufferView": 4,
      "componentType": 5123,
      "count": 24792,
      "type": "SCALAR",
      "min": [
        0
      ],
      "max": [
        7610
      ]
    }
  ],
  "extras": {
    "manifest": "HumanBeast_Demon_Elite.materials.json"
  }
}