{
  "asset": {
    "version": "2.0",
    "generator": "prefab-to-gltf"
  },
  "scene": 0,
  "scenes": [
    {
      "name": "HumanBeast_Demon_SuperElite",
      "nodes": [
        0
      ]
    }
  ],
  "nodes": [
    {
      "name": "HumanBeast_Demon_SuperElite",
      "translation": [
        0,
        0,
        0
      ],
      "rotation": [
        0,
        0,
        0,
        1
      ],
      "scale": [
        1,
        1,
        1
      ],
      "mesh": 0
    }
  ],
  "meshes": [
    {
      "name": "HumanBeast_Demon_SuperElite",
      "primitives": [
        {
          "attributes": {
            "POSITION": 0,
            "NORMAL": 1,
            "TEXCOORD_0": 2,
            "TEXCOORD_1": 3,
            "COLOR_0": 4
          },
          "indices": 5,
          "material": 0,
          "mode": 4
        },
        {
          "attributes": {
            "POSITION": 6,
            "NORMAL": 7,
            "TEXCOORD_0": 8,
            "TEXCOORD_1": 9,
            "COLOR_0": 10
          },
          "indices": 11,
          "material": 1,
          "mode": 4
        }
      ]
    }
  ],
  "materials": [
    {
      "name": "MatSlots",
      "pbrMetallicRoughness": {
        "baseColorFactor": [
          1,
          1,
          1,
          1
        ],
        "metallicFactor": 0,
        "roughnessFactor": 1
      },
      "doubleSided": true,
      "extras": {
        "diffuseTexture": "Character/Common/Texture/CustomGradient_WeaponALL.png",
        "specularTexture": null,
        "normalMap": null
      }
    },
    {
      "name": "Matslot02",
      "pbrMetallicRoughness": {
        "baseColorFactor": [
          1,
          1,
          1,
          1
        ],
        "metallicFactor": 0,
        "roughnessFactor": 1
      },
      "doubleSided": true,
      "extras": {
        "diffuseTexture": "Character/Common/Texture/CustomGradient_Guard.png",
        "specularTexture": null,
        "normalMap": null
      }
    }
  ],
  "buffers": [
    {
      "uri": "HumanBeast_Demon_SuperElite.bin",
      "byteLength": 1305244
    }
  ],
  "bufferViews": [
    {
      "buffer": 0,
      "byteOffset": 0,
      "byteLength": 142116,
      "target": 34962
    },
    {
      "buffer": 0,
      "byteOffset": 142116,
      "byteLength": 142116,
      "target": 34962
    },
    {
      "buffer": 0,
      "byteOffset": 284232,
      "byteLength": 94744,
      "target": 34962
    },
    {
      "buffer": 0,
      "byteOffset": 378976,
      "byteLength": 94744,
      "target": 34962
    },
    {
      "buffer": 0,
      "byteOffset": 473720,
      "byteLength": 142116,
      "target": 34962
    },
    {
      "buffer": 0,
      "byteOffset": 615836,
      "byteLength": 44364,
      "target": 34963
    },
    {
      "buffer": 0,
      "byteOffset": 660200,
      "byteLength": 142116,
      "target": 34962
    },
    {
      "buffer": 0,
      "byteOffset": 802316,
      "byteLength": 142116,
      "target": 34962
    },
    {
      "buffer": 0,
      "byteOffset": 944432,
      "byteLength": 94744,
      "target": 34962
    },
    {
      "buffer": 0,
      "byteOffset": 1039176,
      "byteLength": 94744,
      "target": 34962
    },
    {
      "buffer": 0,
      "byteOffset": 1133920,
      "byteLength": 142116,
      "target": 34962
    },
    {
      "buffer": 0,
      "byteOffset": 1276036,
      "byteLength": 29208,
      "target": 34963
    }
  ],
  "accessors": [
    {
      "bufferView": 0,
      "componentType": 5126,
      "count": 11843,
      "type": "VEC3",
      "min": [
        -0.869312047958374,
        -0.003912652842700481,
        -2.9880740642547607
      ],
      "max": [
        0.869312047958374,
        2.2986159324645996,
        0.6206048727035522
      ]
    },
    {
      "bufferView": 1,
      "componentType": 5126,
      "count": 11843,
      "type": "VEC3",
      "min": [
        -1,
        -0.9999977946281433,
        -0.9999919533729553
      ],
      "max": [
        1,
        1,
        0.9999949336051941
      ]
    },
    {
      "bufferView": 2,
      "componentType": 5126,
      "count": 11843,
      "type": "VEC2",
      "min": [
        0.027508310973644257,
        0.08097171783447266
      ],
      "max": [
        0.4888010025024414,
        0.9758219718933105
      ]
    },
    {
      "bufferView": 3,
      "componentType": 5126,
      "count": 11843,
      "type": "VEC2",
      "min": [
        0,
        0.09164315462112427
      ],
      "max": [
        0.9476591348648071,
        1
      ]
    },
    {
      "bufferView": 4,
      "componentType": 5126,
      "count": 8882.25,
      "type": "VEC4",
      "min": [
        0,
        0,
        0,
        0
      ],
      "max": [
        0.9999715685844421,
        0.9999715685844421,
        0.9999715685844421,
        0.9999715685844421
      ]
    },
    {
      "bufferView": 5,
      "componentType": 5123,
      "count": 22182,
      "type": "SCALAR",
      "min": [
        0
      ],
      "max": [
        6613
      ]
    },
    {
      "bufferView": 6,
      "componentType": 5126,
      "count": 11843,
      "type": "VEC3",
      "min": [
        -0.869312047958374,
        -0.003912652842700481,
        -2.9880740642547607
      ],
      "max": [
        0.869312047958374,
        2.2986159324645996,
        0.6206048727035522
      ]
    },
    {
      "bufferView": 7,
      "componentType": 5126,
      "count": 11843,
      "type": "VEC3",
      "min": [
        -1,
        -0.9999977946281433,
        -0.9999919533729553
      ],
      "max": [
        1,
        1,
        0.9999949336051941
      ]
    },
    {
      "bufferView": 8,
      "componentType": 5126,
      "count": 11843,
      "type": "VEC2",
      "min": [
        0.027508310973644257,
        0.08097171783447266
      ],
      "max": [
        0.4888010025024414,
        0.9758219718933105
      ]
    },
    {
      "bufferView": 9,
      "componentType": 5126,
      "count": 11843,
      "type": "VEC2",
      "min": [
        0,
        0.09164315462112427
      ],
      "max": [
        0.9476591348648071,
        1
      ]
    },
    {
      "bufferView": 10,
      "componentType": 5126,
      "count": 8882.25,
      "type": "VEC4",
      "min": [
        0,
        0,
        0,
        0
      ],
      "max": [
        0.9999715685844421,
        0.9999715685844421,
        0.9999715685844421,
        0.9999715685844421
      ]
    },
    {
      "bufferView": 11,
      "componentType": 5123,
      "count": 14604,
      "type": "SCALAR",
      "min": [
        0
      ],
      "max": [
        11842
      ]
    }
  ],
  "extras": {
    "manifest": "HumanBeast_Demon_SuperElite.materials.json"
  }
}