{
  "asset": {
    "version": "2.0",
    "generator": "prefab-to-gltf"
  },
  "scene": 0,
  "scenes": [
    {
      "name": "HumanBeast_Demon_Black",
      "nodes": [
        0
      ]
    }
  ],
  "nodes": [
    {
      "name": "HumanBeast_Demon01",
      "translation": [
        0,
        0,
        0
      ],
      "rotation": [
        0,
        0,
        0,
        1
      ],
      "scale": [
        1,
        1,
        1
      ],
      "mesh": 0
    }
  ],
  "meshes": [
    {
      "name": "HumanBeast_Demon01",
      "primitives": [
        {
          "attributes": {
            "POSITION": 0,
            "NORMAL": 1,
            "TEXCOORD_0": 2,
            "TEXCOORD_1": 3
          },
          "indices": 4,
          "material": 0,
          "mode": 4
        }
      ]
    }
  ],
  "materials": [
    {
      "name": "lambert1",
      "pbrMetallicRoughness": {
        "baseColorFactor": [
          1,
          1,
          1,
          1
        ],
        "metallicFactor": 0,
        "roughnessFactor": 1
      },
      "doubleSided": true,
      "extras": {
        "diffuseTexture": null,
        "specularTexture": null,
        "normalMap": null
      }
    }
  ],
  "buffers": [
    {
      "uri": "HumanBeast_Demon_Black.bin",
      "byteLength": 286468
    }
  ],
  "bufferViews": [
    {
      "buffer": 0,
      "byteOffset": 0,
      "byteLength": 74460,
      "target": 34962
    },
    {
      "buffer": 0,
      "byteOffset": 74460,
      "byteLength": 74460,
      "target": 34962
    },
    {
      "buffer": 0,
      "byteOffset": 148920,
      "byteLength": 49640,
      "target": 34962
    },
    {
      "buffer": 0,
      "byteOffset": 198560,
      "byteLength": 49640,
      "target": 34962
    },
    {
      "buffer": 0,
      "byteOffset": 248200,
      "byteLength": 38268,
      "target": 34963
    }
  ],
  "accessors": [
    {
      "bufferView": 0,
      "componentType": 5126,
      "count": 6205,
      "type": "VEC3",
      "min": [
        -0.8710936903953552,
        -0.003920711111277342,
        -2.974318265914917
      ],
      "max": [
        0.8710936903953552,
        2.457324266433716,
        0.5240325331687927
      ]
    },
    {
      "bufferView": 1,
      "componentType": 5126,
      "count": 6205,
      "type": "VEC3",
      "min": [
        -1,
        -0.999961793422699,
        -0.9998978972434998
      ],
      "max": [
        1,
        0.9997186064720154,
        0.9998077154159546
      ]
    },
    {
      "bufferView": 2,
      "componentType": 5126,
      "count": 6205,
      "type": "VEC2",
      "min": [
        0.01328963227570057,
        0.0058168768882751465
      ],
      "max": [
        0.19130000472068787,
        0.9921245574951172
      ]
    },
    {
      "bufferView": 3,
      "componentType": 5126,
      "count": 6205,
      "type": "VEC2",
      "min": [
        0,
        0.09164315462112427
      ],
      "max": [
        0.8880215883255005,
        1
      ]
    },
    {
      "bufferView": 4,
      "componentType": 5123,
      "count": 19134,
      "type": "SCALAR",
      "min": [
        0
      ],
      "max": [
        6204
      ]
    }
  ],
  "extras": {
    "manifest": "HumanBeast_Demon_Black.materials.json"
  }
}