{
  "asset": {
    "version": "2.0",
    "generator": "prefab-to-gltf"
  },
  "scene": 0,
  "scenes": [
    {
      "name": "Back_Long_WBee_Heavy",
      "nodes": [
        0
      ]
    }
  ],
  "nodes": [
    {
      "name": "Back_R1S3_FigWiz_N",
      "translation": [
        0,
        0,
        0
      ],
      "rotation": [
        0,
        0,
        0,
        1
      ],
      "scale": [
        1,
        1,
        1
      ],
      "mesh": 0
    }
  ],
  "meshes": [
    {
      "name": "Back_R1S3_FigWiz_N",
      "primitives": [
        {
          "attributes": {
            "POSITION": 0,
            "NORMAL": 1,
            "TEXCOORD_0": 2,
            "TEXCOORD_1": 3
          },
          "indices": 4,
          "material": 0,
          "mode": 4
        }
      ]
    }
  ],
  "materials": [
    {
      "name": "GradMat_Body",
      "pbrMetallicRoughness": {
        "baseColorFactor": [
          1,
          1,
          1,
          1
        ],
        "metallicFactor": 0,
        "roughnessFactor": 1
      },
      "doubleSided": true,
      "extras": {
        "diffuseTexture": "Character/Common/Texture/CustomGradient_RobinHoof.png",
        "specularTexture": null,
        "normalMap": null
      }
    }
  ],
  "buffers": [
    {
      "uri": "Back_Long_WBee_Heavy.bin",
      "byteLength": 167332
    }
  ],
  "bufferViews": [
    {
      "buffer": 0,
      "byteOffset": 0,
      "byteLength": 44688,
      "target": 34962
    },
    {
      "buffer": 0,
      "byteOffset": 44688,
      "byteLength": 44688,
      "target": 34962
    },
    {
      "buffer": 0,
      "byteOffset": 89376,
      "byteLength": 29792,
      "target": 34962
    },
    {
      "buffer": 0,
      "byteOffset": 119168,
      "byteLength": 29792,
      "target": 34962
    },
    {
      "buffer": 0,
      "byteOffset": 148960,
      "byteLength": 18372,
      "target": 34963
    }
  ],
  "accessors": [
    {
      "bufferView": 0,
      "componentType": 5126,
      "count": 3724,
      "type": "VEC3",
      "min": [
        -0.429443359375,
        0.324462890625,
        -0.3544921875
      ],
      "max": [
        0.4296875,
        1.984375,
        0.2078857421875
      ]
    },
    {
      "bufferView": 1,
      "componentType": 5126,
      "count": 3724,
      "type": "VEC3",
      "min": [
        -0.5019607843137255,
        -0.5019607843137255,
        -0.5019607843137255
      ],
      "max": [
        1,
        1,
        1
      ]
    },
    {
      "bufferView": 2,
      "componentType": 5126,
      "count": 3724,
      "type": "VEC2",
      "min": [
        0.1710205078125,
        0.130126953125
      ],
      "max": [
        0.96630859375,
        0.984375
      ]
    },
    {
      "bufferView": 3,
      "componentType": 5126,
      "count": 3724,
      "type": "VEC2",
      "min": [
        0,
        0.10150146484375
      ],
      "max": [
        0.9404296875,
        1
      ]
    },
    {
      "bufferView": 4,
      "componentType": 5123,
      "count": 9186,
      "type": "SCALAR",
      "min": [
        0
      ],
      "max": [
        3723
      ]
    }
  ],
  "extras": {
    "manifest": "Back_Long_WBee_Heavy.materials.json"
  }
}