{
  "asset": {
    "version": "2.0",
    "generator": "prefab-to-gltf"
  },
  "scene": 0,
  "scenes": [
    {
      "name": "Chest_NoSleeves_WBee_Medium",
      "nodes": [
        0
      ]
    }
  ],
  "nodes": [
    {
      "name": "Chest_R1S4_FigAss_N",
      "translation": [
        0,
        0,
        0
      ],
      "rotation": [
        0,
        0,
        0,
        1
      ],
      "scale": [
        1,
        1,
        1
      ],
      "mesh": 0
    }
  ],
  "meshes": [
    {
      "name": "Chest_R1S4_FigAss_N",
      "primitives": [
        {
          "attributes": {
            "POSITION": 0,
            "NORMAL": 1,
            "TEXCOORD_0": 2,
            "TEXCOORD_1": 3,
            "COLOR_0": 4
          },
          "indices": 5,
          "material": 0,
          "mode": 4
        }
      ]
    }
  ],
  "materials": [
    {
      "name": "GradMat_Body",
      "pbrMetallicRoughness": {
        "baseColorFactor": [
          1,
          1,
          1,
          1
        ],
        "metallicFactor": 0,
        "roughnessFactor": 1
      },
      "doubleSided": true,
      "extras": {
        "diffuseTexture": "Character/Common/Texture/CustomGradient_BasicGuy.png",
        "specularTexture": null,
        "normalMap": null
      }
    }
  ],
  "buffers": [
    {
      "uri": "Chest_NoSleeves_WBee_Medium.bin",
      "byteLength": 279890
    }
  ],
  "bufferViews": [
    {
      "buffer": 0,
      "byteOffset": 0,
      "byteLength": 59352,
      "target": 34962
    },
    {
      "buffer": 0,
      "byteOffset": 59352,
      "byteLength": 59352,
      "target": 34962
    },
    {
      "buffer": 0,
      "byteOffset": 118704,
      "byteLength": 39568,
      "target": 34962
    },
    {
      "buffer": 0,
      "byteOffset": 158272,
      "byteLength": 39568,
      "target": 34962
    },
    {
      "buffer": 0,
      "byteOffset": 197840,
      "byteLength": 59352,
      "target": 34962
    },
    {
      "buffer": 0,
      "byteOffset": 257192,
      "byteLength": 22698,
      "target": 34963
    }
  ],
  "accessors": [
    {
      "bufferView": 0,
      "componentType": 5126,
      "count": 4946,
      "type": "VEC3",
      "min": [
        -0.66650390625,
        0.98876953125,
        -0.12274169921875
      ],
      "max": [
        0.66650390625,
        1.9326171875,
        0.25390625
      ]
    },
    {
      "bufferView": 1,
      "componentType": 5126,
      "count": 4946,
      "type": "VEC3",
      "min": [
        -0.5019607843137255,
        -0.4980392156862745,
        -0.5019607843137255
      ],
      "max": [
        1,
        1,
        1
      ]
    },
    {
      "bufferView": 2,
      "componentType": 5126,
      "count": 4946,
      "type": "VEC2",
      "min": [
        0.01812744140625,
        0.0767822265625
      ],
      "max": [
        0.966796875,
        0.98974609375
      ]
    },
    {
      "bufferView": 3,
      "componentType": 5126,
      "count": 4946,
      "type": "VEC2",
      "min": [
        0,
        0.25244140625
      ],
      "max": [
        0.9462890625,
        1
      ]
    },
    {
      "bufferView": 4,
      "componentType": 5126,
      "count": 3709.5,
      "type": "VEC4",
      "min": [
        0.3607843220233917,
        0.3607843220233917,
        0.3607843220233917,
        0.38823530077934265
      ],
      "max": [
        1,
        1,
        1,
        1
      ]
    },
    {
      "bufferView": 5,
      "componentType": 5123,
      "count": 11349,
      "type": "SCALAR",
      "min": [
        0
      ],
      "max": [
        4945
      ]
    }
  ],
  "extras": {
    "manifest": "Chest_NoSleeves_WBee_Medium.materials.json"
  }
}