{
  "asset": {
    "version": "2.0",
    "generator": "prefab-to-gltf"
  },
  "scene": 0,
  "scenes": [
    {
      "name": "Feet_High_WBee_Medium",
      "nodes": [
        0
      ]
    }
  ],
  "nodes": [
    {
      "name": "Feet_R1S4_AssWiz_N",
      "translation": [
        0,
        0,
        0
      ],
      "rotation": [
        0,
        0,
        0,
        1
      ],
      "scale": [
        1,
        1,
        1
      ],
      "mesh": 0
    }
  ],
  "meshes": [
    {
      "name": "Feet_R1S4_AssWiz_N",
      "primitives": [
        {
          "attributes": {
            "POSITION": 0,
            "NORMAL": 1,
            "TEXCOORD_0": 2,
            "TEXCOORD_1": 3
          },
          "indices": 4,
          "material": 0,
          "mode": 4
        }
      ]
    }
  ],
  "materials": [
    {
      "name": "GradMat_Body",
      "pbrMetallicRoughness": {
        "baseColorFactor": [
          1,
          1,
          1,
          1
        ],
        "metallicFactor": 0,
        "roughnessFactor": 1
      },
      "doubleSided": true,
      "extras": {
        "diffuseTexture": "Character/Common/Texture/CustomGradient_BasicGuy.png",
        "specularTexture": null,
        "normalMap": null
      }
    }
  ],
  "buffers": [
    {
      "uri": "Feet_High_WBee_Medium.bin",
      "byteLength": 249928
    }
  ],
  "bufferViews": [
    {
      "buffer": 0,
      "byteOffset": 0,
      "byteLength": 66684,
      "target": 34962
    },
    {
      "buffer": 0,
      "byteOffset": 66684,
      "byteLength": 66684,
      "target": 34962
    },
    {
      "buffer": 0,
      "byteOffset": 133368,
      "byteLength": 44456,
      "target": 34962
    },
    {
      "buffer": 0,
      "byteOffset": 177824,
      "byteLength": 44456,
      "target": 34962
    },
    {
      "buffer": 0,
      "byteOffset": 222280,
      "byteLength": 27648,
      "target": 34963
    }
  ],
  "accessors": [
    {
      "bufferView": 0,
      "componentType": 5126,
      "count": 5557,
      "type": "VEC3",
      "min": [
        -0.441162109375,
        -0.002300262451171875,
        -0.11962890625
      ],
      "max": [
        0.441162109375,
        0.50048828125,
        0.31591796875
      ]
    },
    {
      "bufferView": 1,
      "componentType": 5126,
      "count": 5557,
      "type": "VEC3",
      "min": [
        -0.5019607843137255,
        -0.5019607843137255,
        -0.5019607843137255
      ],
      "max": [
        1,
        1,
        1
      ]
    },
    {
      "bufferView": 2,
      "componentType": 5126,
      "count": 5557,
      "type": "VEC2",
      "min": [
        0.0258941650390625,
        0.0110931396484375
      ],
      "max": [
        0.7099609375,
        0.8720703125
      ]
    },
    {
      "bufferView": 3,
      "componentType": 5126,
      "count": 5557,
      "type": "VEC2",
      "min": [
        0,
        0.277099609375
      ],
      "max": [
        0.94970703125,
        1
      ]
    },
    {
      "bufferView": 4,
      "componentType": 5123,
      "count": 13824,
      "type": "SCALAR",
      "min": [
        0
      ],
      "max": [
        5556
      ]
    }
  ],
  "extras": {
    "manifest": "Feet_High_WBee_Medium.materials.json"
  }
}