{
  "asset": {
    "version": "2.0",
    "generator": "prefab-to-gltf"
  },
  "scene": 0,
  "scenes": [
    {
      "name": "Feet_Low_Z1U2_Wiz",
      "nodes": [
        0
      ]
    }
  ],
  "nodes": [
    {
      "name": "Feet_Z1U_Light_N",
      "translation": [
        0,
        0,
        0
      ],
      "rotation": [
        0,
        0,
        0,
        1
      ],
      "scale": [
        1,
        1,
        1
      ],
      "mesh": 0
    }
  ],
  "meshes": [
    {
      "name": "Feet_Z1U_Light_N",
      "primitives": [
        {
          "attributes": {
            "POSITION": 0,
            "NORMAL": 1,
            "TEXCOORD_0": 2,
            "TEXCOORD_1": 3
          },
          "indices": 4,
          "material": 0,
          "mode": 4
        }
      ]
    }
  ],
  "materials": [
    {
      "name": "Gradmat_Weapon",
      "pbrMetallicRoughness": {
        "baseColorFactor": [
          1,
          1,
          1,
          1
        ],
        "metallicFactor": 0,
        "roughnessFactor": 1
      },
      "doubleSided": true,
      "extras": {
        "diffuseTexture": "Character/Common/Texture/CustomGradient_Hero_Clothes.png",
        "specularTexture": null,
        "normalMap": null
      }
    }
  ],
  "buffers": [
    {
      "uri": "Feet_Low_Z1U2_Wiz.bin",
      "byteLength": 105868
    }
  ],
  "bufferViews": [
    {
      "buffer": 0,
      "byteOffset": 0,
      "byteLength": 28344,
      "target": 34962
    },
    {
      "buffer": 0,
      "byteOffset": 28344,
      "byteLength": 28344,
      "target": 34962
    },
    {
      "buffer": 0,
      "byteOffset": 56688,
      "byteLength": 18896,
      "target": 34962
    },
    {
      "buffer": 0,
      "byteOffset": 75584,
      "byteLength": 18896,
      "target": 34962
    },
    {
      "buffer": 0,
      "byteOffset": 94480,
      "byteLength": 11388,
      "target": 34963
    }
  ],
  "accessors": [
    {
      "bufferView": 0,
      "componentType": 5126,
      "count": 2362,
      "type": "VEC3",
      "min": [
        -0.414794921875,
        -0.00751495361328125,
        -0.097412109375
      ],
      "max": [
        0.414794921875,
        0.2470703125,
        0.3134765625
      ]
    },
    {
      "bufferView": 1,
      "componentType": 5126,
      "count": 2362,
      "type": "VEC3",
      "min": [
        -0.5019607843137255,
        -0.5019607843137255,
        -0.5019607843137255
      ],
      "max": [
        1,
        1,
        1
      ]
    },
    {
      "bufferView": 2,
      "componentType": 5126,
      "count": 2362,
      "type": "VEC2",
      "min": [
        0.0258941650390625,
        0.2313232421875
      ],
      "max": [
        0.83837890625,
        0.81494140625
      ]
    },
    {
      "bufferView": 3,
      "componentType": 5126,
      "count": 2362,
      "type": "VEC2",
      "min": [
        0.043212890625,
        0.12060546875
      ],
      "max": [
        0.94677734375,
        0.955078125
      ]
    },
    {
      "bufferView": 4,
      "componentType": 5123,
      "count": 5694,
      "type": "SCALAR",
      "min": [
        0
      ],
      "max": [
        2361
      ]
    }
  ],
  "extras": {
    "manifest": "Feet_Low_Z1U2_Wiz.materials.json"
  }
}