{
  "asset": {
    "version": "2.0",
    "generator": "prefab-to-gltf"
  },
  "scene": 0,
  "scenes": [
    {
      "name": "Chest_ShortSleeves_Z2U1_Cle",
      "nodes": [
        0
      ]
    }
  ],
  "nodes": [
    {
      "name": "Chest_R1S1_Wiz_N",
      "translation": [
        0,
        0,
        0
      ],
      "rotation": [
        0,
        0,
        0,
        1
      ],
      "scale": [
        1,
        1,
        1
      ],
      "mesh": 0
    }
  ],
  "meshes": [
    {
      "name": "Chest_R1S1_Wiz_N",
      "primitives": [
        {
          "attributes": {
            "POSITION": 0,
            "NORMAL": 1,
            "TEXCOORD_0": 2,
            "TEXCOORD_1": 3,
            "COLOR_0": 4
          },
          "indices": 5,
          "material": 0,
          "mode": 4
        }
      ]
    }
  ],
  "materials": [
    {
      "name": "GradMat_Body",
      "pbrMetallicRoughness": {
        "baseColorFactor": [
          1,
          1,
          1,
          1
        ],
        "metallicFactor": 0,
        "roughnessFactor": 1
      },
      "doubleSided": true,
      "extras": {
        "diffuseTexture": "Character/Common/Texture/CustomGradient_BasicGuy.png",
        "specularTexture": null,
        "normalMap": null
      }
    }
  ],
  "buffers": [
    {
      "uri": "Chest_ShortSleeves_Z2U1_Cle.bin",
      "byteLength": 168912
    }
  ],
  "bufferViews": [
    {
      "buffer": 0,
      "byteOffset": 0,
      "byteLength": 35496,
      "target": 34962
    },
    {
      "buffer": 0,
      "byteOffset": 35496,
      "byteLength": 35496,
      "target": 34962
    },
    {
      "buffer": 0,
      "byteOffset": 70992,
      "byteLength": 23664,
      "target": 34962
    },
    {
      "buffer": 0,
      "byteOffset": 94656,
      "byteLength": 23664,
      "target": 34962
    },
    {
      "buffer": 0,
      "byteOffset": 118320,
      "byteLength": 35496,
      "target": 34962
    },
    {
      "buffer": 0,
      "byteOffset": 153816,
      "byteLength": 15096,
      "target": 34963
    }
  ],
  "accessors": [
    {
      "bufferView": 0,
      "componentType": 5126,
      "count": 2958,
      "type": "VEC3",
      "min": [
        -0.66650390625,
        0.8876953125,
        -0.1397705078125
      ],
      "max": [
        0.66650390625,
        1.9326171875,
        0.275634765625
      ]
    },
    {
      "bufferView": 1,
      "componentType": 5126,
      "count": 2958,
      "type": "VEC3",
      "min": [
        -0.5019607843137255,
        -0.5019607843137255,
        -0.5019607843137255
      ],
      "max": [
        1,
        1,
        1
      ]
    },
    {
      "bufferView": 2,
      "componentType": 5126,
      "count": 2958,
      "type": "VEC2",
      "min": [
        0.025054931640625,
        0.1976318359375
      ],
      "max": [
        0.7255859375,
        0.916015625
      ]
    },
    {
      "bufferView": 3,
      "componentType": 5126,
      "count": 2958,
      "type": "VEC2",
      "min": [
        0.022979736328125,
        0.099365234375
      ],
      "max": [
        0.94287109375,
        0.96484375
      ]
    },
    {
      "bufferView": 4,
      "componentType": 5126,
      "count": 2218.5,
      "type": "VEC4",
      "min": [
        0,
        0,
        0,
        0
      ],
      "max": [
        1,
        1,
        1,
        1
      ]
    },
    {
      "bufferView": 5,
      "componentType": 5123,
      "count": 7548,
      "type": "SCALAR",
      "min": [
        0
      ],
      "max": [
        2957
      ]
    }
  ],
  "extras": {
    "manifest": "Chest_ShortSleeves_Z2U1_Cle.materials.json"
  }
}