{
  "asset": {
    "version": "2.0",
    "generator": "prefab-to-gltf"
  },
  "scene": 0,
  "scenes": [
    {
      "name": "Hands_Wrist_Z2U2_Cle",
      "nodes": [
        0
      ]
    }
  ],
  "nodes": [
    {
      "name": "Hands_Z2U_Light_N",
      "translation": [
        0,
        0,
        0
      ],
      "rotation": [
        0,
        0,
        0,
        1
      ],
      "scale": [
        1,
        1,
        1
      ],
      "mesh": 0
    }
  ],
  "meshes": [
    {
      "name": "Hands_Z2U_Light_N",
      "primitives": [
        {
          "attributes": {
            "POSITION": 0,
            "NORMAL": 1,
            "TEXCOORD_0": 2,
            "TEXCOORD_1": 3
          },
          "indices": 4,
          "material": 0,
          "mode": 4
        }
      ]
    }
  ],
  "materials": [
    {
      "name": "GradMat_Body",
      "pbrMetallicRoughness": {
        "baseColorFactor": [
          1,
          1,
          1,
          1
        ],
        "metallicFactor": 0,
        "roughnessFactor": 1
      },
      "doubleSided": true,
      "extras": {
        "diffuseTexture": "Character/Common/Texture/CustomGradient_RobinHoof.png",
        "specularTexture": null,
        "normalMap": null
      }
    }
  ],
  "buffers": [
    {
      "uri": "Hands_Wrist_Z2U2_Cle.bin",
      "byteLength": 129472
    }
  ],
  "bufferViews": [
    {
      "buffer": 0,
      "byteOffset": 0,
      "byteLength": 33456,
      "target": 34962
    },
    {
      "buffer": 0,
      "byteOffset": 33456,
      "byteLength": 33456,
      "target": 34962
    },
    {
      "buffer": 0,
      "byteOffset": 66912,
      "byteLength": 22304,
      "target": 34962
    },
    {
      "buffer": 0,
      "byteOffset": 89216,
      "byteLength": 22304,
      "target": 34962
    },
    {
      "buffer": 0,
      "byteOffset": 111520,
      "byteLength": 17952,
      "target": 34963
    }
  ],
  "accessors": [
    {
      "bufferView": 0,
      "componentType": 5126,
      "count": 2788,
      "type": "VEC3",
      "min": [
        -0.81201171875,
        0.9814453125,
        0.06451416015625
      ],
      "max": [
        0.81201171875,
        1.2822265625,
        0.337646484375
      ]
    },
    {
      "bufferView": 1,
      "componentType": 5126,
      "count": 2788,
      "type": "VEC3",
      "min": [
        -0.5019607843137255,
        -0.5019607843137255,
        -0.5019607843137255
      ],
      "max": [
        1,
        0.49411764705882355,
        1
      ]
    },
    {
      "bufferView": 2,
      "componentType": 5126,
      "count": 2788,
      "type": "VEC2",
      "min": [
        0.1480712890625,
        0.34912109375
      ],
      "max": [
        0.57080078125,
        0.9296875
      ]
    },
    {
      "bufferView": 3,
      "componentType": 5126,
      "count": 2788,
      "type": "VEC2",
      "min": [
        0.0290374755859375,
        0.110595703125
      ],
      "max": [
        0.94140625,
        1.0009765625
      ]
    },
    {
      "bufferView": 4,
      "componentType": 5123,
      "count": 8976,
      "type": "SCALAR",
      "min": [
        0
      ],
      "max": [
        2787
      ]
    }
  ],
  "extras": {
    "manifest": "Hands_Wrist_Z2U2_Cle.materials.json"
  }
}