{
  "asset": {
    "version": "2.0",
    "generator": "prefab-to-gltf"
  },
  "scene": 0,
  "scenes": [
    {
      "name": "Legs_Shin_Z2U2_Cle",
      "nodes": [
        0
      ]
    }
  ],
  "nodes": [
    {
      "name": "Legs_R1S1_Wiz_N",
      "translation": [
        0,
        0,
        0
      ],
      "rotation": [
        0,
        0,
        0,
        1
      ],
      "scale": [
        1,
        1,
        1
      ],
      "mesh": 0
    }
  ],
  "meshes": [
    {
      "name": "Legs_R1S1_Wiz_N",
      "primitives": [
        {
          "attributes": {
            "POSITION": 0,
            "NORMAL": 1,
            "TEXCOORD_0": 2,
            "TEXCOORD_1": 3
          },
          "indices": 4,
          "material": 0,
          "mode": 4
        }
      ]
    }
  ],
  "materials": [
    {
      "name": "GradMat_Body",
      "pbrMetallicRoughness": {
        "baseColorFactor": [
          1,
          1,
          1,
          1
        ],
        "metallicFactor": 0,
        "roughnessFactor": 1
      },
      "doubleSided": true,
      "extras": {
        "diffuseTexture": "Character/Common/Texture/CustomGradient_BasicGuy.png",
        "specularTexture": null,
        "normalMap": null
      }
    }
  ],
  "buffers": [
    {
      "uri": "Legs_Shin_Z2U2_Cle.bin",
      "byteLength": 64016
    }
  ],
  "bufferViews": [
    {
      "buffer": 0,
      "byteOffset": 0,
      "byteLength": 17088,
      "target": 34962
    },
    {
      "buffer": 0,
      "byteOffset": 17088,
      "byteLength": 17088,
      "target": 34962
    },
    {
      "buffer": 0,
      "byteOffset": 34176,
      "byteLength": 11392,
      "target": 34962
    },
    {
      "buffer": 0,
      "byteOffset": 45568,
      "byteLength": 11392,
      "target": 34962
    },
    {
      "buffer": 0,
      "byteOffset": 56960,
      "byteLength": 7056,
      "target": 34963
    }
  ],
  "accessors": [
    {
      "bufferView": 0,
      "componentType": 5126,
      "count": 1424,
      "type": "VEC3",
      "min": [
        -0.37109375,
        0.08514404296875,
        -0.09075927734375
      ],
      "max": [
        0.37109375,
        1.2763671875,
        0.2294921875
      ]
    },
    {
      "bufferView": 1,
      "componentType": 5126,
      "count": 1424,
      "type": "VEC3",
      "min": [
        -0.5019607843137255,
        -0.5019607843137255,
        -0.5019607843137255
      ],
      "max": [
        1,
        1,
        1
      ]
    },
    {
      "bufferView": 2,
      "componentType": 5126,
      "count": 1424,
      "type": "VEC2",
      "min": [
        0.039886474609375,
        0.24560546875
      ],
      "max": [
        0.22314453125,
        0.96337890625
      ]
    },
    {
      "bufferView": 3,
      "componentType": 5126,
      "count": 1424,
      "type": "VEC2",
      "min": [
        0.0347900390625,
        0.11773681640625
      ],
      "max": [
        0.47314453125,
        0.96630859375
      ]
    },
    {
      "bufferView": 4,
      "componentType": 5123,
      "count": 3528,
      "type": "SCALAR",
      "min": [
        0
      ],
      "max": [
        1423
      ]
    }
  ],
  "extras": {
    "manifest": "Legs_Shin_Z2U2_Cle.materials.json"
  }
}