{
  "asset": {
    "version": "2.0",
    "generator": "prefab-to-gltf"
  },
  "scene": 0,
  "scenes": [
    {
      "name": "Book_R3_R1Ruins_Wiz",
      "nodes": [
        0
      ]
    }
  ],
  "nodes": [
    {
      "name": "Book_R3_R1Ruins_Wiz",
      "translation": [
        0,
        0,
        0
      ],
      "rotation": [
        0,
        0,
        0,
        1
      ],
      "scale": [
        1,
        1,
        1
      ],
      "mesh": 0
    }
  ],
  "meshes": [
    {
      "name": "Book_R3_R1Ruins_Wiz",
      "primitives": [
        {
          "attributes": {
            "POSITION": 0,
            "NORMAL": 1,
            "TEXCOORD_0": 2,
            "TEXCOORD_1": 3,
            "COLOR_0": 4
          },
          "indices": 5,
          "material": 0,
          "mode": 4
        }
      ]
    }
  ],
  "materials": [
    {
      "name": "standardSurface1",
      "pbrMetallicRoughness": {
        "baseColorFactor": [
          1,
          1,
          1,
          1
        ],
        "metallicFactor": 0,
        "roughnessFactor": 1
      },
      "doubleSided": true,
      "extras": {
        "diffuseTexture": null,
        "specularTexture": null,
        "normalMap": null
      }
    }
  ],
  "buffers": [
    {
      "uri": "Book_R3_R1Ruins_Wiz.bin",
      "byteLength": 257846
    }
  ],
  "bufferViews": [
    {
      "buffer": 0,
      "byteOffset": 0,
      "byteLength": 53088,
      "target": 34962
    },
    {
      "buffer": 0,
      "byteOffset": 53088,
      "byteLength": 53088,
      "target": 34962
    },
    {
      "buffer": 0,
      "byteOffset": 106176,
      "byteLength": 35392,
      "target": 34962
    },
    {
      "buffer": 0,
      "byteOffset": 141568,
      "byteLength": 35392,
      "target": 34962
    },
    {
      "buffer": 0,
      "byteOffset": 176960,
      "byteLength": 53088,
      "target": 34962
    },
    {
      "buffer": 0,
      "byteOffset": 230048,
      "byteLength": 27798,
      "target": 34963
    }
  ],
  "accessors": [
    {
      "bufferView": 0,
      "componentType": 5126,
      "count": 4424,
      "type": "VEC3",
      "min": [
        -0.16937537491321564,
        -0.6288401484489441,
        -0.13423462212085724
      ],
      "max": [
        0.20481987297534943,
        0.3754996955394745,
        0.6339635252952576
      ]
    },
    {
      "bufferView": 1,
      "componentType": 5126,
      "count": 4424,
      "type": "VEC3",
      "min": [
        -1,
        -1,
        -1
      ],
      "max": [
        1,
        1,
        1
      ]
    },
    {
      "bufferView": 2,
      "componentType": 5126,
      "count": 4424,
      "type": "VEC2",
      "min": [
        0.04917440563440323,
        0.0703391432762146
      ],
      "max": [
        0.601209282875061,
        0.8758178353309631
      ]
    },
    {
      "bufferView": 3,
      "componentType": 5126,
      "count": 4424,
      "type": "VEC2",
      "min": [
        0,
        0.07792866230010986
      ],
      "max": [
        0.9611190557479858,
        1
      ]
    },
    {
      "bufferView": 4,
      "componentType": 5126,
      "count": 3318,
      "type": "VEC4",
      "min": [
        0,
        0,
        0,
        0
      ],
      "max": [
        0.9999715685844421,
        0.9999715685844421,
        0.9999715685844421,
        0.9999715685844421
      ]
    },
    {
      "bufferView": 5,
      "componentType": 5123,
      "count": 13899,
      "type": "SCALAR",
      "min": [
        0
      ],
      "max": [
        4423
      ]
    }
  ],
  "extras": {
    "manifest": "Book_R3_R1Ruins_Wiz.materials.json"
  }
}