{
  "asset": {
    "version": "2.0",
    "generator": "prefab-to-gltf"
  },
  "scene": 0,
  "scenes": [
    {
      "name": "Eyes_03_A",
      "nodes": [
        0
      ]
    }
  ],
  "nodes": [
    {
      "name": "A_Eyes_Kiwi",
      "translation": [
        0,
        0,
        0
      ],
      "rotation": [
        0,
        0,
        0,
        1
      ],
      "scale": [
        1,
        1,
        1
      ],
      "mesh": 0,
      "children": [
        1
      ]
    },
    {
      "name": "MESH",
      "translation": [
        0,
        0,
        0
      ],
      "rotation": [
        0.7071056365966797,
        0,
        0,
        0.7071079257745626
      ],
      "scale": [
        1,
        1,
        1
      ]
    }
  ],
  "meshes": [
    {
      "name": "A_Eyes_Kiwi",
      "primitives": [
        {
          "attributes": {
            "POSITION": 0,
            "NORMAL": 1,
            "TEXCOORD_0": 2,
            "TEXCOORD_1": 3
          },
          "indices": 4,
          "material": 0,
          "mode": 4
        }
      ]
    }
  ],
  "materials": [
    {
      "name": "Gradmat_Weapon",
      "pbrMetallicRoughness": {
        "baseColorFactor": [
          1,
          1,
          1,
          1
        ],
        "metallicFactor": 0,
        "roughnessFactor": 1
      },
      "doubleSided": true,
      "extras": {
        "diffuseTexture": "Character/Common/Texture/CustomGradient_Hero_Clothes.png",
        "specularTexture": null,
        "normalMap": null
      }
    }
  ],
  "buffers": [
    {
      "uri": "Eyes_03_A.bin",
      "byteLength": 39864
    }
  ],
  "bufferViews": [
    {
      "buffer": 0,
      "byteOffset": 0,
      "byteLength": 10296,
      "target": 34962
    },
    {
      "buffer": 0,
      "byteOffset": 10296,
      "byteLength": 10296,
      "target": 34962
    },
    {
      "buffer": 0,
      "byteOffset": 20592,
      "byteLength": 6864,
      "target": 34962
    },
    {
      "buffer": 0,
      "byteOffset": 27456,
      "byteLength": 6864,
      "target": 34962
    },
    {
      "buffer": 0,
      "byteOffset": 34320,
      "byteLength": 5544,
      "target": 34963
    }
  ],
  "accessors": [
    {
      "bufferView": 0,
      "componentType": 5126,
      "count": 858,
      "type": "VEC3",
      "min": [
        -0.10543555021286011,
        1.9362798929214478,
        0.1532156616449356
      ],
      "max": [
        0.1054355651140213,
        2.05509090423584,
        0.20580244064331055
      ]
    },
    {
      "bufferView": 1,
      "componentType": 5126,
      "count": 858,
      "type": "VEC3",
      "min": [
        -0.9257810115814209,
        -0.7980604767799377,
        0.3679300546646118
      ],
      "max": [
        0.9257809519767761,
        0.7452574372291565,
        0.9998462200164795
      ]
    },
    {
      "bufferView": 2,
      "componentType": 5126,
      "count": 858,
      "type": "VEC2",
      "min": [
        0.14314761757850647,
        0.05272221565246582
      ],
      "max": [
        0.5548153519630432,
        0.8479503393173218
      ]
    },
    {
      "bufferView": 3,
      "componentType": 5126,
      "count": 858,
      "type": "VEC2",
      "min": [
        0.025251805782318115,
        0.08994776010513306
      ],
      "max": [
        0.933462381362915,
        0.9653530120849609
      ]
    },
    {
      "bufferView": 4,
      "componentType": 5123,
      "count": 2772,
      "type": "SCALAR",
      "min": [
        0
      ],
      "max": [
        857
      ]
    }
  ],
  "extras": {
    "manifest": "Eyes_03_A.materials.json"
  }
}