{
  "asset": {
    "version": "2.0",
    "generator": "prefab-to-gltf"
  },
  "scene": 0,
  "scenes": [
    {
      "name": "Legs_Shin_Z3U1_WizCle",
      "nodes": [
        0
      ]
    }
  ],
  "nodes": [
    {
      "name": "Legs_R1S1_WizCle_N",
      "translation": [
        0,
        0,
        0
      ],
      "rotation": [
        0,
        0,
        0,
        1
      ],
      "scale": [
        1,
        1,
        1
      ],
      "mesh": 0
    }
  ],
  "meshes": [
    {
      "name": "Legs_R1S1_WizCle_N",
      "primitives": [
        {
          "attributes": {
            "POSITION": 0,
            "NORMAL": 1,
            "TEXCOORD_0": 2,
            "TEXCOORD_1": 3
          },
          "indices": 4,
          "material": 0,
          "mode": 4
        }
      ]
    }
  ],
  "materials": [
    {
      "name": "GradMat_Body",
      "pbrMetallicRoughness": {
        "baseColorFactor": [
          1,
          1,
          1,
          1
        ],
        "metallicFactor": 0,
        "roughnessFactor": 1
      },
      "doubleSided": true,
      "extras": {
        "diffuseTexture": "Character/Common/Texture/CustomGradient_BasicGuy.png",
        "specularTexture": null,
        "normalMap": null
      }
    }
  ],
  "buffers": [
    {
      "uri": "Legs_Shin_Z3U1_WizCle.bin",
      "byteLength": 135472
    }
  ],
  "bufferViews": [
    {
      "buffer": 0,
      "byteOffset": 0,
      "byteLength": 36948,
      "target": 34962
    },
    {
      "buffer": 0,
      "byteOffset": 36948,
      "byteLength": 36948,
      "target": 34962
    },
    {
      "buffer": 0,
      "byteOffset": 73896,
      "byteLength": 24632,
      "target": 34962
    },
    {
      "buffer": 0,
      "byteOffset": 98528,
      "byteLength": 24632,
      "target": 34962
    },
    {
      "buffer": 0,
      "byteOffset": 123160,
      "byteLength": 12312,
      "target": 34963
    }
  ],
  "accessors": [
    {
      "bufferView": 0,
      "componentType": 5126,
      "count": 3079,
      "type": "VEC3",
      "min": [
        -0.373779296875,
        0.08514404296875,
        -0.0904541015625
      ],
      "max": [
        0.373779296875,
        1.2763671875,
        0.226318359375
      ]
    },
    {
      "bufferView": 1,
      "componentType": 5126,
      "count": 3079,
      "type": "VEC3",
      "min": [
        -0.5019607843137255,
        -0.5019607843137255,
        -0.5019607843137255
      ],
      "max": [
        1,
        1,
        1
      ]
    },
    {
      "bufferView": 2,
      "componentType": 5126,
      "count": 3079,
      "type": "VEC2",
      "min": [
        0.039886474609375,
        0.221923828125
      ],
      "max": [
        0.6064453125,
        0.95458984375
      ]
    },
    {
      "bufferView": 3,
      "componentType": 5126,
      "count": 3079,
      "type": "VEC2",
      "min": [
        0.1234130859375,
        0.10028076171875
      ],
      "max": [
        0.9423828125,
        0.951171875
      ]
    },
    {
      "bufferView": 4,
      "componentType": 5123,
      "count": 6156,
      "type": "SCALAR",
      "min": [
        0
      ],
      "max": [
        3078
      ]
    }
  ],
  "extras": {
    "manifest": "Legs_Shin_Z3U1_WizCle.materials.json"
  }
}