{
  "asset": {
    "version": "2.0",
    "generator": "prefab-to-gltf"
  },
  "scene": 0,
  "scenes": [
    {
      "name": "Projectile_Imp_Coal",
      "nodes": [
        0
      ]
    }
  ],
  "nodes": [
    {
      "name": "Cheese",
      "translation": [
        0,
        0,
        0
      ],
      "rotation": [
        0.7071056365966797,
        0,
        0,
        0.7071079257745626
      ],
      "scale": [
        1,
        1,
        1
      ],
      "mesh": 0
    }
  ],
  "meshes": [
    {
      "name": "Cheese",
      "primitives": [
        {
          "attributes": {
            "POSITION": 0,
            "NORMAL": 1,
            "TEXCOORD_0": 2,
            "TEXCOORD_1": 3
          },
          "indices": 4,
          "material": 0,
          "mode": 4
        }
      ]
    }
  ],
  "materials": [
    {
      "name": "Gradmat",
      "pbrMetallicRoughness": {
        "baseColorFactor": [
          1,
          1,
          1,
          1
        ],
        "metallicFactor": 0,
        "roughnessFactor": 1
      },
      "doubleSided": true,
      "extras": {
        "diffuseTexture": "Character/Common/Texture/CustomGradient_WeaponALL.png",
        "specularTexture": null,
        "normalMap": null
      }
    }
  ],
  "buffers": [
    {
      "uri": "Projectile_Imp_Coal.bin",
      "byteLength": 2652
    }
  ],
  "bufferViews": [
    {
      "buffer": 0,
      "byteOffset": 0,
      "byteLength": 684,
      "target": 34962
    },
    {
      "buffer": 0,
      "byteOffset": 684,
      "byteLength": 684,
      "target": 34962
    },
    {
      "buffer": 0,
      "byteOffset": 1368,
      "byteLength": 456,
      "target": 34962
    },
    {
      "buffer": 0,
      "byteOffset": 1824,
      "byteLength": 456,
      "target": 34962
    },
    {
      "buffer": 0,
      "byteOffset": 2280,
      "byteLength": 372,
      "target": 34963
    }
  ],
  "accessors": [
    {
      "bufferView": 0,
      "componentType": 5126,
      "count": 57,
      "type": "VEC3",
      "min": [
        -0.1511770337820053,
        -0.13038665056228638,
        -0.14762771129608154
      ],
      "max": [
        0.15720447897911072,
        0.12135971337556839,
        0.12868599593639374
      ]
    },
    {
      "bufferView": 1,
      "componentType": 5126,
      "count": 57,
      "type": "VEC3",
      "min": [
        -0.9660537242889404,
        -0.9663218855857849,
        -0.8052597045898438
      ],
      "max": [
        0.9681634306907654,
        0.9883702993392944,
        0.9966727495193481
      ]
    },
    {
      "bufferView": 2,
      "componentType": 5126,
      "count": 57,
      "type": "VEC2",
      "min": [
        0.04314342141151428,
        0.32322221994400024
      ],
      "max": [
        0.08017107844352722,
        0.7394718527793884
      ]
    },
    {
      "bufferView": 3,
      "componentType": 5126,
      "count": 57,
      "type": "VEC2",
      "min": [
        0.021959621459245682,
        0.9760186076164246
      ],
      "max": [
        0.02195962890982628,
        0.9760186076164246
      ]
    },
    {
      "bufferView": 4,
      "componentType": 5123,
      "count": 186,
      "type": "SCALAR",
      "min": [
        0
      ],
      "max": [
        56
      ]
    }
  ],
  "extras": {
    "manifest": "Projectile_Imp_Coal.materials.json"
  }
}