{
  "asset": {
    "version": "2.0",
    "generator": "prefab-to-gltf"
  },
  "scene": 0,
  "scenes": [
    {
      "name": "Thrown_R5_R1Hive_AssWiz",
      "nodes": [
        0
      ]
    }
  ],
  "nodes": [
    {
      "name": "Thrown_R5_R1Hive_AssWiz",
      "translation": [
        0,
        0,
        0
      ],
      "rotation": [
        0,
        0,
        0.7071056365966797,
        0.7071079257745626
      ],
      "scale": [
        1,
        1,
        1
      ],
      "mesh": 0
    }
  ],
  "meshes": [
    {
      "name": "Thrown_R5_R1Hive_AssWiz",
      "primitives": [
        {
          "attributes": {
            "POSITION": 0,
            "NORMAL": 1,
            "TEXCOORD_0": 2,
            "TEXCOORD_1": 3
          },
          "indices": 4,
          "material": 0,
          "mode": 4
        },
        {
          "attributes": {
            "POSITION": 5,
            "NORMAL": 6,
            "TEXCOORD_0": 7,
            "TEXCOORD_1": 8
          },
          "indices": 9,
          "material": 1,
          "mode": 4
        }
      ]
    }
  ],
  "materials": [
    {
      "name": "MatSlots_WEAPONS_001",
      "pbrMetallicRoughness": {
        "baseColorFactor": [
          1,
          1,
          1,
          1
        ],
        "metallicFactor": 0,
        "roughnessFactor": 1
      },
      "doubleSided": true,
      "extras": {
        "diffuseTexture": null,
        "specularTexture": null,
        "normalMap": null
      }
    },
    {
      "name": "Outline",
      "pbrMetallicRoughness": {
        "baseColorFactor": [
          1,
          1,
          1,
          1
        ],
        "metallicFactor": 0,
        "roughnessFactor": 1
      },
      "doubleSided": true,
      "extras": {
        "diffuseTexture": null,
        "specularTexture": null,
        "normalMap": null
      }
    }
  ],
  "buffers": [
    {
      "uri": "Thrown_R5_R1Hive_AssWiz.bin",
      "byteLength": 328232
    }
  ],
  "bufferViews": [
    {
      "buffer": 0,
      "byteOffset": 0,
      "byteLength": 45984,
      "target": 34962
    },
    {
      "buffer": 0,
      "byteOffset": 45984,
      "byteLength": 45984,
      "target": 34962
    },
    {
      "buffer": 0,
      "byteOffset": 91968,
      "byteLength": 30656,
      "target": 34962
    },
    {
      "buffer": 0,
      "byteOffset": 122624,
      "byteLength": 30656,
      "target": 34962
    },
    {
      "buffer": 0,
      "byteOffset": 153280,
      "byteLength": 10836,
      "target": 34963
    },
    {
      "buffer": 0,
      "byteOffset": 164116,
      "byteLength": 45984,
      "target": 34962
    },
    {
      "buffer": 0,
      "byteOffset": 210100,
      "byteLength": 45984,
      "target": 34962
    },
    {
      "buffer": 0,
      "byteOffset": 256084,
      "byteLength": 30656,
      "target": 34962
    },
    {
      "buffer": 0,
      "byteOffset": 286740,
      "byteLength": 30656,
      "target": 34962
    },
    {
      "buffer": 0,
      "byteOffset": 317396,
      "byteLength": 10836,
      "target": 34963
    }
  ],
  "accessors": [
    {
      "bufferView": 0,
      "componentType": 5126,
      "count": 3832,
      "type": "VEC3",
      "min": [
        -0.23797430098056793,
        -0.046459365636110306,
        -0.23797430098056793
      ],
      "max": [
        0.23797430098056793,
        0.0519295334815979,
        0.23797430098056793
      ]
    },
    {
      "bufferView": 1,
      "componentType": 5126,
      "count": 3832,
      "type": "VEC3",
      "min": [
        -0.9982086420059204,
        -1,
        -1
      ],
      "max": [
        0.9982085227966309,
        1,
        1
      ]
    },
    {
      "bufferView": 2,
      "componentType": 5126,
      "count": 3832,
      "type": "VEC2",
      "min": [
        0.040219277143478394,
        0.056093692779541016
      ],
      "max": [
        0.4915951192378998,
        1.002068281173706
      ]
    },
    {
      "bufferView": 3,
      "componentType": 5126,
      "count": 3832,
      "type": "VEC2",
      "min": [
        0,
        0.12356162071228027
      ],
      "max": [
        0.9830994606018066,
        1
      ]
    },
    {
      "bufferView": 4,
      "componentType": 5123,
      "count": 5418,
      "type": "SCALAR",
      "min": [
        0
      ],
      "max": [
        1915
      ]
    },
    {
      "bufferView": 5,
      "componentType": 5126,
      "count": 3832,
      "type": "VEC3",
      "min": [
        -0.23797430098056793,
        -0.046459365636110306,
        -0.23797430098056793
      ],
      "max": [
        0.23797430098056793,
        0.0519295334815979,
        0.23797430098056793
      ]
    },
    {
      "bufferView": 6,
      "componentType": 5126,
      "count": 3832,
      "type": "VEC3",
      "min": [
        -0.9982086420059204,
        -1,
        -1
      ],
      "max": [
        0.9982085227966309,
        1,
        1
      ]
    },
    {
      "bufferView": 7,
      "componentType": 5126,
      "count": 3832,
      "type": "VEC2",
      "min": [
        0.040219277143478394,
        0.056093692779541016
      ],
      "max": [
        0.4915951192378998,
        1.002068281173706
      ]
    },
    {
      "bufferView": 8,
      "componentType": 5126,
      "count": 3832,
      "type": "VEC2",
      "min": [
        0,
        0.12356162071228027
      ],
      "max": [
        0.9830994606018066,
        1
      ]
    },
    {
      "bufferView": 9,
      "componentType": 5123,
      "count": 5418,
      "type": "SCALAR",
      "min": [
        0
      ],
      "max": [
        3831
      ]
    }
  ],
  "extras": {
    "manifest": "Thrown_R5_R1Hive_AssWiz.materials.json"
  }
}