{
  "asset": {
    "version": "2.0",
    "generator": "prefab-to-gltf"
  },
  "scene": 0,
  "scenes": [
    {
      "name": "Chest_NoSleeves_Z1U2_Ass",
      "nodes": [
        0
      ]
    }
  ],
  "nodes": [
    {
      "name": "Chest_Z1U_Medium_N",
      "translation": [
        0,
        0,
        0
      ],
      "rotation": [
        0,
        0,
        0,
        1
      ],
      "scale": [
        1,
        1,
        1
      ],
      "mesh": 0,
      "children": [
        1
      ]
    },
    {
      "name": "Z1U1",
      "translation": [
        0,
        0,
        0
      ],
      "rotation": [
        0.7071067690849304,
        0,
        0,
        0.7071067932881644
      ],
      "scale": [
        1,
        1,
        1
      ]
    }
  ],
  "meshes": [
    {
      "name": "Chest_Z1U_Medium_N",
      "primitives": [
        {
          "attributes": {
            "POSITION": 0,
            "NORMAL": 1,
            "TEXCOORD_0": 2,
            "TEXCOORD_1": 3,
            "COLOR_0": 4
          },
          "indices": 5,
          "material": 0,
          "mode": 4
        }
      ]
    }
  ],
  "materials": [
    {
      "name": "GradMat_Body",
      "pbrMetallicRoughness": {
        "baseColorFactor": [
          1,
          1,
          1,
          1
        ],
        "metallicFactor": 0,
        "roughnessFactor": 1
      },
      "doubleSided": true,
      "extras": {
        "diffuseTexture": "Character/Common/Texture/CustomGradient_RobinHoof.png",
        "specularTexture": null,
        "normalMap": null
      }
    }
  ],
  "buffers": [
    {
      "uri": "Chest_NoSleeves_Z1U2_Ass.bin",
      "byteLength": 194068
    }
  ],
  "bufferViews": [
    {
      "buffer": 0,
      "byteOffset": 0,
      "byteLength": 40548,
      "target": 34962
    },
    {
      "buffer": 0,
      "byteOffset": 40548,
      "byteLength": 40548,
      "target": 34962
    },
    {
      "buffer": 0,
      "byteOffset": 81096,
      "byteLength": 27032,
      "target": 34962
    },
    {
      "buffer": 0,
      "byteOffset": 108128,
      "byteLength": 27032,
      "target": 34962
    },
    {
      "buffer": 0,
      "byteOffset": 135160,
      "byteLength": 40548,
      "target": 34962
    },
    {
      "buffer": 0,
      "byteOffset": 175708,
      "byteLength": 18360,
      "target": 34963
    }
  ],
  "accessors": [
    {
      "bufferView": 0,
      "componentType": 5126,
      "count": 3379,
      "type": "VEC3",
      "min": [
        -0.66650390625,
        1.0556640625,
        -0.10784912109375
      ],
      "max": [
        0.66650390625,
        1.9326171875,
        0.2491455078125
      ]
    },
    {
      "bufferView": 1,
      "componentType": 5126,
      "count": 3379,
      "type": "VEC3",
      "min": [
        -0.5019607843137255,
        -0.4980392156862745,
        -0.5019607843137255
      ],
      "max": [
        1,
        1,
        1
      ]
    },
    {
      "bufferView": 2,
      "componentType": 5126,
      "count": 3379,
      "type": "VEC2",
      "min": [
        0.0215301513671875,
        0.1707763671875
      ],
      "max": [
        0.87939453125,
        0.95166015625
      ]
    },
    {
      "bufferView": 3,
      "componentType": 5126,
      "count": 3379,
      "type": "VEC2",
      "min": [
        0.061553955078125,
        0.101806640625
      ],
      "max": [
        0.94384765625,
        0.95849609375
      ]
    },
    {
      "bufferView": 4,
      "componentType": 5126,
      "count": 2534.25,
      "type": "VEC4",
      "min": [
        0.3607843220233917,
        0.3607843220233917,
        0.3607843220233917,
        0.3607843220233917
      ],
      "max": [
        1,
        1,
        1,
        1
      ]
    },
    {
      "bufferView": 5,
      "componentType": 5123,
      "count": 9180,
      "type": "SCALAR",
      "min": [
        0
      ],
      "max": [
        3378
      ]
    }
  ],
  "extras": {
    "manifest": "Chest_NoSleeves_Z1U2_Ass.materials.json"
  }
}