{
  "asset": {
    "version": "2.0",
    "generator": "prefab-to-gltf"
  },
  "scene": 0,
  "scenes": [
    {
      "name": "Head_Open_Z1U1_Ass",
      "nodes": [
        0
      ]
    }
  ],
  "nodes": [
    {
      "name": "Head_Z1U_Medium_N",
      "translation": [
        0,
        0,
        0
      ],
      "rotation": [
        0,
        0,
        0,
        1
      ],
      "scale": [
        1,
        1,
        1
      ],
      "mesh": 0
    }
  ],
  "meshes": [
    {
      "name": "Head_Z1U_Medium_N",
      "primitives": [
        {
          "attributes": {
            "POSITION": 0,
            "NORMAL": 1,
            "TEXCOORD_0": 2,
            "TEXCOORD_1": 3,
            "COLOR_0": 4
          },
          "indices": 5,
          "material": 0,
          "mode": 4
        }
      ]
    }
  ],
  "materials": [
    {
      "name": "standardSurface1",
      "pbrMetallicRoughness": {
        "baseColorFactor": [
          1,
          1,
          1,
          1
        ],
        "metallicFactor": 0,
        "roughnessFactor": 1
      },
      "doubleSided": true,
      "extras": {
        "diffuseTexture": null,
        "specularTexture": null,
        "normalMap": null
      }
    }
  ],
  "buffers": [
    {
      "uri": "Head_Open_Z1U1_Ass.bin",
      "byteLength": 59368
    }
  ],
  "bufferViews": [
    {
      "buffer": 0,
      "byteOffset": 0,
      "byteLength": 12324,
      "target": 34962
    },
    {
      "buffer": 0,
      "byteOffset": 12324,
      "byteLength": 12324,
      "target": 34962
    },
    {
      "buffer": 0,
      "byteOffset": 24648,
      "byteLength": 8216,
      "target": 34962
    },
    {
      "buffer": 0,
      "byteOffset": 32864,
      "byteLength": 8216,
      "target": 34962
    },
    {
      "buffer": 0,
      "byteOffset": 41080,
      "byteLength": 12324,
      "target": 34962
    },
    {
      "buffer": 0,
      "byteOffset": 53404,
      "byteLength": 5964,
      "target": 34963
    }
  ],
  "accessors": [
    {
      "bufferView": 0,
      "componentType": 5126,
      "count": 1027,
      "type": "VEC3",
      "min": [
        -0.1630859375,
        1.8056640625,
        -0.1649169921875
      ],
      "max": [
        0.1630859375,
        2.22265625,
        0.25341796875
      ]
    },
    {
      "bufferView": 1,
      "componentType": 5126,
      "count": 1027,
      "type": "VEC3",
      "min": [
        -0.5019607843137255,
        -0.5019607843137255,
        -0.5019607843137255
      ],
      "max": [
        1,
        0.4980392156862745,
        1
      ]
    },
    {
      "bufferView": 2,
      "componentType": 5126,
      "count": 1027,
      "type": "VEC2",
      "min": [
        0.147705078125,
        0.258056640625
      ],
      "max": [
        0.466064453125,
        0.83740234375
      ]
    },
    {
      "bufferView": 3,
      "componentType": 5126,
      "count": 1027,
      "type": "VEC2",
      "min": [
        0,
        0.2783203125
      ],
      "max": [
        0.94482421875,
        1
      ]
    },
    {
      "bufferView": 4,
      "componentType": 5126,
      "count": 770.25,
      "type": "VEC4",
      "min": [
        0,
        0,
        0,
        0
      ],
      "max": [
        0.9999715685844421,
        0.9999715685844421,
        0.9999715685844421,
        0.9999715685844421
      ]
    },
    {
      "bufferView": 5,
      "componentType": 5123,
      "count": 2982,
      "type": "SCALAR",
      "min": [
        0
      ],
      "max": [
        1026
      ]
    }
  ],
  "extras": {
    "manifest": "Head_Open_Z1U1_Ass.materials.json"
  }
}