{
  "asset": {
    "version": "2.0",
    "generator": "prefab-to-gltf"
  },
  "scene": 0,
  "scenes": [
    {
      "name": "Legs_Shin_Z1U2_Cle",
      "nodes": [
        0
      ]
    }
  ],
  "nodes": [
    {
      "name": "Legs_R1S1_Cle_N",
      "translation": [
        0,
        0,
        0
      ],
      "rotation": [
        0,
        0,
        0,
        1
      ],
      "scale": [
        1,
        1,
        1
      ],
      "mesh": 0
    }
  ],
  "meshes": [
    {
      "name": "Legs_R1S1_Cle_N",
      "primitives": [
        {
          "attributes": {
            "POSITION": 0,
            "NORMAL": 1,
            "TEXCOORD_0": 2,
            "TEXCOORD_1": 3
          },
          "indices": 4,
          "material": 0,
          "mode": 4
        }
      ]
    }
  ],
  "materials": [
    {
      "name": "GradMat_Body",
      "pbrMetallicRoughness": {
        "baseColorFactor": [
          1,
          1,
          1,
          1
        ],
        "metallicFactor": 0,
        "roughnessFactor": 1
      },
      "doubleSided": true,
      "extras": {
        "diffuseTexture": "Character/Common/Texture/CustomGradient_BasicGuy.png",
        "specularTexture": null,
        "normalMap": null
      }
    }
  ],
  "buffers": [
    {
      "uri": "Legs_Shin_Z1U2_Cle.bin",
      "byteLength": 82640
    }
  ],
  "bufferViews": [
    {
      "buffer": 0,
      "byteOffset": 0,
      "byteLength": 22200,
      "target": 34962
    },
    {
      "buffer": 0,
      "byteOffset": 22200,
      "byteLength": 22200,
      "target": 34962
    },
    {
      "buffer": 0,
      "byteOffset": 44400,
      "byteLength": 14800,
      "target": 34962
    },
    {
      "buffer": 0,
      "byteOffset": 59200,
      "byteLength": 14800,
      "target": 34962
    },
    {
      "buffer": 0,
      "byteOffset": 74000,
      "byteLength": 8640,
      "target": 34963
    }
  ],
  "accessors": [
    {
      "bufferView": 0,
      "componentType": 5126,
      "count": 1850,
      "type": "VEC3",
      "min": [
        -0.37109375,
        0.08514404296875,
        -0.09075927734375
      ],
      "max": [
        0.37109375,
        1.2763671875,
        0.224609375
      ]
    },
    {
      "bufferView": 1,
      "componentType": 5126,
      "count": 1850,
      "type": "VEC3",
      "min": [
        -0.5019607843137255,
        -0.5019607843137255,
        -0.5019607843137255
      ],
      "max": [
        1,
        1,
        1
      ]
    },
    {
      "bufferView": 2,
      "componentType": 5126,
      "count": 1850,
      "type": "VEC2",
      "min": [
        0.039886474609375,
        0.214599609375
      ],
      "max": [
        0.5693359375,
        0.72509765625
      ]
    },
    {
      "bufferView": 3,
      "componentType": 5126,
      "count": 1850,
      "type": "VEC2",
      "min": [
        0.0347900390625,
        0.11029052734375
      ],
      "max": [
        0.48876953125,
        0.9697265625
      ]
    },
    {
      "bufferView": 4,
      "componentType": 5123,
      "count": 4320,
      "type": "SCALAR",
      "min": [
        0
      ],
      "max": [
        1849
      ]
    }
  ],
  "extras": {
    "manifest": "Legs_Shin_Z1U2_Cle.materials.json"
  }
}