{
  "asset": {
    "version": "2.0",
    "generator": "prefab-to-gltf"
  },
  "scene": 0,
  "scenes": [
    {
      "name": "Sparkling_Beryl_Green",
      "nodes": [
        0
      ]
    }
  ],
  "nodes": [
    {
      "name": "SparklingBeryl03",
      "translation": [
        0,
        0,
        0
      ],
      "rotation": [
        0,
        0,
        0,
        1
      ],
      "scale": [
        1,
        1,
        1
      ],
      "mesh": 0
    }
  ],
  "meshes": [
    {
      "name": "SparklingBeryl03",
      "primitives": [
        {
          "attributes": {
            "POSITION": 0,
            "NORMAL": 1,
            "TEXCOORD_0": 2,
            "TEXCOORD_1": 3
          },
          "indices": 4,
          "material": 0,
          "mode": 4
        }
      ]
    }
  ],
  "materials": [
    {
      "name": "GradMat",
      "pbrMetallicRoughness": {
        "baseColorFactor": [
          1,
          1,
          1,
          1
        ],
        "metallicFactor": 0,
        "roughnessFactor": 1
      },
      "doubleSided": true,
      "extras": {
        "diffuseTexture": "Character/Common/Texture/CustomGradient_WeaponALL.png",
        "specularTexture": null,
        "normalMap": null
      }
    }
  ],
  "buffers": [
    {
      "uri": "Sparkling_Beryl_Green.bin",
      "byteLength": 61764
    }
  ],
  "bufferViews": [
    {
      "buffer": 0,
      "byteOffset": 0,
      "byteLength": 17028,
      "target": 34962
    },
    {
      "buffer": 0,
      "byteOffset": 17028,
      "byteLength": 17028,
      "target": 34962
    },
    {
      "buffer": 0,
      "byteOffset": 34056,
      "byteLength": 11352,
      "target": 34962
    },
    {
      "buffer": 0,
      "byteOffset": 45408,
      "byteLength": 11352,
      "target": 34962
    },
    {
      "buffer": 0,
      "byteOffset": 56760,
      "byteLength": 5004,
      "target": 34963
    }
  ],
  "accessors": [
    {
      "bufferView": 0,
      "componentType": 5126,
      "count": 1419,
      "type": "VEC3",
      "min": [
        -0.9280441403388977,
        -0.6968334913253784,
        -0.954058051109314
      ],
      "max": [
        0.923380970954895,
        1.0096182823181152,
        0.547188401222229
      ]
    },
    {
      "bufferView": 1,
      "componentType": 5126,
      "count": 1419,
      "type": "VEC3",
      "min": [
        -0.982223629951477,
        -0.9888579845428467,
        -0.9821594953536987
      ],
      "max": [
        0.9907525777816772,
        0.9964659810066223,
        0.9873802065849304
      ]
    },
    {
      "bufferView": 2,
      "componentType": 5126,
      "count": 1419,
      "type": "VEC2",
      "min": [
        0.023102689534425735,
        -0.03433501720428467
      ],
      "max": [
        0.48972952365875244,
        0.9944461584091187
      ]
    },
    {
      "bufferView": 3,
      "componentType": 5126,
      "count": 1419,
      "type": "VEC2",
      "min": [
        0.026318788528442383,
        0.02108466625213623
      ],
      "max": [
        0.9480003714561462,
        0.9868037104606628
      ]
    },
    {
      "bufferView": 4,
      "componentType": 5123,
      "count": 2502,
      "type": "SCALAR",
      "min": [
        0
      ],
      "max": [
        1418
      ]
    }
  ],
  "extras": {
    "manifest": "Sparkling_Beryl_Green.materials.json"
  }
}