{
  "asset": {
    "version": "2.0",
    "generator": "prefab-to-gltf"
  },
  "scene": 0,
  "scenes": [
    {
      "name": "Sparkling_Beryl_Blue",
      "nodes": [
        0
      ]
    }
  ],
  "nodes": [
    {
      "name": "SparklingBeryl04",
      "translation": [
        0,
        0,
        0
      ],
      "rotation": [
        0,
        0,
        0,
        1
      ],
      "scale": [
        1,
        1,
        1
      ],
      "mesh": 0
    }
  ],
  "meshes": [
    {
      "name": "SparklingBeryl04",
      "primitives": [
        {
          "attributes": {
            "POSITION": 0,
            "NORMAL": 1,
            "TEXCOORD_0": 2,
            "TEXCOORD_1": 3
          },
          "indices": 4,
          "material": 0,
          "mode": 4
        }
      ]
    }
  ],
  "materials": [
    {
      "name": "GradMat",
      "pbrMetallicRoughness": {
        "baseColorFactor": [
          1,
          1,
          1,
          1
        ],
        "metallicFactor": 0,
        "roughnessFactor": 1
      },
      "doubleSided": true,
      "extras": {
        "diffuseTexture": "Character/Common/Texture/CustomGradient_WeaponALL.png",
        "specularTexture": null,
        "normalMap": null
      }
    }
  ],
  "buffers": [
    {
      "uri": "Sparkling_Beryl_Blue.bin",
      "byteLength": 63628
    }
  ],
  "bufferViews": [
    {
      "buffer": 0,
      "byteOffset": 0,
      "byteLength": 17544,
      "target": 34962
    },
    {
      "buffer": 0,
      "byteOffset": 17544,
      "byteLength": 17544,
      "target": 34962
    },
    {
      "buffer": 0,
      "byteOffset": 35088,
      "byteLength": 11696,
      "target": 34962
    },
    {
      "buffer": 0,
      "byteOffset": 46784,
      "byteLength": 11696,
      "target": 34962
    },
    {
      "buffer": 0,
      "byteOffset": 58480,
      "byteLength": 5148,
      "target": 34963
    }
  ],
  "accessors": [
    {
      "bufferView": 0,
      "componentType": 5126,
      "count": 1462,
      "type": "VEC3",
      "min": [
        -0.9280440807342529,
        -0.6968334317207336,
        -0.954058051109314
      ],
      "max": [
        0.9233809113502502,
        1.0096181631088257,
        0.547188401222229
      ]
    },
    {
      "bufferView": 1,
      "componentType": 5126,
      "count": 1462,
      "type": "VEC3",
      "min": [
        -0.993757963180542,
        -0.9888577461242676,
        -0.982159435749054
      ],
      "max": [
        0.9946668148040771,
        0.9964659810066223,
        0.9938238263130188
      ]
    },
    {
      "bufferView": 2,
      "componentType": 5126,
      "count": 1462,
      "type": "VEC2",
      "min": [
        0.023102689534425735,
        -0.03433501720428467
      ],
      "max": [
        0.6134278774261475,
        0.9944461584091187
      ]
    },
    {
      "bufferView": 3,
      "componentType": 5126,
      "count": 1462,
      "type": "VEC2",
      "min": [
        0.021048614755272865,
        0.02108466625213623
      ],
      "max": [
        0.9483696222305298,
        0.984187126159668
      ]
    },
    {
      "bufferView": 4,
      "componentType": 5123,
      "count": 2574,
      "type": "SCALAR",
      "min": [
        0
      ],
      "max": [
        1461
      ]
    }
  ],
  "extras": {
    "manifest": "Sparkling_Beryl_Blue.materials.json"
  }
}