{
  "asset": {
    "version": "2.0",
    "generator": "prefab-to-gltf"
  },
  "scene": 0,
  "scenes": [
    {
      "name": "Chest_NoSleeves_Z3U2_FigAss",
      "nodes": [
        0
      ]
    }
  ],
  "nodes": [
    {
      "name": "Chest_R1S1_FigAss_N",
      "translation": [
        0,
        0,
        0
      ],
      "rotation": [
        0,
        0,
        0,
        1
      ],
      "scale": [
        1,
        1,
        1
      ],
      "mesh": 0
    }
  ],
  "meshes": [
    {
      "name": "Chest_R1S1_FigAss_N",
      "primitives": [
        {
          "attributes": {
            "POSITION": 0,
            "NORMAL": 1,
            "TEXCOORD_0": 2,
            "TEXCOORD_1": 3,
            "COLOR_0": 4
          },
          "indices": 5,
          "material": 0,
          "mode": 4
        }
      ]
    }
  ],
  "materials": [
    {
      "name": "GradMat_Body",
      "pbrMetallicRoughness": {
        "baseColorFactor": [
          1,
          1,
          1,
          1
        ],
        "metallicFactor": 0,
        "roughnessFactor": 1
      },
      "doubleSided": true,
      "extras": {
        "diffuseTexture": "Character/Common/Texture/CustomGradient_BasicGuy.png",
        "specularTexture": null,
        "normalMap": null
      }
    }
  ],
  "buffers": [
    {
      "uri": "Chest_NoSleeves_Z3U2_FigAss.bin",
      "byteLength": 259088
    }
  ],
  "bufferViews": [
    {
      "buffer": 0,
      "byteOffset": 0,
      "byteLength": 54852,
      "target": 34962
    },
    {
      "buffer": 0,
      "byteOffset": 54852,
      "byteLength": 54852,
      "target": 34962
    },
    {
      "buffer": 0,
      "byteOffset": 109704,
      "byteLength": 36568,
      "target": 34962
    },
    {
      "buffer": 0,
      "byteOffset": 146272,
      "byteLength": 36568,
      "target": 34962
    },
    {
      "buffer": 0,
      "byteOffset": 182840,
      "byteLength": 54852,
      "target": 34962
    },
    {
      "buffer": 0,
      "byteOffset": 237692,
      "byteLength": 21396,
      "target": 34963
    }
  ],
  "accessors": [
    {
      "bufferView": 0,
      "componentType": 5126,
      "count": 4571,
      "type": "VEC3",
      "min": [
        -0.66650390625,
        1.173828125,
        -0.1373291015625
      ],
      "max": [
        0.66650390625,
        1.9326171875,
        0.256591796875
      ]
    },
    {
      "bufferView": 1,
      "componentType": 5126,
      "count": 4571,
      "type": "VEC3",
      "min": [
        -0.5019607843137255,
        -0.5019607843137255,
        -0.5019607843137255
      ],
      "max": [
        1,
        1,
        1
      ]
    },
    {
      "bufferView": 2,
      "componentType": 5126,
      "count": 4571,
      "type": "VEC2",
      "min": [
        0.0093841552734375,
        0.1707763671875
      ],
      "max": [
        0.97265625,
        0.94384765625
      ]
    },
    {
      "bufferView": 3,
      "componentType": 5126,
      "count": 4571,
      "type": "VEC2",
      "min": [
        0.061553955078125,
        0.106689453125
      ],
      "max": [
        0.947265625,
        0.95849609375
      ]
    },
    {
      "bufferView": 4,
      "componentType": 5126,
      "count": 3428.25,
      "type": "VEC4",
      "min": [
        0.3607843220233917,
        0.3607843220233917,
        0.3607843220233917,
        0.3607843220233917
      ],
      "max": [
        1,
        1,
        1,
        1
      ]
    },
    {
      "bufferView": 5,
      "componentType": 5123,
      "count": 10698,
      "type": "SCALAR",
      "min": [
        0
      ],
      "max": [
        4570
      ]
    }
  ],
  "extras": {
    "manifest": "Chest_NoSleeves_Z3U2_FigAss.materials.json"
  }
}