{
  "asset": {
    "version": "2.0",
    "generator": "prefab-to-gltf"
  },
  "scene": 0,
  "scenes": [
    {
      "name": "Feet_High_Z3U2_FigAss",
      "nodes": [
        0
      ]
    }
  ],
  "nodes": [
    {
      "name": "Feet_R1S1_FigAss_N",
      "translation": [
        0,
        0,
        0
      ],
      "rotation": [
        0,
        0,
        0,
        1
      ],
      "scale": [
        1,
        1,
        1
      ],
      "mesh": 0
    }
  ],
  "meshes": [
    {
      "name": "Feet_R1S1_FigAss_N",
      "primitives": [
        {
          "attributes": {
            "POSITION": 0,
            "NORMAL": 1,
            "TEXCOORD_0": 2,
            "TEXCOORD_1": 3
          },
          "indices": 4,
          "material": 0,
          "mode": 4
        }
      ]
    }
  ],
  "materials": [
    {
      "name": "GradMat_Body",
      "pbrMetallicRoughness": {
        "baseColorFactor": [
          1,
          1,
          1,
          1
        ],
        "metallicFactor": 0,
        "roughnessFactor": 1
      },
      "doubleSided": true,
      "extras": {
        "diffuseTexture": "Character/Common/Texture/CustomGradient_BasicGuy.png",
        "specularTexture": null,
        "normalMap": null
      }
    }
  ],
  "buffers": [
    {
      "uri": "Feet_High_Z3U2_FigAss.bin",
      "byteLength": 171508
    }
  ],
  "bufferViews": [
    {
      "buffer": 0,
      "byteOffset": 0,
      "byteLength": 46056,
      "target": 34962
    },
    {
      "buffer": 0,
      "byteOffset": 46056,
      "byteLength": 46056,
      "target": 34962
    },
    {
      "buffer": 0,
      "byteOffset": 92112,
      "byteLength": 30704,
      "target": 34962
    },
    {
      "buffer": 0,
      "byteOffset": 122816,
      "byteLength": 30704,
      "target": 34962
    },
    {
      "buffer": 0,
      "byteOffset": 153520,
      "byteLength": 17988,
      "target": 34963
    }
  ],
  "accessors": [
    {
      "bufferView": 0,
      "componentType": 5126,
      "count": 3838,
      "type": "VEC3",
      "min": [
        -0.4169921875,
        0.01364898681640625,
        -0.12890625
      ],
      "max": [
        0.4169921875,
        0.52392578125,
        0.297607421875
      ]
    },
    {
      "bufferView": 1,
      "componentType": 5126,
      "count": 3838,
      "type": "VEC3",
      "min": [
        -0.5019607843137255,
        -0.5019607843137255,
        -0.5019607843137255
      ],
      "max": [
        1,
        1,
        1
      ]
    },
    {
      "bufferView": 2,
      "componentType": 5126,
      "count": 3838,
      "type": "VEC2",
      "min": [
        0.00566864013671875,
        0.2313232421875
      ],
      "max": [
        0.9609375,
        0.92431640625
      ]
    },
    {
      "bufferView": 3,
      "componentType": 5126,
      "count": 3838,
      "type": "VEC2",
      "min": [
        0,
        0.1136474609375
      ],
      "max": [
        0.830078125,
        1
      ]
    },
    {
      "bufferView": 4,
      "componentType": 5123,
      "count": 8994,
      "type": "SCALAR",
      "min": [
        0
      ],
      "max": [
        3837
      ]
    }
  ],
  "extras": {
    "manifest": "Feet_High_Z3U2_FigAss.materials.json"
  }
}