{
  "asset": {
    "version": "2.0",
    "generator": "prefab-to-gltf"
  },
  "scene": 0,
  "scenes": [
    {
      "name": "Legs_Shin_Z3U2_FigAss",
      "nodes": [
        0
      ]
    }
  ],
  "nodes": [
    {
      "name": "Legs_R1S1_FigAss_N",
      "translation": [
        0,
        0,
        0
      ],
      "rotation": [
        0,
        0,
        0,
        1
      ],
      "scale": [
        1,
        1,
        1
      ],
      "mesh": 0
    }
  ],
  "meshes": [
    {
      "name": "Legs_R1S1_FigAss_N",
      "primitives": [
        {
          "attributes": {
            "POSITION": 0,
            "NORMAL": 1,
            "TEXCOORD_0": 2,
            "TEXCOORD_1": 3
          },
          "indices": 4,
          "material": 0,
          "mode": 4
        }
      ]
    }
  ],
  "materials": [
    {
      "name": "GradMat_Body",
      "pbrMetallicRoughness": {
        "baseColorFactor": [
          1,
          1,
          1,
          1
        ],
        "metallicFactor": 0,
        "roughnessFactor": 1
      },
      "doubleSided": true,
      "extras": {
        "diffuseTexture": "Character/Common/Texture/CustomGradient_BasicGuy.png",
        "specularTexture": null,
        "normalMap": null
      }
    }
  ],
  "buffers": [
    {
      "uri": "Legs_Shin_Z3U2_FigAss.bin",
      "byteLength": 119696
    }
  ],
  "bufferViews": [
    {
      "buffer": 0,
      "byteOffset": 0,
      "byteLength": 32064,
      "target": 34962
    },
    {
      "buffer": 0,
      "byteOffset": 32064,
      "byteLength": 32064,
      "target": 34962
    },
    {
      "buffer": 0,
      "byteOffset": 64128,
      "byteLength": 21376,
      "target": 34962
    },
    {
      "buffer": 0,
      "byteOffset": 85504,
      "byteLength": 21376,
      "target": 34962
    },
    {
      "buffer": 0,
      "byteOffset": 106880,
      "byteLength": 12816,
      "target": 34963
    }
  ],
  "accessors": [
    {
      "bufferView": 0,
      "componentType": 5126,
      "count": 2672,
      "type": "VEC3",
      "min": [
        -0.380615234375,
        0.08514404296875,
        -0.11846923828125
      ],
      "max": [
        0.380615234375,
        1.2763671875,
        0.23046875
      ]
    },
    {
      "bufferView": 1,
      "componentType": 5126,
      "count": 2672,
      "type": "VEC3",
      "min": [
        -0.5019607843137255,
        -0.5019607843137255,
        -0.5019607843137255
      ],
      "max": [
        1,
        1,
        1
      ]
    },
    {
      "bufferView": 2,
      "componentType": 5126,
      "count": 2672,
      "type": "VEC2",
      "min": [
        0.039886474609375,
        0.2254638671875
      ],
      "max": [
        0.966796875,
        0.8544921875
      ]
    },
    {
      "bufferView": 3,
      "componentType": 5126,
      "count": 2672,
      "type": "VEC2",
      "min": [
        0.0347900390625,
        0.1126708984375
      ],
      "max": [
        0.77978515625,
        0.96630859375
      ]
    },
    {
      "bufferView": 4,
      "componentType": 5123,
      "count": 6408,
      "type": "SCALAR",
      "min": [
        0
      ],
      "max": [
        2671
      ]
    }
  ],
  "extras": {
    "manifest": "Legs_Shin_Z3U2_FigAss.materials.json"
  }
}