{
  "asset": {
    "version": "2.0",
    "generator": "prefab-to-gltf"
  },
  "scene": 0,
  "scenes": [
    {
      "name": "Human_PirateMelee",
      "nodes": [
        0
      ]
    }
  ],
  "nodes": [
    {
      "name": "PirateMelee_Weapon",
      "translation": [
        0,
        0,
        0
      ],
      "rotation": [
        0.7071056365966797,
        0,
        0,
        0.7071079257745626
      ],
      "scale": [
        1,
        1,
        1
      ],
      "mesh": 0
    }
  ],
  "meshes": [
    {
      "name": "PirateMelee_Weapon",
      "primitives": [
        {
          "attributes": {
            "POSITION": 0,
            "NORMAL": 1,
            "TEXCOORD_0": 2,
            "TEXCOORD_1": 3
          },
          "indices": 4,
          "material": 0,
          "mode": 4
        }
      ]
    }
  ],
  "materials": [
    {
      "name": "MatSlots_Pirate",
      "pbrMetallicRoughness": {
        "baseColorFactor": [
          1,
          1,
          1,
          1
        ],
        "metallicFactor": 0,
        "roughnessFactor": 1
      },
      "doubleSided": true,
      "extras": {
        "diffuseTexture": null,
        "specularTexture": null,
        "normalMap": null
      }
    }
  ],
  "buffers": [
    {
      "uri": "Human_PirateMelee.bin",
      "byteLength": 52752
    }
  ],
  "bufferViews": [
    {
      "buffer": 0,
      "byteOffset": 0,
      "byteLength": 13428,
      "target": 34962
    },
    {
      "buffer": 0,
      "byteOffset": 13428,
      "byteLength": 13428,
      "target": 34962
    },
    {
      "buffer": 0,
      "byteOffset": 26856,
      "byteLength": 8952,
      "target": 34962
    },
    {
      "buffer": 0,
      "byteOffset": 35808,
      "byteLength": 8952,
      "target": 34962
    },
    {
      "buffer": 0,
      "byteOffset": 44760,
      "byteLength": 7992,
      "target": 34963
    }
  ],
  "accessors": [
    {
      "bufferView": 0,
      "componentType": 5126,
      "count": 1119,
      "type": "VEC3",
      "min": [
        -0.0979415625333786,
        -0.8090284466743469,
        -0.3523637652397156
      ],
      "max": [
        0.12434922903776169,
        1.4006198644638062,
        0.6925929188728333
      ]
    },
    {
      "bufferView": 1,
      "componentType": 5126,
      "count": 1119,
      "type": "VEC3",
      "min": [
        -0.999484121799469,
        -0.9991698861122131,
        -0.9997646808624268
      ],
      "max": [
        0.9997243285179138,
        0.9992892742156982,
        0.9997662305831909
      ]
    },
    {
      "bufferView": 2,
      "componentType": 5126,
      "count": 1119,
      "type": "VEC2",
      "min": [
        0.15713180601596832,
        0.2501763701438904
      ],
      "max": [
        0.4657270908355713,
        0.7412092685699463
      ]
    },
    {
      "bufferView": 3,
      "componentType": 5126,
      "count": 1119,
      "type": "VEC2",
      "min": [
        0.04435133934020996,
        0.9592334032058716
      ],
      "max": [
        0.04873943328857422,
        0.9636214971542358
      ]
    },
    {
      "bufferView": 4,
      "componentType": 5123,
      "count": 3996,
      "type": "SCALAR",
      "min": [
        0
      ],
      "max": [
        1118
      ]
    }
  ],
  "extras": {
    "manifest": "Human_PirateMelee.materials.json"
  }
}