{
  "asset": {
    "version": "2.0",
    "generator": "prefab-to-gltf"
  },
  "scene": 0,
  "scenes": [
    {
      "name": "Hands_Forearm_Z2U1_AssWiz",
      "nodes": [
        0
      ]
    }
  ],
  "nodes": [
    {
      "name": "Hands_R1S1_AssCle_N",
      "translation": [
        0,
        0,
        0
      ],
      "rotation": [
        0,
        0,
        0,
        1
      ],
      "scale": [
        1,
        1,
        1
      ],
      "mesh": 0
    }
  ],
  "meshes": [
    {
      "name": "Hands_R1S1_AssCle_N",
      "primitives": [
        {
          "attributes": {
            "POSITION": 0,
            "NORMAL": 1,
            "TEXCOORD_0": 2,
            "TEXCOORD_1": 3
          },
          "indices": 4,
          "material": 0,
          "mode": 4
        }
      ]
    }
  ],
  "materials": [
    {
      "name": "GradMat_Body",
      "pbrMetallicRoughness": {
        "baseColorFactor": [
          1,
          1,
          1,
          1
        ],
        "metallicFactor": 0,
        "roughnessFactor": 1
      },
      "doubleSided": true,
      "extras": {
        "diffuseTexture": "Character/Common/Texture/CustomGradient_BasicGuy.png",
        "specularTexture": null,
        "normalMap": null
      }
    }
  ],
  "buffers": [
    {
      "uri": "Hands_Forearm_Z2U1_AssWiz.bin",
      "byteLength": 196288
    }
  ],
  "bufferViews": [
    {
      "buffer": 0,
      "byteOffset": 0,
      "byteLength": 51384,
      "target": 34962
    },
    {
      "buffer": 0,
      "byteOffset": 51384,
      "byteLength": 51384,
      "target": 34962
    },
    {
      "buffer": 0,
      "byteOffset": 102768,
      "byteLength": 34256,
      "target": 34962
    },
    {
      "buffer": 0,
      "byteOffset": 137024,
      "byteLength": 34256,
      "target": 34962
    },
    {
      "buffer": 0,
      "byteOffset": 171280,
      "byteLength": 25008,
      "target": 34963
    }
  ],
  "accessors": [
    {
      "bufferView": 0,
      "componentType": 5126,
      "count": 4282,
      "type": "VEC3",
      "min": [
        -0.81201171875,
        0.9814453125,
        -0.0374755859375
      ],
      "max": [
        0.81201171875,
        1.4599609375,
        0.337646484375
      ]
    },
    {
      "bufferView": 1,
      "componentType": 5126,
      "count": 4282,
      "type": "VEC3",
      "min": [
        -0.5019607843137255,
        -0.5019607843137255,
        -0.5019607843137255
      ],
      "max": [
        1,
        1,
        1
      ]
    },
    {
      "bufferView": 2,
      "componentType": 5126,
      "count": 4282,
      "type": "VEC2",
      "min": [
        0.0190582275390625,
        0.1739501953125
      ],
      "max": [
        0.468017578125,
        0.84765625
      ]
    },
    {
      "bufferView": 3,
      "componentType": 5126,
      "count": 4282,
      "type": "VEC2",
      "min": [
        0,
        0.1328125
      ],
      "max": [
        0.9453125,
        1.0009765625
      ]
    },
    {
      "bufferView": 4,
      "componentType": 5123,
      "count": 12504,
      "type": "SCALAR",
      "min": [
        0
      ],
      "max": [
        4281
      ]
    }
  ],
  "extras": {
    "manifest": "Hands_Forearm_Z2U1_AssWiz.materials.json"
  }
}