{
  "asset": {
    "version": "2.0",
    "generator": "prefab-to-gltf"
  },
  "scene": 0,
  "scenes": [
    {
      "name": "Shoulders_Inner_Z2U1_AssWiz",
      "nodes": [
        0
      ]
    }
  ],
  "nodes": [
    {
      "name": "Shoulders_Z2U_Medium_N",
      "translation": [
        0,
        0,
        0
      ],
      "rotation": [
        0,
        0,
        0,
        1
      ],
      "scale": [
        1,
        1,
        1
      ],
      "mesh": 0
    }
  ],
  "meshes": [
    {
      "name": "Shoulders_Z2U_Medium_N",
      "primitives": [
        {
          "attributes": {
            "POSITION": 0,
            "NORMAL": 1,
            "TEXCOORD_0": 2,
            "TEXCOORD_1": 3,
            "COLOR_0": 4
          },
          "indices": 5,
          "material": 0,
          "mode": 4
        }
      ]
    }
  ],
  "materials": [
    {
      "name": "GradMat_Body",
      "pbrMetallicRoughness": {
        "baseColorFactor": [
          1,
          1,
          1,
          1
        ],
        "metallicFactor": 0,
        "roughnessFactor": 1
      },
      "doubleSided": true,
      "extras": {
        "diffuseTexture": "Character/Common/Texture/CustomGradient_Hero_Clothes.png",
        "specularTexture": null,
        "normalMap": null
      }
    }
  ],
  "buffers": [
    {
      "uri": "Shoulders_Inner_Z2U1_AssWiz.bin",
      "byteLength": 156296
    }
  ],
  "bufferViews": [
    {
      "buffer": 0,
      "byteOffset": 0,
      "byteLength": 32352,
      "target": 34962
    },
    {
      "buffer": 0,
      "byteOffset": 32352,
      "byteLength": 32352,
      "target": 34962
    },
    {
      "buffer": 0,
      "byteOffset": 64704,
      "byteLength": 21568,
      "target": 34962
    },
    {
      "buffer": 0,
      "byteOffset": 86272,
      "byteLength": 21568,
      "target": 34962
    },
    {
      "buffer": 0,
      "byteOffset": 107840,
      "byteLength": 32352,
      "target": 34962
    },
    {
      "buffer": 0,
      "byteOffset": 140192,
      "byteLength": 16104,
      "target": 34963
    }
  ],
  "accessors": [
    {
      "bufferView": 0,
      "componentType": 5126,
      "count": 2696,
      "type": "VEC3",
      "min": [
        -0.53125,
        1.3837890625,
        -0.208740234375
      ],
      "max": [
        0.53125,
        1.90625,
        0.2379150390625
      ]
    },
    {
      "bufferView": 1,
      "componentType": 5126,
      "count": 2696,
      "type": "VEC3",
      "min": [
        -0.5019607843137255,
        -0.5019607843137255,
        -0.5019607843137255
      ],
      "max": [
        1,
        1,
        0.4980392156862745
      ]
    },
    {
      "bufferView": 2,
      "componentType": 5126,
      "count": 2696,
      "type": "VEC2",
      "min": [
        0.1416015625,
        0.385986328125
      ],
      "max": [
        0.57861328125,
        0.916015625
      ]
    },
    {
      "bufferView": 3,
      "componentType": 5126,
      "count": 2696,
      "type": "VEC2",
      "min": [
        0,
        0.10968017578125
      ],
      "max": [
        0.81005859375,
        1
      ]
    },
    {
      "bufferView": 4,
      "componentType": 5126,
      "count": 2022,
      "type": "VEC4",
      "min": [
        0,
        0,
        0,
        0
      ],
      "max": [
        0.9999715685844421,
        0.9999715685844421,
        0.9999715685844421,
        0.9999715685844421
      ]
    },
    {
      "bufferView": 5,
      "componentType": 5123,
      "count": 8052,
      "type": "SCALAR",
      "min": [
        0
      ],
      "max": [
        2695
      ]
    }
  ],
  "extras": {
    "manifest": "Shoulders_Inner_Z2U1_AssWiz.materials.json"
  }
}