{
  "asset": {
    "version": "2.0",
    "generator": "prefab-to-gltf"
  },
  "scene": 0,
  "scenes": [
    {
      "name": "Hair_Short_Shaved",
      "nodes": [
        0
      ]
    }
  ],
  "nodes": [
    {
      "name": "Hair_Short_Shaved",
      "translation": [
        0,
        0,
        0
      ],
      "rotation": [
        0,
        0,
        0,
        1
      ],
      "scale": [
        1,
        1,
        1
      ],
      "mesh": 0
    }
  ],
  "meshes": [
    {
      "name": "Hair_Short_Shaved",
      "primitives": [
        {
          "attributes": {
            "POSITION": 0,
            "NORMAL": 1,
            "TEXCOORD_0": 2,
            "TEXCOORD_1": 3,
            "COLOR_0": 4
          },
          "indices": 5,
          "material": 0,
          "mode": 4
        }
      ]
    }
  ],
  "materials": [
    {
      "name": "GradMat_Body",
      "pbrMetallicRoughness": {
        "baseColorFactor": [
          1,
          1,
          1,
          1
        ],
        "metallicFactor": 0,
        "roughnessFactor": 1
      },
      "doubleSided": true,
      "extras": {
        "diffuseTexture": "Character/Common/Texture/CustomGradient_BasicGuy.png",
        "specularTexture": null,
        "normalMap": null
      }
    }
  ],
  "buffers": [
    {
      "uri": "Hair_Short_Shaved.bin",
      "byteLength": 73640
    }
  ],
  "bufferViews": [
    {
      "buffer": 0,
      "byteOffset": 0,
      "byteLength": 16332,
      "target": 34962
    },
    {
      "buffer": 0,
      "byteOffset": 16332,
      "byteLength": 16332,
      "target": 34962
    },
    {
      "buffer": 0,
      "byteOffset": 32664,
      "byteLength": 10888,
      "target": 34962
    },
    {
      "buffer": 0,
      "byteOffset": 43552,
      "byteLength": 10888,
      "target": 34962
    },
    {
      "buffer": 0,
      "byteOffset": 54440,
      "byteLength": 16332,
      "target": 34962
    },
    {
      "buffer": 0,
      "byteOffset": 70772,
      "byteLength": 2868,
      "target": 34963
    }
  ],
  "accessors": [
    {
      "bufferView": 0,
      "componentType": 5126,
      "count": 1361,
      "type": "VEC3",
      "min": [
        -0.14096365869045258,
        1.9328471422195435,
        -0.08439431339502335
      ],
      "max": [
        0.14096365869045258,
        2.1829280853271484,
        0.2219090461730957
      ]
    },
    {
      "bufferView": 1,
      "componentType": 5126,
      "count": 1361,
      "type": "VEC3",
      "min": [
        -0.9968653917312622,
        -0.9887900352478027,
        -0.9991694688796997
      ],
      "max": [
        0.9968653917312622,
        0.9999536275863647,
        0.9799739718437195
      ]
    },
    {
      "bufferView": 2,
      "componentType": 5126,
      "count": 1361,
      "type": "VEC2",
      "min": [
        0.14323657751083374,
        0.8371166586875916
      ],
      "max": [
        0.21678897738456726,
        0.961188018321991
      ]
    },
    {
      "bufferView": 3,
      "componentType": 5126,
      "count": 1361,
      "type": "VEC2",
      "min": [
        0.03125017508864403,
        0.9431585073471069
      ],
      "max": [
        0.07993268966674805,
        0.9609375
      ]
    },
    {
      "bufferView": 4,
      "componentType": 5126,
      "count": 1020.75,
      "type": "VEC4",
      "min": [
        0,
        0,
        0,
        0
      ],
      "max": [
        0.9999715685844421,
        0.9999715685844421,
        0.9999715685844421,
        0.9999715685844421
      ]
    },
    {
      "bufferView": 5,
      "componentType": 5123,
      "count": 1434,
      "type": "SCALAR",
      "min": [
        0
      ],
      "max": [
        1360
      ]
    }
  ],
  "extras": {
    "manifest": "Hair_Short_Shaved.materials.json"
  }
}