{
  "asset": {
    "version": "2.0",
    "generator": "prefab-to-gltf"
  },
  "scene": 0,
  "scenes": [
    {
      "name": "Hair_Short_Spiky_01",
      "nodes": [
        0
      ]
    }
  ],
  "nodes": [
    {
      "name": "Hair_Short_Spiky_01",
      "translation": [
        0,
        0,
        0
      ],
      "rotation": [
        0,
        0,
        0,
        1
      ],
      "scale": [
        1,
        1,
        1
      ],
      "mesh": 0
    }
  ],
  "meshes": [
    {
      "name": "Hair_Short_Spiky_01",
      "primitives": [
        {
          "attributes": {
            "POSITION": 0,
            "NORMAL": 1,
            "TEXCOORD_0": 2,
            "TEXCOORD_1": 3,
            "COLOR_0": 4
          },
          "indices": 5,
          "material": 0,
          "mode": 4
        }
      ]
    }
  ],
  "materials": [
    {
      "name": "Gradmat_Weapon",
      "pbrMetallicRoughness": {
        "baseColorFactor": [
          1,
          1,
          1,
          1
        ],
        "metallicFactor": 0,
        "roughnessFactor": 1
      },
      "doubleSided": true,
      "extras": {
        "diffuseTexture": "Character/Common/Texture/CustomGradient_Hero_Clothes.png",
        "specularTexture": null,
        "normalMap": null
      }
    }
  ],
  "buffers": [
    {
      "uri": "Hair_Short_Spiky_01.bin",
      "byteLength": 70886
    }
  ],
  "bufferViews": [
    {
      "buffer": 0,
      "byteOffset": 0,
      "byteLength": 14568,
      "target": 34962
    },
    {
      "buffer": 0,
      "byteOffset": 14568,
      "byteLength": 14568,
      "target": 34962
    },
    {
      "buffer": 0,
      "byteOffset": 29136,
      "byteLength": 9712,
      "target": 34962
    },
    {
      "buffer": 0,
      "byteOffset": 38848,
      "byteLength": 9712,
      "target": 34962
    },
    {
      "buffer": 0,
      "byteOffset": 48560,
      "byteLength": 14568,
      "target": 34962
    },
    {
      "buffer": 0,
      "byteOffset": 63128,
      "byteLength": 7758,
      "target": 34963
    }
  ],
  "accessors": [
    {
      "bufferView": 0,
      "componentType": 5126,
      "count": 1214,
      "type": "VEC3",
      "min": [
        -0.1449146270751953,
        1.9102609157562256,
        -0.1520468294620514
      ],
      "max": [
        0.14547690749168396,
        2.270878553390503,
        0.22426071763038635
      ]
    },
    {
      "bufferView": 1,
      "componentType": 5126,
      "count": 1214,
      "type": "VEC3",
      "min": [
        -0.9988575577735901,
        -0.9995191097259521,
        -0.999584972858429
      ],
      "max": [
        0.9998897314071655,
        0.9956859350204468,
        0.9974201917648315
      ]
    },
    {
      "bufferView": 2,
      "componentType": 5126,
      "count": 1214,
      "type": "VEC2",
      "min": [
        0.16985103487968445,
        0.06336677074432373
      ],
      "max": [
        0.3337097764015198,
        0.8483258485794067
      ]
    },
    {
      "bufferView": 3,
      "componentType": 5126,
      "count": 1214,
      "type": "VEC2",
      "min": [
        0.07153599709272385,
        0.009015560150146484
      ],
      "max": [
        0.6004567742347717,
        0.9351083040237427
      ]
    },
    {
      "bufferView": 4,
      "componentType": 5126,
      "count": 910.5,
      "type": "VEC4",
      "min": [
        0,
        0,
        0,
        0
      ],
      "max": [
        0.9999715685844421,
        0.9999715685844421,
        0.9999715685844421,
        0.9999715685844421
      ]
    },
    {
      "bufferView": 5,
      "componentType": 5123,
      "count": 3879,
      "type": "SCALAR",
      "min": [
        0
      ],
      "max": [
        1213
      ]
    }
  ],
  "extras": {
    "manifest": "Hair_Short_Spiky_01.materials.json"
  }
}