{
  "asset": {
    "version": "2.0",
    "generator": "prefab-to-gltf"
  },
  "scene": 0,
  "scenes": [
    {
      "name": "Hair_Short_Hipster_01",
      "nodes": [
        0
      ]
    }
  ],
  "nodes": [
    {
      "name": "Hair_Short_Hipster_01",
      "translation": [
        0,
        0,
        0
      ],
      "rotation": [
        0,
        0,
        0,
        1
      ],
      "scale": [
        1,
        1,
        1
      ],
      "mesh": 0
    }
  ],
  "meshes": [
    {
      "name": "Hair_Short_Hipster_01",
      "primitives": [
        {
          "attributes": {
            "POSITION": 0,
            "NORMAL": 1,
            "TEXCOORD_0": 2,
            "TEXCOORD_1": 3,
            "COLOR_0": 4
          },
          "indices": 5,
          "material": 0,
          "mode": 4
        }
      ]
    }
  ],
  "materials": [
    {
      "name": "Gradmat_Weapon",
      "pbrMetallicRoughness": {
        "baseColorFactor": [
          1,
          1,
          1,
          1
        ],
        "metallicFactor": 0,
        "roughnessFactor": 1
      },
      "doubleSided": true,
      "extras": {
        "diffuseTexture": "Character/Common/Texture/CustomGradient_Hero_Clothes.png",
        "specularTexture": null,
        "normalMap": null
      }
    }
  ],
  "buffers": [
    {
      "uri": "Hair_Short_Hipster_01.bin",
      "byteLength": 34778
    }
  ],
  "bufferViews": [
    {
      "buffer": 0,
      "byteOffset": 0,
      "byteLength": 7044,
      "target": 34962
    },
    {
      "buffer": 0,
      "byteOffset": 7044,
      "byteLength": 7044,
      "target": 34962
    },
    {
      "buffer": 0,
      "byteOffset": 14088,
      "byteLength": 4696,
      "target": 34962
    },
    {
      "buffer": 0,
      "byteOffset": 18784,
      "byteLength": 4696,
      "target": 34962
    },
    {
      "buffer": 0,
      "byteOffset": 23480,
      "byteLength": 7044,
      "target": 34962
    },
    {
      "buffer": 0,
      "byteOffset": 30524,
      "byteLength": 4254,
      "target": 34963
    }
  ],
  "accessors": [
    {
      "bufferView": 0,
      "componentType": 5126,
      "count": 587,
      "type": "VEC3",
      "min": [
        -0.19602514803409576,
        2.068214178085327,
        -0.08887611329555511
      ],
      "max": [
        0.13900621235370636,
        2.2413527965545654,
        0.2357509285211563
      ]
    },
    {
      "bufferView": 1,
      "componentType": 5126,
      "count": 587,
      "type": "VEC3",
      "min": [
        -0.99442058801651,
        -0.9993577599525452,
        -0.9984114170074463
      ],
      "max": [
        0.983870804309845,
        0.9990589022636414,
        0.9961701035499573
      ]
    },
    {
      "bufferView": 2,
      "componentType": 5126,
      "count": 587,
      "type": "VEC2",
      "min": [
        0.1368926614522934,
        0.23025262355804443
      ],
      "max": [
        0.3529275059700012,
        0.7116901874542236
      ]
    },
    {
      "bufferView": 3,
      "componentType": 5126,
      "count": 587,
      "type": "VEC2",
      "min": [
        0,
        0.004188895225524902
      ],
      "max": [
        0.6336658000946045,
        1
      ]
    },
    {
      "bufferView": 4,
      "componentType": 5126,
      "count": 440.25,
      "type": "VEC4",
      "min": [
        0.9803921580314636,
        0.9803921580314636,
        1,
        0.9803921580314636
      ],
      "max": [
        1,
        1,
        1,
        1
      ]
    },
    {
      "bufferView": 5,
      "componentType": 5123,
      "count": 2127,
      "type": "SCALAR",
      "min": [
        0
      ],
      "max": [
        586
      ]
    }
  ],
  "extras": {
    "manifest": "Hair_Short_Hipster_01.materials.json"
  }
}