{
  "asset": {
    "version": "2.0",
    "generator": "prefab-to-gltf"
  },
  "scene": 0,
  "scenes": [
    {
      "name": "Hair_Short_CurlyHair_01",
      "nodes": [
        0
      ]
    }
  ],
  "nodes": [
    {
      "name": "Hair_Short_CurlyHair_01",
      "translation": [
        0,
        0,
        0
      ],
      "rotation": [
        0,
        0,
        0,
        1
      ],
      "scale": [
        1,
        1,
        1
      ],
      "mesh": 0
    }
  ],
  "meshes": [
    {
      "name": "Hair_Short_CurlyHair_01",
      "primitives": [
        {
          "attributes": {
            "POSITION": 0,
            "NORMAL": 1,
            "TEXCOORD_0": 2,
            "TEXCOORD_1": 3
          },
          "indices": 4,
          "material": 0,
          "mode": 4
        }
      ]
    }
  ],
  "materials": [
    {
      "name": "GradMat_Body",
      "pbrMetallicRoughness": {
        "baseColorFactor": [
          1,
          1,
          1,
          1
        ],
        "metallicFactor": 0,
        "roughnessFactor": 1
      },
      "doubleSided": true,
      "extras": {
        "diffuseTexture": "Character/Common/Texture/CustomGradient_RobinHoof.png",
        "specularTexture": null,
        "normalMap": null
      }
    }
  ],
  "buffers": [
    {
      "uri": "Hair_Short_CurlyHair_01.bin",
      "byteLength": 95254
    }
  ],
  "bufferViews": [
    {
      "buffer": 0,
      "byteOffset": 0,
      "byteLength": 25284,
      "target": 34962
    },
    {
      "buffer": 0,
      "byteOffset": 25284,
      "byteLength": 25284,
      "target": 34962
    },
    {
      "buffer": 0,
      "byteOffset": 50568,
      "byteLength": 16856,
      "target": 34962
    },
    {
      "buffer": 0,
      "byteOffset": 67424,
      "byteLength": 16856,
      "target": 34962
    },
    {
      "buffer": 0,
      "byteOffset": 84280,
      "byteLength": 10974,
      "target": 34963
    }
  ],
  "accessors": [
    {
      "bufferView": 0,
      "componentType": 5126,
      "count": 2107,
      "type": "VEC3",
      "min": [
        -0.18019390106201172,
        1.9197231531143188,
        -0.13275973498821259
      ],
      "max": [
        0.1845395863056183,
        2.2908616065979004,
        0.26376524567604065
      ]
    },
    {
      "bufferView": 1,
      "componentType": 5126,
      "count": 2107,
      "type": "VEC3",
      "min": [
        -0.9993900656700134,
        -0.9891389012336731,
        -0.9994997382164001
      ],
      "max": [
        0.9988098740577698,
        0.9981284737586975,
        0.994105339050293
      ]
    },
    {
      "bufferView": 2,
      "componentType": 5126,
      "count": 2107,
      "type": "VEC2",
      "min": [
        0.15419073402881622,
        0.3638279438018799
      ],
      "max": [
        0.2893678545951843,
        0.7787159085273743
      ]
    },
    {
      "bufferView": 3,
      "componentType": 5126,
      "count": 2107,
      "type": "VEC2",
      "min": [
        0.025812262669205666,
        0.09480810165405273
      ],
      "max": [
        0.9303783178329468,
        0.9562560319900513
      ]
    },
    {
      "bufferView": 4,
      "componentType": 5123,
      "count": 5487,
      "type": "SCALAR",
      "min": [
        0
      ],
      "max": [
        2106
      ]
    }
  ],
  "extras": {
    "manifest": "Hair_Short_CurlyHair_01.materials.json"
  }
}