{
  "asset": {
    "version": "2.0",
    "generator": "prefab-to-gltf"
  },
  "scene": 0,
  "scenes": [
    {
      "name": "Horn_Demon_01",
      "nodes": [
        0
      ]
    }
  ],
  "nodes": [
    {
      "name": "Demon_Horns",
      "translation": [
        0,
        0,
        0
      ],
      "rotation": [
        0,
        0,
        0,
        1
      ],
      "scale": [
        1,
        1,
        1
      ],
      "mesh": 0
    }
  ],
  "meshes": [
    {
      "name": "Demon_Horns",
      "primitives": [
        {
          "attributes": {
            "POSITION": 0,
            "NORMAL": 1,
            "TEXCOORD_0": 2,
            "TEXCOORD_1": 3,
            "COLOR_0": 4
          },
          "indices": 5,
          "material": 0,
          "mode": 4
        }
      ]
    }
  ],
  "materials": [
    {
      "name": "MatSlots_FACE",
      "pbrMetallicRoughness": {
        "baseColorFactor": [
          1,
          1,
          1,
          1
        ],
        "metallicFactor": 0,
        "roughnessFactor": 1
      },
      "doubleSided": true,
      "extras": {
        "diffuseTexture": null,
        "specularTexture": null,
        "normalMap": null
      }
    }
  ],
  "buffers": [
    {
      "uri": "Horn_Demon_01.bin",
      "byteLength": 47176
    }
  ],
  "bufferViews": [
    {
      "buffer": 0,
      "byteOffset": 0,
      "byteLength": 9336,
      "target": 34962
    },
    {
      "buffer": 0,
      "byteOffset": 9336,
      "byteLength": 9336,
      "target": 34962
    },
    {
      "buffer": 0,
      "byteOffset": 18672,
      "byteLength": 6224,
      "target": 34962
    },
    {
      "buffer": 0,
      "byteOffset": 24896,
      "byteLength": 6224,
      "target": 34962
    },
    {
      "buffer": 0,
      "byteOffset": 31120,
      "byteLength": 9336,
      "target": 34962
    },
    {
      "buffer": 0,
      "byteOffset": 40456,
      "byteLength": 6720,
      "target": 34963
    }
  ],
  "accessors": [
    {
      "bufferView": 0,
      "componentType": 5126,
      "count": 778,
      "type": "VEC3",
      "min": [
        -0.11752186715602875,
        2.072996139526367,
        0.16906315088272095
      ],
      "max": [
        0.11752186715602875,
        2.2764062881469727,
        0.26914674043655396
      ]
    },
    {
      "bufferView": 1,
      "componentType": 5126,
      "count": 778,
      "type": "VEC3",
      "min": [
        -0.9949745535850525,
        -0.9439055919647217,
        -0.9965516924858093
      ],
      "max": [
        0.9949742555618286,
        0.9033749103546143,
        0.9849319458007812
      ]
    },
    {
      "bufferView": 2,
      "componentType": 5126,
      "count": 778,
      "type": "VEC2",
      "min": [
        0.1568635255098343,
        0.6132416725158691
      ],
      "max": [
        0.21887707710266113,
        0.9425054788589478
      ]
    },
    {
      "bufferView": 3,
      "componentType": 5126,
      "count": 778,
      "type": "VEC2",
      "min": [
        0.057401373982429504,
        0.9458463191986084
      ],
      "max": [
        0.05967552959918976,
        0.9579210877418518
      ]
    },
    {
      "bufferView": 4,
      "componentType": 5126,
      "count": 583.5,
      "type": "VEC4",
      "min": [
        0,
        0,
        0,
        0
      ],
      "max": [
        1,
        1,
        1,
        1
      ]
    },
    {
      "bufferView": 5,
      "componentType": 5123,
      "count": 3360,
      "type": "SCALAR",
      "min": [
        0
      ],
      "max": [
        777
      ]
    }
  ],
  "extras": {
    "manifest": "Horn_Demon_01.materials.json"
  }
}