{
  "asset": {
    "version": "2.0",
    "generator": "prefab-to-gltf"
  },
  "scene": 0,
  "scenes": [
    {
      "name": "Test_Skin_Static",
      "nodes": [
        0
      ]
    }
  ],
  "nodes": [
    {
      "name": "Sphere",
      "translation": [
        0,
        0,
        0
      ],
      "rotation": [
        0,
        0,
        0,
        1
      ],
      "scale": [
        1,
        1,
        1
      ],
      "mesh": 0
    }
  ],
  "meshes": [
    {
      "name": "Sphere",
      "primitives": [
        {
          "attributes": {
            "POSITION": 0,
            "NORMAL": 1,
            "TEXCOORD_0": 2,
            "TEXCOORD_1": 3
          },
          "indices": 4,
          "material": 0,
          "mode": 4
        }
      ]
    }
  ],
  "materials": [
    {
      "name": "standardSurface1",
      "pbrMetallicRoughness": {
        "baseColorFactor": [
          1,
          1,
          1,
          1
        ],
        "metallicFactor": 0,
        "roughnessFactor": 1
      },
      "doubleSided": true,
      "extras": {
        "diffuseTexture": null,
        "specularTexture": null,
        "normalMap": null
      }
    }
  ],
  "buffers": [
    {
      "uri": "Test_Skin_Static.bin",
      "byteLength": 19840
    }
  ],
  "bufferViews": [
    {
      "buffer": 0,
      "byteOffset": 0,
      "byteLength": 4584,
      "target": 34962
    },
    {
      "buffer": 0,
      "byteOffset": 4584,
      "byteLength": 4584,
      "target": 34962
    },
    {
      "buffer": 0,
      "byteOffset": 9168,
      "byteLength": 3056,
      "target": 34962
    },
    {
      "buffer": 0,
      "byteOffset": 12224,
      "byteLength": 3056,
      "target": 34962
    },
    {
      "buffer": 0,
      "byteOffset": 15280,
      "byteLength": 4560,
      "target": 34963
    }
  ],
  "accessors": [
    {
      "bufferView": 0,
      "componentType": 5126,
      "count": 382,
      "type": "VEC3",
      "min": [
        -1,
        0.0642060860991478,
        -1.0000004768371582
      ],
      "max": [
        1.000000238418579,
        2.064206123352051,
        1.0000001192092896
      ]
    },
    {
      "bufferView": 1,
      "componentType": 5126,
      "count": 382,
      "type": "VEC3",
      "min": [
        -1,
        -1,
        -1
      ],
      "max": [
        1,
        1,
        1
      ]
    },
    {
      "bufferView": 2,
      "componentType": 5126,
      "count": 382,
      "type": "VEC2",
      "min": [
        0.013707756996154785,
        0.33201056718826294
      ],
      "max": [
        0.0851362943649292,
        0.6679894328117371
      ]
    },
    {
      "bufferView": 3,
      "componentType": 5126,
      "count": 382,
      "type": "VEC2",
      "min": [
        0.03233620524406433,
        0.9342085123062134
      ],
      "max": [
        0.0693732500076294,
        0.971245527267456
      ]
    },
    {
      "bufferView": 4,
      "componentType": 5123,
      "count": 2280,
      "type": "SCALAR",
      "min": [
        0
      ],
      "max": [
        381
      ]
    }
  ],
  "extras": {
    "manifest": "Test_Skin_Static.materials.json"
  }
}