{
  "asset": {
    "version": "2.0",
    "generator": "prefab-to-gltf"
  },
  "scene": 0,
  "scenes": [
    {
      "name": "Feet_High_Z1U1_FigCle",
      "nodes": [
        0
      ]
    }
  ],
  "nodes": [
    {
      "name": "Feet_R1Craft_Fig_01_N",
      "translation": [
        0,
        0,
        0
      ],
      "rotation": [
        0,
        0,
        0,
        1
      ],
      "scale": [
        1,
        1,
        1
      ],
      "mesh": 0
    }
  ],
  "meshes": [
    {
      "name": "Feet_R1Craft_Fig_01_N",
      "primitives": [
        {
          "attributes": {
            "POSITION": 0,
            "NORMAL": 1,
            "TEXCOORD_0": 2,
            "TEXCOORD_1": 3
          },
          "indices": 4,
          "material": 0,
          "mode": 4
        }
      ]
    }
  ],
  "materials": [
    {
      "name": "GradMat_Body",
      "pbrMetallicRoughness": {
        "baseColorFactor": [
          1,
          1,
          1,
          1
        ],
        "metallicFactor": 0,
        "roughnessFactor": 1
      },
      "doubleSided": true,
      "extras": {
        "diffuseTexture": "Character/Common/Texture/CustomGradient_BasicGuy.png",
        "specularTexture": null,
        "normalMap": null
      }
    }
  ],
  "buffers": [
    {
      "uri": "Feet_High_Z1U1_FigCle.bin",
      "byteLength": 102680
    }
  ],
  "bufferViews": [
    {
      "buffer": 0,
      "byteOffset": 0,
      "byteLength": 27456,
      "target": 34962
    },
    {
      "buffer": 0,
      "byteOffset": 27456,
      "byteLength": 27456,
      "target": 34962
    },
    {
      "buffer": 0,
      "byteOffset": 54912,
      "byteLength": 18304,
      "target": 34962
    },
    {
      "buffer": 0,
      "byteOffset": 73216,
      "byteLength": 18304,
      "target": 34962
    },
    {
      "buffer": 0,
      "byteOffset": 91520,
      "byteLength": 11160,
      "target": 34963
    }
  ],
  "accessors": [
    {
      "bufferView": 0,
      "componentType": 5126,
      "count": 2288,
      "type": "VEC3",
      "min": [
        -0.4150390625,
        -0.00751495361328125,
        -0.10443115234375
      ],
      "max": [
        0.4150390625,
        0.5263671875,
        0.31982421875
      ]
    },
    {
      "bufferView": 1,
      "componentType": 5126,
      "count": 2288,
      "type": "VEC3",
      "min": [
        -0.5019607843137255,
        -0.5019607843137255,
        -0.5019607843137255
      ],
      "max": [
        1,
        1,
        1
      ]
    },
    {
      "bufferView": 2,
      "componentType": 5126,
      "count": 2288,
      "type": "VEC2",
      "min": [
        0.1624755859375,
        0.399658203125
      ],
      "max": [
        0.83935546875,
        0.900390625
      ]
    },
    {
      "bufferView": 3,
      "componentType": 5126,
      "count": 2288,
      "type": "VEC2",
      "min": [
        0.04644775390625,
        0.117919921875
      ],
      "max": [
        0.9306640625,
        0.955078125
      ]
    },
    {
      "bufferView": 4,
      "componentType": 5123,
      "count": 5580,
      "type": "SCALAR",
      "min": [
        0
      ],
      "max": [
        2287
      ]
    }
  ],
  "extras": {
    "manifest": "Feet_High_Z1U1_FigCle.materials.json"
  }
}