{
  "asset": {
    "version": "2.0",
    "generator": "prefab-to-gltf"
  },
  "scene": 0,
  "scenes": [
    {
      "name": "Waist_Medium_Z1U2_FigCle",
      "nodes": [
        0
      ]
    }
  ],
  "nodes": [
    {
      "name": "Waist_R1Craft_Fig_01_N",
      "translation": [
        0,
        0,
        0
      ],
      "rotation": [
        0,
        0,
        0,
        1
      ],
      "scale": [
        1,
        1,
        1
      ],
      "mesh": 0
    }
  ],
  "meshes": [
    {
      "name": "Waist_R1Craft_Fig_01_N",
      "primitives": [
        {
          "attributes": {
            "POSITION": 0,
            "NORMAL": 1,
            "TEXCOORD_0": 2,
            "TEXCOORD_1": 3
          },
          "indices": 4,
          "material": 0,
          "mode": 4
        }
      ]
    }
  ],
  "materials": [
    {
      "name": "GradMat_Body",
      "pbrMetallicRoughness": {
        "baseColorFactor": [
          1,
          1,
          1,
          1
        ],
        "metallicFactor": 0,
        "roughnessFactor": 1
      },
      "doubleSided": true,
      "extras": {
        "diffuseTexture": "Character/Common/Texture/CustomGradient_BasicGuy.png",
        "specularTexture": null,
        "normalMap": null
      }
    }
  ],
  "buffers": [
    {
      "uri": "Waist_Medium_Z1U2_FigCle.bin",
      "byteLength": 38026
    }
  ],
  "bufferViews": [
    {
      "buffer": 0,
      "byteOffset": 0,
      "byteLength": 10092,
      "target": 34962
    },
    {
      "buffer": 0,
      "byteOffset": 10092,
      "byteLength": 10092,
      "target": 34962
    },
    {
      "buffer": 0,
      "byteOffset": 20184,
      "byteLength": 6728,
      "target": 34962
    },
    {
      "buffer": 0,
      "byteOffset": 26912,
      "byteLength": 6728,
      "target": 34962
    },
    {
      "buffer": 0,
      "byteOffset": 33640,
      "byteLength": 4386,
      "target": 34963
    }
  ],
  "accessors": [
    {
      "bufferView": 0,
      "componentType": 5126,
      "count": 841,
      "type": "VEC3",
      "min": [
        -0.2196044921875,
        1.169921875,
        -0.07342529296875
      ],
      "max": [
        0.2196044921875,
        1.306640625,
        0.255126953125
      ]
    },
    {
      "bufferView": 1,
      "componentType": 5126,
      "count": 841,
      "type": "VEC3",
      "min": [
        -0.5019607843137255,
        -0.5019607843137255,
        -0.5019607843137255
      ],
      "max": [
        1,
        1,
        1
      ]
    },
    {
      "bufferView": 2,
      "componentType": 5126,
      "count": 841,
      "type": "VEC2",
      "min": [
        0.38720703125,
        0.376953125
      ],
      "max": [
        0.83935546875,
        0.90966796875
      ]
    },
    {
      "bufferView": 3,
      "componentType": 5126,
      "count": 841,
      "type": "VEC2",
      "min": [
        0.04022216796875,
        0.95556640625
      ],
      "max": [
        0.050567626953125,
        0.95654296875
      ]
    },
    {
      "bufferView": 4,
      "componentType": 5123,
      "count": 2193,
      "type": "SCALAR",
      "min": [
        0
      ],
      "max": [
        840
      ]
    }
  ],
  "extras": {
    "manifest": "Waist_Medium_Z1U2_FigCle.materials.json"
  }
}