{
  "asset": {
    "version": "2.0",
    "generator": "prefab-to-gltf"
  },
  "scene": 0,
  "scenes": [
    {
      "name": "StableMaster",
      "nodes": [
        0
      ]
    }
  ],
  "nodes": [
    {
      "name": "StableMaster",
      "translation": [
        0,
        0,
        0
      ],
      "rotation": [
        0,
        0,
        0,
        1
      ],
      "scale": [
        1,
        1,
        1
      ],
      "mesh": 0
    }
  ],
  "meshes": [
    {
      "name": "StableMaster",
      "primitives": [
        {
          "attributes": {
            "POSITION": 0,
            "NORMAL": 1,
            "TEXCOORD_0": 2,
            "TEXCOORD_1": 3,
            "COLOR_0": 4
          },
          "indices": 5,
          "material": 0,
          "mode": 4
        }
      ]
    }
  ],
  "materials": [
    {
      "name": "GradMat_Body",
      "pbrMetallicRoughness": {
        "baseColorFactor": [
          1,
          1,
          1,
          1
        ],
        "metallicFactor": 0,
        "roughnessFactor": 1
      },
      "doubleSided": true,
      "extras": {
        "diffuseTexture": "Character/Common/Texture/CustomGradient_RobinHoof.png",
        "specularTexture": null,
        "normalMap": null
      }
    }
  ],
  "buffers": [
    {
      "uri": "StableMaster.bin",
      "byteLength": 1361366
    }
  ],
  "bufferViews": [
    {
      "buffer": 0,
      "byteOffset": 0,
      "byteLength": 277512,
      "target": 34962
    },
    {
      "buffer": 0,
      "byteOffset": 277512,
      "byteLength": 277512,
      "target": 34962
    },
    {
      "buffer": 0,
      "byteOffset": 555024,
      "byteLength": 185008,
      "target": 34962
    },
    {
      "buffer": 0,
      "byteOffset": 740032,
      "byteLength": 185008,
      "target": 34962
    },
    {
      "buffer": 0,
      "byteOffset": 925040,
      "byteLength": 277512,
      "target": 34962
    },
    {
      "buffer": 0,
      "byteOffset": 1202552,
      "byteLength": 158814,
      "target": 34963
    }
  ],
  "accessors": [
    {
      "bufferView": 0,
      "componentType": 5126,
      "count": 23126,
      "type": "VEC3",
      "min": [
        -0.0067696659825742245,
        -0.004923348315060139,
        -0.00003160299820592627
      ],
      "max": [
        0.0067696659825742245,
        0.003981273155659437,
        0.018950089812278748
      ]
    },
    {
      "bufferView": 1,
      "componentType": 5126,
      "count": 23126,
      "type": "VEC3",
      "min": [
        -0.999864399433136,
        -0.9999988079071045,
        -0.9999970197677612
      ],
      "max": [
        0.9997588992118835,
        0.9999318718910217,
        1
      ]
    },
    {
      "bufferView": 2,
      "componentType": 5126,
      "count": 23126,
      "type": "VEC2",
      "min": [
        0,
        0.07304787635803223
      ],
      "max": [
        1.0943127870559692,
        1
      ]
    },
    {
      "bufferView": 3,
      "componentType": 5126,
      "count": 23126,
      "type": "VEC2",
      "min": [
        0,
        0.0071408748626708984
      ],
      "max": [
        0.9497079849243164,
        1.00118887424469
      ]
    },
    {
      "bufferView": 4,
      "componentType": 5126,
      "count": 17344.5,
      "type": "VEC4",
      "min": [
        0,
        0,
        0,
        0
      ],
      "max": [
        1,
        1,
        1,
        1
      ]
    },
    {
      "bufferView": 5,
      "componentType": 5123,
      "count": 79407,
      "type": "SCALAR",
      "min": [
        0
      ],
      "max": [
        23125
      ]
    }
  ],
  "extras": {
    "manifest": "StableMaster.materials.json"
  }
}