{
  "asset": {
    "version": "2.0",
    "generator": "prefab-to-gltf"
  },
  "scene": 0,
  "scenes": [
    {
      "name": "Shield_Faerie_Bee",
      "nodes": [
        0
      ]
    }
  ],
  "nodes": [
    {
      "name": "Shield_Faerie_Bee",
      "translation": [
        0,
        0,
        -0.0002899169921875
      ],
      "rotation": [
        0,
        0,
        0.7071056365966797,
        0.7071079257745626
      ],
      "scale": [
        1,
        1,
        1
      ],
      "mesh": 0
    }
  ],
  "meshes": [
    {
      "name": "Shield_Faerie_Bee",
      "primitives": [
        {
          "attributes": {
            "POSITION": 0,
            "NORMAL": 1,
            "TEXCOORD_0": 2,
            "TEXCOORD_1": 3
          },
          "indices": 4,
          "material": 0,
          "mode": 4
        }
      ]
    }
  ],
  "materials": [
    {
      "name": "MatSlots_WEAPONS_001",
      "pbrMetallicRoughness": {
        "baseColorFactor": [
          1,
          1,
          1,
          1
        ],
        "metallicFactor": 0,
        "roughnessFactor": 1
      },
      "doubleSided": true,
      "extras": {
        "diffuseTexture": null,
        "specularTexture": null,
        "normalMap": null
      }
    },
    {
      "name": "Outline_001",
      "pbrMetallicRoughness": {
        "baseColorFactor": [
          1,
          1,
          1,
          1
        ],
        "metallicFactor": 0,
        "roughnessFactor": 1
      },
      "doubleSided": true,
      "extras": {
        "diffuseTexture": null,
        "specularTexture": null,
        "normalMap": null
      }
    }
  ],
  "buffers": [
    {
      "uri": "Shield_Faerie_Bee.bin",
      "byteLength": 25184
    }
  ],
  "bufferViews": [
    {
      "buffer": 0,
      "byteOffset": 0,
      "byteLength": 6684,
      "target": 34962
    },
    {
      "buffer": 0,
      "byteOffset": 6684,
      "byteLength": 6684,
      "target": 34962
    },
    {
      "buffer": 0,
      "byteOffset": 13368,
      "byteLength": 4456,
      "target": 34962
    },
    {
      "buffer": 0,
      "byteOffset": 17824,
      "byteLength": 4456,
      "target": 34962
    },
    {
      "buffer": 0,
      "byteOffset": 22280,
      "byteLength": 2904,
      "target": 34963
    }
  ],
  "accessors": [
    {
      "bufferView": 0,
      "componentType": 5126,
      "count": 557,
      "type": "VEC3",
      "min": [
        -0.1239689439535141,
        -0.43494367599487305,
        -0.4641726016998291
      ],
      "max": [
        0.14703473448753357,
        0.3695344924926758,
        0.46475881338119507
      ]
    },
    {
      "bufferView": 1,
      "componentType": 5126,
      "count": 557,
      "type": "VEC3",
      "min": [
        -1,
        -1,
        -1
      ],
      "max": [
        0.9999921321868896,
        1,
        1
      ]
    },
    {
      "bufferView": 2,
      "componentType": 5126,
      "count": 557,
      "type": "VEC2",
      "min": [
        0.024398088455200195,
        0.3402789831161499
      ],
      "max": [
        0.4404498040676117,
        0.961887001991272
      ]
    },
    {
      "bufferView": 3,
      "componentType": 5126,
      "count": 557,
      "type": "VEC2",
      "min": [
        0,
        0.13874632120132446
      ],
      "max": [
        0.9686567187309265,
        1
      ]
    },
    {
      "bufferView": 4,
      "componentType": 5123,
      "count": 1452,
      "type": "SCALAR",
      "min": [
        0
      ],
      "max": [
        556
      ]
    }
  ],
  "extras": {
    "manifest": "Shield_Faerie_Bee.materials.json"
  }
}