{
  "asset": {
    "version": "2.0",
    "generator": "prefab-to-gltf"
  },
  "scene": 0,
  "scenes": [
    {
      "name": "Rabbit_Greeland_01",
      "nodes": [
        0
      ]
    }
  ],
  "nodes": [
    {
      "name": "Rabbit",
      "translation": [
        0,
        0,
        0
      ],
      "rotation": [
        0,
        0,
        0,
        1
      ],
      "scale": [
        1,
        1,
        1
      ],
      "mesh": 0
    }
  ],
  "meshes": [
    {
      "name": "Rabbit",
      "primitives": [
        {
          "attributes": {
            "POSITION": 0,
            "NORMAL": 1,
            "TEXCOORD_0": 2,
            "TEXCOORD_1": 3
          },
          "indices": 4,
          "material": 0,
          "mode": 4
        }
      ]
    }
  ],
  "materials": [
    {
      "name": "lambert2",
      "pbrMetallicRoughness": {
        "baseColorFactor": [
          1,
          1,
          1,
          1
        ],
        "metallicFactor": 0,
        "roughnessFactor": 1
      },
      "doubleSided": true,
      "extras": {
        "diffuseTexture": "Character/Common/Texture/CustomGradient_Hero_Clothes.png",
        "specularTexture": null,
        "normalMap": null
      }
    }
  ],
  "buffers": [
    {
      "uri": "Rabbit_Greeland_01.bin",
      "byteLength": 168568
    }
  ],
  "bufferViews": [
    {
      "buffer": 0,
      "byteOffset": 0,
      "byteLength": 42816,
      "target": 34962
    },
    {
      "buffer": 0,
      "byteOffset": 42816,
      "byteLength": 42816,
      "target": 34962
    },
    {
      "buffer": 0,
      "byteOffset": 85632,
      "byteLength": 28544,
      "target": 34962
    },
    {
      "buffer": 0,
      "byteOffset": 114176,
      "byteLength": 28544,
      "target": 34962
    },
    {
      "buffer": 0,
      "byteOffset": 142720,
      "byteLength": 25848,
      "target": 34963
    }
  ],
  "accessors": [
    {
      "bufferView": 0,
      "componentType": 5126,
      "count": 3568,
      "type": "VEC3",
      "min": [
        -0.28979215025901794,
        -0.0013164444826543331,
        -0.4344351887702942
      ],
      "max": [
        0.28979215025901794,
        0.9144647717475891,
        0.380035400390625
      ]
    },
    {
      "bufferView": 1,
      "componentType": 5126,
      "count": 3568,
      "type": "VEC3",
      "min": [
        -0.9993882179260254,
        -0.9999994039535522,
        -0.9991409182548523
      ],
      "max": [
        0.9993882179260254,
        0.9996541142463684,
        0.9995975494384766
      ]
    },
    {
      "bufferView": 2,
      "componentType": 5126,
      "count": 3568,
      "type": "VEC2",
      "min": [
        0.019846580922603607,
        0.008391141891479492
      ],
      "max": [
        0.567842960357666,
        1.0209662914276123
      ]
    },
    {
      "bufferView": 3,
      "componentType": 5126,
      "count": 3568,
      "type": "VEC2",
      "min": [
        0,
        0.010791659355163574
      ],
      "max": [
        0.9712953567504883,
        1
      ]
    },
    {
      "bufferView": 4,
      "componentType": 5123,
      "count": 12924,
      "type": "SCALAR",
      "min": [
        0
      ],
      "max": [
        3567
      ]
    }
  ],
  "extras": {
    "manifest": "Rabbit_Greeland_01.materials.json"
  }
}