{
  "asset": {
    "version": "2.0",
    "generator": "prefab-to-gltf"
  },
  "scene": 0,
  "scenes": [
    {
      "name": "Shield_Shell_Manfish",
      "nodes": [
        0
      ]
    }
  ],
  "nodes": [
    {
      "name": "Shell_Shield",
      "translation": [
        0,
        0,
        0
      ],
      "rotation": [
        0,
        0,
        0,
        1
      ],
      "scale": [
        1,
        1,
        1
      ],
      "mesh": 0
    }
  ],
  "meshes": [
    {
      "name": "Shell_Shield",
      "primitives": [
        {
          "attributes": {
            "POSITION": 0,
            "NORMAL": 1,
            "TEXCOORD_0": 2,
            "TEXCOORD_1": 3
          },
          "indices": 4,
          "material": 0,
          "mode": 4
        }
      ]
    }
  ],
  "materials": [
    {
      "name": "Gradmat",
      "pbrMetallicRoughness": {
        "baseColorFactor": [
          1,
          1,
          1,
          1
        ],
        "metallicFactor": 0,
        "roughnessFactor": 1
      },
      "doubleSided": true,
      "extras": {
        "diffuseTexture": null,
        "specularTexture": null,
        "normalMap": null
      }
    },
    {
      "name": "Outline",
      "pbrMetallicRoughness": {
        "baseColorFactor": [
          1,
          1,
          1,
          1
        ],
        "metallicFactor": 0,
        "roughnessFactor": 1
      },
      "doubleSided": true,
      "extras": {
        "diffuseTexture": null,
        "specularTexture": null,
        "normalMap": null
      }
    },
    {
      "name": "Outline_003",
      "pbrMetallicRoughness": {
        "baseColorFactor": [
          1,
          1,
          1,
          1
        ],
        "metallicFactor": 0,
        "roughnessFactor": 1
      },
      "doubleSided": true,
      "extras": {
        "diffuseTexture": null,
        "specularTexture": null,
        "normalMap": null
      }
    }
  ],
  "buffers": [
    {
      "uri": "Shield_Shell_Manfish.bin",
      "byteLength": 84068
    }
  ],
  "bufferViews": [
    {
      "buffer": 0,
      "byteOffset": 0,
      "byteLength": 22380,
      "target": 34962
    },
    {
      "buffer": 0,
      "byteOffset": 22380,
      "byteLength": 22380,
      "target": 34962
    },
    {
      "buffer": 0,
      "byteOffset": 44760,
      "byteLength": 14920,
      "target": 34962
    },
    {
      "buffer": 0,
      "byteOffset": 59680,
      "byteLength": 14920,
      "target": 34962
    },
    {
      "buffer": 0,
      "byteOffset": 74600,
      "byteLength": 9468,
      "target": 34963
    }
  ],
  "accessors": [
    {
      "bufferView": 0,
      "componentType": 5126,
      "count": 1865,
      "type": "VEC3",
      "min": [
        -0.44143542647361755,
        -0.17813143134117126,
        -0.41924071311950684
      ],
      "max": [
        0.3638591170310974,
        0.1887538880109787,
        0.42792171239852905
      ]
    },
    {
      "bufferView": 1,
      "componentType": 5126,
      "count": 1865,
      "type": "VEC3",
      "min": [
        -0.9939632415771484,
        -0.9992730617523193,
        -0.9957833290100098
      ],
      "max": [
        0.9998906850814819,
        0.999774694442749,
        0.9781101942062378
      ]
    },
    {
      "bufferView": 2,
      "componentType": 5126,
      "count": 1865,
      "type": "VEC2",
      "min": [
        0.014489097520709038,
        0.15496766567230225
      ],
      "max": [
        0.4776628911495209,
        0.9934926629066467
      ]
    },
    {
      "bufferView": 3,
      "componentType": 5126,
      "count": 1865,
      "type": "VEC2",
      "min": [
        0,
        0.10284674167633057
      ],
      "max": [
        0.9924967288970947,
        1
      ]
    },
    {
      "bufferView": 4,
      "componentType": 5123,
      "count": 4734,
      "type": "SCALAR",
      "min": [
        0
      ],
      "max": [
        1864
      ]
    }
  ],
  "extras": {
    "manifest": "Shield_Shell_Manfish.materials.json"
  }
}