{
  "asset": {
    "version": "2.0",
    "generator": "prefab-to-gltf"
  },
  "scene": 0,
  "scenes": [
    {
      "name": "Staff_R10_R1Pirate_AssWiz",
      "nodes": [
        0
      ]
    }
  ],
  "nodes": [
    {
      "name": "Staff_R10_R1Pirate_AssWiz",
      "translation": [
        0,
        0,
        0
      ],
      "rotation": [
        0,
        0,
        0.7071056365966797,
        0.7071079257745626
      ],
      "scale": [
        1,
        1,
        1
      ],
      "mesh": 0
    }
  ],
  "meshes": [
    {
      "name": "Staff_R10_R1Pirate_AssWiz",
      "primitives": [
        {
          "attributes": {
            "POSITION": 0,
            "NORMAL": 1,
            "TEXCOORD_0": 2,
            "TEXCOORD_1": 3
          },
          "indices": 4,
          "material": 0,
          "mode": 4
        }
      ]
    }
  ],
  "materials": [
    {
      "name": "Gradmat",
      "pbrMetallicRoughness": {
        "baseColorFactor": [
          1,
          1,
          1,
          1
        ],
        "metallicFactor": 0,
        "roughnessFactor": 1
      },
      "doubleSided": true,
      "extras": {
        "diffuseTexture": null,
        "specularTexture": null,
        "normalMap": null
      }
    },
    {
      "name": "Outline",
      "pbrMetallicRoughness": {
        "baseColorFactor": [
          1,
          1,
          1,
          1
        ],
        "metallicFactor": 0,
        "roughnessFactor": 1
      },
      "doubleSided": true,
      "extras": {
        "diffuseTexture": null,
        "specularTexture": null,
        "normalMap": null
      }
    }
  ],
  "buffers": [
    {
      "uri": "Staff_R10_R1Pirate_AssWiz.bin",
      "byteLength": 210830
    }
  ],
  "bufferViews": [
    {
      "buffer": 0,
      "byteOffset": 0,
      "byteLength": 56112,
      "target": 34962
    },
    {
      "buffer": 0,
      "byteOffset": 56112,
      "byteLength": 56112,
      "target": 34962
    },
    {
      "buffer": 0,
      "byteOffset": 112224,
      "byteLength": 37408,
      "target": 34962
    },
    {
      "buffer": 0,
      "byteOffset": 149632,
      "byteLength": 37408,
      "target": 34962
    },
    {
      "buffer": 0,
      "byteOffset": 187040,
      "byteLength": 23790,
      "target": 34963
    }
  ],
  "accessors": [
    {
      "bufferView": 0,
      "componentType": 5126,
      "count": 4676,
      "type": "VEC3",
      "min": [
        -0.20785562694072723,
        -0.35924211144447327,
        -0.6190466284751892
      ],
      "max": [
        0.21583610773086548,
        0.2430618554353714,
        1.919804334640503
      ]
    },
    {
      "bufferView": 1,
      "componentType": 5126,
      "count": 4676,
      "type": "VEC3",
      "min": [
        -0.9999092221260071,
        -0.9999275803565979,
        -1
      ],
      "max": [
        0.9999057054519653,
        0.9999644160270691,
        1
      ]
    },
    {
      "bufferView": 2,
      "componentType": 5126,
      "count": 4676,
      "type": "VEC2",
      "min": [
        0.018416378647089005,
        0.17350709438323975
      ],
      "max": [
        0.5899844765663147,
        0.9364729523658752
      ]
    },
    {
      "bufferView": 3,
      "componentType": 5126,
      "count": 4676,
      "type": "VEC2",
      "min": [
        0,
        0.08424437046051025
      ],
      "max": [
        0.9551944136619568,
        1
      ]
    },
    {
      "bufferView": 4,
      "componentType": 5123,
      "count": 11895,
      "type": "SCALAR",
      "min": [
        0
      ],
      "max": [
        4675
      ]
    }
  ],
  "extras": {
    "manifest": "Staff_R10_R1Pirate_AssWiz.materials.json"
  }
}