{
  "asset": {
    "version": "2.0",
    "generator": "prefab-to-gltf"
  },
  "scene": 0,
  "scenes": [
    {
      "name": "Staff_Human_Brasero",
      "nodes": [
        0
      ]
    }
  ],
  "nodes": [
    {
      "name": "Staff_Human_Brasero",
      "translation": [
        0,
        0,
        0
      ],
      "rotation": [
        0,
        0,
        0,
        1
      ],
      "scale": [
        1,
        1,
        1
      ],
      "mesh": 0
    }
  ],
  "meshes": [
    {
      "name": "Staff_Human_Brasero",
      "primitives": [
        {
          "attributes": {
            "POSITION": 0,
            "NORMAL": 1,
            "TEXCOORD_0": 2,
            "TEXCOORD_1": 3,
            "COLOR_0": 4
          },
          "indices": 5,
          "material": 0,
          "mode": 4
        }
      ]
    }
  ],
  "materials": [
    {
      "name": "Gradmat",
      "pbrMetallicRoughness": {
        "baseColorFactor": [
          1,
          1,
          1,
          1
        ],
        "metallicFactor": 0,
        "roughnessFactor": 1
      },
      "doubleSided": true,
      "extras": {
        "diffuseTexture": null,
        "specularTexture": null,
        "normalMap": null
      }
    }
  ],
  "buffers": [
    {
      "uri": "Staff_Human_Brasero.bin",
      "byteLength": 234544
    }
  ],
  "bufferViews": [
    {
      "buffer": 0,
      "byteOffset": 0,
      "byteLength": 48648,
      "target": 34962
    },
    {
      "buffer": 0,
      "byteOffset": 48648,
      "byteLength": 48648,
      "target": 34962
    },
    {
      "buffer": 0,
      "byteOffset": 97296,
      "byteLength": 32432,
      "target": 34962
    },
    {
      "buffer": 0,
      "byteOffset": 129728,
      "byteLength": 32432,
      "target": 34962
    },
    {
      "buffer": 0,
      "byteOffset": 162160,
      "byteLength": 48648,
      "target": 34962
    },
    {
      "buffer": 0,
      "byteOffset": 210808,
      "byteLength": 23736,
      "target": 34963
    }
  ],
  "accessors": [
    {
      "bufferView": 0,
      "componentType": 5126,
      "count": 4054,
      "type": "VEC3",
      "min": [
        -0.23045030236244202,
        -0.6607708930969238,
        -0.21152229607105255
      ],
      "max": [
        0.23045030236244202,
        1.8793078660964966,
        0.21152184903621674
      ]
    },
    {
      "bufferView": 1,
      "componentType": 5126,
      "count": 4054,
      "type": "VEC3",
      "min": [
        -1,
        -1,
        -0.9999985694885254
      ],
      "max": [
        1,
        1,
        0.9999962449073792
      ]
    },
    {
      "bufferView": 2,
      "componentType": 5126,
      "count": 4054,
      "type": "VEC2",
      "min": [
        0.01597028225660324,
        0.19546222686767578
      ],
      "max": [
        0.46415191888809204,
        0.9943646192550659
      ]
    },
    {
      "bufferView": 3,
      "componentType": 5126,
      "count": 4054,
      "type": "VEC2",
      "min": [
        0.044905420392751694,
        0.107674241065979
      ],
      "max": [
        0.9508994817733765,
        0.9804426431655884
      ]
    },
    {
      "bufferView": 4,
      "componentType": 5126,
      "count": 3040.5,
      "type": "VEC4",
      "min": [
        0,
        0,
        0,
        0
      ],
      "max": [
        1,
        1,
        1,
        1
      ]
    },
    {
      "bufferView": 5,
      "componentType": 5123,
      "count": 11868,
      "type": "SCALAR",
      "min": [
        0
      ],
      "max": [
        4053
      ]
    }
  ],
  "extras": {
    "manifest": "Staff_Human_Brasero.materials.json"
  }
}