{
  "asset": {
    "version": "2.0",
    "generator": "prefab-to-gltf"
  },
  "scene": 0,
  "scenes": [
    {
      "name": "Glider_Bat_WhiteBlack",
      "nodes": [
        0
      ]
    }
  ],
  "nodes": [
    {
      "name": "Glider_Bat_Body",
      "translation": [
        0,
        0,
        0
      ],
      "rotation": [
        0,
        0,
        0,
        1
      ],
      "scale": [
        1,
        1,
        1
      ],
      "mesh": 0
    }
  ],
  "meshes": [
    {
      "name": "Glider_Bat_Body",
      "primitives": [
        {
          "attributes": {
            "POSITION": 0,
            "NORMAL": 1,
            "TEXCOORD_0": 2,
            "TEXCOORD_1": 3,
            "COLOR_0": 4
          },
          "indices": 5,
          "material": 0,
          "mode": 4
        }
      ]
    }
  ],
  "materials": [
    {
      "name": "Gradmat",
      "pbrMetallicRoughness": {
        "baseColorFactor": [
          1,
          1,
          1,
          1
        ],
        "metallicFactor": 0,
        "roughnessFactor": 1
      },
      "doubleSided": true,
      "extras": {
        "diffuseTexture": "Character/Common/Texture/CustomGradient_BasicGuy.png",
        "specularTexture": null,
        "normalMap": null
      }
    }
  ],
  "buffers": [
    {
      "uri": "Glider_Bat_WhiteBlack.bin",
      "byteLength": 384974
    }
  ],
  "bufferViews": [
    {
      "buffer": 0,
      "byteOffset": 0,
      "byteLength": 76596,
      "target": 34962
    },
    {
      "buffer": 0,
      "byteOffset": 76596,
      "byteLength": 76596,
      "target": 34962
    },
    {
      "buffer": 0,
      "byteOffset": 153192,
      "byteLength": 51064,
      "target": 34962
    },
    {
      "buffer": 0,
      "byteOffset": 204256,
      "byteLength": 51064,
      "target": 34962
    },
    {
      "buffer": 0,
      "byteOffset": 255320,
      "byteLength": 76596,
      "target": 34962
    },
    {
      "buffer": 0,
      "byteOffset": 331916,
      "byteLength": 53058,
      "target": 34963
    }
  ],
  "accessors": [
    {
      "bufferView": 0,
      "componentType": 5126,
      "count": 6383,
      "type": "VEC3",
      "min": [
        -2.5873563289642334,
        0.2413206249475479,
        -2.269836187362671
      ],
      "max": [
        2.5873563289642334,
        1.523112177848816,
        1.1856383085250854
      ]
    },
    {
      "bufferView": 1,
      "componentType": 5126,
      "count": 6383,
      "type": "VEC3",
      "min": [
        -0.9996038675308228,
        -0.9999212622642517,
        -0.9997562766075134
      ],
      "max": [
        0.9996038675308228,
        0.9995698928833008,
        0.9999645948410034
      ]
    },
    {
      "bufferView": 2,
      "componentType": 5126,
      "count": 6383,
      "type": "VEC2",
      "min": [
        0.08872604370117188,
        0.05998098850250244
      ],
      "max": [
        0.9713147282600403,
        0.9940648078918457
      ]
    },
    {
      "bufferView": 3,
      "componentType": 5126,
      "count": 6383,
      "type": "VEC2",
      "min": [
        0.03962252289056778,
        0.11352723836898804
      ],
      "max": [
        0.9442553520202637,
        0.9755104780197144
      ]
    },
    {
      "bufferView": 4,
      "componentType": 5126,
      "count": 4787.25,
      "type": "VEC4",
      "min": [
        0,
        0,
        0,
        0
      ],
      "max": [
        0.9999715685844421,
        0.9999715685844421,
        0.9999715685844421,
        0.9999715685844421
      ]
    },
    {
      "bufferView": 5,
      "componentType": 5123,
      "count": 26529,
      "type": "SCALAR",
      "min": [
        0
      ],
      "max": [
        6382
      ]
    }
  ],
  "extras": {
    "manifest": "Glider_Bat_WhiteBlack.materials.json"
  }
}