{
  "asset": {
    "version": "2.0",
    "generator": "prefab-to-gltf"
  },
  "scene": 0,
  "scenes": [
    {
      "name": "Hands_Forearm_RManfish_Heavy",
      "nodes": [
        0
      ]
    }
  ],
  "nodes": [
    {
      "name": "Hands_Z1RManfish_Heavy_N",
      "translation": [
        0,
        0,
        0
      ],
      "rotation": [
        0,
        0,
        0,
        1
      ],
      "scale": [
        1,
        1,
        1
      ],
      "mesh": 0
    }
  ],
  "meshes": [
    {
      "name": "Hands_Z1RManfish_Heavy_N",
      "primitives": [
        {
          "attributes": {
            "POSITION": 0,
            "NORMAL": 1,
            "TEXCOORD_0": 2,
            "TEXCOORD_1": 3
          },
          "indices": 4,
          "material": 0,
          "mode": 4
        }
      ]
    }
  ],
  "materials": [
    {
      "name": "GradMat_Body",
      "pbrMetallicRoughness": {
        "baseColorFactor": [
          1,
          1,
          1,
          1
        ],
        "metallicFactor": 0,
        "roughnessFactor": 1
      },
      "doubleSided": true,
      "extras": {
        "diffuseTexture": "Character/Common/Texture/CustomGradient_BasicGuy.png",
        "specularTexture": null,
        "normalMap": null
      }
    }
  ],
  "buffers": [
    {
      "uri": "Hands_Forearm_RManfish_Heavy.bin",
      "byteLength": 295000
    }
  ],
  "bufferViews": [
    {
      "buffer": 0,
      "byteOffset": 0,
      "byteLength": 79464,
      "target": 34962
    },
    {
      "buffer": 0,
      "byteOffset": 79464,
      "byteLength": 79464,
      "target": 34962
    },
    {
      "buffer": 0,
      "byteOffset": 158928,
      "byteLength": 52976,
      "target": 34962
    },
    {
      "buffer": 0,
      "byteOffset": 211904,
      "byteLength": 52976,
      "target": 34962
    },
    {
      "buffer": 0,
      "byteOffset": 264880,
      "byteLength": 30120,
      "target": 34963
    }
  ],
  "accessors": [
    {
      "bufferView": 0,
      "componentType": 5126,
      "count": 6622,
      "type": "VEC3",
      "min": [
        -0.81298828125,
        0.978515625,
        -0.040771484375
      ],
      "max": [
        0.81298828125,
        1.52734375,
        0.34033203125
      ]
    },
    {
      "bufferView": 1,
      "componentType": 5126,
      "count": 6622,
      "type": "VEC3",
      "min": [
        -0.5019607843137255,
        -0.5019607843137255,
        -0.5019607843137255
      ],
      "max": [
        1,
        1,
        1
      ]
    },
    {
      "bufferView": 2,
      "componentType": 5126,
      "count": 6622,
      "type": "VEC2",
      "min": [
        0.1292724609375,
        0.24462890625
      ],
      "max": [
        0.845703125,
        0.90869140625
      ]
    },
    {
      "bufferView": 3,
      "componentType": 5126,
      "count": 6622,
      "type": "VEC2",
      "min": [
        0,
        0.10296630859375
      ],
      "max": [
        0.9501953125,
        1
      ]
    },
    {
      "bufferView": 4,
      "componentType": 5123,
      "count": 15060,
      "type": "SCALAR",
      "min": [
        0
      ],
      "max": [
        6621
      ]
    }
  ],
  "extras": {
    "manifest": "Hands_Forearm_RManfish_Heavy.materials.json"
  }
}