{
  "asset": {
    "version": "2.0",
    "generator": "prefab-to-gltf"
  },
  "scene": 0,
  "scenes": [
    {
      "name": "Head_Open_RManfish_Medium",
      "nodes": [
        0
      ]
    }
  ],
  "nodes": [
    {
      "name": "Head_Z1R1_Manfish_Medium_N",
      "translation": [
        0,
        0,
        0
      ],
      "rotation": [
        0,
        0,
        0,
        1
      ],
      "scale": [
        1,
        1,
        1
      ],
      "mesh": 0
    }
  ],
  "meshes": [
    {
      "name": "Head_Z1R1_Manfish_Medium_N",
      "primitives": [
        {
          "attributes": {
            "POSITION": 0,
            "NORMAL": 1,
            "TEXCOORD_0": 2,
            "TEXCOORD_1": 3,
            "COLOR_0": 4
          },
          "indices": 5,
          "material": 0,
          "mode": 4
        }
      ]
    }
  ],
  "materials": [
    {
      "name": "GradMat_Body",
      "pbrMetallicRoughness": {
        "baseColorFactor": [
          1,
          1,
          1,
          1
        ],
        "metallicFactor": 0,
        "roughnessFactor": 1
      },
      "doubleSided": true,
      "extras": {
        "diffuseTexture": "Character/Common/Texture/CustomGradient_RobinHoof.png",
        "specularTexture": null,
        "normalMap": null
      }
    }
  ],
  "buffers": [
    {
      "uri": "Head_Open_RManfish_Medium.bin",
      "byteLength": 274716
    }
  ],
  "bufferViews": [
    {
      "buffer": 0,
      "byteOffset": 0,
      "byteLength": 57816,
      "target": 34962
    },
    {
      "buffer": 0,
      "byteOffset": 57816,
      "byteLength": 57816,
      "target": 34962
    },
    {
      "buffer": 0,
      "byteOffset": 115632,
      "byteLength": 38544,
      "target": 34962
    },
    {
      "buffer": 0,
      "byteOffset": 154176,
      "byteLength": 38544,
      "target": 34962
    },
    {
      "buffer": 0,
      "byteOffset": 192720,
      "byteLength": 57816,
      "target": 34962
    },
    {
      "buffer": 0,
      "byteOffset": 250536,
      "byteLength": 24180,
      "target": 34963
    }
  ],
  "accessors": [
    {
      "bufferView": 0,
      "componentType": 5126,
      "count": 4818,
      "type": "VEC3",
      "min": [
        -0.2425537109375,
        1.7158203125,
        -0.304443359375
      ],
      "max": [
        0.2425537109375,
        2.529296875,
        0.285400390625
      ]
    },
    {
      "bufferView": 1,
      "componentType": 5126,
      "count": 4818,
      "type": "VEC3",
      "min": [
        -0.5019607843137255,
        -0.5019607843137255,
        -0.5019607843137255
      ],
      "max": [
        1,
        1,
        1
      ]
    },
    {
      "bufferView": 2,
      "componentType": 5126,
      "count": 4818,
      "type": "VEC2",
      "min": [
        0.1485595703125,
        0.08355712890625
      ],
      "max": [
        0.83984375,
        0.88330078125
      ]
    },
    {
      "bufferView": 3,
      "componentType": 5126,
      "count": 4818,
      "type": "VEC2",
      "min": [
        0,
        0.26025390625
      ],
      "max": [
        0.9423828125,
        1
      ]
    },
    {
      "bufferView": 4,
      "componentType": 5126,
      "count": 3613.5,
      "type": "VEC4",
      "min": [
        0,
        0,
        0,
        0
      ],
      "max": [
        1,
        1,
        1,
        1
      ]
    },
    {
      "bufferView": 5,
      "componentType": 5123,
      "count": 12090,
      "type": "SCALAR",
      "min": [
        0
      ],
      "max": [
        4817
      ]
    }
  ],
  "extras": {
    "manifest": "Head_Open_RManfish_Medium.materials.json"
  }
}