{
  "asset": {
    "version": "2.0",
    "generator": "prefab-to-gltf"
  },
  "scene": 0,
  "scenes": [
    {
      "name": "DualSwords_Human_BeeWings",
      "nodes": [
        0
      ]
    }
  ],
  "nodes": [
    {
      "name": "DS_Human_BeeWings",
      "translation": [
        0,
        0,
        0
      ],
      "rotation": [
        0,
        0,
        0,
        1
      ],
      "scale": [
        1,
        1,
        1
      ],
      "mesh": 0
    }
  ],
  "meshes": [
    {
      "name": "DS_Human_BeeWings",
      "primitives": [
        {
          "attributes": {
            "POSITION": 0,
            "NORMAL": 1,
            "TEXCOORD_0": 2,
            "TEXCOORD_1": 3
          },
          "indices": 4,
          "material": 0,
          "mode": 4
        }
      ]
    }
  ],
  "materials": [
    {
      "name": "MatSlots_WEAPONS",
      "pbrMetallicRoughness": {
        "baseColorFactor": [
          1,
          1,
          1,
          1
        ],
        "metallicFactor": 0,
        "roughnessFactor": 1
      },
      "doubleSided": true,
      "extras": {
        "diffuseTexture": null,
        "specularTexture": null,
        "normalMap": null
      }
    },
    {
      "name": "Outline_001",
      "pbrMetallicRoughness": {
        "baseColorFactor": [
          1,
          1,
          1,
          1
        ],
        "metallicFactor": 0,
        "roughnessFactor": 1
      },
      "doubleSided": true,
      "extras": {
        "diffuseTexture": null,
        "specularTexture": null,
        "normalMap": null
      }
    }
  ],
  "buffers": [
    {
      "uri": "DualSwords_Human_BeeWings.bin",
      "byteLength": 56296
    }
  ],
  "bufferViews": [
    {
      "buffer": 0,
      "byteOffset": 0,
      "byteLength": 14736,
      "target": 34962
    },
    {
      "buffer": 0,
      "byteOffset": 14736,
      "byteLength": 14736,
      "target": 34962
    },
    {
      "buffer": 0,
      "byteOffset": 29472,
      "byteLength": 9824,
      "target": 34962
    },
    {
      "buffer": 0,
      "byteOffset": 39296,
      "byteLength": 9824,
      "target": 34962
    },
    {
      "buffer": 0,
      "byteOffset": 49120,
      "byteLength": 7176,
      "target": 34963
    }
  ],
  "accessors": [
    {
      "bufferView": 0,
      "componentType": 5126,
      "count": 1228,
      "type": "VEC3",
      "min": [
        -0.2905574142932892,
        -0.17711040377616882,
        -0.5301710963249207
      ],
      "max": [
        0.1818365454673767,
        0.17711040377616882,
        1.2967523336410522
      ]
    },
    {
      "bufferView": 1,
      "componentType": 5126,
      "count": 1228,
      "type": "VEC3",
      "min": [
        -1,
        -1,
        -0.9999850988388062
      ],
      "max": [
        1,
        1,
        0.9983723759651184
      ]
    },
    {
      "bufferView": 2,
      "componentType": 5126,
      "count": 1228,
      "type": "VEC2",
      "min": [
        0.025885699316859245,
        0.1835230588912964
      ],
      "max": [
        0.698769211769104,
        0.9801862239837646
      ]
    },
    {
      "bufferView": 3,
      "componentType": 5126,
      "count": 1228,
      "type": "VEC2",
      "min": [
        0.1055731326341629,
        0.2611294388771057
      ],
      "max": [
        0.9660751819610596,
        0.982671856880188
      ]
    },
    {
      "bufferView": 4,
      "componentType": 5123,
      "count": 3588,
      "type": "SCALAR",
      "min": [
        0
      ],
      "max": [
        1227
      ]
    }
  ],
  "extras": {
    "manifest": "DualSwords_Human_BeeWings.materials.json"
  }
}