{
  "asset": {
    "version": "2.0",
    "generator": "prefab-to-gltf"
  },
  "scene": 0,
  "scenes": [
    {
      "name": "Glider_ParaGlider01",
      "nodes": [
        0
      ]
    }
  ],
  "nodes": [
    {
      "name": "ParaGlider_01",
      "translation": [
        0,
        0,
        0
      ],
      "rotation": [
        0,
        0,
        0,
        1
      ],
      "scale": [
        1,
        1,
        1
      ],
      "mesh": 0
    }
  ],
  "meshes": [
    {
      "name": "ParaGlider_01",
      "primitives": [
        {
          "attributes": {
            "POSITION": 0,
            "NORMAL": 1,
            "TEXCOORD_0": 2,
            "TEXCOORD_1": 3
          },
          "indices": 4,
          "material": 0,
          "mode": 4
        }
      ]
    }
  ],
  "materials": [
    {
      "name": "lambert1",
      "pbrMetallicRoughness": {
        "baseColorFactor": [
          1,
          1,
          1,
          1
        ],
        "metallicFactor": 0,
        "roughnessFactor": 1
      },
      "doubleSided": true,
      "extras": {
        "diffuseTexture": null,
        "specularTexture": null,
        "normalMap": null
      }
    }
  ],
  "buffers": [
    {
      "uri": "Glider_ParaGlider01.bin",
      "byteLength": 133688
    }
  ],
  "bufferViews": [
    {
      "buffer": 0,
      "byteOffset": 0,
      "byteLength": 33036,
      "target": 34962
    },
    {
      "buffer": 0,
      "byteOffset": 33036,
      "byteLength": 33036,
      "target": 34962
    },
    {
      "buffer": 0,
      "byteOffset": 66072,
      "byteLength": 22024,
      "target": 34962
    },
    {
      "buffer": 0,
      "byteOffset": 88096,
      "byteLength": 22024,
      "target": 34962
    },
    {
      "buffer": 0,
      "byteOffset": 110120,
      "byteLength": 23568,
      "target": 34963
    }
  ],
  "accessors": [
    {
      "bufferView": 0,
      "componentType": 5126,
      "count": 2753,
      "type": "VEC3",
      "min": [
        -1.6734156608581543,
        -0.3272984027862549,
        -1.2790848016738892
      ],
      "max": [
        1.6734156608581543,
        0.4513057470321655,
        1.038226842880249
      ]
    },
    {
      "bufferView": 1,
      "componentType": 5126,
      "count": 2753,
      "type": "VEC3",
      "min": [
        -0.9993928670883179,
        -0.9991673827171326,
        -0.9957844614982605
      ],
      "max": [
        0.9993928670883179,
        0.9991985559463501,
        0.9989703297615051
      ]
    },
    {
      "bufferView": 2,
      "componentType": 5126,
      "count": 2753,
      "type": "VEC2",
      "min": [
        0.06022694706916809,
        0.1528317928314209
      ],
      "max": [
        0.44909900426864624,
        0.8107854127883911
      ]
    },
    {
      "bufferView": 3,
      "componentType": 5126,
      "count": 2753,
      "type": "VEC2",
      "min": [
        0.018189966678619385,
        0.02531278133392334
      ],
      "max": [
        0.6467891335487366,
        0.9655901193618774
      ]
    },
    {
      "bufferView": 4,
      "componentType": 5123,
      "count": 11784,
      "type": "SCALAR",
      "min": [
        0
      ],
      "max": [
        2752
      ]
    }
  ],
  "extras": {
    "manifest": "Glider_ParaGlider01.materials.json"
  }
}