{
  "asset": {
    "version": "2.0",
    "generator": "prefab-to-gltf"
  },
  "scene": 0,
  "scenes": [
    {
      "name": "Human_BeeKeeper_Staff",
      "nodes": [
        0
      ]
    }
  ],
  "nodes": [
    {
      "name": "BeeKeeper_Staff",
      "translation": [
        0,
        0,
        0
      ],
      "rotation": [
        0,
        0,
        0,
        1
      ],
      "scale": [
        1,
        1,
        1
      ],
      "mesh": 0
    }
  ],
  "meshes": [
    {
      "name": "BeeKeeper_Staff",
      "primitives": [
        {
          "attributes": {
            "POSITION": 0,
            "NORMAL": 1,
            "TEXCOORD_0": 2,
            "TEXCOORD_1": 3
          },
          "indices": 4,
          "material": 0,
          "mode": 4
        },
        {
          "attributes": {
            "POSITION": 5,
            "NORMAL": 6,
            "TEXCOORD_0": 7,
            "TEXCOORD_1": 8
          },
          "indices": 9,
          "material": 2,
          "mode": 4
        }
      ]
    }
  ],
  "materials": [
    {
      "name": "Gradmat02",
      "pbrMetallicRoughness": {
        "baseColorFactor": [
          1,
          1,
          1,
          1
        ],
        "metallicFactor": 0,
        "roughnessFactor": 1
      },
      "doubleSided": true,
      "extras": {
        "diffuseTexture": null,
        "specularTexture": null,
        "normalMap": null
      }
    },
    {
      "name": "Outline",
      "pbrMetallicRoughness": {
        "baseColorFactor": [
          1,
          1,
          1,
          1
        ],
        "metallicFactor": 0,
        "roughnessFactor": 1
      },
      "doubleSided": true,
      "extras": {
        "diffuseTexture": null,
        "specularTexture": null,
        "normalMap": null
      }
    },
    {
      "name": "MatSlots_Beekeeper",
      "pbrMetallicRoughness": {
        "baseColorFactor": [
          1,
          1,
          1,
          1
        ],
        "metallicFactor": 0,
        "roughnessFactor": 1
      },
      "doubleSided": true,
      "extras": {
        "diffuseTexture": null,
        "specularTexture": null,
        "normalMap": null
      }
    }
  ],
  "buffers": [
    {
      "uri": "Human_BeeKeeper_Staff.bin",
      "byteLength": 115532
    }
  ],
  "bufferViews": [
    {
      "buffer": 0,
      "byteOffset": 0,
      "byteLength": 16032,
      "target": 34962
    },
    {
      "buffer": 0,
      "byteOffset": 16032,
      "byteLength": 16032,
      "target": 34962
    },
    {
      "buffer": 0,
      "byteOffset": 32064,
      "byteLength": 10688,
      "target": 34962
    },
    {
      "buffer": 0,
      "byteOffset": 42752,
      "byteLength": 10688,
      "target": 34962
    },
    {
      "buffer": 0,
      "byteOffset": 53440,
      "byteLength": 6348,
      "target": 34963
    },
    {
      "buffer": 0,
      "byteOffset": 59788,
      "byteLength": 16032,
      "target": 34962
    },
    {
      "buffer": 0,
      "byteOffset": 75820,
      "byteLength": 16032,
      "target": 34962
    },
    {
      "buffer": 0,
      "byteOffset": 91852,
      "byteLength": 10688,
      "target": 34962
    },
    {
      "buffer": 0,
      "byteOffset": 102540,
      "byteLength": 10688,
      "target": 34962
    },
    {
      "buffer": 0,
      "byteOffset": 113228,
      "byteLength": 2304,
      "target": 34963
    }
  ],
  "accessors": [
    {
      "bufferView": 0,
      "componentType": 5126,
      "count": 1336,
      "type": "VEC3",
      "min": [
        -0.38148951530456543,
        -0.19465409219264984,
        -0.9692810773849487
      ],
      "max": [
        0.37536734342575073,
        0.17672047019004822,
        1.6243141889572144
      ]
    },
    {
      "bufferView": 1,
      "componentType": 5126,
      "count": 1336,
      "type": "VEC3",
      "min": [
        -0.9999998211860657,
        -0.9999045729637146,
        -0.9989076256752014
      ],
      "max": [
        0.9996585249900818,
        0.999861478805542,
        0.9994527697563171
      ]
    },
    {
      "bufferView": 2,
      "componentType": 5126,
      "count": 1336,
      "type": "VEC2",
      "min": [
        0.04190373420715332,
        0.14143157005310059
      ],
      "max": [
        0.37264037132263184,
        0.9494269490242004
      ]
    },
    {
      "bufferView": 3,
      "componentType": 5126,
      "count": 1336,
      "type": "VEC2",
      "min": [
        0,
        0.3118554949760437
      ],
      "max": [
        0.9454219341278076,
        1
      ]
    },
    {
      "bufferView": 4,
      "componentType": 5123,
      "count": 3174,
      "type": "SCALAR",
      "min": [
        0
      ],
      "max": [
        1089
      ]
    },
    {
      "bufferView": 5,
      "componentType": 5126,
      "count": 1336,
      "type": "VEC3",
      "min": [
        -0.38148951530456543,
        -0.19465409219264984,
        -0.9692810773849487
      ],
      "max": [
        0.37536734342575073,
        0.17672047019004822,
        1.6243141889572144
      ]
    },
    {
      "bufferView": 6,
      "componentType": 5126,
      "count": 1336,
      "type": "VEC3",
      "min": [
        -0.9999998211860657,
        -0.9999045729637146,
        -0.9989076256752014
      ],
      "max": [
        0.9996585249900818,
        0.999861478805542,
        0.9994527697563171
      ]
    },
    {
      "bufferView": 7,
      "componentType": 5126,
      "count": 1336,
      "type": "VEC2",
      "min": [
        0.04190373420715332,
        0.14143157005310059
      ],
      "max": [
        0.37264037132263184,
        0.9494269490242004
      ]
    },
    {
      "bufferView": 8,
      "componentType": 5126,
      "count": 1336,
      "type": "VEC2",
      "min": [
        0,
        0.3118554949760437
      ],
      "max": [
        0.9454219341278076,
        1
      ]
    },
    {
      "bufferView": 9,
      "componentType": 5123,
      "count": 1152,
      "type": "SCALAR",
      "min": [
        0
      ],
      "max": [
        1335
      ]
    }
  ],
  "extras": {
    "manifest": "Human_BeeKeeper_Staff.materials.json"
  }
}