{
  "asset": {
    "version": "2.0",
    "generator": "prefab-to-gltf"
  },
  "scene": 0,
  "scenes": [
    {
      "name": "Human_BeeKeeper",
      "nodes": [
        0
      ]
    }
  ],
  "nodes": [
    {
      "name": "BeeKeeper",
      "translation": [
        0,
        0,
        0
      ],
      "rotation": [
        0.7071056365966797,
        0,
        0,
        0.7071079257745626
      ],
      "scale": [
        1,
        1,
        1
      ],
      "mesh": 0
    }
  ],
  "meshes": [
    {
      "name": "BeeKeeper",
      "primitives": [
        {
          "attributes": {
            "POSITION": 0,
            "NORMAL": 1,
            "TEXCOORD_0": 2,
            "TEXCOORD_1": 3,
            "COLOR_0": 4
          },
          "indices": 5,
          "material": 0,
          "mode": 4
        }
      ]
    }
  ],
  "materials": [
    {
      "name": "GradMat_Body",
      "pbrMetallicRoughness": {
        "baseColorFactor": [
          1,
          1,
          1,
          1
        ],
        "metallicFactor": 0,
        "roughnessFactor": 1
      },
      "doubleSided": true,
      "extras": {
        "diffuseTexture": "Character/Common/Texture/CustomGradient_BasicGuy.png",
        "specularTexture": null,
        "normalMap": null
      }
    }
  ],
  "buffers": [
    {
      "uri": "Human_BeeKeeper.bin",
      "byteLength": 731898
    }
  ],
  "bufferViews": [
    {
      "buffer": 0,
      "byteOffset": 0,
      "byteLength": 150408,
      "target": 34962
    },
    {
      "buffer": 0,
      "byteOffset": 150408,
      "byteLength": 150408,
      "target": 34962
    },
    {
      "buffer": 0,
      "byteOffset": 300816,
      "byteLength": 100272,
      "target": 34962
    },
    {
      "buffer": 0,
      "byteOffset": 401088,
      "byteLength": 100272,
      "target": 34962
    },
    {
      "buffer": 0,
      "byteOffset": 501360,
      "byteLength": 150408,
      "target": 34962
    },
    {
      "buffer": 0,
      "byteOffset": 651768,
      "byteLength": 80130,
      "target": 34963
    }
  ],
  "accessors": [
    {
      "bufferView": 0,
      "componentType": 5126,
      "count": 12534,
      "type": "VEC3",
      "min": [
        -0.8123599290847778,
        -0.005797172896564007,
        -0.6605760455131531
      ],
      "max": [
        0.8123599290847778,
        2.1902406215667725,
        0.3748197555541992
      ]
    },
    {
      "bufferView": 1,
      "componentType": 5126,
      "count": 12534,
      "type": "VEC3",
      "min": [
        -0.9997777938842773,
        -0.9993171095848083,
        -0.9999967813491821
      ],
      "max": [
        0.9997777938842773,
        0.9992864727973938,
        0.9999490976333618
      ]
    },
    {
      "bufferView": 2,
      "componentType": 5126,
      "count": 12534,
      "type": "VEC2",
      "min": [
        0.007700114510953426,
        0.1805294156074524
      ],
      "max": [
        0.6133402585983276,
        1.012180209159851
      ]
    },
    {
      "bufferView": 3,
      "componentType": 5126,
      "count": 12534,
      "type": "VEC2",
      "min": [
        0,
        0.08089160919189453
      ],
      "max": [
        0.9502361416816711,
        1.00118887424469
      ]
    },
    {
      "bufferView": 4,
      "componentType": 5126,
      "count": 9400.5,
      "type": "VEC4",
      "min": [
        0.3960784375667572,
        0.3960784375667572,
        0.3960784375667572,
        0.3960784375667572
      ],
      "max": [
        1,
        1,
        1,
        1
      ]
    },
    {
      "bufferView": 5,
      "componentType": 5123,
      "count": 40065,
      "type": "SCALAR",
      "min": [
        0
      ],
      "max": [
        12533
      ]
    }
  ],
  "extras": {
    "manifest": "Human_BeeKeeper.materials.json"
  }
}