{
  "asset": {
    "version": "2.0",
    "generator": "prefab-to-gltf"
  },
  "scene": 0,
  "scenes": [
    {
      "name": "Back_Long_Endgame_Wiz",
      "nodes": [
        0
      ]
    }
  ],
  "nodes": [
    {
      "name": "Back_Endgame_Wiz_N",
      "translation": [
        0,
        0,
        0
      ],
      "rotation": [
        0,
        0,
        0,
        1
      ],
      "scale": [
        1,
        1,
        1
      ],
      "mesh": 0
    }
  ],
  "meshes": [
    {
      "name": "Back_Endgame_Wiz_N",
      "primitives": [
        {
          "attributes": {
            "POSITION": 0,
            "NORMAL": 1,
            "TEXCOORD_0": 2,
            "TEXCOORD_1": 3,
            "COLOR_0": 4
          },
          "indices": 5,
          "material": 0,
          "mode": 4
        },
        {
          "attributes": {
            "POSITION": 6,
            "NORMAL": 7,
            "TEXCOORD_0": 8,
            "TEXCOORD_1": 9,
            "COLOR_0": 10
          },
          "indices": 11,
          "material": 1,
          "mode": 4
        }
      ]
    }
  ],
  "materials": [
    {
      "name": "Gradmat",
      "pbrMetallicRoughness": {
        "baseColorFactor": [
          1,
          1,
          1,
          1
        ],
        "metallicFactor": 0,
        "roughnessFactor": 1
      },
      "doubleSided": true,
      "extras": {
        "diffuseTexture": "Character/Common/Texture/CustomGradient_Hero_Clothes.png",
        "specularTexture": null,
        "normalMap": null
      }
    },
    {
      "name": "Fresnel",
      "pbrMetallicRoughness": {
        "baseColorFactor": [
          1,
          1,
          1,
          1
        ],
        "metallicFactor": 0,
        "roughnessFactor": 1
      },
      "doubleSided": true,
      "extras": {
        "diffuseTexture": null,
        "specularTexture": null,
        "normalMap": null
      }
    }
  ],
  "buffers": [
    {
      "uri": "Back_Long_Endgame_Wiz.bin",
      "byteLength": 614644
    }
  ],
  "bufferViews": [
    {
      "buffer": 0,
      "byteOffset": 0,
      "byteLength": 68784,
      "target": 34962
    },
    {
      "buffer": 0,
      "byteOffset": 68784,
      "byteLength": 68784,
      "target": 34962
    },
    {
      "buffer": 0,
      "byteOffset": 137568,
      "byteLength": 45856,
      "target": 34962
    },
    {
      "buffer": 0,
      "byteOffset": 183424,
      "byteLength": 45856,
      "target": 34962
    },
    {
      "buffer": 0,
      "byteOffset": 229280,
      "byteLength": 68784,
      "target": 34962
    },
    {
      "buffer": 0,
      "byteOffset": 298064,
      "byteLength": 17892,
      "target": 34963
    },
    {
      "buffer": 0,
      "byteOffset": 315956,
      "byteLength": 68784,
      "target": 34962
    },
    {
      "buffer": 0,
      "byteOffset": 384740,
      "byteLength": 68784,
      "target": 34962
    },
    {
      "buffer": 0,
      "byteOffset": 453524,
      "byteLength": 45856,
      "target": 34962
    },
    {
      "buffer": 0,
      "byteOffset": 499380,
      "byteLength": 45856,
      "target": 34962
    },
    {
      "buffer": 0,
      "byteOffset": 545236,
      "byteLength": 68784,
      "target": 34962
    },
    {
      "buffer": 0,
      "byteOffset": 614020,
      "byteLength": 624,
      "target": 34963
    }
  ],
  "accessors": [
    {
      "bufferView": 0,
      "componentType": 5126,
      "count": 5732,
      "type": "VEC3",
      "min": [
        -0.4208984375,
        0.4638671875,
        -0.53125
      ],
      "max": [
        0.4208984375,
        1.89453125,
        -0.12030029296875
      ]
    },
    {
      "bufferView": 1,
      "componentType": 5126,
      "count": 5732,
      "type": "VEC3",
      "min": [
        -0.5019607843137255,
        -0.5019607843137255,
        -0.5019607843137255
      ],
      "max": [
        1,
        1,
        1
      ]
    },
    {
      "bufferView": 2,
      "componentType": 5126,
      "count": 5732,
      "type": "VEC2",
      "min": [
        0.029998779296875,
        0.347900390625
      ],
      "max": [
        0.7294921875,
        0.99072265625
      ]
    },
    {
      "bufferView": 3,
      "componentType": 5126,
      "count": 5732,
      "type": "VEC2",
      "min": [
        0,
        0.104248046875
      ],
      "max": [
        0.95068359375,
        1
      ]
    },
    {
      "bufferView": 4,
      "componentType": 5126,
      "count": 4299,
      "type": "VEC4",
      "min": [
        0,
        0,
        0,
        0
      ],
      "max": [
        0.9999715685844421,
        0.9999715685844421,
        0.9999715685844421,
        0.9999715685844421
      ]
    },
    {
      "bufferView": 5,
      "componentType": 5123,
      "count": 8946,
      "type": "SCALAR",
      "min": [
        0
      ],
      "max": [
        5569
      ]
    },
    {
      "bufferView": 6,
      "componentType": 5126,
      "count": 5732,
      "type": "VEC3",
      "min": [
        -0.4208984375,
        0.4638671875,
        -0.53125
      ],
      "max": [
        0.4208984375,
        1.89453125,
        -0.12030029296875
      ]
    },
    {
      "bufferView": 7,
      "componentType": 5126,
      "count": 5732,
      "type": "VEC3",
      "min": [
        -0.5019607843137255,
        -0.5019607843137255,
        -0.5019607843137255
      ],
      "max": [
        1,
        1,
        1
      ]
    },
    {
      "bufferView": 8,
      "componentType": 5126,
      "count": 5732,
      "type": "VEC2",
      "min": [
        0.029998779296875,
        0.347900390625
      ],
      "max": [
        0.7294921875,
        0.99072265625
      ]
    },
    {
      "bufferView": 9,
      "componentType": 5126,
      "count": 5732,
      "type": "VEC2",
      "min": [
        0,
        0.104248046875
      ],
      "max": [
        0.95068359375,
        1
      ]
    },
    {
      "bufferView": 10,
      "componentType": 5126,
      "count": 4299,
      "type": "VEC4",
      "min": [
        0,
        0,
        0,
        0
      ],
      "max": [
        0.9999715685844421,
        0.9999715685844421,
        0.9999715685844421,
        0.9999715685844421
      ]
    },
    {
      "bufferView": 11,
      "componentType": 5123,
      "count": 312,
      "type": "SCALAR",
      "min": [
        0
      ],
      "max": [
        5731
      ]
    }
  ],
  "extras": {
    "manifest": "Back_Long_Endgame_Wiz.materials.json"
  }
}