{
  "asset": {
    "version": "2.0",
    "generator": "prefab-to-gltf"
  },
  "scene": 0,
  "scenes": [
    {
      "name": "Feet_Fancy_Endgame_Wiz",
      "nodes": [
        0
      ]
    }
  ],
  "nodes": [
    {
      "name": "Feet_Endgame_Wiz_N",
      "translation": [
        0,
        0,
        0
      ],
      "rotation": [
        0,
        0,
        0,
        1
      ],
      "scale": [
        1,
        1,
        1
      ],
      "mesh": 0
    }
  ],
  "meshes": [
    {
      "name": "Feet_Endgame_Wiz_N",
      "primitives": [
        {
          "attributes": {
            "POSITION": 0,
            "NORMAL": 1,
            "TEXCOORD_0": 2,
            "TEXCOORD_1": 3,
            "COLOR_0": 4
          },
          "indices": 5,
          "material": 0,
          "mode": 4
        },
        {
          "attributes": {
            "POSITION": 6,
            "NORMAL": 7,
            "TEXCOORD_0": 8,
            "TEXCOORD_1": 9,
            "COLOR_0": 10
          },
          "indices": 11,
          "material": 1,
          "mode": 4
        }
      ]
    }
  ],
  "materials": [
    {
      "name": "Gradmat",
      "pbrMetallicRoughness": {
        "baseColorFactor": [
          1,
          1,
          1,
          1
        ],
        "metallicFactor": 0,
        "roughnessFactor": 1
      },
      "doubleSided": true,
      "extras": {
        "diffuseTexture": "Character/Common/Texture/CustomGradient_Hero_Clothes.png",
        "specularTexture": null,
        "normalMap": null
      }
    },
    {
      "name": "Fresnel",
      "pbrMetallicRoughness": {
        "baseColorFactor": [
          1,
          1,
          1,
          1
        ],
        "metallicFactor": 0,
        "roughnessFactor": 1
      },
      "doubleSided": true,
      "extras": {
        "diffuseTexture": null,
        "specularTexture": null,
        "normalMap": null
      }
    }
  ],
  "buffers": [
    {
      "uri": "Feet_Fancy_Endgame_Wiz.bin",
      "byteLength": 962312
    }
  ],
  "bufferViews": [
    {
      "buffer": 0,
      "byteOffset": 0,
      "byteLength": 107472,
      "target": 34962
    },
    {
      "buffer": 0,
      "byteOffset": 107472,
      "byteLength": 107472,
      "target": 34962
    },
    {
      "buffer": 0,
      "byteOffset": 214944,
      "byteLength": 71648,
      "target": 34962
    },
    {
      "buffer": 0,
      "byteOffset": 286592,
      "byteLength": 71648,
      "target": 34962
    },
    {
      "buffer": 0,
      "byteOffset": 358240,
      "byteLength": 107472,
      "target": 34962
    },
    {
      "buffer": 0,
      "byteOffset": 465712,
      "byteLength": 30552,
      "target": 34963
    },
    {
      "buffer": 0,
      "byteOffset": 496264,
      "byteLength": 107472,
      "target": 34962
    },
    {
      "buffer": 0,
      "byteOffset": 603736,
      "byteLength": 107472,
      "target": 34962
    },
    {
      "buffer": 0,
      "byteOffset": 711208,
      "byteLength": 71648,
      "target": 34962
    },
    {
      "buffer": 0,
      "byteOffset": 782856,
      "byteLength": 71648,
      "target": 34962
    },
    {
      "buffer": 0,
      "byteOffset": 854504,
      "byteLength": 107472,
      "target": 34962
    },
    {
      "buffer": 0,
      "byteOffset": 961976,
      "byteLength": 336,
      "target": 34963
    }
  ],
  "accessors": [
    {
      "bufferView": 0,
      "componentType": 5126,
      "count": 8956,
      "type": "VEC3",
      "min": [
        -0.48046875,
        -0.007904052734375,
        -0.152099609375
      ],
      "max": [
        0.48046875,
        0.53369140625,
        0.395263671875
      ]
    },
    {
      "bufferView": 1,
      "componentType": 5126,
      "count": 8956,
      "type": "VEC3",
      "min": [
        -0.5019607843137255,
        -0.5019607843137255,
        -0.5019607843137255
      ],
      "max": [
        1,
        1,
        1
      ]
    },
    {
      "bufferView": 2,
      "componentType": 5126,
      "count": 8956,
      "type": "VEC2",
      "min": [
        0.1748046875,
        0.2139892578125
      ],
      "max": [
        0.70263671875,
        0.97216796875
      ]
    },
    {
      "bufferView": 3,
      "componentType": 5126,
      "count": 8956,
      "type": "VEC2",
      "min": [
        0,
        0.107666015625
      ],
      "max": [
        0.94287109375,
        1
      ]
    },
    {
      "bufferView": 4,
      "componentType": 5126,
      "count": 6717,
      "type": "VEC4",
      "min": [
        0,
        0,
        0,
        0
      ],
      "max": [
        0.9999715685844421,
        0.9999715685844421,
        0.9999715685844421,
        0.9999715685844421
      ]
    },
    {
      "bufferView": 5,
      "componentType": 5123,
      "count": 15276,
      "type": "SCALAR",
      "min": [
        0
      ],
      "max": [
        8838
      ]
    },
    {
      "bufferView": 6,
      "componentType": 5126,
      "count": 8956,
      "type": "VEC3",
      "min": [
        -0.48046875,
        -0.007904052734375,
        -0.152099609375
      ],
      "max": [
        0.48046875,
        0.53369140625,
        0.395263671875
      ]
    },
    {
      "bufferView": 7,
      "componentType": 5126,
      "count": 8956,
      "type": "VEC3",
      "min": [
        -0.5019607843137255,
        -0.5019607843137255,
        -0.5019607843137255
      ],
      "max": [
        1,
        1,
        1
      ]
    },
    {
      "bufferView": 8,
      "componentType": 5126,
      "count": 8956,
      "type": "VEC2",
      "min": [
        0.1748046875,
        0.2139892578125
      ],
      "max": [
        0.70263671875,
        0.97216796875
      ]
    },
    {
      "bufferView": 9,
      "componentType": 5126,
      "count": 8956,
      "type": "VEC2",
      "min": [
        0,
        0.107666015625
      ],
      "max": [
        0.94287109375,
        1
      ]
    },
    {
      "bufferView": 10,
      "componentType": 5126,
      "count": 6717,
      "type": "VEC4",
      "min": [
        0,
        0,
        0,
        0
      ],
      "max": [
        0.9999715685844421,
        0.9999715685844421,
        0.9999715685844421,
        0.9999715685844421
      ]
    },
    {
      "bufferView": 11,
      "componentType": 5123,
      "count": 168,
      "type": "SCALAR",
      "min": [
        0
      ],
      "max": [
        8955
      ]
    }
  ],
  "extras": {
    "manifest": "Feet_Fancy_Endgame_Wiz.materials.json"
  }
}