{
  "asset": {
    "version": "2.0",
    "generator": "prefab-to-gltf"
  },
  "scene": 0,
  "scenes": [
    {
      "name": "Hands_Forearm_Endgame_Wiz",
      "nodes": [
        0
      ]
    }
  ],
  "nodes": [
    {
      "name": "Hands_Endgame_Wiz_N",
      "translation": [
        0,
        0,
        0
      ],
      "rotation": [
        0,
        0,
        0,
        1
      ],
      "scale": [
        1,
        1,
        1
      ],
      "mesh": 0
    }
  ],
  "meshes": [
    {
      "name": "Hands_Endgame_Wiz_N",
      "primitives": [
        {
          "attributes": {
            "POSITION": 0,
            "NORMAL": 1,
            "TEXCOORD_0": 2,
            "TEXCOORD_1": 3,
            "COLOR_0": 4
          },
          "indices": 5,
          "material": 0,
          "mode": 4
        }
      ]
    }
  ],
  "materials": [
    {
      "name": "Gradmat",
      "pbrMetallicRoughness": {
        "baseColorFactor": [
          1,
          1,
          1,
          1
        ],
        "metallicFactor": 0,
        "roughnessFactor": 1
      },
      "doubleSided": true,
      "extras": {
        "diffuseTexture": "Character/Common/Texture/CustomGradient_Hero_Clothes.png",
        "specularTexture": null,
        "normalMap": null
      }
    }
  ],
  "buffers": [
    {
      "uri": "Hands_Forearm_Endgame_Wiz.bin",
      "byteLength": 489908
    }
  ],
  "bufferViews": [
    {
      "buffer": 0,
      "byteOffset": 0,
      "byteLength": 106044,
      "target": 34962
    },
    {
      "buffer": 0,
      "byteOffset": 106044,
      "byteLength": 106044,
      "target": 34962
    },
    {
      "buffer": 0,
      "byteOffset": 212088,
      "byteLength": 70696,
      "target": 34962
    },
    {
      "buffer": 0,
      "byteOffset": 282784,
      "byteLength": 70696,
      "target": 34962
    },
    {
      "buffer": 0,
      "byteOffset": 353480,
      "byteLength": 106044,
      "target": 34962
    },
    {
      "buffer": 0,
      "byteOffset": 459524,
      "byteLength": 30384,
      "target": 34963
    }
  ],
  "accessors": [
    {
      "bufferView": 0,
      "componentType": 5126,
      "count": 8837,
      "type": "VEC3",
      "min": [
        -0.81201171875,
        0.95458984375,
        -0.039642333984375
      ],
      "max": [
        0.81201171875,
        1.4482421875,
        0.34423828125
      ]
    },
    {
      "bufferView": 1,
      "componentType": 5126,
      "count": 8837,
      "type": "VEC3",
      "min": [
        -0.5019607843137255,
        -0.5019607843137255,
        -0.5019607843137255
      ],
      "max": [
        1,
        1,
        1
      ]
    },
    {
      "bufferView": 2,
      "componentType": 5126,
      "count": 8837,
      "type": "VEC2",
      "min": [
        0.0304718017578125,
        0.0115814208984375
      ],
      "max": [
        0.480224609375,
        0.978515625
      ]
    },
    {
      "bufferView": 3,
      "componentType": 5126,
      "count": 8837,
      "type": "VEC2",
      "min": [
        0.06695556640625,
        0.177490234375
      ],
      "max": [
        0.9404296875,
        0.9599609375
      ]
    },
    {
      "bufferView": 4,
      "componentType": 5126,
      "count": 6627.75,
      "type": "VEC4",
      "min": [
        0,
        0,
        0,
        0
      ],
      "max": [
        0.9999715685844421,
        0.9999715685844421,
        0.9999715685844421,
        0.9999715685844421
      ]
    },
    {
      "bufferView": 5,
      "componentType": 5123,
      "count": 15192,
      "type": "SCALAR",
      "min": [
        0
      ],
      "max": [
        8836
      ]
    }
  ],
  "extras": {
    "manifest": "Hands_Forearm_Endgame_Wiz.materials.json"
  }
}