{
  "asset": {
    "version": "2.0",
    "generator": "prefab-to-gltf"
  },
  "scene": 0,
  "scenes": [
    {
      "name": "Head_Close_Endgame_Wiz",
      "nodes": [
        0
      ]
    }
  ],
  "nodes": [
    {
      "name": "Head_Endgame_Wiz_N",
      "translation": [
        0,
        0,
        0
      ],
      "rotation": [
        0,
        0,
        0,
        1
      ],
      "scale": [
        1,
        1,
        1
      ],
      "mesh": 0
    }
  ],
  "meshes": [
    {
      "name": "Head_Endgame_Wiz_N",
      "primitives": [
        {
          "attributes": {
            "POSITION": 0,
            "NORMAL": 1,
            "TEXCOORD_0": 2,
            "TEXCOORD_1": 3,
            "COLOR_0": 4
          },
          "indices": 5,
          "material": 0,
          "mode": 4
        }
      ]
    }
  ],
  "materials": [
    {
      "name": "Gradmat",
      "pbrMetallicRoughness": {
        "baseColorFactor": [
          1,
          1,
          1,
          1
        ],
        "metallicFactor": 0,
        "roughnessFactor": 1
      },
      "doubleSided": true,
      "extras": {
        "diffuseTexture": "Character/Common/Texture/CustomGradient_Hero_Clothes.png",
        "specularTexture": null,
        "normalMap": null
      }
    }
  ],
  "buffers": [
    {
      "uri": "Head_Close_Endgame_Wiz.bin",
      "byteLength": 310136
    }
  ],
  "bufferViews": [
    {
      "buffer": 0,
      "byteOffset": 0,
      "byteLength": 67488,
      "target": 34962
    },
    {
      "buffer": 0,
      "byteOffset": 67488,
      "byteLength": 67488,
      "target": 34962
    },
    {
      "buffer": 0,
      "byteOffset": 134976,
      "byteLength": 44992,
      "target": 34962
    },
    {
      "buffer": 0,
      "byteOffset": 179968,
      "byteLength": 44992,
      "target": 34962
    },
    {
      "buffer": 0,
      "byteOffset": 224960,
      "byteLength": 67488,
      "target": 34962
    },
    {
      "buffer": 0,
      "byteOffset": 292448,
      "byteLength": 17688,
      "target": 34963
    }
  ],
  "accessors": [
    {
      "bufferView": 0,
      "componentType": 5126,
      "count": 5624,
      "type": "VEC3",
      "min": [
        -0.330078125,
        1.724609375,
        -0.2213134765625
      ],
      "max": [
        0.330078125,
        2.4453125,
        0.34375
      ]
    },
    {
      "bufferView": 1,
      "componentType": 5126,
      "count": 5624,
      "type": "VEC3",
      "min": [
        -0.5019607843137255,
        -0.4980392156862745,
        -0.5019607843137255
      ],
      "max": [
        1,
        1,
        1
      ]
    },
    {
      "bufferView": 2,
      "componentType": 5126,
      "count": 5624,
      "type": "VEC2",
      "min": [
        0.1541748046875,
        0.170166015625
      ],
      "max": [
        0.48681640625,
        0.99072265625
      ]
    },
    {
      "bufferView": 3,
      "componentType": 5126,
      "count": 5624,
      "type": "VEC2",
      "min": [
        0.04840087890625,
        0.1142578125
      ],
      "max": [
        0.94921875,
        0.96240234375
      ]
    },
    {
      "bufferView": 4,
      "componentType": 5126,
      "count": 4218,
      "type": "VEC4",
      "min": [
        0,
        0,
        0,
        0
      ],
      "max": [
        0.9999715685844421,
        0.9999715685844421,
        0.9999715685844421,
        0.9999715685844421
      ]
    },
    {
      "bufferView": 5,
      "componentType": 5123,
      "count": 8844,
      "type": "SCALAR",
      "min": [
        0
      ],
      "max": [
        5623
      ]
    }
  ],
  "extras": {
    "manifest": "Head_Close_Endgame_Wiz.materials.json"
  }
}