{
  "asset": {
    "version": "2.0",
    "generator": "prefab-to-gltf"
  },
  "scene": 0,
  "scenes": [
    {
      "name": "Legs_Whole_Endgame_Wiz",
      "nodes": [
        0
      ]
    }
  ],
  "nodes": [
    {
      "name": "Legs_Endgame_Wiz_N",
      "translation": [
        0,
        0,
        0
      ],
      "rotation": [
        0,
        0,
        0,
        1
      ],
      "scale": [
        1,
        1,
        1
      ],
      "mesh": 0
    }
  ],
  "meshes": [
    {
      "name": "Legs_Endgame_Wiz_N",
      "primitives": [
        {
          "attributes": {
            "POSITION": 0,
            "NORMAL": 1,
            "TEXCOORD_0": 2,
            "TEXCOORD_1": 3,
            "COLOR_0": 4
          },
          "indices": 5,
          "material": 0,
          "mode": 4
        }
      ]
    }
  ],
  "materials": [
    {
      "name": "Gradmat",
      "pbrMetallicRoughness": {
        "baseColorFactor": [
          1,
          1,
          1,
          1
        ],
        "metallicFactor": 0,
        "roughnessFactor": 1
      },
      "doubleSided": true,
      "extras": {
        "diffuseTexture": "Character/Common/Texture/CustomGradient_Hero_Clothes.png",
        "specularTexture": null,
        "normalMap": null
      }
    }
  ],
  "buffers": [
    {
      "uri": "Legs_Whole_Endgame_Wiz.bin",
      "byteLength": 206936
    }
  ],
  "bufferViews": [
    {
      "buffer": 0,
      "byteOffset": 0,
      "byteLength": 45024,
      "target": 34962
    },
    {
      "buffer": 0,
      "byteOffset": 45024,
      "byteLength": 45024,
      "target": 34962
    },
    {
      "buffer": 0,
      "byteOffset": 90048,
      "byteLength": 30016,
      "target": 34962
    },
    {
      "buffer": 0,
      "byteOffset": 120064,
      "byteLength": 30016,
      "target": 34962
    },
    {
      "buffer": 0,
      "byteOffset": 150080,
      "byteLength": 45024,
      "target": 34962
    },
    {
      "buffer": 0,
      "byteOffset": 195104,
      "byteLength": 11832,
      "target": 34963
    }
  ],
  "accessors": [
    {
      "bufferView": 0,
      "componentType": 5126,
      "count": 3752,
      "type": "VEC3",
      "min": [
        -0.37255859375,
        0.08514404296875,
        -0.11895751953125
      ],
      "max": [
        0.37255859375,
        1.2763671875,
        0.2308349609375
      ]
    },
    {
      "bufferView": 1,
      "componentType": 5126,
      "count": 3752,
      "type": "VEC3",
      "min": [
        -0.5019607843137255,
        -0.5019607843137255,
        -0.5019607843137255
      ],
      "max": [
        1,
        1,
        1
      ]
    },
    {
      "bufferView": 2,
      "componentType": 5126,
      "count": 3752,
      "type": "VEC2",
      "min": [
        0.0546875,
        0.33056640625
      ],
      "max": [
        0.4921875,
        0.947265625
      ]
    },
    {
      "bufferView": 3,
      "componentType": 5126,
      "count": 3752,
      "type": "VEC2",
      "min": [
        0.04595947265625,
        0.11846923828125
      ],
      "max": [
        0.94775390625,
        0.94677734375
      ]
    },
    {
      "bufferView": 4,
      "componentType": 5126,
      "count": 2814,
      "type": "VEC4",
      "min": [
        0,
        0,
        0,
        0
      ],
      "max": [
        0.9999715685844421,
        0.9999715685844421,
        0.9999715685844421,
        0.9999715685844421
      ]
    },
    {
      "bufferView": 5,
      "componentType": 5123,
      "count": 5916,
      "type": "SCALAR",
      "min": [
        0
      ],
      "max": [
        3751
      ]
    }
  ],
  "extras": {
    "manifest": "Legs_Whole_Endgame_Wiz.materials.json"
  }
}