{
  "asset": {
    "version": "2.0",
    "generator": "prefab-to-gltf"
  },
  "scene": 0,
  "scenes": [
    {
      "name": "Shoulders_Outer_Endgame_Wiz",
      "nodes": [
        0
      ]
    }
  ],
  "nodes": [
    {
      "name": "Shoulders_Endgame_Wiz_N",
      "translation": [
        0,
        0,
        0
      ],
      "rotation": [
        0,
        0,
        0,
        1
      ],
      "scale": [
        1,
        1,
        1
      ],
      "mesh": 0
    }
  ],
  "meshes": [
    {
      "name": "Shoulders_Endgame_Wiz_N",
      "primitives": [
        {
          "attributes": {
            "POSITION": 0,
            "NORMAL": 1,
            "TEXCOORD_0": 2,
            "TEXCOORD_1": 3,
            "COLOR_0": 4
          },
          "indices": 5,
          "material": 0,
          "mode": 4
        },
        {
          "attributes": {
            "POSITION": 6,
            "NORMAL": 7,
            "TEXCOORD_0": 8,
            "TEXCOORD_1": 9,
            "COLOR_0": 10
          },
          "indices": 11,
          "material": 1,
          "mode": 4
        }
      ]
    }
  ],
  "materials": [
    {
      "name": "Gradmat",
      "pbrMetallicRoughness": {
        "baseColorFactor": [
          1,
          1,
          1,
          1
        ],
        "metallicFactor": 0,
        "roughnessFactor": 1
      },
      "doubleSided": true,
      "extras": {
        "diffuseTexture": "Character/Common/Texture/CustomGradient_Hero_Clothes.png",
        "specularTexture": null,
        "normalMap": null
      }
    },
    {
      "name": "Fresnel",
      "pbrMetallicRoughness": {
        "baseColorFactor": [
          1,
          1,
          1,
          1
        ],
        "metallicFactor": 0,
        "roughnessFactor": 1
      },
      "doubleSided": true,
      "extras": {
        "diffuseTexture": null,
        "specularTexture": null,
        "normalMap": null
      }
    }
  ],
  "buffers": [
    {
      "uri": "Shoulders_Outer_Endgame_Wiz.bin",
      "byteLength": 896856
    }
  ],
  "bufferViews": [
    {
      "buffer": 0,
      "byteOffset": 0,
      "byteLength": 100368,
      "target": 34962
    },
    {
      "buffer": 0,
      "byteOffset": 100368,
      "byteLength": 100368,
      "target": 34962
    },
    {
      "buffer": 0,
      "byteOffset": 200736,
      "byteLength": 66912,
      "target": 34962
    },
    {
      "buffer": 0,
      "byteOffset": 267648,
      "byteLength": 66912,
      "target": 34962
    },
    {
      "buffer": 0,
      "byteOffset": 334560,
      "byteLength": 100368,
      "target": 34962
    },
    {
      "buffer": 0,
      "byteOffset": 434928,
      "byteLength": 26664,
      "target": 34963
    },
    {
      "buffer": 0,
      "byteOffset": 461592,
      "byteLength": 100368,
      "target": 34962
    },
    {
      "buffer": 0,
      "byteOffset": 561960,
      "byteLength": 100368,
      "target": 34962
    },
    {
      "buffer": 0,
      "byteOffset": 662328,
      "byteLength": 66912,
      "target": 34962
    },
    {
      "buffer": 0,
      "byteOffset": 729240,
      "byteLength": 66912,
      "target": 34962
    },
    {
      "buffer": 0,
      "byteOffset": 796152,
      "byteLength": 100368,
      "target": 34962
    },
    {
      "buffer": 0,
      "byteOffset": 896520,
      "byteLength": 336,
      "target": 34963
    }
  ],
  "accessors": [
    {
      "bufferView": 0,
      "componentType": 5126,
      "count": 8364,
      "type": "VEC3",
      "min": [
        -0.7578125,
        1.38671875,
        -0.264404296875
      ],
      "max": [
        0.7578125,
        1.9921875,
        0.3330078125
      ]
    },
    {
      "bufferView": 1,
      "componentType": 5126,
      "count": 8364,
      "type": "VEC3",
      "min": [
        -0.5019607843137255,
        -0.5019607843137255,
        -0.5019607843137255
      ],
      "max": [
        1,
        1,
        1
      ]
    },
    {
      "bufferView": 2,
      "componentType": 5126,
      "count": 8364,
      "type": "VEC2",
      "min": [
        0.164306640625,
        0.1322021484375
      ],
      "max": [
        0.703125,
        0.95458984375
      ]
    },
    {
      "bufferView": 3,
      "componentType": 5126,
      "count": 8364,
      "type": "VEC2",
      "min": [
        0.043975830078125,
        0.107666015625
      ],
      "max": [
        0.935546875,
        0.95361328125
      ]
    },
    {
      "bufferView": 4,
      "componentType": 5126,
      "count": 6273,
      "type": "VEC4",
      "min": [
        0,
        0,
        0,
        0
      ],
      "max": [
        0.9999715685844421,
        0.9999715685844421,
        0.9999715685844421,
        0.9999715685844421
      ]
    },
    {
      "bufferView": 5,
      "componentType": 5123,
      "count": 13332,
      "type": "SCALAR",
      "min": [
        0
      ],
      "max": [
        8246
      ]
    },
    {
      "bufferView": 6,
      "componentType": 5126,
      "count": 8364,
      "type": "VEC3",
      "min": [
        -0.7578125,
        1.38671875,
        -0.264404296875
      ],
      "max": [
        0.7578125,
        1.9921875,
        0.3330078125
      ]
    },
    {
      "bufferView": 7,
      "componentType": 5126,
      "count": 8364,
      "type": "VEC3",
      "min": [
        -0.5019607843137255,
        -0.5019607843137255,
        -0.5019607843137255
      ],
      "max": [
        1,
        1,
        1
      ]
    },
    {
      "bufferView": 8,
      "componentType": 5126,
      "count": 8364,
      "type": "VEC2",
      "min": [
        0.164306640625,
        0.1322021484375
      ],
      "max": [
        0.703125,
        0.95458984375
      ]
    },
    {
      "bufferView": 9,
      "componentType": 5126,
      "count": 8364,
      "type": "VEC2",
      "min": [
        0.043975830078125,
        0.107666015625
      ],
      "max": [
        0.935546875,
        0.95361328125
      ]
    },
    {
      "bufferView": 10,
      "componentType": 5126,
      "count": 6273,
      "type": "VEC4",
      "min": [
        0,
        0,
        0,
        0
      ],
      "max": [
        0.9999715685844421,
        0.9999715685844421,
        0.9999715685844421,
        0.9999715685844421
      ]
    },
    {
      "bufferView": 11,
      "componentType": 5123,
      "count": 168,
      "type": "SCALAR",
      "min": [
        0
      ],
      "max": [
        8363
      ]
    }
  ],
  "extras": {
    "manifest": "Shoulders_Outer_Endgame_Wiz.materials.json"
  }
}