{
  "asset": {
    "version": "2.0",
    "generator": "prefab-to-gltf"
  },
  "scene": 0,
  "scenes": [
    {
      "name": "Waist_Fancy_Endgame_Wiz",
      "nodes": [
        0
      ]
    }
  ],
  "nodes": [
    {
      "name": "Waist_Endgame_Wiz_N",
      "translation": [
        0,
        0,
        0
      ],
      "rotation": [
        0,
        0,
        0,
        1
      ],
      "scale": [
        1,
        1,
        1
      ],
      "mesh": 0
    }
  ],
  "meshes": [
    {
      "name": "Waist_Endgame_Wiz_N",
      "primitives": [
        {
          "attributes": {
            "POSITION": 0,
            "NORMAL": 1,
            "TEXCOORD_0": 2,
            "TEXCOORD_1": 3,
            "COLOR_0": 4
          },
          "indices": 5,
          "material": 0,
          "mode": 4
        },
        {
          "attributes": {
            "POSITION": 6,
            "NORMAL": 7,
            "TEXCOORD_0": 8,
            "TEXCOORD_1": 9,
            "COLOR_0": 10
          },
          "indices": 11,
          "material": 1,
          "mode": 4
        }
      ]
    }
  ],
  "materials": [
    {
      "name": "Fresnel",
      "pbrMetallicRoughness": {
        "baseColorFactor": [
          1,
          1,
          1,
          1
        ],
        "metallicFactor": 0,
        "roughnessFactor": 1
      },
      "doubleSided": true,
      "extras": {
        "diffuseTexture": null,
        "specularTexture": null,
        "normalMap": null
      }
    },
    {
      "name": "Gradmat",
      "pbrMetallicRoughness": {
        "baseColorFactor": [
          1,
          1,
          1,
          1
        ],
        "metallicFactor": 0,
        "roughnessFactor": 1
      },
      "doubleSided": true,
      "extras": {
        "diffuseTexture": "Character/Common/Texture/CustomGradient_Hero_Clothes.png",
        "specularTexture": null,
        "normalMap": null
      }
    }
  ],
  "buffers": [
    {
      "uri": "Waist_Fancy_Endgame_Wiz.bin",
      "byteLength": 1069712
    }
  ],
  "bufferViews": [
    {
      "buffer": 0,
      "byteOffset": 0,
      "byteLength": 119712,
      "target": 34962
    },
    {
      "buffer": 0,
      "byteOffset": 119712,
      "byteLength": 119712,
      "target": 34962
    },
    {
      "buffer": 0,
      "byteOffset": 239424,
      "byteLength": 79808,
      "target": 34962
    },
    {
      "buffer": 0,
      "byteOffset": 319232,
      "byteLength": 79808,
      "target": 34962
    },
    {
      "buffer": 0,
      "byteOffset": 399040,
      "byteLength": 119712,
      "target": 34962
    },
    {
      "buffer": 0,
      "byteOffset": 518752,
      "byteLength": 948,
      "target": 34963
    },
    {
      "buffer": 0,
      "byteOffset": 519700,
      "byteLength": 119712,
      "target": 34962
    },
    {
      "buffer": 0,
      "byteOffset": 639412,
      "byteLength": 119712,
      "target": 34962
    },
    {
      "buffer": 0,
      "byteOffset": 759124,
      "byteLength": 79808,
      "target": 34962
    },
    {
      "buffer": 0,
      "byteOffset": 838932,
      "byteLength": 79808,
      "target": 34962
    },
    {
      "buffer": 0,
      "byteOffset": 918740,
      "byteLength": 119712,
      "target": 34962
    },
    {
      "buffer": 0,
      "byteOffset": 1038452,
      "byteLength": 31260,
      "target": 34963
    }
  ],
  "accessors": [
    {
      "bufferView": 0,
      "componentType": 5126,
      "count": 9976,
      "type": "VEC3",
      "min": [
        -0.419189453125,
        0.791015625,
        -0.275390625
      ],
      "max": [
        0.419189453125,
        1.3447265625,
        0.3486328125
      ]
    },
    {
      "bufferView": 1,
      "componentType": 5126,
      "count": 9976,
      "type": "VEC3",
      "min": [
        -0.5019607843137255,
        -0.5019607843137255,
        -0.5019607843137255
      ],
      "max": [
        1,
        1,
        1
      ]
    },
    {
      "bufferView": 2,
      "componentType": 5126,
      "count": 9976,
      "type": "VEC2",
      "min": [
        0.029998779296875,
        0.347900390625
      ],
      "max": [
        0.72802734375,
        0.96240234375
      ]
    },
    {
      "bufferView": 3,
      "componentType": 5126,
      "count": 9976,
      "type": "VEC2",
      "min": [
        0,
        0.1142578125
      ],
      "max": [
        0.95068359375,
        1
      ]
    },
    {
      "bufferView": 4,
      "componentType": 5126,
      "count": 7482,
      "type": "VEC4",
      "min": [
        0,
        0,
        0,
        0
      ],
      "max": [
        0.9999715685844421,
        0.9999715685844421,
        0.9999715685844421,
        0.9999715685844421
      ]
    },
    {
      "bufferView": 5,
      "componentType": 5123,
      "count": 474,
      "type": "SCALAR",
      "min": [
        0
      ],
      "max": [
        268
      ]
    },
    {
      "bufferView": 6,
      "componentType": 5126,
      "count": 9976,
      "type": "VEC3",
      "min": [
        -0.419189453125,
        0.791015625,
        -0.275390625
      ],
      "max": [
        0.419189453125,
        1.3447265625,
        0.3486328125
      ]
    },
    {
      "bufferView": 7,
      "componentType": 5126,
      "count": 9976,
      "type": "VEC3",
      "min": [
        -0.5019607843137255,
        -0.5019607843137255,
        -0.5019607843137255
      ],
      "max": [
        1,
        1,
        1
      ]
    },
    {
      "bufferView": 8,
      "componentType": 5126,
      "count": 9976,
      "type": "VEC2",
      "min": [
        0.029998779296875,
        0.347900390625
      ],
      "max": [
        0.72802734375,
        0.96240234375
      ]
    },
    {
      "bufferView": 9,
      "componentType": 5126,
      "count": 9976,
      "type": "VEC2",
      "min": [
        0,
        0.1142578125
      ],
      "max": [
        0.95068359375,
        1
      ]
    },
    {
      "bufferView": 10,
      "componentType": 5126,
      "count": 7482,
      "type": "VEC4",
      "min": [
        0,
        0,
        0,
        0
      ],
      "max": [
        0.9999715685844421,
        0.9999715685844421,
        0.9999715685844421,
        0.9999715685844421
      ]
    },
    {
      "bufferView": 11,
      "componentType": 5123,
      "count": 15630,
      "type": "SCALAR",
      "min": [
        0
      ],
      "max": [
        9975
      ]
    }
  ],
  "extras": {
    "manifest": "Waist_Fancy_Endgame_Wiz.materials.json"
  }
}