{
  "asset": {
    "version": "2.0",
    "generator": "prefab-to-gltf"
  },
  "scene": 0,
  "scenes": [
    {
      "name": "test_charasheet",
      "nodes": [
        0
      ]
    }
  ],
  "nodes": [
    {
      "name": "MainHead_N",
      "translation": [
        0,
        0,
        0
      ],
      "rotation": [
        0,
        0,
        0,
        1
      ],
      "scale": [
        1,
        1,
        1
      ],
      "mesh": 0
    }
  ],
  "meshes": [
    {
      "name": "MainHead_N",
      "primitives": [
        {
          "attributes": {
            "POSITION": 0,
            "NORMAL": 1,
            "TEXCOORD_0": 2,
            "TEXCOORD_1": 3,
            "COLOR_0": 4
          },
          "indices": 5,
          "material": 0,
          "mode": 4
        }
      ]
    }
  ],
  "materials": [
    {
      "name": "GradMat_Body",
      "pbrMetallicRoughness": {
        "baseColorFactor": [
          1,
          1,
          1,
          1
        ],
        "metallicFactor": 0,
        "roughnessFactor": 1
      },
      "doubleSided": true,
      "extras": {
        "diffuseTexture": "Character/Common/Texture/CustomGradient_BasicGuy.png",
        "specularTexture": null,
        "normalMap": null
      }
    }
  ],
  "buffers": [
    {
      "uri": "test_charasheet.bin",
      "byteLength": 699192
    }
  ],
  "bufferViews": [
    {
      "buffer": 0,
      "byteOffset": 0,
      "byteLength": 155376,
      "target": 34962
    },
    {
      "buffer": 0,
      "byteOffset": 155376,
      "byteLength": 155376,
      "target": 34962
    },
    {
      "buffer": 0,
      "byteOffset": 310752,
      "byteLength": 103584,
      "target": 34962
    },
    {
      "buffer": 0,
      "byteOffset": 414336,
      "byteLength": 103584,
      "target": 34962
    },
    {
      "buffer": 0,
      "byteOffset": 517920,
      "byteLength": 155376,
      "target": 34962
    },
    {
      "buffer": 0,
      "byteOffset": 673296,
      "byteLength": 25896,
      "target": 34963
    }
  ],
  "accessors": [
    {
      "bufferView": 0,
      "componentType": 5126,
      "count": 12948,
      "type": "VEC3",
      "min": [
        -0.16154146194458008,
        1.8173316717147827,
        -0.07605863362550735
      ],
      "max": [
        0.16154146194458008,
        2.174583911895752,
        0.26820024847984314
      ]
    },
    {
      "bufferView": 1,
      "componentType": 5126,
      "count": 12948,
      "type": "VEC3",
      "min": [
        -0.999604344367981,
        -0.9998763203620911,
        -0.9992430806159973
      ],
      "max": [
        0.9996042847633362,
        0.999977171421051,
        1
      ]
    },
    {
      "bufferView": 2,
      "componentType": 5126,
      "count": 12948,
      "type": "VEC2",
      "min": [
        0.019850954413414,
        0.17645370960235596
      ],
      "max": [
        0.34752652049064636,
        0.9598420262336731
      ]
    },
    {
      "bufferView": 3,
      "componentType": 5126,
      "count": 12948,
      "type": "VEC2",
      "min": [
        0.03125017508864403,
        0.02668595314025879
      ],
      "max": [
        0.9915549755096436,
        0.99432373046875
      ]
    },
    {
      "bufferView": 4,
      "componentType": 5126,
      "count": 9711,
      "type": "VEC4",
      "min": [
        0,
        0,
        0,
        0
      ],
      "max": [
        0.9999715685844421,
        0.9999715685844421,
        0.9999715685844421,
        0.9999715685844421
      ]
    },
    {
      "bufferView": 5,
      "componentType": 5123,
      "count": 12948,
      "type": "SCALAR",
      "min": [
        0
      ],
      "max": [
        12947
      ]
    }
  ],
  "extras": {
    "manifest": "test_charasheet.materials.json"
  }
}