{
  "asset": {
    "version": "2.0",
    "generator": "prefab-to-gltf"
  },
  "scene": 0,
  "scenes": [
    {
      "name": "Waist_Medium_Z2U1_FigWiz",
      "nodes": [
        0
      ]
    }
  ],
  "nodes": [
    {
      "name": "Waist_R1S1_FigCle_N",
      "translation": [
        0,
        0,
        0
      ],
      "rotation": [
        0,
        0,
        0,
        1
      ],
      "scale": [
        1,
        1,
        1
      ],
      "mesh": 0
    }
  ],
  "meshes": [
    {
      "name": "Waist_R1S1_FigCle_N",
      "primitives": [
        {
          "attributes": {
            "POSITION": 0,
            "NORMAL": 1,
            "TEXCOORD_0": 2,
            "TEXCOORD_1": 3
          },
          "indices": 4,
          "material": 0,
          "mode": 4
        }
      ]
    }
  ],
  "materials": [
    {
      "name": "Gradmat_Weapon1",
      "pbrMetallicRoughness": {
        "baseColorFactor": [
          1,
          1,
          1,
          1
        ],
        "metallicFactor": 0,
        "roughnessFactor": 1
      },
      "doubleSided": true,
      "extras": {
        "diffuseTexture": "Character/Common/Texture/CustomGradient_WeaponALL.png",
        "specularTexture": null,
        "normalMap": null
      }
    }
  ],
  "buffers": [
    {
      "uri": "Waist_Medium_Z2U1_FigWiz.bin",
      "byteLength": 29400
    }
  ],
  "bufferViews": [
    {
      "buffer": 0,
      "byteOffset": 0,
      "byteLength": 7776,
      "target": 34962
    },
    {
      "buffer": 0,
      "byteOffset": 7776,
      "byteLength": 7776,
      "target": 34962
    },
    {
      "buffer": 0,
      "byteOffset": 15552,
      "byteLength": 5184,
      "target": 34962
    },
    {
      "buffer": 0,
      "byteOffset": 20736,
      "byteLength": 5184,
      "target": 34962
    },
    {
      "buffer": 0,
      "byteOffset": 25920,
      "byteLength": 3480,
      "target": 34963
    }
  ],
  "accessors": [
    {
      "bufferView": 0,
      "componentType": 5126,
      "count": 648,
      "type": "VEC3",
      "min": [
        -0.2215576171875,
        1.1708984375,
        -0.07196044921875
      ],
      "max": [
        0.2215576171875,
        1.302734375,
        0.267333984375
      ]
    },
    {
      "bufferView": 1,
      "componentType": 5126,
      "count": 648,
      "type": "VEC3",
      "min": [
        -0.5019607843137255,
        -0.5019607843137255,
        -0.5019607843137255
      ],
      "max": [
        1,
        1,
        0.4980392156862745
      ]
    },
    {
      "bufferView": 2,
      "componentType": 5126,
      "count": 648,
      "type": "VEC2",
      "min": [
        0.160888671875,
        0.5576171875
      ],
      "max": [
        0.33544921875,
        0.78515625
      ]
    },
    {
      "bufferView": 3,
      "componentType": 5126,
      "count": 648,
      "type": "VEC2",
      "min": [
        0.051300048828125,
        0.12274169921875
      ],
      "max": [
        0.439453125,
        0.96435546875
      ]
    },
    {
      "bufferView": 4,
      "componentType": 5123,
      "count": 1740,
      "type": "SCALAR",
      "min": [
        0
      ],
      "max": [
        647
      ]
    }
  ],
  "extras": {
    "manifest": "Waist_Medium_Z2U1_FigWiz.materials.json"
  }
}