{
  "asset": {
    "version": "2.0",
    "generator": "prefab-to-gltf"
  },
  "scene": 0,
  "scenes": [
    {
      "name": "Head_Close_Z2U1_FigCle",
      "nodes": [
        0
      ]
    }
  ],
  "nodes": [
    {
      "name": "Head_Z2U_Heavy_N",
      "translation": [
        0,
        0,
        0
      ],
      "rotation": [
        0,
        0,
        0,
        1
      ],
      "scale": [
        1,
        1,
        1
      ],
      "mesh": 0
    }
  ],
  "meshes": [
    {
      "name": "Head_Z2U_Heavy_N",
      "primitives": [
        {
          "attributes": {
            "POSITION": 0,
            "NORMAL": 1,
            "TEXCOORD_0": 2,
            "TEXCOORD_1": 3,
            "COLOR_0": 4
          },
          "indices": 5,
          "material": 0,
          "mode": 4
        }
      ]
    }
  ],
  "materials": [
    {
      "name": "standardSurface1",
      "pbrMetallicRoughness": {
        "baseColorFactor": [
          1,
          1,
          1,
          1
        ],
        "metallicFactor": 0,
        "roughnessFactor": 1
      },
      "doubleSided": true,
      "extras": {
        "diffuseTexture": null,
        "specularTexture": null,
        "normalMap": null
      }
    }
  ],
  "buffers": [
    {
      "uri": "Head_Close_Z2U1_FigCle.bin",
      "byteLength": 101476
    }
  ],
  "bufferViews": [
    {
      "buffer": 0,
      "byteOffset": 0,
      "byteLength": 21216,
      "target": 34962
    },
    {
      "buffer": 0,
      "byteOffset": 21216,
      "byteLength": 21216,
      "target": 34962
    },
    {
      "buffer": 0,
      "byteOffset": 42432,
      "byteLength": 14144,
      "target": 34962
    },
    {
      "buffer": 0,
      "byteOffset": 56576,
      "byteLength": 14144,
      "target": 34962
    },
    {
      "buffer": 0,
      "byteOffset": 70720,
      "byteLength": 21216,
      "target": 34962
    },
    {
      "buffer": 0,
      "byteOffset": 91936,
      "byteLength": 9540,
      "target": 34963
    }
  ],
  "accessors": [
    {
      "bufferView": 0,
      "componentType": 5126,
      "count": 1768,
      "type": "VEC3",
      "min": [
        -0.20263671875,
        1.873046875,
        -0.14501953125
      ],
      "max": [
        0.20263671875,
        2.216796875,
        0.306396484375
      ]
    },
    {
      "bufferView": 1,
      "componentType": 5126,
      "count": 1768,
      "type": "VEC3",
      "min": [
        -0.5019607843137255,
        -0.5019607843137255,
        -0.5019607843137255
      ],
      "max": [
        1,
        1,
        1
      ]
    },
    {
      "bufferView": 2,
      "componentType": 5126,
      "count": 1768,
      "type": "VEC2",
      "min": [
        0.1610107421875,
        0.2366943359375
      ],
      "max": [
        0.9638671875,
        0.94287109375
      ]
    },
    {
      "bufferView": 3,
      "componentType": 5126,
      "count": 1768,
      "type": "VEC2",
      "min": [
        0.0311279296875,
        0.11962890625
      ],
      "max": [
        0.9482421875,
        0.9609375
      ]
    },
    {
      "bufferView": 4,
      "componentType": 5126,
      "count": 1326,
      "type": "VEC4",
      "min": [
        0,
        0,
        0,
        0
      ],
      "max": [
        0.9999715685844421,
        0.9999715685844421,
        0.9999715685844421,
        0.9999715685844421
      ]
    },
    {
      "bufferView": 5,
      "componentType": 5123,
      "count": 4770,
      "type": "SCALAR",
      "min": [
        0
      ],
      "max": [
        1767
      ]
    }
  ],
  "extras": {
    "manifest": "Head_Close_Z2U1_FigCle.materials.json"
  }
}