{
  "asset": {
    "version": "2.0",
    "generator": "prefab-to-gltf"
  },
  "scene": 0,
  "scenes": [
    {
      "name": "HumanBeast_Swarowls_PunkGrey",
      "nodes": [
        0
      ]
    }
  ],
  "nodes": [
    {
      "name": "HumanBeast_Swarowls_Punk",
      "translation": [
        0,
        0,
        0
      ],
      "rotation": [
        0,
        0,
        0,
        1
      ],
      "scale": [
        1,
        1,
        1
      ],
      "mesh": 0
    }
  ],
  "meshes": [
    {
      "name": "HumanBeast_Swarowls_Punk",
      "primitives": [
        {
          "attributes": {
            "POSITION": 0,
            "NORMAL": 1,
            "TEXCOORD_0": 2,
            "TEXCOORD_1": 3,
            "COLOR_0": 4
          },
          "indices": 5,
          "material": 0,
          "mode": 4
        },
        {
          "attributes": {
            "POSITION": 6,
            "NORMAL": 7,
            "TEXCOORD_0": 8,
            "TEXCOORD_1": 9,
            "COLOR_0": 10
          },
          "indices": 11,
          "material": 1,
          "mode": 4
        }
      ]
    }
  ],
  "materials": [
    {
      "name": "MatSlots",
      "pbrMetallicRoughness": {
        "baseColorFactor": [
          1,
          1,
          1,
          1
        ],
        "metallicFactor": 0,
        "roughnessFactor": 1
      },
      "doubleSided": true,
      "extras": {
        "diffuseTexture": "Character/Common/Texture/CustomGradient_WeaponALL.png",
        "specularTexture": null,
        "normalMap": null
      }
    },
    {
      "name": "lambert3",
      "pbrMetallicRoughness": {
        "baseColorFactor": [
          1,
          1,
          1,
          1
        ],
        "metallicFactor": 0,
        "roughnessFactor": 1
      },
      "doubleSided": true,
      "extras": {
        "diffuseTexture": null,
        "specularTexture": null,
        "normalMap": null
      }
    }
  ],
  "buffers": [
    {
      "uri": "HumanBeast_Swarowls_PunkGrey.bin",
      "byteLength": 1803524
    }
  ],
  "bufferViews": [
    {
      "buffer": 0,
      "byteOffset": 0,
      "byteLength": 193572,
      "target": 34962
    },
    {
      "buffer": 0,
      "byteOffset": 193572,
      "byteLength": 193572,
      "target": 34962
    },
    {
      "buffer": 0,
      "byteOffset": 387144,
      "byteLength": 129048,
      "target": 34962
    },
    {
      "buffer": 0,
      "byteOffset": 516192,
      "byteLength": 129048,
      "target": 34962
    },
    {
      "buffer": 0,
      "byteOffset": 645240,
      "byteLength": 193572,
      "target": 34962
    },
    {
      "buffer": 0,
      "byteOffset": 838812,
      "byteLength": 125250,
      "target": 34963
    },
    {
      "buffer": 0,
      "byteOffset": 964064,
      "byteLength": 193572,
      "target": 34962
    },
    {
      "buffer": 0,
      "byteOffset": 1157636,
      "byteLength": 193572,
      "target": 34962
    },
    {
      "buffer": 0,
      "byteOffset": 1351208,
      "byteLength": 129048,
      "target": 34962
    },
    {
      "buffer": 0,
      "byteOffset": 1480256,
      "byteLength": 129048,
      "target": 34962
    },
    {
      "buffer": 0,
      "byteOffset": 1609304,
      "byteLength": 193572,
      "target": 34962
    },
    {
      "buffer": 0,
      "byteOffset": 1802876,
      "byteLength": 648,
      "target": 34963
    }
  ],
  "accessors": [
    {
      "bufferView": 0,
      "componentType": 5126,
      "count": 16131,
      "type": "VEC3",
      "min": [
        -0.8561077117919922,
        -0.0030264854431152344,
        -2.1218667030334473
      ],
      "max": [
        0.8561077117919922,
        2.3176262378692627,
        0.926938533782959
      ]
    },
    {
      "bufferView": 1,
      "componentType": 5126,
      "count": 16131,
      "type": "VEC3",
      "min": [
        -0.999908447265625,
        -0.9999111294746399,
        -0.9999997019767761
      ],
      "max": [
        0.9999088048934937,
        0.9998234510421753,
        0.999995231628418
      ]
    },
    {
      "bufferView": 2,
      "componentType": 5126,
      "count": 16131,
      "type": "VEC2",
      "min": [
        0.011492236517369747,
        0.0802493691444397
      ],
      "max": [
        0.9085068106651306,
        0.9740276336669922
      ]
    },
    {
      "bufferView": 3,
      "componentType": 5126,
      "count": 16131,
      "type": "VEC2",
      "min": [
        0,
        0.10284674167633057
      ],
      "max": [
        0.9810388684272766,
        1
      ]
    },
    {
      "bufferView": 4,
      "componentType": 5126,
      "count": 12098.25,
      "type": "VEC4",
      "min": [
        0,
        0,
        0,
        0
      ],
      "max": [
        1,
        1,
        1,
        1
      ]
    },
    {
      "bufferView": 5,
      "componentType": 5123,
      "count": 62625,
      "type": "SCALAR",
      "min": [
        0
      ],
      "max": [
        16130
      ]
    },
    {
      "bufferView": 6,
      "componentType": 5126,
      "count": 16131,
      "type": "VEC3",
      "min": [
        -0.8561077117919922,
        -0.0030264854431152344,
        -2.1218667030334473
      ],
      "max": [
        0.8561077117919922,
        2.3176262378692627,
        0.926938533782959
      ]
    },
    {
      "bufferView": 7,
      "componentType": 5126,
      "count": 16131,
      "type": "VEC3",
      "min": [
        -0.999908447265625,
        -0.9999111294746399,
        -0.9999997019767761
      ],
      "max": [
        0.9999088048934937,
        0.9998234510421753,
        0.999995231628418
      ]
    },
    {
      "bufferView": 8,
      "componentType": 5126,
      "count": 16131,
      "type": "VEC2",
      "min": [
        0.011492236517369747,
        0.0802493691444397
      ],
      "max": [
        0.9085068106651306,
        0.9740276336669922
      ]
    },
    {
      "bufferView": 9,
      "componentType": 5126,
      "count": 16131,
      "type": "VEC2",
      "min": [
        0,
        0.10284674167633057
      ],
      "max": [
        0.9810388684272766,
        1
      ]
    },
    {
      "bufferView": 10,
      "componentType": 5126,
      "count": 12098.25,
      "type": "VEC4",
      "min": [
        0,
        0,
        0,
        0
      ],
      "max": [
        1,
        1,
        1,
        1
      ]
    },
    {
      "bufferView": 11,
      "componentType": 5123,
      "count": 324,
      "type": "SCALAR",
      "min": [
        0
      ],
      "max": [
        1504
      ]
    }
  ],
  "extras": {
    "manifest": "HumanBeast_Swarowls_PunkGrey.materials.json"
  }
}