{
  "asset": {
    "version": "2.0",
    "generator": "prefab-to-gltf"
  },
  "scene": 0,
  "scenes": [
    {
      "name": "Back_Long_XBee_01_Light",
      "nodes": [
        0
      ]
    }
  ],
  "nodes": [
    {
      "name": "Back_Long_Z1RBee_Light_N",
      "translation": [
        0,
        0,
        0
      ],
      "rotation": [
        0,
        0,
        0,
        1
      ],
      "scale": [
        1,
        1,
        1
      ],
      "mesh": 0,
      "children": [
        1
      ]
    },
    {
      "name": "Z1RBeeA_Light",
      "translation": [
        0,
        0,
        0
      ],
      "rotation": [
        0.7071067690849304,
        0,
        0,
        0.7071067932881644
      ],
      "scale": [
        1,
        1,
        1
      ]
    }
  ],
  "meshes": [
    {
      "name": "Back_Long_Z1RBee_Light_N",
      "primitives": [
        {
          "attributes": {
            "POSITION": 0,
            "NORMAL": 1,
            "TEXCOORD_0": 2,
            "TEXCOORD_1": 3
          },
          "indices": 4,
          "material": 0,
          "mode": 4
        }
      ]
    }
  ],
  "materials": [
    {
      "name": "Gradmat_Weapon",
      "pbrMetallicRoughness": {
        "baseColorFactor": [
          1,
          1,
          1,
          1
        ],
        "metallicFactor": 0,
        "roughnessFactor": 1
      },
      "doubleSided": true,
      "extras": {
        "diffuseTexture": "Character/Common/Texture/CustomGradient_Hero_Clothes.png",
        "specularTexture": null,
        "normalMap": null
      }
    }
  ],
  "buffers": [
    {
      "uri": "Back_Long_XBee_01_Light.bin",
      "byteLength": 90288
    }
  ],
  "bufferViews": [
    {
      "buffer": 0,
      "byteOffset": 0,
      "byteLength": 23976,
      "target": 34962
    },
    {
      "buffer": 0,
      "byteOffset": 23976,
      "byteLength": 23976,
      "target": 34962
    },
    {
      "buffer": 0,
      "byteOffset": 47952,
      "byteLength": 15984,
      "target": 34962
    },
    {
      "buffer": 0,
      "byteOffset": 63936,
      "byteLength": 15984,
      "target": 34962
    },
    {
      "buffer": 0,
      "byteOffset": 79920,
      "byteLength": 10368,
      "target": 34963
    }
  ],
  "accessors": [
    {
      "bufferView": 0,
      "componentType": 5126,
      "count": 1998,
      "type": "VEC3",
      "min": [
        -0.34326171875,
        0.48193359375,
        -0.33251953125
      ],
      "max": [
        0.34326171875,
        1.7822265625,
        -0.01245880126953125
      ]
    },
    {
      "bufferView": 1,
      "componentType": 5126,
      "count": 1998,
      "type": "VEC3",
      "min": [
        -0.5019607843137255,
        -0.42745098039215684,
        -0.5019607843137255
      ],
      "max": [
        1,
        1,
        1
      ]
    },
    {
      "bufferView": 2,
      "componentType": 5126,
      "count": 1998,
      "type": "VEC2",
      "min": [
        0.1004638671875,
        0.123046875
      ],
      "max": [
        0.56982421875,
        0.7802734375
      ]
    },
    {
      "bufferView": 3,
      "componentType": 5126,
      "count": 1998,
      "type": "VEC2",
      "min": [
        0.02764892578125,
        0.03265380859375
      ],
      "max": [
        0.94970703125,
        0.97998046875
      ]
    },
    {
      "bufferView": 4,
      "componentType": 5123,
      "count": 5184,
      "type": "SCALAR",
      "min": [
        0
      ],
      "max": [
        1997
      ]
    }
  ],
  "extras": {
    "manifest": "Back_Long_XBee_01_Light.materials.json"
  }
}