{
  "asset": {
    "version": "2.0",
    "generator": "prefab-to-gltf"
  },
  "scene": 0,
  "scenes": [
    {
      "name": "Chest_ShortSleeves_XBee_01_Light",
      "nodes": [
        0
      ]
    }
  ],
  "nodes": [
    {
      "name": "Chest_ShortSleeves_Z1RBeeA_Light_N",
      "translation": [
        0,
        0,
        0
      ],
      "rotation": [
        0,
        0,
        0,
        1
      ],
      "scale": [
        1,
        1,
        1
      ],
      "mesh": 0,
      "children": [
        1
      ]
    },
    {
      "name": "Z1RBeeA_Light",
      "translation": [
        0,
        0,
        0
      ],
      "rotation": [
        0.7071067690849304,
        0,
        0,
        0.7071067932881644
      ],
      "scale": [
        1,
        1,
        1
      ]
    }
  ],
  "meshes": [
    {
      "name": "Chest_ShortSleeves_Z1RBeeA_Light_N",
      "primitives": [
        {
          "attributes": {
            "POSITION": 0,
            "NORMAL": 1,
            "TEXCOORD_0": 2,
            "TEXCOORD_1": 3,
            "COLOR_0": 4
          },
          "indices": 5,
          "material": 0,
          "mode": 4
        }
      ]
    }
  ],
  "materials": [
    {
      "name": "GradMat_Body",
      "pbrMetallicRoughness": {
        "baseColorFactor": [
          1,
          1,
          1,
          1
        ],
        "metallicFactor": 0,
        "roughnessFactor": 1
      },
      "doubleSided": true,
      "extras": {
        "diffuseTexture": "Character/Common/Texture/CustomGradient_RobinHoof.png",
        "specularTexture": null,
        "normalMap": null
      }
    }
  ],
  "buffers": [
    {
      "uri": "Chest_ShortSleeves_XBee_01_Light.bin",
      "byteLength": 495164
    }
  ],
  "bufferViews": [
    {
      "buffer": 0,
      "byteOffset": 0,
      "byteLength": 104748,
      "target": 34962
    },
    {
      "buffer": 0,
      "byteOffset": 104748,
      "byteLength": 104748,
      "target": 34962
    },
    {
      "buffer": 0,
      "byteOffset": 209496,
      "byteLength": 69832,
      "target": 34962
    },
    {
      "buffer": 0,
      "byteOffset": 279328,
      "byteLength": 69832,
      "target": 34962
    },
    {
      "buffer": 0,
      "byteOffset": 349160,
      "byteLength": 104748,
      "target": 34962
    },
    {
      "buffer": 0,
      "byteOffset": 453908,
      "byteLength": 41256,
      "target": 34963
    }
  ],
  "accessors": [
    {
      "bufferView": 0,
      "componentType": 5126,
      "count": 8729,
      "type": "VEC3",
      "min": [
        -0.66650390625,
        0.08514404296875,
        -0.3134765625
      ],
      "max": [
        0.66650390625,
        1.9326171875,
        0.388671875
      ]
    },
    {
      "bufferView": 1,
      "componentType": 5126,
      "count": 8729,
      "type": "VEC3",
      "min": [
        -0.5019607843137255,
        -0.5019607843137255,
        -0.5019607843137255
      ],
      "max": [
        1,
        1,
        1
      ]
    },
    {
      "bufferView": 2,
      "componentType": 5126,
      "count": 8729,
      "type": "VEC2",
      "min": [
        0.0230560302734375,
        0.14208984375
      ],
      "max": [
        0.57373046875,
        0.95751953125
      ]
    },
    {
      "bufferView": 3,
      "componentType": 5126,
      "count": 8729,
      "type": "VEC2",
      "min": [
        0.06854248046875,
        0.03265380859375
      ],
      "max": [
        0.94580078125,
        0.9462890625
      ]
    },
    {
      "bufferView": 4,
      "componentType": 5126,
      "count": 6546.75,
      "type": "VEC4",
      "min": [
        0,
        0,
        0,
        0
      ],
      "max": [
        1,
        1,
        1,
        1
      ]
    },
    {
      "bufferView": 5,
      "componentType": 5123,
      "count": 20628,
      "type": "SCALAR",
      "min": [
        0
      ],
      "max": [
        8728
      ]
    }
  ],
  "extras": {
    "manifest": "Chest_ShortSleeves_XBee_01_Light.materials.json"
  }
}