{
  "asset": {
    "version": "2.0",
    "generator": "prefab-to-gltf"
  },
  "scene": 0,
  "scenes": [
    {
      "name": "Feet_High_XBee_01_Heavy",
      "nodes": [
        0
      ]
    }
  ],
  "nodes": [
    {
      "name": "Feet_High_Z1RBeeA_Heavy_N",
      "translation": [
        0,
        0,
        0
      ],
      "rotation": [
        0,
        0,
        0,
        1
      ],
      "scale": [
        1,
        1,
        1
      ],
      "mesh": 0,
      "children": [
        1
      ]
    },
    {
      "name": "Z1RBeeA_Heavy",
      "translation": [
        0,
        0,
        0
      ],
      "rotation": [
        0.7071067690849304,
        0,
        0,
        0.7071067932881644
      ],
      "scale": [
        1,
        1,
        1
      ]
    }
  ],
  "meshes": [
    {
      "name": "Feet_High_Z1RBeeA_Heavy_N",
      "primitives": [
        {
          "attributes": {
            "POSITION": 0,
            "NORMAL": 1,
            "TEXCOORD_0": 2,
            "TEXCOORD_1": 3
          },
          "indices": 4,
          "material": 0,
          "mode": 4
        }
      ]
    }
  ],
  "materials": [
    {
      "name": "GradMat_Body",
      "pbrMetallicRoughness": {
        "baseColorFactor": [
          1,
          1,
          1,
          1
        ],
        "metallicFactor": 0,
        "roughnessFactor": 1
      },
      "doubleSided": true,
      "extras": {
        "diffuseTexture": "Character/Common/Texture/CustomGradient_BasicGuy.png",
        "specularTexture": null,
        "normalMap": null
      }
    }
  ],
  "buffers": [
    {
      "uri": "Feet_High_XBee_01_Heavy.bin",
      "byteLength": 176056
    }
  ],
  "bufferViews": [
    {
      "buffer": 0,
      "byteOffset": 0,
      "byteLength": 47496,
      "target": 34962
    },
    {
      "buffer": 0,
      "byteOffset": 47496,
      "byteLength": 47496,
      "target": 34962
    },
    {
      "buffer": 0,
      "byteOffset": 94992,
      "byteLength": 31664,
      "target": 34962
    },
    {
      "buffer": 0,
      "byteOffset": 126656,
      "byteLength": 31664,
      "target": 34962
    },
    {
      "buffer": 0,
      "byteOffset": 158320,
      "byteLength": 17736,
      "target": 34963
    }
  ],
  "accessors": [
    {
      "bufferView": 0,
      "componentType": 5126,
      "count": 3958,
      "type": "VEC3",
      "min": [
        -0.41064453125,
        -0.007537841796875,
        -0.1219482421875
      ],
      "max": [
        0.41064453125,
        0.56396484375,
        0.3095703125
      ]
    },
    {
      "bufferView": 1,
      "componentType": 5126,
      "count": 3958,
      "type": "VEC3",
      "min": [
        -0.5019607843137255,
        -0.5019607843137255,
        -0.5019607843137255
      ],
      "max": [
        1,
        1,
        1
      ]
    },
    {
      "bufferView": 2,
      "componentType": 5126,
      "count": 3958,
      "type": "VEC2",
      "min": [
        0.11907958984375,
        0.276611328125
      ],
      "max": [
        0.474609375,
        0.93896484375
      ]
    },
    {
      "bufferView": 3,
      "componentType": 5126,
      "count": 3958,
      "type": "VEC2",
      "min": [
        0.1083984375,
        0.1129150390625
      ],
      "max": [
        0.94677734375,
        0.95263671875
      ]
    },
    {
      "bufferView": 4,
      "componentType": 5123,
      "count": 8868,
      "type": "SCALAR",
      "min": [
        0
      ],
      "max": [
        3957
      ]
    }
  ],
  "extras": {
    "manifest": "Feet_High_XBee_01_Heavy.materials.json"
  }
}