{
  "asset": {
    "version": "2.0",
    "generator": "prefab-to-gltf"
  },
  "scene": 0,
  "scenes": [
    {
      "name": "Feet_Low_XBee_01_Light",
      "nodes": [
        0
      ]
    }
  ],
  "nodes": [
    {
      "name": "Feet_Low_Z1RBeeA_Light_N",
      "translation": [
        0,
        0,
        0
      ],
      "rotation": [
        0,
        0,
        0,
        1
      ],
      "scale": [
        1,
        1,
        1
      ],
      "mesh": 0,
      "children": [
        1
      ]
    },
    {
      "name": "Z1RBeeA_Light",
      "translation": [
        0,
        0,
        0
      ],
      "rotation": [
        0.7071067690849304,
        0,
        0,
        0.7071067932881644
      ],
      "scale": [
        1,
        1,
        1
      ]
    }
  ],
  "meshes": [
    {
      "name": "Feet_Low_Z1RBeeA_Light_N",
      "primitives": [
        {
          "attributes": {
            "POSITION": 0,
            "NORMAL": 1,
            "TEXCOORD_0": 2,
            "TEXCOORD_1": 3
          },
          "indices": 4,
          "material": 0,
          "mode": 4
        }
      ]
    }
  ],
  "materials": [
    {
      "name": "GradMat_Body",
      "pbrMetallicRoughness": {
        "baseColorFactor": [
          1,
          1,
          1,
          1
        ],
        "metallicFactor": 0,
        "roughnessFactor": 1
      },
      "doubleSided": true,
      "extras": {
        "diffuseTexture": "Character/Common/Texture/CustomGradient_BasicGuy.png",
        "specularTexture": null,
        "normalMap": null
      }
    }
  ],
  "buffers": [
    {
      "uri": "Feet_Low_XBee_01_Light.bin",
      "byteLength": 106624
    }
  ],
  "bufferViews": [
    {
      "buffer": 0,
      "byteOffset": 0,
      "byteLength": 29244,
      "target": 34962
    },
    {
      "buffer": 0,
      "byteOffset": 29244,
      "byteLength": 29244,
      "target": 34962
    },
    {
      "buffer": 0,
      "byteOffset": 58488,
      "byteLength": 19496,
      "target": 34962
    },
    {
      "buffer": 0,
      "byteOffset": 77984,
      "byteLength": 19496,
      "target": 34962
    },
    {
      "buffer": 0,
      "byteOffset": 97480,
      "byteLength": 9144,
      "target": 34963
    }
  ],
  "accessors": [
    {
      "bufferView": 0,
      "componentType": 5126,
      "count": 2437,
      "type": "VEC3",
      "min": [
        -0.420654296875,
        0.01430511474609375,
        -0.0911865234375
      ],
      "max": [
        0.420654296875,
        0.3125,
        0.30908203125
      ]
    },
    {
      "bufferView": 1,
      "componentType": 5126,
      "count": 2437,
      "type": "VEC3",
      "min": [
        -0.5019607843137255,
        -0.5019607843137255,
        -0.5019607843137255
      ],
      "max": [
        1,
        0.4980392156862745,
        1
      ]
    },
    {
      "bufferView": 2,
      "componentType": 5126,
      "count": 2437,
      "type": "VEC2",
      "min": [
        0.1138916015625,
        0.30322265625
      ],
      "max": [
        0.31787109375,
        0.98828125
      ]
    },
    {
      "bufferView": 3,
      "componentType": 5126,
      "count": 2437,
      "type": "VEC2",
      "min": [
        0.10308837890625,
        0.252685546875
      ],
      "max": [
        0.94091796875,
        0.9208984375
      ]
    },
    {
      "bufferView": 4,
      "componentType": 5123,
      "count": 4572,
      "type": "SCALAR",
      "min": [
        0
      ],
      "max": [
        2436
      ]
    }
  ],
  "extras": {
    "manifest": "Feet_Low_XBee_01_Light.materials.json"
  }
}