{
  "asset": {
    "version": "2.0",
    "generator": "prefab-to-gltf"
  },
  "scene": 0,
  "scenes": [
    {
      "name": "Legs_Shin_XBee_01_Medium",
      "nodes": [
        0
      ]
    }
  ],
  "nodes": [
    {
      "name": "Legs_Shin_Z1RBeeA_Medium_N",
      "translation": [
        0,
        0,
        0
      ],
      "rotation": [
        0,
        0,
        0,
        1
      ],
      "scale": [
        1,
        1,
        1
      ],
      "mesh": 0,
      "children": [
        1
      ]
    },
    {
      "name": "Z1RBeeA_Medium",
      "translation": [
        0,
        0,
        0
      ],
      "rotation": [
        0.7071067690849304,
        0,
        0,
        0.7071067932881644
      ],
      "scale": [
        1,
        1,
        1
      ]
    }
  ],
  "meshes": [
    {
      "name": "Legs_Shin_Z1RBeeA_Medium_N",
      "primitives": [
        {
          "attributes": {
            "POSITION": 0,
            "NORMAL": 1,
            "TEXCOORD_0": 2,
            "TEXCOORD_1": 3
          },
          "indices": 4,
          "material": 0,
          "mode": 4
        }
      ]
    }
  ],
  "materials": [
    {
      "name": "GradMat_Body",
      "pbrMetallicRoughness": {
        "baseColorFactor": [
          1,
          1,
          1,
          1
        ],
        "metallicFactor": 0,
        "roughnessFactor": 1
      },
      "doubleSided": true,
      "extras": {
        "diffuseTexture": "Character/Common/Texture/CustomGradient_BasicGuy.png",
        "specularTexture": null,
        "normalMap": null
      }
    }
  ],
  "buffers": [
    {
      "uri": "Legs_Shin_XBee_01_Medium.bin",
      "byteLength": 144896
    }
  ],
  "bufferViews": [
    {
      "buffer": 0,
      "byteOffset": 0,
      "byteLength": 39264,
      "target": 34962
    },
    {
      "buffer": 0,
      "byteOffset": 39264,
      "byteLength": 39264,
      "target": 34962
    },
    {
      "buffer": 0,
      "byteOffset": 78528,
      "byteLength": 26176,
      "target": 34962
    },
    {
      "buffer": 0,
      "byteOffset": 104704,
      "byteLength": 26176,
      "target": 34962
    },
    {
      "buffer": 0,
      "byteOffset": 130880,
      "byteLength": 14016,
      "target": 34963
    }
  ],
  "accessors": [
    {
      "bufferView": 0,
      "componentType": 5126,
      "count": 3272,
      "type": "VEC3",
      "min": [
        -0.37109375,
        0.08514404296875,
        -0.09075927734375
      ],
      "max": [
        0.37109375,
        1.2763671875,
        0.2294921875
      ]
    },
    {
      "bufferView": 1,
      "componentType": 5126,
      "count": 3272,
      "type": "VEC3",
      "min": [
        -0.5019607843137255,
        -0.5019607843137255,
        -0.5019607843137255
      ],
      "max": [
        1,
        1,
        1
      ]
    },
    {
      "bufferView": 2,
      "componentType": 5126,
      "count": 3272,
      "type": "VEC2",
      "min": [
        0.0208892822265625,
        0.24560546875
      ],
      "max": [
        0.6083984375,
        0.943359375
      ]
    },
    {
      "bufferView": 3,
      "componentType": 5126,
      "count": 3272,
      "type": "VEC2",
      "min": [
        0,
        0.03265380859375
      ],
      "max": [
        0.93994140625,
        1
      ]
    },
    {
      "bufferView": 4,
      "componentType": 5123,
      "count": 7008,
      "type": "SCALAR",
      "min": [
        0
      ],
      "max": [
        3271
      ]
    }
  ],
  "extras": {
    "manifest": "Legs_Shin_XBee_01_Medium.materials.json"
  }
}