{
  "asset": {
    "version": "2.0",
    "generator": "prefab-to-gltf"
  },
  "scene": 0,
  "scenes": [
    {
      "name": "Legs_Shin_XBee_01_Light",
      "nodes": [
        0
      ]
    }
  ],
  "nodes": [
    {
      "name": "Legs_Shin_Z1RBeeA_Light_N",
      "translation": [
        0,
        0,
        0
      ],
      "rotation": [
        0,
        0,
        0,
        1
      ],
      "scale": [
        1,
        1,
        1
      ],
      "mesh": 0,
      "children": [
        1
      ]
    },
    {
      "name": "Z1RBeeA_Light",
      "translation": [
        0,
        0,
        0
      ],
      "rotation": [
        0.7071067690849304,
        0,
        0,
        0.7071067932881644
      ],
      "scale": [
        1,
        1,
        1
      ]
    }
  ],
  "meshes": [
    {
      "name": "Legs_Shin_Z1RBeeA_Light_N",
      "primitives": [
        {
          "attributes": {
            "POSITION": 0,
            "NORMAL": 1,
            "TEXCOORD_0": 2,
            "TEXCOORD_1": 3
          },
          "indices": 4,
          "material": 0,
          "mode": 4
        }
      ]
    }
  ],
  "materials": [
    {
      "name": "GradMat_Body",
      "pbrMetallicRoughness": {
        "baseColorFactor": [
          1,
          1,
          1,
          1
        ],
        "metallicFactor": 0,
        "roughnessFactor": 1
      },
      "doubleSided": true,
      "extras": {
        "diffuseTexture": "Character/Common/Texture/CustomGradient_BasicGuy.png",
        "specularTexture": null,
        "normalMap": null
      }
    }
  ],
  "buffers": [
    {
      "uri": "Legs_Shin_XBee_01_Light.bin",
      "byteLength": 93828
    }
  ],
  "bufferViews": [
    {
      "buffer": 0,
      "byteOffset": 0,
      "byteLength": 25452,
      "target": 34962
    },
    {
      "buffer": 0,
      "byteOffset": 25452,
      "byteLength": 25452,
      "target": 34962
    },
    {
      "buffer": 0,
      "byteOffset": 50904,
      "byteLength": 16968,
      "target": 34962
    },
    {
      "buffer": 0,
      "byteOffset": 67872,
      "byteLength": 16968,
      "target": 34962
    },
    {
      "buffer": 0,
      "byteOffset": 84840,
      "byteLength": 8988,
      "target": 34963
    }
  ],
  "accessors": [
    {
      "bufferView": 0,
      "componentType": 5126,
      "count": 2121,
      "type": "VEC3",
      "min": [
        -0.37109375,
        0.08514404296875,
        -0.09075927734375
      ],
      "max": [
        0.37109375,
        1.2763671875,
        0.2310791015625
      ]
    },
    {
      "bufferView": 1,
      "componentType": 5126,
      "count": 2121,
      "type": "VEC3",
      "min": [
        -0.5019607843137255,
        -0.5019607843137255,
        -0.5019607843137255
      ],
      "max": [
        1,
        1,
        1
      ]
    },
    {
      "bufferView": 2,
      "componentType": 5126,
      "count": 2121,
      "type": "VEC2",
      "min": [
        0.0263519287109375,
        0.214599609375
      ],
      "max": [
        0.38134765625,
        0.873046875
      ]
    },
    {
      "bufferView": 3,
      "componentType": 5126,
      "count": 2121,
      "type": "VEC2",
      "min": [
        0.10003662109375,
        0.1162109375
      ],
      "max": [
        0.94384765625,
        0.9462890625
      ]
    },
    {
      "bufferView": 4,
      "componentType": 5123,
      "count": 4494,
      "type": "SCALAR",
      "min": [
        0
      ],
      "max": [
        2120
      ]
    }
  ],
  "extras": {
    "manifest": "Legs_Shin_XBee_01_Light.materials.json"
  }
}