{
  "asset": {
    "version": "2.0",
    "generator": "prefab-to-gltf"
  },
  "scene": 0,
  "scenes": [
    {
      "name": "Waist_Medium_XBee_01_Heavy",
      "nodes": [
        0
      ]
    }
  ],
  "nodes": [
    {
      "name": "Waist_Medium_Z1RBeeA_Heavy_N",
      "translation": [
        0,
        0,
        0
      ],
      "rotation": [
        0,
        0,
        0,
        1
      ],
      "scale": [
        1,
        1,
        1
      ],
      "mesh": 0,
      "children": [
        1
      ]
    },
    {
      "name": "Z1RBeeA_Heavy",
      "translation": [
        0,
        0,
        0
      ],
      "rotation": [
        0.7071067690849304,
        0,
        0,
        0.7071067932881644
      ],
      "scale": [
        1,
        1,
        1
      ]
    }
  ],
  "meshes": [
    {
      "name": "Waist_Medium_Z1RBeeA_Heavy_N",
      "primitives": [
        {
          "attributes": {
            "POSITION": 0,
            "NORMAL": 1,
            "TEXCOORD_0": 2,
            "TEXCOORD_1": 3
          },
          "indices": 4,
          "material": 0,
          "mode": 4
        }
      ]
    }
  ],
  "materials": [
    {
      "name": "GradMat_Body",
      "pbrMetallicRoughness": {
        "baseColorFactor": [
          1,
          1,
          1,
          1
        ],
        "metallicFactor": 0,
        "roughnessFactor": 1
      },
      "doubleSided": true,
      "extras": {
        "diffuseTexture": "Character/Common/Texture/CustomGradient_BasicGuy.png",
        "specularTexture": null,
        "normalMap": null
      }
    }
  ],
  "buffers": [
    {
      "uri": "Waist_Medium_XBee_01_Heavy.bin",
      "byteLength": 35376
    }
  ],
  "bufferViews": [
    {
      "buffer": 0,
      "byteOffset": 0,
      "byteLength": 9648,
      "target": 34962
    },
    {
      "buffer": 0,
      "byteOffset": 9648,
      "byteLength": 9648,
      "target": 34962
    },
    {
      "buffer": 0,
      "byteOffset": 19296,
      "byteLength": 6432,
      "target": 34962
    },
    {
      "buffer": 0,
      "byteOffset": 25728,
      "byteLength": 6432,
      "target": 34962
    },
    {
      "buffer": 0,
      "byteOffset": 32160,
      "byteLength": 3216,
      "target": 34963
    }
  ],
  "accessors": [
    {
      "bufferView": 0,
      "componentType": 5126,
      "count": 804,
      "type": "VEC3",
      "min": [
        -0.2200927734375,
        1.1767578125,
        -0.0714111328125
      ],
      "max": [
        0.2200927734375,
        1.302734375,
        0.275146484375
      ]
    },
    {
      "bufferView": 1,
      "componentType": 5126,
      "count": 804,
      "type": "VEC3",
      "min": [
        -0.4980392156862745,
        -0.5019607843137255,
        -0.5019607843137255
      ],
      "max": [
        1,
        1,
        0.4980392156862745
      ]
    },
    {
      "bufferView": 2,
      "componentType": 5126,
      "count": 804,
      "type": "VEC2",
      "min": [
        0.12225341796875,
        0.466796875
      ],
      "max": [
        0.285888671875,
        0.90673828125
      ]
    },
    {
      "bufferView": 3,
      "componentType": 5126,
      "count": 804,
      "type": "VEC2",
      "min": [
        0,
        0.248046875
      ],
      "max": [
        0.94287109375,
        1
      ]
    },
    {
      "bufferView": 4,
      "componentType": 5123,
      "count": 1608,
      "type": "SCALAR",
      "min": [
        0
      ],
      "max": [
        803
      ]
    }
  ],
  "extras": {
    "manifest": "Waist_Medium_XBee_01_Heavy.materials.json"
  }
}