{
  "asset": {
    "version": "2.0",
    "generator": "prefab-to-gltf"
  },
  "scene": 0,
  "scenes": [
    {
      "name": "Back_Long_XBee_02_Medium",
      "nodes": [
        0
      ]
    }
  ],
  "nodes": [
    {
      "name": "Back_Long_Z1RBee_Medium_N",
      "translation": [
        0,
        0,
        0
      ],
      "rotation": [
        0,
        0,
        0,
        1
      ],
      "scale": [
        1,
        1,
        1
      ],
      "mesh": 0,
      "children": [
        1
      ]
    },
    {
      "name": "Z1RBeeA_Medium",
      "translation": [
        0,
        0,
        0
      ],
      "rotation": [
        0.7071067690849304,
        0,
        0,
        0.7071067932881644
      ],
      "scale": [
        1,
        1,
        1
      ]
    }
  ],
  "meshes": [
    {
      "name": "Back_Long_Z1RBee_Medium_N",
      "primitives": [
        {
          "attributes": {
            "POSITION": 0,
            "NORMAL": 1,
            "TEXCOORD_0": 2,
            "TEXCOORD_1": 3
          },
          "indices": 4,
          "material": 0,
          "mode": 4
        }
      ]
    }
  ],
  "materials": [
    {
      "name": "GradMat_Body",
      "pbrMetallicRoughness": {
        "baseColorFactor": [
          1,
          1,
          1,
          1
        ],
        "metallicFactor": 0,
        "roughnessFactor": 1
      },
      "doubleSided": true,
      "extras": {
        "diffuseTexture": "Character/Common/Texture/CustomGradient_RobinHoof.png",
        "specularTexture": null,
        "normalMap": null
      }
    }
  ],
  "buffers": [
    {
      "uri": "Back_Long_XBee_02_Medium.bin",
      "byteLength": 118756
    }
  ],
  "bufferViews": [
    {
      "buffer": 0,
      "byteOffset": 0,
      "byteLength": 31584,
      "target": 34962
    },
    {
      "buffer": 0,
      "byteOffset": 31584,
      "byteLength": 31584,
      "target": 34962
    },
    {
      "buffer": 0,
      "byteOffset": 63168,
      "byteLength": 21056,
      "target": 34962
    },
    {
      "buffer": 0,
      "byteOffset": 84224,
      "byteLength": 21056,
      "target": 34962
    },
    {
      "buffer": 0,
      "byteOffset": 105280,
      "byteLength": 13476,
      "target": 34963
    }
  ],
  "accessors": [
    {
      "bufferView": 0,
      "componentType": 5126,
      "count": 2632,
      "type": "VEC3",
      "min": [
        -0.368408203125,
        0.591796875,
        -0.316162109375
      ],
      "max": [
        0.368408203125,
        1.7763671875,
        -0.0217437744140625
      ]
    },
    {
      "bufferView": 1,
      "componentType": 5126,
      "count": 2632,
      "type": "VEC3",
      "min": [
        -0.5019607843137255,
        -0.47843137254901963,
        -0.5019607843137255
      ],
      "max": [
        1,
        1,
        1
      ]
    },
    {
      "bufferView": 2,
      "componentType": 5126,
      "count": 2632,
      "type": "VEC2",
      "min": [
        0.11468505859375,
        0.341064453125
      ],
      "max": [
        0.72509765625,
        0.82177734375
      ]
    },
    {
      "bufferView": 3,
      "componentType": 5126,
      "count": 2632,
      "type": "VEC2",
      "min": [
        0,
        0.03265380859375
      ],
      "max": [
        0.9423828125,
        1
      ]
    },
    {
      "bufferView": 4,
      "componentType": 5123,
      "count": 6738,
      "type": "SCALAR",
      "min": [
        0
      ],
      "max": [
        2631
      ]
    }
  ],
  "extras": {
    "manifest": "Back_Long_XBee_02_Medium.materials.json"
  }
}