{
  "asset": {
    "version": "2.0",
    "generator": "prefab-to-gltf"
  },
  "scene": 0,
  "scenes": [
    {
      "name": "Chest_LongSleeves_XBee_02_Heavy",
      "nodes": [
        0
      ]
    }
  ],
  "nodes": [
    {
      "name": "Chest_LongSleeves_Z1RBeeA_Heavy_N",
      "translation": [
        0,
        0,
        0
      ],
      "rotation": [
        0,
        0,
        0,
        1
      ],
      "scale": [
        1,
        1,
        1
      ],
      "mesh": 0,
      "children": [
        1
      ]
    },
    {
      "name": "Z1RBeeA_Heavy",
      "translation": [
        0,
        0,
        0
      ],
      "rotation": [
        0.7071067690849304,
        0,
        0,
        0.7071067932881644
      ],
      "scale": [
        1,
        1,
        1
      ]
    }
  ],
  "meshes": [
    {
      "name": "Chest_LongSleeves_Z1RBeeA_Heavy_N",
      "primitives": [
        {
          "attributes": {
            "POSITION": 0,
            "NORMAL": 1,
            "TEXCOORD_0": 2,
            "TEXCOORD_1": 3,
            "COLOR_0": 4
          },
          "indices": 5,
          "material": 0,
          "mode": 4
        }
      ]
    }
  ],
  "materials": [
    {
      "name": "GradMat_Body",
      "pbrMetallicRoughness": {
        "baseColorFactor": [
          1,
          1,
          1,
          1
        ],
        "metallicFactor": 0,
        "roughnessFactor": 1
      },
      "doubleSided": true,
      "extras": {
        "diffuseTexture": "Character/Common/Texture/CustomGradient_BasicGuy.png",
        "specularTexture": null,
        "normalMap": null
      }
    }
  ],
  "buffers": [
    {
      "uri": "Chest_LongSleeves_XBee_02_Heavy.bin",
      "byteLength": 263848
    }
  ],
  "bufferViews": [
    {
      "buffer": 0,
      "byteOffset": 0,
      "byteLength": 55812,
      "target": 34962
    },
    {
      "buffer": 0,
      "byteOffset": 55812,
      "byteLength": 55812,
      "target": 34962
    },
    {
      "buffer": 0,
      "byteOffset": 111624,
      "byteLength": 37208,
      "target": 34962
    },
    {
      "buffer": 0,
      "byteOffset": 148832,
      "byteLength": 37208,
      "target": 34962
    },
    {
      "buffer": 0,
      "byteOffset": 186040,
      "byteLength": 55812,
      "target": 34962
    },
    {
      "buffer": 0,
      "byteOffset": 241852,
      "byteLength": 21996,
      "target": 34963
    }
  ],
  "accessors": [
    {
      "bufferView": 0,
      "componentType": 5126,
      "count": 4651,
      "type": "VEC3",
      "min": [
        -0.66943359375,
        1.041015625,
        -0.10894775390625
      ],
      "max": [
        0.66943359375,
        1.9326171875,
        0.265869140625
      ]
    },
    {
      "bufferView": 1,
      "componentType": 5126,
      "count": 4651,
      "type": "VEC3",
      "min": [
        -0.5019607843137255,
        -0.5019607843137255,
        -0.5019607843137255
      ],
      "max": [
        1,
        1,
        1
      ]
    },
    {
      "bufferView": 2,
      "componentType": 5126,
      "count": 4651,
      "type": "VEC2",
      "min": [
        0.017578125,
        0.202880859375
      ],
      "max": [
        0.80517578125,
        0.97802734375
      ]
    },
    {
      "bufferView": 3,
      "componentType": 5126,
      "count": 4651,
      "type": "VEC2",
      "min": [
        0,
        0.1148681640625
      ],
      "max": [
        0.96875,
        1
      ]
    },
    {
      "bufferView": 4,
      "componentType": 5126,
      "count": 3488.25,
      "type": "VEC4",
      "min": [
        0.3607843220233917,
        0.3607843220233917,
        0.3607843220233917,
        0.3607843220233917
      ],
      "max": [
        1,
        1,
        1,
        1
      ]
    },
    {
      "bufferView": 5,
      "componentType": 5123,
      "count": 10998,
      "type": "SCALAR",
      "min": [
        0
      ],
      "max": [
        4650
      ]
    }
  ],
  "extras": {
    "manifest": "Chest_LongSleeves_XBee_02_Heavy.materials.json"
  }
}