{
  "asset": {
    "version": "2.0",
    "generator": "prefab-to-gltf"
  },
  "scene": 0,
  "scenes": [
    {
      "name": "Waist_Fancy_XBee_02_Light",
      "nodes": [
        0
      ]
    }
  ],
  "nodes": [
    {
      "name": "Waist_Fancy_Z1RBeeA_Light_N",
      "translation": [
        0,
        0,
        0
      ],
      "rotation": [
        0,
        0,
        0,
        1
      ],
      "scale": [
        1,
        1,
        1
      ],
      "mesh": 0,
      "children": [
        1
      ]
    },
    {
      "name": "Z1RBeeA_Light",
      "translation": [
        0,
        0,
        0
      ],
      "rotation": [
        0.7071067690849304,
        0,
        0,
        0.7071067932881644
      ],
      "scale": [
        1,
        1,
        1
      ]
    }
  ],
  "meshes": [
    {
      "name": "Waist_Fancy_Z1RBeeA_Light_N",
      "primitives": [
        {
          "attributes": {
            "POSITION": 0,
            "NORMAL": 1,
            "TEXCOORD_0": 2,
            "TEXCOORD_1": 3
          },
          "indices": 4,
          "material": 0,
          "mode": 4
        }
      ]
    }
  ],
  "materials": [
    {
      "name": "GradMat_Body",
      "pbrMetallicRoughness": {
        "baseColorFactor": [
          1,
          1,
          1,
          1
        ],
        "metallicFactor": 0,
        "roughnessFactor": 1
      },
      "doubleSided": true,
      "extras": {
        "diffuseTexture": "Character/Common/Texture/CustomGradient_BasicGuy.png",
        "specularTexture": null,
        "normalMap": null
      }
    }
  ],
  "buffers": [
    {
      "uri": "Waist_Fancy_XBee_02_Light.bin",
      "byteLength": 143104
    }
  ],
  "bufferViews": [
    {
      "buffer": 0,
      "byteOffset": 0,
      "byteLength": 38460,
      "target": 34962
    },
    {
      "buffer": 0,
      "byteOffset": 38460,
      "byteLength": 38460,
      "target": 34962
    },
    {
      "buffer": 0,
      "byteOffset": 76920,
      "byteLength": 25640,
      "target": 34962
    },
    {
      "buffer": 0,
      "byteOffset": 102560,
      "byteLength": 25640,
      "target": 34962
    },
    {
      "buffer": 0,
      "byteOffset": 128200,
      "byteLength": 14904,
      "target": 34963
    }
  ],
  "accessors": [
    {
      "bufferView": 0,
      "componentType": 5126,
      "count": 3205,
      "type": "VEC3",
      "min": [
        -0.365234375,
        0.95556640625,
        -0.1978759765625
      ],
      "max": [
        0.365234375,
        1.310546875,
        0.30712890625
      ]
    },
    {
      "bufferView": 1,
      "componentType": 5126,
      "count": 3205,
      "type": "VEC3",
      "min": [
        -0.5019607843137255,
        -0.5019607843137255,
        -0.5019607843137255
      ],
      "max": [
        1,
        1,
        1
      ]
    },
    {
      "bufferView": 2,
      "componentType": 5126,
      "count": 3205,
      "type": "VEC2",
      "min": [
        0.09564208984375,
        0.402587890625
      ],
      "max": [
        0.38818359375,
        0.9765625
      ]
    },
    {
      "bufferView": 3,
      "componentType": 5126,
      "count": 3205,
      "type": "VEC2",
      "min": [
        0,
        0.1429443359375
      ],
      "max": [
        0.9970703125,
        1
      ]
    },
    {
      "bufferView": 4,
      "componentType": 5123,
      "count": 7452,
      "type": "SCALAR",
      "min": [
        0
      ],
      "max": [
        3204
      ]
    }
  ],
  "extras": {
    "manifest": "Waist_Fancy_XBee_02_Light.materials.json"
  }
}