{
  "asset": {
    "version": "2.0",
    "generator": "prefab-to-gltf"
  },
  "scene": 0,
  "scenes": [
    {
      "name": "Glider_Racoon_Grey",
      "nodes": [
        0
      ]
    }
  ],
  "nodes": [
    {
      "name": "Glider_Racoon_01",
      "translation": [
        0,
        0,
        0
      ],
      "rotation": [
        0,
        0,
        0,
        1
      ],
      "scale": [
        1,
        1,
        1
      ],
      "mesh": 0
    }
  ],
  "meshes": [
    {
      "name": "Glider_Racoon_01",
      "primitives": [
        {
          "attributes": {
            "POSITION": 0,
            "NORMAL": 1,
            "TEXCOORD_0": 2,
            "TEXCOORD_1": 3,
            "COLOR_0": 4
          },
          "indices": 5,
          "material": 0,
          "mode": 4
        }
      ]
    }
  ],
  "materials": [
    {
      "name": "Gradmat_Owl",
      "pbrMetallicRoughness": {
        "baseColorFactor": [
          1,
          1,
          1,
          1
        ],
        "metallicFactor": 0,
        "roughnessFactor": 1
      },
      "doubleSided": true,
      "extras": {
        "diffuseTexture": "Character/Common/Texture/CustomGradient_BasicGuy.png",
        "specularTexture": null,
        "normalMap": null
      }
    }
  ],
  "buffers": [
    {
      "uri": "Glider_Racoon_Grey.bin",
      "byteLength": 495760
    }
  ],
  "bufferViews": [
    {
      "buffer": 0,
      "byteOffset": 0,
      "byteLength": 99876,
      "target": 34962
    },
    {
      "buffer": 0,
      "byteOffset": 99876,
      "byteLength": 99876,
      "target": 34962
    },
    {
      "buffer": 0,
      "byteOffset": 199752,
      "byteLength": 66584,
      "target": 34962
    },
    {
      "buffer": 0,
      "byteOffset": 266336,
      "byteLength": 66584,
      "target": 34962
    },
    {
      "buffer": 0,
      "byteOffset": 332920,
      "byteLength": 99876,
      "target": 34962
    },
    {
      "buffer": 0,
      "byteOffset": 432796,
      "byteLength": 62964,
      "target": 34963
    }
  ],
  "accessors": [
    {
      "bufferView": 0,
      "componentType": 5126,
      "count": 8323,
      "type": "VEC3",
      "min": [
        -1.546132206916809,
        0.2000633031129837,
        -2.353303909301758
      ],
      "max": [
        1.546132206916809,
        1.1059330701828003,
        1.1789144277572632
      ]
    },
    {
      "bufferView": 1,
      "componentType": 5126,
      "count": 8323,
      "type": "VEC3",
      "min": [
        -0.9998348355293274,
        -0.9999749064445496,
        -0.998749315738678
      ],
      "max": [
        0.9999622702598572,
        1,
        0.9998923540115356
      ]
    },
    {
      "bufferView": 2,
      "componentType": 5126,
      "count": 8323,
      "type": "VEC2",
      "min": [
        0.09462572634220123,
        0.037805795669555664
      ],
      "max": [
        0.8675045967102051,
        0.99562007188797
      ]
    },
    {
      "bufferView": 3,
      "componentType": 5126,
      "count": 8323,
      "type": "VEC2",
      "min": [
        0,
        0.13347458839416504
      ],
      "max": [
        0.9442553520202637,
        1
      ]
    },
    {
      "bufferView": 4,
      "componentType": 5126,
      "count": 6242.25,
      "type": "VEC4",
      "min": [
        0,
        0,
        0,
        0
      ],
      "max": [
        1,
        1,
        1,
        1
      ]
    },
    {
      "bufferView": 5,
      "componentType": 5123,
      "count": 31482,
      "type": "SCALAR",
      "min": [
        0
      ],
      "max": [
        8322
      ]
    }
  ],
  "extras": {
    "manifest": "Glider_Racoon_Grey.materials.json"
  }
}