{
  "asset": {
    "version": "2.0",
    "generator": "prefab-to-gltf"
  },
  "scene": 0,
  "scenes": [
    {
      "name": "ProfessionTrainer",
      "nodes": [
        0
      ]
    }
  ],
  "nodes": [
    {
      "name": "ProfessionTrainer",
      "translation": [
        0,
        0,
        0
      ],
      "rotation": [
        0,
        0,
        0,
        1
      ],
      "scale": [
        1,
        1,
        1
      ],
      "mesh": 0
    }
  ],
  "meshes": [
    {
      "name": "ProfessionTrainer",
      "primitives": [
        {
          "attributes": {
            "POSITION": 0,
            "NORMAL": 1,
            "TEXCOORD_0": 2,
            "TEXCOORD_1": 3,
            "COLOR_0": 4
          },
          "indices": 5,
          "material": 0,
          "mode": 4
        }
      ]
    }
  ],
  "materials": [
    {
      "name": "GradMat_Body",
      "pbrMetallicRoughness": {
        "baseColorFactor": [
          1,
          1,
          1,
          1
        ],
        "metallicFactor": 0,
        "roughnessFactor": 1
      },
      "doubleSided": true,
      "extras": {
        "diffuseTexture": "Character/Common/Texture/CustomGradient_Guard.png",
        "specularTexture": null,
        "normalMap": null
      }
    }
  ],
  "buffers": [
    {
      "uri": "ProfessionTrainer.bin",
      "byteLength": 1481694
    }
  ],
  "bufferViews": [
    {
      "buffer": 0,
      "byteOffset": 0,
      "byteLength": 301212,
      "target": 34962
    },
    {
      "buffer": 0,
      "byteOffset": 301212,
      "byteLength": 301212,
      "target": 34962
    },
    {
      "buffer": 0,
      "byteOffset": 602424,
      "byteLength": 200808,
      "target": 34962
    },
    {
      "buffer": 0,
      "byteOffset": 803232,
      "byteLength": 200808,
      "target": 34962
    },
    {
      "buffer": 0,
      "byteOffset": 1004040,
      "byteLength": 301212,
      "target": 34962
    },
    {
      "buffer": 0,
      "byteOffset": 1305252,
      "byteLength": 176442,
      "target": 34963
    }
  ],
  "accessors": [
    {
      "bufferView": 0,
      "componentType": 5126,
      "count": 25101,
      "type": "VEC3",
      "min": [
        -0.8130348324775696,
        -0.003792350646108389,
        -0.2633597254753113
      ],
      "max": [
        0.8130348920822144,
        2.5775177478790283,
        0.39186200499534607
      ]
    },
    {
      "bufferView": 1,
      "componentType": 5126,
      "count": 25101,
      "type": "VEC3",
      "min": [
        -0.9999785423278809,
        -0.9999891519546509,
        -0.9999438524246216
      ],
      "max": [
        1,
        0.999991238117218,
        1
      ]
    },
    {
      "bufferView": 2,
      "componentType": 5126,
      "count": 25101,
      "type": "VEC2",
      "min": [
        0.02045140229165554,
        0.16987180709838867
      ],
      "max": [
        0.9833254218101501,
        1.0002330541610718
      ]
    },
    {
      "bufferView": 3,
      "componentType": 5126,
      "count": 25101,
      "type": "VEC2",
      "min": [
        -0.07702428102493286,
        0.02214103937149048
      ],
      "max": [
        0.9917473793029785,
        1.00118887424469
      ]
    },
    {
      "bufferView": 4,
      "componentType": 5126,
      "count": 18825.75,
      "type": "VEC4",
      "min": [
        0,
        0,
        0,
        0
      ],
      "max": [
        1,
        1,
        1,
        1
      ]
    },
    {
      "bufferView": 5,
      "componentType": 5123,
      "count": 88221,
      "type": "SCALAR",
      "min": [
        0
      ],
      "max": [
        25100
      ]
    }
  ],
  "extras": {
    "manifest": "ProfessionTrainer.materials.json"
  }
}