{
  "asset": {
    "version": "2.0",
    "generator": "prefab-to-gltf"
  },
  "scene": 0,
  "scenes": [
    {
      "name": "Chest_LongSleeves_Z1U2_WizCle",
      "nodes": [
        0
      ]
    }
  ],
  "nodes": [
    {
      "name": "Chest_Z1U_Light_N",
      "translation": [
        0,
        0,
        0
      ],
      "rotation": [
        0,
        0,
        0,
        1
      ],
      "scale": [
        1,
        1,
        1
      ],
      "mesh": 0
    }
  ],
  "meshes": [
    {
      "name": "Chest_Z1U_Light_N",
      "primitives": [
        {
          "attributes": {
            "POSITION": 0,
            "NORMAL": 1,
            "TEXCOORD_0": 2,
            "TEXCOORD_1": 3,
            "COLOR_0": 4
          },
          "indices": 5,
          "material": 0,
          "mode": 4
        }
      ]
    }
  ],
  "materials": [
    {
      "name": "GradMat_Body",
      "pbrMetallicRoughness": {
        "baseColorFactor": [
          1,
          1,
          1,
          1
        ],
        "metallicFactor": 0,
        "roughnessFactor": 1
      },
      "doubleSided": true,
      "extras": {
        "diffuseTexture": "Character/Common/Texture/CustomGradient_RobinHoof.png",
        "specularTexture": null,
        "normalMap": null
      }
    }
  ],
  "buffers": [
    {
      "uri": "Chest_LongSleeves_Z1U2_WizCle.bin",
      "byteLength": 325816
    }
  ],
  "bufferViews": [
    {
      "buffer": 0,
      "byteOffset": 0,
      "byteLength": 68124,
      "target": 34962
    },
    {
      "buffer": 0,
      "byteOffset": 68124,
      "byteLength": 68124,
      "target": 34962
    },
    {
      "buffer": 0,
      "byteOffset": 136248,
      "byteLength": 45416,
      "target": 34962
    },
    {
      "buffer": 0,
      "byteOffset": 181664,
      "byteLength": 45416,
      "target": 34962
    },
    {
      "buffer": 0,
      "byteOffset": 227080,
      "byteLength": 68124,
      "target": 34962
    },
    {
      "buffer": 0,
      "byteOffset": 295204,
      "byteLength": 30612,
      "target": 34963
    }
  ],
  "accessors": [
    {
      "bufferView": 0,
      "componentType": 5126,
      "count": 5677,
      "type": "VEC3",
      "min": [
        -0.66943359375,
        0.08514404296875,
        -0.275146484375
      ],
      "max": [
        0.66943359375,
        1.9326171875,
        0.37890625
      ]
    },
    {
      "bufferView": 1,
      "componentType": 5126,
      "count": 5677,
      "type": "VEC3",
      "min": [
        -0.5019607843137255,
        -0.5019607843137255,
        -0.5019607843137255
      ],
      "max": [
        1,
        1,
        1
      ]
    },
    {
      "bufferView": 2,
      "componentType": 5126,
      "count": 5677,
      "type": "VEC2",
      "min": [
        0.01934814453125,
        0.214599609375
      ],
      "max": [
        0.80224609375,
        0.94287109375
      ]
    },
    {
      "bufferView": 3,
      "componentType": 5126,
      "count": 5677,
      "type": "VEC2",
      "min": [
        0,
        0.11016845703125
      ],
      "max": [
        0.48876953125,
        1
      ]
    },
    {
      "bufferView": 4,
      "componentType": 5126,
      "count": 4257.75,
      "type": "VEC4",
      "min": [
        0,
        0,
        0,
        0
      ],
      "max": [
        1,
        1,
        1,
        1
      ]
    },
    {
      "bufferView": 5,
      "componentType": 5123,
      "count": 15306,
      "type": "SCALAR",
      "min": [
        0
      ],
      "max": [
        5676
      ]
    }
  ],
  "extras": {
    "manifest": "Chest_LongSleeves_Z1U2_WizCle.materials.json"
  }
}