{
  "asset": {
    "version": "2.0",
    "generator": "prefab-to-gltf"
  },
  "scene": 0,
  "scenes": [
    {
      "name": "Hands_Tip_Z1U1_WizCle",
      "nodes": [
        0
      ]
    }
  ],
  "nodes": [
    {
      "name": "Hands_R1S1_Cle_N",
      "translation": [
        0,
        0,
        0
      ],
      "rotation": [
        0,
        0,
        0,
        1
      ],
      "scale": [
        1,
        1,
        1
      ],
      "mesh": 0
    }
  ],
  "meshes": [
    {
      "name": "Hands_R1S1_Cle_N",
      "primitives": [
        {
          "attributes": {
            "POSITION": 0,
            "NORMAL": 1,
            "TEXCOORD_0": 2,
            "TEXCOORD_1": 3
          },
          "indices": 4,
          "material": 0,
          "mode": 4
        }
      ]
    }
  ],
  "materials": [
    {
      "name": "GradMat_Body",
      "pbrMetallicRoughness": {
        "baseColorFactor": [
          1,
          1,
          1,
          1
        ],
        "metallicFactor": 0,
        "roughnessFactor": 1
      },
      "doubleSided": true,
      "extras": {
        "diffuseTexture": "Character/Common/Texture/CustomGradient_BasicGuy.png",
        "specularTexture": null,
        "normalMap": null
      }
    }
  ],
  "buffers": [
    {
      "uri": "Hands_Tip_Z1U1_WizCle.bin",
      "byteLength": 130712
    }
  ],
  "bufferViews": [
    {
      "buffer": 0,
      "byteOffset": 0,
      "byteLength": 34440,
      "target": 34962
    },
    {
      "buffer": 0,
      "byteOffset": 34440,
      "byteLength": 34440,
      "target": 34962
    },
    {
      "buffer": 0,
      "byteOffset": 68880,
      "byteLength": 22960,
      "target": 34962
    },
    {
      "buffer": 0,
      "byteOffset": 91840,
      "byteLength": 22960,
      "target": 34962
    },
    {
      "buffer": 0,
      "byteOffset": 114800,
      "byteLength": 15912,
      "target": 34963
    }
  ],
  "accessors": [
    {
      "bufferView": 0,
      "componentType": 5126,
      "count": 2870,
      "type": "VEC3",
      "min": [
        -0.81103515625,
        0.9814453125,
        0.0997314453125
      ],
      "max": [
        0.81103515625,
        1.2412109375,
        0.337646484375
      ]
    },
    {
      "bufferView": 1,
      "componentType": 5126,
      "count": 2870,
      "type": "VEC3",
      "min": [
        -0.5019607843137255,
        -0.5019607843137255,
        -0.4980392156862745
      ],
      "max": [
        1,
        1,
        1
      ]
    },
    {
      "bufferView": 2,
      "componentType": 5126,
      "count": 2870,
      "type": "VEC2",
      "min": [
        0.046142578125,
        0.2479248046875
      ],
      "max": [
        0.355224609375,
        0.734375
      ]
    },
    {
      "bufferView": 3,
      "componentType": 5126,
      "count": 2870,
      "type": "VEC2",
      "min": [
        0.056640625,
        0.11126708984375
      ],
      "max": [
        0.94775390625,
        0.9541015625
      ]
    },
    {
      "bufferView": 4,
      "componentType": 5123,
      "count": 7956,
      "type": "SCALAR",
      "min": [
        0
      ],
      "max": [
        2869
      ]
    }
  ],
  "extras": {
    "manifest": "Hands_Tip_Z1U1_WizCle.materials.json"
  }
}