{
  "asset": {
    "version": "2.0",
    "generator": "prefab-to-gltf"
  },
  "scene": 0,
  "scenes": [
    {
      "name": "Hands_Forearm_Z3U2_FigCle",
      "nodes": [
        0
      ]
    }
  ],
  "nodes": [
    {
      "name": "Hands_R1S1_FigAss_N",
      "translation": [
        0,
        0,
        0
      ],
      "rotation": [
        0,
        0,
        0,
        1
      ],
      "scale": [
        1,
        1,
        1
      ],
      "mesh": 0
    }
  ],
  "meshes": [
    {
      "name": "Hands_R1S1_FigAss_N",
      "primitives": [
        {
          "attributes": {
            "POSITION": 0,
            "NORMAL": 1,
            "TEXCOORD_0": 2,
            "TEXCOORD_1": 3
          },
          "indices": 4,
          "material": 0,
          "mode": 4
        }
      ]
    }
  ],
  "materials": [
    {
      "name": "GradMat_Body",
      "pbrMetallicRoughness": {
        "baseColorFactor": [
          1,
          1,
          1,
          1
        ],
        "metallicFactor": 0,
        "roughnessFactor": 1
      },
      "doubleSided": true,
      "extras": {
        "diffuseTexture": "Character/Common/Texture/CustomGradient_BasicGuy.png",
        "specularTexture": null,
        "normalMap": null
      }
    }
  ],
  "buffers": [
    {
      "uri": "Hands_Forearm_Z3U2_FigCle.bin",
      "byteLength": 191288
    }
  ],
  "bufferViews": [
    {
      "buffer": 0,
      "byteOffset": 0,
      "byteLength": 49956,
      "target": 34962
    },
    {
      "buffer": 0,
      "byteOffset": 49956,
      "byteLength": 49956,
      "target": 34962
    },
    {
      "buffer": 0,
      "byteOffset": 99912,
      "byteLength": 33304,
      "target": 34962
    },
    {
      "buffer": 0,
      "byteOffset": 133216,
      "byteLength": 33304,
      "target": 34962
    },
    {
      "buffer": 0,
      "byteOffset": 166520,
      "byteLength": 24768,
      "target": 34963
    }
  ],
  "accessors": [
    {
      "bufferView": 0,
      "componentType": 5126,
      "count": 4163,
      "type": "VEC3",
      "min": [
        -0.81201171875,
        0.9814453125,
        -0.0439453125
      ],
      "max": [
        0.81201171875,
        1.4765625,
        0.337646484375
      ]
    },
    {
      "bufferView": 1,
      "componentType": 5126,
      "count": 4163,
      "type": "VEC3",
      "min": [
        -0.5019607843137255,
        -0.5019607843137255,
        -0.5019607843137255
      ],
      "max": [
        1,
        1,
        1
      ]
    },
    {
      "bufferView": 2,
      "componentType": 5126,
      "count": 4163,
      "type": "VEC2",
      "min": [
        0.0190582275390625,
        0.1739501953125
      ],
      "max": [
        0.96630859375,
        0.94580078125
      ]
    },
    {
      "bufferView": 3,
      "componentType": 5126,
      "count": 4163,
      "type": "VEC2",
      "min": [
        0.0290679931640625,
        0.1058349609375
      ],
      "max": [
        0.9462890625,
        1.0009765625
      ]
    },
    {
      "bufferView": 4,
      "componentType": 5123,
      "count": 12384,
      "type": "SCALAR",
      "min": [
        0
      ],
      "max": [
        4162
      ]
    }
  ],
  "extras": {
    "manifest": "Hands_Forearm_Z3U2_FigCle.materials.json"
  }
}