{
  "asset": {
    "version": "2.0",
    "generator": "prefab-to-gltf"
  },
  "scene": 0,
  "scenes": [
    {
      "name": "Back_Short_Z2U2_Ass",
      "nodes": [
        0
      ]
    }
  ],
  "nodes": [
    {
      "name": "Back_R1S1_AssCle_N",
      "translation": [
        0,
        0,
        0
      ],
      "rotation": [
        0,
        0,
        0,
        1
      ],
      "scale": [
        1,
        1,
        1
      ],
      "mesh": 0
    }
  ],
  "meshes": [
    {
      "name": "Back_R1S1_AssCle_N",
      "primitives": [
        {
          "attributes": {
            "POSITION": 0,
            "NORMAL": 1,
            "TEXCOORD_0": 2,
            "TEXCOORD_1": 3
          },
          "indices": 4,
          "material": 0,
          "mode": 4
        }
      ]
    }
  ],
  "materials": [
    {
      "name": "GradMat_Body",
      "pbrMetallicRoughness": {
        "baseColorFactor": [
          1,
          1,
          1,
          1
        ],
        "metallicFactor": 0,
        "roughnessFactor": 1
      },
      "doubleSided": true,
      "extras": {
        "diffuseTexture": "Character/Common/Texture/CustomGradient_BasicGuy.png",
        "specularTexture": null,
        "normalMap": null
      }
    }
  ],
  "buffers": [
    {
      "uri": "Back_Short_Z2U2_Ass.bin",
      "byteLength": 23296
    }
  ],
  "bufferViews": [
    {
      "buffer": 0,
      "byteOffset": 0,
      "byteLength": 6168,
      "target": 34962
    },
    {
      "buffer": 0,
      "byteOffset": 6168,
      "byteLength": 6168,
      "target": 34962
    },
    {
      "buffer": 0,
      "byteOffset": 12336,
      "byteLength": 4112,
      "target": 34962
    },
    {
      "buffer": 0,
      "byteOffset": 16448,
      "byteLength": 4112,
      "target": 34962
    },
    {
      "buffer": 0,
      "byteOffset": 20560,
      "byteLength": 2736,
      "target": 34963
    }
  ],
  "accessors": [
    {
      "bufferView": 0,
      "componentType": 5126,
      "count": 514,
      "type": "VEC3",
      "min": [
        -0.301513671875,
        1.2744140625,
        -0.1824951171875
      ],
      "max": [
        0.290283203125,
        1.7861328125,
        0.1219482421875
      ]
    },
    {
      "bufferView": 1,
      "componentType": 5126,
      "count": 514,
      "type": "VEC3",
      "min": [
        -0.5019607843137255,
        -0.5019607843137255,
        -0.5019607843137255
      ],
      "max": [
        0.49411764705882355,
        1,
        1
      ]
    },
    {
      "bufferView": 2,
      "componentType": 5126,
      "count": 514,
      "type": "VEC2",
      "min": [
        0.1741943359375,
        0.275146484375
      ],
      "max": [
        0.6005859375,
        0.8759765625
      ]
    },
    {
      "bufferView": 3,
      "componentType": 5126,
      "count": 514,
      "type": "VEC2",
      "min": [
        0,
        0.31982421875
      ],
      "max": [
        0.93896484375,
        1
      ]
    },
    {
      "bufferView": 4,
      "componentType": 5123,
      "count": 1368,
      "type": "SCALAR",
      "min": [
        0
      ],
      "max": [
        513
      ]
    }
  ],
  "extras": {
    "manifest": "Back_Short_Z2U2_Ass.materials.json"
  }
}