{
  "asset": {
    "version": "2.0",
    "generator": "prefab-to-gltf"
  },
  "scene": 0,
  "scenes": [
    {
      "name": "Axe_Manfish",
      "nodes": [
        0
      ]
    }
  ],
  "nodes": [
    {
      "name": "model_0",
      "translation": [
        0,
        0,
        0
      ],
      "rotation": [
        0,
        0,
        0,
        1
      ],
      "scale": [
        1,
        1,
        1
      ],
      "children": [
        1,
        2
      ]
    },
    {
      "name": "Mace_Manfish_001",
      "translation": [
        0,
        0,
        0
      ],
      "rotation": [
        0,
        0,
        0.7071056365966797,
        0.7071079257745626
      ],
      "scale": [
        1,
        1,
        1
      ],
      "mesh": 0
    },
    {
      "name": "Mace_Manfish_003",
      "translation": [
        0,
        0,
        0
      ],
      "rotation": [
        0,
        0,
        0.7071056365966797,
        0.7071079257745626
      ],
      "scale": [
        1,
        1,
        1
      ],
      "mesh": 1
    }
  ],
  "meshes": [
    {
      "name": "Mace_Manfish_001",
      "primitives": [
        {
          "attributes": {
            "POSITION": 0,
            "NORMAL": 1,
            "TEXCOORD_0": 2,
            "TEXCOORD_1": 3
          },
          "indices": 4,
          "material": 0,
          "mode": 4
        }
      ]
    },
    {
      "name": "Mace_Manfish_003",
      "primitives": [
        {
          "attributes": {
            "POSITION": 5,
            "NORMAL": 6,
            "TEXCOORD_0": 7,
            "TEXCOORD_1": 8
          },
          "indices": 9,
          "material": 0,
          "mode": 4
        }
      ]
    }
  ],
  "materials": [
    {
      "name": "MatSlots_WEAPONS_001",
      "pbrMetallicRoughness": {
        "baseColorFactor": [
          1,
          1,
          1,
          1
        ],
        "metallicFactor": 0,
        "roughnessFactor": 1
      },
      "doubleSided": true,
      "extras": {
        "diffuseTexture": null,
        "specularTexture": null,
        "normalMap": null
      }
    },
    {
      "name": "Outline_001",
      "pbrMetallicRoughness": {
        "baseColorFactor": [
          1,
          1,
          1,
          1
        ],
        "metallicFactor": 0,
        "roughnessFactor": 1
      },
      "doubleSided": true,
      "extras": {
        "diffuseTexture": null,
        "specularTexture": null,
        "normalMap": null
      }
    }
  ],
  "buffers": [
    {
      "uri": "Axe_Manfish.bin",
      "byteLength": 67572
    }
  ],
  "bufferViews": [
    {
      "buffer": 0,
      "byteOffset": 0,
      "byteLength": 12072,
      "target": 34962
    },
    {
      "buffer": 0,
      "byteOffset": 12072,
      "byteLength": 12072,
      "target": 34962
    },
    {
      "buffer": 0,
      "byteOffset": 24144,
      "byteLength": 8048,
      "target": 34962
    },
    {
      "buffer": 0,
      "byteOffset": 32192,
      "byteLength": 8048,
      "target": 34962
    },
    {
      "buffer": 0,
      "byteOffset": 40240,
      "byteLength": 6102,
      "target": 34963
    },
    {
      "buffer": 0,
      "byteOffset": 46344,
      "byteLength": 5688,
      "target": 34962
    },
    {
      "buffer": 0,
      "byteOffset": 52032,
      "byteLength": 5688,
      "target": 34962
    },
    {
      "buffer": 0,
      "byteOffset": 57720,
      "byteLength": 3792,
      "target": 34962
    },
    {
      "buffer": 0,
      "byteOffset": 61512,
      "byteLength": 3792,
      "target": 34962
    },
    {
      "buffer": 0,
      "byteOffset": 65304,
      "byteLength": 2268,
      "target": 34963
    }
  ],
  "accessors": [
    {
      "bufferView": 0,
      "componentType": 5126,
      "count": 1006,
      "type": "VEC3",
      "min": [
        -0.14556045830249786,
        -0.05200926959514618,
        -0.3772975206375122
      ],
      "max": [
        0.1641857773065567,
        0.051077887415885925,
        0.5427998304367065
      ]
    },
    {
      "bufferView": 1,
      "componentType": 5126,
      "count": 1006,
      "type": "VEC3",
      "min": [
        -0.9999990463256836,
        -1.0000001192092896,
        -0.9999361634254456
      ],
      "max": [
        0.9999054670333862,
        1,
        0.8801946640014648
      ]
    },
    {
      "bufferView": 2,
      "componentType": 5126,
      "count": 1006,
      "type": "VEC2",
      "min": [
        0.020121701061725616,
        0.35254859924316406
      ],
      "max": [
        0.2021050602197647,
        0.8091493248939514
      ]
    },
    {
      "bufferView": 3,
      "componentType": 5126,
      "count": 1006,
      "type": "VEC2",
      "min": [
        0,
        0.1931997537612915
      ],
      "max": [
        0.9407327175140381,
        1
      ]
    },
    {
      "bufferView": 4,
      "componentType": 5123,
      "count": 3051,
      "type": "SCALAR",
      "min": [
        0
      ],
      "max": [
        1005
      ]
    },
    {
      "bufferView": 5,
      "componentType": 5126,
      "count": 474,
      "type": "VEC3",
      "min": [
        -0.40979456901550293,
        -0.03177924081683159,
        0.0678207278251648
      ],
      "max": [
        0.1602267026901245,
        0.03177924081683159,
        0.525424063205719
      ]
    },
    {
      "bufferView": 6,
      "componentType": 5126,
      "count": 474,
      "type": "VEC3",
      "min": [
        -0.6154555082321167,
        -0.9998561143875122,
        -0.6868075728416443
      ],
      "max": [
        0.9496365189552307,
        0.9998565316200256,
        0.9561700224876404
      ]
    },
    {
      "bufferView": 7,
      "componentType": 5126,
      "count": 474,
      "type": "VEC2",
      "min": [
        0.15522721409797668,
        0.41162168979644775
      ],
      "max": [
        0.23362234234809875,
        0.7022589445114136
      ]
    },
    {
      "bufferView": 8,
      "componentType": 5126,
      "count": 474,
      "type": "VEC2",
      "min": [
        0,
        0.18849462270736694
      ],
      "max": [
        0.9503660798072815,
        1
      ]
    },
    {
      "bufferView": 9,
      "componentType": 5123,
      "count": 1134,
      "type": "SCALAR",
      "min": [
        0
      ],
      "max": [
        473
      ]
    }
  ],
  "extras": {
    "manifest": "Axe_Manfish.materials.json"
  }
}