{
  "asset": {
    "version": "2.0",
    "generator": "prefab-to-gltf"
  },
  "scene": 0,
  "scenes": [
    {
      "name": "Prefab_Gabarit_Heavy",
      "nodes": [
        0
      ]
    }
  ],
  "nodes": [
    {
      "name": "Heavy_Male",
      "translation": [
        0,
        0,
        0
      ],
      "rotation": [
        0,
        0,
        0.7071056365966797,
        0.7071079257745626
      ],
      "scale": [
        1,
        1,
        1
      ],
      "mesh": 0
    }
  ],
  "meshes": [
    {
      "name": "Heavy_Male",
      "primitives": [
        {
          "attributes": {
            "POSITION": 0,
            "NORMAL": 1,
            "TEXCOORD_0": 2,
            "TEXCOORD_1": 3
          },
          "indices": 4,
          "material": 0,
          "mode": 4
        },
        {
          "attributes": {
            "POSITION": 5,
            "NORMAL": 6,
            "TEXCOORD_0": 7,
            "TEXCOORD_1": 8
          },
          "indices": 9,
          "material": 1,
          "mode": 4
        }
      ]
    }
  ],
  "materials": [
    {
      "name": "MatSlots_SKIN",
      "pbrMetallicRoughness": {
        "baseColorFactor": [
          1,
          1,
          1,
          1
        ],
        "metallicFactor": 0,
        "roughnessFactor": 1
      },
      "doubleSided": true,
      "extras": {
        "diffuseTexture": null,
        "specularTexture": null,
        "normalMap": null
      }
    },
    {
      "name": "MatSlots_HAIR",
      "pbrMetallicRoughness": {
        "baseColorFactor": [
          1,
          1,
          1,
          1
        ],
        "metallicFactor": 0,
        "roughnessFactor": 1
      },
      "doubleSided": true,
      "extras": {
        "diffuseTexture": null,
        "specularTexture": null,
        "normalMap": null
      }
    }
  ],
  "buffers": [
    {
      "uri": "Prefab_Gabarit_Heavy.bin",
      "byteLength": 535440
    }
  ],
  "bufferViews": [
    {
      "buffer": 0,
      "byteOffset": 0,
      "byteLength": 72792,
      "target": 34962
    },
    {
      "buffer": 0,
      "byteOffset": 72792,
      "byteLength": 72792,
      "target": 34962
    },
    {
      "buffer": 0,
      "byteOffset": 145584,
      "byteLength": 48528,
      "target": 34962
    },
    {
      "buffer": 0,
      "byteOffset": 194112,
      "byteLength": 48528,
      "target": 34962
    },
    {
      "buffer": 0,
      "byteOffset": 242640,
      "byteLength": 49320,
      "target": 34963
    },
    {
      "buffer": 0,
      "byteOffset": 291960,
      "byteLength": 72792,
      "target": 34962
    },
    {
      "buffer": 0,
      "byteOffset": 364752,
      "byteLength": 72792,
      "target": 34962
    },
    {
      "buffer": 0,
      "byteOffset": 437544,
      "byteLength": 48528,
      "target": 34962
    },
    {
      "buffer": 0,
      "byteOffset": 486072,
      "byteLength": 48528,
      "target": 34962
    },
    {
      "buffer": 0,
      "byteOffset": 534600,
      "byteLength": 840,
      "target": 34963
    }
  ],
  "accessors": [
    {
      "bufferView": 0,
      "componentType": 5126,
      "count": 6066,
      "type": "VEC3",
      "min": [
        -0.9768899083137512,
        -0.3702184855937958,
        -0.00024138674780260772
      ],
      "max": [
        0.9768899083137512,
        0.21660350263118744,
        2.222750663757324
      ]
    },
    {
      "bufferView": 1,
      "componentType": 5126,
      "count": 6066,
      "type": "VEC3",
      "min": [
        -0.999925971031189,
        -0.9999281167984009,
        -0.9999604225158691
      ],
      "max": [
        0.9999260306358337,
        0.9999707937240601,
        0.9982007145881653
      ]
    },
    {
      "bufferView": 2,
      "componentType": 5126,
      "count": 6066,
      "type": "VEC2",
      "min": [
        0,
        0.12510579824447632
      ],
      "max": [
        0.45023417472839355,
        1
      ]
    },
    {
      "bufferView": 3,
      "componentType": 5126,
      "count": 6066,
      "type": "VEC2",
      "min": [
        -0.023779403418302536,
        0.0803295373916626
      ],
      "max": [
        0.9668477773666382,
        0.9794461131095886
      ]
    },
    {
      "bufferView": 4,
      "componentType": 5123,
      "count": 24660,
      "type": "SCALAR",
      "min": [
        0
      ],
      "max": [
        6028
      ]
    },
    {
      "bufferView": 5,
      "componentType": 5126,
      "count": 6066,
      "type": "VEC3",
      "min": [
        -0.9768899083137512,
        -0.3702184855937958,
        -0.00024138674780260772
      ],
      "max": [
        0.9768899083137512,
        0.21660350263118744,
        2.222750663757324
      ]
    },
    {
      "bufferView": 6,
      "componentType": 5126,
      "count": 6066,
      "type": "VEC3",
      "min": [
        -0.999925971031189,
        -0.9999281167984009,
        -0.9999604225158691
      ],
      "max": [
        0.9999260306358337,
        0.9999707937240601,
        0.9982007145881653
      ]
    },
    {
      "bufferView": 7,
      "componentType": 5126,
      "count": 6066,
      "type": "VEC2",
      "min": [
        0,
        0.12510579824447632
      ],
      "max": [
        0.45023417472839355,
        1
      ]
    },
    {
      "bufferView": 8,
      "componentType": 5126,
      "count": 6066,
      "type": "VEC2",
      "min": [
        -0.023779403418302536,
        0.0803295373916626
      ],
      "max": [
        0.9668477773666382,
        0.9794461131095886
      ]
    },
    {
      "bufferView": 9,
      "componentType": 5123,
      "count": 420,
      "type": "SCALAR",
      "min": [
        0
      ],
      "max": [
        6065
      ]
    }
  ],
  "extras": {
    "manifest": "Prefab_Gabarit_Heavy.materials.json"
  }
}