{
  "asset": {
    "version": "2.0",
    "generator": "prefab-to-gltf"
  },
  "scene": 0,
  "scenes": [
    {
      "name": "Herald_UlSerous",
      "nodes": [
        0
      ]
    }
  ],
  "nodes": [
    {
      "name": "Herald_UlSerous",
      "translation": [
        0,
        0,
        0
      ],
      "rotation": [
        0,
        0,
        0,
        1
      ],
      "scale": [
        1,
        1,
        1
      ],
      "mesh": 0
    }
  ],
  "meshes": [
    {
      "name": "Herald_UlSerous",
      "primitives": [
        {
          "attributes": {
            "POSITION": 0,
            "NORMAL": 1,
            "TEXCOORD_0": 2,
            "TEXCOORD_1": 3,
            "COLOR_0": 4
          },
          "indices": 5,
          "material": 0,
          "mode": 4
        }
      ]
    }
  ],
  "materials": [
    {
      "name": "Gradmat",
      "pbrMetallicRoughness": {
        "baseColorFactor": [
          1,
          1,
          1,
          1
        ],
        "metallicFactor": 0,
        "roughnessFactor": 1
      },
      "doubleSided": true,
      "extras": {
        "diffuseTexture": "Character/Common/Texture/CustomGradient_WeaponALL.png",
        "specularTexture": null,
        "normalMap": null
      }
    }
  ],
  "buffers": [
    {
      "uri": "Herald_UlSerous.bin",
      "byteLength": 1105420
    }
  ],
  "bufferViews": [
    {
      "buffer": 0,
      "byteOffset": 0,
      "byteLength": 227604,
      "target": 34962
    },
    {
      "buffer": 0,
      "byteOffset": 227604,
      "byteLength": 227604,
      "target": 34962
    },
    {
      "buffer": 0,
      "byteOffset": 455208,
      "byteLength": 151736,
      "target": 34962
    },
    {
      "buffer": 0,
      "byteOffset": 606944,
      "byteLength": 151736,
      "target": 34962
    },
    {
      "buffer": 0,
      "byteOffset": 758680,
      "byteLength": 227604,
      "target": 34962
    },
    {
      "buffer": 0,
      "byteOffset": 986284,
      "byteLength": 119136,
      "target": 34963
    }
  ],
  "accessors": [
    {
      "bufferView": 0,
      "componentType": 5126,
      "count": 18967,
      "type": "VEC3",
      "min": [
        -11.655932426452637,
        -2.6206488609313965,
        -3.2539987564086914
      ],
      "max": [
        11.655932426452637,
        14.054681777954102,
        2.9713592529296875
      ]
    },
    {
      "bufferView": 1,
      "componentType": 5126,
      "count": 18967,
      "type": "VEC3",
      "min": [
        -0.9993450045585632,
        -0.9998260140419006,
        -0.9999446868896484
      ],
      "max": [
        1,
        1,
        0.999988317489624
      ]
    },
    {
      "bufferView": 2,
      "componentType": 5126,
      "count": 18967,
      "type": "VEC2",
      "min": [
        0.016917526721954346,
        0.06471866369247437
      ],
      "max": [
        0.5937566757202148,
        0.950118362903595
      ]
    },
    {
      "bufferView": 3,
      "componentType": 5126,
      "count": 18967,
      "type": "VEC2",
      "min": [
        0.04560896009206772,
        0.1950598955154419
      ],
      "max": [
        0.9448873996734619,
        0.9728801250457764
      ]
    },
    {
      "bufferView": 4,
      "componentType": 5126,
      "count": 14225.25,
      "type": "VEC4",
      "min": [
        0,
        0,
        0,
        0
      ],
      "max": [
        1,
        1,
        1,
        1
      ]
    },
    {
      "bufferView": 5,
      "componentType": 5123,
      "count": 59568,
      "type": "SCALAR",
      "min": [
        0
      ],
      "max": [
        18966
      ]
    }
  ],
  "extras": {
    "manifest": "Herald_UlSerous.materials.json"
  }
}