{
  "asset": {
    "version": "2.0",
    "generator": "prefab-to-gltf"
  },
  "scene": 0,
  "scenes": [
    {
      "name": "Halo_Human_ManfishShell",
      "nodes": [
        0
      ]
    }
  ],
  "nodes": [
    {
      "name": "Halo_Manfish",
      "translation": [
        0,
        0,
        0
      ],
      "rotation": [
        0,
        0,
        0.7071056365966797,
        0.7071079257745626
      ],
      "scale": [
        0.9127349853515625,
        0.9127349853515625,
        0.9127349853515625
      ],
      "mesh": 0
    }
  ],
  "meshes": [
    {
      "name": "Halo_Manfish",
      "primitives": [
        {
          "attributes": {
            "POSITION": 0,
            "NORMAL": 1,
            "TEXCOORD_0": 2,
            "TEXCOORD_1": 3
          },
          "indices": 4,
          "material": 0,
          "mode": 4
        }
      ]
    }
  ],
  "materials": [
    {
      "name": "MatSlots_WEAPONS",
      "pbrMetallicRoughness": {
        "baseColorFactor": [
          1,
          1,
          1,
          1
        ],
        "metallicFactor": 0,
        "roughnessFactor": 1
      },
      "doubleSided": true,
      "extras": {
        "diffuseTexture": null,
        "specularTexture": null,
        "normalMap": null
      }
    },
    {
      "name": "Outline",
      "pbrMetallicRoughness": {
        "baseColorFactor": [
          1,
          1,
          1,
          1
        ],
        "metallicFactor": 0,
        "roughnessFactor": 1
      },
      "doubleSided": true,
      "extras": {
        "diffuseTexture": null,
        "specularTexture": null,
        "normalMap": null
      }
    }
  ],
  "buffers": [
    {
      "uri": "Halo_Human_ManfishShell.bin",
      "byteLength": 59132
    }
  ],
  "bufferViews": [
    {
      "buffer": 0,
      "byteOffset": 0,
      "byteLength": 15396,
      "target": 34962
    },
    {
      "buffer": 0,
      "byteOffset": 15396,
      "byteLength": 15396,
      "target": 34962
    },
    {
      "buffer": 0,
      "byteOffset": 30792,
      "byteLength": 10264,
      "target": 34962
    },
    {
      "buffer": 0,
      "byteOffset": 41056,
      "byteLength": 10264,
      "target": 34962
    },
    {
      "buffer": 0,
      "byteOffset": 51320,
      "byteLength": 7812,
      "target": 34963
    }
  ],
  "accessors": [
    {
      "bufferView": 0,
      "componentType": 5126,
      "count": 1283,
      "type": "VEC3",
      "min": [
        -0.1656230390071869,
        -0.0490446537733078,
        -0.2136741727590561
      ],
      "max": [
        0.17178373038768768,
        0.0660485327243805,
        0.25911131501197815
      ]
    },
    {
      "bufferView": 1,
      "componentType": 5126,
      "count": 1283,
      "type": "VEC3",
      "min": [
        -0.9839438199996948,
        -0.9998733401298523,
        -0.9926626086235046
      ],
      "max": [
        0.9757251739501953,
        0.9999373555183411,
        0.9983516335487366
      ]
    },
    {
      "bufferView": 2,
      "componentType": 5126,
      "count": 1283,
      "type": "VEC2",
      "min": [
        0.028779923915863037,
        0.0640096664428711
      ],
      "max": [
        0.43783146142959595,
        0.8751013278961182
      ]
    },
    {
      "bufferView": 3,
      "componentType": 5126,
      "count": 1283,
      "type": "VEC2",
      "min": [
        0,
        0.26023489236831665
      ],
      "max": [
        0.9448975324630737,
        1
      ]
    },
    {
      "bufferView": 4,
      "componentType": 5123,
      "count": 3906,
      "type": "SCALAR",
      "min": [
        0
      ],
      "max": [
        1282
      ]
    }
  ],
  "extras": {
    "manifest": "Halo_Human_ManfishShell.materials.json"
  }
}