{
  "asset": {
    "version": "2.0",
    "generator": "prefab-to-gltf"
  },
  "scene": 0,
  "scenes": [
    {
      "name": "Hands_Wrist_CrimsonRogue",
      "nodes": [
        0
      ]
    }
  ],
  "nodes": [
    {
      "name": "Hands_R1S1_Ass_N",
      "translation": [
        0,
        0,
        0
      ],
      "rotation": [
        0,
        0,
        0,
        1
      ],
      "scale": [
        1,
        1,
        1
      ],
      "mesh": 0
    }
  ],
  "meshes": [
    {
      "name": "Hands_R1S1_Ass_N",
      "primitives": [
        {
          "attributes": {
            "POSITION": 0,
            "NORMAL": 1,
            "TEXCOORD_0": 2,
            "TEXCOORD_1": 3
          },
          "indices": 4,
          "material": 0,
          "mode": 4
        }
      ]
    }
  ],
  "materials": [
    {
      "name": "GradMat_Body",
      "pbrMetallicRoughness": {
        "baseColorFactor": [
          1,
          1,
          1,
          1
        ],
        "metallicFactor": 0,
        "roughnessFactor": 1
      },
      "doubleSided": true,
      "extras": {
        "diffuseTexture": "Character/Common/Texture/CustomGradient_BasicGuy.png",
        "specularTexture": null,
        "normalMap": null
      }
    }
  ],
  "buffers": [
    {
      "uri": "Hands_Wrist_CrimsonRogue.bin",
      "byteLength": 148232
    }
  ],
  "bufferViews": [
    {
      "buffer": 0,
      "byteOffset": 0,
      "byteLength": 38328,
      "target": 34962
    },
    {
      "buffer": 0,
      "byteOffset": 38328,
      "byteLength": 38328,
      "target": 34962
    },
    {
      "buffer": 0,
      "byteOffset": 76656,
      "byteLength": 25552,
      "target": 34962
    },
    {
      "buffer": 0,
      "byteOffset": 102208,
      "byteLength": 25552,
      "target": 34962
    },
    {
      "buffer": 0,
      "byteOffset": 127760,
      "byteLength": 20472,
      "target": 34963
    }
  ],
  "accessors": [
    {
      "bufferView": 0,
      "componentType": 5126,
      "count": 3194,
      "type": "VEC3",
      "min": [
        -0.81201171875,
        0.9814453125,
        0.05303955078125
      ],
      "max": [
        0.81201171875,
        1.2958984375,
        0.337646484375
      ]
    },
    {
      "bufferView": 1,
      "componentType": 5126,
      "count": 3194,
      "type": "VEC3",
      "min": [
        -0.5019607843137255,
        -0.5019607843137255,
        -0.5019607843137255
      ],
      "max": [
        1,
        1,
        1
      ]
    },
    {
      "bufferView": 2,
      "componentType": 5126,
      "count": 3194,
      "type": "VEC2",
      "min": [
        0.020599365234375,
        0.1739501953125
      ],
      "max": [
        0.4775390625,
        0.9228515625
      ]
    },
    {
      "bufferView": 3,
      "componentType": 5126,
      "count": 3194,
      "type": "VEC2",
      "min": [
        0.0290679931640625,
        0.0792236328125
      ],
      "max": [
        0.94970703125,
        1.0009765625
      ]
    },
    {
      "bufferView": 4,
      "componentType": 5123,
      "count": 10236,
      "type": "SCALAR",
      "min": [
        0
      ],
      "max": [
        3193
      ]
    }
  ],
  "extras": {
    "manifest": "Hands_Wrist_CrimsonRogue.materials.json"
  }
}