{
  "asset": {
    "version": "2.0",
    "generator": "prefab-to-gltf"
  },
  "scene": 0,
  "scenes": [
    {
      "name": "Head_Open_CrimsonRogue",
      "nodes": [
        0
      ]
    }
  ],
  "nodes": [
    {
      "name": "Head_CrimsonRogue",
      "translation": [
        0,
        0,
        0
      ],
      "rotation": [
        0,
        0,
        0,
        1
      ],
      "scale": [
        1,
        1,
        1
      ],
      "mesh": 0
    }
  ],
  "meshes": [
    {
      "name": "Head_CrimsonRogue",
      "primitives": [
        {
          "attributes": {
            "POSITION": 0,
            "NORMAL": 1,
            "TEXCOORD_0": 2,
            "TEXCOORD_1": 3
          },
          "indices": 4,
          "material": 0,
          "mode": 4
        }
      ]
    }
  ],
  "materials": [
    {
      "name": "Gradmat_12Slots1",
      "pbrMetallicRoughness": {
        "baseColorFactor": [
          1,
          1,
          1,
          1
        ],
        "metallicFactor": 0,
        "roughnessFactor": 1
      },
      "doubleSided": true,
      "extras": {
        "diffuseTexture": null,
        "specularTexture": null,
        "normalMap": null
      }
    }
  ],
  "buffers": [
    {
      "uri": "Head_Open_CrimsonRogue.bin",
      "byteLength": 28932
    }
  ],
  "bufferViews": [
    {
      "buffer": 0,
      "byteOffset": 0,
      "byteLength": 7236,
      "target": 34962
    },
    {
      "buffer": 0,
      "byteOffset": 7236,
      "byteLength": 7236,
      "target": 34962
    },
    {
      "buffer": 0,
      "byteOffset": 14472,
      "byteLength": 4824,
      "target": 34962
    },
    {
      "buffer": 0,
      "byteOffset": 19296,
      "byteLength": 4824,
      "target": 34962
    },
    {
      "buffer": 0,
      "byteOffset": 24120,
      "byteLength": 4812,
      "target": 34963
    }
  ],
  "accessors": [
    {
      "bufferView": 0,
      "componentType": 5126,
      "count": 603,
      "type": "VEC3",
      "min": [
        -0.25543367862701416,
        1.958970069885254,
        -0.18543216586112976
      ],
      "max": [
        0.25543373823165894,
        2.305943012237549,
        0.36667659878730774
      ]
    },
    {
      "bufferView": 1,
      "componentType": 5126,
      "count": 603,
      "type": "VEC3",
      "min": [
        -0.9675292372703552,
        -0.999171257019043,
        -0.9990214109420776
      ],
      "max": [
        0.9675291180610657,
        0.9998108148574829,
        0.9521149396896362
      ]
    },
    {
      "bufferView": 2,
      "componentType": 5126,
      "count": 603,
      "type": "VEC2",
      "min": [
        0.10351041704416275,
        0.3337697982788086
      ],
      "max": [
        0.2787463665008545,
        0.8355897665023804
      ]
    },
    {
      "bufferView": 3,
      "componentType": 5126,
      "count": 603,
      "type": "VEC2",
      "min": [
        0.08059410750865936,
        0.25350749492645264
      ],
      "max": [
        0.9404124617576599,
        0.9537847638130188
      ]
    },
    {
      "bufferView": 4,
      "componentType": 5123,
      "count": 2406,
      "type": "SCALAR",
      "min": [
        0
      ],
      "max": [
        602
      ]
    }
  ],
  "extras": {
    "manifest": "Head_Open_CrimsonRogue.materials.json"
  }
}