{
  "asset": {
    "version": "2.0",
    "generator": "prefab-to-gltf"
  },
  "scene": 0,
  "scenes": [
    {
      "name": "Head_Open_CrimsonCaster01",
      "nodes": [
        0
      ]
    }
  ],
  "nodes": [
    {
      "name": "Head_CrimsonCaster",
      "translation": [
        0,
        0,
        0
      ],
      "rotation": [
        0,
        0,
        0,
        1
      ],
      "scale": [
        1,
        1,
        1
      ],
      "mesh": 0
    }
  ],
  "meshes": [
    {
      "name": "Head_CrimsonCaster",
      "primitives": [
        {
          "attributes": {
            "POSITION": 0,
            "NORMAL": 1,
            "TEXCOORD_0": 2,
            "TEXCOORD_1": 3
          },
          "indices": 4,
          "material": 0,
          "mode": 4
        }
      ]
    }
  ],
  "materials": [
    {
      "name": "GradMat_Body1",
      "pbrMetallicRoughness": {
        "baseColorFactor": [
          1,
          1,
          1,
          1
        ],
        "metallicFactor": 0,
        "roughnessFactor": 1
      },
      "doubleSided": true,
      "extras": {
        "diffuseTexture": "Character/Common/Texture/CustomGradient_RobinHoof.png",
        "specularTexture": null,
        "normalMap": null
      }
    }
  ],
  "buffers": [
    {
      "uri": "Head_Open_CrimsonCaster01.bin",
      "byteLength": 26360
    }
  ],
  "bufferViews": [
    {
      "buffer": 0,
      "byteOffset": 0,
      "byteLength": 6972,
      "target": 34962
    },
    {
      "buffer": 0,
      "byteOffset": 6972,
      "byteLength": 6972,
      "target": 34962
    },
    {
      "buffer": 0,
      "byteOffset": 13944,
      "byteLength": 4648,
      "target": 34962
    },
    {
      "buffer": 0,
      "byteOffset": 18592,
      "byteLength": 4648,
      "target": 34962
    },
    {
      "buffer": 0,
      "byteOffset": 23240,
      "byteLength": 3120,
      "target": 34963
    }
  ],
  "accessors": [
    {
      "bufferView": 0,
      "componentType": 5126,
      "count": 581,
      "type": "VEC3",
      "min": [
        -0.22819900512695312,
        1.8431280851364136,
        -0.18930897116661072
      ],
      "max": [
        0.22819900512695312,
        2.198969841003418,
        0.2906765043735504
      ]
    },
    {
      "bufferView": 1,
      "componentType": 5126,
      "count": 581,
      "type": "VEC3",
      "min": [
        -0.9707109332084656,
        -0.9808404445648193,
        -0.9956080317497253
      ],
      "max": [
        0.9707133173942566,
        0.9991121292114258,
        0.9532139897346497
      ]
    },
    {
      "bufferView": 2,
      "componentType": 5126,
      "count": 581,
      "type": "VEC2",
      "min": [
        0.15924061834812164,
        0.35709238052368164
      ],
      "max": [
        0.46217483282089233,
        0.8247734308242798
      ]
    },
    {
      "bufferView": 3,
      "componentType": 5126,
      "count": 581,
      "type": "VEC2",
      "min": [
        0.1095682680606842,
        0.25483012199401855
      ],
      "max": [
        0.9488562345504761,
        0.931363046169281
      ]
    },
    {
      "bufferView": 4,
      "componentType": 5123,
      "count": 1560,
      "type": "SCALAR",
      "min": [
        0
      ],
      "max": [
        580
      ]
    }
  ],
  "extras": {
    "manifest": "Head_Open_CrimsonCaster01.materials.json"
  }
}