{
  "asset": {
    "version": "2.0",
    "generator": "prefab-to-gltf"
  },
  "scene": 0,
  "scenes": [
    {
      "name": "CrystallizedHoney_01",
      "nodes": [
        0
      ]
    }
  ],
  "nodes": [
    {
      "name": "Crystallized_Honey",
      "translation": [
        0,
        0,
        0
      ],
      "rotation": [
        0,
        0,
        0,
        1
      ],
      "scale": [
        1,
        1,
        1
      ],
      "mesh": 0
    }
  ],
  "meshes": [
    {
      "name": "Crystallized_Honey",
      "primitives": [
        {
          "attributes": {
            "POSITION": 0,
            "NORMAL": 1,
            "TEXCOORD_0": 2,
            "TEXCOORD_1": 3
          },
          "indices": 4,
          "material": 0,
          "mode": 4
        }
      ]
    }
  ],
  "materials": [
    {
      "name": "MatSlots_BEE",
      "pbrMetallicRoughness": {
        "baseColorFactor": [
          1,
          1,
          1,
          1
        ],
        "metallicFactor": 0,
        "roughnessFactor": 1
      },
      "doubleSided": true,
      "extras": {
        "diffuseTexture": null,
        "specularTexture": null,
        "normalMap": null
      }
    }
  ],
  "buffers": [
    {
      "uri": "CrystallizedHoney_01.bin",
      "byteLength": 21404
    }
  ],
  "bufferViews": [
    {
      "buffer": 0,
      "byteOffset": 0,
      "byteLength": 5856,
      "target": 34962
    },
    {
      "buffer": 0,
      "byteOffset": 5856,
      "byteLength": 5856,
      "target": 34962
    },
    {
      "buffer": 0,
      "byteOffset": 11712,
      "byteLength": 3904,
      "target": 34962
    },
    {
      "buffer": 0,
      "byteOffset": 15616,
      "byteLength": 3904,
      "target": 34962
    },
    {
      "buffer": 0,
      "byteOffset": 19520,
      "byteLength": 1884,
      "target": 34963
    }
  ],
  "accessors": [
    {
      "bufferView": 0,
      "componentType": 5126,
      "count": 488,
      "type": "VEC3",
      "min": [
        -0.8872644305229187,
        -0.8271616101264954,
        0.03474652022123337
      ],
      "max": [
        0.8376515507698059,
        0.8471294641494751,
        1.0927188396453857
      ]
    },
    {
      "bufferView": 1,
      "componentType": 5126,
      "count": 488,
      "type": "VEC3",
      "min": [
        -0.9527662992477417,
        -0.9571712017059326,
        -1
      ],
      "max": [
        0.9657952785491943,
        0.9809849858283997,
        0.9891425967216492
      ]
    },
    {
      "bufferView": 2,
      "componentType": 5126,
      "count": 488,
      "type": "VEC2",
      "min": [
        0.02423805743455887,
        0.2512562870979309
      ],
      "max": [
        0.10692717880010605,
        0.7004973292350769
      ]
    },
    {
      "bufferView": 3,
      "componentType": 5126,
      "count": 488,
      "type": "VEC2",
      "min": [
        0.3640328049659729,
        0.5220138430595398
      ],
      "max": [
        0.9925495982170105,
        0.9824627041816711
      ]
    },
    {
      "bufferView": 4,
      "componentType": 5123,
      "count": 942,
      "type": "SCALAR",
      "min": [
        0
      ],
      "max": [
        487
      ]
    }
  ],
  "extras": {
    "manifest": "CrystallizedHoney_01.materials.json"
  }
}