{
  "asset": {
    "version": "2.0",
    "generator": "prefab-to-gltf"
  },
  "scene": 0,
  "scenes": [
    {
      "name": "HiveEgg_01",
      "nodes": [
        0
      ]
    }
  ],
  "nodes": [
    {
      "name": "HiveEgg_Bubbles",
      "translation": [
        0,
        0,
        0
      ],
      "rotation": [
        0,
        0,
        0.7071056365966797,
        0.7071079257745626
      ],
      "scale": [
        1,
        1,
        1
      ],
      "mesh": 0
    }
  ],
  "meshes": [
    {
      "name": "HiveEgg_Bubbles",
      "primitives": [
        {
          "attributes": {
            "POSITION": 0,
            "NORMAL": 1,
            "TEXCOORD_0": 2
          },
          "indices": 3,
          "material": 0,
          "mode": 4
        }
      ]
    }
  ],
  "materials": [
    {
      "name": "Mat_Bubble",
      "pbrMetallicRoughness": {
        "baseColorFactor": [
          1,
          1,
          1,
          1
        ],
        "metallicFactor": 0,
        "roughnessFactor": 1
      },
      "doubleSided": true,
      "extras": {
        "diffuseTexture": null,
        "specularTexture": null,
        "normalMap": null
      }
    }
  ],
  "buffers": [
    {
      "uri": "HiveEgg_01.bin",
      "byteLength": 4768
    }
  ],
  "bufferViews": [
    {
      "buffer": 0,
      "byteOffset": 0,
      "byteLength": 1320,
      "target": 34962
    },
    {
      "buffer": 0,
      "byteOffset": 1320,
      "byteLength": 1320,
      "target": 34962
    },
    {
      "buffer": 0,
      "byteOffset": 2640,
      "byteLength": 880,
      "target": 34962
    },
    {
      "buffer": 0,
      "byteOffset": 3520,
      "byteLength": 1248,
      "target": 34963
    }
  ],
  "accessors": [
    {
      "bufferView": 0,
      "componentType": 5126,
      "count": 110,
      "type": "VEC3",
      "min": [
        -0.4204147756099701,
        -0.3096392750740051,
        0.7927491068840027
      ],
      "max": [
        0.3775084614753723,
        0.3937946557998657,
        1.0124479532241821
      ]
    },
    {
      "bufferView": 1,
      "componentType": 5126,
      "count": 110,
      "type": "VEC3",
      "min": [
        -1,
        -1,
        -1
      ],
      "max": [
        1,
        1,
        1
      ]
    },
    {
      "bufferView": 2,
      "componentType": 5126,
      "count": 110,
      "type": "VEC2",
      "min": [
        0.30950063467025757,
        0.7066669464111328
      ],
      "max": [
        0.3600628972053528,
        0.7589505910873413
      ]
    },
    {
      "bufferView": 3,
      "componentType": 5123,
      "count": 624,
      "type": "SCALAR",
      "min": [
        0
      ],
      "max": [
        109
      ]
    }
  ],
  "extras": {
    "manifest": "HiveEgg_01.materials.json"
  }
}