{
  "asset": {
    "version": "2.0",
    "generator": "prefab-to-gltf"
  },
  "scene": 0,
  "scenes": [
    {
      "name": "HiveEgg_Medium",
      "nodes": [
        0
      ]
    }
  ],
  "nodes": [
    {
      "name": "HiveEgg_Medium",
      "translation": [
        0,
        0,
        0
      ],
      "rotation": [
        0,
        0,
        0,
        1
      ],
      "scale": [
        1,
        1,
        1
      ],
      "mesh": 0
    }
  ],
  "meshes": [
    {
      "name": "HiveEgg_Medium",
      "primitives": [
        {
          "attributes": {
            "POSITION": 0,
            "NORMAL": 1,
            "TEXCOORD_0": 2,
            "TEXCOORD_1": 3
          },
          "indices": 4,
          "material": 0,
          "mode": 4
        }
      ]
    }
  ],
  "materials": [
    {
      "name": "Gradmat",
      "pbrMetallicRoughness": {
        "baseColorFactor": [
          1,
          1,
          1,
          1
        ],
        "metallicFactor": 0,
        "roughnessFactor": 1
      },
      "doubleSided": true,
      "extras": {
        "diffuseTexture": null,
        "specularTexture": null,
        "normalMap": null
      }
    }
  ],
  "buffers": [
    {
      "uri": "HiveEgg_Medium.bin",
      "byteLength": 11816
    }
  ],
  "bufferViews": [
    {
      "buffer": 0,
      "byteOffset": 0,
      "byteLength": 2940,
      "target": 34962
    },
    {
      "buffer": 0,
      "byteOffset": 2940,
      "byteLength": 2940,
      "target": 34962
    },
    {
      "buffer": 0,
      "byteOffset": 5880,
      "byteLength": 1960,
      "target": 34962
    },
    {
      "buffer": 0,
      "byteOffset": 7840,
      "byteLength": 1960,
      "target": 34962
    },
    {
      "buffer": 0,
      "byteOffset": 9800,
      "byteLength": 2016,
      "target": 34963
    }
  ],
  "accessors": [
    {
      "bufferView": 0,
      "componentType": 5126,
      "count": 245,
      "type": "VEC3",
      "min": [
        -0.39458778500556946,
        -0.3909567594528198,
        0.004681350663304329
      ],
      "max": [
        0.40247467160224915,
        0.40079036355018616,
        0.6438629031181335
      ]
    },
    {
      "bufferView": 1,
      "componentType": 5126,
      "count": 245,
      "type": "VEC3",
      "min": [
        -0.9997870922088623,
        -0.999651312828064,
        -1
      ],
      "max": [
        0.9901986718177795,
        0.991523265838623,
        0.9977008104324341
      ]
    },
    {
      "bufferView": 2,
      "componentType": 5126,
      "count": 245,
      "type": "VEC2",
      "min": [
        0.026006050407886505,
        0.32840925455093384
      ],
      "max": [
        0.09116122871637344,
        0.7511929273605347
      ]
    },
    {
      "bufferView": 3,
      "componentType": 5126,
      "count": 245,
      "type": "VEC2",
      "min": [
        0.0627174973487854,
        0.9655225276947021
      ],
      "max": [
        0.0627174973487854,
        0.9655225276947021
      ]
    },
    {
      "bufferView": 4,
      "componentType": 5123,
      "count": 1008,
      "type": "SCALAR",
      "min": [
        0
      ],
      "max": [
        244
      ]
    }
  ],
  "extras": {
    "manifest": "HiveEgg_Medium.materials.json"
  }
}