{
  "asset": {
    "version": "2.0",
    "generator": "prefab-to-gltf"
  },
  "scene": 0,
  "scenes": [
    {
      "name": "Slime_Demonic_02",
      "nodes": [
        0
      ]
    }
  ],
  "nodes": [
    {
      "name": "Slime_Demonic_02",
      "translation": [
        0,
        0,
        0
      ],
      "rotation": [
        0,
        0,
        0,
        1
      ],
      "scale": [
        1,
        1,
        1
      ],
      "mesh": 0
    }
  ],
  "meshes": [
    {
      "name": "Slime_Demonic_02",
      "primitives": [
        {
          "attributes": {
            "POSITION": 0,
            "NORMAL": 1,
            "TEXCOORD_0": 2,
            "TEXCOORD_1": 3
          },
          "indices": 4,
          "material": 0,
          "mode": 4
        },
        {
          "attributes": {
            "POSITION": 5,
            "NORMAL": 6,
            "TEXCOORD_0": 7,
            "TEXCOORD_1": 8
          },
          "indices": 9,
          "material": 1,
          "mode": 4
        },
        {
          "attributes": {
            "POSITION": 10,
            "NORMAL": 11,
            "TEXCOORD_0": 12,
            "TEXCOORD_1": 13
          },
          "indices": 14,
          "material": 2,
          "mode": 4
        },
        {
          "attributes": {
            "POSITION": 15,
            "NORMAL": 16,
            "TEXCOORD_0": 17,
            "TEXCOORD_1": 18
          },
          "indices": 19,
          "material": 3,
          "mode": 4
        }
      ]
    }
  ],
  "materials": [
    {
      "name": "Mat_Slime_Fresnel",
      "pbrMetallicRoughness": {
        "baseColorFactor": [
          1,
          1,
          1,
          1
        ],
        "metallicFactor": 0,
        "roughnessFactor": 1
      },
      "doubleSided": true,
      "extras": {
        "diffuseTexture": null,
        "specularTexture": null,
        "normalMap": null
      }
    },
    {
      "name": "MatSlots_Eyes",
      "pbrMetallicRoughness": {
        "baseColorFactor": [
          1,
          1,
          1,
          1
        ],
        "metallicFactor": 0,
        "roughnessFactor": 1
      },
      "doubleSided": true,
      "extras": {
        "diffuseTexture": null,
        "specularTexture": null,
        "normalMap": null
      }
    },
    {
      "name": "Mat_Slime_Internal",
      "pbrMetallicRoughness": {
        "baseColorFactor": [
          1,
          1,
          1,
          1
        ],
        "metallicFactor": 0,
        "roughnessFactor": 1
      },
      "doubleSided": true,
      "extras": {
        "diffuseTexture": null,
        "specularTexture": null,
        "normalMap": null
      }
    },
    {
      "name": "MatSlots_Bubble",
      "pbrMetallicRoughness": {
        "baseColorFactor": [
          1,
          1,
          1,
          1
        ],
        "metallicFactor": 0,
        "roughnessFactor": 1
      },
      "doubleSided": true,
      "extras": {
        "diffuseTexture": null,
        "specularTexture": null,
        "normalMap": null
      }
    }
  ],
  "buffers": [
    {
      "uri": "Slime_Demonic_02.bin",
      "byteLength": 280288
    }
  ],
  "bufferViews": [
    {
      "buffer": 0,
      "byteOffset": 0,
      "byteLength": 19632,
      "target": 34962
    },
    {
      "buffer": 0,
      "byteOffset": 19632,
      "byteLength": 19632,
      "target": 34962
    },
    {
      "buffer": 0,
      "byteOffset": 39264,
      "byteLength": 13088,
      "target": 34962
    },
    {
      "buffer": 0,
      "byteOffset": 52352,
      "byteLength": 13088,
      "target": 34962
    },
    {
      "buffer": 0,
      "byteOffset": 65440,
      "byteLength": 7224,
      "target": 34963
    },
    {
      "buffer": 0,
      "byteOffset": 72664,
      "byteLength": 19632,
      "target": 34962
    },
    {
      "buffer": 0,
      "byteOffset": 92296,
      "byteLength": 19632,
      "target": 34962
    },
    {
      "buffer": 0,
      "byteOffset": 111928,
      "byteLength": 13088,
      "target": 34962
    },
    {
      "buffer": 0,
      "byteOffset": 125016,
      "byteLength": 13088,
      "target": 34962
    },
    {
      "buffer": 0,
      "byteOffset": 138104,
      "byteLength": 1872,
      "target": 34963
    },
    {
      "buffer": 0,
      "byteOffset": 139976,
      "byteLength": 19632,
      "target": 34962
    },
    {
      "buffer": 0,
      "byteOffset": 159608,
      "byteLength": 19632,
      "target": 34962
    },
    {
      "buffer": 0,
      "byteOffset": 179240,
      "byteLength": 13088,
      "target": 34962
    },
    {
      "buffer": 0,
      "byteOffset": 192328,
      "byteLength": 13088,
      "target": 34962
    },
    {
      "buffer": 0,
      "byteOffset": 205416,
      "byteLength": 6552,
      "target": 34963
    },
    {
      "buffer": 0,
      "byteOffset": 211968,
      "byteLength": 19632,
      "target": 34962
    },
    {
      "buffer": 0,
      "byteOffset": 231600,
      "byteLength": 19632,
      "target": 34962
    },
    {
      "buffer": 0,
      "byteOffset": 251232,
      "byteLength": 13088,
      "target": 34962
    },
    {
      "buffer": 0,
      "byteOffset": 264320,
      "byteLength": 13088,
      "target": 34962
    },
    {
      "buffer": 0,
      "byteOffset": 277408,
      "byteLength": 2880,
      "target": 34963
    }
  ],
  "accessors": [
    {
      "bufferView": 0,
      "componentType": 5126,
      "count": 1636,
      "type": "VEC3",
      "min": [
        -0.8173572421073914,
        0.011387012898921967,
        -1.0600512027740479
      ],
      "max": [
        0.8193615078926086,
        1.7085527181625366,
        0.8979036808013916
      ]
    },
    {
      "bufferView": 1,
      "componentType": 5126,
      "count": 1636,
      "type": "VEC3",
      "min": [
        -0.9999992251396179,
        -0.9999668598175049,
        -0.9999641180038452
      ],
      "max": [
        0.9999992251396179,
        0.9999706149101257,
        0.9998753666877747
      ]
    },
    {
      "bufferView": 2,
      "componentType": 5126,
      "count": 1636,
      "type": "VEC2",
      "min": [
        0,
        0.04031902551651001
      ],
      "max": [
        0.31559139490127563,
        1
      ]
    },
    {
      "bufferView": 3,
      "componentType": 5126,
      "count": 1636,
      "type": "VEC2",
      "min": [
        0,
        1
      ],
      "max": [
        0,
        1
      ]
    },
    {
      "bufferView": 4,
      "componentType": 5123,
      "count": 3612,
      "type": "SCALAR",
      "min": [
        0
      ],
      "max": [
        1635
      ]
    },
    {
      "bufferView": 5,
      "componentType": 5126,
      "count": 1636,
      "type": "VEC3",
      "min": [
        -0.8173572421073914,
        0.011387012898921967,
        -1.0600512027740479
      ],
      "max": [
        0.8193615078926086,
        1.7085527181625366,
        0.8979036808013916
      ]
    },
    {
      "bufferView": 6,
      "componentType": 5126,
      "count": 1636,
      "type": "VEC3",
      "min": [
        -0.9999992251396179,
        -0.9999668598175049,
        -0.9999641180038452
      ],
      "max": [
        0.9999992251396179,
        0.9999706149101257,
        0.9998753666877747
      ]
    },
    {
      "bufferView": 7,
      "componentType": 5126,
      "count": 1636,
      "type": "VEC2",
      "min": [
        0,
        0.04031902551651001
      ],
      "max": [
        0.31559139490127563,
        1
      ]
    },
    {
      "bufferView": 8,
      "componentType": 5126,
      "count": 1636,
      "type": "VEC2",
      "min": [
        0,
        1
      ],
      "max": [
        0,
        1
      ]
    },
    {
      "bufferView": 9,
      "componentType": 5123,
      "count": 936,
      "type": "SCALAR",
      "min": [
        0
      ],
      "max": [
        279
      ]
    },
    {
      "bufferView": 10,
      "componentType": 5126,
      "count": 1636,
      "type": "VEC3",
      "min": [
        -0.8173572421073914,
        0.011387012898921967,
        -1.0600512027740479
      ],
      "max": [
        0.8193615078926086,
        1.7085527181625366,
        0.8979036808013916
      ]
    },
    {
      "bufferView": 11,
      "componentType": 5126,
      "count": 1636,
      "type": "VEC3",
      "min": [
        -0.9999992251396179,
        -0.9999668598175049,
        -0.9999641180038452
      ],
      "max": [
        0.9999992251396179,
        0.9999706149101257,
        0.9998753666877747
      ]
    },
    {
      "bufferView": 12,
      "componentType": 5126,
      "count": 1636,
      "type": "VEC2",
      "min": [
        0,
        0.04031902551651001
      ],
      "max": [
        0.31559139490127563,
        1
      ]
    },
    {
      "bufferView": 13,
      "componentType": 5126,
      "count": 1636,
      "type": "VEC2",
      "min": [
        0,
        1
      ],
      "max": [
        0,
        1
      ]
    },
    {
      "bufferView": 14,
      "componentType": 5123,
      "count": 3276,
      "type": "SCALAR",
      "min": [
        0
      ],
      "max": [
        833
      ]
    },
    {
      "bufferView": 15,
      "componentType": 5126,
      "count": 1636,
      "type": "VEC3",
      "min": [
        -0.8173572421073914,
        0.011387012898921967,
        -1.0600512027740479
      ],
      "max": [
        0.8193615078926086,
        1.7085527181625366,
        0.8979036808013916
      ]
    },
    {
      "bufferView": 16,
      "componentType": 5126,
      "count": 1636,
      "type": "VEC3",
      "min": [
        -0.9999992251396179,
        -0.9999668598175049,
        -0.9999641180038452
      ],
      "max": [
        0.9999992251396179,
        0.9999706149101257,
        0.9998753666877747
      ]
    },
    {
      "bufferView": 17,
      "componentType": 5126,
      "count": 1636,
      "type": "VEC2",
      "min": [
        0,
        0.04031902551651001
      ],
      "max": [
        0.31559139490127563,
        1
      ]
    },
    {
      "bufferView": 18,
      "componentType": 5126,
      "count": 1636,
      "type": "VEC2",
      "min": [
        0,
        1
      ],
      "max": [
        0,
        1
      ]
    },
    {
      "bufferView": 19,
      "componentType": 5123,
      "count": 1440,
      "type": "SCALAR",
      "min": [
        0
      ],
      "max": [
        1081
      ]
    }
  ],
  "extras": {
    "manifest": "Slime_Demonic_02.materials.json"
  }
}