{
  "asset": {
    "version": "2.0",
    "generator": "prefab-to-gltf"
  },
  "scene": 0,
  "scenes": [
    {
      "name": "Slime_Green_02",
      "nodes": [
        0
      ]
    }
  ],
  "nodes": [
    {
      "name": "Slime_Basic_01",
      "translation": [
        0,
        0,
        0
      ],
      "rotation": [
        0,
        0,
        0,
        1
      ],
      "scale": [
        1,
        1,
        1
      ],
      "mesh": 0
    }
  ],
  "meshes": [
    {
      "name": "Slime_Basic_01",
      "primitives": [
        {
          "attributes": {
            "POSITION": 0,
            "NORMAL": 1,
            "TEXCOORD_0": 2,
            "TEXCOORD_1": 3
          },
          "indices": 4,
          "material": 0,
          "mode": 4
        },
        {
          "attributes": {
            "POSITION": 5,
            "NORMAL": 6,
            "TEXCOORD_0": 7,
            "TEXCOORD_1": 8
          },
          "indices": 9,
          "material": 1,
          "mode": 4
        },
        {
          "attributes": {
            "POSITION": 10,
            "NORMAL": 11,
            "TEXCOORD_0": 12,
            "TEXCOORD_1": 13
          },
          "indices": 14,
          "material": 2,
          "mode": 4
        }
      ]
    }
  ],
  "materials": [
    {
      "name": "Mat_Slime_Fresnel",
      "pbrMetallicRoughness": {
        "baseColorFactor": [
          1,
          1,
          1,
          1
        ],
        "metallicFactor": 0,
        "roughnessFactor": 1
      },
      "doubleSided": true,
      "extras": {
        "diffuseTexture": null,
        "specularTexture": null,
        "normalMap": null
      }
    },
    {
      "name": "Mat_Slime_Internal",
      "pbrMetallicRoughness": {
        "baseColorFactor": [
          1,
          1,
          1,
          1
        ],
        "metallicFactor": 0,
        "roughnessFactor": 1
      },
      "doubleSided": true,
      "extras": {
        "diffuseTexture": null,
        "specularTexture": null,
        "normalMap": null
      }
    },
    {
      "name": "MatSlots_Bubble",
      "pbrMetallicRoughness": {
        "baseColorFactor": [
          1,
          1,
          1,
          1
        ],
        "metallicFactor": 0,
        "roughnessFactor": 1
      },
      "doubleSided": true,
      "extras": {
        "diffuseTexture": null,
        "specularTexture": null,
        "normalMap": null
      }
    }
  ],
  "buffers": [
    {
      "uri": "Slime_Green_02.bin",
      "byteLength": 77568
    }
  ],
  "bufferViews": [
    {
      "buffer": 0,
      "byteOffset": 0,
      "byteLength": 7104,
      "target": 34962
    },
    {
      "buffer": 0,
      "byteOffset": 7104,
      "byteLength": 7104,
      "target": 34962
    },
    {
      "buffer": 0,
      "byteOffset": 14208,
      "byteLength": 4736,
      "target": 34962
    },
    {
      "buffer": 0,
      "byteOffset": 18944,
      "byteLength": 4736,
      "target": 34962
    },
    {
      "buffer": 0,
      "byteOffset": 23680,
      "byteLength": 2400,
      "target": 34963
    },
    {
      "buffer": 0,
      "byteOffset": 26080,
      "byteLength": 7104,
      "target": 34962
    },
    {
      "buffer": 0,
      "byteOffset": 33184,
      "byteLength": 7104,
      "target": 34962
    },
    {
      "buffer": 0,
      "byteOffset": 40288,
      "byteLength": 4736,
      "target": 34962
    },
    {
      "buffer": 0,
      "byteOffset": 45024,
      "byteLength": 4736,
      "target": 34962
    },
    {
      "buffer": 0,
      "byteOffset": 49760,
      "byteLength": 2400,
      "target": 34963
    },
    {
      "buffer": 0,
      "byteOffset": 52160,
      "byteLength": 7104,
      "target": 34962
    },
    {
      "buffer": 0,
      "byteOffset": 59264,
      "byteLength": 7104,
      "target": 34962
    },
    {
      "buffer": 0,
      "byteOffset": 66368,
      "byteLength": 4736,
      "target": 34962
    },
    {
      "buffer": 0,
      "byteOffset": 71104,
      "byteLength": 4736,
      "target": 34962
    },
    {
      "buffer": 0,
      "byteOffset": 75840,
      "byteLength": 1728,
      "target": 34963
    }
  ],
  "accessors": [
    {
      "bufferView": 0,
      "componentType": 5126,
      "count": 592,
      "type": "VEC3",
      "min": [
        -0.8365519642829895,
        0.005083112511783838,
        -0.8365519642829895
      ],
      "max": [
        0.8365519642829895,
        1.0001792907714844,
        0.8365519642829895
      ]
    },
    {
      "bufferView": 1,
      "componentType": 5126,
      "count": 592,
      "type": "VEC3",
      "min": [
        -0.9979110956192017,
        -1,
        -0.9979111552238464
      ],
      "max": [
        0.9979110360145569,
        1,
        0.9979111552238464
      ]
    },
    {
      "bufferView": 2,
      "componentType": 5126,
      "count": 592,
      "type": "VEC2",
      "min": [
        0.030588019639253616,
        0.30279242992401123
      ],
      "max": [
        0.20916642248630524,
        0.8514472246170044
      ]
    },
    {
      "bufferView": 3,
      "componentType": 5126,
      "count": 592,
      "type": "VEC2",
      "min": [
        0,
        0.9482243657112122
      ],
      "max": [
        0.05913957953453064,
        1
      ]
    },
    {
      "bufferView": 4,
      "componentType": 5123,
      "count": 1200,
      "type": "SCALAR",
      "min": [
        0
      ],
      "max": [
        220
      ]
    },
    {
      "bufferView": 5,
      "componentType": 5126,
      "count": 592,
      "type": "VEC3",
      "min": [
        -0.8365519642829895,
        0.005083112511783838,
        -0.8365519642829895
      ],
      "max": [
        0.8365519642829895,
        1.0001792907714844,
        0.8365519642829895
      ]
    },
    {
      "bufferView": 6,
      "componentType": 5126,
      "count": 592,
      "type": "VEC3",
      "min": [
        -0.9979110956192017,
        -1,
        -0.9979111552238464
      ],
      "max": [
        0.9979110360145569,
        1,
        0.9979111552238464
      ]
    },
    {
      "bufferView": 7,
      "componentType": 5126,
      "count": 592,
      "type": "VEC2",
      "min": [
        0.030588019639253616,
        0.30279242992401123
      ],
      "max": [
        0.20916642248630524,
        0.8514472246170044
      ]
    },
    {
      "bufferView": 8,
      "componentType": 5126,
      "count": 592,
      "type": "VEC2",
      "min": [
        0,
        0.9482243657112122
      ],
      "max": [
        0.05913957953453064,
        1
      ]
    },
    {
      "bufferView": 9,
      "componentType": 5123,
      "count": 1200,
      "type": "SCALAR",
      "min": [
        0
      ],
      "max": [
        441
      ]
    },
    {
      "bufferView": 10,
      "componentType": 5126,
      "count": 592,
      "type": "VEC3",
      "min": [
        -0.8365519642829895,
        0.005083112511783838,
        -0.8365519642829895
      ],
      "max": [
        0.8365519642829895,
        1.0001792907714844,
        0.8365519642829895
      ]
    },
    {
      "bufferView": 11,
      "componentType": 5126,
      "count": 592,
      "type": "VEC3",
      "min": [
        -0.9979110956192017,
        -1,
        -0.9979111552238464
      ],
      "max": [
        0.9979110360145569,
        1,
        0.9979111552238464
      ]
    },
    {
      "bufferView": 12,
      "componentType": 5126,
      "count": 592,
      "type": "VEC2",
      "min": [
        0.030588019639253616,
        0.30279242992401123
      ],
      "max": [
        0.20916642248630524,
        0.8514472246170044
      ]
    },
    {
      "bufferView": 13,
      "componentType": 5126,
      "count": 592,
      "type": "VEC2",
      "min": [
        0,
        0.9482243657112122
      ],
      "max": [
        0.05913957953453064,
        1
      ]
    },
    {
      "bufferView": 14,
      "componentType": 5123,
      "count": 864,
      "type": "SCALAR",
      "min": [
        0
      ],
      "max": [
        591
      ]
    }
  ],
  "extras": {
    "manifest": "Slime_Green_02.materials.json"
  }
}