{
  "asset": {
    "version": "2.0",
    "generator": "prefab-to-gltf"
  },
  "scene": 0,
  "scenes": [
    {
      "name": "Slime_King_01",
      "nodes": [
        0
      ]
    }
  ],
  "nodes": [
    {
      "name": "Slime_King_01",
      "translation": [
        0,
        0,
        0
      ],
      "rotation": [
        0,
        0,
        0,
        1
      ],
      "scale": [
        1,
        1,
        1
      ],
      "mesh": 0
    }
  ],
  "meshes": [
    {
      "name": "Slime_King_01",
      "primitives": [
        {
          "attributes": {
            "POSITION": 0,
            "NORMAL": 1,
            "TEXCOORD_0": 2,
            "TEXCOORD_1": 3,
            "COLOR_0": 4
          },
          "indices": 5,
          "material": 0,
          "mode": 4
        },
        {
          "attributes": {
            "POSITION": 6,
            "NORMAL": 7,
            "TEXCOORD_0": 8,
            "TEXCOORD_1": 9,
            "COLOR_0": 10
          },
          "indices": 11,
          "material": 1,
          "mode": 4
        },
        {
          "attributes": {
            "POSITION": 12,
            "NORMAL": 13,
            "TEXCOORD_0": 14,
            "TEXCOORD_1": 15,
            "COLOR_0": 16
          },
          "indices": 17,
          "material": 2,
          "mode": 4
        }
      ]
    }
  ],
  "materials": [
    {
      "name": "MatSlots_Bubble",
      "pbrMetallicRoughness": {
        "baseColorFactor": [
          1,
          1,
          1,
          1
        ],
        "metallicFactor": 0,
        "roughnessFactor": 1
      },
      "doubleSided": true,
      "extras": {
        "diffuseTexture": null,
        "specularTexture": null,
        "normalMap": null
      }
    },
    {
      "name": "Mat_Slime_Internal",
      "pbrMetallicRoughness": {
        "baseColorFactor": [
          1,
          1,
          1,
          1
        ],
        "metallicFactor": 0,
        "roughnessFactor": 1
      },
      "doubleSided": true,
      "extras": {
        "diffuseTexture": null,
        "specularTexture": null,
        "normalMap": null
      }
    },
    {
      "name": "Mat_Slime_Fresnel",
      "pbrMetallicRoughness": {
        "baseColorFactor": [
          1,
          1,
          1,
          1
        ],
        "metallicFactor": 0,
        "roughnessFactor": 1
      },
      "doubleSided": true,
      "extras": {
        "diffuseTexture": null,
        "specularTexture": null,
        "normalMap": null
      }
    }
  ],
  "buffers": [
    {
      "uri": "Slime_King_01.bin",
      "byteLength": 541212
    }
  ],
  "bufferViews": [
    {
      "buffer": 0,
      "byteOffset": 0,
      "byteLength": 38868,
      "target": 34962
    },
    {
      "buffer": 0,
      "byteOffset": 38868,
      "byteLength": 38868,
      "target": 34962
    },
    {
      "buffer": 0,
      "byteOffset": 77736,
      "byteLength": 25912,
      "target": 34962
    },
    {
      "buffer": 0,
      "byteOffset": 103648,
      "byteLength": 25912,
      "target": 34962
    },
    {
      "buffer": 0,
      "byteOffset": 129560,
      "byteLength": 38868,
      "target": 34962
    },
    {
      "buffer": 0,
      "byteOffset": 168428,
      "byteLength": 4320,
      "target": 34963
    },
    {
      "buffer": 0,
      "byteOffset": 172748,
      "byteLength": 38868,
      "target": 34962
    },
    {
      "buffer": 0,
      "byteOffset": 211616,
      "byteLength": 38868,
      "target": 34962
    },
    {
      "buffer": 0,
      "byteOffset": 250484,
      "byteLength": 25912,
      "target": 34962
    },
    {
      "buffer": 0,
      "byteOffset": 276396,
      "byteLength": 25912,
      "target": 34962
    },
    {
      "buffer": 0,
      "byteOffset": 302308,
      "byteLength": 38868,
      "target": 34962
    },
    {
      "buffer": 0,
      "byteOffset": 341176,
      "byteLength": 18852,
      "target": 34963
    },
    {
      "buffer": 0,
      "byteOffset": 360028,
      "byteLength": 38868,
      "target": 34962
    },
    {
      "buffer": 0,
      "byteOffset": 398896,
      "byteLength": 38868,
      "target": 34962
    },
    {
      "buffer": 0,
      "byteOffset": 437764,
      "byteLength": 25912,
      "target": 34962
    },
    {
      "buffer": 0,
      "byteOffset": 463676,
      "byteLength": 25912,
      "target": 34962
    },
    {
      "buffer": 0,
      "byteOffset": 489588,
      "byteLength": 38868,
      "target": 34962
    },
    {
      "buffer": 0,
      "byteOffset": 528456,
      "byteLength": 12756,
      "target": 34963
    }
  ],
  "accessors": [
    {
      "bufferView": 0,
      "componentType": 5126,
      "count": 3239,
      "type": "VEC3",
      "min": [
        -0.732414722442627,
        0.005961507558822632,
        -0.755953848361969
      ],
      "max": [
        0.7352191209793091,
        1.1990889310836792,
        0.8474216461181641
      ]
    },
    {
      "bufferView": 1,
      "componentType": 5126,
      "count": 3239,
      "type": "VEC3",
      "min": [
        -0.9996185302734375,
        -1,
        -0.9996184706687927
      ],
      "max": [
        0.999618411064148,
        1,
        0.9996185302734375
      ]
    },
    {
      "bufferView": 2,
      "componentType": 5126,
      "count": 3239,
      "type": "VEC2",
      "min": [
        0.02275370992720127,
        0.2340354323387146
      ],
      "max": [
        0.19469048082828522,
        0.9860857129096985
      ]
    },
    {
      "bufferView": 3,
      "componentType": 5126,
      "count": 3239,
      "type": "VEC2",
      "min": [
        0,
        0.9591360688209534
      ],
      "max": [
        0.0940934270620346,
        1
      ]
    },
    {
      "bufferView": 4,
      "componentType": 5126,
      "count": 2429.25,
      "type": "VEC4",
      "min": [
        0,
        0,
        0,
        0
      ],
      "max": [
        0,
        0,
        0,
        0
      ]
    },
    {
      "bufferView": 5,
      "componentType": 5123,
      "count": 2160,
      "type": "SCALAR",
      "min": [
        0
      ],
      "max": [
        371
      ]
    },
    {
      "bufferView": 6,
      "componentType": 5126,
      "count": 3239,
      "type": "VEC3",
      "min": [
        -0.732414722442627,
        0.005961507558822632,
        -0.755953848361969
      ],
      "max": [
        0.7352191209793091,
        1.1990889310836792,
        0.8474216461181641
      ]
    },
    {
      "bufferView": 7,
      "componentType": 5126,
      "count": 3239,
      "type": "VEC3",
      "min": [
        -0.9996185302734375,
        -1,
        -0.9996184706687927
      ],
      "max": [
        0.999618411064148,
        1,
        0.9996185302734375
      ]
    },
    {
      "bufferView": 8,
      "componentType": 5126,
      "count": 3239,
      "type": "VEC2",
      "min": [
        0.02275370992720127,
        0.2340354323387146
      ],
      "max": [
        0.19469048082828522,
        0.9860857129096985
      ]
    },
    {
      "bufferView": 9,
      "componentType": 5126,
      "count": 3239,
      "type": "VEC2",
      "min": [
        0,
        0.9591360688209534
      ],
      "max": [
        0.0940934270620346,
        1
      ]
    },
    {
      "bufferView": 10,
      "componentType": 5126,
      "count": 2429.25,
      "type": "VEC4",
      "min": [
        0,
        0,
        0,
        0
      ],
      "max": [
        0,
        0,
        0,
        0
      ]
    },
    {
      "bufferView": 11,
      "componentType": 5123,
      "count": 9426,
      "type": "SCALAR",
      "min": [
        0
      ],
      "max": [
        3238
      ]
    },
    {
      "bufferView": 12,
      "componentType": 5126,
      "count": 3239,
      "type": "VEC3",
      "min": [
        -0.732414722442627,
        0.005961507558822632,
        -0.755953848361969
      ],
      "max": [
        0.7352191209793091,
        1.1990889310836792,
        0.8474216461181641
      ]
    },
    {
      "bufferView": 13,
      "componentType": 5126,
      "count": 3239,
      "type": "VEC3",
      "min": [
        -0.9996185302734375,
        -1,
        -0.9996184706687927
      ],
      "max": [
        0.999618411064148,
        1,
        0.9996185302734375
      ]
    },
    {
      "bufferView": 14,
      "componentType": 5126,
      "count": 3239,
      "type": "VEC2",
      "min": [
        0.02275370992720127,
        0.2340354323387146
      ],
      "max": [
        0.19469048082828522,
        0.9860857129096985
      ]
    },
    {
      "bufferView": 15,
      "componentType": 5126,
      "count": 3239,
      "type": "VEC2",
      "min": [
        0,
        0.9591360688209534
      ],
      "max": [
        0.0940934270620346,
        1
      ]
    },
    {
      "bufferView": 16,
      "componentType": 5126,
      "count": 2429.25,
      "type": "VEC4",
      "min": [
        0,
        0,
        0,
        0
      ],
      "max": [
        0,
        0,
        0,
        0
      ]
    },
    {
      "bufferView": 17,
      "componentType": 5123,
      "count": 6378,
      "type": "SCALAR",
      "min": [
        0
      ],
      "max": [
        1952
      ]
    }
  ],
  "extras": {
    "manifest": "Slime_King_01.materials.json"
  }
}