{
  "asset": {
    "version": "2.0",
    "generator": "prefab-to-gltf"
  },
  "scene": 0,
  "scenes": [
    {
      "name": "Scythe_R8_R1Tomb_FigWiz",
      "nodes": [
        0
      ]
    }
  ],
  "nodes": [
    {
      "name": "Scythe_R8_R1Tomb_FigWiz",
      "translation": [
        0,
        0,
        0
      ],
      "rotation": [
        0,
        0,
        0,
        1
      ],
      "scale": [
        1,
        1,
        1
      ],
      "mesh": 0
    }
  ],
  "meshes": [
    {
      "name": "Scythe_R8_R1Tomb_FigWiz",
      "primitives": [
        {
          "attributes": {
            "POSITION": 0,
            "NORMAL": 1,
            "TEXCOORD_0": 2,
            "TEXCOORD_1": 3,
            "COLOR_0": 4
          },
          "indices": 5,
          "material": 0,
          "mode": 4
        }
      ]
    }
  ],
  "materials": [
    {
      "name": "MatSlots_WEAPONS",
      "pbrMetallicRoughness": {
        "baseColorFactor": [
          1,
          1,
          1,
          1
        ],
        "metallicFactor": 0,
        "roughnessFactor": 1
      },
      "doubleSided": true,
      "extras": {
        "diffuseTexture": null,
        "specularTexture": null,
        "normalMap": null
      }
    },
    {
      "name": "Outline",
      "pbrMetallicRoughness": {
        "baseColorFactor": [
          1,
          1,
          1,
          1
        ],
        "metallicFactor": 0,
        "roughnessFactor": 1
      },
      "doubleSided": true,
      "extras": {
        "diffuseTexture": null,
        "specularTexture": null,
        "normalMap": null
      }
    }
  ],
  "buffers": [
    {
      "uri": "Scythe_R8_R1Tomb_FigWiz.bin",
      "byteLength": 336756
    }
  ],
  "bufferViews": [
    {
      "buffer": 0,
      "byteOffset": 0,
      "byteLength": 69192,
      "target": 34962
    },
    {
      "buffer": 0,
      "byteOffset": 69192,
      "byteLength": 69192,
      "target": 34962
    },
    {
      "buffer": 0,
      "byteOffset": 138384,
      "byteLength": 46128,
      "target": 34962
    },
    {
      "buffer": 0,
      "byteOffset": 184512,
      "byteLength": 46128,
      "target": 34962
    },
    {
      "buffer": 0,
      "byteOffset": 230640,
      "byteLength": 69192,
      "target": 34962
    },
    {
      "buffer": 0,
      "byteOffset": 299832,
      "byteLength": 36924,
      "target": 34963
    }
  ],
  "accessors": [
    {
      "bufferView": 0,
      "componentType": 5126,
      "count": 5766,
      "type": "VEC3",
      "min": [
        -1.1896198987960815,
        -0.30764639377593994,
        -0.7284827828407288
      ],
      "max": [
        0.6166650056838989,
        0.30764663219451904,
        1.631570816040039
      ]
    },
    {
      "bufferView": 1,
      "componentType": 5126,
      "count": 5766,
      "type": "VEC3",
      "min": [
        -0.9999998211860657,
        -0.9999989867210388,
        -0.9998351335525513
      ],
      "max": [
        1,
        0.999998927116394,
        0.9999679327011108
      ]
    },
    {
      "bufferView": 2,
      "componentType": 5126,
      "count": 5766,
      "type": "VEC2",
      "min": [
        0.01912975311279297,
        0.04373753070831299
      ],
      "max": [
        0.5823243856430054,
        1.0065891742706299
      ]
    },
    {
      "bufferView": 3,
      "componentType": 5126,
      "count": 5766,
      "type": "VEC2",
      "min": [
        0,
        0.13087594509124756
      ],
      "max": [
        0.9448750019073486,
        1
      ]
    },
    {
      "bufferView": 4,
      "componentType": 5126,
      "count": 4324.5,
      "type": "VEC4",
      "min": [
        0,
        0,
        0,
        0
      ],
      "max": [
        1,
        1,
        1,
        1
      ]
    },
    {
      "bufferView": 5,
      "componentType": 5123,
      "count": 18462,
      "type": "SCALAR",
      "min": [
        0
      ],
      "max": [
        5765
      ]
    }
  ],
  "extras": {
    "manifest": "Scythe_R8_R1Tomb_FigWiz.materials.json"
  }
}